# MagicaVoxel @ Ephtracy

# group
o 

# material
mtllib key.mtl
usemtl palette

# normals
vn -1 0 0
vn 1 0 0
vn 0 0 1
vn 0 0 -1
vn 0 -1 0
vn 0 1 0

# texcoords
vt 0.0449219 0.5
vt 0.0683594 0.5
vt 0.955078 0.5
vt 0.958984 0.5

# verts
v 0 2.9 0
v 0 2.9 -0.1
v 0 3.5 0
v 0 3.5 -0.1
v 0.1 2 0
v 0.1 2 -0.1
v 0.1 2.6 0
v 0.1 2.6 -0.1
v 0.1 3.5 0
v 0.1 3.5 -0.1
v 0.1 3.6 0
v 0.1 3.6 -0.1
v 0.2 3.6 0
v 0.2 3.6 -0.1
v 0.2 3.7 0
v 0.2 3.7 -0.1
v 0.3 2.6 0
v 0.3 2.6 -0.1
v 0.3 2.9 0
v 0.3 2.9 -0.1
v 0.3 3.7 0
v 0.3 3.7 -0.1
v 0.3 3.8 0
v 0.3 3.8 -0.1
v 0.6 3.3 0
v 0.6 3.3 -0.1
v 0.6 3.4 0
v 0.6 3.4 -0.1
v 0.4 3.3 0
v 0.4 3.3 -0.1
v 0.4 3.4 0
v 0.4 3.4 -0.1
v 0.7 2 0
v 0.7 2 -0.1
v 0.7 2.9 0
v 0.7 2.9 -0.1
v 0.7 3.7 0
v 0.7 3.7 -0.1
v 0.7 3.8 0
v 0.7 3.8 -0.1
v 0.8 3.6 0
v 0.8 3.6 -0.1
v 0.8 3.7 0
v 0.8 3.7 -0.1
v 0.9 3.5 0
v 0.9 3.5 -0.1
v 0.9 3.6 0
v 0.9 3.6 -0.1
v 1 2.9 0
v 1 2.9 -0.1
v 1 3.5 0
v 1 3.5 -0.1
v 0 2.9 0
v 0 3.5 0
v 0.1 2 0
v 0.1 2.6 0
v 0.1 3 0
v 0.1 3.1 0
v 0.1 3.2 0
v 0.1 3.5 0
v 0.1 3.6 0
v 0.2 2.1 0
v 0.2 2.2 0
v 0.2 2.3 0
v 0.2 2.4 0
v 0.2 2.5 0
v 0.2 3 0
v 0.2 3.1 0
v 0.2 3.2 0
v 0.2 3.4 0
v 0.2 3.5 0
v 0.2 3.6 0
v 0.2 3.7 0
v 0.3 2.2 0
v 0.3 2.3 0
v 0.3 2.4 0
v 0.3 2.5 0
v 0.3 2.6 0
v 0.3 2.9 0
v 0.3 3.2 0
v 0.3 3.4 0
v 0.3 3.5 0
v 0.3 3.6 0
v 0.3 3.7 0
v 0.3 3.8 0
v 0.4 2.5 0
v 0.4 3 0
v 0.4 3.3 0
v 0.4 3.4 0
v 0.4 3.5 0
v 0.5 2.1 0
v 0.5 3 0
v 0.6 2.1 0
v 0.6 3 0
v 0.6 3.1 0
v 0.6 3.3 0
v 0.6 3.4 0
v 0.6 3.5 0
v 0.6 3.6 0
v 0.6 3.7 0
v 0.7 2 0
v 0.7 2.9 0
v 0.7 3.2 0
v 0.7 3.4 0
v 0.7 3.5 0
v 0.7 3.6 0
v 0.7 3.7 0
v 0.7 3.8 0
v 0.8 3.1 0
v 0.8 3.5 0
v 0.8 3.6 0
v 0.8 3.7 0
v 0.9 3 0
v 0.9 3.5 0
v 0.9 3.6 0
v 1 2.9 0
v 1 3.5 0
v 0 2.9 -0.1
v 0 3.5 -0.1
v 0.1 2 -0.1
v 0.1 2.6 -0.1
v 0.1 3 -0.1
v 0.1 3.1 -0.1
v 0.1 3.2 -0.1
v 0.1 3.5 -0.1
v 0.1 3.6 -0.1
v 0.2 2.1 -0.1
v 0.2 2.2 -0.1
v 0.2 2.3 -0.1
v 0.2 2.4 -0.1
v 0.2 2.5 -0.1
v 0.2 3 -0.1
v 0.2 3.1 -0.1
v 0.2 3.2 -0.1
v 0.2 3.4 -0.1
v 0.2 3.5 -0.1
v 0.2 3.6 -0.1
v 0.2 3.7 -0.1
v 0.3 2.2 -0.1
v 0.3 2.3 -0.1
v 0.3 2.4 -0.1
v 0.3 2.5 -0.1
v 0.3 2.6 -0.1
v 0.3 2.9 -0.1
v 0.3 3.2 -0.1
v 0.3 3.4 -0.1
v 0.3 3.5 -0.1
v 0.3 3.6 -0.1
v 0.3 3.7 -0.1
v 0.3 3.8 -0.1
v 0.4 2.5 -0.1
v 0.4 3 -0.1
v 0.4 3.3 -0.1
v 0.4 3.4 -0.1
v 0.4 3.5 -0.1
v 0.5 2.1 -0.1
v 0.5 3 -0.1
v 0.6 2.1 -0.1
v 0.6 3 -0.1
v 0.6 3.1 -0.1
v 0.6 3.3 -0.1
v 0.6 3.4 -0.1
v 0.6 3.5 -0.1
v 0.6 3.6 -0.1
v 0.6 3.7 -0.1
v 0.7 2 -0.1
v 0.7 2.9 -0.1
v 0.7 3.2 -0.1
v 0.7 3.4 -0.1
v 0.7 3.5 -0.1
v 0.7 3.6 -0.1
v 0.7 3.7 -0.1
v 0.7 3.8 -0.1
v 0.8 3.1 -0.1
v 0.8 3.5 -0.1
v 0.8 3.6 -0.1
v 0.8 3.7 -0.1
v 0.9 3 -0.1
v 0.9 3.5 -0.1
v 0.9 3.6 -0.1
v 1 2.9 -0.1
v 1 3.5 -0.1
v 0.1 2 0
v 0.7 2 0
v 0.1 2 -0.1
v 0.7 2 -0.1
v 0 2.9 0
v 0.3 2.9 0
v 0.7 2.9 0
v 1 2.9 0
v 0 2.9 -0.1
v 0.3 2.9 -0.1
v 0.7 2.9 -0.1
v 1 2.9 -0.1
v 0.4 3.4 0
v 0.6 3.4 0
v 0.4 3.4 -0.1
v 0.6 3.4 -0.1
v 0.1 2.6 0
v 0.3 2.6 0
v 0.1 2.6 -0.1
v 0.3 2.6 -0.1
v 0.4 3.3 0
v 0.6 3.3 0
v 0.4 3.3 -0.1
v 0.6 3.3 -0.1
v 0 3.5 0
v 0.1 3.5 0
v 0.9 3.5 0
v 1 3.5 0
v 0 3.5 -0.1
v 0.1 3.5 -0.1
v 0.9 3.5 -0.1
v 1 3.5 -0.1
v 0.1 3.6 0
v 0.2 3.6 0
v 0.8 3.6 0
v 0.9 3.6 0
v 0.1 3.6 -0.1
v 0.2 3.6 -0.1
v 0.8 3.6 -0.1
v 0.9 3.6 -0.1
v 0.2 3.7 0
v 0.3 3.7 0
v 0.7 3.7 0
v 0.8 3.7 0
v 0.2 3.7 -0.1
v 0.3 3.7 -0.1
v 0.7 3.7 -0.1
v 0.8 3.7 -0.1
v 0.3 3.8 0
v 0.7 3.8 0
v 0.3 3.8 -0.1
v 0.7 3.8 -0.1

# faces
f 3/3/1 2/3/1 1/3/1
f 4/3/1 2/3/1 3/3/1
f 7/3/1 6/3/1 5/3/1
f 8/3/1 6/3/1 7/3/1
f 11/3/1 10/3/1 9/3/1
f 12/3/1 10/3/1 11/3/1
f 15/3/1 14/3/1 13/3/1
f 16/3/1 14/3/1 15/3/1
f 19/3/1 18/3/1 17/3/1
f 20/3/1 18/3/1 19/3/1
f 23/3/1 22/3/1 21/3/1
f 24/3/1 22/3/1 23/3/1
f 27/3/1 26/3/1 25/3/1
f 28/3/1 26/3/1 27/3/1
f 29/3/2 30/3/2 31/3/2
f 31/3/2 30/3/2 32/3/2
f 33/3/2 34/3/2 35/3/2
f 35/3/2 34/3/2 36/3/2
f 37/3/2 38/3/2 39/3/2
f 39/3/2 38/3/2 40/3/2
f 41/3/2 42/3/2 43/3/2
f 43/3/2 42/3/2 44/3/2
f 45/3/2 46/3/2 47/3/2
f 47/3/2 46/3/2 48/3/2
f 49/3/2 50/3/2 51/3/2
f 51/3/2 50/3/2 52/3/2
f 57/3/3 54/3/3 53/3/3
f 58/3/3 54/3/3 57/3/3
f 59/3/3 54/3/3 58/3/3
f 60/3/3 54/3/3 59/3/3
f 62/3/3 56/3/3 55/3/3
f 63/3/3 56/3/3 62/3/3
f 64/3/3 56/3/3 63/3/3
f 65/3/3 56/3/3 64/3/3
f 66/3/3 56/3/3 65/3/3
f 67/3/3 57/3/3 53/3/3
f 67/4/3 58/4/3 57/4/3
f 68/1/3 59/1/3 58/1/3
f 68/4/3 58/4/3 67/4/3
f 69/4/3 60/4/3 59/4/3
f 69/1/3 59/1/3 68/1/3
f 70/4/3 60/4/3 69/4/3
f 71/3/3 61/3/3 60/3/3
f 71/4/3 60/4/3 70/4/3
f 72/3/3 61/3/3 71/3/3
f 74/1/3 63/1/3 62/1/3
f 74/3/3 64/3/3 63/3/3
f 75/1/3 65/1/3 64/1/3
f 75/3/3 64/3/3 74/3/3
f 76/4/3 66/4/3 65/4/3
f 76/1/3 65/1/3 75/1/3
f 77/3/3 56/3/3 66/3/3
f 77/4/3 66/4/3 76/4/3
f 78/3/3 56/3/3 77/3/3
f 79/3/3 67/3/3 53/3/3
f 80/2/3 70/2/3 69/2/3
f 80/1/3 68/1/3 67/1/3
f 80/1/3 69/1/3 68/1/3
f 81/1/3 71/1/3 70/1/3
f 81/2/3 70/2/3 80/2/3
f 82/4/3 72/4/3 71/4/3
f 82/1/3 71/1/3 81/1/3
f 83/3/3 73/3/3 72/3/3
f 83/4/3 72/4/3 82/4/3
f 84/3/3 73/3/3 83/3/3
f 86/3/3 79/3/3 78/3/3
f 86/1/3 76/1/3 75/1/3
f 86/1/3 75/1/3 74/1/3
f 86/3/3 78/3/3 77/3/3
f 86/1/3 77/1/3 76/1/3
f 87/1/3 80/1/3 67/1/3
f 87/3/3 79/3/3 86/3/3
f 87/3/3 67/3/3 79/3/3
f 88/3/3 81/3/3 80/3/3
f 89/2/3 82/2/3 81/2/3
f 89/3/3 81/3/3 88/3/3
f 90/1/3 84/1/3 83/1/3
f 90/2/3 82/2/3 89/2/3
f 90/1/3 83/1/3 82/1/3
f 91/1/3 87/1/3 86/1/3
f 91/1/3 86/1/3 74/1/3
f 91/1/3 74/1/3 62/1/3
f 91/3/3 62/3/3 55/3/3
f 92/1/3 80/1/3 87/1/3
f 92/1/3 87/1/3 91/1/3
f 93/3/3 91/3/3 55/3/3
f 93/2/3 92/2/3 91/2/3
f 94/1/3 80/1/3 92/1/3
f 94/2/3 92/2/3 93/2/3
f 95/1/3 80/1/3 94/1/3
f 96/3/3 88/3/3 80/3/3
f 97/3/3 90/3/3 89/3/3
f 98/1/3 84/1/3 90/1/3
f 98/3/3 90/3/3 97/3/3
f 99/1/3 84/1/3 98/1/3
f 100/3/3 85/3/3 84/3/3
f 100/1/3 84/1/3 99/1/3
f 101/3/3 93/3/3 55/3/3
f 101/3/3 94/3/3 93/3/3
f 102/3/3 94/3/3 101/3/3
f 103/3/3 97/3/3 96/3/3
f 103/3/3 96/3/3 80/3/3
f 103/1/3 80/1/3 95/1/3
f 104/1/3 99/1/3 98/1/3
f 104/3/3 97/3/3 103/3/3
f 104/1/3 98/1/3 97/1/3
f 105/1/3 99/1/3 104/1/3
f 106/2/3 100/2/3 99/2/3
f 106/1/3 99/1/3 105/1/3
f 107/3/3 85/3/3 100/3/3
f 107/2/3 100/2/3 106/2/3
f 108/3/3 85/3/3 107/3/3
f 109/1/3 103/1/3 95/1/3
f 109/1/3 105/1/3 104/1/3
f 109/1/3 104/1/3 103/1/3
f 109/2/3 95/2/3 94/2/3
f 110/2/3 106/2/3 105/2/3
f 110/1/3 105/1/3 109/1/3
f 111/3/3 107/3/3 106/3/3
f 111/2/3 106/2/3 110/2/3
f 112/3/3 107/3/3 111/3/3
f 113/3/3 94/3/3 102/3/3
f 113/2/3 110/2/3 109/2/3
f 113/2/3 109/2/3 94/2/3
f 114/3/3 111/3/3 110/3/3
f 114/2/3 110/2/3 113/2/3
f 115/3/3 111/3/3 114/3/3
f 116/3/3 113/3/3 102/3/3
f 116/3/3 114/3/3 113/3/3
f 117/3/3 114/3/3 116/3/3
f 118/3/4 119/3/4 122/3/4
f 122/3/4 119/3/4 123/3/4
f 123/3/4 119/3/4 124/3/4
f 124/3/4 119/3/4 125/3/4
f 120/3/4 121/3/4 127/3/4
f 127/3/4 121/3/4 128/3/4
f 128/3/4 121/3/4 129/3/4
f 129/3/4 121/3/4 130/3/4
f 130/3/4 121/3/4 131/3/4
f 118/3/4 122/3/4 132/3/4
f 122/4/4 123/4/4 132/4/4
f 123/1/4 124/1/4 133/1/4
f 132/4/4 123/4/4 133/4/4
f 124/4/4 125/4/4 134/4/4
f 133/1/4 124/1/4 134/1/4
f 134/4/4 125/4/4 135/4/4
f 125/3/4 126/3/4 136/3/4
f 135/4/4 125/4/4 136/4/4
f 136/3/4 126/3/4 137/3/4
f 127/1/4 128/1/4 139/1/4
f 128/3/4 129/3/4 139/3/4
f 129/1/4 130/1/4 140/1/4
f 139/3/4 129/3/4 140/3/4
f 130/4/4 131/4/4 141/4/4
f 140/1/4 130/1/4 141/1/4
f 131/3/4 121/3/4 142/3/4
f 141/4/4 131/4/4 142/4/4
f 142/3/4 121/3/4 143/3/4
f 118/3/4 132/3/4 144/3/4
f 134/2/4 135/2/4 145/2/4
f 132/1/4 133/1/4 145/1/4
f 133/1/4 134/1/4 145/1/4
f 135/1/4 136/1/4 146/1/4
f 145/2/4 135/2/4 146/2/4
f 136/4/4 137/4/4 147/4/4
f 146/1/4 136/1/4 147/1/4
f 137/3/4 138/3/4 148/3/4
f 147/4/4 137/4/4 148/4/4
f 148/3/4 138/3/4 149/3/4
f 143/3/4 144/3/4 151/3/4
f 140/1/4 141/1/4 151/1/4
f 139/1/4 140/1/4 151/1/4
f 142/3/4 143/3/4 151/3/4
f 141/1/4 142/1/4 151/1/4
f 132/1/4 145/1/4 152/1/4
f 151/3/4 144/3/4 152/3/4
f 144/3/4 132/3/4 152/3/4
f 145/3/4 146/3/4 153/3/4
f 146/2/4 147/2/4 154/2/4
f 153/3/4 146/3/4 154/3/4
f 148/1/4 149/1/4 155/1/4
f 154/2/4 147/2/4 155/2/4
f 147/1/4 148/1/4 155/1/4
f 151/1/4 152/1/4 156/1/4
f 139/1/4 151/1/4 156/1/4
f 127/1/4 139/1/4 156/1/4
f 120/3/4 127/3/4 156/3/4
f 152/1/4 145/1/4 157/1/4
f 156/1/4 152/1/4 157/1/4
f 120/3/4 156/3/4 158/3/4
f 156/2/4 157/2/4 158/2/4
f 157/1/4 145/1/4 159/1/4
f 158/2/4 157/2/4 159/2/4
f 159/1/4 145/1/4 160/1/4
f 145/3/4 153/3/4 161/3/4
f 154/3/4 155/3/4 162/3/4
f 155/1/4 149/1/4 163/1/4
f 162/3/4 155/3/4 163/3/4
f 163/1/4 149/1/4 164/1/4
f 149/3/4 150/3/4 165/3/4
f 164/1/4 149/1/4 165/1/4
f 120/3/4 158/3/4 166/3/4
f 158/3/4 159/3/4 166/3/4
f 166/3/4 159/3/4 167/3/4
f 161/3/4 162/3/4 168/3/4
f 145/3/4 161/3/4 168/3/4
f 160/1/4 145/1/4 168/1/4
f 163/1/4 164/1/4 169/1/4
f 168/3/4 162/3/4 169/3/4
f 162/1/4 163/1/4 169/1/4
f 169/1/4 164/1/4 170/1/4
f 164/2/4 165/2/4 171/2/4
f 170/1/4 164/1/4 171/1/4
f 165/3/4 150/3/4 172/3/4
f 171/2/4 165/2/4 172/2/4
f 172/3/4 150/3/4 173/3/4
f 160/1/4 168/1/4 174/1/4
f 169/1/4 170/1/4 174/1/4
f 168/1/4 169/1/4 174/1/4
f 159/2/4 160/2/4 174/2/4
f 170/2/4 171/2/4 175/2/4
f 174/1/4 170/1/4 175/1/4
f 171/3/4 172/3/4 176/3/4
f 175/2/4 171/2/4 176/2/4
f 176/3/4 172/3/4 177/3/4
f 167/3/4 159/3/4 178/3/4
f 174/2/4 175/2/4 178/2/4
f 159/2/4 174/2/4 178/2/4
f 175/3/4 176/3/4 179/3/4
f 178/2/4 175/2/4 179/2/4
f 179/3/4 176/3/4 180/3/4
f 167/3/4 178/3/4 181/3/4
f 178/3/4 179/3/4 181/3/4
f 181/3/4 179/3/4 182/3/4
f 185/3/5 184/3/5 183/3/5
f 186/3/5 184/3/5 185/3/5
f 191/3/5 188/3/5 187/3/5
f 192/3/5 188/3/5 191/3/5
f 193/3/5 190/3/5 189/3/5
f 194/3/5 190/3/5 193/3/5
f 197/3/5 196/3/5 195/3/5
f 198/3/5 196/3/5 197/3/5
f 199/3/6 200/3/6 201/3/6
f 201/3/6 200/3/6 202/3/6
f 203/3/6 204/3/6 205/3/6
f 205/3/6 204/3/6 206/3/6
f 207/3/6 208/3/6 211/3/6
f 211/3/6 208/3/6 212/3/6
f 209/3/6 210/3/6 213/3/6
f 213/3/6 210/3/6 214/3/6
f 215/3/6 216/3/6 219/3/6
f 219/3/6 216/3/6 220/3/6
f 217/3/6 218/3/6 221/3/6
f 221/3/6 218/3/6 222/3/6
f 223/3/6 224/3/6 227/3/6
f 227/3/6 224/3/6 228/3/6
f 225/3/6 226/3/6 229/3/6
f 229/3/6 226/3/6 230/3/6
f 231/3/6 232/3/6 233/3/6
f 233/3/6 232/3/6 234/3/6
