# MagicaVoxel @ Ephtracy

# group
o 

# material
mtllib rat_knockdown_1.mtl
usemtl palette

# normals
vn -1 0 0
vn 1 0 0
vn 0 0 1
vn 0 0 -1
vn 0 -1 0
vn 0 1 0

# texcoords
vt 0.0292969 0.5
vt 0.982422 0.5
vt 0.994141 0.5

# verts
v 0 2 -0.9
v 0 2 -1
v 0 2.1 -0.8
v 0 2.1 -0.9
v 0 2.1 -1
v 0 2.2 -0.8
v 0 2.2 -0.9
v 0 2.2 -1
v 0 2.6 -0.1
v 0 2.6 -0.3
v 0 2.6 -0.6
v 0 2.6 -0.8
v 0 2.6 -1
v 0 2.7 -0.1
v 0 2.7 -0.3
v 0 2.7 -0.4
v 0 2.8 -0.4
v 0 2.8 -0.6
v 0 3 -0.2
v 0 3 -0.3
v 0 3.1 -0.2
v 0 3.1 -0.3
v 0 3.1 -0.4
v 0 3.2 -0.3
v 0 3.2 -0.4
v 0 3.2 -0.5
v 0 3.3 -0.4
v 0 3.3 -0.5
v 0.1 2.3 -1
v 0.1 2.3 -1.1
v 0.1 2.4 -0.7
v 0.1 2.4 -0.8
v 0.1 2.5 -0.6
v 0.1 2.5 -0.7
v 0.1 2.5 -1
v 0.1 2.5 -1.1
v 0.1 2.6 -0.6
v 0.1 2.6 -0.8
v 0.1 2.6 -0.9
v 0.1 2.7 -0.3
v 0.1 2.7 -0.4
v 0.1 2.7 -0.8
v 0.1 2.7 -0.9
v 0.1 2.8 -0.2
v 0.1 2.8 -0.3
v 0.1 2.8 -0.4
v 0.1 2.8 -0.6
v 0.1 2.8 -0.7
v 0.1 2.8 -0.8
v 0.1 2.9 -0.1
v 0.1 2.9 -0.2
v 0.1 2.9 -0.6
v 0.1 2.9 -0.7
v 0.1 3 -0.2
v 0.1 3 -0.3
v 0.1 3 -0.4
v 0.1 3 -0.6
v 0.1 3.1 -0.1
v 0.1 3.1 -0.2
v 0.1 3.1 -0.3
v 0.1 3.1 -0.4
v 0.1 3.2 -0.2
v 0.1 3.2 -0.3
v 0.2 2.3 -1.1
v 0.2 2.3 -1.2
v 0.2 2.4 -1.1
v 0.2 2.4 -1.2
v 0.2 2.4 -1.3
v 0.2 2.5 -1.2
v 0.2 2.5 -1.3
v 0.2 2.5 -1.4
v 0.2 2.7 -1.3
v 0.2 2.7 -1.4
v 0.2 2.7 -1.5
v 0.2 2.8 -0.1
v 0.2 2.8 -0.2
v 0.2 2.9 -0.1
v 0.2 2.9 -0.2
v 0.2 2.9 -1.4
v 0.2 2.9 -1.5
v 0.2 3.1 0
v 0.2 3.1 -0.1
v 0.2 3.2 0
v 0.2 3.2 -0.1
v 0.3 2.7 -0.4
v 0.3 2.7 -0.5
v 0.3 2.8 -0.4
v 0.3 2.8 -0.5
v 0.4 2 -0.9
v 0.4 2 -1
v 0.4 2.1 -0.8
v 0.4 2.1 -0.9
v 0.4 2.1 -1
v 0.4 2.2 -0.8
v 0.4 2.2 -0.9
v 0.4 2.2 -1
v 0.4 2.3 -1
v 0.4 2.4 -0.8
v 0.4 2.4 -1
v 0.4 2.5 -0.8
v 0.4 2.5 -0.9
v 0.4 2.6 -0.1
v 0.4 2.6 -0.3
v 0.4 2.6 -0.4
v 0.4 2.6 -0.8
v 0.4 2.6 -0.9
v 0.4 2.7 -0.1
v 0.4 2.7 -0.3
v 0.4 2.7 -0.4
v 0.4 2.7 -0.5
v 0.4 2.7 -0.6
v 0.4 2.8 -0.5
v 0.4 2.8 -0.6
v 0.4 3.1 -0.3
v 0.4 3.1 -0.4
v 0.4 3.2 -0.3
v 0.4 3.2 -0.4
v 0.4 3.2 -0.5
v 0.4 3.3 -0.4
v 0.4 3.3 -0.5
v 0.1 2 -0.9
v 0.1 2 -1
v 0.1 2.1 -0.8
v 0.1 2.1 -0.9
v 0.1 2.1 -1
v 0.1 2.2 -0.8
v 0.1 2.2 -0.9
v 0.1 2.2 -1
v 0.1 2.3 -1
v 0.1 2.4 -0.8
v 0.1 2.4 -1
v 0.1 2.5 -0.8
v 0.1 2.5 -0.9
v 0.1 2.6 -0.1
v 0.1 2.6 -0.3
v 0.1 2.6 -0.4
v 0.1 2.6 -0.8
v 0.1 2.6 -0.9
v 0.1 2.7 -0.1
v 0.1 2.7 -0.3
v 0.1 2.7 -0.4
v 0.1 2.7 -0.5
v 0.1 2.7 -0.6
v 0.1 2.8 -0.5
v 0.1 2.8 -0.6
v 0.1 3.1 -0.3
v 0.1 3.1 -0.4
v 0.1 3.2 -0.3
v 0.1 3.2 -0.4
v 0.1 3.2 -0.5
v 0.1 3.3 -0.4
v 0.1 3.3 -0.5
v 0.2 2.7 -0.4
v 0.2 2.7 -0.5
v 0.2 2.8 -0.4
v 0.2 2.8 -0.5
v 0.3 2.3 -1.1
v 0.3 2.3 -1.2
v 0.3 2.4 -1.1
v 0.3 2.4 -1.2
v 0.3 2.4 -1.3
v 0.3 2.5 -1.2
v 0.3 2.5 -1.3
v 0.3 2.5 -1.4
v 0.3 2.7 -1.3
v 0.3 2.7 -1.4
v 0.3 2.7 -1.5
v 0.3 2.8 -0.1
v 0.3 2.8 -0.2
v 0.3 2.9 -0.1
v 0.3 2.9 -0.2
v 0.3 2.9 -1.4
v 0.3 2.9 -1.5
v 0.3 3.1 0
v 0.3 3.1 -0.1
v 0.3 3.2 0
v 0.3 3.2 -0.1
v 0.4 2.3 -1
v 0.4 2.3 -1.1
v 0.4 2.4 -0.7
v 0.4 2.4 -0.8
v 0.4 2.5 -0.6
v 0.4 2.5 -0.7
v 0.4 2.5 -1
v 0.4 2.5 -1.1
v 0.4 2.6 -0.6
v 0.4 2.6 -0.8
v 0.4 2.6 -0.9
v 0.4 2.7 -0.3
v 0.4 2.7 -0.4
v 0.4 2.7 -0.8
v 0.4 2.7 -0.9
v 0.4 2.8 -0.2
v 0.4 2.8 -0.3
v 0.4 2.8 -0.4
v 0.4 2.8 -0.6
v 0.4 2.8 -0.7
v 0.4 2.8 -0.8
v 0.4 2.9 -0.1
v 0.4 2.9 -0.2
v 0.4 2.9 -0.6
v 0.4 2.9 -0.7
v 0.4 3 -0.2
v 0.4 3 -0.3
v 0.4 3 -0.4
v 0.4 3 -0.6
v 0.4 3.1 -0.1
v 0.4 3.1 -0.2
v 0.4 3.1 -0.3
v 0.4 3.1 -0.4
v 0.4 3.2 -0.2
v 0.4 3.2 -0.3
v 0.5 2 -0.9
v 0.5 2 -1
v 0.5 2.1 -0.8
v 0.5 2.1 -0.9
v 0.5 2.1 -1
v 0.5 2.2 -0.8
v 0.5 2.2 -0.9
v 0.5 2.2 -1
v 0.5 2.6 -0.1
v 0.5 2.6 -0.3
v 0.5 2.6 -0.6
v 0.5 2.6 -0.8
v 0.5 2.6 -1
v 0.5 2.7 -0.1
v 0.5 2.7 -0.3
v 0.5 2.7 -0.4
v 0.5 2.8 -0.4
v 0.5 2.8 -0.6
v 0.5 3 -0.2
v 0.5 3 -0.3
v 0.5 3.1 -0.2
v 0.5 3.1 -0.3
v 0.5 3.1 -0.4
v 0.5 3.2 -0.3
v 0.5 3.2 -0.4
v 0.5 3.2 -0.5
v 0.5 3.3 -0.4
v 0.5 3.3 -0.5
v 0.2 3.1 0
v 0.2 3.2 0
v 0.3 3.1 0
v 0.3 3.2 0
v 0 2.6 -0.1
v 0 2.7 -0.1
v 0.1 2.6 -0.1
v 0.1 2.7 -0.1
v 0.1 2.9 -0.1
v 0.1 3.1 -0.1
v 0.2 2.8 -0.1
v 0.2 2.9 -0.1
v 0.2 3.1 -0.1
v 0.3 2.8 -0.1
v 0.3 2.9 -0.1
v 0.3 3.1 -0.1
v 0.4 2.6 -0.1
v 0.4 2.7 -0.1
v 0.4 2.9 -0.1
v 0.4 3.1 -0.1
v 0.5 2.6 -0.1
v 0.5 2.7 -0.1
v 0 3 -0.2
v 0 3.1 -0.2
v 0.1 2.8 -0.2
v 0.1 2.9 -0.2
v 0.1 3 -0.2
v 0.1 3.1 -0.2
v 0.1 3.2 -0.2
v 0.2 2.8 -0.2
v 0.2 2.9 -0.2
v 0.3 2.8 -0.2
v 0.3 2.9 -0.2
v 0.4 2.8 -0.2
v 0.4 2.9 -0.2
v 0.4 3 -0.2
v 0.4 3.1 -0.2
v 0.4 3.2 -0.2
v 0.5 3 -0.2
v 0.5 3.1 -0.2
v 0 3.1 -0.3
v 0 3.2 -0.3
v 0.1 2.7 -0.3
v 0.1 2.8 -0.3
v 0.1 3.1 -0.3
v 0.1 3.2 -0.3
v 0.4 2.7 -0.3
v 0.4 2.8 -0.3
v 0.4 3.1 -0.3
v 0.4 3.2 -0.3
v 0.5 3.1 -0.3
v 0.5 3.2 -0.3
v 0 2.7 -0.4
v 0 2.8 -0.4
v 0 3.2 -0.4
v 0 3.3 -0.4
v 0.1 2.6 -0.4
v 0.1 2.7 -0.4
v 0.1 2.8 -0.4
v 0.1 3.2 -0.4
v 0.1 3.3 -0.4
v 0.4 2.6 -0.4
v 0.4 2.7 -0.4
v 0.4 2.8 -0.4
v 0.4 3.2 -0.4
v 0.4 3.3 -0.4
v 0.5 2.7 -0.4
v 0.5 2.8 -0.4
v 0.5 3.2 -0.4
v 0.5 3.3 -0.4
v 0.1 2.5 -0.6
v 0.1 2.6 -0.6
v 0.1 2.7 -0.6
v 0.1 2.8 -0.6
v 0.4 2.5 -0.6
v 0.4 2.6 -0.6
v 0.4 2.7 -0.6
v 0.4 2.8 -0.6
v 0.1 2.4 -0.7
v 0.1 2.5 -0.7
v 0.4 2.4 -0.7
v 0.4 2.5 -0.7
v 0 2.1 -0.8
v 0 2.2 -0.8
v 0 2.6 -0.8
v 0.1 2.1 -0.8
v 0.1 2.2 -0.8
v 0.1 2.4 -0.8
v 0.1 2.6 -0.8
v 0.4 2.1 -0.8
v 0.4 2.2 -0.8
v 0.4 2.4 -0.8
v 0.4 2.6 -0.8
v 0.5 2.1 -0.8
v 0.5 2.2 -0.8
v 0.5 2.6 -0.8
v 0 2 -0.9
v 0 2.1 -0.9
v 0.1 2 -0.9
v 0.1 2.1 -0.9
v 0.1 2.5 -0.9
v 0.1 2.6 -0.9
v 0.4 2 -0.9
v 0.4 2.1 -0.9
v 0.4 2.5 -0.9
v 0.4 2.6 -0.9
v 0.5 2 -0.9
v 0.5 2.1 -0.9
v 0.1 2.3 -1
v 0.1 2.4 -1
v 0.4 2.3 -1
v 0.4 2.4 -1
v 0.2 2.4 -1.2
v 0.2 2.5 -1.2
v 0.3 2.4 -1.2
v 0.3 2.5 -1.2
v 0.2 2.5 -1.3
v 0.2 2.7 -1.3
v 0.3 2.5 -1.3
v 0.3 2.7 -1.3
v 0.2 2.7 -1.4
v 0.2 2.9 -1.4
v 0.3 2.7 -1.4
v 0.3 2.9 -1.4
v 0.2 3.1 -0.1
v 0.2 3.2 -0.1
v 0.3 3.1 -0.1
v 0.3 3.2 -0.1
v 0 3 -0.3
v 0 3.1 -0.3
v 0.1 3 -0.3
v 0.1 3.1 -0.3
v 0.1 3.2 -0.3
v 0.4 3 -0.3
v 0.4 3.1 -0.3
v 0.4 3.2 -0.3
v 0.5 3 -0.3
v 0.5 3.1 -0.3
v 0 3.1 -0.4
v 0 3.2 -0.4
v 0.1 3 -0.4
v 0.1 3.1 -0.4
v 0.1 3.2 -0.4
v 0.2 2.7 -0.4
v 0.2 2.8 -0.4
v 0.3 2.7 -0.4
v 0.3 2.8 -0.4
v 0.4 3 -0.4
v 0.4 3.1 -0.4
v 0.4 3.2 -0.4
v 0.5 3.1 -0.4
v 0.5 3.2 -0.4
v 0 3.2 -0.5
v 0 3.3 -0.5
v 0.1 2.7 -0.5
v 0.1 2.8 -0.5
v 0.1 3.2 -0.5
v 0.1 3.3 -0.5
v 0.2 2.7 -0.5
v 0.2 2.8 -0.5
v 0.3 2.7 -0.5
v 0.3 2.8 -0.5
v 0.4 2.7 -0.5
v 0.4 2.8 -0.5
v 0.4 3.2 -0.5
v 0.4 3.3 -0.5
v 0.5 3.2 -0.5
v 0.5 3.3 -0.5
v 0 2.6 -0.6
v 0 2.8 -0.6
v 0.1 2.6 -0.6
v 0.1 2.8 -0.6
v 0.1 2.9 -0.6
v 0.1 3 -0.6
v 0.4 2.6 -0.6
v 0.4 2.8 -0.6
v 0.4 2.9 -0.6
v 0.4 3 -0.6
v 0.5 2.6 -0.6
v 0.5 2.8 -0.6
v 0.1 2.8 -0.7
v 0.1 2.9 -0.7
v 0.4 2.8 -0.7
v 0.4 2.9 -0.7
v 0.1 2.5 -0.8
v 0.1 2.6 -0.8
v 0.1 2.7 -0.8
v 0.1 2.8 -0.8
v 0.4 2.5 -0.8
v 0.4 2.6 -0.8
v 0.4 2.7 -0.8
v 0.4 2.8 -0.8
v 0 2.1 -0.9
v 0 2.2 -0.9
v 0.1 2.1 -0.9
v 0.1 2.2 -0.9
v 0.1 2.6 -0.9
v 0.1 2.7 -0.9
v 0.4 2.1 -0.9
v 0.4 2.2 -0.9
v 0.4 2.6 -0.9
v 0.4 2.7 -0.9
v 0.5 2.1 -0.9
v 0.5 2.2 -0.9
v 0 2 -1
v 0 2.1 -1
v 0 2.2 -1
v 0 2.6 -1
v 0.1 2 -1
v 0.1 2.1 -1
v 0.1 2.2 -1
v 0.1 2.3 -1
v 0.1 2.5 -1
v 0.4 2 -1
v 0.4 2.1 -1
v 0.4 2.2 -1
v 0.4 2.3 -1
v 0.4 2.5 -1
v 0.5 2 -1
v 0.5 2.1 -1
v 0.5 2.2 -1
v 0.5 2.6 -1
v 0.1 2.3 -1.1
v 0.1 2.5 -1.1
v 0.2 2.3 -1.1
v 0.2 2.4 -1.1
v 0.3 2.3 -1.1
v 0.3 2.4 -1.1
v 0.4 2.3 -1.1
v 0.4 2.5 -1.1
v 0.2 2.3 -1.2
v 0.2 2.4 -1.2
v 0.3 2.3 -1.2
v 0.3 2.4 -1.2
v 0.2 2.4 -1.3
v 0.2 2.5 -1.3
v 0.3 2.4 -1.3
v 0.3 2.5 -1.3
v 0.2 2.5 -1.4
v 0.2 2.7 -1.4
v 0.3 2.5 -1.4
v 0.3 2.7 -1.4
v 0.2 2.7 -1.5
v 0.2 2.9 -1.5
v 0.3 2.7 -1.5
v 0.3 2.9 -1.5
v 0 2 -0.9
v 0.1 2 -0.9
v 0.4 2 -0.9
v 0.5 2 -0.9
v 0 2 -1
v 0.1 2 -1
v 0.4 2 -1
v 0.5 2 -1
v 0 2.1 -0.8
v 0.1 2.1 -0.8
v 0.4 2.1 -0.8
v 0.5 2.1 -0.8
v 0 2.1 -0.9
v 0.1 2.1 -0.9
v 0.4 2.1 -0.9
v 0.5 2.1 -0.9
v 0 2.2 -0.9
v 0.1 2.2 -0.9
v 0.4 2.2 -0.9
v 0.5 2.2 -0.9
v 0 2.2 -1
v 0.1 2.2 -1
v 0.4 2.2 -1
v 0.5 2.2 -1
v 0.1 2.3 -1
v 0.4 2.3 -1
v 0.1 2.3 -1.1
v 0.2 2.3 -1.1
v 0.3 2.3 -1.1
v 0.4 2.3 -1.1
v 0.2 2.3 -1.2
v 0.3 2.3 -1.2
v 0.1 2.4 -0.7
v 0.4 2.4 -0.7
v 0.1 2.4 -0.8
v 0.4 2.4 -0.8
v 0.1 2.4 -1
v 0.4 2.4 -1
v 0.2 2.4 -1.2
v 0.3 2.4 -1.2
v 0.2 2.4 -1.3
v 0.3 2.4 -1.3
v 0.1 2.5 -0.6
v 0.4 2.5 -0.6
v 0.1 2.5 -0.7
v 0.4 2.5 -0.7
v 0.2 2.5 -1.3
v 0.3 2.5 -1.3
v 0.2 2.5 -1.4
v 0.3 2.5 -1.4
v 0 2.6 -0.1
v 0.1 2.6 -0.1
v 0.4 2.6 -0.1
v 0.5 2.6 -0.1
v 0 2.6 -0.3
v 0.1 2.6 -0.3
v 0.4 2.6 -0.3
v 0.5 2.6 -0.3
v 0.1 2.6 -0.4
v 0.4 2.6 -0.4
v 0 2.6 -0.6
v 0.1 2.6 -0.6
v 0.4 2.6 -0.6
v 0.5 2.6 -0.6
v 0.1 2.6 -0.8
v 0.4 2.6 -0.8
v 0.1 2.6 -0.9
v 0.4 2.6 -0.9
v 0.1 2.7 -0.3
v 0.4 2.7 -0.3
v 0.1 2.7 -0.4
v 0.4 2.7 -0.4
v 0.2 2.7 -1.4
v 0.3 2.7 -1.4
v 0.2 2.7 -1.5
v 0.3 2.7 -1.5
v 0.2 2.8 -0.1
v 0.3 2.8 -0.1
v 0.1 2.8 -0.2
v 0.2 2.8 -0.2
v 0.3 2.8 -0.2
v 0.4 2.8 -0.2
v 0.1 2.8 -0.3
v 0.4 2.8 -0.3
v 0.2 2.8 -0.4
v 0.3 2.8 -0.4
v 0.1 2.8 -0.5
v 0.2 2.8 -0.5
v 0.3 2.8 -0.5
v 0.4 2.8 -0.5
v 0.1 2.8 -0.6
v 0.4 2.8 -0.6
v 0.1 2.9 -0.1
v 0.2 2.9 -0.1
v 0.3 2.9 -0.1
v 0.4 2.9 -0.1
v 0.1 2.9 -0.2
v 0.2 2.9 -0.2
v 0.3 2.9 -0.2
v 0.4 2.9 -0.2
v 0 3 -0.2
v 0.1 3 -0.2
v 0.4 3 -0.2
v 0.5 3 -0.2
v 0 3 -0.3
v 0.1 3 -0.3
v 0.4 3 -0.3
v 0.5 3 -0.3
v 0.2 3.1 0
v 0.3 3.1 0
v 0.2 3.1 -0.1
v 0.3 3.1 -0.1
v 0 3.1 -0.3
v 0.1 3.1 -0.3
v 0.4 3.1 -0.3
v 0.5 3.1 -0.3
v 0 3.1 -0.4
v 0.1 3.1 -0.4
v 0.4 3.1 -0.4
v 0.5 3.1 -0.4
v 0 3.2 -0.4
v 0.1 3.2 -0.4
v 0.4 3.2 -0.4
v 0.5 3.2 -0.4
v 0 3.2 -0.5
v 0.1 3.2 -0.5
v 0.4 3.2 -0.5
v 0.5 3.2 -0.5
v 0 2.1 -0.9
v 0.1 2.1 -0.9
v 0.4 2.1 -0.9
v 0.5 2.1 -0.9
v 0 2.1 -1
v 0.1 2.1 -1
v 0.4 2.1 -1
v 0.5 2.1 -1
v 0.2 2.4 -1.1
v 0.3 2.4 -1.1
v 0.2 2.4 -1.2
v 0.3 2.4 -1.2
v 0.1 2.5 -0.8
v 0.4 2.5 -0.8
v 0.1 2.5 -0.9
v 0.4 2.5 -0.9
v 0.1 2.5 -1
v 0.4 2.5 -1
v 0.1 2.5 -1.1
v 0.4 2.5 -1.1
v 0.2 2.5 -1.2
v 0.3 2.5 -1.2
v 0.2 2.5 -1.3
v 0.3 2.5 -1.3
v 0 2.6 -0.8
v 0.1 2.6 -0.8
v 0.4 2.6 -0.8
v 0.5 2.6 -0.8
v 0.1 2.6 -0.9
v 0.4 2.6 -0.9
v 0 2.6 -1
v 0.5 2.6 -1
v 0 2.7 -0.1
v 0.1 2.7 -0.1
v 0.4 2.7 -0.1
v 0.5 2.7 -0.1
v 0 2.7 -0.3
v 0.1 2.7 -0.3
v 0.4 2.7 -0.3
v 0.5 2.7 -0.3
v 0 2.7 -0.4
v 0.1 2.7 -0.4
v 0.2 2.7 -0.4
v 0.3 2.7 -0.4
v 0.4 2.7 -0.4
v 0.5 2.7 -0.4
v 0.1 2.7 -0.5
v 0.2 2.7 -0.5
v 0.3 2.7 -0.5
v 0.4 2.7 -0.5
v 0.1 2.7 -0.6
v 0.4 2.7 -0.6
v 0.1 2.7 -0.8
v 0.4 2.7 -0.8
v 0.1 2.7 -0.9
v 0.4 2.7 -0.9
v 0.2 2.7 -1.3
v 0.3 2.7 -1.3
v 0.2 2.7 -1.4
v 0.3 2.7 -1.4
v 0 2.8 -0.4
v 0.1 2.8 -0.4
v 0.4 2.8 -0.4
v 0.5 2.8 -0.4
v 0 2.8 -0.6
v 0.1 2.8 -0.6
v 0.4 2.8 -0.6
v 0.5 2.8 -0.6
v 0.1 2.8 -0.7
v 0.4 2.8 -0.7
v 0.1 2.8 -0.8
v 0.4 2.8 -0.8
v 0.1 2.9 -0.6
v 0.4 2.9 -0.6
v 0.1 2.9 -0.7
v 0.4 2.9 -0.7
v 0.2 2.9 -1.4
v 0.3 2.9 -1.4
v 0.2 2.9 -1.5
v 0.3 2.9 -1.5
v 0.1 3 -0.4
v 0.4 3 -0.4
v 0.1 3 -0.6
v 0.4 3 -0.6
v 0.1 3.1 -0.1
v 0.2 3.1 -0.1
v 0.3 3.1 -0.1
v 0.4 3.1 -0.1
v 0 3.1 -0.2
v 0.1 3.1 -0.2
v 0.4 3.1 -0.2
v 0.5 3.1 -0.2
v 0 3.1 -0.3
v 0.1 3.1 -0.3
v 0.4 3.1 -0.3
v 0.5 3.1 -0.3
v 0.1 3.1 -0.4
v 0.4 3.1 -0.4
v 0.2 3.2 0
v 0.3 3.2 0
v 0.2 3.2 -0.1
v 0.3 3.2 -0.1
v 0.1 3.2 -0.2
v 0.4 3.2 -0.2
v 0 3.2 -0.3
v 0.1 3.2 -0.3
v 0.4 3.2 -0.3
v 0.5 3.2 -0.3
v 0 3.2 -0.4
v 0.1 3.2 -0.4
v 0.4 3.2 -0.4
v 0.5 3.2 -0.4
v 0 3.3 -0.4
v 0.1 3.3 -0.4
v 0.4 3.3 -0.4
v 0.5 3.3 -0.4
v 0 3.3 -0.5
v 0.1 3.3 -0.5
v 0.4 3.3 -0.5
v 0.5 3.3 -0.5

# faces
f 4/1/1 2/1/1 1/1/1
f 5/1/1 2/1/1 4/1/1
f 6/1/1 4/1/1 3/1/1
f 7/1/1 4/1/1 6/1/1
f 12/2/1 7/2/1 6/2/1
f 12/2/1 8/2/1 7/2/1
f 13/2/1 8/2/1 12/2/1
f 14/1/1 10/1/1 9/1/1
f 15/2/1 11/2/1 10/2/1
f 15/1/1 10/1/1 14/1/1
f 16/2/1 11/2/1 15/2/1
f 17/2/1 11/2/1 16/2/1
f 18/2/1 11/2/1 17/2/1
f 21/3/1 20/3/1 19/3/1
f 22/3/1 20/3/1 21/3/1
f 24/1/1 23/1/1 22/1/1
f 25/1/1 23/1/1 24/1/1
f 27/1/1 26/1/1 25/1/1
f 28/1/1 26/1/1 27/1/1
f 34/2/1 32/2/1 31/2/1
f 35/2/1 30/2/1 29/2/1
f 36/2/1 30/2/1 35/2/1
f 37/2/1 34/2/1 33/2/1
f 38/2/1 32/2/1 34/2/1
f 38/2/1 34/2/1 37/2/1
f 42/2/1 38/2/1 37/2/1
f 42/2/1 39/2/1 38/2/1
f 43/2/1 39/2/1 42/2/1
f 45/2/1 41/2/1 40/2/1
f 46/2/1 41/2/1 45/2/1
f 47/2/1 42/2/1 37/2/1
f 48/2/1 42/2/1 47/2/1
f 49/2/1 42/2/1 48/2/1
f 51/2/1 46/2/1 45/2/1
f 51/2/1 45/2/1 44/2/1
f 51/2/1 48/2/1 47/2/1
f 51/2/1 47/2/1 46/2/1
f 52/2/1 48/2/1 51/2/1
f 53/2/1 48/2/1 52/2/1
f 54/2/1 51/2/1 50/2/1
f 54/2/1 52/2/1 51/2/1
f 55/2/1 52/2/1 54/2/1
f 56/2/1 52/2/1 55/2/1
f 57/2/1 52/2/1 56/2/1
f 58/2/1 54/2/1 50/2/1
f 59/2/1 54/2/1 58/2/1
f 60/2/1 56/2/1 55/2/1
f 61/2/1 56/2/1 60/2/1
f 62/2/1 60/2/1 59/2/1
f 63/2/1 60/2/1 62/2/1
f 66/2/1 65/2/1 64/2/1
f 67/2/1 65/2/1 66/2/1
f 69/1/1 68/1/1 67/1/1
f 70/1/1 68/1/1 69/1/1
f 72/1/1 71/1/1 70/1/1
f 73/1/1 71/1/1 72/1/1
f 77/2/1 76/2/1 75/2/1
f 78/2/1 76/2/1 77/2/1
f 79/1/1 74/1/1 73/1/1
f 80/1/1 74/1/1 79/1/1
f 83/1/1 82/1/1 81/1/1
f 84/1/1 82/1/1 83/1/1
f 87/2/1 86/2/1 85/2/1
f 88/2/1 86/2/1 87/2/1
f 92/1/1 90/1/1 89/1/1
f 93/1/1 90/1/1 92/1/1
f 94/1/1 92/1/1 91/1/1
f 95/1/1 92/1/1 94/1/1
f 97/2/1 95/2/1 94/2/1
f 97/2/1 96/2/1 95/2/1
f 98/2/1 97/2/1 94/2/1
f 99/2/1 97/2/1 98/2/1
f 105/2/1 101/2/1 100/2/1
f 106/2/1 101/2/1 105/2/1
f 107/1/1 103/1/1 102/1/1
f 108/2/1 104/2/1 103/2/1
f 108/1/1 103/1/1 107/1/1
f 109/2/1 104/2/1 108/2/1
f 112/2/1 111/2/1 110/2/1
f 113/2/1 111/2/1 112/2/1
f 116/1/1 115/1/1 114/1/1
f 117/1/1 115/1/1 116/1/1
f 119/1/1 118/1/1 117/1/1
f 120/1/1 118/1/1 119/1/1
f 121/1/2 122/1/2 124/1/2
f 124/1/2 122/1/2 125/1/2
f 123/1/2 124/1/2 126/1/2
f 126/1/2 124/1/2 127/1/2
f 126/2/2 127/2/2 129/2/2
f 127/2/2 128/2/2 129/2/2
f 126/2/2 129/2/2 130/2/2
f 130/2/2 129/2/2 131/2/2
f 132/2/2 133/2/2 137/2/2
f 137/2/2 133/2/2 138/2/2
f 134/1/2 135/1/2 139/1/2
f 135/2/2 136/2/2 140/2/2
f 139/1/2 135/1/2 140/1/2
f 140/2/2 136/2/2 141/2/2
f 142/2/2 143/2/2 144/2/2
f 144/2/2 143/2/2 145/2/2
f 146/1/2 147/1/2 148/1/2
f 148/1/2 147/1/2 149/1/2
f 149/1/2 150/1/2 151/1/2
f 151/1/2 150/1/2 152/1/2
f 153/2/2 154/2/2 155/2/2
f 155/2/2 154/2/2 156/2/2
f 157/2/2 158/2/2 159/2/2
f 159/2/2 158/2/2 160/2/2
f 160/1/2 161/1/2 162/1/2
f 162/1/2 161/1/2 163/1/2
f 163/1/2 164/1/2 165/1/2
f 165/1/2 164/1/2 166/1/2
f 168/2/2 169/2/2 170/2/2
f 170/2/2 169/2/2 171/2/2
f 166/1/2 167/1/2 172/1/2
f 172/1/2 167/1/2 173/1/2
f 174/1/2 175/1/2 176/1/2
f 176/1/2 175/1/2 177/1/2
f 180/2/2 181/2/2 183/2/2
f 178/2/2 179/2/2 184/2/2
f 184/2/2 179/2/2 185/2/2
f 182/2/2 183/2/2 186/2/2
f 183/2/2 181/2/2 187/2/2
f 186/2/2 183/2/2 187/2/2
f 186/2/2 187/2/2 191/2/2
f 187/2/2 188/2/2 191/2/2
f 191/2/2 188/2/2 192/2/2
f 189/2/2 190/2/2 194/2/2
f 194/2/2 190/2/2 195/2/2
f 186/2/2 191/2/2 196/2/2
f 196/2/2 191/2/2 197/2/2
f 197/2/2 191/2/2 198/2/2
f 194/2/2 195/2/2 200/2/2
f 193/2/2 194/2/2 200/2/2
f 196/2/2 197/2/2 200/2/2
f 195/2/2 196/2/2 200/2/2
f 200/2/2 197/2/2 201/2/2
f 201/2/2 197/2/2 202/2/2
f 199/2/2 200/2/2 203/2/2
f 200/2/2 201/2/2 203/2/2
f 203/2/2 201/2/2 204/2/2
f 204/2/2 201/2/2 205/2/2
f 205/2/2 201/2/2 206/2/2
f 199/2/2 203/2/2 207/2/2
f 207/2/2 203/2/2 208/2/2
f 204/2/2 205/2/2 209/2/2
f 209/2/2 205/2/2 210/2/2
f 208/2/2 209/2/2 211/2/2
f 211/2/2 209/2/2 212/2/2
f 213/1/2 214/1/2 216/1/2
f 216/1/2 214/1/2 217/1/2
f 215/1/2 216/1/2 218/1/2
f 218/1/2 216/1/2 219/1/2
f 218/2/2 219/2/2 224/2/2
f 219/2/2 220/2/2 224/2/2
f 224/2/2 220/2/2 225/2/2
f 221/1/2 222/1/2 226/1/2
f 222/2/2 223/2/2 227/2/2
f 226/1/2 222/1/2 227/1/2
f 227/2/2 223/2/2 228/2/2
f 228/2/2 223/2/2 229/2/2
f 229/2/2 223/2/2 230/2/2
f 231/3/2 232/3/2 233/3/2
f 233/3/2 232/3/2 234/3/2
f 234/1/2 235/1/2 236/1/2
f 236/1/2 235/1/2 237/1/2
f 237/1/2 238/1/2 239/1/2
f 239/1/2 238/1/2 240/1/2
f 243/1/3 242/1/3 241/1/3
f 244/1/3 242/1/3 243/1/3
f 247/1/3 246/1/3 245/1/3
f 248/1/3 246/1/3 247/1/3
f 252/2/3 250/2/3 249/2/3
f 253/2/3 250/2/3 252/2/3
f 254/2/3 252/2/3 251/2/3
f 254/2/3 253/2/3 252/2/3
f 255/2/3 253/2/3 254/2/3
f 256/2/3 253/2/3 255/2/3
f 259/2/3 256/2/3 255/2/3
f 260/2/3 256/2/3 259/2/3
f 261/1/3 258/1/3 257/1/3
f 262/1/3 258/1/3 261/1/3
f 267/3/3 264/3/3 263/3/3
f 268/3/3 264/3/3 267/3/3
f 270/2/3 266/2/3 265/2/3
f 271/2/3 266/2/3 270/2/3
f 274/2/3 273/2/3 272/2/3
f 275/2/3 273/2/3 274/2/3
f 277/2/3 269/2/3 268/2/3
f 278/2/3 269/2/3 277/2/3
f 279/3/3 277/3/3 276/3/3
f 280/3/3 277/3/3 279/3/3
f 285/1/3 282/1/3 281/1/3
f 286/1/3 282/1/3 285/1/3
f 287/2/3 284/2/3 283/2/3
f 288/2/3 284/2/3 287/2/3
f 291/1/3 290/1/3 289/1/3
f 292/1/3 290/1/3 291/1/3
f 298/2/3 294/2/3 293/2/3
f 299/2/3 294/2/3 298/2/3
f 300/1/3 296/1/3 295/1/3
f 301/1/3 296/1/3 300/1/3
f 302/2/3 298/2/3 297/2/3
f 303/2/3 298/2/3 302/2/3
f 307/2/3 304/2/3 303/2/3
f 308/2/3 304/2/3 307/2/3
f 309/1/3 306/1/3 305/1/3
f 310/1/3 306/1/3 309/1/3
f 315/2/3 312/2/3 311/2/3
f 316/2/3 312/2/3 315/2/3
f 317/2/3 314/2/3 313/2/3
f 318/2/3 314/2/3 317/2/3
f 321/2/3 320/2/3 319/2/3
f 322/2/3 320/2/3 321/2/3
f 326/1/3 324/1/3 323/1/3
f 327/2/3 325/2/3 324/2/3
f 327/1/3 324/1/3 326/1/3
f 328/2/3 325/2/3 327/2/3
f 329/2/3 325/2/3 328/2/3
f 334/1/3 331/1/3 330/1/3
f 335/2/3 333/2/3 332/2/3
f 335/1/3 331/1/3 334/1/3
f 335/2/3 332/2/3 331/2/3
f 336/2/3 333/2/3 335/2/3
f 339/1/3 338/1/3 337/1/3
f 340/1/3 338/1/3 339/1/3
f 345/2/3 342/2/3 341/2/3
f 346/2/3 342/2/3 345/2/3
f 347/1/3 344/1/3 343/1/3
f 348/1/3 344/1/3 347/1/3
f 351/2/3 350/2/3 349/2/3
f 352/2/3 350/2/3 351/2/3
f 355/1/3 354/1/3 353/1/3
f 356/1/3 354/1/3 355/1/3
f 359/1/3 358/1/3 357/1/3
f 360/1/3 358/1/3 359/1/3
f 363/1/3 362/1/3 361/1/3
f 364/1/3 362/1/3 363/1/3
f 365/1/4 366/1/4 367/1/4
f 367/1/4 366/1/4 368/1/4
f 369/3/4 370/3/4 371/3/4
f 371/3/4 370/3/4 372/3/4
f 372/2/4 373/2/4 375/2/4
f 375/2/4 373/2/4 376/2/4
f 374/3/4 375/3/4 377/3/4
f 377/3/4 375/3/4 378/3/4
f 379/1/4 380/1/4 382/1/4
f 382/1/4 380/1/4 383/1/4
f 384/2/4 385/2/4 386/2/4
f 386/2/4 385/2/4 387/2/4
f 381/2/4 382/2/4 388/2/4
f 388/2/4 382/2/4 389/2/4
f 389/1/4 390/1/4 391/1/4
f 391/1/4 390/1/4 392/1/4
f 393/1/4 394/1/4 397/1/4
f 397/1/4 394/1/4 398/1/4
f 395/2/4 396/2/4 399/2/4
f 399/2/4 396/2/4 400/2/4
f 401/2/4 402/2/4 403/2/4
f 403/2/4 402/2/4 404/2/4
f 405/1/4 406/1/4 407/1/4
f 407/1/4 406/1/4 408/1/4
f 409/2/4 410/2/4 411/2/4
f 411/2/4 410/2/4 412/2/4
f 413/2/4 414/2/4 417/2/4
f 417/2/4 414/2/4 418/2/4
f 415/2/4 416/2/4 419/2/4
f 419/2/4 416/2/4 420/2/4
f 421/2/4 422/2/4 423/2/4
f 423/2/4 422/2/4 424/2/4
f 425/2/4 426/2/4 429/2/4
f 429/2/4 426/2/4 430/2/4
f 427/2/4 428/2/4 431/2/4
f 431/2/4 428/2/4 432/2/4
f 433/1/4 434/1/4 435/1/4
f 435/1/4 434/1/4 436/1/4
f 437/2/4 438/2/4 441/2/4
f 441/2/4 438/2/4 442/2/4
f 439/1/4 440/1/4 443/1/4
f 443/1/4 440/1/4 444/1/4
f 445/1/4 446/1/4 449/1/4
f 449/1/4 446/1/4 450/1/4
f 447/2/4 448/2/4 451/2/4
f 451/2/4 448/2/4 452/2/4
f 452/2/4 448/2/4 453/2/4
f 453/2/4 448/2/4 458/2/4
f 454/1/4 455/1/4 459/1/4
f 459/1/4 455/1/4 460/1/4
f 456/2/4 457/2/4 461/2/4
f 457/2/4 458/2/4 461/2/4
f 458/2/4 448/2/4 462/2/4
f 461/2/4 458/2/4 462/2/4
f 463/2/4 464/2/4 465/2/4
f 465/2/4 464/2/4 466/2/4
f 466/2/4 464/2/4 468/2/4
f 467/2/4 468/2/4 469/2/4
f 468/2/4 464/2/4 470/2/4
f 469/2/4 468/2/4 470/2/4
f 471/2/4 472/2/4 473/2/4
f 473/2/4 472/2/4 474/2/4
f 475/1/4 476/1/4 477/1/4
f 477/1/4 476/1/4 478/1/4
f 479/1/4 480/1/4 481/1/4
f 481/1/4 480/1/4 482/1/4
f 483/1/4 484/1/4 485/1/4
f 485/1/4 484/1/4 486/1/4
f 491/1/5 488/1/5 487/1/5
f 492/1/5 488/1/5 491/1/5
f 493/1/5 490/1/5 489/1/5
f 494/1/5 490/1/5 493/1/5
f 499/1/5 496/1/5 495/1/5
f 500/1/5 496/1/5 499/1/5
f 501/1/5 498/1/5 497/1/5
f 502/1/5 498/1/5 501/1/5
f 507/2/5 504/2/5 503/2/5
f 508/2/5 504/2/5 507/2/5
f 509/2/5 506/2/5 505/2/5
f 510/2/5 506/2/5 509/2/5
f 513/2/5 512/2/5 511/2/5
f 514/2/5 512/2/5 513/2/5
f 515/2/5 512/2/5 514/2/5
f 516/2/5 512/2/5 515/2/5
f 517/2/5 515/2/5 514/2/5
f 518/2/5 515/2/5 517/2/5
f 521/2/5 520/2/5 519/2/5
f 522/2/5 520/2/5 521/2/5
f 523/2/5 522/2/5 521/2/5
f 524/2/5 522/2/5 523/2/5
f 527/1/5 526/1/5 525/1/5
f 528/1/5 526/1/5 527/1/5
f 531/2/5 530/2/5 529/2/5
f 532/2/5 530/2/5 531/2/5
f 535/1/5 534/1/5 533/1/5
f 536/1/5 534/1/5 535/1/5
f 541/1/5 538/1/5 537/1/5
f 542/1/5 538/1/5 541/1/5
f 543/1/5 540/1/5 539/1/5
f 544/1/5 540/1/5 543/1/5
f 545/2/5 542/2/5 541/2/5
f 546/2/5 544/2/5 543/2/5
f 547/2/5 545/2/5 541/2/5
f 547/2/5 546/2/5 545/2/5
f 548/2/5 546/2/5 547/2/5
f 549/2/5 544/2/5 546/2/5
f 549/2/5 546/2/5 548/2/5
f 550/2/5 544/2/5 549/2/5
f 553/2/5 552/2/5 551/2/5
f 554/2/5 552/2/5 553/2/5
f 557/2/5 556/2/5 555/2/5
f 558/2/5 556/2/5 557/2/5
f 561/1/5 560/1/5 559/1/5
f 562/1/5 560/1/5 561/1/5
f 566/2/5 564/2/5 563/2/5
f 567/2/5 564/2/5 566/2/5
f 569/2/5 566/2/5 565/2/5
f 569/2/5 568/2/5 567/2/5
f 569/2/5 567/2/5 566/2/5
f 570/2/5 568/2/5 569/2/5
f 574/2/5 572/2/5 571/2/5
f 575/2/5 572/2/5 574/2/5
f 577/2/5 574/2/5 573/2/5
f 577/2/5 576/2/5 575/2/5
f 577/2/5 575/2/5 574/2/5
f 578/2/5 576/2/5 577/2/5
f 583/2/5 580/2/5 579/2/5
f 584/2/5 580/2/5 583/2/5
f 585/2/5 582/2/5 581/2/5
f 586/2/5 582/2/5 585/2/5
f 591/3/5 588/3/5 587/3/5
f 592/3/5 588/3/5 591/3/5
f 593/3/5 590/3/5 589/3/5
f 594/3/5 590/3/5 593/3/5
f 597/1/5 596/1/5 595/1/5
f 598/1/5 596/1/5 597/1/5
f 603/1/5 600/1/5 599/1/5
f 604/1/5 600/1/5 603/1/5
f 605/1/5 602/1/5 601/1/5
f 606/1/5 602/1/5 605/1/5
f 611/1/5 608/1/5 607/1/5
f 612/1/5 608/1/5 611/1/5
f 613/1/5 610/1/5 609/1/5
f 614/1/5 610/1/5 613/1/5
f 615/1/6 616/1/6 619/1/6
f 619/1/6 616/1/6 620/1/6
f 617/1/6 618/1/6 621/1/6
f 621/1/6 618/1/6 622/1/6
f 623/2/6 624/2/6 625/2/6
f 625/2/6 624/2/6 626/2/6
f 627/2/6 628/2/6 629/2/6
f 629/2/6 628/2/6 630/2/6
f 631/2/6 632/2/6 633/2/6
f 633/2/6 632/2/6 634/2/6
f 635/1/6 636/1/6 637/1/6
f 637/1/6 636/1/6 638/1/6
f 639/2/6 640/2/6 643/2/6
f 641/2/6 642/2/6 644/2/6
f 639/2/6 643/2/6 645/2/6
f 643/2/6 644/2/6 645/2/6
f 644/2/6 642/2/6 646/2/6
f 645/2/6 644/2/6 646/2/6
f 647/1/6 648/1/6 651/1/6
f 651/1/6 648/1/6 652/1/6
f 649/1/6 650/1/6 653/1/6
f 653/1/6 650/1/6 654/1/6
f 651/2/6 652/2/6 655/2/6
f 655/2/6 652/2/6 656/2/6
f 653/2/6 654/2/6 659/2/6
f 659/2/6 654/2/6 660/2/6
f 657/2/6 658/2/6 662/2/6
f 662/2/6 658/2/6 663/2/6
f 661/2/6 662/2/6 665/2/6
f 663/2/6 664/2/6 665/2/6
f 662/2/6 663/2/6 665/2/6
f 665/2/6 664/2/6 666/2/6
f 667/2/6 668/2/6 669/2/6
f 669/2/6 668/2/6 670/2/6
f 671/1/6 672/1/6 673/1/6
f 673/1/6 672/1/6 674/1/6
f 675/2/6 676/2/6 679/2/6
f 679/2/6 676/2/6 680/2/6
f 677/2/6 678/2/6 681/2/6
f 681/2/6 678/2/6 682/2/6
f 683/2/6 684/2/6 685/2/6
f 685/2/6 684/2/6 686/2/6
f 687/2/6 688/2/6 689/2/6
f 689/2/6 688/2/6 690/2/6
f 691/1/6 692/1/6 693/1/6
f 693/1/6 692/1/6 694/1/6
f 695/2/6 696/2/6 697/2/6
f 697/2/6 696/2/6 698/2/6
f 699/2/6 700/2/6 704/2/6
f 701/2/6 702/2/6 704/2/6
f 700/2/6 701/2/6 704/2/6
f 704/2/6 702/2/6 705/2/6
f 703/3/6 704/3/6 707/3/6
f 707/3/6 704/3/6 708/3/6
f 705/3/6 706/3/6 709/3/6
f 709/3/6 706/3/6 710/3/6
f 708/2/6 709/2/6 711/2/6
f 711/2/6 709/2/6 712/2/6
f 713/1/6 714/1/6 715/1/6
f 715/1/6 714/1/6 716/1/6
f 717/2/6 718/2/6 720/2/6
f 720/2/6 718/2/6 721/2/6
f 719/1/6 720/1/6 723/1/6
f 723/1/6 720/1/6 724/1/6
f 721/1/6 722/1/6 725/1/6
f 725/1/6 722/1/6 726/1/6
f 727/1/6 728/1/6 731/1/6
f 731/1/6 728/1/6 732/1/6
f 729/1/6 730/1/6 733/1/6
f 733/1/6 730/1/6 734/1/6
