# MagicaVoxel @ Ephtracy

# group
o 

# material
mtllib rat_knockdown_0.mtl
usemtl palette

# normals
vn -1 0 0
vn 1 0 0
vn 0 0 1
vn 0 0 -1
vn 0 -1 0
vn 0 1 0

# texcoords
vt 0.0292969 0.5
vt 0.982422 0.5
vt 0.994141 0.5

# verts
v 0 2 -0.7
v 0 2 -0.8
v 0 2.1 -0.7
v 0 2.1 -0.8
v 0 2.1 -0.9
v 0 2.2 -0.8
v 0 2.2 -0.9
v 0 2.2 -1
v 0 2.5 -0.3
v 0 2.5 -0.4
v 0 2.6 -0.2
v 0 2.6 -0.3
v 0 2.6 -0.4
v 0 2.6 -0.6
v 0 2.6 -0.8
v 0 2.6 -1
v 0 2.7 -0.1
v 0 2.7 -0.2
v 0 2.7 -0.3
v 0 2.8 -0.1
v 0 2.8 -0.2
v 0 2.8 -0.4
v 0 2.8 -0.6
v 0 3 -0.2
v 0 3 -0.3
v 0 3.1 -0.2
v 0 3.1 -0.3
v 0 3.1 -0.5
v 0 3.2 -0.3
v 0 3.2 -0.5
v 0.1 2.3 -1
v 0.1 2.3 -1.1
v 0.1 2.4 -0.7
v 0.1 2.4 -0.8
v 0.1 2.5 -0.6
v 0.1 2.5 -0.7
v 0.1 2.5 -1
v 0.1 2.5 -1.1
v 0.1 2.6 -0.6
v 0.1 2.6 -0.8
v 0.1 2.6 -0.9
v 0.1 2.7 -0.3
v 0.1 2.7 -0.4
v 0.1 2.7 -0.8
v 0.1 2.7 -0.9
v 0.1 2.8 -0.2
v 0.1 2.8 -0.3
v 0.1 2.8 -0.4
v 0.1 2.8 -0.6
v 0.1 2.8 -0.7
v 0.1 2.8 -0.8
v 0.1 2.9 -0.1
v 0.1 2.9 -0.2
v 0.1 2.9 -0.6
v 0.1 2.9 -0.7
v 0.1 3 -0.2
v 0.1 3 -0.3
v 0.1 3 -0.4
v 0.1 3 -0.6
v 0.1 3.1 -0.1
v 0.1 3.1 -0.2
v 0.1 3.1 -0.3
v 0.1 3.1 -0.4
v 0.1 3.2 -0.2
v 0.1 3.2 -0.3
v 0.2 2.3 -1.1
v 0.2 2.3 -1.2
v 0.2 2.4 -1.1
v 0.2 2.4 -1.2
v 0.2 2.4 -1.3
v 0.2 2.5 -1.2
v 0.2 2.5 -1.3
v 0.2 2.5 -1.4
v 0.2 2.6 -1.3
v 0.2 2.6 -1.4
v 0.2 2.6 -1.5
v 0.2 2.7 -1.4
v 0.2 2.7 -1.5
v 0.2 2.7 -1.6
v 0.2 2.8 -0.1
v 0.2 2.8 -0.2
v 0.2 2.9 -0.1
v 0.2 2.9 -0.2
v 0.2 2.9 -1.5
v 0.2 2.9 -1.6
v 0.2 3.1 0
v 0.2 3.1 -0.1
v 0.2 3.2 0
v 0.2 3.2 -0.1
v 0.3 2.7 -0.4
v 0.3 2.7 -0.5
v 0.3 2.8 -0.4
v 0.3 2.8 -0.5
v 0.4 2 -0.7
v 0.4 2 -0.8
v 0.4 2.1 -0.7
v 0.4 2.1 -0.8
v 0.4 2.1 -0.9
v 0.4 2.2 -0.8
v 0.4 2.2 -0.9
v 0.4 2.2 -1
v 0.4 2.3 -1
v 0.4 2.4 -0.8
v 0.4 2.4 -1
v 0.4 2.5 -0.3
v 0.4 2.5 -0.4
v 0.4 2.5 -0.8
v 0.4 2.5 -0.9
v 0.4 2.6 -0.2
v 0.4 2.6 -0.3
v 0.4 2.6 -0.4
v 0.4 2.6 -0.8
v 0.4 2.6 -0.9
v 0.4 2.7 -0.1
v 0.4 2.7 -0.2
v 0.4 2.7 -0.3
v 0.4 2.7 -0.5
v 0.4 2.7 -0.6
v 0.4 2.8 -0.1
v 0.4 2.8 -0.2
v 0.4 2.8 -0.5
v 0.4 2.8 -0.6
v 0.4 3.1 -0.3
v 0.4 3.1 -0.4
v 0.4 3.1 -0.5
v 0.4 3.2 -0.3
v 0.4 3.2 -0.5
v 0.1 2 -0.7
v 0.1 2 -0.8
v 0.1 2.1 -0.7
v 0.1 2.1 -0.8
v 0.1 2.1 -0.9
v 0.1 2.2 -0.8
v 0.1 2.2 -0.9
v 0.1 2.2 -1
v 0.1 2.3 -1
v 0.1 2.4 -0.8
v 0.1 2.4 -1
v 0.1 2.5 -0.3
v 0.1 2.5 -0.4
v 0.1 2.5 -0.8
v 0.1 2.5 -0.9
v 0.1 2.6 -0.2
v 0.1 2.6 -0.3
v 0.1 2.6 -0.4
v 0.1 2.6 -0.8
v 0.1 2.6 -0.9
v 0.1 2.7 -0.1
v 0.1 2.7 -0.2
v 0.1 2.7 -0.3
v 0.1 2.7 -0.5
v 0.1 2.7 -0.6
v 0.1 2.8 -0.1
v 0.1 2.8 -0.2
v 0.1 2.8 -0.5
v 0.1 2.8 -0.6
v 0.1 3.1 -0.3
v 0.1 3.1 -0.4
v 0.1 3.1 -0.5
v 0.1 3.2 -0.3
v 0.1 3.2 -0.5
v 0.2 2.7 -0.4
v 0.2 2.7 -0.5
v 0.2 2.8 -0.4
v 0.2 2.8 -0.5
v 0.3 2.3 -1.1
v 0.3 2.3 -1.2
v 0.3 2.4 -1.1
v 0.3 2.4 -1.2
v 0.3 2.4 -1.3
v 0.3 2.5 -1.2
v 0.3 2.5 -1.3
v 0.3 2.5 -1.4
v 0.3 2.6 -1.3
v 0.3 2.6 -1.4
v 0.3 2.6 -1.5
v 0.3 2.7 -1.4
v 0.3 2.7 -1.5
v 0.3 2.7 -1.6
v 0.3 2.8 -0.1
v 0.3 2.8 -0.2
v 0.3 2.9 -0.1
v 0.3 2.9 -0.2
v 0.3 2.9 -1.5
v 0.3 2.9 -1.6
v 0.3 3.1 0
v 0.3 3.1 -0.1
v 0.3 3.2 0
v 0.3 3.2 -0.1
v 0.4 2.3 -1
v 0.4 2.3 -1.1
v 0.4 2.4 -0.7
v 0.4 2.4 -0.8
v 0.4 2.5 -0.6
v 0.4 2.5 -0.7
v 0.4 2.5 -1
v 0.4 2.5 -1.1
v 0.4 2.6 -0.6
v 0.4 2.6 -0.8
v 0.4 2.6 -0.9
v 0.4 2.7 -0.3
v 0.4 2.7 -0.4
v 0.4 2.7 -0.8
v 0.4 2.7 -0.9
v 0.4 2.8 -0.2
v 0.4 2.8 -0.3
v 0.4 2.8 -0.4
v 0.4 2.8 -0.6
v 0.4 2.8 -0.7
v 0.4 2.8 -0.8
v 0.4 2.9 -0.1
v 0.4 2.9 -0.2
v 0.4 2.9 -0.6
v 0.4 2.9 -0.7
v 0.4 3 -0.2
v 0.4 3 -0.3
v 0.4 3 -0.4
v 0.4 3 -0.6
v 0.4 3.1 -0.1
v 0.4 3.1 -0.2
v 0.4 3.1 -0.3
v 0.4 3.1 -0.4
v 0.4 3.2 -0.2
v 0.4 3.2 -0.3
v 0.5 2 -0.7
v 0.5 2 -0.8
v 0.5 2.1 -0.7
v 0.5 2.1 -0.8
v 0.5 2.1 -0.9
v 0.5 2.2 -0.8
v 0.5 2.2 -0.9
v 0.5 2.2 -1
v 0.5 2.5 -0.3
v 0.5 2.5 -0.4
v 0.5 2.6 -0.2
v 0.5 2.6 -0.3
v 0.5 2.6 -0.4
v 0.5 2.6 -0.6
v 0.5 2.6 -0.8
v 0.5 2.6 -1
v 0.5 2.7 -0.1
v 0.5 2.7 -0.2
v 0.5 2.7 -0.3
v 0.5 2.8 -0.1
v 0.5 2.8 -0.2
v 0.5 2.8 -0.4
v 0.5 2.8 -0.6
v 0.5 3 -0.2
v 0.5 3 -0.3
v 0.5 3.1 -0.2
v 0.5 3.1 -0.3
v 0.5 3.1 -0.5
v 0.5 3.2 -0.3
v 0.5 3.2 -0.5
v 0.2 3.1 0
v 0.2 3.2 0
v 0.3 3.1 0
v 0.3 3.2 0
v 0 2.7 -0.1
v 0 2.8 -0.1
v 0.1 2.7 -0.1
v 0.1 2.8 -0.1
v 0.1 2.9 -0.1
v 0.1 3.1 -0.1
v 0.2 2.8 -0.1
v 0.2 2.9 -0.1
v 0.2 3.1 -0.1
v 0.3 2.8 -0.1
v 0.3 2.9 -0.1
v 0.3 3.1 -0.1
v 0.4 2.7 -0.1
v 0.4 2.8 -0.1
v 0.4 2.9 -0.1
v 0.4 3.1 -0.1
v 0.5 2.7 -0.1
v 0.5 2.8 -0.1
v 0 2.6 -0.2
v 0 2.7 -0.2
v 0 3 -0.2
v 0 3.1 -0.2
v 0.1 2.6 -0.2
v 0.1 2.7 -0.2
v 0.1 2.8 -0.2
v 0.1 2.9 -0.2
v 0.1 3 -0.2
v 0.1 3.1 -0.2
v 0.1 3.2 -0.2
v 0.2 2.8 -0.2
v 0.2 2.9 -0.2
v 0.3 2.8 -0.2
v 0.3 2.9 -0.2
v 0.4 2.6 -0.2
v 0.4 2.7 -0.2
v 0.4 2.8 -0.2
v 0.4 2.9 -0.2
v 0.4 3 -0.2
v 0.4 3.1 -0.2
v 0.4 3.2 -0.2
v 0.5 2.6 -0.2
v 0.5 2.7 -0.2
v 0.5 3 -0.2
v 0.5 3.1 -0.2
v 0 2.5 -0.3
v 0 2.6 -0.3
v 0 3.1 -0.3
v 0 3.2 -0.3
v 0.1 2.5 -0.3
v 0.1 2.6 -0.3
v 0.1 2.7 -0.3
v 0.1 2.8 -0.3
v 0.1 3.1 -0.3
v 0.1 3.2 -0.3
v 0.4 2.5 -0.3
v 0.4 2.6 -0.3
v 0.4 2.7 -0.3
v 0.4 2.8 -0.3
v 0.4 3.1 -0.3
v 0.4 3.2 -0.3
v 0.5 2.5 -0.3
v 0.5 2.6 -0.3
v 0.5 3.1 -0.3
v 0.5 3.2 -0.3
v 0 2.6 -0.4
v 0 2.8 -0.4
v 0.1 2.6 -0.4
v 0.1 2.7 -0.4
v 0.1 2.8 -0.4
v 0.4 2.6 -0.4
v 0.4 2.7 -0.4
v 0.4 2.8 -0.4
v 0.5 2.6 -0.4
v 0.5 2.8 -0.4
v 0.1 2.5 -0.6
v 0.1 2.6 -0.6
v 0.1 2.7 -0.6
v 0.1 2.8 -0.6
v 0.4 2.5 -0.6
v 0.4 2.6 -0.6
v 0.4 2.7 -0.6
v 0.4 2.8 -0.6
v 0 2 -0.7
v 0 2.1 -0.7
v 0.1 2 -0.7
v 0.1 2.1 -0.7
v 0.1 2.4 -0.7
v 0.1 2.5 -0.7
v 0.4 2 -0.7
v 0.4 2.1 -0.7
v 0.4 2.4 -0.7
v 0.4 2.5 -0.7
v 0.5 2 -0.7
v 0.5 2.1 -0.7
v 0 2.1 -0.8
v 0 2.2 -0.8
v 0 2.6 -0.8
v 0.1 2.1 -0.8
v 0.1 2.2 -0.8
v 0.1 2.4 -0.8
v 0.1 2.6 -0.8
v 0.4 2.1 -0.8
v 0.4 2.2 -0.8
v 0.4 2.4 -0.8
v 0.4 2.6 -0.8
v 0.5 2.1 -0.8
v 0.5 2.2 -0.8
v 0.5 2.6 -0.8
v 0.1 2.5 -0.9
v 0.1 2.6 -0.9
v 0.4 2.5 -0.9
v 0.4 2.6 -0.9
v 0.1 2.3 -1
v 0.1 2.4 -1
v 0.4 2.3 -1
v 0.4 2.4 -1
v 0.2 2.4 -1.2
v 0.2 2.5 -1.2
v 0.3 2.4 -1.2
v 0.3 2.5 -1.2
v 0.2 2.5 -1.3
v 0.2 2.6 -1.3
v 0.3 2.5 -1.3
v 0.3 2.6 -1.3
v 0.2 2.6 -1.4
v 0.2 2.7 -1.4
v 0.3 2.6 -1.4
v 0.3 2.7 -1.4
v 0.2 2.7 -1.5
v 0.2 2.9 -1.5
v 0.3 2.7 -1.5
v 0.3 2.9 -1.5
v 0.2 3.1 -0.1
v 0.2 3.2 -0.1
v 0.3 3.1 -0.1
v 0.3 3.2 -0.1
v 0 2.7 -0.2
v 0 2.8 -0.2
v 0.1 2.7 -0.2
v 0.1 2.8 -0.2
v 0.4 2.7 -0.2
v 0.4 2.8 -0.2
v 0.5 2.7 -0.2
v 0.5 2.8 -0.2
v 0 2.6 -0.3
v 0 2.7 -0.3
v 0 3 -0.3
v 0 3.1 -0.3
v 0.1 2.6 -0.3
v 0.1 2.7 -0.3
v 0.1 3 -0.3
v 0.1 3.1 -0.3
v 0.1 3.2 -0.3
v 0.4 2.6 -0.3
v 0.4 2.7 -0.3
v 0.4 3 -0.3
v 0.4 3.1 -0.3
v 0.4 3.2 -0.3
v 0.5 2.6 -0.3
v 0.5 2.7 -0.3
v 0.5 3 -0.3
v 0.5 3.1 -0.3
v 0 2.5 -0.4
v 0 2.6 -0.4
v 0.1 2.5 -0.4
v 0.1 2.6 -0.4
v 0.1 3 -0.4
v 0.1 3.1 -0.4
v 0.2 2.7 -0.4
v 0.2 2.8 -0.4
v 0.3 2.7 -0.4
v 0.3 2.8 -0.4
v 0.4 2.5 -0.4
v 0.4 2.6 -0.4
v 0.4 3 -0.4
v 0.4 3.1 -0.4
v 0.5 2.5 -0.4
v 0.5 2.6 -0.4
v 0 3.1 -0.5
v 0 3.2 -0.5
v 0.1 2.7 -0.5
v 0.1 2.8 -0.5
v 0.1 3.1 -0.5
v 0.1 3.2 -0.5
v 0.2 2.7 -0.5
v 0.2 2.8 -0.5
v 0.3 2.7 -0.5
v 0.3 2.8 -0.5
v 0.4 2.7 -0.5
v 0.4 2.8 -0.5
v 0.4 3.1 -0.5
v 0.4 3.2 -0.5
v 0.5 3.1 -0.5
v 0.5 3.2 -0.5
v 0 2.6 -0.6
v 0 2.8 -0.6
v 0.1 2.6 -0.6
v 0.1 2.8 -0.6
v 0.1 2.9 -0.6
v 0.1 3 -0.6
v 0.4 2.6 -0.6
v 0.4 2.8 -0.6
v 0.4 2.9 -0.6
v 0.4 3 -0.6
v 0.5 2.6 -0.6
v 0.5 2.8 -0.6
v 0.1 2.8 -0.7
v 0.1 2.9 -0.7
v 0.4 2.8 -0.7
v 0.4 2.9 -0.7
v 0 2 -0.8
v 0 2.1 -0.8
v 0.1 2 -0.8
v 0.1 2.1 -0.8
v 0.1 2.5 -0.8
v 0.1 2.6 -0.8
v 0.1 2.7 -0.8
v 0.1 2.8 -0.8
v 0.4 2 -0.8
v 0.4 2.1 -0.8
v 0.4 2.5 -0.8
v 0.4 2.6 -0.8
v 0.4 2.7 -0.8
v 0.4 2.8 -0.8
v 0.5 2 -0.8
v 0.5 2.1 -0.8
v 0 2.1 -0.9
v 0 2.2 -0.9
v 0.1 2.1 -0.9
v 0.1 2.2 -0.9
v 0.1 2.6 -0.9
v 0.1 2.7 -0.9
v 0.4 2.1 -0.9
v 0.4 2.2 -0.9
v 0.4 2.6 -0.9
v 0.4 2.7 -0.9
v 0.5 2.1 -0.9
v 0.5 2.2 -0.9
v 0 2.2 -1
v 0 2.6 -1
v 0.1 2.2 -1
v 0.1 2.3 -1
v 0.1 2.5 -1
v 0.4 2.2 -1
v 0.4 2.3 -1
v 0.4 2.5 -1
v 0.5 2.2 -1
v 0.5 2.6 -1
v 0.1 2.3 -1.1
v 0.1 2.5 -1.1
v 0.2 2.3 -1.1
v 0.2 2.4 -1.1
v 0.3 2.3 -1.1
v 0.3 2.4 -1.1
v 0.4 2.3 -1.1
v 0.4 2.5 -1.1
v 0.2 2.3 -1.2
v 0.2 2.4 -1.2
v 0.3 2.3 -1.2
v 0.3 2.4 -1.2
v 0.2 2.4 -1.3
v 0.2 2.5 -1.3
v 0.3 2.4 -1.3
v 0.3 2.5 -1.3
v 0.2 2.5 -1.4
v 0.2 2.6 -1.4
v 0.3 2.5 -1.4
v 0.3 2.6 -1.4
v 0.2 2.6 -1.5
v 0.2 2.7 -1.5
v 0.3 2.6 -1.5
v 0.3 2.7 -1.5
v 0.2 2.7 -1.6
v 0.2 2.9 -1.6
v 0.3 2.7 -1.6
v 0.3 2.9 -1.6
v 0 2 -0.7
v 0.1 2 -0.7
v 0.4 2 -0.7
v 0.5 2 -0.7
v 0 2 -0.8
v 0.1 2 -0.8
v 0.4 2 -0.8
v 0.5 2 -0.8
v 0 2.1 -0.8
v 0.1 2.1 -0.8
v 0.4 2.1 -0.8
v 0.5 2.1 -0.8
v 0 2.1 -0.9
v 0.1 2.1 -0.9
v 0.4 2.1 -0.9
v 0.5 2.1 -0.9
v 0 2.2 -0.9
v 0.1 2.2 -0.9
v 0.4 2.2 -0.9
v 0.5 2.2 -0.9
v 0 2.2 -1
v 0.1 2.2 -1
v 0.4 2.2 -1
v 0.5 2.2 -1
v 0.1 2.3 -1
v 0.4 2.3 -1
v 0.1 2.3 -1.1
v 0.2 2.3 -1.1
v 0.3 2.3 -1.1
v 0.4 2.3 -1.1
v 0.2 2.3 -1.2
v 0.3 2.3 -1.2
v 0.1 2.4 -0.7
v 0.4 2.4 -0.7
v 0.1 2.4 -0.8
v 0.4 2.4 -0.8
v 0.1 2.4 -1
v 0.4 2.4 -1
v 0.2 2.4 -1.2
v 0.3 2.4 -1.2
v 0.2 2.4 -1.3
v 0.3 2.4 -1.3
v 0 2.5 -0.3
v 0.1 2.5 -0.3
v 0.4 2.5 -0.3
v 0.5 2.5 -0.3
v 0 2.5 -0.4
v 0.1 2.5 -0.4
v 0.4 2.5 -0.4
v 0.5 2.5 -0.4
v 0.1 2.5 -0.6
v 0.4 2.5 -0.6
v 0.1 2.5 -0.7
v 0.4 2.5 -0.7
v 0.2 2.5 -1.3
v 0.3 2.5 -1.3
v 0.2 2.5 -1.4
v 0.3 2.5 -1.4
v 0 2.6 -0.2
v 0.1 2.6 -0.2
v 0.4 2.6 -0.2
v 0.5 2.6 -0.2
v 0 2.6 -0.3
v 0.1 2.6 -0.3
v 0.4 2.6 -0.3
v 0.5 2.6 -0.3
v 0 2.6 -0.4
v 0.1 2.6 -0.4
v 0.4 2.6 -0.4
v 0.5 2.6 -0.4
v 0 2.6 -0.6
v 0.1 2.6 -0.6
v 0.4 2.6 -0.6
v 0.5 2.6 -0.6
v 0.1 2.6 -0.8
v 0.4 2.6 -0.8
v 0.1 2.6 -0.9
v 0.4 2.6 -0.9
v 0.2 2.6 -1.4
v 0.3 2.6 -1.4
v 0.2 2.6 -1.5
v 0.3 2.6 -1.5
v 0 2.7 -0.1
v 0.1 2.7 -0.1
v 0.4 2.7 -0.1
v 0.5 2.7 -0.1
v 0 2.7 -0.2
v 0.1 2.7 -0.2
v 0.4 2.7 -0.2
v 0.5 2.7 -0.2
v 0.1 2.7 -0.3
v 0.4 2.7 -0.3
v 0.1 2.7 -0.4
v 0.4 2.7 -0.4
v 0.2 2.7 -1.5
v 0.3 2.7 -1.5
v 0.2 2.7 -1.6
v 0.3 2.7 -1.6
v 0.2 2.8 -0.1
v 0.3 2.8 -0.1
v 0.1 2.8 -0.2
v 0.2 2.8 -0.2
v 0.3 2.8 -0.2
v 0.4 2.8 -0.2
v 0.1 2.8 -0.3
v 0.4 2.8 -0.3
v 0.2 2.8 -0.4
v 0.3 2.8 -0.4
v 0.1 2.8 -0.5
v 0.2 2.8 -0.5
v 0.3 2.8 -0.5
v 0.4 2.8 -0.5
v 0.1 2.8 -0.6
v 0.4 2.8 -0.6
v 0.1 2.9 -0.1
v 0.2 2.9 -0.1
v 0.3 2.9 -0.1
v 0.4 2.9 -0.1
v 0.1 2.9 -0.2
v 0.2 2.9 -0.2
v 0.3 2.9 -0.2
v 0.4 2.9 -0.2
v 0 3 -0.2
v 0.1 3 -0.2
v 0.4 3 -0.2
v 0.5 3 -0.2
v 0 3 -0.3
v 0.1 3 -0.3
v 0.4 3 -0.3
v 0.5 3 -0.3
v 0.2 3.1 0
v 0.3 3.1 0
v 0.2 3.1 -0.1
v 0.3 3.1 -0.1
v 0 3.1 -0.3
v 0.1 3.1 -0.3
v 0.4 3.1 -0.3
v 0.5 3.1 -0.3
v 0.1 3.1 -0.4
v 0.4 3.1 -0.4
v 0 3.1 -0.5
v 0.1 3.1 -0.5
v 0.4 3.1 -0.5
v 0.5 3.1 -0.5
v 0 2.1 -0.7
v 0.1 2.1 -0.7
v 0.4 2.1 -0.7
v 0.5 2.1 -0.7
v 0 2.1 -0.8
v 0.1 2.1 -0.8
v 0.4 2.1 -0.8
v 0.5 2.1 -0.8
v 0.2 2.4 -1.1
v 0.3 2.4 -1.1
v 0.2 2.4 -1.2
v 0.3 2.4 -1.2
v 0.1 2.5 -0.8
v 0.4 2.5 -0.8
v 0.1 2.5 -0.9
v 0.4 2.5 -0.9
v 0.1 2.5 -1
v 0.4 2.5 -1
v 0.1 2.5 -1.1
v 0.4 2.5 -1.1
v 0.2 2.5 -1.2
v 0.3 2.5 -1.2
v 0.2 2.5 -1.3
v 0.3 2.5 -1.3
v 0 2.6 -0.3
v 0.1 2.6 -0.3
v 0.4 2.6 -0.3
v 0.5 2.6 -0.3
v 0 2.6 -0.4
v 0.1 2.6 -0.4
v 0.4 2.6 -0.4
v 0.5 2.6 -0.4
v 0 2.6 -0.8
v 0.1 2.6 -0.8
v 0.4 2.6 -0.8
v 0.5 2.6 -0.8
v 0.1 2.6 -0.9
v 0.4 2.6 -0.9
v 0 2.6 -1
v 0.5 2.6 -1
v 0.2 2.6 -1.3
v 0.3 2.6 -1.3
v 0.2 2.6 -1.4
v 0.3 2.6 -1.4
v 0 2.7 -0.2
v 0.1 2.7 -0.2
v 0.4 2.7 -0.2
v 0.5 2.7 -0.2
v 0 2.7 -0.3
v 0.1 2.7 -0.3
v 0.4 2.7 -0.3
v 0.5 2.7 -0.3
v 0.2 2.7 -0.4
v 0.3 2.7 -0.4
v 0.1 2.7 -0.5
v 0.2 2.7 -0.5
v 0.3 2.7 -0.5
v 0.4 2.7 -0.5
v 0.1 2.7 -0.6
v 0.4 2.7 -0.6
v 0.1 2.7 -0.8
v 0.4 2.7 -0.8
v 0.1 2.7 -0.9
v 0.4 2.7 -0.9
v 0.2 2.7 -1.4
v 0.3 2.7 -1.4
v 0.2 2.7 -1.5
v 0.3 2.7 -1.5
v 0 2.8 -0.1
v 0.1 2.8 -0.1
v 0.4 2.8 -0.1
v 0.5 2.8 -0.1
v 0 2.8 -0.2
v 0.1 2.8 -0.2
v 0.4 2.8 -0.2
v 0.5 2.8 -0.2
v 0 2.8 -0.4
v 0.1 2.8 -0.4
v 0.4 2.8 -0.4
v 0.5 2.8 -0.4
v 0 2.8 -0.6
v 0.1 2.8 -0.6
v 0.4 2.8 -0.6
v 0.5 2.8 -0.6
v 0.1 2.8 -0.7
v 0.4 2.8 -0.7
v 0.1 2.8 -0.8
v 0.4 2.8 -0.8
v 0.1 2.9 -0.6
v 0.4 2.9 -0.6
v 0.1 2.9 -0.7
v 0.4 2.9 -0.7
v 0.2 2.9 -1.5
v 0.3 2.9 -1.5
v 0.2 2.9 -1.6
v 0.3 2.9 -1.6
v 0.1 3 -0.4
v 0.4 3 -0.4
v 0.1 3 -0.6
v 0.4 3 -0.6
v 0.1 3.1 -0.1
v 0.2 3.1 -0.1
v 0.3 3.1 -0.1
v 0.4 3.1 -0.1
v 0 3.1 -0.2
v 0.1 3.1 -0.2
v 0.4 3.1 -0.2
v 0.5 3.1 -0.2
v 0 3.1 -0.3
v 0.1 3.1 -0.3
v 0.4 3.1 -0.3
v 0.5 3.1 -0.3
v 0.1 3.1 -0.4
v 0.4 3.1 -0.4
v 0.2 3.2 0
v 0.3 3.2 0
v 0.2 3.2 -0.1
v 0.3 3.2 -0.1
v 0.1 3.2 -0.2
v 0.4 3.2 -0.2
v 0 3.2 -0.3
v 0.1 3.2 -0.3
v 0.4 3.2 -0.3
v 0.5 3.2 -0.3
v 0 3.2 -0.5
v 0.1 3.2 -0.5
v 0.4 3.2 -0.5
v 0.5 3.2 -0.5

# faces
f 3/1/1 2/1/1 1/1/1
f 4/1/1 2/1/1 3/1/1
f 6/1/1 5/1/1 4/1/1
f 7/1/1 5/1/1 6/1/1
f 12/2/1 10/2/1 9/2/1
f 13/2/1 10/2/1 12/2/1
f 15/2/1 7/2/1 6/2/1
f 15/2/1 8/2/1 7/2/1
f 16/2/1 8/2/1 15/2/1
f 18/1/1 12/1/1 11/1/1
f 19/1/1 12/1/1 18/1/1
f 20/1/1 18/1/1 17/1/1
f 21/1/1 18/1/1 20/1/1
f 22/2/1 14/2/1 13/2/1
f 23/2/1 14/2/1 22/2/1
f 26/3/1 25/3/1 24/3/1
f 27/3/1 25/3/1 26/3/1
f 29/1/1 28/1/1 27/1/1
f 30/1/1 28/1/1 29/1/1
f 36/2/1 34/2/1 33/2/1
f 37/2/1 32/2/1 31/2/1
f 38/2/1 32/2/1 37/2/1
f 39/2/1 36/2/1 35/2/1
f 40/2/1 34/2/1 36/2/1
f 40/2/1 36/2/1 39/2/1
f 44/2/1 40/2/1 39/2/1
f 44/2/1 41/2/1 40/2/1
f 45/2/1 41/2/1 44/2/1
f 47/2/1 43/2/1 42/2/1
f 48/2/1 43/2/1 47/2/1
f 49/2/1 44/2/1 39/2/1
f 50/2/1 44/2/1 49/2/1
f 51/2/1 44/2/1 50/2/1
f 53/2/1 48/2/1 47/2/1
f 53/2/1 47/2/1 46/2/1
f 53/2/1 50/2/1 49/2/1
f 53/2/1 49/2/1 48/2/1
f 54/2/1 50/2/1 53/2/1
f 55/2/1 50/2/1 54/2/1
f 56/2/1 53/2/1 52/2/1
f 56/2/1 54/2/1 53/2/1
f 57/2/1 54/2/1 56/2/1
f 58/2/1 54/2/1 57/2/1
f 59/2/1 54/2/1 58/2/1
f 60/2/1 56/2/1 52/2/1
f 61/2/1 56/2/1 60/2/1
f 62/2/1 58/2/1 57/2/1
f 63/2/1 58/2/1 62/2/1
f 64/2/1 62/2/1 61/2/1
f 65/2/1 62/2/1 64/2/1
f 68/2/1 67/2/1 66/2/1
f 69/2/1 67/2/1 68/2/1
f 71/1/1 70/1/1 69/1/1
f 72/1/1 70/1/1 71/1/1
f 74/1/1 73/1/1 72/1/1
f 75/1/1 73/1/1 74/1/1
f 77/1/1 76/1/1 75/1/1
f 78/1/1 76/1/1 77/1/1
f 82/2/1 81/2/1 80/2/1
f 83/2/1 81/2/1 82/2/1
f 84/1/1 79/1/1 78/1/1
f 85/1/1 79/1/1 84/1/1
f 88/1/1 87/1/1 86/1/1
f 89/1/1 87/1/1 88/1/1
f 92/2/1 91/2/1 90/2/1
f 93/2/1 91/2/1 92/2/1
f 96/1/1 95/1/1 94/1/1
f 97/1/1 95/1/1 96/1/1
f 99/1/1 98/1/1 97/1/1
f 100/1/1 98/1/1 99/1/1
f 102/2/1 100/2/1 99/2/1
f 102/2/1 101/2/1 100/2/1
f 103/2/1 102/2/1 99/2/1
f 104/2/1 102/2/1 103/2/1
f 110/2/1 106/2/1 105/2/1
f 111/2/1 106/2/1 110/2/1
f 112/2/1 108/2/1 107/2/1
f 113/2/1 108/2/1 112/2/1
f 115/1/1 110/1/1 109/1/1
f 116/1/1 110/1/1 115/1/1
f 119/1/1 115/1/1 114/1/1
f 120/1/1 115/1/1 119/1/1
f 121/2/1 118/2/1 117/2/1
f 122/2/1 118/2/1 121/2/1
f 126/1/1 124/1/1 123/1/1
f 126/1/1 125/1/1 124/1/1
f 127/1/1 125/1/1 126/1/1
f 128/1/2 129/1/2 130/1/2
f 130/1/2 129/1/2 131/1/2
f 131/1/2 132/1/2 133/1/2
f 133/1/2 132/1/2 134/1/2
f 133/2/2 134/2/2 136/2/2
f 134/2/2 135/2/2 136/2/2
f 133/2/2 136/2/2 137/2/2
f 137/2/2 136/2/2 138/2/2
f 139/2/2 140/2/2 144/2/2
f 144/2/2 140/2/2 145/2/2
f 141/2/2 142/2/2 146/2/2
f 146/2/2 142/2/2 147/2/2
f 143/1/2 144/1/2 149/1/2
f 149/1/2 144/1/2 150/1/2
f 148/1/2 149/1/2 153/1/2
f 153/1/2 149/1/2 154/1/2
f 151/2/2 152/2/2 155/2/2
f 155/2/2 152/2/2 156/2/2
f 157/1/2 158/1/2 160/1/2
f 158/1/2 159/1/2 160/1/2
f 160/1/2 159/1/2 161/1/2
f 162/2/2 163/2/2 164/2/2
f 164/2/2 163/2/2 165/2/2
f 166/2/2 167/2/2 168/2/2
f 168/2/2 167/2/2 169/2/2
f 169/1/2 170/1/2 171/1/2
f 171/1/2 170/1/2 172/1/2
f 172/1/2 173/1/2 174/1/2
f 174/1/2 173/1/2 175/1/2
f 175/1/2 176/1/2 177/1/2
f 177/1/2 176/1/2 178/1/2
f 180/2/2 181/2/2 182/2/2
f 182/2/2 181/2/2 183/2/2
f 178/1/2 179/1/2 184/1/2
f 184/1/2 179/1/2 185/1/2
f 186/1/2 187/1/2 188/1/2
f 188/1/2 187/1/2 189/1/2
f 192/2/2 193/2/2 195/2/2
f 190/2/2 191/2/2 196/2/2
f 196/2/2 191/2/2 197/2/2
f 194/2/2 195/2/2 198/2/2
f 195/2/2 193/2/2 199/2/2
f 198/2/2 195/2/2 199/2/2
f 198/2/2 199/2/2 203/2/2
f 199/2/2 200/2/2 203/2/2
f 203/2/2 200/2/2 204/2/2
f 201/2/2 202/2/2 206/2/2
f 206/2/2 202/2/2 207/2/2
f 198/2/2 203/2/2 208/2/2
f 208/2/2 203/2/2 209/2/2
f 209/2/2 203/2/2 210/2/2
f 206/2/2 207/2/2 212/2/2
f 205/2/2 206/2/2 212/2/2
f 208/2/2 209/2/2 212/2/2
f 207/2/2 208/2/2 212/2/2
f 212/2/2 209/2/2 213/2/2
f 213/2/2 209/2/2 214/2/2
f 211/2/2 212/2/2 215/2/2
f 212/2/2 213/2/2 215/2/2
f 215/2/2 213/2/2 216/2/2
f 216/2/2 213/2/2 217/2/2
f 217/2/2 213/2/2 218/2/2
f 211/2/2 215/2/2 219/2/2
f 219/2/2 215/2/2 220/2/2
f 216/2/2 217/2/2 221/2/2
f 221/2/2 217/2/2 222/2/2
f 220/2/2 221/2/2 223/2/2
f 223/2/2 221/2/2 224/2/2
f 225/1/2 226/1/2 227/1/2
f 227/1/2 226/1/2 228/1/2
f 228/1/2 229/1/2 230/1/2
f 230/1/2 229/1/2 231/1/2
f 233/2/2 234/2/2 236/2/2
f 236/2/2 234/2/2 237/2/2
f 230/2/2 231/2/2 239/2/2
f 231/2/2 232/2/2 239/2/2
f 239/2/2 232/2/2 240/2/2
f 235/1/2 236/1/2 242/1/2
f 242/1/2 236/1/2 243/1/2
f 241/1/2 242/1/2 244/1/2
f 244/1/2 242/1/2 245/1/2
f 237/2/2 238/2/2 246/2/2
f 246/2/2 238/2/2 247/2/2
f 248/3/2 249/3/2 250/3/2
f 250/3/2 249/3/2 251/3/2
f 251/1/2 252/1/2 253/1/2
f 253/1/2 252/1/2 254/1/2
f 257/1/3 256/1/3 255/1/3
f 258/1/3 256/1/3 257/1/3
f 261/1/3 260/1/3 259/1/3
f 262/1/3 260/1/3 261/1/3
f 266/2/3 264/2/3 263/2/3
f 267/2/3 264/2/3 266/2/3
f 268/2/3 266/2/3 265/2/3
f 268/2/3 267/2/3 266/2/3
f 269/2/3 267/2/3 268/2/3
f 270/2/3 267/2/3 269/2/3
f 273/2/3 270/2/3 269/2/3
f 274/2/3 270/2/3 273/2/3
f 275/1/3 272/1/3 271/1/3
f 276/1/3 272/1/3 275/1/3
f 281/1/3 278/1/3 277/1/3
f 282/1/3 278/1/3 281/1/3
f 285/3/3 280/3/3 279/3/3
f 286/3/3 280/3/3 285/3/3
f 288/2/3 284/2/3 283/2/3
f 289/2/3 284/2/3 288/2/3
f 294/2/3 291/2/3 290/2/3
f 295/2/3 291/2/3 294/2/3
f 297/2/3 287/2/3 286/2/3
f 298/2/3 287/2/3 297/2/3
f 299/1/3 293/1/3 292/1/3
f 300/1/3 293/1/3 299/1/3
f 301/3/3 297/3/3 296/3/3
f 302/3/3 297/3/3 301/3/3
f 307/2/3 304/2/3 303/2/3
f 308/2/3 304/2/3 307/2/3
f 311/1/3 306/1/3 305/1/3
f 312/1/3 306/1/3 311/1/3
f 315/2/3 310/2/3 309/2/3
f 316/2/3 310/2/3 315/2/3
f 319/2/3 314/2/3 313/2/3
f 320/2/3 314/2/3 319/2/3
f 321/1/3 318/1/3 317/1/3
f 322/1/3 318/1/3 321/1/3
f 325/2/3 324/2/3 323/2/3
f 326/2/3 324/2/3 325/2/3
f 327/2/3 324/2/3 326/2/3
f 328/2/3 326/2/3 325/2/3
f 329/2/3 326/2/3 328/2/3
f 331/2/3 329/2/3 328/2/3
f 331/2/3 330/2/3 329/2/3
f 332/2/3 330/2/3 331/2/3
f 337/2/3 334/2/3 333/2/3
f 338/2/3 334/2/3 337/2/3
f 339/2/3 336/2/3 335/2/3
f 340/2/3 336/2/3 339/2/3
f 343/1/3 342/1/3 341/1/3
f 344/1/3 342/1/3 343/1/3
f 349/2/3 346/2/3 345/2/3
f 350/2/3 346/2/3 349/2/3
f 351/1/3 348/1/3 347/1/3
f 352/1/3 348/1/3 351/1/3
f 356/1/3 354/1/3 353/1/3
f 357/2/3 355/2/3 354/2/3
f 357/1/3 354/1/3 356/1/3
f 358/2/3 355/2/3 357/2/3
f 359/2/3 355/2/3 358/2/3
f 364/1/3 361/1/3 360/1/3
f 365/2/3 363/2/3 362/2/3
f 365/1/3 361/1/3 364/1/3
f 365/2/3 362/2/3 361/2/3
f 366/2/3 363/2/3 365/2/3
f 369/2/3 368/2/3 367/2/3
f 370/2/3 368/2/3 369/2/3
f 373/2/3 372/2/3 371/2/3
f 374/2/3 372/2/3 373/2/3
f 377/1/3 376/1/3 375/1/3
f 378/1/3 376/1/3 377/1/3
f 381/1/3 380/1/3 379/1/3
f 382/1/3 380/1/3 381/1/3
f 385/1/3 384/1/3 383/1/3
f 386/1/3 384/1/3 385/1/3
f 389/1/3 388/1/3 387/1/3
f 390/1/3 388/1/3 389/1/3
f 391/1/4 392/1/4 393/1/4
f 393/1/4 392/1/4 394/1/4
f 395/1/4 396/1/4 397/1/4
f 397/1/4 396/1/4 398/1/4
f 399/1/4 400/1/4 401/1/4
f 401/1/4 400/1/4 402/1/4
f 403/1/4 404/1/4 407/1/4
f 407/1/4 404/1/4 408/1/4
f 405/3/4 406/3/4 409/3/4
f 409/3/4 406/3/4 410/3/4
f 410/2/4 411/2/4 415/2/4
f 415/2/4 411/2/4 416/2/4
f 412/1/4 413/1/4 417/1/4
f 417/1/4 413/1/4 418/1/4
f 414/3/4 415/3/4 419/3/4
f 419/3/4 415/3/4 420/3/4
f 421/2/4 422/2/4 423/2/4
f 423/2/4 422/2/4 424/2/4
f 427/2/4 428/2/4 429/2/4
f 429/2/4 428/2/4 430/2/4
f 425/2/4 426/2/4 433/2/4
f 433/2/4 426/2/4 434/2/4
f 431/2/4 432/2/4 435/2/4
f 435/2/4 432/2/4 436/2/4
f 437/1/4 438/1/4 441/1/4
f 441/1/4 438/1/4 442/1/4
f 439/2/4 440/2/4 443/2/4
f 443/2/4 440/2/4 444/2/4
f 445/2/4 446/2/4 447/2/4
f 447/2/4 446/2/4 448/2/4
f 449/1/4 450/1/4 451/1/4
f 451/1/4 450/1/4 452/1/4
f 453/2/4 454/2/4 455/2/4
f 455/2/4 454/2/4 456/2/4
f 457/2/4 458/2/4 461/2/4
f 461/2/4 458/2/4 462/2/4
f 459/2/4 460/2/4 463/2/4
f 463/2/4 460/2/4 464/2/4
f 465/2/4 466/2/4 467/2/4
f 467/2/4 466/2/4 468/2/4
f 469/1/4 470/1/4 471/1/4
f 471/1/4 470/1/4 472/1/4
f 473/2/4 474/2/4 479/2/4
f 479/2/4 474/2/4 480/2/4
f 475/2/4 476/2/4 481/2/4
f 481/2/4 476/2/4 482/2/4
f 477/1/4 478/1/4 483/1/4
f 483/1/4 478/1/4 484/1/4
f 485/1/4 486/1/4 487/1/4
f 487/1/4 486/1/4 488/1/4
f 489/2/4 490/2/4 493/2/4
f 493/2/4 490/2/4 494/2/4
f 491/1/4 492/1/4 495/1/4
f 495/1/4 492/1/4 496/1/4
f 497/2/4 498/2/4 499/2/4
f 499/2/4 498/2/4 500/2/4
f 500/2/4 498/2/4 501/2/4
f 501/2/4 498/2/4 504/2/4
f 502/2/4 503/2/4 505/2/4
f 503/2/4 504/2/4 505/2/4
f 504/2/4 498/2/4 506/2/4
f 505/2/4 504/2/4 506/2/4
f 507/2/4 508/2/4 509/2/4
f 509/2/4 508/2/4 510/2/4
f 510/2/4 508/2/4 512/2/4
f 511/2/4 512/2/4 513/2/4
f 512/2/4 508/2/4 514/2/4
f 513/2/4 512/2/4 514/2/4
f 515/2/4 516/2/4 517/2/4
f 517/2/4 516/2/4 518/2/4
f 519/1/4 520/1/4 521/1/4
f 521/1/4 520/1/4 522/1/4
f 523/1/4 524/1/4 525/1/4
f 525/1/4 524/1/4 526/1/4
f 527/1/4 528/1/4 529/1/4
f 529/1/4 528/1/4 530/1/4
f 531/1/4 532/1/4 533/1/4
f 533/1/4 532/1/4 534/1/4
f 539/1/5 536/1/5 535/1/5
f 540/1/5 536/1/5 539/1/5
f 541/1/5 538/1/5 537/1/5
f 542/1/5 538/1/5 541/1/5
f 547/1/5 544/1/5 543/1/5
f 548/1/5 544/1/5 547/1/5
f 549/1/5 546/1/5 545/1/5
f 550/1/5 546/1/5 549/1/5
f 555/2/5 552/2/5 551/2/5
f 556/2/5 552/2/5 555/2/5
f 557/2/5 554/2/5 553/2/5
f 558/2/5 554/2/5 557/2/5
f 561/2/5 560/2/5 559/2/5
f 562/2/5 560/2/5 561/2/5
f 563/2/5 560/2/5 562/2/5
f 564/2/5 560/2/5 563/2/5
f 565/2/5 563/2/5 562/2/5
f 566/2/5 563/2/5 565/2/5
f 569/2/5 568/2/5 567/2/5
f 570/2/5 568/2/5 569/2/5
f 571/2/5 570/2/5 569/2/5
f 572/2/5 570/2/5 571/2/5
f 575/1/5 574/1/5 573/1/5
f 576/1/5 574/1/5 575/1/5
f 581/2/5 578/2/5 577/2/5
f 582/2/5 578/2/5 581/2/5
f 583/2/5 580/2/5 579/2/5
f 584/2/5 580/2/5 583/2/5
f 587/2/5 586/2/5 585/2/5
f 588/2/5 586/2/5 587/2/5
f 591/1/5 590/1/5 589/1/5
f 592/1/5 590/1/5 591/1/5
f 597/1/5 594/1/5 593/1/5
f 598/1/5 594/1/5 597/1/5
f 599/1/5 596/1/5 595/1/5
f 600/1/5 596/1/5 599/1/5
f 605/2/5 602/2/5 601/2/5
f 605/2/5 604/2/5 603/2/5
f 605/2/5 603/2/5 602/2/5
f 606/2/5 604/2/5 605/2/5
f 607/2/5 604/2/5 606/2/5
f 608/2/5 604/2/5 607/2/5
f 611/2/5 610/2/5 609/2/5
f 612/2/5 610/2/5 611/2/5
f 615/1/5 614/1/5 613/1/5
f 616/1/5 614/1/5 615/1/5
f 621/1/5 618/1/5 617/1/5
f 622/1/5 618/1/5 621/1/5
f 623/1/5 620/1/5 619/1/5
f 624/1/5 620/1/5 623/1/5
f 627/2/5 626/2/5 625/2/5
f 628/2/5 626/2/5 627/2/5
f 631/1/5 630/1/5 629/1/5
f 632/1/5 630/1/5 631/1/5
f 636/2/5 634/2/5 633/2/5
f 637/2/5 634/2/5 636/2/5
f 639/2/5 636/2/5 635/2/5
f 639/2/5 638/2/5 637/2/5
f 639/2/5 637/2/5 636/2/5
f 640/2/5 638/2/5 639/2/5
f 644/2/5 642/2/5 641/2/5
f 645/2/5 642/2/5 644/2/5
f 647/2/5 644/2/5 643/2/5
f 647/2/5 646/2/5 645/2/5
f 647/2/5 645/2/5 644/2/5
f 648/2/5 646/2/5 647/2/5
f 653/2/5 650/2/5 649/2/5
f 654/2/5 650/2/5 653/2/5
f 655/2/5 652/2/5 651/2/5
f 656/2/5 652/2/5 655/2/5
f 661/3/5 658/3/5 657/3/5
f 662/3/5 658/3/5 661/3/5
f 663/3/5 660/3/5 659/3/5
f 664/3/5 660/3/5 663/3/5
f 667/1/5 666/1/5 665/1/5
f 668/1/5 666/1/5 667/1/5
f 673/1/5 670/1/5 669/1/5
f 674/1/5 672/1/5 671/1/5
f 675/1/5 673/1/5 669/1/5
f 676/1/5 673/1/5 675/1/5
f 677/1/5 672/1/5 674/1/5
f 678/1/5 672/1/5 677/1/5
f 679/1/6 680/1/6 683/1/6
f 683/1/6 680/1/6 684/1/6
f 681/1/6 682/1/6 685/1/6
f 685/1/6 682/1/6 686/1/6
f 687/2/6 688/2/6 689/2/6
f 689/2/6 688/2/6 690/2/6
f 691/2/6 692/2/6 693/2/6
f 693/2/6 692/2/6 694/2/6
f 695/2/6 696/2/6 697/2/6
f 697/2/6 696/2/6 698/2/6
f 699/1/6 700/1/6 701/1/6
f 701/1/6 700/1/6 702/1/6
f 703/2/6 704/2/6 707/2/6
f 707/2/6 704/2/6 708/2/6
f 705/2/6 706/2/6 709/2/6
f 709/2/6 706/2/6 710/2/6
f 711/2/6 712/2/6 715/2/6
f 713/2/6 714/2/6 716/2/6
f 711/2/6 715/2/6 717/2/6
f 715/2/6 716/2/6 717/2/6
f 716/2/6 714/2/6 718/2/6
f 717/2/6 716/2/6 718/2/6
f 719/1/6 720/1/6 721/1/6
f 721/1/6 720/1/6 722/1/6
f 723/1/6 724/1/6 727/1/6
f 727/1/6 724/1/6 728/1/6
f 725/1/6 726/1/6 729/1/6
f 729/1/6 726/1/6 730/1/6
f 731/2/6 732/2/6 734/2/6
f 734/2/6 732/2/6 735/2/6
f 733/2/6 734/2/6 737/2/6
f 735/2/6 736/2/6 737/2/6
f 734/2/6 735/2/6 737/2/6
f 737/2/6 736/2/6 738/2/6
f 739/2/6 740/2/6 741/2/6
f 741/2/6 740/2/6 742/2/6
f 743/1/6 744/1/6 745/1/6
f 745/1/6 744/1/6 746/1/6
f 747/1/6 748/1/6 751/1/6
f 751/1/6 748/1/6 752/1/6
f 749/1/6 750/1/6 753/1/6
f 753/1/6 750/1/6 754/1/6
f 755/2/6 756/2/6 759/2/6
f 759/2/6 756/2/6 760/2/6
f 757/2/6 758/2/6 761/2/6
f 761/2/6 758/2/6 762/2/6
f 763/2/6 764/2/6 765/2/6
f 765/2/6 764/2/6 766/2/6
f 767/2/6 768/2/6 769/2/6
f 769/2/6 768/2/6 770/2/6
f 771/1/6 772/1/6 773/1/6
f 773/1/6 772/1/6 774/1/6
f 775/2/6 776/2/6 777/2/6
f 777/2/6 776/2/6 778/2/6
f 779/2/6 780/2/6 784/2/6
f 781/2/6 782/2/6 784/2/6
f 780/2/6 781/2/6 784/2/6
f 784/2/6 782/2/6 785/2/6
f 783/3/6 784/3/6 787/3/6
f 787/3/6 784/3/6 788/3/6
f 785/3/6 786/3/6 789/3/6
f 789/3/6 786/3/6 790/3/6
f 788/2/6 789/2/6 791/2/6
f 791/2/6 789/2/6 792/2/6
f 793/1/6 794/1/6 795/1/6
f 795/1/6 794/1/6 796/1/6
f 797/2/6 798/2/6 800/2/6
f 800/2/6 798/2/6 801/2/6
f 799/1/6 800/1/6 803/1/6
f 803/1/6 800/1/6 804/1/6
f 801/1/6 802/1/6 805/1/6
f 805/1/6 802/1/6 806/1/6
