# MagicaVoxel @ Ephtracy

# group
o 

# material
mtllib garbage_can_semiclosed.mtl
usemtl palette

# normals
vn -1 0 0
vn 1 0 0
vn 0 0 1
vn 0 0 -1
vn 0 -1 0
vn 0 1 0

# texcoords
vt 0.970703 0.5
vt 0.978516 0.5

# verts
v 0 3.5 -0.3
v 0 3.5 -0.8
v 0 3.6 -0.3
v 0 3.6 -0.8
v 0.1 3.5 -0.2
v 0.1 3.5 -0.3
v 0.1 3.5 -0.8
v 0.1 3.5 -0.9
v 0.1 3.6 -0.2
v 0.1 3.6 -0.3
v 0.1 3.6 -0.8
v 0.1 3.6 -0.9
v 0.2 3.5 -0.1
v 0.2 3.5 -0.2
v 0.2 3.5 -0.9
v 0.2 3.5 -1
v 0.2 3.6 -0.1
v 0.2 3.6 -0.2
v 0.2 3.6 -0.9
v 0.2 3.6 -1
v 0.3 3.5 0
v 0.3 3.5 -0.1
v 0.3 3.5 -1
v 0.3 3.5 -1.1
v 0.3 3.6 0
v 0.3 3.6 -0.1
v 0.3 3.6 -1
v 0.3 3.6 -1.1
v 0.4 2 -0.3
v 0.4 2 -0.8
v 0.4 3.4 -0.3
v 0.4 3.4 -0.8
v 0.4 3.5 -0.3
v 0.4 3.5 -0.8
v 0.4 3.6 -0.5
v 0.4 3.6 -0.6
v 0.4 3.7 -0.5
v 0.4 3.7 -0.6
v 0.5 2 -0.2
v 0.5 2 -0.3
v 0.5 2 -0.8
v 0.5 2 -0.9
v 0.5 3.4 -0.2
v 0.5 3.4 -0.3
v 0.5 3.4 -0.8
v 0.5 3.4 -0.9
v 0.5 3.5 -0.2
v 0.5 3.5 -0.3
v 0.5 3.5 -0.8
v 0.5 3.5 -0.9
v 0.6 2 -0.1
v 0.6 2 -0.2
v 0.6 2 -0.9
v 0.6 2 -1
v 0.6 3.4 -0.1
v 0.6 3.4 -0.2
v 0.6 3.4 -0.9
v 0.6 3.4 -1
v 0.6 3.5 -0.1
v 0.6 3.5 -0.2
v 0.6 3.5 -0.9
v 0.6 3.5 -1
v 0.7 2 0
v 0.7 2 -0.1
v 0.7 2 -1
v 0.7 2 -1.1
v 0.7 3.4 0
v 0.7 3.4 -0.1
v 0.7 3.4 -1
v 0.7 3.4 -1.1
v 0.7 3.5 0
v 0.7 3.5 -0.1
v 0.7 3.5 -1
v 0.7 3.5 -1.1
v 1.2 2.2 -0.2
v 1.2 2.2 -0.9
v 1.2 2.3 -0.3
v 1.2 2.3 -0.8
v 1.2 3.4 -0.1
v 1.2 3.4 -0.2
v 1.2 3.4 -0.3
v 1.2 3.4 -0.8
v 1.2 3.4 -0.9
v 1.2 3.4 -1
v 1.2 3.5 -0.1
v 1.2 3.5 -0.2
v 1.2 3.5 -0.9
v 1.2 3.5 -1
v 1.3 2.3 -0.3
v 1.3 2.3 -0.8
v 1.3 3.4 -0.2
v 1.3 3.4 -0.3
v 1.3 3.4 -0.8
v 1.3 3.4 -0.9
v 1.3 3.5 -0.2
v 1.3 3.5 -0.3
v 1.3 3.5 -0.8
v 1.3 3.5 -0.9
v 1.4 3.4 -0.3
v 1.4 3.4 -0.8
v 1.4 3.5 -0.3
v 1.4 3.5 -0.8
v 0.5 3.4 -0.3
v 0.5 3.4 -0.8
v 0.5 3.5 -0.3
v 0.5 3.5 -0.8
v 0.6 2.2 -0.3
v 0.6 2.2 -0.8
v 0.6 3.4 -0.2
v 0.6 3.4 -0.3
v 0.6 3.4 -0.8
v 0.6 3.4 -0.9
v 0.6 3.5 -0.2
v 0.6 3.5 -0.3
v 0.6 3.5 -0.8
v 0.6 3.5 -0.9
v 0.7 2.2 -0.2
v 0.7 2.2 -0.3
v 0.7 2.2 -0.8
v 0.7 2.2 -0.9
v 0.7 3.4 -0.1
v 0.7 3.4 -0.2
v 0.7 3.4 -0.3
v 0.7 3.4 -0.8
v 0.7 3.4 -0.9
v 0.7 3.4 -1
v 0.7 3.5 -0.1
v 0.7 3.5 -0.2
v 0.7 3.5 -0.9
v 0.7 3.5 -1
v 0.7 3.6 -0.5
v 0.7 3.6 -0.6
v 0.7 3.7 -0.5
v 0.7 3.7 -0.6
v 0.8 3.5 0
v 0.8 3.5 -0.1
v 0.8 3.5 -1
v 0.8 3.5 -1.1
v 0.8 3.6 0
v 0.8 3.6 -0.1
v 0.8 3.6 -1
v 0.8 3.6 -1.1
v 0.9 3.5 -0.1
v 0.9 3.5 -0.2
v 0.9 3.5 -0.9
v 0.9 3.5 -1
v 0.9 3.6 -0.1
v 0.9 3.6 -0.2
v 0.9 3.6 -0.9
v 0.9 3.6 -1
v 1 3.5 -0.2
v 1 3.5 -0.3
v 1 3.5 -0.8
v 1 3.5 -0.9
v 1 3.6 -0.2
v 1 3.6 -0.3
v 1 3.6 -0.8
v 1 3.6 -0.9
v 1.1 3.5 -0.3
v 1.1 3.5 -0.8
v 1.1 3.6 -0.3
v 1.1 3.6 -0.8
v 1.2 2 0
v 1.2 2 -0.1
v 1.2 2 -1
v 1.2 2 -1.1
v 1.2 3.4 0
v 1.2 3.4 -0.1
v 1.2 3.4 -1
v 1.2 3.4 -1.1
v 1.2 3.5 0
v 1.2 3.5 -0.1
v 1.2 3.5 -1
v 1.2 3.5 -1.1
v 1.3 2 -0.1
v 1.3 2 -0.2
v 1.3 2 -0.9
v 1.3 2 -1
v 1.3 3.4 -0.1
v 1.3 3.4 -0.2
v 1.3 3.4 -0.9
v 1.3 3.4 -1
v 1.3 3.5 -0.1
v 1.3 3.5 -0.2
v 1.3 3.5 -0.9
v 1.3 3.5 -1
v 1.4 2 -0.2
v 1.4 2 -0.3
v 1.4 2 -0.8
v 1.4 2 -0.9
v 1.4 3.4 -0.2
v 1.4 3.4 -0.3
v 1.4 3.4 -0.8
v 1.4 3.4 -0.9
v 1.4 3.5 -0.2
v 1.4 3.5 -0.3
v 1.4 3.5 -0.8
v 1.4 3.5 -0.9
v 1.5 2 -0.3
v 1.5 2 -0.8
v 1.5 3.4 -0.3
v 1.5 3.4 -0.8
v 1.5 3.5 -0.3
v 1.5 3.5 -0.8
v 0.3 3.5 0
v 0.3 3.6 0
v 0.7 2 0
v 0.7 3.4 0
v 0.7 3.5 0
v 0.8 3.5 0
v 0.8 3.6 0
v 1.2 2 0
v 1.2 3.4 0
v 1.2 3.5 0
v 0.2 3.5 -0.1
v 0.2 3.6 -0.1
v 0.3 3.5 -0.1
v 0.3 3.6 -0.1
v 0.6 2 -0.1
v 0.6 3.4 -0.1
v 0.6 3.5 -0.1
v 0.7 2 -0.1
v 0.7 3.4 -0.1
v 0.7 3.5 -0.1
v 0.8 3.5 -0.1
v 0.8 3.6 -0.1
v 0.9 3.5 -0.1
v 0.9 3.6 -0.1
v 1.2 2 -0.1
v 1.2 3.4 -0.1
v 1.2 3.5 -0.1
v 1.3 2 -0.1
v 1.3 3.4 -0.1
v 1.3 3.5 -0.1
v 0.1 3.5 -0.2
v 0.1 3.6 -0.2
v 0.2 3.5 -0.2
v 0.2 3.6 -0.2
v 0.5 2 -0.2
v 0.5 3.4 -0.2
v 0.5 3.5 -0.2
v 0.6 2 -0.2
v 0.6 3.4 -0.2
v 0.6 3.5 -0.2
v 0.9 3.5 -0.2
v 0.9 3.6 -0.2
v 1 3.5 -0.2
v 1 3.6 -0.2
v 1.3 2 -0.2
v 1.3 3.4 -0.2
v 1.3 3.5 -0.2
v 1.4 2 -0.2
v 1.4 3.4 -0.2
v 1.4 3.5 -0.2
v 0 3.5 -0.3
v 0 3.6 -0.3
v 0.1 3.5 -0.3
v 0.1 3.6 -0.3
v 0.4 2 -0.3
v 0.4 3.4 -0.3
v 0.4 3.5 -0.3
v 0.5 2 -0.3
v 0.5 3.4 -0.3
v 0.5 3.5 -0.3
v 1 3.5 -0.3
v 1 3.6 -0.3
v 1.1 3.5 -0.3
v 1.1 3.6 -0.3
v 1.4 2 -0.3
v 1.4 3.4 -0.3
v 1.4 3.5 -0.3
v 1.5 2 -0.3
v 1.5 3.4 -0.3
v 1.5 3.5 -0.3
v 0.4 3.6 -0.5
v 0.4 3.7 -0.5
v 0.7 3.6 -0.5
v 0.7 3.7 -0.5
v 0.5 3.4 -0.8
v 0.5 3.5 -0.8
v 0.6 2.2 -0.8
v 0.6 3.4 -0.8
v 0.6 3.5 -0.8
v 0.7 2.2 -0.8
v 0.7 3.4 -0.8
v 1.2 2.3 -0.8
v 1.2 3.4 -0.8
v 1.3 2.3 -0.8
v 1.3 3.4 -0.8
v 1.3 3.5 -0.8
v 1.4 3.4 -0.8
v 1.4 3.5 -0.8
v 0.6 3.4 -0.9
v 0.6 3.5 -0.9
v 0.7 2.2 -0.9
v 0.7 3.4 -0.9
v 0.7 3.5 -0.9
v 1.2 2.2 -0.9
v 1.2 3.4 -0.9
v 1.2 3.5 -0.9
v 1.3 3.4 -0.9
v 1.3 3.5 -0.9
v 0.7 3.4 -1
v 0.7 3.5 -1
v 0.9 3.5 -1
v 1.2 3.4 -1
v 1.2 3.5 -1
v 0.7 3.4 -0.1
v 0.7 3.5 -0.1
v 0.9 3.5 -0.1
v 1.2 3.4 -0.1
v 1.2 3.5 -0.1
v 0.6 3.4 -0.2
v 0.6 3.5 -0.2
v 0.7 2.2 -0.2
v 0.7 3.4 -0.2
v 0.7 3.5 -0.2
v 1.2 2.2 -0.2
v 1.2 3.4 -0.2
v 1.2 3.5 -0.2
v 1.3 3.4 -0.2
v 1.3 3.5 -0.2
v 0.5 3.4 -0.3
v 0.5 3.5 -0.3
v 0.6 2.2 -0.3
v 0.6 3.4 -0.3
v 0.6 3.5 -0.3
v 0.7 2.2 -0.3
v 0.7 3.4 -0.3
v 1.2 2.3 -0.3
v 1.2 3.4 -0.3
v 1.3 2.3 -0.3
v 1.3 3.4 -0.3
v 1.3 3.5 -0.3
v 1.4 3.4 -0.3
v 1.4 3.5 -0.3
v 0.4 3.6 -0.6
v 0.4 3.7 -0.6
v 0.7 3.6 -0.6
v 0.7 3.7 -0.6
v 0 3.5 -0.8
v 0 3.6 -0.8
v 0.1 3.5 -0.8
v 0.1 3.6 -0.8
v 0.4 2 -0.8
v 0.4 3.4 -0.8
v 0.4 3.5 -0.8
v 0.5 2 -0.8
v 0.5 3.4 -0.8
v 0.5 3.5 -0.8
v 1 3.5 -0.8
v 1 3.6 -0.8
v 1.1 3.5 -0.8
v 1.1 3.6 -0.8
v 1.4 2 -0.8
v 1.4 3.4 -0.8
v 1.4 3.5 -0.8
v 1.5 2 -0.8
v 1.5 3.4 -0.8
v 1.5 3.5 -0.8
v 0.1 3.5 -0.9
v 0.1 3.6 -0.9
v 0.2 3.5 -0.9
v 0.2 3.6 -0.9
v 0.5 2 -0.9
v 0.5 3.4 -0.9
v 0.5 3.5 -0.9
v 0.6 2 -0.9
v 0.6 3.4 -0.9
v 0.6 3.5 -0.9
v 0.9 3.5 -0.9
v 0.9 3.6 -0.9
v 1 3.5 -0.9
v 1 3.6 -0.9
v 1.3 2 -0.9
v 1.3 3.4 -0.9
v 1.3 3.5 -0.9
v 1.4 2 -0.9
v 1.4 3.4 -0.9
v 1.4 3.5 -0.9
v 0.2 3.5 -1
v 0.2 3.6 -1
v 0.3 3.5 -1
v 0.3 3.6 -1
v 0.6 2 -1
v 0.6 3.4 -1
v 0.6 3.5 -1
v 0.7 2 -1
v 0.7 3.4 -1
v 0.7 3.5 -1
v 0.8 3.5 -1
v 0.8 3.6 -1
v 0.9 3.5 -1
v 0.9 3.6 -1
v 1.2 2 -1
v 1.2 3.4 -1
v 1.2 3.5 -1
v 1.3 2 -1
v 1.3 3.4 -1
v 1.3 3.5 -1
v 0.3 3.5 -1.1
v 0.3 3.6 -1.1
v 0.7 2 -1.1
v 0.7 3.4 -1.1
v 0.7 3.5 -1.1
v 0.8 3.5 -1.1
v 0.8 3.6 -1.1
v 1.2 2 -1.1
v 1.2 3.4 -1.1
v 1.2 3.5 -1.1
v 0.7 2 0
v 1.2 2 0
v 0.6 2 -0.1
v 0.7 2 -0.1
v 1.2 2 -0.1
v 1.3 2 -0.1
v 0.5 2 -0.2
v 0.6 2 -0.2
v 1.3 2 -0.2
v 1.4 2 -0.2
v 0.4 2 -0.3
v 0.5 2 -0.3
v 1.4 2 -0.3
v 1.5 2 -0.3
v 0.4 2 -0.8
v 0.5 2 -0.8
v 1.4 2 -0.8
v 1.5 2 -0.8
v 0.5 2 -0.9
v 0.6 2 -0.9
v 1.3 2 -0.9
v 1.4 2 -0.9
v 0.6 2 -1
v 0.7 2 -1
v 1.2 2 -1
v 1.3 2 -1
v 0.7 2 -1.1
v 1.2 2 -1.1
v 0.3 3.5 0
v 0.7 3.5 0
v 0.2 3.5 -0.1
v 0.3 3.5 -0.1
v 0.6 3.5 -0.1
v 0.7 3.5 -0.1
v 0.9 3.5 -0.1
v 0.1 3.5 -0.2
v 0.2 3.5 -0.2
v 0.5 3.5 -0.2
v 0.6 3.5 -0.2
v 0.7 3.5 -0.2
v 0.9 3.5 -0.2
v 1 3.5 -0.2
v 0 3.5 -0.3
v 0.1 3.5 -0.3
v 0.4 3.5 -0.3
v 0.5 3.5 -0.3
v 0.6 3.5 -0.3
v 1 3.5 -0.3
v 1.1 3.5 -0.3
v 0 3.5 -0.8
v 0.1 3.5 -0.8
v 0.4 3.5 -0.8
v 0.5 3.5 -0.8
v 0.6 3.5 -0.8
v 1 3.5 -0.8
v 1.1 3.5 -0.8
v 0.1 3.5 -0.9
v 0.2 3.5 -0.9
v 0.5 3.5 -0.9
v 0.6 3.5 -0.9
v 0.7 3.5 -0.9
v 0.9 3.5 -0.9
v 1 3.5 -0.9
v 0.2 3.5 -1
v 0.3 3.5 -1
v 0.6 3.5 -1
v 0.7 3.5 -1
v 0.9 3.5 -1
v 0.3 3.5 -1.1
v 0.7 3.5 -1.1
v 0.7 2.2 -0.2
v 1.2 2.2 -0.2
v 0.6 2.2 -0.3
v 0.7 2.2 -0.3
v 0.6 2.2 -0.8
v 0.7 2.2 -0.8
v 0.7 2.2 -0.9
v 1.2 2.2 -0.9
v 1.2 2.3 -0.3
v 1.3 2.3 -0.3
v 1.2 2.3 -0.8
v 1.3 2.3 -0.8
v 0.7 3.4 -0.1
v 1.2 3.4 -0.1
v 0.6 3.4 -0.2
v 0.7 3.4 -0.2
v 1.2 3.4 -0.2
v 1.3 3.4 -0.2
v 0.5 3.4 -0.3
v 0.6 3.4 -0.3
v 0.7 3.4 -0.3
v 1.2 3.4 -0.3
v 1.3 3.4 -0.3
v 1.4 3.4 -0.3
v 0.5 3.4 -0.8
v 0.6 3.4 -0.8
v 0.7 3.4 -0.8
v 1.2 3.4 -0.8
v 1.3 3.4 -0.8
v 1.4 3.4 -0.8
v 0.6 3.4 -0.9
v 0.7 3.4 -0.9
v 1.2 3.4 -0.9
v 1.3 3.4 -0.9
v 0.7 3.4 -1
v 1.2 3.4 -1
v 0.8 3.5 0
v 1.2 3.5 0
v 0.8 3.5 -0.1
v 0.9 3.5 -0.1
v 1.2 3.5 -0.1
v 1.3 3.5 -0.1
v 1.2 3.5 -0.2
v 1.3 3.5 -0.2
v 1.4 3.5 -0.2
v 1.3 3.5 -0.3
v 1.4 3.5 -0.3
v 1.5 3.5 -0.3
v 1.3 3.5 -0.8
v 1.4 3.5 -0.8
v 1.5 3.5 -0.8
v 1.2 3.5 -0.9
v 1.3 3.5 -0.9
v 1.4 3.5 -0.9
v 0.8 3.5 -1
v 0.9 3.5 -1
v 1.2 3.5 -1
v 1.3 3.5 -1
v 0.8 3.5 -1.1
v 1.2 3.5 -1.1
v 0.3 3.6 0
v 0.8 3.6 0
v 0.2 3.6 -0.1
v 0.3 3.6 -0.1
v 0.8 3.6 -0.1
v 0.9 3.6 -0.1
v 0.1 3.6 -0.2
v 0.2 3.6 -0.2
v 0.9 3.6 -0.2
v 1 3.6 -0.2
v 0 3.6 -0.3
v 0.1 3.6 -0.3
v 1 3.6 -0.3
v 1.1 3.6 -0.3
v 0.4 3.6 -0.5
v 0.7 3.6 -0.5
v 0.4 3.6 -0.6
v 0.7 3.6 -0.6
v 0 3.6 -0.8
v 0.1 3.6 -0.8
v 1 3.6 -0.8
v 1.1 3.6 -0.8
v 0.1 3.6 -0.9
v 0.2 3.6 -0.9
v 0.9 3.6 -0.9
v 1 3.6 -0.9
v 0.2 3.6 -1
v 0.3 3.6 -1
v 0.8 3.6 -1
v 0.9 3.6 -1
v 0.3 3.6 -1.1
v 0.8 3.6 -1.1
v 0.4 3.7 -0.5
v 0.7 3.7 -0.5
v 0.4 3.7 -0.6
v 0.7 3.7 -0.6

# faces
f 3/1/1 2/1/1 1/1/1
f 4/1/1 2/1/1 3/1/1
f 9/1/1 6/1/1 5/1/1
f 10/1/1 6/1/1 9/1/1
f 11/1/1 8/1/1 7/1/1
f 12/1/1 8/1/1 11/1/1
f 17/1/1 14/1/1 13/1/1
f 18/1/1 14/1/1 17/1/1
f 19/1/1 16/1/1 15/1/1
f 20/1/1 16/1/1 19/1/1
f 25/1/1 22/1/1 21/1/1
f 26/1/1 22/1/1 25/1/1
f 27/1/1 24/1/1 23/1/1
f 28/1/1 24/1/1 27/1/1
f 31/1/1 30/1/1 29/1/1
f 32/1/1 30/1/1 31/1/1
f 33/2/1 32/2/1 31/2/1
f 34/2/1 32/2/1 33/2/1
f 37/2/1 36/2/1 35/2/1
f 38/2/1 36/2/1 37/2/1
f 43/1/1 40/1/1 39/1/1
f 44/1/1 40/1/1 43/1/1
f 45/1/1 42/1/1 41/1/1
f 46/1/1 42/1/1 45/1/1
f 47/2/1 44/2/1 43/2/1
f 48/2/1 44/2/1 47/2/1
f 49/2/1 46/2/1 45/2/1
f 50/2/1 46/2/1 49/2/1
f 55/1/1 52/1/1 51/1/1
f 56/1/1 52/1/1 55/1/1
f 57/1/1 54/1/1 53/1/1
f 58/1/1 54/1/1 57/1/1
f 59/2/1 56/2/1 55/2/1
f 60/2/1 56/2/1 59/2/1
f 61/2/1 58/2/1 57/2/1
f 62/2/1 58/2/1 61/2/1
f 67/1/1 64/1/1 63/1/1
f 68/1/1 64/1/1 67/1/1
f 69/1/1 66/1/1 65/1/1
f 70/1/1 66/1/1 69/1/1
f 71/2/1 68/2/1 67/2/1
f 72/2/1 68/2/1 71/2/1
f 73/2/1 70/2/1 69/2/1
f 74/2/1 70/2/1 73/2/1
f 77/2/1 76/2/1 75/2/1
f 78/2/1 76/2/1 77/2/1
f 80/2/1 77/2/1 75/2/1
f 81/2/1 77/2/1 80/2/1
f 82/2/1 76/2/1 78/2/1
f 83/2/1 76/2/1 82/2/1
f 85/2/1 80/2/1 79/2/1
f 86/2/1 80/2/1 85/2/1
f 87/2/1 84/2/1 83/2/1
f 88/2/1 84/2/1 87/2/1
f 92/2/1 90/2/1 89/2/1
f 93/2/1 90/2/1 92/2/1
f 95/2/1 92/2/1 91/2/1
f 96/2/1 92/2/1 95/2/1
f 97/2/1 94/2/1 93/2/1
f 98/2/1 94/2/1 97/2/1
f 101/2/1 100/2/1 99/2/1
f 102/2/1 100/2/1 101/2/1
f 103/2/2 104/2/2 105/2/2
f 105/2/2 104/2/2 106/2/2
f 107/2/2 108/2/2 110/2/2
f 110/2/2 108/2/2 111/2/2
f 109/2/2 110/2/2 113/2/2
f 113/2/2 110/2/2 114/2/2
f 111/2/2 112/2/2 115/2/2
f 115/2/2 112/2/2 116/2/2
f 117/2/2 118/2/2 122/2/2
f 122/2/2 118/2/2 123/2/2
f 119/2/2 120/2/2 124/2/2
f 124/2/2 120/2/2 125/2/2
f 121/2/2 122/2/2 127/2/2
f 127/2/2 122/2/2 128/2/2
f 125/2/2 126/2/2 129/2/2
f 129/2/2 126/2/2 130/2/2
f 131/2/2 132/2/2 133/2/2
f 133/2/2 132/2/2 134/2/2
f 135/1/2 136/1/2 139/1/2
f 139/1/2 136/1/2 140/1/2
f 137/1/2 138/1/2 141/1/2
f 141/1/2 138/1/2 142/1/2
f 143/1/2 144/1/2 147/1/2
f 147/1/2 144/1/2 148/1/2
f 145/1/2 146/1/2 149/1/2
f 149/1/2 146/1/2 150/1/2
f 151/1/2 152/1/2 155/1/2
f 155/1/2 152/1/2 156/1/2
f 153/1/2 154/1/2 157/1/2
f 157/1/2 154/1/2 158/1/2
f 159/1/2 160/1/2 161/1/2
f 161/1/2 160/1/2 162/1/2
f 163/1/2 164/1/2 167/1/2
f 167/1/2 164/1/2 168/1/2
f 165/1/2 166/1/2 169/1/2
f 169/1/2 166/1/2 170/1/2
f 167/2/2 168/2/2 171/2/2
f 171/2/2 168/2/2 172/2/2
f 169/2/2 170/2/2 173/2/2
f 173/2/2 170/2/2 174/2/2
f 175/1/2 176/1/2 179/1/2
f 179/1/2 176/1/2 180/1/2
f 177/1/2 178/1/2 181/1/2
f 181/1/2 178/1/2 182/1/2
f 179/2/2 180/2/2 183/2/2
f 183/2/2 180/2/2 184/2/2
f 181/2/2 182/2/2 185/2/2
f 185/2/2 182/2/2 186/2/2
f 187/1/2 188/1/2 191/1/2
f 191/1/2 188/1/2 192/1/2
f 189/1/2 190/1/2 193/1/2
f 193/1/2 190/1/2 194/1/2
f 191/2/2 192/2/2 195/2/2
f 195/2/2 192/2/2 196/2/2
f 193/2/2 194/2/2 197/2/2
f 197/2/2 194/2/2 198/2/2
f 199/1/2 200/1/2 201/1/2
f 201/1/2 200/1/2 202/1/2
f 201/2/2 202/2/2 203/2/2
f 203/2/2 202/2/2 204/2/2
f 209/1/3 206/1/3 205/1/3
f 210/1/3 206/1/3 209/1/3
f 210/2/3 209/2/3 208/2/3
f 211/1/3 206/1/3 210/1/3
f 212/1/3 208/1/3 207/1/3
f 213/2/3 210/2/3 208/2/3
f 213/1/3 208/1/3 212/1/3
f 214/2/3 210/2/3 213/2/3
f 217/1/3 216/1/3 215/1/3
f 218/1/3 216/1/3 217/1/3
f 222/1/3 220/1/3 219/1/3
f 223/2/3 221/2/3 220/2/3
f 223/1/3 220/1/3 222/1/3
f 224/2/3 221/2/3 223/2/3
f 227/1/3 226/1/3 225/1/3
f 228/1/3 226/1/3 227/1/3
f 232/1/3 230/1/3 229/1/3
f 233/2/3 231/2/3 230/2/3
f 233/1/3 230/1/3 232/1/3
f 234/2/3 231/2/3 233/2/3
f 237/1/3 236/1/3 235/1/3
f 238/1/3 236/1/3 237/1/3
f 242/1/3 240/1/3 239/1/3
f 243/2/3 241/2/3 240/2/3
f 243/1/3 240/1/3 242/1/3
f 244/2/3 241/2/3 243/2/3
f 247/1/3 246/1/3 245/1/3
f 248/1/3 246/1/3 247/1/3
f 252/1/3 250/1/3 249/1/3
f 253/2/3 251/2/3 250/2/3
f 253/1/3 250/1/3 252/1/3
f 254/2/3 251/2/3 253/2/3
f 257/1/3 256/1/3 255/1/3
f 258/1/3 256/1/3 257/1/3
f 262/1/3 260/1/3 259/1/3
f 263/2/3 261/2/3 260/2/3
f 263/1/3 260/1/3 262/1/3
f 264/2/3 261/2/3 263/2/3
f 267/1/3 266/1/3 265/1/3
f 268/1/3 266/1/3 267/1/3
f 272/1/3 270/1/3 269/1/3
f 273/2/3 271/2/3 270/2/3
f 273/1/3 270/1/3 272/1/3
f 274/2/3 271/2/3 273/2/3
f 277/2/3 276/2/3 275/2/3
f 278/2/3 276/2/3 277/2/3
f 282/2/3 280/2/3 279/2/3
f 283/2/3 280/2/3 282/2/3
f 284/2/3 282/2/3 281/2/3
f 285/2/3 282/2/3 284/2/3
f 288/2/3 287/2/3 286/2/3
f 289/2/3 287/2/3 288/2/3
f 291/2/3 290/2/3 289/2/3
f 292/2/3 290/2/3 291/2/3
f 296/2/3 294/2/3 293/2/3
f 297/2/3 294/2/3 296/2/3
f 298/2/3 296/2/3 295/2/3
f 299/2/3 296/2/3 298/2/3
f 301/2/3 300/2/3 299/2/3
f 302/2/3 300/2/3 301/2/3
f 305/2/3 304/2/3 303/2/3
f 306/2/3 305/2/3 303/2/3
f 307/2/3 305/2/3 306/2/3
f 308/2/4 309/2/4 310/2/4
f 308/2/4 310/2/4 311/2/4
f 311/2/4 310/2/4 312/2/4
f 313/2/4 314/2/4 316/2/4
f 316/2/4 314/2/4 317/2/4
f 315/2/4 316/2/4 318/2/4
f 318/2/4 316/2/4 319/2/4
f 319/2/4 320/2/4 321/2/4
f 321/2/4 320/2/4 322/2/4
f 323/2/4 324/2/4 326/2/4
f 326/2/4 324/2/4 327/2/4
f 325/2/4 326/2/4 328/2/4
f 328/2/4 326/2/4 329/2/4
f 330/2/4 331/2/4 332/2/4
f 332/2/4 331/2/4 333/2/4
f 333/2/4 334/2/4 335/2/4
f 335/2/4 334/2/4 336/2/4
f 337/2/4 338/2/4 339/2/4
f 339/2/4 338/2/4 340/2/4
f 341/1/4 342/1/4 343/1/4
f 343/1/4 342/1/4 344/1/4
f 345/1/4 346/1/4 348/1/4
f 346/2/4 347/2/4 349/2/4
f 348/1/4 346/1/4 349/1/4
f 349/2/4 347/2/4 350/2/4
f 351/1/4 352/1/4 353/1/4
f 353/1/4 352/1/4 354/1/4
f 355/1/4 356/1/4 358/1/4
f 356/2/4 357/2/4 359/2/4
f 358/1/4 356/1/4 359/1/4
f 359/2/4 357/2/4 360/2/4
f 361/1/4 362/1/4 363/1/4
f 363/1/4 362/1/4 364/1/4
f 365/1/4 366/1/4 368/1/4
f 366/2/4 367/2/4 369/2/4
f 368/1/4 366/1/4 369/1/4
f 369/2/4 367/2/4 370/2/4
f 371/1/4 372/1/4 373/1/4
f 373/1/4 372/1/4 374/1/4
f 375/1/4 376/1/4 378/1/4
f 376/2/4 377/2/4 379/2/4
f 378/1/4 376/1/4 379/1/4
f 379/2/4 377/2/4 380/2/4
f 381/1/4 382/1/4 383/1/4
f 383/1/4 382/1/4 384/1/4
f 385/1/4 386/1/4 388/1/4
f 386/2/4 387/2/4 389/2/4
f 388/1/4 386/1/4 389/1/4
f 389/2/4 387/2/4 390/2/4
f 391/1/4 392/1/4 393/1/4
f 393/1/4 392/1/4 394/1/4
f 395/1/4 396/1/4 398/1/4
f 396/2/4 397/2/4 399/2/4
f 398/1/4 396/1/4 399/1/4
f 399/2/4 397/2/4 400/2/4
f 401/1/4 402/1/4 405/1/4
f 405/1/4 402/1/4 406/1/4
f 404/2/4 405/2/4 406/2/4
f 406/1/4 402/1/4 407/1/4
f 403/1/4 404/1/4 408/1/4
f 404/2/4 406/2/4 409/2/4
f 408/1/4 404/1/4 409/1/4
f 409/2/4 406/2/4 410/2/4
f 414/1/5 412/1/5 411/1/5
f 415/1/5 412/1/5 414/1/5
f 418/1/5 414/1/5 413/1/5
f 418/1/5 416/1/5 415/1/5
f 418/1/5 415/1/5 414/1/5
f 419/1/5 416/1/5 418/1/5
f 422/1/5 418/1/5 417/1/5
f 422/1/5 420/1/5 419/1/5
f 422/1/5 419/1/5 418/1/5
f 423/1/5 420/1/5 422/1/5
f 425/1/5 422/1/5 421/1/5
f 425/1/5 424/1/5 423/1/5
f 425/1/5 423/1/5 422/1/5
f 426/1/5 424/1/5 425/1/5
f 427/1/5 424/1/5 426/1/5
f 428/1/5 424/1/5 427/1/5
f 429/1/5 427/1/5 426/1/5
f 430/1/5 427/1/5 429/1/5
f 431/1/5 427/1/5 430/1/5
f 432/1/5 427/1/5 431/1/5
f 433/1/5 431/1/5 430/1/5
f 434/1/5 431/1/5 433/1/5
f 435/1/5 431/1/5 434/1/5
f 436/1/5 431/1/5 435/1/5
f 437/1/5 435/1/5 434/1/5
f 438/1/5 435/1/5 437/1/5
f 442/1/5 440/1/5 439/1/5
f 443/1/5 440/1/5 442/1/5
f 444/1/5 440/1/5 443/1/5
f 447/1/5 442/1/5 441/1/5
f 447/1/5 443/1/5 442/1/5
f 448/1/5 443/1/5 447/1/5
f 449/1/5 443/1/5 448/1/5
f 450/1/5 445/1/5 444/1/5
f 451/1/5 445/1/5 450/1/5
f 454/1/5 447/1/5 446/1/5
f 454/1/5 448/1/5 447/1/5
f 455/1/5 448/1/5 454/1/5
f 456/1/5 448/1/5 455/1/5
f 457/1/5 452/1/5 451/1/5
f 457/1/5 451/1/5 450/1/5
f 457/1/5 450/1/5 449/1/5
f 458/1/5 452/1/5 457/1/5
f 460/1/5 455/1/5 454/1/5
f 460/1/5 454/1/5 453/1/5
f 461/1/5 455/1/5 460/1/5
f 462/1/5 455/1/5 461/1/5
f 463/1/5 459/1/5 458/1/5
f 463/1/5 458/1/5 457/1/5
f 463/1/5 457/1/5 456/1/5
f 464/1/5 459/1/5 463/1/5
f 465/1/5 459/1/5 464/1/5
f 466/1/5 459/1/5 465/1/5
f 467/1/5 462/1/5 461/1/5
f 467/1/5 463/1/5 462/1/5
f 468/1/5 463/1/5 467/1/5
f 469/1/5 463/1/5 468/1/5
f 470/1/5 465/1/5 464/1/5
f 471/1/5 465/1/5 470/1/5
f 472/1/5 465/1/5 471/1/5
f 473/1/5 465/1/5 472/1/5
f 474/1/5 469/1/5 468/1/5
f 474/1/5 470/1/5 469/1/5
f 475/1/5 470/1/5 474/1/5
f 476/1/5 470/1/5 475/1/5
f 477/1/5 472/1/5 471/1/5
f 478/1/5 472/1/5 477/1/5
f 479/1/5 476/1/5 475/1/5
f 479/1/5 477/1/5 476/1/5
f 480/1/5 477/1/5 479/1/5
f 481/2/6 482/2/6 484/2/6
f 483/2/6 484/2/6 485/2/6
f 484/2/6 482/2/6 486/2/6
f 485/2/6 484/2/6 486/2/6
f 486/2/6 482/2/6 487/2/6
f 487/2/6 482/2/6 488/2/6
f 489/2/6 490/2/6 491/2/6
f 491/2/6 490/2/6 492/2/6
f 493/2/6 494/2/6 496/2/6
f 496/2/6 494/2/6 497/2/6
f 495/2/6 496/2/6 500/2/6
f 500/2/6 496/2/6 501/2/6
f 497/2/6 498/2/6 502/2/6
f 502/2/6 498/2/6 503/2/6
f 499/2/6 500/2/6 505/2/6
f 505/2/6 500/2/6 506/2/6
f 503/2/6 504/2/6 509/2/6
f 509/2/6 504/2/6 510/2/6
f 506/2/6 507/2/6 511/2/6
f 511/2/6 507/2/6 512/2/6
f 508/2/6 509/2/6 513/2/6
f 513/2/6 509/2/6 514/2/6
f 512/2/6 513/2/6 515/2/6
f 515/2/6 513/2/6 516/2/6
f 517/2/6 518/2/6 519/2/6
f 519/2/6 518/2/6 520/2/6
f 520/2/6 518/2/6 521/2/6
f 521/2/6 522/2/6 523/2/6
f 523/2/6 522/2/6 524/2/6
f 524/2/6 525/2/6 526/2/6
f 526/2/6 525/2/6 527/2/6
f 527/2/6 528/2/6 530/2/6
f 530/2/6 528/2/6 531/2/6
f 529/2/6 530/2/6 533/2/6
f 533/2/6 530/2/6 534/2/6
f 532/2/6 533/2/6 537/2/6
f 537/2/6 533/2/6 538/2/6
f 535/2/6 536/2/6 539/2/6
f 536/2/6 537/2/6 539/2/6
f 539/2/6 537/2/6 540/2/6
f 541/1/6 542/1/6 544/1/6
f 544/1/6 542/1/6 545/1/6
f 543/1/6 544/1/6 548/1/6
f 545/1/6 546/1/6 548/1/6
f 544/1/6 545/1/6 548/1/6
f 548/1/6 546/1/6 549/1/6
f 547/1/6 548/1/6 552/1/6
f 549/1/6 550/1/6 552/1/6
f 548/1/6 549/1/6 552/1/6
f 552/1/6 550/1/6 553/1/6
f 551/1/6 552/1/6 555/1/6
f 553/1/6 554/1/6 555/1/6
f 552/1/6 553/1/6 555/1/6
f 555/1/6 554/1/6 556/1/6
f 551/1/6 555/1/6 557/1/6
f 556/1/6 554/1/6 558/1/6
f 551/1/6 557/1/6 559/1/6
f 557/1/6 558/1/6 559/1/6
f 559/1/6 558/1/6 560/1/6
f 558/1/6 554/1/6 561/1/6
f 560/1/6 558/1/6 561/1/6
f 561/1/6 554/1/6 562/1/6
f 560/1/6 561/1/6 563/1/6
f 563/1/6 561/1/6 564/1/6
f 564/1/6 561/1/6 565/1/6
f 565/1/6 561/1/6 566/1/6
f 564/1/6 565/1/6 567/1/6
f 567/1/6 565/1/6 568/1/6
f 568/1/6 565/1/6 569/1/6
f 569/1/6 565/1/6 570/1/6
f 568/1/6 569/1/6 571/1/6
f 571/1/6 569/1/6 572/1/6
f 573/2/6 574/2/6 575/2/6
f 575/2/6 574/2/6 576/2/6
