# MagicaVoxel @ Ephtracy

# group
o 

# material
mtllib rat_run_2.mtl
usemtl palette

# normals
vn -1 0 0
vn 1 0 0
vn 0 0 1
vn 0 0 -1
vn 0 -1 0
vn 0 1 0

# texcoords
vt 0.0292969 0.5
vt 0.982422 0.5
vt 0.994141 0.5

# verts
v 0 2 -0.9
v 0 2 -1.3
v 0 2 -1.5
v 0 2.1 0
v 0 2.1 -0.2
v 0 2.1 -0.6
v 0 2.1 -1.1
v 0 2.1 -1.3
v 0 2.1 -1.5
v 0 2.2 0
v 0 2.2 -0.2
v 0 2.2 -0.4
v 0 2.3 -0.4
v 0 2.3 -0.6
v 0 2.3 -0.9
v 0 2.3 -1.1
v 0 2.4 -0.2
v 0 2.4 -0.3
v 0 2.5 -0.2
v 0 2.5 -0.3
v 0 2.5 -0.4
v 0 2.7 -0.3
v 0 2.7 -0.4
v 0.1 2.2 -0.3
v 0.1 2.2 -0.4
v 0.1 2.2 -0.6
v 0.1 2.2 -0.9
v 0.1 2.3 -0.1
v 0.1 2.3 -0.3
v 0.1 2.3 -0.4
v 0.1 2.3 -0.6
v 0.1 2.3 -0.9
v 0.1 2.3 -1.1
v 0.1 2.4 -0.2
v 0.1 2.4 -0.3
v 0.1 2.5 -0.1
v 0.1 2.5 -0.2
v 0.1 2.5 -0.3
v 0.1 2.5 -0.4
v 0.1 2.5 -1.1
v 0.1 2.6 -0.2
v 0.1 2.6 -0.3
v 0.2 2.1 -1.6
v 0.2 2.1 -1.7
v 0.2 2.2 -0.2
v 0.2 2.2 -0.3
v 0.2 2.2 -1.4
v 0.2 2.2 -1.6
v 0.2 2.2 -1.7
v 0.2 2.3 0
v 0.2 2.3 -0.1
v 0.2 2.3 -0.2
v 0.2 2.3 -0.3
v 0.2 2.3 -1.1
v 0.2 2.3 -1.2
v 0.2 2.3 -1.4
v 0.2 2.3 -1.6
v 0.2 2.4 0
v 0.2 2.4 -0.1
v 0.2 2.4 -1.1
v 0.2 2.4 -1.2
v 0.2 2.4 -1.4
v 0.3 2.3 -0.4
v 0.3 2.3 -0.6
v 0.3 2.3 -0.7
v 0.3 2.3 -0.8
v 0.3 2.3 -1
v 0.3 2.3 -1.1
v 0.3 2.4 -0.4
v 0.3 2.4 -0.6
v 0.3 2.4 -0.7
v 0.3 2.4 -0.8
v 0.3 2.4 -1
v 0.3 2.4 -1.1
v 0.4 2 -0.9
v 0.4 2 -1.3
v 0.4 2 -1.5
v 0.4 2.1 0
v 0.4 2.1 -0.2
v 0.4 2.1 -0.6
v 0.4 2.1 -1.1
v 0.4 2.1 -1.3
v 0.4 2.1 -1.5
v 0.4 2.2 0
v 0.4 2.2 -0.2
v 0.4 2.2 -0.3
v 0.4 2.2 -0.6
v 0.4 2.2 -0.9
v 0.4 2.2 -1.1
v 0.4 2.6 -0.3
v 0.4 2.6 -0.4
v 0.4 2.7 -0.3
v 0.4 2.7 -0.4
v 0.1 2 -0.9
v 0.1 2 -1.3
v 0.1 2 -1.5
v 0.1 2.1 0
v 0.1 2.1 -0.2
v 0.1 2.1 -0.6
v 0.1 2.1 -1.1
v 0.1 2.1 -1.3
v 0.1 2.1 -1.5
v 0.1 2.2 0
v 0.1 2.2 -0.2
v 0.1 2.2 -0.3
v 0.1 2.2 -0.6
v 0.1 2.2 -0.9
v 0.1 2.2 -1.1
v 0.1 2.6 -0.3
v 0.1 2.6 -0.4
v 0.1 2.7 -0.3
v 0.1 2.7 -0.4
v 0.2 2.3 -0.4
v 0.2 2.3 -0.6
v 0.2 2.3 -0.7
v 0.2 2.3 -0.8
v 0.2 2.3 -1
v 0.2 2.3 -1.1
v 0.2 2.4 -0.4
v 0.2 2.4 -0.6
v 0.2 2.4 -0.7
v 0.2 2.4 -0.8
v 0.2 2.4 -1
v 0.2 2.4 -1.1
v 0.3 2.1 -1.6
v 0.3 2.1 -1.7
v 0.3 2.2 -0.2
v 0.3 2.2 -0.3
v 0.3 2.2 -1.4
v 0.3 2.2 -1.6
v 0.3 2.2 -1.7
v 0.3 2.3 0
v 0.3 2.3 -0.1
v 0.3 2.3 -0.2
v 0.3 2.3 -0.3
v 0.3 2.3 -1.1
v 0.3 2.3 -1.2
v 0.3 2.3 -1.4
v 0.3 2.3 -1.6
v 0.3 2.4 0
v 0.3 2.4 -0.1
v 0.3 2.4 -1.1
v 0.3 2.4 -1.2
v 0.3 2.4 -1.4
v 0.4 2.2 -0.3
v 0.4 2.2 -0.4
v 0.4 2.2 -0.6
v 0.4 2.2 -0.9
v 0.4 2.3 -0.1
v 0.4 2.3 -0.3
v 0.4 2.3 -0.4
v 0.4 2.3 -0.6
v 0.4 2.3 -0.9
v 0.4 2.3 -1.1
v 0.4 2.4 -0.2
v 0.4 2.4 -0.3
v 0.4 2.5 -0.1
v 0.4 2.5 -0.2
v 0.4 2.5 -0.3
v 0.4 2.5 -0.4
v 0.4 2.5 -1.1
v 0.4 2.6 -0.2
v 0.4 2.6 -0.3
v 0.5 2 -0.9
v 0.5 2 -1.3
v 0.5 2 -1.5
v 0.5 2.1 0
v 0.5 2.1 -0.2
v 0.5 2.1 -0.6
v 0.5 2.1 -1.1
v 0.5 2.1 -1.3
v 0.5 2.1 -1.5
v 0.5 2.2 0
v 0.5 2.2 -0.2
v 0.5 2.2 -0.4
v 0.5 2.3 -0.4
v 0.5 2.3 -0.6
v 0.5 2.3 -0.9
v 0.5 2.3 -1.1
v 0.5 2.4 -0.2
v 0.5 2.4 -0.3
v 0.5 2.5 -0.2
v 0.5 2.5 -0.3
v 0.5 2.5 -0.4
v 0.5 2.7 -0.3
v 0.5 2.7 -0.4
v 0 2.1 0
v 0 2.2 0
v 0.1 2.1 0
v 0.1 2.2 0
v 0.2 2.3 0
v 0.2 2.4 0
v 0.3 2.3 0
v 0.3 2.4 0
v 0.4 2.1 0
v 0.4 2.2 0
v 0.5 2.1 0
v 0.5 2.2 0
v 0.1 2.3 -0.1
v 0.1 2.5 -0.1
v 0.2 2.3 -0.1
v 0.2 2.4 -0.1
v 0.3 2.3 -0.1
v 0.3 2.4 -0.1
v 0.4 2.3 -0.1
v 0.4 2.5 -0.1
v 0 2.4 -0.2
v 0 2.5 -0.2
v 0.1 2.4 -0.2
v 0.1 2.5 -0.2
v 0.1 2.6 -0.2
v 0.2 2.2 -0.2
v 0.2 2.3 -0.2
v 0.3 2.2 -0.2
v 0.3 2.3 -0.2
v 0.4 2.4 -0.2
v 0.4 2.5 -0.2
v 0.4 2.6 -0.2
v 0.5 2.4 -0.2
v 0.5 2.5 -0.2
v 0 2.5 -0.3
v 0 2.7 -0.3
v 0.1 2.2 -0.3
v 0.1 2.3 -0.3
v 0.1 2.5 -0.3
v 0.1 2.6 -0.3
v 0.1 2.7 -0.3
v 0.2 2.2 -0.3
v 0.2 2.3 -0.3
v 0.3 2.2 -0.3
v 0.3 2.3 -0.3
v 0.4 2.2 -0.3
v 0.4 2.3 -0.3
v 0.4 2.5 -0.3
v 0.4 2.6 -0.3
v 0.4 2.7 -0.3
v 0.5 2.5 -0.3
v 0.5 2.7 -0.3
v 0 2.2 -0.4
v 0 2.3 -0.4
v 0.1 2.2 -0.4
v 0.1 2.3 -0.4
v 0.4 2.2 -0.4
v 0.4 2.3 -0.4
v 0.5 2.2 -0.4
v 0.5 2.3 -0.4
v 0.2 2.3 -0.6
v 0.2 2.4 -0.6
v 0.3 2.3 -0.6
v 0.3 2.4 -0.6
v 0.2 2.3 -0.8
v 0.2 2.4 -0.8
v 0.3 2.3 -0.8
v 0.3 2.4 -0.8
v 0 2 -0.9
v 0 2.3 -0.9
v 0.1 2 -0.9
v 0.1 2.2 -0.9
v 0.1 2.3 -0.9
v 0.4 2 -0.9
v 0.4 2.2 -0.9
v 0.4 2.3 -0.9
v 0.5 2 -0.9
v 0.5 2.3 -0.9
v 0.2 2.3 -1.1
v 0.2 2.4 -1.1
v 0.3 2.3 -1.1
v 0.3 2.4 -1.1
v 0.2 2.2 -1.4
v 0.2 2.3 -1.4
v 0.3 2.2 -1.4
v 0.3 2.3 -1.4
v 0.2 2.1 -1.6
v 0.2 2.2 -1.6
v 0.3 2.1 -1.6
v 0.3 2.2 -1.6
v 0 2.4 -0.3
v 0 2.5 -0.3
v 0.1 2.4 -0.3
v 0.1 2.5 -0.3
v 0.4 2.4 -0.3
v 0.4 2.5 -0.3
v 0.5 2.4 -0.3
v 0.5 2.5 -0.3
v 0 2.5 -0.4
v 0 2.7 -0.4
v 0.1 2.5 -0.4
v 0.1 2.6 -0.4
v 0.1 2.7 -0.4
v 0.2 2.3 -0.4
v 0.2 2.4 -0.4
v 0.3 2.3 -0.4
v 0.3 2.4 -0.4
v 0.4 2.5 -0.4
v 0.4 2.6 -0.4
v 0.4 2.7 -0.4
v 0.5 2.5 -0.4
v 0.5 2.7 -0.4
v 0 2.1 -0.6
v 0 2.3 -0.6
v 0.1 2.1 -0.6
v 0.1 2.2 -0.6
v 0.1 2.3 -0.6
v 0.4 2.1 -0.6
v 0.4 2.2 -0.6
v 0.4 2.3 -0.6
v 0.5 2.1 -0.6
v 0.5 2.3 -0.6
v 0.2 2.3 -0.7
v 0.2 2.4 -0.7
v 0.3 2.3 -0.7
v 0.3 2.4 -0.7
v 0.2 2.3 -1
v 0.2 2.4 -1
v 0.3 2.3 -1
v 0.3 2.4 -1
v 0 2.1 -1.1
v 0 2.3 -1.1
v 0.1 2.1 -1.1
v 0.1 2.2 -1.1
v 0.1 2.3 -1.1
v 0.1 2.5 -1.1
v 0.2 2.3 -1.1
v 0.2 2.4 -1.1
v 0.3 2.3 -1.1
v 0.3 2.4 -1.1
v 0.4 2.1 -1.1
v 0.4 2.2 -1.1
v 0.4 2.3 -1.1
v 0.4 2.5 -1.1
v 0.5 2.1 -1.1
v 0.5 2.3 -1.1
v 0.2 2.3 -1.4
v 0.2 2.4 -1.4
v 0.3 2.3 -1.4
v 0.3 2.4 -1.4
v 0 2 -1.5
v 0 2.1 -1.5
v 0.1 2 -1.5
v 0.1 2.1 -1.5
v 0.4 2 -1.5
v 0.4 2.1 -1.5
v 0.5 2 -1.5
v 0.5 2.1 -1.5
v 0.2 2.2 -1.6
v 0.2 2.3 -1.6
v 0.3 2.2 -1.6
v 0.3 2.3 -1.6
v 0.2 2.1 -1.7
v 0.2 2.2 -1.7
v 0.3 2.1 -1.7
v 0.3 2.2 -1.7
v 0 2 -0.9
v 0.1 2 -0.9
v 0.4 2 -0.9
v 0.5 2 -0.9
v 0 2 -1.3
v 0.1 2 -1.3
v 0.4 2 -1.3
v 0.5 2 -1.3
v 0 2 -1.5
v 0.1 2 -1.5
v 0.4 2 -1.5
v 0.5 2 -1.5
v 0 2.1 0
v 0.1 2.1 0
v 0.4 2.1 0
v 0.5 2.1 0
v 0 2.1 -0.2
v 0.1 2.1 -0.2
v 0.4 2.1 -0.2
v 0.5 2.1 -0.2
v 0 2.1 -0.6
v 0.1 2.1 -0.6
v 0.4 2.1 -0.6
v 0.5 2.1 -0.6
v 0.2 2.1 -1.6
v 0.3 2.1 -1.6
v 0.2 2.1 -1.7
v 0.3 2.1 -1.7
v 0.2 2.2 -0.2
v 0.3 2.2 -0.2
v 0.1 2.2 -0.3
v 0.2 2.2 -0.3
v 0.3 2.2 -0.3
v 0.4 2.2 -0.3
v 0.1 2.2 -0.6
v 0.4 2.2 -0.6
v 0.1 2.2 -0.9
v 0.4 2.2 -0.9
v 0.1 2.2 -1.1
v 0.4 2.2 -1.1
v 0.2 2.2 -1.4
v 0.3 2.2 -1.4
v 0.2 2.2 -1.6
v 0.3 2.2 -1.6
v 0.2 2.3 0
v 0.3 2.3 0
v 0.1 2.3 -0.1
v 0.2 2.3 -0.1
v 0.3 2.3 -0.1
v 0.4 2.3 -0.1
v 0.2 2.3 -0.2
v 0.3 2.3 -0.2
v 0.1 2.3 -0.3
v 0.2 2.3 -0.3
v 0.3 2.3 -0.3
v 0.4 2.3 -0.3
v 0.2 2.3 -1.1
v 0.3 2.3 -1.1
v 0.2 2.3 -1.2
v 0.3 2.3 -1.2
v 0.2 2.3 -1.4
v 0.3 2.3 -1.4
v 0 2.4 -0.2
v 0.1 2.4 -0.2
v 0.4 2.4 -0.2
v 0.5 2.4 -0.2
v 0 2.4 -0.3
v 0.1 2.4 -0.3
v 0.4 2.4 -0.3
v 0.5 2.4 -0.3
v 0.2 2.4 -0.4
v 0.3 2.4 -0.4
v 0.2 2.4 -0.6
v 0.3 2.4 -0.6
v 0.2 2.4 -0.7
v 0.3 2.4 -0.7
v 0.2 2.4 -0.8
v 0.3 2.4 -0.8
v 0.2 2.4 -1
v 0.3 2.4 -1
v 0.2 2.4 -1.1
v 0.3 2.4 -1.1
v 0 2.5 -0.3
v 0.1 2.5 -0.3
v 0.4 2.5 -0.3
v 0.5 2.5 -0.3
v 0 2.5 -0.4
v 0.1 2.5 -0.4
v 0.4 2.5 -0.4
v 0.5 2.5 -0.4
v 0 2.1 -1.1
v 0.1 2.1 -1.1
v 0.4 2.1 -1.1
v 0.5 2.1 -1.1
v 0 2.1 -1.3
v 0.1 2.1 -1.3
v 0.4 2.1 -1.3
v 0.5 2.1 -1.3
v 0 2.1 -1.5
v 0.1 2.1 -1.5
v 0.4 2.1 -1.5
v 0.5 2.1 -1.5
v 0 2.2 0
v 0.1 2.2 0
v 0.4 2.2 0
v 0.5 2.2 0
v 0 2.2 -0.2
v 0.1 2.2 -0.2
v 0.4 2.2 -0.2
v 0.5 2.2 -0.2
v 0.1 2.2 -0.3
v 0.4 2.2 -0.3
v 0 2.2 -0.4
v 0.1 2.2 -0.4
v 0.4 2.2 -0.4
v 0.5 2.2 -0.4
v 0.2 2.2 -1.6
v 0.3 2.2 -1.6
v 0.2 2.2 -1.7
v 0.3 2.2 -1.7
v 0 2.3 -0.4
v 0.1 2.3 -0.4
v 0.2 2.3 -0.4
v 0.3 2.3 -0.4
v 0.4 2.3 -0.4
v 0.5 2.3 -0.4
v 0 2.3 -0.6
v 0.1 2.3 -0.6
v 0.2 2.3 -0.6
v 0.3 2.3 -0.6
v 0.4 2.3 -0.6
v 0.5 2.3 -0.6
v 0.2 2.3 -0.7
v 0.3 2.3 -0.7
v 0.2 2.3 -0.8
v 0.3 2.3 -0.8
v 0 2.3 -0.9
v 0.1 2.3 -0.9
v 0.4 2.3 -0.9
v 0.5 2.3 -0.9
v 0.2 2.3 -1
v 0.3 2.3 -1
v 0 2.3 -1.1
v 0.1 2.3 -1.1
v 0.2 2.3 -1.1
v 0.3 2.3 -1.1
v 0.4 2.3 -1.1
v 0.5 2.3 -1.1
v 0.2 2.3 -1.4
v 0.3 2.3 -1.4
v 0.2 2.3 -1.6
v 0.3 2.3 -1.6
v 0.2 2.4 0
v 0.3 2.4 0
v 0.2 2.4 -0.1
v 0.3 2.4 -0.1
v 0.2 2.4 -1.1
v 0.3 2.4 -1.1
v 0.2 2.4 -1.2
v 0.3 2.4 -1.2
v 0.2 2.4 -1.4
v 0.3 2.4 -1.4
v 0.1 2.5 -0.1
v 0.4 2.5 -0.1
v 0 2.5 -0.2
v 0.1 2.5 -0.2
v 0.4 2.5 -0.2
v 0.5 2.5 -0.2
v 0 2.5 -0.3
v 0.1 2.5 -0.3
v 0.4 2.5 -0.3
v 0.5 2.5 -0.3
v 0.1 2.5 -0.4
v 0.4 2.5 -0.4
v 0.1 2.5 -1.1
v 0.4 2.5 -1.1
v 0.1 2.6 -0.2
v 0.4 2.6 -0.2
v 0.1 2.6 -0.3
v 0.4 2.6 -0.3
v 0.1 2.6 -0.4
v 0.4 2.6 -0.4
v 0 2.7 -0.3
v 0.1 2.7 -0.3
v 0.4 2.7 -0.3
v 0.5 2.7 -0.3
v 0 2.7 -0.4
v 0.1 2.7 -0.4
v 0.4 2.7 -0.4
v 0.5 2.7 -0.4

# faces
f 7/2/1 2/2/1 1/2/1
f 8/1/1 3/1/1 2/1/1
f 8/2/1 2/2/1 7/2/1
f 9/1/1 3/1/1 8/1/1
f 10/1/1 5/1/1 4/1/1
f 11/2/1 6/2/1 5/2/1
f 11/1/1 5/1/1 10/1/1
f 12/2/1 6/2/1 11/2/1
f 13/2/1 6/2/1 12/2/1
f 14/2/1 6/2/1 13/2/1
f 15/2/1 7/2/1 1/2/1
f 16/2/1 7/2/1 15/2/1
f 19/3/1 18/3/1 17/3/1
f 20/3/1 18/3/1 19/3/1
f 22/1/1 21/1/1 20/1/1
f 23/1/1 21/1/1 22/1/1
f 29/2/1 25/2/1 24/2/1
f 30/2/1 25/2/1 29/2/1
f 31/2/1 27/2/1 26/2/1
f 32/2/1 27/2/1 31/2/1
f 34/2/1 30/2/1 29/2/1
f 34/2/1 33/2/1 32/2/1
f 34/2/1 32/2/1 31/2/1
f 34/2/1 31/2/1 30/2/1
f 34/2/1 29/2/1 28/2/1
f 35/2/1 33/2/1 34/2/1
f 36/2/1 34/2/1 28/2/1
f 37/2/1 34/2/1 36/2/1
f 38/2/1 33/2/1 35/2/1
f 39/2/1 33/2/1 38/2/1
f 40/2/1 33/2/1 39/2/1
f 41/2/1 38/2/1 37/2/1
f 42/2/1 38/2/1 41/2/1
f 48/1/1 44/1/1 43/1/1
f 49/1/1 44/1/1 48/1/1
f 52/2/1 46/2/1 45/2/1
f 53/2/1 46/2/1 52/2/1
f 56/1/1 48/1/1 47/1/1
f 57/1/1 48/1/1 56/1/1
f 58/1/1 51/1/1 50/1/1
f 59/1/1 51/1/1 58/1/1
f 60/2/1 55/2/1 54/2/1
f 61/1/1 56/1/1 55/1/1
f 61/2/1 55/2/1 60/2/1
f 62/1/1 56/1/1 61/1/1
f 69/2/1 64/2/1 63/2/1
f 70/2/1 64/2/1 69/2/1
f 71/2/1 66/2/1 65/2/1
f 72/2/1 66/2/1 71/2/1
f 73/2/1 68/2/1 67/2/1
f 74/2/1 68/2/1 73/2/1
f 81/2/1 76/2/1 75/2/1
f 82/1/1 77/1/1 76/1/1
f 82/2/1 76/2/1 81/2/1
f 83/1/1 77/1/1 82/1/1
f 84/1/1 79/1/1 78/1/1
f 85/2/1 80/2/1 79/2/1
f 85/1/1 79/1/1 84/1/1
f 86/2/1 80/2/1 85/2/1
f 87/2/1 80/2/1 86/2/1
f 88/2/1 81/2/1 75/2/1
f 89/2/1 81/2/1 88/2/1
f 92/1/1 91/1/1 90/1/1
f 93/1/1 91/1/1 92/1/1
f 94/2/2 95/2/2 100/2/2
f 95/1/2 96/1/2 101/1/2
f 100/2/2 95/2/2 101/2/2
f 101/1/2 96/1/2 102/1/2
f 97/1/2 98/1/2 103/1/2
f 98/2/2 99/2/2 104/2/2
f 103/1/2 98/1/2 104/1/2
f 104/2/2 99/2/2 105/2/2
f 105/2/2 99/2/2 106/2/2
f 94/2/2 100/2/2 107/2/2
f 107/2/2 100/2/2 108/2/2
f 109/1/2 110/1/2 111/1/2
f 111/1/2 110/1/2 112/1/2
f 113/2/2 114/2/2 119/2/2
f 119/2/2 114/2/2 120/2/2
f 115/2/2 116/2/2 121/2/2
f 121/2/2 116/2/2 122/2/2
f 117/2/2 118/2/2 123/2/2
f 123/2/2 118/2/2 124/2/2
f 125/1/2 126/1/2 130/1/2
f 130/1/2 126/1/2 131/1/2
f 127/2/2 128/2/2 134/2/2
f 134/2/2 128/2/2 135/2/2
f 129/1/2 130/1/2 138/1/2
f 138/1/2 130/1/2 139/1/2
f 132/1/2 133/1/2 140/1/2
f 140/1/2 133/1/2 141/1/2
f 136/2/2 137/2/2 142/2/2
f 137/1/2 138/1/2 143/1/2
f 142/2/2 137/2/2 143/2/2
f 143/1/2 138/1/2 144/1/2
f 145/2/2 146/2/2 150/2/2
f 150/2/2 146/2/2 151/2/2
f 147/2/2 148/2/2 152/2/2
f 152/2/2 148/2/2 153/2/2
f 150/2/2 151/2/2 155/2/2
f 153/2/2 154/2/2 155/2/2
f 152/2/2 153/2/2 155/2/2
f 151/2/2 152/2/2 155/2/2
f 149/2/2 150/2/2 155/2/2
f 155/2/2 154/2/2 156/2/2
f 149/2/2 155/2/2 157/2/2
f 157/2/2 155/2/2 158/2/2
f 156/2/2 154/2/2 159/2/2
f 159/2/2 154/2/2 160/2/2
f 160/2/2 154/2/2 161/2/2
f 158/2/2 159/2/2 162/2/2
f 162/2/2 159/2/2 163/2/2
f 164/2/2 165/2/2 170/2/2
f 165/1/2 166/1/2 171/1/2
f 170/2/2 165/2/2 171/2/2
f 171/1/2 166/1/2 172/1/2
f 167/1/2 168/1/2 173/1/2
f 168/2/2 169/2/2 174/2/2
f 173/1/2 168/1/2 174/1/2
f 174/2/2 169/2/2 175/2/2
f 175/2/2 169/2/2 176/2/2
f 176/2/2 169/2/2 177/2/2
f 164/2/2 170/2/2 178/2/2
f 178/2/2 170/2/2 179/2/2
f 180/3/2 181/3/2 182/3/2
f 182/3/2 181/3/2 183/3/2
f 183/1/2 184/1/2 185/1/2
f 185/1/2 184/1/2 186/1/2
f 189/1/3 188/1/3 187/1/3
f 190/1/3 188/1/3 189/1/3
f 193/1/3 192/1/3 191/1/3
f 194/1/3 192/1/3 193/1/3
f 197/1/3 196/1/3 195/1/3
f 198/1/3 196/1/3 197/1/3
f 201/2/3 200/2/3 199/2/3
f 202/2/3 200/2/3 201/2/3
f 204/2/3 200/2/3 202/2/3
f 205/2/3 204/2/3 203/2/3
f 206/2/3 200/2/3 204/2/3
f 206/2/3 204/2/3 205/2/3
f 209/3/3 208/3/3 207/3/3
f 210/3/3 208/3/3 209/3/3
f 214/2/3 213/2/3 212/2/3
f 215/2/3 213/2/3 214/2/3
f 217/2/3 211/2/3 210/2/3
f 218/2/3 211/2/3 217/2/3
f 219/3/3 217/3/3 216/3/3
f 220/3/3 217/3/3 219/3/3
f 225/1/3 222/1/3 221/1/3
f 226/1/3 222/1/3 225/1/3
f 227/1/3 222/1/3 226/1/3
f 228/2/3 224/2/3 223/2/3
f 229/2/3 224/2/3 228/2/3
f 232/2/3 231/2/3 230/2/3
f 233/2/3 231/2/3 232/2/3
f 237/1/3 236/1/3 235/1/3
f 237/1/3 235/1/3 234/1/3
f 238/1/3 236/1/3 237/1/3
f 241/2/3 240/2/3 239/2/3
f 242/2/3 240/2/3 241/2/3
f 245/2/3 244/2/3 243/2/3
f 246/2/3 244/2/3 245/2/3
f 249/2/3 248/2/3 247/2/3
f 250/2/3 248/2/3 249/2/3
f 253/2/3 252/2/3 251/2/3
f 254/2/3 252/2/3 253/2/3
f 257/2/3 256/2/3 255/2/3
f 258/2/3 256/2/3 257/2/3
f 259/2/3 256/2/3 258/2/3
f 263/2/3 261/2/3 260/2/3
f 263/2/3 262/2/3 261/2/3
f 264/2/3 262/2/3 263/2/3
f 267/2/3 266/2/3 265/2/3
f 268/2/3 266/2/3 267/2/3
f 271/1/3 270/1/3 269/1/3
f 272/1/3 270/1/3 271/1/3
f 275/1/3 274/1/3 273/1/3
f 276/1/3 274/1/3 275/1/3
f 277/3/4 278/3/4 279/3/4
f 279/3/4 278/3/4 280/3/4
f 281/3/4 282/3/4 283/3/4
f 283/3/4 282/3/4 284/3/4
f 285/1/4 286/1/4 287/1/4
f 287/1/4 286/1/4 288/1/4
f 288/1/4 286/1/4 289/1/4
f 290/2/4 291/2/4 292/2/4
f 292/2/4 291/2/4 293/2/4
f 287/2/4 288/2/4 294/2/4
f 294/2/4 288/2/4 295/2/4
f 294/1/4 295/1/4 297/1/4
f 295/1/4 296/1/4 297/1/4
f 297/1/4 296/1/4 298/1/4
f 299/2/4 300/2/4 301/2/4
f 301/2/4 300/2/4 302/2/4
f 302/2/4 300/2/4 303/2/4
f 304/2/4 305/2/4 307/2/4
f 305/2/4 306/2/4 307/2/4
f 307/2/4 306/2/4 308/2/4
f 309/2/4 310/2/4 311/2/4
f 311/2/4 310/2/4 312/2/4
f 313/2/4 314/2/4 315/2/4
f 315/2/4 314/2/4 316/2/4
f 317/2/4 318/2/4 319/2/4
f 319/2/4 318/2/4 320/2/4
f 320/2/4 318/2/4 321/2/4
f 321/2/4 322/2/4 323/2/4
f 320/2/4 321/2/4 323/2/4
f 323/2/4 322/2/4 324/2/4
f 320/2/4 323/2/4 325/2/4
f 324/2/4 322/2/4 326/2/4
f 320/2/4 325/2/4 328/2/4
f 325/2/4 326/2/4 328/2/4
f 328/2/4 326/2/4 329/2/4
f 326/2/4 322/2/4 330/2/4
f 329/2/4 326/2/4 330/2/4
f 328/2/4 329/2/4 331/2/4
f 327/2/4 328/2/4 331/2/4
f 331/2/4 329/2/4 332/2/4
f 333/1/4 334/1/4 335/1/4
f 335/1/4 334/1/4 336/1/4
f 337/1/4 338/1/4 339/1/4
f 339/1/4 338/1/4 340/1/4
f 341/1/4 342/1/4 343/1/4
f 343/1/4 342/1/4 344/1/4
f 345/1/4 346/1/4 347/1/4
f 347/1/4 346/1/4 348/1/4
f 349/1/4 350/1/4 351/1/4
f 351/1/4 350/1/4 352/1/4
f 357/2/5 354/2/5 353/2/5
f 358/2/5 354/2/5 357/2/5
f 359/2/5 356/2/5 355/2/5
f 360/2/5 356/2/5 359/2/5
f 361/1/5 358/1/5 357/1/5
f 362/1/5 358/1/5 361/1/5
f 363/1/5 360/1/5 359/1/5
f 364/1/5 360/1/5 363/1/5
f 369/1/5 366/1/5 365/1/5
f 370/1/5 366/1/5 369/1/5
f 371/1/5 368/1/5 367/1/5
f 372/1/5 368/1/5 371/1/5
f 373/2/5 370/2/5 369/2/5
f 374/2/5 370/2/5 373/2/5
f 375/2/5 372/2/5 371/2/5
f 376/2/5 372/2/5 375/2/5
f 379/1/5 378/1/5 377/1/5
f 380/1/5 378/1/5 379/1/5
f 384/2/5 382/2/5 381/2/5
f 385/2/5 382/2/5 384/2/5
f 387/2/5 384/2/5 383/2/5
f 387/2/5 386/2/5 385/2/5
f 387/2/5 385/2/5 384/2/5
f 388/2/5 386/2/5 387/2/5
f 389/2/5 388/2/5 387/2/5
f 390/2/5 388/2/5 389/2/5
f 391/2/5 390/2/5 389/2/5
f 392/2/5 390/2/5 391/2/5
f 395/1/5 394/1/5 393/1/5
f 396/1/5 394/1/5 395/1/5
f 400/1/5 398/1/5 397/1/5
f 401/1/5 398/1/5 400/1/5
f 403/2/5 400/2/5 399/2/5
f 403/2/5 402/2/5 401/2/5
f 403/2/5 401/2/5 400/2/5
f 404/2/5 402/2/5 403/2/5
f 405/2/5 403/2/5 399/2/5
f 406/2/5 403/2/5 405/2/5
f 407/2/5 402/2/5 404/2/5
f 408/2/5 402/2/5 407/2/5
f 411/2/5 410/2/5 409/2/5
f 412/2/5 410/2/5 411/2/5
f 413/1/5 412/1/5 411/1/5
f 414/1/5 412/1/5 413/1/5
f 419/3/5 416/3/5 415/3/5
f 420/3/5 416/3/5 419/3/5
f 421/3/5 418/3/5 417/3/5
f 422/3/5 418/3/5 421/3/5
f 425/2/5 424/2/5 423/2/5
f 426/2/5 424/2/5 425/2/5
f 429/2/5 428/2/5 427/2/5
f 430/2/5 428/2/5 429/2/5
f 433/2/5 432/2/5 431/2/5
f 434/2/5 432/2/5 433/2/5
f 439/1/5 436/1/5 435/1/5
f 440/1/5 436/1/5 439/1/5
f 441/1/5 438/1/5 437/1/5
f 442/1/5 438/1/5 441/1/5
f 443/2/6 444/2/6 447/2/6
f 447/2/6 444/2/6 448/2/6
f 445/2/6 446/2/6 449/2/6
f 449/2/6 446/2/6 450/2/6
f 447/1/6 448/1/6 451/1/6
f 451/1/6 448/1/6 452/1/6
f 449/1/6 450/1/6 453/1/6
f 453/1/6 450/1/6 454/1/6
f 455/1/6 456/1/6 459/1/6
f 459/1/6 456/1/6 460/1/6
f 457/1/6 458/1/6 461/1/6
f 461/1/6 458/1/6 462/1/6
f 459/2/6 460/2/6 463/2/6
f 461/2/6 462/2/6 464/2/6
f 459/2/6 463/2/6 465/2/6
f 465/2/6 463/2/6 466/2/6
f 464/2/6 462/2/6 467/2/6
f 467/2/6 462/2/6 468/2/6
f 469/1/6 470/1/6 471/1/6
f 471/1/6 470/1/6 472/1/6
f 473/2/6 474/2/6 479/2/6
f 479/2/6 474/2/6 480/2/6
f 475/2/6 476/2/6 481/2/6
f 481/2/6 476/2/6 482/2/6
f 477/2/6 478/2/6 483/2/6
f 483/2/6 478/2/6 484/2/6
f 485/2/6 486/2/6 487/2/6
f 487/2/6 486/2/6 488/2/6
f 489/2/6 490/2/6 495/2/6
f 495/2/6 490/2/6 496/2/6
f 493/2/6 494/2/6 497/2/6
f 497/2/6 494/2/6 498/2/6
f 491/2/6 492/2/6 499/2/6
f 499/2/6 492/2/6 500/2/6
f 501/1/6 502/1/6 503/1/6
f 503/1/6 502/1/6 504/1/6
f 505/1/6 506/1/6 507/1/6
f 507/1/6 506/1/6 508/1/6
f 509/2/6 510/2/6 511/2/6
f 511/2/6 510/2/6 512/2/6
f 511/1/6 512/1/6 513/1/6
f 513/1/6 512/1/6 514/1/6
f 515/2/6 516/2/6 518/2/6
f 518/2/6 516/2/6 519/2/6
f 517/3/6 518/3/6 521/3/6
f 521/3/6 518/3/6 522/3/6
f 519/3/6 520/3/6 523/3/6
f 523/3/6 520/3/6 524/3/6
f 525/2/6 526/2/6 527/2/6
f 527/2/6 526/2/6 528/2/6
f 529/2/6 530/2/6 531/2/6
f 531/2/6 530/2/6 532/2/6
f 531/2/6 532/2/6 533/2/6
f 533/2/6 532/2/6 534/2/6
f 535/1/6 536/1/6 539/1/6
f 539/1/6 536/1/6 540/1/6
f 537/1/6 538/1/6 541/1/6
f 541/1/6 538/1/6 542/1/6
