# MagicaVoxel @ Ephtracy

# group
o 

# material
mtllib rat_run_0.mtl
usemtl palette

# normals
vn -1 0 0
vn 1 0 0
vn 0 0 1
vn 0 0 -1
vn 0 -1 0
vn 0 1 0

# texcoords
vt 0.0292969 0.5
vt 0.982422 0.5
vt 0.994141 0.5

# verts
v 0 2 -0.4
v 0 2 -0.5
v 0 2 -0.6
v 0 2 -0.8
v 0 2.1 -0.4
v 0 2.1 -0.5
v 0 2.1 -0.6
v 0 2.1 -0.8
v 0 2.1 -0.9
v 0 2.2 -0.5
v 0 2.2 -0.6
v 0 2.2 -0.7
v 0 2.2 -0.9
v 0 2.2 -1.1
v 0 2.3 -0.5
v 0 2.3 -0.6
v 0 2.3 -0.7
v 0 2.3 -0.8
v 0 2.3 -0.9
v 0 2.5 -0.2
v 0 2.5 -0.3
v 0 2.5 -0.6
v 0 2.5 -0.8
v 0 2.5 -0.9
v 0 2.5 -1.1
v 0 2.6 -0.2
v 0 2.6 -0.3
v 0 2.6 -0.4
v 0 2.7 -0.3
v 0 2.7 -0.4
v 0 2.7 -0.5
v 0 2.8 -0.4
v 0 2.8 -0.5
v 0.1 2.2 -0.4
v 0.1 2.2 -0.5
v 0.1 2.2 -0.7
v 0.1 2.2 -0.8
v 0.1 2.3 -0.3
v 0.1 2.3 -0.4
v 0.1 2.3 -0.5
v 0.1 2.3 -0.6
v 0.1 2.3 -0.7
v 0.1 2.3 -0.8
v 0.1 2.3 -0.9
v 0.1 2.4 -0.1
v 0.1 2.4 -0.3
v 0.1 2.5 -0.2
v 0.1 2.5 -0.3
v 0.1 2.5 -0.4
v 0.1 2.5 -0.6
v 0.1 2.5 -0.8
v 0.1 2.5 -0.9
v 0.1 2.6 -0.1
v 0.1 2.6 -0.2
v 0.1 2.6 -0.3
v 0.1 2.6 -0.4
v 0.1 2.7 -0.2
v 0.1 2.7 -0.3
v 0.2 2.3 -0.2
v 0.2 2.3 -0.3
v 0.2 2.3 -1.1
v 0.2 2.3 -1.2
v 0.2 2.3 -1.4
v 0.2 2.4 0
v 0.2 2.4 -0.1
v 0.2 2.4 -0.2
v 0.2 2.4 -0.3
v 0.2 2.4 -1.1
v 0.2 2.4 -1.2
v 0.2 2.4 -1.4
v 0.2 2.4 -1.6
v 0.2 2.5 0
v 0.2 2.5 -0.1
v 0.2 2.5 -1.4
v 0.2 2.5 -1.6
v 0.2 2.5 -1.7
v 0.2 2.6 -1.6
v 0.2 2.6 -1.7
v 0.3 2.3 -0.4
v 0.3 2.3 -0.5
v 0.3 2.3 -0.6
v 0.3 2.3 -1.1
v 0.3 2.4 -0.4
v 0.3 2.4 -0.5
v 0.3 2.4 -0.6
v 0.3 2.4 -1.1
v 0.4 2 -0.4
v 0.4 2 -0.5
v 0.4 2 -0.6
v 0.4 2 -0.8
v 0.4 2.1 -0.4
v 0.4 2.1 -0.5
v 0.4 2.1 -0.6
v 0.4 2.1 -0.8
v 0.4 2.1 -0.9
v 0.4 2.2 -0.5
v 0.4 2.2 -0.6
v 0.4 2.2 -0.8
v 0.4 2.2 -0.9
v 0.4 2.7 -0.4
v 0.4 2.7 -0.5
v 0.4 2.8 -0.4
v 0.4 2.8 -0.5
v 0.1 2 -0.4
v 0.1 2 -0.5
v 0.1 2 -0.6
v 0.1 2 -0.8
v 0.1 2.1 -0.4
v 0.1 2.1 -0.5
v 0.1 2.1 -0.6
v 0.1 2.1 -0.8
v 0.1 2.1 -0.9
v 0.1 2.2 -0.5
v 0.1 2.2 -0.6
v 0.1 2.2 -0.8
v 0.1 2.2 -0.9
v 0.1 2.7 -0.4
v 0.1 2.7 -0.5
v 0.1 2.8 -0.4
v 0.1 2.8 -0.5
v 0.2 2.3 -0.4
v 0.2 2.3 -0.5
v 0.2 2.3 -0.6
v 0.2 2.3 -1.1
v 0.2 2.4 -0.4
v 0.2 2.4 -0.5
v 0.2 2.4 -0.6
v 0.2 2.4 -1.1
v 0.3 2.3 -0.2
v 0.3 2.3 -0.3
v 0.3 2.3 -1.1
v 0.3 2.3 -1.2
v 0.3 2.3 -1.4
v 0.3 2.4 0
v 0.3 2.4 -0.1
v 0.3 2.4 -0.2
v 0.3 2.4 -0.3
v 0.3 2.4 -1.1
v 0.3 2.4 -1.2
v 0.3 2.4 -1.4
v 0.3 2.4 -1.6
v 0.3 2.5 0
v 0.3 2.5 -0.1
v 0.3 2.5 -1.4
v 0.3 2.5 -1.6
v 0.3 2.5 -1.7
v 0.3 2.6 -1.6
v 0.3 2.6 -1.7
v 0.4 2.2 -0.4
v 0.4 2.2 -0.5
v 0.4 2.2 -0.7
v 0.4 2.2 -0.8
v 0.4 2.3 -0.3
v 0.4 2.3 -0.4
v 0.4 2.3 -0.5
v 0.4 2.3 -0.6
v 0.4 2.3 -0.7
v 0.4 2.3 -0.8
v 0.4 2.3 -0.9
v 0.4 2.4 -0.1
v 0.4 2.4 -0.3
v 0.4 2.5 -0.2
v 0.4 2.5 -0.3
v 0.4 2.5 -0.4
v 0.4 2.5 -0.6
v 0.4 2.5 -0.8
v 0.4 2.5 -0.9
v 0.4 2.6 -0.1
v 0.4 2.6 -0.2
v 0.4 2.6 -0.3
v 0.4 2.6 -0.4
v 0.4 2.7 -0.2
v 0.4 2.7 -0.3
v 0.5 2 -0.4
v 0.5 2 -0.5
v 0.5 2 -0.6
v 0.5 2 -0.8
v 0.5 2.1 -0.4
v 0.5 2.1 -0.5
v 0.5 2.1 -0.6
v 0.5 2.1 -0.8
v 0.5 2.1 -0.9
v 0.5 2.2 -0.5
v 0.5 2.2 -0.6
v 0.5 2.2 -0.7
v 0.5 2.2 -0.9
v 0.5 2.2 -1.1
v 0.5 2.3 -0.5
v 0.5 2.3 -0.6
v 0.5 2.3 -0.7
v 0.5 2.3 -0.8
v 0.5 2.3 -0.9
v 0.5 2.5 -0.2
v 0.5 2.5 -0.3
v 0.5 2.5 -0.6
v 0.5 2.5 -0.8
v 0.5 2.5 -0.9
v 0.5 2.5 -1.1
v 0.5 2.6 -0.2
v 0.5 2.6 -0.3
v 0.5 2.6 -0.4
v 0.5 2.7 -0.3
v 0.5 2.7 -0.4
v 0.5 2.7 -0.5
v 0.5 2.8 -0.4
v 0.5 2.8 -0.5
v 0.2 2.4 0
v 0.2 2.5 0
v 0.3 2.4 0
v 0.3 2.5 0
v 0.1 2.4 -0.1
v 0.1 2.6 -0.1
v 0.2 2.4 -0.1
v 0.2 2.5 -0.1
v 0.3 2.4 -0.1
v 0.3 2.5 -0.1
v 0.4 2.4 -0.1
v 0.4 2.6 -0.1
v 0 2.5 -0.2
v 0 2.6 -0.2
v 0.1 2.5 -0.2
v 0.1 2.6 -0.2
v 0.1 2.7 -0.2
v 0.2 2.3 -0.2
v 0.2 2.4 -0.2
v 0.3 2.3 -0.2
v 0.3 2.4 -0.2
v 0.4 2.5 -0.2
v 0.4 2.6 -0.2
v 0.4 2.7 -0.2
v 0.5 2.5 -0.2
v 0.5 2.6 -0.2
v 0 2.6 -0.3
v 0 2.7 -0.3
v 0.1 2.3 -0.3
v 0.1 2.4 -0.3
v 0.1 2.6 -0.3
v 0.1 2.7 -0.3
v 0.2 2.3 -0.3
v 0.2 2.4 -0.3
v 0.3 2.3 -0.3
v 0.3 2.4 -0.3
v 0.4 2.3 -0.3
v 0.4 2.4 -0.3
v 0.4 2.6 -0.3
v 0.4 2.7 -0.3
v 0.5 2.6 -0.3
v 0.5 2.7 -0.3
v 0 2 -0.4
v 0 2.1 -0.4
v 0 2.7 -0.4
v 0 2.8 -0.4
v 0.1 2 -0.4
v 0.1 2.1 -0.4
v 0.1 2.2 -0.4
v 0.1 2.3 -0.4
v 0.1 2.7 -0.4
v 0.1 2.8 -0.4
v 0.4 2 -0.4
v 0.4 2.1 -0.4
v 0.4 2.2 -0.4
v 0.4 2.3 -0.4
v 0.4 2.7 -0.4
v 0.4 2.8 -0.4
v 0.5 2 -0.4
v 0.5 2.1 -0.4
v 0.5 2.7 -0.4
v 0.5 2.8 -0.4
v 0 2.1 -0.5
v 0 2.2 -0.5
v 0 2.3 -0.5
v 0.1 2.1 -0.5
v 0.1 2.2 -0.5
v 0.1 2.3 -0.5
v 0.2 2.3 -0.5
v 0.2 2.4 -0.5
v 0.3 2.3 -0.5
v 0.3 2.4 -0.5
v 0.4 2.1 -0.5
v 0.4 2.2 -0.5
v 0.4 2.3 -0.5
v 0.5 2.1 -0.5
v 0.5 2.2 -0.5
v 0.5 2.3 -0.5
v 0 2 -0.6
v 0 2.1 -0.6
v 0 2.3 -0.6
v 0 2.5 -0.6
v 0.1 2 -0.6
v 0.1 2.1 -0.6
v 0.1 2.3 -0.6
v 0.1 2.5 -0.6
v 0.4 2 -0.6
v 0.4 2.1 -0.6
v 0.4 2.3 -0.6
v 0.4 2.5 -0.6
v 0.5 2 -0.6
v 0.5 2.1 -0.6
v 0.5 2.3 -0.6
v 0.5 2.5 -0.6
v 0 2.1 -0.8
v 0 2.3 -0.8
v 0.1 2.1 -0.8
v 0.1 2.2 -0.8
v 0.1 2.3 -0.8
v 0.4 2.1 -0.8
v 0.4 2.2 -0.8
v 0.4 2.3 -0.8
v 0.5 2.1 -0.8
v 0.5 2.3 -0.8
v 0 2.3 -0.9
v 0 2.5 -0.9
v 0.1 2.3 -0.9
v 0.1 2.5 -0.9
v 0.4 2.3 -0.9
v 0.4 2.5 -0.9
v 0.5 2.3 -0.9
v 0.5 2.5 -0.9
v 0.2 2.3 -1.1
v 0.2 2.4 -1.1
v 0.3 2.3 -1.1
v 0.3 2.4 -1.1
v 0.2 2.4 -1.4
v 0.2 2.5 -1.4
v 0.3 2.4 -1.4
v 0.3 2.5 -1.4
v 0.2 2.5 -1.6
v 0.2 2.6 -1.6
v 0.3 2.5 -1.6
v 0.3 2.6 -1.6
v 0 2.5 -0.3
v 0 2.6 -0.3
v 0.1 2.5 -0.3
v 0.1 2.6 -0.3
v 0.4 2.5 -0.3
v 0.4 2.6 -0.3
v 0.5 2.5 -0.3
v 0.5 2.6 -0.3
v 0 2.6 -0.4
v 0 2.7 -0.4
v 0.1 2.5 -0.4
v 0.1 2.6 -0.4
v 0.1 2.7 -0.4
v 0.2 2.3 -0.4
v 0.2 2.4 -0.4
v 0.3 2.3 -0.4
v 0.3 2.4 -0.4
v 0.4 2.5 -0.4
v 0.4 2.6 -0.4
v 0.4 2.7 -0.4
v 0.5 2.6 -0.4
v 0.5 2.7 -0.4
v 0 2 -0.5
v 0 2.1 -0.5
v 0 2.7 -0.5
v 0 2.8 -0.5
v 0.1 2 -0.5
v 0.1 2.1 -0.5
v 0.1 2.7 -0.5
v 0.1 2.8 -0.5
v 0.4 2 -0.5
v 0.4 2.1 -0.5
v 0.4 2.7 -0.5
v 0.4 2.8 -0.5
v 0.5 2 -0.5
v 0.5 2.1 -0.5
v 0.5 2.7 -0.5
v 0.5 2.8 -0.5
v 0 2.1 -0.6
v 0 2.2 -0.6
v 0.1 2.1 -0.6
v 0.1 2.2 -0.6
v 0.2 2.3 -0.6
v 0.2 2.4 -0.6
v 0.3 2.3 -0.6
v 0.3 2.4 -0.6
v 0.4 2.1 -0.6
v 0.4 2.2 -0.6
v 0.5 2.1 -0.6
v 0.5 2.2 -0.6
v 0 2.2 -0.7
v 0 2.3 -0.7
v 0.1 2.2 -0.7
v 0.1 2.3 -0.7
v 0.4 2.2 -0.7
v 0.4 2.3 -0.7
v 0.5 2.2 -0.7
v 0.5 2.3 -0.7
v 0 2 -0.8
v 0 2.1 -0.8
v 0 2.3 -0.8
v 0 2.5 -0.8
v 0.1 2 -0.8
v 0.1 2.1 -0.8
v 0.1 2.3 -0.8
v 0.1 2.5 -0.8
v 0.4 2 -0.8
v 0.4 2.1 -0.8
v 0.4 2.3 -0.8
v 0.4 2.5 -0.8
v 0.5 2 -0.8
v 0.5 2.1 -0.8
v 0.5 2.3 -0.8
v 0.5 2.5 -0.8
v 0 2.1 -0.9
v 0 2.2 -0.9
v 0.1 2.1 -0.9
v 0.1 2.2 -0.9
v 0.4 2.1 -0.9
v 0.4 2.2 -0.9
v 0.5 2.1 -0.9
v 0.5 2.2 -0.9
v 0 2.2 -1.1
v 0 2.5 -1.1
v 0.2 2.3 -1.1
v 0.2 2.4 -1.1
v 0.3 2.3 -1.1
v 0.3 2.4 -1.1
v 0.5 2.2 -1.1
v 0.5 2.5 -1.1
v 0.2 2.3 -1.4
v 0.2 2.4 -1.4
v 0.3 2.3 -1.4
v 0.3 2.4 -1.4
v 0.2 2.4 -1.6
v 0.2 2.5 -1.6
v 0.3 2.4 -1.6
v 0.3 2.5 -1.6
v 0.2 2.5 -1.7
v 0.2 2.6 -1.7
v 0.3 2.5 -1.7
v 0.3 2.6 -1.7
v 0 2 -0.4
v 0.1 2 -0.4
v 0.4 2 -0.4
v 0.5 2 -0.4
v 0 2 -0.5
v 0.1 2 -0.5
v 0.4 2 -0.5
v 0.5 2 -0.5
v 0 2 -0.6
v 0.1 2 -0.6
v 0.4 2 -0.6
v 0.5 2 -0.6
v 0 2 -0.8
v 0.1 2 -0.8
v 0.4 2 -0.8
v 0.5 2 -0.8
v 0 2.1 -0.5
v 0.1 2.1 -0.5
v 0.4 2.1 -0.5
v 0.5 2.1 -0.5
v 0 2.1 -0.6
v 0.1 2.1 -0.6
v 0.4 2.1 -0.6
v 0.5 2.1 -0.6
v 0 2.1 -0.8
v 0.1 2.1 -0.8
v 0.4 2.1 -0.8
v 0.5 2.1 -0.8
v 0 2.1 -0.9
v 0.1 2.1 -0.9
v 0.4 2.1 -0.9
v 0.5 2.1 -0.9
v 0.1 2.2 -0.4
v 0.4 2.2 -0.4
v 0.1 2.2 -0.5
v 0.4 2.2 -0.5
v 0 2.2 -0.6
v 0.1 2.2 -0.6
v 0.4 2.2 -0.6
v 0.5 2.2 -0.6
v 0 2.2 -0.7
v 0.1 2.2 -0.7
v 0.4 2.2 -0.7
v 0.5 2.2 -0.7
v 0.1 2.2 -0.8
v 0.4 2.2 -0.8
v 0 2.2 -0.9
v 0.1 2.2 -0.9
v 0.4 2.2 -0.9
v 0.5 2.2 -0.9
v 0 2.2 -1.1
v 0.5 2.2 -1.1
v 0.2 2.3 -0.2
v 0.3 2.3 -0.2
v 0.1 2.3 -0.3
v 0.2 2.3 -0.3
v 0.3 2.3 -0.3
v 0.4 2.3 -0.3
v 0.1 2.3 -0.4
v 0.4 2.3 -0.4
v 0 2.3 -0.7
v 0.1 2.3 -0.7
v 0.4 2.3 -0.7
v 0.5 2.3 -0.7
v 0 2.3 -0.8
v 0.1 2.3 -0.8
v 0.4 2.3 -0.8
v 0.5 2.3 -0.8
v 0.2 2.3 -1.1
v 0.3 2.3 -1.1
v 0.2 2.3 -1.2
v 0.3 2.3 -1.2
v 0.2 2.3 -1.4
v 0.3 2.3 -1.4
v 0.2 2.4 0
v 0.3 2.4 0
v 0.1 2.4 -0.1
v 0.2 2.4 -0.1
v 0.3 2.4 -0.1
v 0.4 2.4 -0.1
v 0.2 2.4 -0.2
v 0.3 2.4 -0.2
v 0.1 2.4 -0.3
v 0.2 2.4 -0.3
v 0.3 2.4 -0.3
v 0.4 2.4 -0.3
v 0.2 2.4 -0.4
v 0.3 2.4 -0.4
v 0.2 2.4 -0.5
v 0.3 2.4 -0.5
v 0.2 2.4 -0.6
v 0.3 2.4 -0.6
v 0.2 2.4 -1.1
v 0.3 2.4 -1.1
v 0.2 2.4 -1.4
v 0.3 2.4 -1.4
v 0.2 2.4 -1.6
v 0.3 2.4 -1.6
v 0 2.5 -0.2
v 0.1 2.5 -0.2
v 0.4 2.5 -0.2
v 0.5 2.5 -0.2
v 0 2.5 -0.3
v 0.1 2.5 -0.3
v 0.4 2.5 -0.3
v 0.5 2.5 -0.3
v 0.2 2.5 -1.6
v 0.3 2.5 -1.6
v 0.2 2.5 -1.7
v 0.3 2.5 -1.7
v 0 2.6 -0.3
v 0.1 2.6 -0.3
v 0.4 2.6 -0.3
v 0.5 2.6 -0.3
v 0 2.6 -0.4
v 0.1 2.6 -0.4
v 0.4 2.6 -0.4
v 0.5 2.6 -0.4
v 0 2.7 -0.4
v 0.1 2.7 -0.4
v 0.4 2.7 -0.4
v 0.5 2.7 -0.4
v 0 2.7 -0.5
v 0.1 2.7 -0.5
v 0.4 2.7 -0.5
v 0.5 2.7 -0.5
v 0 2.1 -0.4
v 0.1 2.1 -0.4
v 0.4 2.1 -0.4
v 0.5 2.1 -0.4
v 0 2.1 -0.5
v 0.1 2.1 -0.5
v 0.4 2.1 -0.5
v 0.5 2.1 -0.5
v 0 2.1 -0.6
v 0.1 2.1 -0.6
v 0.4 2.1 -0.6
v 0.5 2.1 -0.6
v 0 2.1 -0.8
v 0.1 2.1 -0.8
v 0.4 2.1 -0.8
v 0.5 2.1 -0.8
v 0.2 2.3 -0.4
v 0.3 2.3 -0.4
v 0 2.3 -0.5
v 0.1 2.3 -0.5
v 0.2 2.3 -0.5
v 0.3 2.3 -0.5
v 0.4 2.3 -0.5
v 0.5 2.3 -0.5
v 0 2.3 -0.6
v 0.1 2.3 -0.6
v 0.2 2.3 -0.6
v 0.3 2.3 -0.6
v 0.4 2.3 -0.6
v 0.5 2.3 -0.6
v 0 2.3 -0.8
v 0.1 2.3 -0.8
v 0.4 2.3 -0.8
v 0.5 2.3 -0.8
v 0 2.3 -0.9
v 0.1 2.3 -0.9
v 0.4 2.3 -0.9
v 0.5 2.3 -0.9
v 0.2 2.3 -1.1
v 0.3 2.3 -1.1
v 0.2 2.4 -1.1
v 0.3 2.4 -1.1
v 0.2 2.4 -1.2
v 0.3 2.4 -1.2
v 0.2 2.4 -1.4
v 0.3 2.4 -1.4
v 0.2 2.5 0
v 0.3 2.5 0
v 0.2 2.5 -0.1
v 0.3 2.5 -0.1
v 0.1 2.5 -0.4
v 0.4 2.5 -0.4
v 0 2.5 -0.6
v 0.1 2.5 -0.6
v 0.4 2.5 -0.6
v 0.5 2.5 -0.6
v 0 2.5 -0.8
v 0.1 2.5 -0.8
v 0.4 2.5 -0.8
v 0.5 2.5 -0.8
v 0 2.5 -0.9
v 0.1 2.5 -0.9
v 0.4 2.5 -0.9
v 0.5 2.5 -0.9
v 0 2.5 -1.1
v 0.5 2.5 -1.1
v 0.2 2.5 -1.4
v 0.3 2.5 -1.4
v 0.2 2.5 -1.6
v 0.3 2.5 -1.6
v 0.1 2.6 -0.1
v 0.4 2.6 -0.1
v 0 2.6 -0.2
v 0.1 2.6 -0.2
v 0.4 2.6 -0.2
v 0.5 2.6 -0.2
v 0 2.6 -0.3
v 0.1 2.6 -0.3
v 0.4 2.6 -0.3
v 0.5 2.6 -0.3
v 0.2 2.6 -1.6
v 0.3 2.6 -1.6
v 0.2 2.6 -1.7
v 0.3 2.6 -1.7
v 0.1 2.7 -0.2
v 0.4 2.7 -0.2
v 0 2.7 -0.3
v 0.1 2.7 -0.3
v 0.4 2.7 -0.3
v 0.5 2.7 -0.3
v 0 2.7 -0.4
v 0.1 2.7 -0.4
v 0.4 2.7 -0.4
v 0.5 2.7 -0.4
v 0 2.8 -0.4
v 0.1 2.8 -0.4
v 0.4 2.8 -0.4
v 0.5 2.8 -0.4
v 0 2.8 -0.5
v 0.1 2.8 -0.5
v 0.4 2.8 -0.5
v 0.5 2.8 -0.5

# faces
f 5/1/1 2/1/1 1/1/1
f 6/1/1 2/1/1 5/1/1
f 7/1/1 4/1/1 3/1/1
f 8/1/1 4/1/1 7/1/1
f 10/1/1 7/1/1 6/1/1
f 11/1/1 7/1/1 10/1/1
f 13/2/1 9/2/1 8/2/1
f 15/2/1 12/2/1 11/2/1
f 15/2/1 11/2/1 10/2/1
f 16/2/1 12/2/1 15/2/1
f 17/2/1 12/2/1 16/2/1
f 18/2/1 14/2/1 13/2/1
f 18/2/1 13/2/1 8/2/1
f 19/2/1 14/2/1 18/2/1
f 22/2/1 17/2/1 16/2/1
f 22/2/1 18/2/1 17/2/1
f 23/2/1 18/2/1 22/2/1
f 24/2/1 14/2/1 19/2/1
f 25/2/1 14/2/1 24/2/1
f 26/3/1 21/3/1 20/3/1
f 27/3/1 21/3/1 26/3/1
f 29/1/1 28/1/1 27/1/1
f 30/1/1 28/1/1 29/1/1
f 32/1/1 31/1/1 30/1/1
f 33/1/1 31/1/1 32/1/1
f 39/2/1 35/2/1 34/2/1
f 40/2/1 35/2/1 39/2/1
f 42/2/1 37/2/1 36/2/1
f 43/2/1 37/2/1 42/2/1
f 46/2/1 41/2/1 40/2/1
f 46/2/1 39/2/1 38/2/1
f 46/2/1 40/2/1 39/2/1
f 47/2/1 46/2/1 45/2/1
f 48/2/1 41/2/1 46/2/1
f 48/2/1 46/2/1 47/2/1
f 49/2/1 41/2/1 48/2/1
f 50/2/1 41/2/1 49/2/1
f 51/2/1 44/2/1 43/2/1
f 52/2/1 44/2/1 51/2/1
f 53/2/1 47/2/1 45/2/1
f 54/2/1 47/2/1 53/2/1
f 55/2/1 49/2/1 48/2/1
f 56/2/1 49/2/1 55/2/1
f 57/2/1 55/2/1 54/2/1
f 58/2/1 55/2/1 57/2/1
f 66/2/1 60/2/1 59/2/1
f 67/2/1 60/2/1 66/2/1
f 68/2/1 62/2/1 61/2/1
f 69/1/1 63/1/1 62/1/1
f 69/2/1 62/2/1 68/2/1
f 70/1/1 63/1/1 69/1/1
f 72/1/1 65/1/1 64/1/1
f 73/1/1 65/1/1 72/1/1
f 74/1/1 71/1/1 70/1/1
f 75/1/1 71/1/1 74/1/1
f 77/1/1 76/1/1 75/1/1
f 78/1/1 76/1/1 77/1/1
f 83/2/1 80/2/1 79/2/1
f 84/2/1 80/2/1 83/2/1
f 85/2/1 82/2/1 81/2/1
f 86/2/1 82/2/1 85/2/1
f 91/1/1 88/1/1 87/1/1
f 92/1/1 88/1/1 91/1/1
f 93/1/1 90/1/1 89/1/1
f 94/1/1 90/1/1 93/1/1
f 96/1/1 93/1/1 92/1/1
f 97/1/1 93/1/1 96/1/1
f 98/2/1 95/2/1 94/2/1
f 99/2/1 95/2/1 98/2/1
f 102/1/1 101/1/1 100/1/1
f 103/1/1 101/1/1 102/1/1
f 104/1/2 105/1/2 108/1/2
f 108/1/2 105/1/2 109/1/2
f 106/1/2 107/1/2 110/1/2
f 110/1/2 107/1/2 111/1/2
f 109/1/2 110/1/2 113/1/2
f 113/1/2 110/1/2 114/1/2
f 111/2/2 112/2/2 115/2/2
f 115/2/2 112/2/2 116/2/2
f 117/1/2 118/1/2 119/1/2
f 119/1/2 118/1/2 120/1/2
f 121/2/2 122/2/2 125/2/2
f 125/2/2 122/2/2 126/2/2
f 123/2/2 124/2/2 127/2/2
f 127/2/2 124/2/2 128/2/2
f 129/2/2 130/2/2 136/2/2
f 136/2/2 130/2/2 137/2/2
f 131/2/2 132/2/2 138/2/2
f 132/1/2 133/1/2 139/1/2
f 138/2/2 132/2/2 139/2/2
f 139/1/2 133/1/2 140/1/2
f 134/1/2 135/1/2 142/1/2
f 142/1/2 135/1/2 143/1/2
f 140/1/2 141/1/2 144/1/2
f 144/1/2 141/1/2 145/1/2
f 145/1/2 146/1/2 147/1/2
f 147/1/2 146/1/2 148/1/2
f 149/2/2 150/2/2 154/2/2
f 154/2/2 150/2/2 155/2/2
f 151/2/2 152/2/2 157/2/2
f 157/2/2 152/2/2 158/2/2
f 155/2/2 156/2/2 161/2/2
f 153/2/2 154/2/2 161/2/2
f 154/2/2 155/2/2 161/2/2
f 160/2/2 161/2/2 162/2/2
f 161/2/2 156/2/2 163/2/2
f 162/2/2 161/2/2 163/2/2
f 163/2/2 156/2/2 164/2/2
f 164/2/2 156/2/2 165/2/2
f 158/2/2 159/2/2 166/2/2
f 166/2/2 159/2/2 167/2/2
f 160/2/2 162/2/2 168/2/2
f 168/2/2 162/2/2 169/2/2
f 163/2/2 164/2/2 170/2/2
f 170/2/2 164/2/2 171/2/2
f 169/2/2 170/2/2 172/2/2
f 172/2/2 170/2/2 173/2/2
f 174/1/2 175/1/2 178/1/2
f 178/1/2 175/1/2 179/1/2
f 176/1/2 177/1/2 180/1/2
f 180/1/2 177/1/2 181/1/2
f 179/1/2 180/1/2 183/1/2
f 183/1/2 180/1/2 184/1/2
f 181/2/2 182/2/2 186/2/2
f 184/2/2 185/2/2 188/2/2
f 183/2/2 184/2/2 188/2/2
f 188/2/2 185/2/2 189/2/2
f 189/2/2 185/2/2 190/2/2
f 186/2/2 187/2/2 191/2/2
f 181/2/2 186/2/2 191/2/2
f 191/2/2 187/2/2 192/2/2
f 189/2/2 190/2/2 195/2/2
f 190/2/2 191/2/2 195/2/2
f 195/2/2 191/2/2 196/2/2
f 192/2/2 187/2/2 197/2/2
f 197/2/2 187/2/2 198/2/2
f 193/3/2 194/3/2 199/3/2
f 199/3/2 194/3/2 200/3/2
f 200/1/2 201/1/2 202/1/2
f 202/1/2 201/1/2 203/1/2
f 203/1/2 204/1/2 205/1/2
f 205/1/2 204/1/2 206/1/2
f 209/1/3 208/1/3 207/1/3
f 210/1/3 208/1/3 209/1/3
f 213/2/3 212/2/3 211/2/3
f 214/2/3 212/2/3 213/2/3
f 216/2/3 212/2/3 214/2/3
f 217/2/3 216/2/3 215/2/3
f 218/2/3 212/2/3 216/2/3
f 218/2/3 216/2/3 217/2/3
f 221/3/3 220/3/3 219/3/3
f 222/3/3 220/3/3 221/3/3
f 226/2/3 225/2/3 224/2/3
f 227/2/3 225/2/3 226/2/3
f 229/2/3 223/2/3 222/2/3
f 230/2/3 223/2/3 229/2/3
f 231/3/3 229/3/3 228/3/3
f 232/3/3 229/3/3 231/3/3
f 237/1/3 234/1/3 233/1/3
f 238/1/3 234/1/3 237/1/3
f 239/2/3 236/2/3 235/2/3
f 240/2/3 236/2/3 239/2/3
f 243/2/3 242/2/3 241/2/3
f 244/2/3 242/2/3 243/2/3
f 247/1/3 246/1/3 245/1/3
f 248/1/3 246/1/3 247/1/3
f 253/1/3 250/1/3 249/1/3
f 254/1/3 250/1/3 253/1/3
f 257/1/3 252/1/3 251/1/3
f 258/1/3 252/1/3 257/1/3
f 261/2/3 256/2/3 255/2/3
f 262/2/3 256/2/3 261/2/3
f 265/1/3 260/1/3 259/1/3
f 266/1/3 260/1/3 265/1/3
f 267/1/3 264/1/3 263/1/3
f 268/1/3 264/1/3 267/1/3
f 272/1/3 270/1/3 269/1/3
f 273/2/3 271/2/3 270/2/3
f 273/1/3 270/1/3 272/1/3
f 274/2/3 271/2/3 273/2/3
f 277/2/3 276/2/3 275/2/3
f 278/2/3 276/2/3 277/2/3
f 282/1/3 280/1/3 279/1/3
f 283/2/3 281/2/3 280/2/3
f 283/1/3 280/1/3 282/1/3
f 284/2/3 281/2/3 283/2/3
f 289/1/3 286/1/3 285/1/3
f 290/1/3 286/1/3 289/1/3
f 291/2/3 288/2/3 287/2/3
f 292/2/3 288/2/3 291/2/3
f 297/1/3 294/1/3 293/1/3
f 298/1/3 294/1/3 297/1/3
f 299/2/3 296/2/3 295/2/3
f 300/2/3 296/2/3 299/2/3
f 303/2/3 302/2/3 301/2/3
f 304/2/3 302/2/3 303/2/3
f 305/2/3 302/2/3 304/2/3
f 309/2/3 307/2/3 306/2/3
f 309/2/3 308/2/3 307/2/3
f 310/2/3 308/2/3 309/2/3
f 313/2/3 312/2/3 311/2/3
f 314/2/3 312/2/3 313/2/3
f 317/2/3 316/2/3 315/2/3
f 318/2/3 316/2/3 317/2/3
f 321/2/3 320/2/3 319/2/3
f 322/2/3 320/2/3 321/2/3
f 325/1/3 324/1/3 323/1/3
f 326/1/3 324/1/3 325/1/3
f 329/1/3 328/1/3 327/1/3
f 330/1/3 328/1/3 329/1/3
f 331/3/4 332/3/4 333/3/4
f 333/3/4 332/3/4 334/3/4
f 335/3/4 336/3/4 337/3/4
f 337/3/4 336/3/4 338/3/4
f 339/1/4 340/1/4 342/1/4
f 342/1/4 340/1/4 343/1/4
f 344/2/4 345/2/4 346/2/4
f 346/2/4 345/2/4 347/2/4
f 341/2/4 342/2/4 348/2/4
f 342/2/4 343/2/4 348/2/4
f 348/2/4 343/2/4 349/2/4
f 349/2/4 343/2/4 350/2/4
f 349/1/4 350/1/4 351/1/4
f 351/1/4 350/1/4 352/1/4
f 353/1/4 354/1/4 357/1/4
f 357/1/4 354/1/4 358/1/4
f 355/1/4 356/1/4 359/1/4
f 359/1/4 356/1/4 360/1/4
f 361/1/4 362/1/4 365/1/4
f 365/1/4 362/1/4 366/1/4
f 363/1/4 364/1/4 367/1/4
f 367/1/4 364/1/4 368/1/4
f 369/1/4 370/1/4 371/1/4
f 371/1/4 370/1/4 372/1/4
f 373/2/4 374/2/4 375/2/4
f 375/2/4 374/2/4 376/2/4
f 377/1/4 378/1/4 379/1/4
f 379/1/4 378/1/4 380/1/4
f 381/2/4 382/2/4 383/2/4
f 383/2/4 382/2/4 384/2/4
f 385/2/4 386/2/4 387/2/4
f 387/2/4 386/2/4 388/2/4
f 389/1/4 390/1/4 393/1/4
f 393/1/4 390/1/4 394/1/4
f 391/2/4 392/2/4 395/2/4
f 395/2/4 392/2/4 396/2/4
f 397/1/4 398/1/4 401/1/4
f 401/1/4 398/1/4 402/1/4
f 399/2/4 400/2/4 403/2/4
f 403/2/4 400/2/4 404/2/4
f 405/2/4 406/2/4 407/2/4
f 407/2/4 406/2/4 408/2/4
f 409/2/4 410/2/4 411/2/4
f 411/2/4 410/2/4 412/2/4
f 413/2/4 414/2/4 415/2/4
f 415/2/4 414/2/4 416/2/4
f 413/2/4 415/2/4 417/2/4
f 416/2/4 414/2/4 418/2/4
f 413/2/4 417/2/4 419/2/4
f 417/2/4 418/2/4 419/2/4
f 418/2/4 414/2/4 420/2/4
f 419/2/4 418/2/4 420/2/4
f 421/1/4 422/1/4 423/1/4
f 423/1/4 422/1/4 424/1/4
f 425/1/4 426/1/4 427/1/4
f 427/1/4 426/1/4 428/1/4
f 429/1/4 430/1/4 431/1/4
f 431/1/4 430/1/4 432/1/4
f 437/1/5 434/1/5 433/1/5
f 438/1/5 434/1/5 437/1/5
f 439/1/5 436/1/5 435/1/5
f 440/1/5 436/1/5 439/1/5
f 445/1/5 442/1/5 441/1/5
f 446/1/5 442/1/5 445/1/5
f 447/1/5 444/1/5 443/1/5
f 448/1/5 444/1/5 447/1/5
f 453/1/5 450/1/5 449/1/5
f 454/1/5 450/1/5 453/1/5
f 455/1/5 452/1/5 451/1/5
f 456/1/5 452/1/5 455/1/5
f 461/2/5 458/2/5 457/2/5
f 462/2/5 458/2/5 461/2/5
f 463/2/5 460/2/5 459/2/5
f 464/2/5 460/2/5 463/2/5
f 467/2/5 466/2/5 465/2/5
f 468/2/5 466/2/5 467/2/5
f 470/2/5 468/2/5 467/2/5
f 471/2/5 468/2/5 470/2/5
f 473/2/5 471/2/5 470/2/5
f 473/2/5 472/2/5 471/2/5
f 473/2/5 470/2/5 469/2/5
f 474/2/5 472/2/5 473/2/5
f 475/2/5 472/2/5 474/2/5
f 476/2/5 472/2/5 475/2/5
f 477/2/5 475/2/5 474/2/5
f 478/2/5 475/2/5 477/2/5
f 480/2/5 478/2/5 477/2/5
f 481/2/5 478/2/5 480/2/5
f 483/2/5 481/2/5 480/2/5
f 483/2/5 482/2/5 481/2/5
f 483/2/5 480/2/5 479/2/5
f 484/2/5 482/2/5 483/2/5
f 488/2/5 486/2/5 485/2/5
f 489/2/5 486/2/5 488/2/5
f 491/2/5 488/2/5 487/2/5
f 491/2/5 490/2/5 489/2/5
f 491/2/5 489/2/5 488/2/5
f 492/2/5 490/2/5 491/2/5
f 497/2/5 494/2/5 493/2/5
f 498/2/5 494/2/5 497/2/5
f 499/2/5 496/2/5 495/2/5
f 500/2/5 496/2/5 499/2/5
f 503/2/5 502/2/5 501/2/5
f 504/2/5 502/2/5 503/2/5
f 505/1/5 504/1/5 503/1/5
f 506/1/5 504/1/5 505/1/5
f 510/1/5 508/1/5 507/1/5
f 511/1/5 508/1/5 510/1/5
f 513/2/5 510/2/5 509/2/5
f 513/2/5 512/2/5 511/2/5
f 513/2/5 511/2/5 510/2/5
f 514/2/5 512/2/5 513/2/5
f 515/2/5 513/2/5 509/2/5
f 516/2/5 513/2/5 515/2/5
f 517/2/5 512/2/5 514/2/5
f 518/2/5 512/2/5 517/2/5
f 521/2/5 520/2/5 519/2/5
f 522/2/5 520/2/5 521/2/5
f 525/2/5 524/2/5 523/2/5
f 526/2/5 524/2/5 525/2/5
f 529/1/5 528/1/5 527/1/5
f 530/1/5 528/1/5 529/1/5
f 535/3/5 532/3/5 531/3/5
f 536/3/5 532/3/5 535/3/5
f 537/3/5 534/3/5 533/3/5
f 538/3/5 534/3/5 537/3/5
f 541/1/5 540/1/5 539/1/5
f 542/1/5 540/1/5 541/1/5
f 547/1/5 544/1/5 543/1/5
f 548/1/5 544/1/5 547/1/5
f 549/1/5 546/1/5 545/1/5
f 550/1/5 546/1/5 549/1/5
f 555/1/5 552/1/5 551/1/5
f 556/1/5 552/1/5 555/1/5
f 557/1/5 554/1/5 553/1/5
f 558/1/5 554/1/5 557/1/5
f 559/1/6 560/1/6 563/1/6
f 563/1/6 560/1/6 564/1/6
f 561/1/6 562/1/6 565/1/6
f 565/1/6 562/1/6 566/1/6
f 567/1/6 568/1/6 571/1/6
f 571/1/6 568/1/6 572/1/6
f 569/1/6 570/1/6 573/1/6
f 573/1/6 570/1/6 574/1/6
f 575/2/6 576/2/6 579/2/6
f 579/2/6 576/2/6 580/2/6
f 577/2/6 578/2/6 583/2/6
f 583/2/6 578/2/6 584/2/6
f 581/2/6 582/2/6 587/2/6
f 587/2/6 582/2/6 588/2/6
f 589/2/6 590/2/6 593/2/6
f 593/2/6 590/2/6 594/2/6
f 591/2/6 592/2/6 595/2/6
f 595/2/6 592/2/6 596/2/6
f 585/2/6 586/2/6 597/2/6
f 597/2/6 586/2/6 598/2/6
f 599/2/6 600/2/6 601/2/6
f 601/2/6 600/2/6 602/2/6
f 601/1/6 602/1/6 603/1/6
f 603/1/6 602/1/6 604/1/6
f 605/1/6 606/1/6 607/1/6
f 607/1/6 606/1/6 608/1/6
f 609/2/6 610/2/6 612/2/6
f 612/2/6 610/2/6 613/2/6
f 611/2/6 612/2/6 615/2/6
f 613/2/6 614/2/6 615/2/6
f 612/2/6 613/2/6 615/2/6
f 615/2/6 614/2/6 616/2/6
f 616/2/6 614/2/6 617/2/6
f 617/2/6 614/2/6 618/2/6
f 616/2/6 617/2/6 620/2/6
f 620/2/6 617/2/6 621/2/6
f 619/2/6 620/2/6 623/2/6
f 621/2/6 622/2/6 623/2/6
f 620/2/6 621/2/6 623/2/6
f 623/2/6 622/2/6 624/2/6
f 625/1/6 626/1/6 627/1/6
f 627/1/6 626/1/6 628/1/6
f 629/2/6 630/2/6 632/2/6
f 632/2/6 630/2/6 633/2/6
f 631/3/6 632/3/6 635/3/6
f 635/3/6 632/3/6 636/3/6
f 633/3/6 634/3/6 637/3/6
f 637/3/6 634/3/6 638/3/6
f 639/1/6 640/1/6 641/1/6
f 641/1/6 640/1/6 642/1/6
f 643/2/6 644/2/6 646/2/6
f 646/2/6 644/2/6 647/2/6
f 645/1/6 646/1/6 649/1/6
f 646/2/6 647/2/6 650/2/6
f 649/1/6 646/1/6 650/1/6
f 647/1/6 648/1/6 651/1/6
f 650/2/6 647/2/6 651/2/6
f 651/1/6 648/1/6 652/1/6
f 653/1/6 654/1/6 657/1/6
f 657/1/6 654/1/6 658/1/6
f 655/1/6 656/1/6 659/1/6
f 659/1/6 656/1/6 660/1/6
