# MagicaVoxel @ Ephtracy

# group
o 

# material
mtllib rat_air_1.mtl
usemtl palette

# normals
vn -1 0 0
vn 1 0 0
vn 0 0 1
vn 0 0 -1
vn 0 -1 0
vn 0 1 0

# texcoords
vt 0.0292969 0.5
vt 0.982422 0.5
vt 0.994141 0.5

# verts
v 0 2 -1
v 0 2 -1.3
v 0 2 -1.5
v 0 2.1 -1
v 0 2.1 -1.3
v 0 2.1 -1.5
v 0.1 2 0
v 0.1 2 -0.2
v 0.1 2 -0.5
v 0.1 2.1 0
v 0.1 2.1 -0.2
v 0.1 2.1 -0.5
v 0.1 2.1 -0.9
v 0.1 2.1 -1
v 0.1 2.1 -1.1
v 0.1 2.2 -0.9
v 0.1 2.2 -1.1
v 0.2 2.1 -0.4
v 0.2 2.1 -0.5
v 0.2 2.1 -0.6
v 0.2 2.2 -0.4
v 0.2 2.2 -0.6
v 0.3 2.2 -0.9
v 0.3 2.2 -1.1
v 0.3 2.3 -0.2
v 0.3 2.3 -0.3
v 0.3 2.3 -0.9
v 0.3 2.3 -1.1
v 0.3 2.4 -0.2
v 0.3 2.4 -0.3
v 0.3 2.4 -0.4
v 0.3 2.6 -0.3
v 0.3 2.6 -0.4
v 0.4 2.1 -0.3
v 0.4 2.1 -0.4
v 0.4 2.1 -0.6
v 0.4 2.1 -0.9
v 0.4 2.2 -0.1
v 0.4 2.2 -0.3
v 0.4 2.2 -0.4
v 0.4 2.2 -0.6
v 0.4 2.3 -0.2
v 0.4 2.3 -0.3
v 0.4 2.3 -0.9
v 0.4 2.3 -1.1
v 0.4 2.4 -0.1
v 0.4 2.4 -0.2
v 0.4 2.4 -0.3
v 0.4 2.4 -0.4
v 0.4 2.4 -1.1
v 0.4 2.5 -0.2
v 0.4 2.5 -0.3
v 0.5 2.1 -0.2
v 0.5 2.1 -0.3
v 0.5 2.2 0
v 0.5 2.2 -0.1
v 0.5 2.2 -0.2
v 0.5 2.2 -0.3
v 0.5 2.2 -1.1
v 0.5 2.2 -1.2
v 0.5 2.2 -1.7
v 0.5 2.3 0
v 0.5 2.3 -0.1
v 0.5 2.3 -1.1
v 0.5 2.3 -1.2
v 0.5 2.3 -1.7
v 0.6 2.2 -0.4
v 0.6 2.2 -0.6
v 0.6 2.2 -0.7
v 0.6 2.2 -0.8
v 0.6 2.2 -1
v 0.6 2.2 -1.1
v 0.6 2.3 -0.4
v 0.6 2.3 -0.6
v 0.6 2.3 -0.7
v 0.6 2.3 -0.8
v 0.6 2.3 -1
v 0.6 2.3 -1.1
v 0.7 2.5 -0.3
v 0.7 2.5 -0.4
v 0.7 2.6 -0.3
v 0.7 2.6 -0.4
v 0.8 2 -0.4
v 0.8 2 -0.6
v 0.8 2.1 -0.4
v 0.8 2.1 -0.6
v 0.9 2 0
v 0.9 2 -0.2
v 0.9 2 -0.4
v 0.9 2.1 0
v 0.9 2.1 -0.2
v 0.9 2.1 -0.4
v 1 2 -1
v 1 2 -1.3
v 1 2 -1.5
v 1 2.1 -1
v 1 2.1 -1.1
v 1 2.1 -1.3
v 1 2.1 -1.5
v 0.1 2 -1
v 0.1 2 -1.3
v 0.1 2 -1.5
v 0.1 2.1 -1
v 0.1 2.1 -1.1
v 0.1 2.1 -1.3
v 0.1 2.1 -1.5
v 0.2 2 0
v 0.2 2 -0.2
v 0.2 2 -0.5
v 0.2 2.1 0
v 0.2 2.1 -0.2
v 0.2 2.1 -0.4
v 0.2 2.1 -0.5
v 0.4 2.5 -0.3
v 0.4 2.5 -0.4
v 0.4 2.6 -0.3
v 0.4 2.6 -0.4
v 0.5 2.2 -0.4
v 0.5 2.2 -0.6
v 0.5 2.2 -0.7
v 0.5 2.2 -0.8
v 0.5 2.2 -1
v 0.5 2.2 -1.1
v 0.5 2.3 -0.4
v 0.5 2.3 -0.6
v 0.5 2.3 -0.7
v 0.5 2.3 -0.8
v 0.5 2.3 -1
v 0.5 2.3 -1.1
v 0.6 2.1 -0.2
v 0.6 2.1 -0.3
v 0.6 2.2 0
v 0.6 2.2 -0.1
v 0.6 2.2 -0.2
v 0.6 2.2 -0.3
v 0.6 2.2 -1.1
v 0.6 2.2 -1.2
v 0.6 2.2 -1.7
v 0.6 2.3 0
v 0.6 2.3 -0.1
v 0.6 2.3 -1.1
v 0.6 2.3 -1.2
v 0.6 2.3 -1.7
v 0.7 2.1 -0.3
v 0.7 2.1 -0.4
v 0.7 2.1 -0.6
v 0.7 2.1 -0.9
v 0.7 2.2 -0.1
v 0.7 2.2 -0.3
v 0.7 2.2 -0.4
v 0.7 2.2 -0.6
v 0.7 2.3 -0.2
v 0.7 2.3 -0.3
v 0.7 2.3 -0.9
v 0.7 2.3 -1.1
v 0.7 2.4 -0.1
v 0.7 2.4 -0.2
v 0.7 2.4 -0.3
v 0.7 2.4 -0.4
v 0.7 2.4 -1.1
v 0.7 2.5 -0.2
v 0.7 2.5 -0.3
v 0.8 2.2 -0.9
v 0.8 2.2 -1.1
v 0.8 2.3 -0.2
v 0.8 2.3 -0.3
v 0.8 2.3 -0.9
v 0.8 2.3 -1.1
v 0.8 2.4 -0.2
v 0.8 2.4 -0.3
v 0.8 2.4 -0.4
v 0.8 2.6 -0.3
v 0.8 2.6 -0.4
v 0.9 2 -0.5
v 0.9 2 -0.6
v 0.9 2.1 -0.4
v 0.9 2.1 -0.5
v 0.9 2.2 -0.4
v 0.9 2.2 -0.6
v 1 2 0
v 1 2 -0.2
v 1 2 -0.5
v 1 2.1 0
v 1 2.1 -0.2
v 1 2.1 -0.5
v 1 2.1 -0.9
v 1 2.1 -1
v 1 2.1 -1.1
v 1 2.2 -0.9
v 1 2.2 -1.1
v 1.1 2 -1
v 1.1 2 -1.3
v 1.1 2 -1.5
v 1.1 2.1 -1
v 1.1 2.1 -1.3
v 1.1 2.1 -1.5
v 0.1 2 0
v 0.1 2.1 0
v 0.2 2 0
v 0.2 2.1 0
v 0.5 2.2 0
v 0.5 2.3 0
v 0.6 2.2 0
v 0.6 2.3 0
v 0.9 2 0
v 0.9 2.1 0
v 1 2 0
v 1 2.1 0
v 0.4 2.2 -0.1
v 0.4 2.4 -0.1
v 0.5 2.2 -0.1
v 0.5 2.3 -0.1
v 0.6 2.2 -0.1
v 0.6 2.3 -0.1
v 0.7 2.2 -0.1
v 0.7 2.4 -0.1
v 0.3 2.3 -0.2
v 0.3 2.4 -0.2
v 0.4 2.3 -0.2
v 0.4 2.4 -0.2
v 0.4 2.5 -0.2
v 0.5 2.1 -0.2
v 0.5 2.2 -0.2
v 0.6 2.1 -0.2
v 0.6 2.2 -0.2
v 0.7 2.3 -0.2
v 0.7 2.4 -0.2
v 0.7 2.5 -0.2
v 0.8 2.3 -0.2
v 0.8 2.4 -0.2
v 0.3 2.4 -0.3
v 0.3 2.6 -0.3
v 0.4 2.1 -0.3
v 0.4 2.2 -0.3
v 0.4 2.4 -0.3
v 0.4 2.5 -0.3
v 0.4 2.6 -0.3
v 0.5 2.1 -0.3
v 0.5 2.2 -0.3
v 0.6 2.1 -0.3
v 0.6 2.2 -0.3
v 0.7 2.1 -0.3
v 0.7 2.2 -0.3
v 0.7 2.4 -0.3
v 0.7 2.5 -0.3
v 0.7 2.6 -0.3
v 0.8 2.4 -0.3
v 0.8 2.6 -0.3
v 0.2 2.1 -0.4
v 0.2 2.2 -0.4
v 0.4 2.1 -0.4
v 0.4 2.2 -0.4
v 0.7 2.1 -0.4
v 0.7 2.2 -0.4
v 0.8 2 -0.4
v 0.8 2.1 -0.4
v 0.9 2 -0.4
v 0.9 2.1 -0.4
v 0.9 2.2 -0.4
v 0.5 2.2 -0.6
v 0.5 2.3 -0.6
v 0.6 2.2 -0.6
v 0.6 2.3 -0.6
v 0.5 2.2 -0.8
v 0.5 2.3 -0.8
v 0.6 2.2 -0.8
v 0.6 2.3 -0.8
v 0.1 2.1 -0.9
v 0.1 2.2 -0.9
v 0.3 2.2 -0.9
v 0.3 2.3 -0.9
v 0.4 2.1 -0.9
v 0.4 2.3 -0.9
v 0.7 2.1 -0.9
v 0.7 2.3 -0.9
v 0.8 2.2 -0.9
v 0.8 2.3 -0.9
v 1 2.1 -0.9
v 1 2.2 -0.9
v 0 2 -1
v 0 2.1 -1
v 0.1 2 -1
v 0.1 2.1 -1
v 1 2 -1
v 1 2.1 -1
v 1.1 2 -1
v 1.1 2.1 -1
v 0.5 2.2 -1.1
v 0.5 2.3 -1.1
v 0.6 2.2 -1.1
v 0.6 2.3 -1.1
v 0.3 2.3 -0.3
v 0.3 2.4 -0.3
v 0.4 2.3 -0.3
v 0.4 2.4 -0.3
v 0.7 2.3 -0.3
v 0.7 2.4 -0.3
v 0.8 2.3 -0.3
v 0.8 2.4 -0.3
v 0.3 2.4 -0.4
v 0.3 2.6 -0.4
v 0.4 2.4 -0.4
v 0.4 2.5 -0.4
v 0.4 2.6 -0.4
v 0.5 2.2 -0.4
v 0.5 2.3 -0.4
v 0.6 2.2 -0.4
v 0.6 2.3 -0.4
v 0.7 2.4 -0.4
v 0.7 2.5 -0.4
v 0.7 2.6 -0.4
v 0.8 2.4 -0.4
v 0.8 2.6 -0.4
v 0.1 2 -0.5
v 0.1 2.1 -0.5
v 0.2 2 -0.5
v 0.2 2.1 -0.5
v 0.9 2 -0.5
v 0.9 2.1 -0.5
v 1 2 -0.5
v 1 2.1 -0.5
v 0.2 2.1 -0.6
v 0.2 2.2 -0.6
v 0.4 2.1 -0.6
v 0.4 2.2 -0.6
v 0.7 2.1 -0.6
v 0.7 2.2 -0.6
v 0.8 2 -0.6
v 0.8 2.1 -0.6
v 0.9 2 -0.6
v 0.9 2.2 -0.6
v 0.5 2.2 -0.7
v 0.5 2.3 -0.7
v 0.6 2.2 -0.7
v 0.6 2.3 -0.7
v 0.5 2.2 -1
v 0.5 2.3 -1
v 0.6 2.2 -1
v 0.6 2.3 -1
v 0.1 2.1 -1.1
v 0.1 2.2 -1.1
v 0.3 2.2 -1.1
v 0.3 2.3 -1.1
v 0.4 2.3 -1.1
v 0.4 2.4 -1.1
v 0.5 2.2 -1.1
v 0.5 2.3 -1.1
v 0.6 2.2 -1.1
v 0.6 2.3 -1.1
v 0.7 2.3 -1.1
v 0.7 2.4 -1.1
v 0.8 2.2 -1.1
v 0.8 2.3 -1.1
v 1 2.1 -1.1
v 1 2.2 -1.1
v 0 2 -1.5
v 0 2.1 -1.5
v 0.1 2 -1.5
v 0.1 2.1 -1.5
v 1 2 -1.5
v 1 2.1 -1.5
v 1.1 2 -1.5
v 1.1 2.1 -1.5
v 0.5 2.2 -1.7
v 0.5 2.3 -1.7
v 0.6 2.2 -1.7
v 0.6 2.3 -1.7
v 0.1 2 0
v 0.2 2 0
v 0.9 2 0
v 1 2 0
v 0.1 2 -0.2
v 0.2 2 -0.2
v 0.9 2 -0.2
v 1 2 -0.2
v 0.8 2 -0.4
v 0.9 2 -0.4
v 0.1 2 -0.5
v 0.2 2 -0.5
v 0.9 2 -0.5
v 1 2 -0.5
v 0.8 2 -0.6
v 0.9 2 -0.6
v 0 2 -1
v 0.1 2 -1
v 1 2 -1
v 1.1 2 -1
v 0 2 -1.3
v 0.1 2 -1.3
v 1 2 -1.3
v 1.1 2 -1.3
v 0 2 -1.5
v 0.1 2 -1.5
v 1 2 -1.5
v 1.1 2 -1.5
v 0.5 2.1 -0.2
v 0.6 2.1 -0.2
v 0.4 2.1 -0.3
v 0.5 2.1 -0.3
v 0.6 2.1 -0.3
v 0.7 2.1 -0.3
v 0.2 2.1 -0.4
v 0.4 2.1 -0.4
v 0.7 2.1 -0.4
v 0.8 2.1 -0.4
v 0.2 2.1 -0.5
v 0.2 2.1 -0.6
v 0.4 2.1 -0.6
v 0.7 2.1 -0.6
v 0.8 2.1 -0.6
v 0.1 2.1 -0.9
v 0.4 2.1 -0.9
v 0.7 2.1 -0.9
v 1 2.1 -0.9
v 0.1 2.1 -1
v 1 2.1 -1
v 0.1 2.1 -1.1
v 1 2.1 -1.1
v 0.5 2.2 0
v 0.6 2.2 0
v 0.4 2.2 -0.1
v 0.5 2.2 -0.1
v 0.6 2.2 -0.1
v 0.7 2.2 -0.1
v 0.5 2.2 -0.2
v 0.6 2.2 -0.2
v 0.4 2.2 -0.3
v 0.5 2.2 -0.3
v 0.6 2.2 -0.3
v 0.7 2.2 -0.3
v 0.5 2.2 -1.1
v 0.6 2.2 -1.1
v 0.5 2.2 -1.2
v 0.6 2.2 -1.2
v 0.5 2.2 -1.7
v 0.6 2.2 -1.7
v 0.3 2.3 -0.2
v 0.4 2.3 -0.2
v 0.7 2.3 -0.2
v 0.8 2.3 -0.2
v 0.3 2.3 -0.3
v 0.4 2.3 -0.3
v 0.7 2.3 -0.3
v 0.8 2.3 -0.3
v 0.5 2.3 -0.4
v 0.6 2.3 -0.4
v 0.5 2.3 -0.6
v 0.6 2.3 -0.6
v 0.5 2.3 -0.7
v 0.6 2.3 -0.7
v 0.5 2.3 -0.8
v 0.6 2.3 -0.8
v 0.5 2.3 -1
v 0.6 2.3 -1
v 0.5 2.3 -1.1
v 0.6 2.3 -1.1
v 0.3 2.4 -0.3
v 0.4 2.4 -0.3
v 0.7 2.4 -0.3
v 0.8 2.4 -0.3
v 0.3 2.4 -0.4
v 0.4 2.4 -0.4
v 0.7 2.4 -0.4
v 0.8 2.4 -0.4
v 0.1 2.1 0
v 0.2 2.1 0
v 0.9 2.1 0
v 1 2.1 0
v 0.1 2.1 -0.2
v 0.2 2.1 -0.2
v 0.9 2.1 -0.2
v 1 2.1 -0.2
v 0.2 2.1 -0.4
v 0.9 2.1 -0.4
v 0.1 2.1 -0.5
v 0.2 2.1 -0.5
v 0.9 2.1 -0.5
v 1 2.1 -0.5
v 0 2.1 -1
v 0.1 2.1 -1
v 1 2.1 -1
v 1.1 2.1 -1
v 0.1 2.1 -1.1
v 1 2.1 -1.1
v 0 2.1 -1.3
v 0.1 2.1 -1.3
v 1 2.1 -1.3
v 1.1 2.1 -1.3
v 0 2.1 -1.5
v 0.1 2.1 -1.5
v 1 2.1 -1.5
v 1.1 2.1 -1.5
v 0.2 2.2 -0.4
v 0.4 2.2 -0.4
v 0.5 2.2 -0.4
v 0.6 2.2 -0.4
v 0.7 2.2 -0.4
v 0.9 2.2 -0.4
v 0.2 2.2 -0.6
v 0.4 2.2 -0.6
v 0.5 2.2 -0.6
v 0.6 2.2 -0.6
v 0.7 2.2 -0.6
v 0.9 2.2 -0.6
v 0.5 2.2 -0.7
v 0.6 2.2 -0.7
v 0.5 2.2 -0.8
v 0.6 2.2 -0.8
v 0.1 2.2 -0.9
v 0.3 2.2 -0.9
v 0.8 2.2 -0.9
v 1 2.2 -0.9
v 0.5 2.2 -1
v 0.6 2.2 -1
v 0.1 2.2 -1.1
v 0.3 2.2 -1.1
v 0.5 2.2 -1.1
v 0.6 2.2 -1.1
v 0.8 2.2 -1.1
v 1 2.2 -1.1
v 0.5 2.3 0
v 0.6 2.3 0
v 0.5 2.3 -0.1
v 0.6 2.3 -0.1
v 0.3 2.3 -0.9
v 0.4 2.3 -0.9
v 0.7 2.3 -0.9
v 0.8 2.3 -0.9
v 0.3 2.3 -1.1
v 0.4 2.3 -1.1
v 0.5 2.3 -1.1
v 0.6 2.3 -1.1
v 0.7 2.3 -1.1
v 0.8 2.3 -1.1
v 0.5 2.3 -1.2
v 0.6 2.3 -1.2
v 0.5 2.3 -1.7
v 0.6 2.3 -1.7
v 0.4 2.4 -0.1
v 0.7 2.4 -0.1
v 0.3 2.4 -0.2
v 0.4 2.4 -0.2
v 0.7 2.4 -0.2
v 0.8 2.4 -0.2
v 0.3 2.4 -0.3
v 0.4 2.4 -0.3
v 0.7 2.4 -0.3
v 0.8 2.4 -0.3
v 0.4 2.4 -0.4
v 0.7 2.4 -0.4
v 0.4 2.4 -1.1
v 0.7 2.4 -1.1
v 0.4 2.5 -0.2
v 0.7 2.5 -0.2
v 0.4 2.5 -0.3
v 0.7 2.5 -0.3
v 0.4 2.5 -0.4
v 0.7 2.5 -0.4
v 0.3 2.6 -0.3
v 0.4 2.6 -0.3
v 0.7 2.6 -0.3
v 0.8 2.6 -0.3
v 0.3 2.6 -0.4
v 0.4 2.6 -0.4
v 0.7 2.6 -0.4
v 0.8 2.6 -0.4

# faces
f 4/2/1 2/2/1 1/2/1
f 5/1/1 3/1/1 2/1/1
f 5/2/1 2/2/1 4/2/1
f 6/1/1 3/1/1 5/1/1
f 10/1/1 8/1/1 7/1/1
f 11/2/1 9/2/1 8/2/1
f 11/1/1 8/1/1 10/1/1
f 12/2/1 9/2/1 11/2/1
f 16/2/1 15/2/1 14/2/1
f 16/2/1 14/2/1 13/2/1
f 17/2/1 15/2/1 16/2/1
f 21/2/1 19/2/1 18/2/1
f 21/2/1 20/2/1 19/2/1
f 22/2/1 20/2/1 21/2/1
f 27/2/1 24/2/1 23/2/1
f 28/2/1 24/2/1 27/2/1
f 29/3/1 26/3/1 25/3/1
f 30/3/1 26/3/1 29/3/1
f 32/1/1 31/1/1 30/1/1
f 33/1/1 31/1/1 32/1/1
f 39/2/1 35/2/1 34/2/1
f 40/2/1 35/2/1 39/2/1
f 41/2/1 37/2/1 36/2/1
f 42/2/1 40/2/1 39/2/1
f 42/2/1 41/2/1 40/2/1
f 42/2/1 39/2/1 38/2/1
f 43/2/1 41/2/1 42/2/1
f 44/2/1 37/2/1 41/2/1
f 44/2/1 41/2/1 43/2/1
f 46/2/1 42/2/1 38/2/1
f 47/2/1 42/2/1 46/2/1
f 48/2/1 45/2/1 44/2/1
f 48/2/1 44/2/1 43/2/1
f 49/2/1 45/2/1 48/2/1
f 50/2/1 45/2/1 49/2/1
f 51/2/1 48/2/1 47/2/1
f 52/2/1 48/2/1 51/2/1
f 57/2/1 54/2/1 53/2/1
f 58/2/1 54/2/1 57/2/1
f 62/1/1 56/1/1 55/1/1
f 63/1/1 56/1/1 62/1/1
f 64/2/1 60/2/1 59/2/1
f 65/1/1 61/1/1 60/1/1
f 65/2/1 60/2/1 64/2/1
f 66/1/1 61/1/1 65/1/1
f 73/2/1 68/2/1 67/2/1
f 74/2/1 68/2/1 73/2/1
f 75/2/1 70/2/1 69/2/1
f 76/2/1 70/2/1 75/2/1
f 77/2/1 72/2/1 71/2/1
f 78/2/1 72/2/1 77/2/1
f 81/1/1 80/1/1 79/1/1
f 82/1/1 80/1/1 81/1/1
f 85/2/1 84/2/1 83/2/1
f 86/2/1 84/2/1 85/2/1
f 90/1/1 88/1/1 87/1/1
f 91/2/1 89/2/1 88/2/1
f 91/1/1 88/1/1 90/1/1
f 92/2/1 89/2/1 91/2/1
f 96/2/1 94/2/1 93/2/1
f 97/2/1 94/2/1 96/2/1
f 98/1/1 95/1/1 94/1/1
f 98/2/1 94/2/1 97/2/1
f 99/1/1 95/1/1 98/1/1
f 100/2/2 101/2/2 103/2/2
f 103/2/2 101/2/2 104/2/2
f 101/1/2 102/1/2 105/1/2
f 104/2/2 101/2/2 105/2/2
f 105/1/2 102/1/2 106/1/2
f 107/1/2 108/1/2 110/1/2
f 108/2/2 109/2/2 111/2/2
f 110/1/2 108/1/2 111/1/2
f 111/2/2 109/2/2 112/2/2
f 112/2/2 109/2/2 113/2/2
f 114/1/2 115/1/2 116/1/2
f 116/1/2 115/1/2 117/1/2
f 118/2/2 119/2/2 124/2/2
f 124/2/2 119/2/2 125/2/2
f 120/2/2 121/2/2 126/2/2
f 126/2/2 121/2/2 127/2/2
f 122/2/2 123/2/2 128/2/2
f 128/2/2 123/2/2 129/2/2
f 130/2/2 131/2/2 134/2/2
f 134/2/2 131/2/2 135/2/2
f 132/1/2 133/1/2 139/1/2
f 139/1/2 133/1/2 140/1/2
f 136/2/2 137/2/2 141/2/2
f 137/1/2 138/1/2 142/1/2
f 141/2/2 137/2/2 142/2/2
f 142/1/2 138/1/2 143/1/2
f 144/2/2 145/2/2 149/2/2
f 149/2/2 145/2/2 150/2/2
f 146/2/2 147/2/2 151/2/2
f 149/2/2 150/2/2 152/2/2
f 150/2/2 151/2/2 152/2/2
f 148/2/2 149/2/2 152/2/2
f 152/2/2 151/2/2 153/2/2
f 151/2/2 147/2/2 154/2/2
f 153/2/2 151/2/2 154/2/2
f 148/2/2 152/2/2 156/2/2
f 156/2/2 152/2/2 157/2/2
f 154/2/2 155/2/2 158/2/2
f 153/2/2 154/2/2 158/2/2
f 158/2/2 155/2/2 159/2/2
f 159/2/2 155/2/2 160/2/2
f 157/2/2 158/2/2 161/2/2
f 161/2/2 158/2/2 162/2/2
f 163/2/2 164/2/2 167/2/2
f 167/2/2 164/2/2 168/2/2
f 165/3/2 166/3/2 169/3/2
f 169/3/2 166/3/2 170/3/2
f 170/1/2 171/1/2 172/1/2
f 172/1/2 171/1/2 173/1/2
f 174/2/2 175/2/2 177/2/2
f 176/2/2 177/2/2 178/2/2
f 177/2/2 175/2/2 179/2/2
f 178/2/2 177/2/2 179/2/2
f 180/1/2 181/1/2 183/1/2
f 181/2/2 182/2/2 184/2/2
f 183/1/2 181/1/2 184/1/2
f 184/2/2 182/2/2 185/2/2
f 187/2/2 188/2/2 189/2/2
f 186/2/2 187/2/2 189/2/2
f 189/2/2 188/2/2 190/2/2
f 191/2/2 192/2/2 194/2/2
f 192/1/2 193/1/2 195/1/2
f 194/2/2 192/2/2 195/2/2
f 195/1/2 193/1/2 196/1/2
f 199/1/3 198/1/3 197/1/3
f 200/1/3 198/1/3 199/1/3
f 203/1/3 202/1/3 201/1/3
f 204/1/3 202/1/3 203/1/3
f 207/1/3 206/1/3 205/1/3
f 208/1/3 206/1/3 207/1/3
f 211/2/3 210/2/3 209/2/3
f 212/2/3 210/2/3 211/2/3
f 214/2/3 210/2/3 212/2/3
f 215/2/3 214/2/3 213/2/3
f 216/2/3 210/2/3 214/2/3
f 216/2/3 214/2/3 215/2/3
f 219/3/3 218/3/3 217/3/3
f 220/3/3 218/3/3 219/3/3
f 224/2/3 223/2/3 222/2/3
f 225/2/3 223/2/3 224/2/3
f 227/2/3 221/2/3 220/2/3
f 228/2/3 221/2/3 227/2/3
f 229/3/3 227/3/3 226/3/3
f 230/3/3 227/3/3 229/3/3
f 235/1/3 232/1/3 231/1/3
f 236/1/3 232/1/3 235/1/3
f 237/1/3 232/1/3 236/1/3
f 238/2/3 234/2/3 233/2/3
f 239/2/3 234/2/3 238/2/3
f 242/2/3 241/2/3 240/2/3
f 243/2/3 241/2/3 242/2/3
f 247/1/3 246/1/3 245/1/3
f 247/1/3 245/1/3 244/1/3
f 248/1/3 246/1/3 247/1/3
f 251/2/3 250/2/3 249/2/3
f 252/2/3 250/2/3 251/2/3
f 256/2/3 254/2/3 253/2/3
f 257/2/3 256/2/3 255/2/3
f 258/2/3 254/2/3 256/2/3
f 258/2/3 256/2/3 257/2/3
f 259/2/3 254/2/3 258/2/3
f 262/2/3 261/2/3 260/2/3
f 263/2/3 261/2/3 262/2/3
f 266/2/3 265/2/3 264/2/3
f 267/2/3 265/2/3 266/2/3
f 270/2/3 269/2/3 268/2/3
f 272/2/3 270/2/3 268/2/3
f 272/2/3 271/2/3 270/2/3
f 273/2/3 271/2/3 272/2/3
f 276/2/3 275/2/3 274/2/3
f 277/2/3 275/2/3 276/2/3
f 278/2/3 276/2/3 274/2/3
f 279/2/3 276/2/3 278/2/3
f 282/2/3 281/2/3 280/2/3
f 283/2/3 281/2/3 282/2/3
f 286/2/3 285/2/3 284/2/3
f 287/2/3 285/2/3 286/2/3
f 290/2/3 289/2/3 288/2/3
f 291/2/3 289/2/3 290/2/3
f 292/3/4 293/3/4 294/3/4
f 294/3/4 293/3/4 295/3/4
f 296/3/4 297/3/4 298/3/4
f 298/3/4 297/3/4 299/3/4
f 300/1/4 301/1/4 302/1/4
f 302/1/4 301/1/4 303/1/4
f 303/1/4 301/1/4 304/1/4
f 305/2/4 306/2/4 307/2/4
f 307/2/4 306/2/4 308/2/4
f 302/2/4 303/2/4 309/2/4
f 309/2/4 303/2/4 310/2/4
f 309/1/4 310/1/4 312/1/4
f 310/1/4 311/1/4 312/1/4
f 312/1/4 311/1/4 313/1/4
f 314/2/4 315/2/4 316/2/4
f 316/2/4 315/2/4 317/2/4
f 318/2/4 319/2/4 320/2/4
f 320/2/4 319/2/4 321/2/4
f 322/2/4 323/2/4 324/2/4
f 324/2/4 323/2/4 325/2/4
f 326/2/4 327/2/4 329/2/4
f 328/2/4 329/2/4 330/2/4
f 329/2/4 327/2/4 331/2/4
f 330/2/4 329/2/4 331/2/4
f 332/2/4 333/2/4 334/2/4
f 334/2/4 333/2/4 335/2/4
f 336/2/4 337/2/4 338/2/4
f 338/2/4 337/2/4 339/2/4
f 340/2/4 341/2/4 342/2/4
f 342/2/4 343/2/4 344/2/4
f 340/2/4 342/2/4 346/2/4
f 344/2/4 345/2/4 346/2/4
f 342/2/4 344/2/4 346/2/4
f 346/2/4 345/2/4 347/2/4
f 340/2/4 346/2/4 348/2/4
f 347/2/4 345/2/4 349/2/4
f 349/2/4 345/2/4 350/2/4
f 348/2/4 349/2/4 350/2/4
f 350/2/4 345/2/4 351/2/4
f 340/2/4 348/2/4 352/2/4
f 348/2/4 350/2/4 352/2/4
f 352/2/4 350/2/4 353/2/4
f 340/2/4 352/2/4 354/2/4
f 354/2/4 352/2/4 355/2/4
f 356/1/4 357/1/4 358/1/4
f 358/1/4 357/1/4 359/1/4
f 360/1/4 361/1/4 362/1/4
f 362/1/4 361/1/4 363/1/4
f 364/1/4 365/1/4 366/1/4
f 366/1/4 365/1/4 367/1/4
f 372/1/5 369/1/5 368/1/5
f 373/1/5 369/1/5 372/1/5
f 374/1/5 371/1/5 370/1/5
f 375/1/5 371/1/5 374/1/5
f 377/2/5 375/2/5 374/2/5
f 378/2/5 373/2/5 372/2/5
f 379/2/5 373/2/5 378/2/5
f 380/2/5 377/2/5 376/2/5
f 380/2/5 375/2/5 377/2/5
f 381/2/5 375/2/5 380/2/5
f 382/2/5 380/2/5 376/2/5
f 383/2/5 380/2/5 382/2/5
f 388/2/5 385/2/5 384/2/5
f 389/2/5 385/2/5 388/2/5
f 390/2/5 387/2/5 386/2/5
f 391/2/5 387/2/5 390/2/5
f 392/1/5 389/1/5 388/1/5
f 393/1/5 389/1/5 392/1/5
f 394/1/5 391/1/5 390/1/5
f 395/1/5 391/1/5 394/1/5
f 399/2/5 397/2/5 396/2/5
f 400/2/5 397/2/5 399/2/5
f 403/2/5 399/2/5 398/2/5
f 403/2/5 401/2/5 400/2/5
f 403/2/5 400/2/5 399/2/5
f 404/2/5 401/2/5 403/2/5
f 406/2/5 403/2/5 402/2/5
f 406/2/5 405/2/5 404/2/5
f 406/2/5 404/2/5 403/2/5
f 407/2/5 405/2/5 406/2/5
f 408/2/5 405/2/5 407/2/5
f 409/2/5 405/2/5 408/2/5
f 410/2/5 405/2/5 409/2/5
f 412/2/5 409/2/5 408/2/5
f 413/2/5 409/2/5 412/2/5
f 415/2/5 413/2/5 412/2/5
f 415/2/5 414/2/5 413/2/5
f 415/2/5 412/2/5 411/2/5
f 416/2/5 414/2/5 415/2/5
f 417/2/5 416/2/5 415/2/5
f 418/2/5 416/2/5 417/2/5
f 422/1/5 420/1/5 419/1/5
f 423/1/5 420/1/5 422/1/5
f 425/2/5 422/2/5 421/2/5
f 425/2/5 424/2/5 423/2/5
f 425/2/5 423/2/5 422/2/5
f 426/2/5 424/2/5 425/2/5
f 427/2/5 425/2/5 421/2/5
f 428/2/5 425/2/5 427/2/5
f 429/2/5 424/2/5 426/2/5
f 430/2/5 424/2/5 429/2/5
f 433/2/5 432/2/5 431/2/5
f 434/2/5 432/2/5 433/2/5
f 435/1/5 434/1/5 433/1/5
f 436/1/5 434/1/5 435/1/5
f 441/3/5 438/3/5 437/3/5
f 442/3/5 438/3/5 441/3/5
f 443/3/5 440/3/5 439/3/5
f 444/3/5 440/3/5 443/3/5
f 447/2/5 446/2/5 445/2/5
f 448/2/5 446/2/5 447/2/5
f 451/2/5 450/2/5 449/2/5
f 452/2/5 450/2/5 451/2/5
f 455/2/5 454/2/5 453/2/5
f 456/2/5 454/2/5 455/2/5
f 461/1/5 458/1/5 457/1/5
f 462/1/5 458/1/5 461/1/5
f 463/1/5 460/1/5 459/1/5
f 464/1/5 460/1/5 463/1/5
f 465/1/6 466/1/6 469/1/6
f 469/1/6 466/1/6 470/1/6
f 467/1/6 468/1/6 471/1/6
f 471/1/6 468/1/6 472/1/6
f 469/2/6 470/2/6 473/2/6
f 471/2/6 472/2/6 474/2/6
f 469/2/6 473/2/6 475/2/6
f 475/2/6 473/2/6 476/2/6
f 474/2/6 472/2/6 477/2/6
f 477/2/6 472/2/6 478/2/6
f 479/2/6 480/2/6 483/2/6
f 481/2/6 482/2/6 484/2/6
f 479/2/6 483/2/6 485/2/6
f 485/2/6 483/2/6 486/2/6
f 484/2/6 482/2/6 487/2/6
f 487/2/6 482/2/6 488/2/6
f 485/1/6 486/1/6 489/1/6
f 489/1/6 486/1/6 490/1/6
f 487/1/6 488/1/6 491/1/6
f 491/1/6 488/1/6 492/1/6
f 493/2/6 494/2/6 499/2/6
f 499/2/6 494/2/6 500/2/6
f 495/2/6 496/2/6 501/2/6
f 501/2/6 496/2/6 502/2/6
f 497/2/6 498/2/6 503/2/6
f 503/2/6 498/2/6 504/2/6
f 505/2/6 506/2/6 507/2/6
f 507/2/6 506/2/6 508/2/6
f 509/2/6 510/2/6 515/2/6
f 515/2/6 510/2/6 516/2/6
f 513/2/6 514/2/6 517/2/6
f 517/2/6 514/2/6 518/2/6
f 511/2/6 512/2/6 519/2/6
f 519/2/6 512/2/6 520/2/6
f 521/1/6 522/1/6 523/1/6
f 523/1/6 522/1/6 524/1/6
f 525/2/6 526/2/6 529/2/6
f 529/2/6 526/2/6 530/2/6
f 527/2/6 528/2/6 533/2/6
f 533/2/6 528/2/6 534/2/6
f 531/2/6 532/2/6 535/2/6
f 535/2/6 532/2/6 536/2/6
f 535/1/6 536/1/6 537/1/6
f 537/1/6 536/1/6 538/1/6
f 539/2/6 540/2/6 542/2/6
f 542/2/6 540/2/6 543/2/6
f 541/3/6 542/3/6 545/3/6
f 545/3/6 542/3/6 546/3/6
f 543/3/6 544/3/6 547/3/6
f 547/3/6 544/3/6 548/3/6
f 549/2/6 550/2/6 551/2/6
f 551/2/6 550/2/6 552/2/6
f 553/2/6 554/2/6 555/2/6
f 555/2/6 554/2/6 556/2/6
f 555/2/6 556/2/6 557/2/6
f 557/2/6 556/2/6 558/2/6
f 559/1/6 560/1/6 563/1/6
f 563/1/6 560/1/6 564/1/6
f 561/1/6 562/1/6 565/1/6
f 565/1/6 562/1/6 566/1/6
