# MagicaVoxel @ Ephtracy

# group
o 

# material
mtllib rat_air_0.mtl
usemtl palette

# normals
vn -1 0 0
vn 1 0 0
vn 0 0 1
vn 0 0 -1
vn 0 -1 0
vn 0 1 0

# texcoords
vt 0.0292969 0.5
vt 0.982422 0.5
vt 0.994141 0.5

# verts
v 0 2 -1
v 0 2 -1.3
v 0 2 -1.5
v 0 2.1 -1
v 0 2.1 -1.3
v 0 2.1 -1.5
v 0.1 2 0
v 0.1 2 -0.2
v 0.1 2 -0.5
v 0.1 2.1 0
v 0.1 2.1 -0.2
v 0.1 2.1 -0.5
v 0.1 2.1 -0.9
v 0.1 2.1 -1
v 0.1 2.1 -1.1
v 0.1 2.2 -0.9
v 0.1 2.2 -1.1
v 0.2 2.1 -0.4
v 0.2 2.1 -0.5
v 0.2 2.1 -0.6
v 0.2 2.2 -0.4
v 0.2 2.2 -0.6
v 0.3 2.2 -0.9
v 0.3 2.2 -1.1
v 0.3 2.3 -0.2
v 0.3 2.3 -0.3
v 0.3 2.3 -0.9
v 0.3 2.3 -1.1
v 0.3 2.4 -0.2
v 0.3 2.4 -0.3
v 0.3 2.4 -0.4
v 0.3 2.5 -0.3
v 0.3 2.5 -0.4
v 0.3 2.5 -0.5
v 0.3 2.6 -0.4
v 0.3 2.6 -0.5
v 0.4 2.1 -0.3
v 0.4 2.1 -0.4
v 0.4 2.1 -0.6
v 0.4 2.1 -0.9
v 0.4 2.2 -0.1
v 0.4 2.2 -0.3
v 0.4 2.2 -0.4
v 0.4 2.2 -0.6
v 0.4 2.3 -0.2
v 0.4 2.3 -0.3
v 0.4 2.3 -0.9
v 0.4 2.3 -1.1
v 0.4 2.4 -0.1
v 0.4 2.4 -0.2
v 0.4 2.4 -0.3
v 0.4 2.4 -0.4
v 0.4 2.4 -1.1
v 0.4 2.5 -0.2
v 0.4 2.5 -0.3
v 0.5 2.1 -0.2
v 0.5 2.1 -0.3
v 0.5 2.2 0
v 0.5 2.2 -0.1
v 0.5 2.2 -0.2
v 0.5 2.2 -0.3
v 0.5 2.2 -1.1
v 0.5 2.2 -1.2
v 0.5 2.2 -1.4
v 0.5 2.3 0
v 0.5 2.3 -0.1
v 0.5 2.3 -1.1
v 0.5 2.3 -1.2
v 0.5 2.3 -1.4
v 0.6 2.2 -0.4
v 0.6 2.2 -0.6
v 0.6 2.2 -0.7
v 0.6 2.2 -0.8
v 0.6 2.2 -1
v 0.6 2.2 -1.1
v 0.6 2.2 -1.4
v 0.6 2.2 -1.6
v 0.6 2.3 -0.4
v 0.6 2.3 -0.6
v 0.6 2.3 -0.7
v 0.6 2.3 -0.8
v 0.6 2.3 -1
v 0.6 2.3 -1.1
v 0.6 2.3 -1.4
v 0.6 2.3 -1.6
v 0.7 2.2 -1.6
v 0.7 2.2 -1.7
v 0.7 2.3 -1.6
v 0.7 2.3 -1.7
v 0.7 2.5 -0.4
v 0.7 2.5 -0.5
v 0.7 2.6 -0.4
v 0.7 2.6 -0.5
v 0.8 2 -0.4
v 0.8 2 -0.6
v 0.8 2.1 -0.4
v 0.8 2.1 -0.6
v 0.9 2 0
v 0.9 2 -0.2
v 0.9 2 -0.4
v 0.9 2.1 0
v 0.9 2.1 -0.2
v 0.9 2.1 -0.4
v 1 2 -1
v 1 2 -1.3
v 1 2 -1.5
v 1 2.1 -1
v 1 2.1 -1.1
v 1 2.1 -1.3
v 1 2.1 -1.5
v 0.1 2 -1
v 0.1 2 -1.3
v 0.1 2 -1.5
v 0.1 2.1 -1
v 0.1 2.1 -1.1
v 0.1 2.1 -1.3
v 0.1 2.1 -1.5
v 0.2 2 0
v 0.2 2 -0.2
v 0.2 2 -0.5
v 0.2 2.1 0
v 0.2 2.1 -0.2
v 0.2 2.1 -0.4
v 0.2 2.1 -0.5
v 0.4 2.5 -0.4
v 0.4 2.5 -0.5
v 0.4 2.6 -0.4
v 0.4 2.6 -0.5
v 0.5 2.2 -0.4
v 0.5 2.2 -0.6
v 0.5 2.2 -0.7
v 0.5 2.2 -0.8
v 0.5 2.2 -1
v 0.5 2.2 -1.1
v 0.5 2.3 -0.4
v 0.5 2.3 -0.6
v 0.5 2.3 -0.7
v 0.5 2.3 -0.8
v 0.5 2.3 -1
v 0.5 2.3 -1.1
v 0.6 2.1 -0.2
v 0.6 2.1 -0.3
v 0.6 2.2 0
v 0.6 2.2 -0.1
v 0.6 2.2 -0.2
v 0.6 2.2 -0.3
v 0.6 2.2 -1.1
v 0.6 2.2 -1.2
v 0.6 2.2 -1.4
v 0.6 2.3 0
v 0.6 2.3 -0.1
v 0.6 2.3 -1.1
v 0.6 2.3 -1.2
v 0.6 2.3 -1.4
v 0.7 2.1 -0.3
v 0.7 2.1 -0.4
v 0.7 2.1 -0.6
v 0.7 2.1 -0.9
v 0.7 2.2 -0.1
v 0.7 2.2 -0.3
v 0.7 2.2 -0.4
v 0.7 2.2 -0.6
v 0.7 2.2 -1.4
v 0.7 2.2 -1.6
v 0.7 2.3 -0.2
v 0.7 2.3 -0.3
v 0.7 2.3 -0.9
v 0.7 2.3 -1.1
v 0.7 2.3 -1.4
v 0.7 2.3 -1.6
v 0.7 2.4 -0.1
v 0.7 2.4 -0.2
v 0.7 2.4 -0.3
v 0.7 2.4 -0.4
v 0.7 2.4 -1.1
v 0.7 2.5 -0.2
v 0.7 2.5 -0.3
v 0.8 2.2 -0.9
v 0.8 2.2 -1.1
v 0.8 2.2 -1.6
v 0.8 2.2 -1.7
v 0.8 2.3 -0.2
v 0.8 2.3 -0.3
v 0.8 2.3 -0.9
v 0.8 2.3 -1.1
v 0.8 2.3 -1.6
v 0.8 2.3 -1.7
v 0.8 2.4 -0.2
v 0.8 2.4 -0.3
v 0.8 2.4 -0.4
v 0.8 2.5 -0.3
v 0.8 2.5 -0.4
v 0.8 2.5 -0.5
v 0.8 2.6 -0.4
v 0.8 2.6 -0.5
v 0.9 2 -0.5
v 0.9 2 -0.6
v 0.9 2.1 -0.4
v 0.9 2.1 -0.5
v 0.9 2.2 -0.4
v 0.9 2.2 -0.6
v 1 2 0
v 1 2 -0.2
v 1 2 -0.5
v 1 2.1 0
v 1 2.1 -0.2
v 1 2.1 -0.5
v 1 2.1 -0.9
v 1 2.1 -1
v 1 2.1 -1.1
v 1 2.2 -0.9
v 1 2.2 -1.1
v 1.1 2 -1
v 1.1 2 -1.3
v 1.1 2 -1.5
v 1.1 2.1 -1
v 1.1 2.1 -1.3
v 1.1 2.1 -1.5
v 0.1 2 0
v 0.1 2.1 0
v 0.2 2 0
v 0.2 2.1 0
v 0.5 2.2 0
v 0.5 2.3 0
v 0.6 2.2 0
v 0.6 2.3 0
v 0.9 2 0
v 0.9 2.1 0
v 1 2 0
v 1 2.1 0
v 0.4 2.2 -0.1
v 0.4 2.4 -0.1
v 0.5 2.2 -0.1
v 0.5 2.3 -0.1
v 0.6 2.2 -0.1
v 0.6 2.3 -0.1
v 0.7 2.2 -0.1
v 0.7 2.4 -0.1
v 0.3 2.3 -0.2
v 0.3 2.4 -0.2
v 0.4 2.3 -0.2
v 0.4 2.4 -0.2
v 0.4 2.5 -0.2
v 0.5 2.1 -0.2
v 0.5 2.2 -0.2
v 0.6 2.1 -0.2
v 0.6 2.2 -0.2
v 0.7 2.3 -0.2
v 0.7 2.4 -0.2
v 0.7 2.5 -0.2
v 0.8 2.3 -0.2
v 0.8 2.4 -0.2
v 0.3 2.4 -0.3
v 0.3 2.5 -0.3
v 0.4 2.1 -0.3
v 0.4 2.2 -0.3
v 0.4 2.4 -0.3
v 0.4 2.5 -0.3
v 0.5 2.1 -0.3
v 0.5 2.2 -0.3
v 0.6 2.1 -0.3
v 0.6 2.2 -0.3
v 0.7 2.1 -0.3
v 0.7 2.2 -0.3
v 0.7 2.4 -0.3
v 0.7 2.5 -0.3
v 0.8 2.4 -0.3
v 0.8 2.5 -0.3
v 0.2 2.1 -0.4
v 0.2 2.2 -0.4
v 0.3 2.5 -0.4
v 0.3 2.6 -0.4
v 0.4 2.1 -0.4
v 0.4 2.2 -0.4
v 0.4 2.5 -0.4
v 0.4 2.6 -0.4
v 0.7 2.1 -0.4
v 0.7 2.2 -0.4
v 0.7 2.5 -0.4
v 0.7 2.6 -0.4
v 0.8 2 -0.4
v 0.8 2.1 -0.4
v 0.8 2.5 -0.4
v 0.8 2.6 -0.4
v 0.9 2 -0.4
v 0.9 2.1 -0.4
v 0.9 2.2 -0.4
v 0.5 2.2 -0.6
v 0.5 2.3 -0.6
v 0.6 2.2 -0.6
v 0.6 2.3 -0.6
v 0.5 2.2 -0.8
v 0.5 2.3 -0.8
v 0.6 2.2 -0.8
v 0.6 2.3 -0.8
v 0.1 2.1 -0.9
v 0.1 2.2 -0.9
v 0.3 2.2 -0.9
v 0.3 2.3 -0.9
v 0.4 2.1 -0.9
v 0.4 2.3 -0.9
v 0.7 2.1 -0.9
v 0.7 2.3 -0.9
v 0.8 2.2 -0.9
v 0.8 2.3 -0.9
v 1 2.1 -0.9
v 1 2.2 -0.9
v 0 2 -1
v 0 2.1 -1
v 0.1 2 -1
v 0.1 2.1 -1
v 1 2 -1
v 1 2.1 -1
v 1.1 2 -1
v 1.1 2.1 -1
v 0.5 2.2 -1.1
v 0.5 2.3 -1.1
v 0.6 2.2 -1.1
v 0.6 2.3 -1.1
v 0.6 2.2 -1.4
v 0.6 2.3 -1.4
v 0.7 2.2 -1.4
v 0.7 2.3 -1.4
v 0.7 2.2 -1.6
v 0.7 2.3 -1.6
v 0.8 2.2 -1.6
v 0.8 2.3 -1.6
v 0.3 2.3 -0.3
v 0.3 2.4 -0.3
v 0.4 2.3 -0.3
v 0.4 2.4 -0.3
v 0.7 2.3 -0.3
v 0.7 2.4 -0.3
v 0.8 2.3 -0.3
v 0.8 2.4 -0.3
v 0.3 2.4 -0.4
v 0.3 2.5 -0.4
v 0.4 2.4 -0.4
v 0.4 2.5 -0.4
v 0.5 2.2 -0.4
v 0.5 2.3 -0.4
v 0.6 2.2 -0.4
v 0.6 2.3 -0.4
v 0.7 2.4 -0.4
v 0.7 2.5 -0.4
v 0.8 2.4 -0.4
v 0.8 2.5 -0.4
v 0.1 2 -0.5
v 0.1 2.1 -0.5
v 0.2 2 -0.5
v 0.2 2.1 -0.5
v 0.3 2.5 -0.5
v 0.3 2.6 -0.5
v 0.4 2.5 -0.5
v 0.4 2.6 -0.5
v 0.7 2.5 -0.5
v 0.7 2.6 -0.5
v 0.8 2.5 -0.5
v 0.8 2.6 -0.5
v 0.9 2 -0.5
v 0.9 2.1 -0.5
v 1 2 -0.5
v 1 2.1 -0.5
v 0.2 2.1 -0.6
v 0.2 2.2 -0.6
v 0.4 2.1 -0.6
v 0.4 2.2 -0.6
v 0.7 2.1 -0.6
v 0.7 2.2 -0.6
v 0.8 2 -0.6
v 0.8 2.1 -0.6
v 0.9 2 -0.6
v 0.9 2.2 -0.6
v 0.5 2.2 -0.7
v 0.5 2.3 -0.7
v 0.6 2.2 -0.7
v 0.6 2.3 -0.7
v 0.5 2.2 -1
v 0.5 2.3 -1
v 0.6 2.2 -1
v 0.6 2.3 -1
v 0.1 2.1 -1.1
v 0.1 2.2 -1.1
v 0.3 2.2 -1.1
v 0.3 2.3 -1.1
v 0.4 2.3 -1.1
v 0.4 2.4 -1.1
v 0.5 2.2 -1.1
v 0.5 2.3 -1.1
v 0.6 2.2 -1.1
v 0.6 2.3 -1.1
v 0.7 2.3 -1.1
v 0.7 2.4 -1.1
v 0.8 2.2 -1.1
v 0.8 2.3 -1.1
v 1 2.1 -1.1
v 1 2.2 -1.1
v 0.5 2.2 -1.4
v 0.5 2.3 -1.4
v 0.6 2.2 -1.4
v 0.6 2.3 -1.4
v 0 2 -1.5
v 0 2.1 -1.5
v 0.1 2 -1.5
v 0.1 2.1 -1.5
v 1 2 -1.5
v 1 2.1 -1.5
v 1.1 2 -1.5
v 1.1 2.1 -1.5
v 0.6 2.2 -1.6
v 0.6 2.3 -1.6
v 0.7 2.2 -1.6
v 0.7 2.3 -1.6
v 0.7 2.2 -1.7
v 0.7 2.3 -1.7
v 0.8 2.2 -1.7
v 0.8 2.3 -1.7
v 0.1 2 0
v 0.2 2 0
v 0.9 2 0
v 1 2 0
v 0.1 2 -0.2
v 0.2 2 -0.2
v 0.9 2 -0.2
v 1 2 -0.2
v 0.8 2 -0.4
v 0.9 2 -0.4
v 0.1 2 -0.5
v 0.2 2 -0.5
v 0.9 2 -0.5
v 1 2 -0.5
v 0.8 2 -0.6
v 0.9 2 -0.6
v 0 2 -1
v 0.1 2 -1
v 1 2 -1
v 1.1 2 -1
v 0 2 -1.3
v 0.1 2 -1.3
v 1 2 -1.3
v 1.1 2 -1.3
v 0 2 -1.5
v 0.1 2 -1.5
v 1 2 -1.5
v 1.1 2 -1.5
v 0.5 2.1 -0.2
v 0.6 2.1 -0.2
v 0.4 2.1 -0.3
v 0.5 2.1 -0.3
v 0.6 2.1 -0.3
v 0.7 2.1 -0.3
v 0.2 2.1 -0.4
v 0.4 2.1 -0.4
v 0.7 2.1 -0.4
v 0.8 2.1 -0.4
v 0.2 2.1 -0.5
v 0.2 2.1 -0.6
v 0.4 2.1 -0.6
v 0.7 2.1 -0.6
v 0.8 2.1 -0.6
v 0.1 2.1 -0.9
v 0.4 2.1 -0.9
v 0.7 2.1 -0.9
v 1 2.1 -0.9
v 0.1 2.1 -1
v 1 2.1 -1
v 0.1 2.1 -1.1
v 1 2.1 -1.1
v 0.5 2.2 0
v 0.6 2.2 0
v 0.4 2.2 -0.1
v 0.5 2.2 -0.1
v 0.6 2.2 -0.1
v 0.7 2.2 -0.1
v 0.5 2.2 -0.2
v 0.6 2.2 -0.2
v 0.4 2.2 -0.3
v 0.5 2.2 -0.3
v 0.6 2.2 -0.3
v 0.7 2.2 -0.3
v 0.5 2.2 -1.1
v 0.6 2.2 -1.1
v 0.5 2.2 -1.2
v 0.6 2.2 -1.2
v 0.5 2.2 -1.4
v 0.6 2.2 -1.4
v 0.7 2.2 -1.4
v 0.6 2.2 -1.6
v 0.7 2.2 -1.6
v 0.8 2.2 -1.6
v 0.7 2.2 -1.7
v 0.8 2.2 -1.7
v 0.3 2.3 -0.2
v 0.4 2.3 -0.2
v 0.7 2.3 -0.2
v 0.8 2.3 -0.2
v 0.3 2.3 -0.3
v 0.4 2.3 -0.3
v 0.7 2.3 -0.3
v 0.8 2.3 -0.3
v 0.5 2.3 -0.4
v 0.6 2.3 -0.4
v 0.5 2.3 -0.6
v 0.6 2.3 -0.6
v 0.5 2.3 -0.7
v 0.6 2.3 -0.7
v 0.5 2.3 -0.8
v 0.6 2.3 -0.8
v 0.5 2.3 -1
v 0.6 2.3 -1
v 0.5 2.3 -1.1
v 0.6 2.3 -1.1
v 0.3 2.4 -0.3
v 0.4 2.4 -0.3
v 0.7 2.4 -0.3
v 0.8 2.4 -0.3
v 0.3 2.4 -0.4
v 0.4 2.4 -0.4
v 0.7 2.4 -0.4
v 0.8 2.4 -0.4
v 0.3 2.5 -0.4
v 0.4 2.5 -0.4
v 0.7 2.5 -0.4
v 0.8 2.5 -0.4
v 0.3 2.5 -0.5
v 0.4 2.5 -0.5
v 0.7 2.5 -0.5
v 0.8 2.5 -0.5
v 0.1 2.1 0
v 0.2 2.1 0
v 0.9 2.1 0
v 1 2.1 0
v 0.1 2.1 -0.2
v 0.2 2.1 -0.2
v 0.9 2.1 -0.2
v 1 2.1 -0.2
v 0.2 2.1 -0.4
v 0.9 2.1 -0.4
v 0.1 2.1 -0.5
v 0.2 2.1 -0.5
v 0.9 2.1 -0.5
v 1 2.1 -0.5
v 0 2.1 -1
v 0.1 2.1 -1
v 1 2.1 -1
v 1.1 2.1 -1
v 0.1 2.1 -1.1
v 1 2.1 -1.1
v 0 2.1 -1.3
v 0.1 2.1 -1.3
v 1 2.1 -1.3
v 1.1 2.1 -1.3
v 0 2.1 -1.5
v 0.1 2.1 -1.5
v 1 2.1 -1.5
v 1.1 2.1 -1.5
v 0.2 2.2 -0.4
v 0.4 2.2 -0.4
v 0.5 2.2 -0.4
v 0.6 2.2 -0.4
v 0.7 2.2 -0.4
v 0.9 2.2 -0.4
v 0.2 2.2 -0.6
v 0.4 2.2 -0.6
v 0.5 2.2 -0.6
v 0.6 2.2 -0.6
v 0.7 2.2 -0.6
v 0.9 2.2 -0.6
v 0.5 2.2 -0.7
v 0.6 2.2 -0.7
v 0.5 2.2 -0.8
v 0.6 2.2 -0.8
v 0.1 2.2 -0.9
v 0.3 2.2 -0.9
v 0.8 2.2 -0.9
v 1 2.2 -0.9
v 0.5 2.2 -1
v 0.6 2.2 -1
v 0.1 2.2 -1.1
v 0.3 2.2 -1.1
v 0.5 2.2 -1.1
v 0.6 2.2 -1.1
v 0.8 2.2 -1.1
v 1 2.2 -1.1
v 0.5 2.3 0
v 0.6 2.3 0
v 0.5 2.3 -0.1
v 0.6 2.3 -0.1
v 0.3 2.3 -0.9
v 0.4 2.3 -0.9
v 0.7 2.3 -0.9
v 0.8 2.3 -0.9
v 0.3 2.3 -1.1
v 0.4 2.3 -1.1
v 0.5 2.3 -1.1
v 0.6 2.3 -1.1
v 0.7 2.3 -1.1
v 0.8 2.3 -1.1
v 0.5 2.3 -1.2
v 0.6 2.3 -1.2
v 0.5 2.3 -1.4
v 0.6 2.3 -1.4
v 0.7 2.3 -1.4
v 0.6 2.3 -1.6
v 0.7 2.3 -1.6
v 0.8 2.3 -1.6
v 0.7 2.3 -1.7
v 0.8 2.3 -1.7
v 0.4 2.4 -0.1
v 0.7 2.4 -0.1
v 0.3 2.4 -0.2
v 0.4 2.4 -0.2
v 0.7 2.4 -0.2
v 0.8 2.4 -0.2
v 0.3 2.4 -0.3
v 0.4 2.4 -0.3
v 0.7 2.4 -0.3
v 0.8 2.4 -0.3
v 0.4 2.4 -0.4
v 0.7 2.4 -0.4
v 0.4 2.4 -1.1
v 0.7 2.4 -1.1
v 0.4 2.5 -0.2
v 0.7 2.5 -0.2
v 0.3 2.5 -0.3
v 0.4 2.5 -0.3
v 0.7 2.5 -0.3
v 0.8 2.5 -0.3
v 0.3 2.5 -0.4
v 0.4 2.5 -0.4
v 0.7 2.5 -0.4
v 0.8 2.5 -0.4
v 0.3 2.6 -0.4
v 0.4 2.6 -0.4
v 0.7 2.6 -0.4
v 0.8 2.6 -0.4
v 0.3 2.6 -0.5
v 0.4 2.6 -0.5
v 0.7 2.6 -0.5
v 0.8 2.6 -0.5

# faces
f 4/2/1 2/2/1 1/2/1
f 5/1/1 3/1/1 2/1/1
f 5/2/1 2/2/1 4/2/1
f 6/1/1 3/1/1 5/1/1
f 10/1/1 8/1/1 7/1/1
f 11/2/1 9/2/1 8/2/1
f 11/1/1 8/1/1 10/1/1
f 12/2/1 9/2/1 11/2/1
f 16/2/1 15/2/1 14/2/1
f 16/2/1 14/2/1 13/2/1
f 17/2/1 15/2/1 16/2/1
f 21/2/1 19/2/1 18/2/1
f 21/2/1 20/2/1 19/2/1
f 22/2/1 20/2/1 21/2/1
f 27/2/1 24/2/1 23/2/1
f 28/2/1 24/2/1 27/2/1
f 29/3/1 26/3/1 25/3/1
f 30/3/1 26/3/1 29/3/1
f 32/1/1 31/1/1 30/1/1
f 33/1/1 31/1/1 32/1/1
f 35/1/1 34/1/1 33/1/1
f 36/1/1 34/1/1 35/1/1
f 42/2/1 38/2/1 37/2/1
f 43/2/1 38/2/1 42/2/1
f 44/2/1 40/2/1 39/2/1
f 45/2/1 43/2/1 42/2/1
f 45/2/1 44/2/1 43/2/1
f 45/2/1 42/2/1 41/2/1
f 46/2/1 44/2/1 45/2/1
f 47/2/1 40/2/1 44/2/1
f 47/2/1 44/2/1 46/2/1
f 49/2/1 45/2/1 41/2/1
f 50/2/1 45/2/1 49/2/1
f 51/2/1 48/2/1 47/2/1
f 51/2/1 47/2/1 46/2/1
f 52/2/1 48/2/1 51/2/1
f 53/2/1 48/2/1 52/2/1
f 54/2/1 51/2/1 50/2/1
f 55/2/1 51/2/1 54/2/1
f 60/2/1 57/2/1 56/2/1
f 61/2/1 57/2/1 60/2/1
f 65/1/1 59/1/1 58/1/1
f 66/1/1 59/1/1 65/1/1
f 67/2/1 63/2/1 62/2/1
f 68/1/1 64/1/1 63/1/1
f 68/2/1 63/2/1 67/2/1
f 69/1/1 64/1/1 68/1/1
f 78/2/1 71/2/1 70/2/1
f 79/2/1 71/2/1 78/2/1
f 80/2/1 73/2/1 72/2/1
f 81/2/1 73/2/1 80/2/1
f 82/2/1 75/2/1 74/2/1
f 83/2/1 75/2/1 82/2/1
f 84/1/1 77/1/1 76/1/1
f 85/1/1 77/1/1 84/1/1
f 88/1/1 87/1/1 86/1/1
f 89/1/1 87/1/1 88/1/1
f 92/1/1 91/1/1 90/1/1
f 93/1/1 91/1/1 92/1/1
f 96/2/1 95/2/1 94/2/1
f 97/2/1 95/2/1 96/2/1
f 101/1/1 99/1/1 98/1/1
f 102/2/1 100/2/1 99/2/1
f 102/1/1 99/1/1 101/1/1
f 103/2/1 100/2/1 102/2/1
f 107/2/1 105/2/1 104/2/1
f 108/2/1 105/2/1 107/2/1
f 109/1/1 106/1/1 105/1/1
f 109/2/1 105/2/1 108/2/1
f 110/1/1 106/1/1 109/1/1
f 111/2/2 112/2/2 114/2/2
f 114/2/2 112/2/2 115/2/2
f 112/1/2 113/1/2 116/1/2
f 115/2/2 112/2/2 116/2/2
f 116/1/2 113/1/2 117/1/2
f 118/1/2 119/1/2 121/1/2
f 119/2/2 120/2/2 122/2/2
f 121/1/2 119/1/2 122/1/2
f 122/2/2 120/2/2 123/2/2
f 123/2/2 120/2/2 124/2/2
f 125/1/2 126/1/2 127/1/2
f 127/1/2 126/1/2 128/1/2
f 129/2/2 130/2/2 135/2/2
f 135/2/2 130/2/2 136/2/2
f 131/2/2 132/2/2 137/2/2
f 137/2/2 132/2/2 138/2/2
f 133/2/2 134/2/2 139/2/2
f 139/2/2 134/2/2 140/2/2
f 141/2/2 142/2/2 145/2/2
f 145/2/2 142/2/2 146/2/2
f 143/1/2 144/1/2 150/1/2
f 150/1/2 144/1/2 151/1/2
f 147/2/2 148/2/2 152/2/2
f 148/1/2 149/1/2 153/1/2
f 152/2/2 148/2/2 153/2/2
f 153/1/2 149/1/2 154/1/2
f 155/2/2 156/2/2 160/2/2
f 160/2/2 156/2/2 161/2/2
f 157/2/2 158/2/2 162/2/2
f 160/2/2 161/2/2 165/2/2
f 159/2/2 160/2/2 165/2/2
f 161/2/2 162/2/2 165/2/2
f 165/2/2 162/2/2 166/2/2
f 162/2/2 158/2/2 167/2/2
f 166/2/2 162/2/2 167/2/2
f 163/1/2 164/1/2 169/1/2
f 169/1/2 164/1/2 170/1/2
f 159/2/2 165/2/2 171/2/2
f 171/2/2 165/2/2 172/2/2
f 167/2/2 168/2/2 173/2/2
f 166/2/2 167/2/2 173/2/2
f 173/2/2 168/2/2 174/2/2
f 174/2/2 168/2/2 175/2/2
f 172/2/2 173/2/2 176/2/2
f 176/2/2 173/2/2 177/2/2
f 178/2/2 179/2/2 184/2/2
f 184/2/2 179/2/2 185/2/2
f 180/1/2 181/1/2 186/1/2
f 186/1/2 181/1/2 187/1/2
f 182/3/2 183/3/2 188/3/2
f 188/3/2 183/3/2 189/3/2
f 189/1/2 190/1/2 191/1/2
f 191/1/2 190/1/2 192/1/2
f 192/1/2 193/1/2 194/1/2
f 194/1/2 193/1/2 195/1/2
f 196/2/2 197/2/2 199/2/2
f 198/2/2 199/2/2 200/2/2
f 199/2/2 197/2/2 201/2/2
f 200/2/2 199/2/2 201/2/2
f 202/1/2 203/1/2 205/1/2
f 203/2/2 204/2/2 206/2/2
f 205/1/2 203/1/2 206/1/2
f 206/2/2 204/2/2 207/2/2
f 209/2/2 210/2/2 211/2/2
f 208/2/2 209/2/2 211/2/2
f 211/2/2 210/2/2 212/2/2
f 213/2/2 214/2/2 216/2/2
f 214/1/2 215/1/2 217/1/2
f 216/2/2 214/2/2 217/2/2
f 217/1/2 215/1/2 218/1/2
f 221/1/3 220/1/3 219/1/3
f 222/1/3 220/1/3 221/1/3
f 225/1/3 224/1/3 223/1/3
f 226/1/3 224/1/3 225/1/3
f 229/1/3 228/1/3 227/1/3
f 230/1/3 228/1/3 229/1/3
f 233/2/3 232/2/3 231/2/3
f 234/2/3 232/2/3 233/2/3
f 236/2/3 232/2/3 234/2/3
f 237/2/3 236/2/3 235/2/3
f 238/2/3 232/2/3 236/2/3
f 238/2/3 236/2/3 237/2/3
f 241/3/3 240/3/3 239/3/3
f 242/3/3 240/3/3 241/3/3
f 246/2/3 245/2/3 244/2/3
f 247/2/3 245/2/3 246/2/3
f 249/2/3 243/2/3 242/2/3
f 250/2/3 243/2/3 249/2/3
f 251/3/3 249/3/3 248/3/3
f 252/3/3 249/3/3 251/3/3
f 257/1/3 254/1/3 253/1/3
f 258/1/3 254/1/3 257/1/3
f 259/2/3 256/2/3 255/2/3
f 260/2/3 256/2/3 259/2/3
f 263/2/3 262/2/3 261/2/3
f 264/2/3 262/2/3 263/2/3
f 267/1/3 266/1/3 265/1/3
f 268/1/3 266/1/3 267/1/3
f 273/2/3 270/2/3 269/2/3
f 274/2/3 270/2/3 273/2/3
f 275/1/3 272/1/3 271/1/3
f 276/1/3 272/1/3 275/1/3
f 282/2/3 278/2/3 277/2/3
f 283/1/3 280/1/3 279/1/3
f 284/1/3 280/1/3 283/1/3
f 285/2/3 282/2/3 281/2/3
f 286/2/3 278/2/3 282/2/3
f 286/2/3 282/2/3 285/2/3
f 287/2/3 278/2/3 286/2/3
f 290/2/3 289/2/3 288/2/3
f 291/2/3 289/2/3 290/2/3
f 294/2/3 293/2/3 292/2/3
f 295/2/3 293/2/3 294/2/3
f 298/2/3 297/2/3 296/2/3
f 300/2/3 298/2/3 296/2/3
f 300/2/3 299/2/3 298/2/3
f 301/2/3 299/2/3 300/2/3
f 304/2/3 303/2/3 302/2/3
f 305/2/3 303/2/3 304/2/3
f 306/2/3 304/2/3 302/2/3
f 307/2/3 304/2/3 306/2/3
f 310/2/3 309/2/3 308/2/3
f 311/2/3 309/2/3 310/2/3
f 314/2/3 313/2/3 312/2/3
f 315/2/3 313/2/3 314/2/3
f 318/2/3 317/2/3 316/2/3
f 319/2/3 317/2/3 318/2/3
f 322/1/3 321/1/3 320/1/3
f 323/1/3 321/1/3 322/1/3
f 326/1/3 325/1/3 324/1/3
f 327/1/3 325/1/3 326/1/3
f 328/3/4 329/3/4 330/3/4
f 330/3/4 329/3/4 331/3/4
f 332/3/4 333/3/4 334/3/4
f 334/3/4 333/3/4 335/3/4
f 336/1/4 337/1/4 338/1/4
f 338/1/4 337/1/4 339/1/4
f 340/2/4 341/2/4 342/2/4
f 342/2/4 341/2/4 343/2/4
f 338/2/4 339/2/4 344/2/4
f 344/2/4 339/2/4 345/2/4
f 344/1/4 345/1/4 346/1/4
f 346/1/4 345/1/4 347/1/4
f 348/2/4 349/2/4 350/2/4
f 350/2/4 349/2/4 351/2/4
f 352/1/4 353/1/4 354/1/4
f 354/1/4 353/1/4 355/1/4
f 356/1/4 357/1/4 358/1/4
f 358/1/4 357/1/4 359/1/4
f 360/2/4 361/2/4 362/2/4
f 362/2/4 361/2/4 363/2/4
f 364/2/4 365/2/4 366/2/4
f 366/2/4 365/2/4 367/2/4
f 368/2/4 369/2/4 371/2/4
f 370/2/4 371/2/4 372/2/4
f 371/2/4 369/2/4 373/2/4
f 372/2/4 371/2/4 373/2/4
f 374/2/4 375/2/4 376/2/4
f 376/2/4 375/2/4 377/2/4
f 378/2/4 379/2/4 380/2/4
f 380/2/4 379/2/4 381/2/4
f 382/2/4 383/2/4 384/2/4
f 384/2/4 385/2/4 386/2/4
f 382/2/4 384/2/4 388/2/4
f 386/2/4 387/2/4 388/2/4
f 384/2/4 386/2/4 388/2/4
f 388/2/4 387/2/4 389/2/4
f 382/2/4 388/2/4 390/2/4
f 389/2/4 387/2/4 391/2/4
f 391/2/4 387/2/4 392/2/4
f 390/2/4 391/2/4 392/2/4
f 392/2/4 387/2/4 393/2/4
f 382/2/4 390/2/4 394/2/4
f 390/2/4 392/2/4 394/2/4
f 394/2/4 392/2/4 395/2/4
f 382/2/4 394/2/4 396/2/4
f 396/2/4 394/2/4 397/2/4
f 398/1/4 399/1/4 400/1/4
f 400/1/4 399/1/4 401/1/4
f 402/1/4 403/1/4 404/1/4
f 404/1/4 403/1/4 405/1/4
f 406/1/4 407/1/4 408/1/4
f 408/1/4 407/1/4 409/1/4
f 410/1/4 411/1/4 412/1/4
f 412/1/4 411/1/4 413/1/4
f 414/1/4 415/1/4 416/1/4
f 416/1/4 415/1/4 417/1/4
f 422/1/5 419/1/5 418/1/5
f 423/1/5 419/1/5 422/1/5
f 424/1/5 421/1/5 420/1/5
f 425/1/5 421/1/5 424/1/5
f 427/2/5 425/2/5 424/2/5
f 428/2/5 423/2/5 422/2/5
f 429/2/5 423/2/5 428/2/5
f 430/2/5 427/2/5 426/2/5
f 430/2/5 425/2/5 427/2/5
f 431/2/5 425/2/5 430/2/5
f 432/2/5 430/2/5 426/2/5
f 433/2/5 430/2/5 432/2/5
f 438/2/5 435/2/5 434/2/5
f 439/2/5 435/2/5 438/2/5
f 440/2/5 437/2/5 436/2/5
f 441/2/5 437/2/5 440/2/5
f 442/1/5 439/1/5 438/1/5
f 443/1/5 439/1/5 442/1/5
f 444/1/5 441/1/5 440/1/5
f 445/1/5 441/1/5 444/1/5
f 449/2/5 447/2/5 446/2/5
f 450/2/5 447/2/5 449/2/5
f 453/2/5 449/2/5 448/2/5
f 453/2/5 451/2/5 450/2/5
f 453/2/5 450/2/5 449/2/5
f 454/2/5 451/2/5 453/2/5
f 456/2/5 453/2/5 452/2/5
f 456/2/5 455/2/5 454/2/5
f 456/2/5 454/2/5 453/2/5
f 457/2/5 455/2/5 456/2/5
f 458/2/5 455/2/5 457/2/5
f 459/2/5 455/2/5 458/2/5
f 460/2/5 455/2/5 459/2/5
f 462/2/5 459/2/5 458/2/5
f 463/2/5 459/2/5 462/2/5
f 465/2/5 463/2/5 462/2/5
f 465/2/5 464/2/5 463/2/5
f 465/2/5 462/2/5 461/2/5
f 466/2/5 464/2/5 465/2/5
f 467/2/5 466/2/5 465/2/5
f 468/2/5 466/2/5 467/2/5
f 472/1/5 470/1/5 469/1/5
f 473/1/5 470/1/5 472/1/5
f 475/2/5 472/2/5 471/2/5
f 475/2/5 474/2/5 473/2/5
f 475/2/5 473/2/5 472/2/5
f 476/2/5 474/2/5 475/2/5
f 477/2/5 475/2/5 471/2/5
f 478/2/5 475/2/5 477/2/5
f 479/2/5 474/2/5 476/2/5
f 480/2/5 474/2/5 479/2/5
f 483/2/5 482/2/5 481/2/5
f 484/2/5 482/2/5 483/2/5
f 485/1/5 484/1/5 483/1/5
f 486/1/5 484/1/5 485/1/5
f 488/1/5 487/1/5 486/1/5
f 489/1/5 487/1/5 488/1/5
f 491/1/5 490/1/5 489/1/5
f 492/1/5 490/1/5 491/1/5
f 497/3/5 494/3/5 493/3/5
f 498/3/5 494/3/5 497/3/5
f 499/3/5 496/3/5 495/3/5
f 500/3/5 496/3/5 499/3/5
f 503/2/5 502/2/5 501/2/5
f 504/2/5 502/2/5 503/2/5
f 507/2/5 506/2/5 505/2/5
f 508/2/5 506/2/5 507/2/5
f 511/2/5 510/2/5 509/2/5
f 512/2/5 510/2/5 511/2/5
f 517/1/5 514/1/5 513/1/5
f 518/1/5 514/1/5 517/1/5
f 519/1/5 516/1/5 515/1/5
f 520/1/5 516/1/5 519/1/5
f 525/1/5 522/1/5 521/1/5
f 526/1/5 522/1/5 525/1/5
f 527/1/5 524/1/5 523/1/5
f 528/1/5 524/1/5 527/1/5
f 529/1/6 530/1/6 533/1/6
f 533/1/6 530/1/6 534/1/6
f 531/1/6 532/1/6 535/1/6
f 535/1/6 532/1/6 536/1/6
f 533/2/6 534/2/6 537/2/6
f 535/2/6 536/2/6 538/2/6
f 533/2/6 537/2/6 539/2/6
f 539/2/6 537/2/6 540/2/6
f 538/2/6 536/2/6 541/2/6
f 541/2/6 536/2/6 542/2/6
f 543/2/6 544/2/6 547/2/6
f 545/2/6 546/2/6 548/2/6
f 543/2/6 547/2/6 549/2/6
f 549/2/6 547/2/6 550/2/6
f 548/2/6 546/2/6 551/2/6
f 551/2/6 546/2/6 552/2/6
f 549/1/6 550/1/6 553/1/6
f 553/1/6 550/1/6 554/1/6
f 551/1/6 552/1/6 555/1/6
f 555/1/6 552/1/6 556/1/6
f 557/2/6 558/2/6 563/2/6
f 563/2/6 558/2/6 564/2/6
f 559/2/6 560/2/6 565/2/6
f 565/2/6 560/2/6 566/2/6
f 561/2/6 562/2/6 567/2/6
f 567/2/6 562/2/6 568/2/6
f 569/2/6 570/2/6 571/2/6
f 571/2/6 570/2/6 572/2/6
f 573/2/6 574/2/6 579/2/6
f 579/2/6 574/2/6 580/2/6
f 577/2/6 578/2/6 581/2/6
f 581/2/6 578/2/6 582/2/6
f 575/2/6 576/2/6 583/2/6
f 583/2/6 576/2/6 584/2/6
f 585/1/6 586/1/6 587/1/6
f 587/1/6 586/1/6 588/1/6
f 589/2/6 590/2/6 593/2/6
f 593/2/6 590/2/6 594/2/6
f 591/2/6 592/2/6 597/2/6
f 597/2/6 592/2/6 598/2/6
f 595/2/6 596/2/6 599/2/6
f 599/2/6 596/2/6 600/2/6
f 599/1/6 600/1/6 601/1/6
f 601/1/6 600/1/6 602/1/6
f 602/1/6 603/1/6 604/1/6
f 604/1/6 603/1/6 605/1/6
f 605/1/6 606/1/6 607/1/6
f 607/1/6 606/1/6 608/1/6
f 609/2/6 610/2/6 612/2/6
f 612/2/6 610/2/6 613/2/6
f 611/3/6 612/3/6 615/3/6
f 615/3/6 612/3/6 616/3/6
f 613/3/6 614/3/6 617/3/6
f 617/3/6 614/3/6 618/3/6
f 619/2/6 620/2/6 621/2/6
f 621/2/6 620/2/6 622/2/6
f 623/2/6 624/2/6 626/2/6
f 626/2/6 624/2/6 627/2/6
f 625/1/6 626/1/6 629/1/6
f 626/2/6 627/2/6 630/2/6
f 629/1/6 626/1/6 630/1/6
f 627/1/6 628/1/6 631/1/6
f 630/2/6 627/2/6 631/2/6
f 631/1/6 628/1/6 632/1/6
f 633/1/6 634/1/6 637/1/6
f 637/1/6 634/1/6 638/1/6
f 635/1/6 636/1/6 639/1/6
f 639/1/6 636/1/6 640/1/6
