# MagicaVoxel @ Ephtracy

# group
o 

# material
mtllib light_sign_red.mtl
usemtl palette

# normals
vn -1 0 0
vn 1 0 0
vn 0 0 1
vn 0 0 -1
vn 0 -1 0
vn 0 1 0

# texcoords
vt 0.115234 0.5
vt 0.958984 0.5
vt 0.986328 0.5

# verts
v 0 2 0
v 0 2 -0.1
v 0 6 0
v 0 6 -0.1
v 2 2 0
v 2 2 -0.1
v 2 2.9 0
v 2 2.9 -0.1
v 2 3.1 0
v 2 3.1 -0.1
v 2 4.9 0
v 2 4.9 -0.1
v 2 5.1 0
v 2 5.1 -0.1
v 2 6 0
v 2 6 -0.1
v 3 2.9 0
v 3 2.9 -0.1
v 3 3.1 0
v 3 3.1 -0.1
v 3 4.9 0
v 3 4.9 -0.1
v 3 5.1 0
v 3 5.1 -0.1
v 0 2 0
v 0 6 0
v 0.1 2.1 0
v 0.1 5.9 0
v 0.4 3.3 0
v 0.4 3.7 0
v 0.4 4.2 0
v 0.4 4.8 0
v 0.4 5.2 0
v 0.4 5.7 0
v 0.5 2.6 0
v 0.5 2.8 0
v 0.5 3.2 0
v 0.5 3.3 0
v 0.5 3.7 0
v 0.5 3.8 0
v 0.5 4.4 0
v 0.5 4.8 0
v 0.5 5.2 0
v 0.5 5.5 0
v 0.8 2.3 0
v 0.8 2.6 0
v 0.9 2.3 0
v 0.9 2.8 0
v 0.9 3.2 0
v 0.9 3.3 0
v 0.9 3.7 0
v 0.9 3.8 0
v 0.9 4.2 0
v 0.9 4.4 0
v 0.9 5.5 0
v 0.9 5.7 0
v 1 3.3 0
v 1 3.7 0
v 1.1 3.7 0
v 1.1 3.8 0
v 1.1 4.2 0
v 1.1 4.8 0
v 1.1 5.2 0
v 1.1 5.4 0
v 1.2 4.4 0
v 1.2 4.8 0
v 1.3 2.3 0
v 1.3 2.8 0
v 1.3 3.3 0
v 1.3 3.7 0
v 1.4 5.4 0
v 1.4 5.7 0
v 1.5 2.3 0
v 1.5 2.8 0
v 1.5 3.1 0
v 1.5 3.3 0
v 1.5 5.2 0
v 1.5 5.7 0
v 1.6 3.1 0
v 1.6 3.8 0
v 1.6 4.2 0
v 1.6 4.4 0
v 1.9 2.1 0
v 1.9 5.9 0
v 2 2 0
v 2 2.9 0
v 2 3.1 0
v 2 4.9 0
v 2 5.1 0
v 2 6 0
v 3 2.9 0
v 3 3.1 0
v 3 4.9 0
v 3 5.1 0
v 0 2 -0.1
v 0 6 -0.1
v 0.1 2.1 -0.1
v 0.1 5.9 -0.1
v 0.4 3.3 -0.1
v 0.4 3.7 -0.1
v 0.4 4.2 -0.1
v 0.4 4.8 -0.1
v 0.4 5.2 -0.1
v 0.4 5.7 -0.1
v 0.5 2.6 -0.1
v 0.5 2.8 -0.1
v 0.5 3.2 -0.1
v 0.5 3.3 -0.1
v 0.5 3.7 -0.1
v 0.5 3.8 -0.1
v 0.5 4.4 -0.1
v 0.5 4.8 -0.1
v 0.5 5.2 -0.1
v 0.5 5.5 -0.1
v 0.8 2.3 -0.1
v 0.8 2.6 -0.1
v 0.9 2.3 -0.1
v 0.9 2.8 -0.1
v 0.9 3.2 -0.1
v 0.9 3.3 -0.1
v 0.9 3.7 -0.1
v 0.9 3.8 -0.1
v 0.9 4.2 -0.1
v 0.9 4.4 -0.1
v 0.9 5.5 -0.1
v 0.9 5.7 -0.1
v 1 3.3 -0.1
v 1 3.7 -0.1
v 1.1 3.7 -0.1
v 1.1 3.8 -0.1
v 1.1 4.2 -0.1
v 1.1 4.8 -0.1
v 1.1 5.2 -0.1
v 1.1 5.4 -0.1
v 1.2 4.4 -0.1
v 1.2 4.8 -0.1
v 1.3 2.3 -0.1
v 1.3 2.8 -0.1
v 1.3 3.3 -0.1
v 1.3 3.7 -0.1
v 1.4 5.4 -0.1
v 1.4 5.7 -0.1
v 1.5 2.3 -0.1
v 1.5 2.8 -0.1
v 1.5 3.1 -0.1
v 1.5 3.3 -0.1
v 1.5 5.2 -0.1
v 1.5 5.7 -0.1
v 1.6 3.1 -0.1
v 1.6 3.8 -0.1
v 1.6 4.2 -0.1
v 1.6 4.4 -0.1
v 1.9 2.1 -0.1
v 1.9 5.9 -0.1
v 2 2 -0.1
v 2 2.9 -0.1
v 2 3.1 -0.1
v 2 4.9 -0.1
v 2 5.1 -0.1
v 2 6 -0.1
v 3 2.9 -0.1
v 3 3.1 -0.1
v 3 4.9 -0.1
v 3 5.1 -0.1
v 0 2 0
v 2 2 0
v 0 2 -0.1
v 2 2 -0.1
v 2 2.9 0
v 3 2.9 0
v 2 2.9 -0.1
v 3 2.9 -0.1
v 2 4.9 0
v 3 4.9 0
v 2 4.9 -0.1
v 3 4.9 -0.1
v 2 3.1 0
v 3 3.1 0
v 2 3.1 -0.1
v 3 3.1 -0.1
v 2 5.1 0
v 3 5.1 0
v 2 5.1 -0.1
v 3 5.1 -0.1
v 0 6 0
v 2 6 0
v 0 6 -0.1
v 2 6 -0.1

# faces
f 3/3/1 2/3/1 1/3/1
f 4/3/1 2/3/1 3/3/1
f 5/3/2 6/3/2 7/3/2
f 7/3/2 6/3/2 8/3/2
f 9/3/2 10/3/2 11/3/2
f 11/3/2 10/3/2 12/3/2
f 13/3/2 14/3/2 15/3/2
f 15/3/2 14/3/2 16/3/2
f 17/3/2 18/3/2 19/3/2
f 19/3/2 18/3/2 20/3/2
f 21/3/2 22/3/2 23/3/2
f 23/3/2 22/3/2 24/3/2
f 27/3/3 26/3/3 25/3/3
f 28/3/3 26/3/3 27/3/3
f 29/1/3 28/1/3 27/1/3
f 30/1/3 28/1/3 29/1/3
f 31/1/3 28/1/3 30/1/3
f 32/1/3 28/1/3 31/1/3
f 33/1/3 28/1/3 32/1/3
f 34/1/3 28/1/3 33/1/3
f 35/1/3 29/1/3 27/1/3
f 36/1/3 29/1/3 35/1/3
f 37/1/3 29/1/3 36/1/3
f 38/2/3 30/2/3 29/2/3
f 38/1/3 29/1/3 37/1/3
f 39/1/3 31/1/3 30/1/3
f 39/2/3 30/2/3 38/2/3
f 40/1/3 31/1/3 39/1/3
f 41/2/3 32/2/3 31/2/3
f 42/1/3 33/1/3 32/1/3
f 42/2/3 32/2/3 41/2/3
f 43/2/3 34/2/3 33/2/3
f 43/1/3 33/1/3 42/1/3
f 44/2/3 34/2/3 43/2/3
f 45/1/3 35/1/3 27/1/3
f 46/2/3 36/2/3 35/2/3
f 46/1/3 35/1/3 45/1/3
f 47/1/3 45/1/3 27/1/3
f 47/2/3 46/2/3 45/2/3
f 48/1/3 37/1/3 36/1/3
f 48/2/3 46/2/3 47/2/3
f 48/2/3 36/2/3 46/2/3
f 49/2/3 38/2/3 37/2/3
f 49/1/3 37/1/3 48/1/3
f 49/2/3 39/2/3 38/2/3
f 49/2/3 40/2/3 39/2/3
f 50/2/3 40/2/3 49/2/3
f 51/2/3 40/2/3 50/2/3
f 52/1/3 31/1/3 40/1/3
f 52/2/3 40/2/3 51/2/3
f 53/2/3 41/2/3 31/2/3
f 53/1/3 31/1/3 52/1/3
f 54/1/3 42/1/3 41/1/3
f 54/2/3 41/2/3 53/2/3
f 54/1/3 44/1/3 43/1/3
f 54/1/3 43/1/3 42/1/3
f 55/2/3 34/2/3 44/2/3
f 55/1/3 44/1/3 54/1/3
f 56/1/3 28/1/3 34/1/3
f 56/2/3 34/2/3 55/2/3
f 57/1/3 48/1/3 47/1/3
f 57/2/3 51/2/3 50/2/3
f 57/1/3 50/1/3 49/1/3
f 57/1/3 49/1/3 48/1/3
f 58/1/3 55/1/3 54/1/3
f 58/2/3 51/2/3 57/2/3
f 58/1/3 56/1/3 55/1/3
f 58/1/3 54/1/3 53/1/3
f 58/1/3 53/1/3 52/1/3
f 58/1/3 52/1/3 51/1/3
f 59/1/3 58/1/3 57/1/3
f 59/1/3 56/1/3 58/1/3
f 60/1/3 56/1/3 59/1/3
f 61/1/3 56/1/3 60/1/3
f 62/1/3 56/1/3 61/1/3
f 63/1/3 56/1/3 62/1/3
f 64/1/3 56/1/3 63/1/3
f 65/2/3 62/2/3 61/2/3
f 66/1/3 63/1/3 62/1/3
f 66/2/3 62/2/3 65/2/3
f 67/1/3 57/1/3 47/1/3
f 67/1/3 47/1/3 27/1/3
f 67/1/3 59/1/3 57/1/3
f 68/1/3 59/1/3 67/1/3
f 69/1/3 59/1/3 68/1/3
f 70/2/3 60/2/3 59/2/3
f 70/1/3 59/1/3 69/1/3
f 71/2/3 64/2/3 63/2/3
f 71/1/3 56/1/3 64/1/3
f 72/1/3 28/1/3 56/1/3
f 72/1/3 56/1/3 71/1/3
f 73/1/3 67/1/3 27/1/3
f 73/2/3 68/2/3 67/2/3
f 74/1/3 69/1/3 68/1/3
f 74/2/3 68/2/3 73/2/3
f 75/1/3 69/1/3 74/1/3
f 76/2/3 70/2/3 69/2/3
f 76/1/3 69/1/3 75/1/3
f 77/1/3 63/1/3 66/1/3
f 77/1/3 66/1/3 65/1/3
f 77/2/3 71/2/3 63/2/3
f 77/2/3 72/2/3 71/2/3
f 78/1/3 28/1/3 72/1/3
f 78/2/3 72/2/3 77/2/3
f 79/2/3 76/2/3 75/2/3
f 79/1/3 74/1/3 73/1/3
f 79/1/3 75/1/3 74/1/3
f 80/2/3 70/2/3 76/2/3
f 80/2/3 76/2/3 79/2/3
f 80/2/3 60/2/3 70/2/3
f 80/1/3 61/1/3 60/1/3
f 81/2/3 65/2/3 61/2/3
f 81/1/3 61/1/3 80/1/3
f 82/1/3 78/1/3 77/1/3
f 82/2/3 65/2/3 81/2/3
f 82/1/3 77/1/3 65/1/3
f 83/3/3 27/3/3 25/3/3
f 83/1/3 79/1/3 73/1/3
f 83/1/3 82/1/3 81/1/3
f 83/1/3 73/1/3 27/1/3
f 83/1/3 80/1/3 79/1/3
f 83/1/3 81/1/3 80/1/3
f 84/1/3 78/1/3 82/1/3
f 84/1/3 82/1/3 83/1/3
f 84/3/3 26/3/3 28/3/3
f 84/1/3 28/1/3 78/1/3
f 85/3/3 83/3/3 25/3/3
f 85/3/3 84/3/3 83/3/3
f 86/3/3 84/3/3 85/3/3
f 87/3/3 84/3/3 86/3/3
f 88/3/3 84/3/3 87/3/3
f 89/3/3 84/3/3 88/3/3
f 90/3/3 26/3/3 84/3/3
f 90/3/3 84/3/3 89/3/3
f 91/3/3 87/3/3 86/3/3
f 92/3/3 87/3/3 91/3/3
f 93/3/3 89/3/3 88/3/3
f 94/3/3 89/3/3 93/3/3
f 95/3/4 96/3/4 97/3/4
f 97/3/4 96/3/4 98/3/4
f 97/1/4 98/1/4 99/1/4
f 99/1/4 98/1/4 100/1/4
f 100/1/4 98/1/4 101/1/4
f 101/1/4 98/1/4 102/1/4
f 102/1/4 98/1/4 103/1/4
f 103/1/4 98/1/4 104/1/4
f 97/1/4 99/1/4 105/1/4
f 105/1/4 99/1/4 106/1/4
f 106/1/4 99/1/4 107/1/4
f 99/2/4 100/2/4 108/2/4
f 107/1/4 99/1/4 108/1/4
f 100/1/4 101/1/4 109/1/4
f 108/2/4 100/2/4 109/2/4
f 109/1/4 101/1/4 110/1/4
f 101/2/4 102/2/4 111/2/4
f 102/1/4 103/1/4 112/1/4
f 111/2/4 102/2/4 112/2/4
f 103/2/4 104/2/4 113/2/4
f 112/1/4 103/1/4 113/1/4
f 113/2/4 104/2/4 114/2/4
f 97/1/4 105/1/4 115/1/4
f 105/2/4 106/2/4 116/2/4
f 115/1/4 105/1/4 116/1/4
f 97/1/4 115/1/4 117/1/4
f 115/2/4 116/2/4 117/2/4
f 106/1/4 107/1/4 118/1/4
f 117/2/4 116/2/4 118/2/4
f 116/2/4 106/2/4 118/2/4
f 107/2/4 108/2/4 119/2/4
f 118/1/4 107/1/4 119/1/4
f 108/2/4 109/2/4 119/2/4
f 109/2/4 110/2/4 119/2/4
f 119/2/4 110/2/4 120/2/4
f 120/2/4 110/2/4 121/2/4
f 110/1/4 101/1/4 122/1/4
f 121/2/4 110/2/4 122/2/4
f 101/2/4 111/2/4 123/2/4
f 122/1/4 101/1/4 123/1/4
f 111/1/4 112/1/4 124/1/4
f 123/2/4 111/2/4 124/2/4
f 113/1/4 114/1/4 124/1/4
f 112/1/4 113/1/4 124/1/4
f 114/2/4 104/2/4 125/2/4
f 124/1/4 114/1/4 125/1/4
f 104/1/4 98/1/4 126/1/4
f 125/2/4 104/2/4 126/2/4
f 117/1/4 118/1/4 127/1/4
f 120/2/4 121/2/4 127/2/4
f 119/1/4 120/1/4 127/1/4
f 118/1/4 119/1/4 127/1/4
f 124/1/4 125/1/4 128/1/4
f 127/2/4 121/2/4 128/2/4
f 125/1/4 126/1/4 128/1/4
f 123/1/4 124/1/4 128/1/4
f 122/1/4 123/1/4 128/1/4
f 121/1/4 122/1/4 128/1/4
f 127/1/4 128/1/4 129/1/4
f 128/1/4 126/1/4 129/1/4
f 129/1/4 126/1/4 130/1/4
f 130/1/4 126/1/4 131/1/4
f 131/1/4 126/1/4 132/1/4
f 132/1/4 126/1/4 133/1/4
f 133/1/4 126/1/4 134/1/4
f 131/2/4 132/2/4 135/2/4
f 132/1/4 133/1/4 136/1/4
f 135/2/4 132/2/4 136/2/4
f 117/1/4 127/1/4 137/1/4
f 97/1/4 117/1/4 137/1/4
f 127/1/4 129/1/4 137/1/4
f 137/1/4 129/1/4 138/1/4
f 138/1/4 129/1/4 139/1/4
f 129/2/4 130/2/4 140/2/4
f 139/1/4 129/1/4 140/1/4
f 133/2/4 134/2/4 141/2/4
f 134/1/4 126/1/4 141/1/4
f 126/1/4 98/1/4 142/1/4
f 141/1/4 126/1/4 142/1/4
f 97/1/4 137/1/4 143/1/4
f 137/2/4 138/2/4 143/2/4
f 138/1/4 139/1/4 144/1/4
f 143/2/4 138/2/4 144/2/4
f 144/1/4 139/1/4 145/1/4
f 139/2/4 140/2/4 146/2/4
f 145/1/4 139/1/4 146/1/4
f 136/1/4 133/1/4 147/1/4
f 135/1/4 136/1/4 147/1/4
f 133/2/4 141/2/4 147/2/4
f 141/2/4 142/2/4 147/2/4
f 142/1/4 98/1/4 148/1/4
f 147/2/4 142/2/4 148/2/4
f 145/2/4 146/2/4 149/2/4
f 143/1/4 144/1/4 149/1/4
f 144/1/4 145/1/4 149/1/4
f 146/2/4 140/2/4 150/2/4
f 149/2/4 146/2/4 150/2/4
f 140/2/4 130/2/4 150/2/4
f 130/1/4 131/1/4 150/1/4
f 131/2/4 135/2/4 151/2/4
f 150/1/4 131/1/4 151/1/4
f 147/1/4 148/1/4 152/1/4
f 151/2/4 135/2/4 152/2/4
f 135/1/4 147/1/4 152/1/4
f 95/3/4 97/3/4 153/3/4
f 143/1/4 149/1/4 153/1/4
f 151/1/4 152/1/4 153/1/4
f 97/1/4 143/1/4 153/1/4
f 149/1/4 150/1/4 153/1/4
f 150/1/4 151/1/4 153/1/4
f 152/1/4 148/1/4 154/1/4
f 153/1/4 152/1/4 154/1/4
f 98/3/4 96/3/4 154/3/4
f 148/1/4 98/1/4 154/1/4
f 95/3/4 153/3/4 155/3/4
f 153/3/4 154/3/4 155/3/4
f 155/3/4 154/3/4 156/3/4
f 156/3/4 154/3/4 157/3/4
f 157/3/4 154/3/4 158/3/4
f 158/3/4 154/3/4 159/3/4
f 154/3/4 96/3/4 160/3/4
f 159/3/4 154/3/4 160/3/4
f 156/3/4 157/3/4 161/3/4
f 161/3/4 157/3/4 162/3/4
f 158/3/4 159/3/4 163/3/4
f 163/3/4 159/3/4 164/3/4
f 167/3/5 166/3/5 165/3/5
f 168/3/5 166/3/5 167/3/5
f 171/3/5 170/3/5 169/3/5
f 172/3/5 170/3/5 171/3/5
f 175/3/5 174/3/5 173/3/5
f 176/3/5 174/3/5 175/3/5
f 177/3/6 178/3/6 179/3/6
f 179/3/6 178/3/6 180/3/6
f 181/3/6 182/3/6 183/3/6
f 183/3/6 182/3/6 184/3/6
f 185/3/6 186/3/6 187/3/6
f 187/3/6 186/3/6 188/3/6
