# MagicaVoxel @ Ephtracy

# group
o 

# material
mtllib light_sign_yellow.mtl
usemtl palette

# normals
vn -1 0 0
vn 1 0 0
vn 0 0 1
vn 0 0 -1
vn 0 -1 0
vn 0 1 0

# texcoords
vt 0.0175781 0.5
vt 0.986328 0.5
vt 0.990234 0.5

# verts
v 0 2 0
v 0 2 -0.1
v 0 6 0
v 0 6 -0.1
v 2 2 0
v 2 2 -0.1
v 2 2.9 0
v 2 2.9 -0.1
v 2 3.1 0
v 2 3.1 -0.1
v 2 4.9 0
v 2 4.9 -0.1
v 2 5.1 0
v 2 5.1 -0.1
v 2 6 0
v 2 6 -0.1
v 3 2.9 0
v 3 2.9 -0.1
v 3 3.1 0
v 3 3.1 -0.1
v 3 4.9 0
v 3 4.9 -0.1
v 3 5.1 0
v 3 5.1 -0.1
v 0 2 0
v 0 6 0
v 0.1 2.1 0
v 0.1 5.9 0
v 0.4 3.3 0
v 0.4 3.7 0
v 0.4 4.2 0
v 0.4 4.8 0
v 0.4 5.2 0
v 0.4 5.7 0
v 0.5 2.6 0
v 0.5 2.8 0
v 0.5 3.2 0
v 0.5 3.3 0
v 0.5 3.7 0
v 0.5 3.8 0
v 0.5 4.4 0
v 0.5 4.8 0
v 0.5 5.2 0
v 0.5 5.5 0
v 0.8 2.3 0
v 0.8 2.6 0
v 0.9 2.3 0
v 0.9 2.8 0
v 0.9 3.2 0
v 0.9 3.3 0
v 0.9 3.7 0
v 0.9 3.8 0
v 0.9 4.2 0
v 0.9 4.4 0
v 0.9 5.5 0
v 0.9 5.7 0
v 1 3.3 0
v 1 3.7 0
v 1.1 3.7 0
v 1.1 3.8 0
v 1.1 4.2 0
v 1.1 4.8 0
v 1.1 5.2 0
v 1.1 5.4 0
v 1.2 4.4 0
v 1.2 4.8 0
v 1.3 2.3 0
v 1.3 2.8 0
v 1.3 3.3 0
v 1.3 3.7 0
v 1.4 5.4 0
v 1.4 5.7 0
v 1.5 2.3 0
v 1.5 2.8 0
v 1.5 3.1 0
v 1.5 3.3 0
v 1.5 5.2 0
v 1.5 5.7 0
v 1.6 3.1 0
v 1.6 3.8 0
v 1.6 4.2 0
v 1.6 4.4 0
v 1.9 2.1 0
v 1.9 5.9 0
v 2 2 0
v 2 2.9 0
v 2 3.1 0
v 2 4.9 0
v 2 5.1 0
v 2 6 0
v 3 2.9 0
v 3 3.1 0
v 3 4.9 0
v 3 5.1 0
v 0 2 -0.1
v 0 6 -0.1
v 0.1 2.1 -0.1
v 0.1 5.9 -0.1
v 0.4 3.3 -0.1
v 0.4 3.7 -0.1
v 0.4 4.2 -0.1
v 0.4 4.8 -0.1
v 0.4 5.2 -0.1
v 0.4 5.7 -0.1
v 0.5 2.6 -0.1
v 0.5 2.8 -0.1
v 0.5 3.2 -0.1
v 0.5 3.3 -0.1
v 0.5 3.7 -0.1
v 0.5 3.8 -0.1
v 0.5 4.4 -0.1
v 0.5 4.8 -0.1
v 0.5 5.2 -0.1
v 0.5 5.5 -0.1
v 0.8 2.3 -0.1
v 0.8 2.6 -0.1
v 0.9 2.3 -0.1
v 0.9 2.8 -0.1
v 0.9 3.2 -0.1
v 0.9 3.3 -0.1
v 0.9 3.7 -0.1
v 0.9 3.8 -0.1
v 0.9 4.2 -0.1
v 0.9 4.4 -0.1
v 0.9 5.5 -0.1
v 0.9 5.7 -0.1
v 1 3.3 -0.1
v 1 3.7 -0.1
v 1.1 3.7 -0.1
v 1.1 3.8 -0.1
v 1.1 4.2 -0.1
v 1.1 4.8 -0.1
v 1.1 5.2 -0.1
v 1.1 5.4 -0.1
v 1.2 4.4 -0.1
v 1.2 4.8 -0.1
v 1.3 2.3 -0.1
v 1.3 2.8 -0.1
v 1.3 3.3 -0.1
v 1.3 3.7 -0.1
v 1.4 5.4 -0.1
v 1.4 5.7 -0.1
v 1.5 2.3 -0.1
v 1.5 2.8 -0.1
v 1.5 3.1 -0.1
v 1.5 3.3 -0.1
v 1.5 5.2 -0.1
v 1.5 5.7 -0.1
v 1.6 3.1 -0.1
v 1.6 3.8 -0.1
v 1.6 4.2 -0.1
v 1.6 4.4 -0.1
v 1.9 2.1 -0.1
v 1.9 5.9 -0.1
v 2 2 -0.1
v 2 2.9 -0.1
v 2 3.1 -0.1
v 2 4.9 -0.1
v 2 5.1 -0.1
v 2 6 -0.1
v 3 2.9 -0.1
v 3 3.1 -0.1
v 3 4.9 -0.1
v 3 5.1 -0.1
v 0 2 0
v 2 2 0
v 0 2 -0.1
v 2 2 -0.1
v 2 2.9 0
v 3 2.9 0
v 2 2.9 -0.1
v 3 2.9 -0.1
v 2 4.9 0
v 3 4.9 0
v 2 4.9 -0.1
v 3 4.9 -0.1
v 2 3.1 0
v 3 3.1 0
v 2 3.1 -0.1
v 3 3.1 -0.1
v 2 5.1 0
v 3 5.1 0
v 2 5.1 -0.1
v 3 5.1 -0.1
v 0 6 0
v 2 6 0
v 0 6 -0.1
v 2 6 -0.1

# faces
f 3/2/1 2/2/1 1/2/1
f 4/2/1 2/2/1 3/2/1
f 5/2/2 6/2/2 7/2/2
f 7/2/2 6/2/2 8/2/2
f 9/2/2 10/2/2 11/2/2
f 11/2/2 10/2/2 12/2/2
f 13/2/2 14/2/2 15/2/2
f 15/2/2 14/2/2 16/2/2
f 17/2/2 18/2/2 19/2/2
f 19/2/2 18/2/2 20/2/2
f 21/2/2 22/2/2 23/2/2
f 23/2/2 22/2/2 24/2/2
f 27/2/3 26/2/3 25/2/3
f 28/2/3 26/2/3 27/2/3
f 29/1/3 28/1/3 27/1/3
f 30/1/3 28/1/3 29/1/3
f 31/1/3 28/1/3 30/1/3
f 32/1/3 28/1/3 31/1/3
f 33/1/3 28/1/3 32/1/3
f 34/1/3 28/1/3 33/1/3
f 35/1/3 29/1/3 27/1/3
f 36/1/3 29/1/3 35/1/3
f 37/1/3 29/1/3 36/1/3
f 38/3/3 30/3/3 29/3/3
f 38/1/3 29/1/3 37/1/3
f 39/1/3 31/1/3 30/1/3
f 39/3/3 30/3/3 38/3/3
f 40/1/3 31/1/3 39/1/3
f 41/3/3 32/3/3 31/3/3
f 42/1/3 33/1/3 32/1/3
f 42/3/3 32/3/3 41/3/3
f 43/3/3 34/3/3 33/3/3
f 43/1/3 33/1/3 42/1/3
f 44/3/3 34/3/3 43/3/3
f 45/1/3 35/1/3 27/1/3
f 46/3/3 36/3/3 35/3/3
f 46/1/3 35/1/3 45/1/3
f 47/1/3 45/1/3 27/1/3
f 47/3/3 46/3/3 45/3/3
f 48/1/3 37/1/3 36/1/3
f 48/3/3 46/3/3 47/3/3
f 48/3/3 36/3/3 46/3/3
f 49/3/3 38/3/3 37/3/3
f 49/1/3 37/1/3 48/1/3
f 49/3/3 39/3/3 38/3/3
f 49/3/3 40/3/3 39/3/3
f 50/3/3 40/3/3 49/3/3
f 51/3/3 40/3/3 50/3/3
f 52/1/3 31/1/3 40/1/3
f 52/3/3 40/3/3 51/3/3
f 53/3/3 41/3/3 31/3/3
f 53/1/3 31/1/3 52/1/3
f 54/1/3 42/1/3 41/1/3
f 54/3/3 41/3/3 53/3/3
f 54/1/3 44/1/3 43/1/3
f 54/1/3 43/1/3 42/1/3
f 55/3/3 34/3/3 44/3/3
f 55/1/3 44/1/3 54/1/3
f 56/1/3 28/1/3 34/1/3
f 56/3/3 34/3/3 55/3/3
f 57/1/3 48/1/3 47/1/3
f 57/3/3 51/3/3 50/3/3
f 57/1/3 50/1/3 49/1/3
f 57/1/3 49/1/3 48/1/3
f 58/1/3 55/1/3 54/1/3
f 58/3/3 51/3/3 57/3/3
f 58/1/3 56/1/3 55/1/3
f 58/1/3 54/1/3 53/1/3
f 58/1/3 53/1/3 52/1/3
f 58/1/3 52/1/3 51/1/3
f 59/1/3 58/1/3 57/1/3
f 59/1/3 56/1/3 58/1/3
f 60/1/3 56/1/3 59/1/3
f 61/1/3 56/1/3 60/1/3
f 62/1/3 56/1/3 61/1/3
f 63/1/3 56/1/3 62/1/3
f 64/1/3 56/1/3 63/1/3
f 65/3/3 62/3/3 61/3/3
f 66/1/3 63/1/3 62/1/3
f 66/3/3 62/3/3 65/3/3
f 67/1/3 57/1/3 47/1/3
f 67/1/3 47/1/3 27/1/3
f 67/1/3 59/1/3 57/1/3
f 68/1/3 59/1/3 67/1/3
f 69/1/3 59/1/3 68/1/3
f 70/3/3 60/3/3 59/3/3
f 70/1/3 59/1/3 69/1/3
f 71/3/3 64/3/3 63/3/3
f 71/1/3 56/1/3 64/1/3
f 72/1/3 28/1/3 56/1/3
f 72/1/3 56/1/3 71/1/3
f 73/1/3 67/1/3 27/1/3
f 73/3/3 68/3/3 67/3/3
f 74/1/3 69/1/3 68/1/3
f 74/3/3 68/3/3 73/3/3
f 75/1/3 69/1/3 74/1/3
f 76/3/3 70/3/3 69/3/3
f 76/1/3 69/1/3 75/1/3
f 77/1/3 63/1/3 66/1/3
f 77/1/3 66/1/3 65/1/3
f 77/3/3 71/3/3 63/3/3
f 77/3/3 72/3/3 71/3/3
f 78/1/3 28/1/3 72/1/3
f 78/3/3 72/3/3 77/3/3
f 79/3/3 76/3/3 75/3/3
f 79/1/3 74/1/3 73/1/3
f 79/1/3 75/1/3 74/1/3
f 80/3/3 70/3/3 76/3/3
f 80/3/3 76/3/3 79/3/3
f 80/3/3 60/3/3 70/3/3
f 80/1/3 61/1/3 60/1/3
f 81/3/3 65/3/3 61/3/3
f 81/1/3 61/1/3 80/1/3
f 82/1/3 78/1/3 77/1/3
f 82/3/3 65/3/3 81/3/3
f 82/1/3 77/1/3 65/1/3
f 83/2/3 27/2/3 25/2/3
f 83/1/3 79/1/3 73/1/3
f 83/1/3 82/1/3 81/1/3
f 83/1/3 73/1/3 27/1/3
f 83/1/3 80/1/3 79/1/3
f 83/1/3 81/1/3 80/1/3
f 84/1/3 78/1/3 82/1/3
f 84/1/3 82/1/3 83/1/3
f 84/2/3 26/2/3 28/2/3
f 84/1/3 28/1/3 78/1/3
f 85/2/3 83/2/3 25/2/3
f 85/2/3 84/2/3 83/2/3
f 86/2/3 84/2/3 85/2/3
f 87/2/3 84/2/3 86/2/3
f 88/2/3 84/2/3 87/2/3
f 89/2/3 84/2/3 88/2/3
f 90/2/3 26/2/3 84/2/3
f 90/2/3 84/2/3 89/2/3
f 91/2/3 87/2/3 86/2/3
f 92/2/3 87/2/3 91/2/3
f 93/2/3 89/2/3 88/2/3
f 94/2/3 89/2/3 93/2/3
f 95/2/4 96/2/4 97/2/4
f 97/2/4 96/2/4 98/2/4
f 97/1/4 98/1/4 99/1/4
f 99/1/4 98/1/4 100/1/4
f 100/1/4 98/1/4 101/1/4
f 101/1/4 98/1/4 102/1/4
f 102/1/4 98/1/4 103/1/4
f 103/1/4 98/1/4 104/1/4
f 97/1/4 99/1/4 105/1/4
f 105/1/4 99/1/4 106/1/4
f 106/1/4 99/1/4 107/1/4
f 99/3/4 100/3/4 108/3/4
f 107/1/4 99/1/4 108/1/4
f 100/1/4 101/1/4 109/1/4
f 108/3/4 100/3/4 109/3/4
f 109/1/4 101/1/4 110/1/4
f 101/3/4 102/3/4 111/3/4
f 102/1/4 103/1/4 112/1/4
f 111/3/4 102/3/4 112/3/4
f 103/3/4 104/3/4 113/3/4
f 112/1/4 103/1/4 113/1/4
f 113/3/4 104/3/4 114/3/4
f 97/1/4 105/1/4 115/1/4
f 105/3/4 106/3/4 116/3/4
f 115/1/4 105/1/4 116/1/4
f 97/1/4 115/1/4 117/1/4
f 115/3/4 116/3/4 117/3/4
f 106/1/4 107/1/4 118/1/4
f 117/3/4 116/3/4 118/3/4
f 116/3/4 106/3/4 118/3/4
f 107/3/4 108/3/4 119/3/4
f 118/1/4 107/1/4 119/1/4
f 108/3/4 109/3/4 119/3/4
f 109/3/4 110/3/4 119/3/4
f 119/3/4 110/3/4 120/3/4
f 120/3/4 110/3/4 121/3/4
f 110/1/4 101/1/4 122/1/4
f 121/3/4 110/3/4 122/3/4
f 101/3/4 111/3/4 123/3/4
f 122/1/4 101/1/4 123/1/4
f 111/1/4 112/1/4 124/1/4
f 123/3/4 111/3/4 124/3/4
f 113/1/4 114/1/4 124/1/4
f 112/1/4 113/1/4 124/1/4
f 114/3/4 104/3/4 125/3/4
f 124/1/4 114/1/4 125/1/4
f 104/1/4 98/1/4 126/1/4
f 125/3/4 104/3/4 126/3/4
f 117/1/4 118/1/4 127/1/4
f 120/3/4 121/3/4 127/3/4
f 119/1/4 120/1/4 127/1/4
f 118/1/4 119/1/4 127/1/4
f 124/1/4 125/1/4 128/1/4
f 127/3/4 121/3/4 128/3/4
f 125/1/4 126/1/4 128/1/4
f 123/1/4 124/1/4 128/1/4
f 122/1/4 123/1/4 128/1/4
f 121/1/4 122/1/4 128/1/4
f 127/1/4 128/1/4 129/1/4
f 128/1/4 126/1/4 129/1/4
f 129/1/4 126/1/4 130/1/4
f 130/1/4 126/1/4 131/1/4
f 131/1/4 126/1/4 132/1/4
f 132/1/4 126/1/4 133/1/4
f 133/1/4 126/1/4 134/1/4
f 131/3/4 132/3/4 135/3/4
f 132/1/4 133/1/4 136/1/4
f 135/3/4 132/3/4 136/3/4
f 117/1/4 127/1/4 137/1/4
f 97/1/4 117/1/4 137/1/4
f 127/1/4 129/1/4 137/1/4
f 137/1/4 129/1/4 138/1/4
f 138/1/4 129/1/4 139/1/4
f 129/3/4 130/3/4 140/3/4
f 139/1/4 129/1/4 140/1/4
f 133/3/4 134/3/4 141/3/4
f 134/1/4 126/1/4 141/1/4
f 126/1/4 98/1/4 142/1/4
f 141/1/4 126/1/4 142/1/4
f 97/1/4 137/1/4 143/1/4
f 137/3/4 138/3/4 143/3/4
f 138/1/4 139/1/4 144/1/4
f 143/3/4 138/3/4 144/3/4
f 144/1/4 139/1/4 145/1/4
f 139/3/4 140/3/4 146/3/4
f 145/1/4 139/1/4 146/1/4
f 136/1/4 133/1/4 147/1/4
f 135/1/4 136/1/4 147/1/4
f 133/3/4 141/3/4 147/3/4
f 141/3/4 142/3/4 147/3/4
f 142/1/4 98/1/4 148/1/4
f 147/3/4 142/3/4 148/3/4
f 145/3/4 146/3/4 149/3/4
f 143/1/4 144/1/4 149/1/4
f 144/1/4 145/1/4 149/1/4
f 146/3/4 140/3/4 150/3/4
f 149/3/4 146/3/4 150/3/4
f 140/3/4 130/3/4 150/3/4
f 130/1/4 131/1/4 150/1/4
f 131/3/4 135/3/4 151/3/4
f 150/1/4 131/1/4 151/1/4
f 147/1/4 148/1/4 152/1/4
f 151/3/4 135/3/4 152/3/4
f 135/1/4 147/1/4 152/1/4
f 95/2/4 97/2/4 153/2/4
f 143/1/4 149/1/4 153/1/4
f 151/1/4 152/1/4 153/1/4
f 97/1/4 143/1/4 153/1/4
f 149/1/4 150/1/4 153/1/4
f 150/1/4 151/1/4 153/1/4
f 152/1/4 148/1/4 154/1/4
f 153/1/4 152/1/4 154/1/4
f 98/2/4 96/2/4 154/2/4
f 148/1/4 98/1/4 154/1/4
f 95/2/4 153/2/4 155/2/4
f 153/2/4 154/2/4 155/2/4
f 155/2/4 154/2/4 156/2/4
f 156/2/4 154/2/4 157/2/4
f 157/2/4 154/2/4 158/2/4
f 158/2/4 154/2/4 159/2/4
f 154/2/4 96/2/4 160/2/4
f 159/2/4 154/2/4 160/2/4
f 156/2/4 157/2/4 161/2/4
f 161/2/4 157/2/4 162/2/4
f 158/2/4 159/2/4 163/2/4
f 163/2/4 159/2/4 164/2/4
f 167/2/5 166/2/5 165/2/5
f 168/2/5 166/2/5 167/2/5
f 171/2/5 170/2/5 169/2/5
f 172/2/5 170/2/5 171/2/5
f 175/2/5 174/2/5 173/2/5
f 176/2/5 174/2/5 175/2/5
f 177/2/6 178/2/6 179/2/6
f 179/2/6 178/2/6 180/2/6
f 181/2/6 182/2/6 183/2/6
f 183/2/6 182/2/6 184/2/6
f 185/2/6 186/2/6 187/2/6
f 187/2/6 186/2/6 188/2/6
