# MagicaVoxel @ Ephtracy

# group
o 

# material
mtllib light_post.mtl
usemtl palette

# normals
vn -1 0 0
vn 1 0 0
vn 0 0 1
vn 0 0 -1
vn 0 -1 0
vn 0 1 0

# texcoords
vt 0.00585938 0.5
vt 0.982422 0.5
vt 0.986328 0.5

# verts
v 0 8.8 -3.7
v 0 8.8 -4.1
v 0 8.9 -3.7
v 0 8.9 -4.1
v 0.1 2 -0.4
v 0.1 2 -1
v 0.1 2.9 -0.4
v 0.1 2.9 -1
v 0.1 8.8 -3.6
v 0.1 8.8 -3.7
v 0.1 8.8 -4.1
v 0.1 8.8 -4.2
v 0.1 8.9 -3.6
v 0.1 8.9 -3.7
v 0.1 8.9 -4.1
v 0.1 8.9 -4.2
v 0.1 9.1 -3.7
v 0.1 9.1 -4.1
v 0.2 2.9 -0.6
v 0.2 2.9 -0.8
v 0.2 8.5 -3.8
v 0.2 8.5 -4
v 0.2 8.8 -3.5
v 0.2 8.8 -3.6
v 0.2 8.8 -3.8
v 0.2 8.8 -4
v 0.2 8.8 -4.2
v 0.2 8.8 -4.3
v 0.2 8.9 -3.5
v 0.2 8.9 -3.6
v 0.2 8.9 -3.7
v 0.2 8.9 -4.1
v 0.2 8.9 -4.2
v 0.2 8.9 -4.3
v 0.2 9.1 -3.6
v 0.2 9.1 -3.7
v 0.2 9.1 -4.1
v 0.2 9.1 -4.2
v 0.2 9.4 0
v 0.2 9.4 -0.6
v 0.2 9.4 -0.9
v 0.2 9.4 -4
v 0.2 9.6 0
v 0.2 9.6 -0.6
v 0.2 9.6 -0.9
v 0.2 9.6 -4
v 0.2 10 -0.6
v 0.2 10 -0.8
v 0.3 2.9 -0.5
v 0.3 2.9 -0.6
v 0.3 2.9 -0.8
v 0.3 2.9 -0.9
v 0.3 8.4 -3.8
v 0.3 8.4 -4
v 0.3 8.5 -3.7
v 0.3 8.5 -3.8
v 0.3 8.5 -4
v 0.3 8.5 -4.1
v 0.3 8.8 -3.7
v 0.3 8.8 -3.8
v 0.3 8.8 -4
v 0.3 8.8 -4.1
v 0.3 9.1 -3.8
v 0.3 9.1 -4
v 0.3 9.3 0
v 0.3 9.3 -0.5
v 0.3 9.3 -0.9
v 0.3 9.3 -3.8
v 0.3 9.4 0
v 0.3 9.4 -0.6
v 0.3 9.4 -0.9
v 0.3 9.4 -4
v 0.3 9.6 0
v 0.3 9.6 -0.6
v 0.3 9.6 -0.9
v 0.3 9.6 -4
v 0.3 9.7 0
v 0.3 9.7 -0.5
v 0.3 9.7 -0.9
v 0.3 9.7 -4
v 0.3 10 -0.5
v 0.3 10 -0.6
v 0.3 10 -0.8
v 0.3 10 -0.9
v 0.5 2.9 -0.5
v 0.5 2.9 -0.6
v 0.5 2.9 -0.8
v 0.5 2.9 -0.9
v 0.5 8.4 -3.8
v 0.5 8.4 -4
v 0.5 8.5 -3.7
v 0.5 8.5 -3.8
v 0.5 8.5 -4
v 0.5 8.5 -4.1
v 0.5 8.8 -3.7
v 0.5 8.8 -3.8
v 0.5 8.8 -4
v 0.5 8.8 -4.1
v 0.5 9.1 -3.8
v 0.5 9.1 -4
v 0.5 9.3 0
v 0.5 9.3 -0.5
v 0.5 9.3 -0.9
v 0.5 9.3 -3.8
v 0.5 9.4 0
v 0.5 9.4 -0.6
v 0.5 9.4 -0.9
v 0.5 9.4 -4
v 0.5 9.6 0
v 0.5 9.6 -0.6
v 0.5 9.6 -0.9
v 0.5 9.6 -4
v 0.5 9.7 0
v 0.5 9.7 -0.5
v 0.5 9.7 -0.9
v 0.5 9.7 -4
v 0.5 10 -0.5
v 0.5 10 -0.6
v 0.5 10 -0.8
v 0.5 10 -0.9
v 0.6 2.9 -0.6
v 0.6 2.9 -0.8
v 0.6 8.5 -3.8
v 0.6 8.5 -4
v 0.6 8.8 -3.5
v 0.6 8.8 -3.6
v 0.6 8.8 -3.8
v 0.6 8.8 -4
v 0.6 8.8 -4.1
v 0.6 8.8 -4.3
v 0.6 8.9 -3.5
v 0.6 8.9 -3.6
v 0.6 8.9 -3.7
v 0.6 8.9 -4.2
v 0.6 8.9 -4.3
v 0.6 9.1 -3.6
v 0.6 9.1 -3.7
v 0.6 9.1 -4.1
v 0.6 9.1 -4.2
v 0.6 9.4 0
v 0.6 9.4 -0.6
v 0.6 9.4 -0.9
v 0.6 9.4 -4
v 0.6 9.6 0
v 0.6 9.6 -0.6
v 0.6 9.6 -0.9
v 0.6 9.6 -4
v 0.6 10 -0.6
v 0.6 10 -0.8
v 0.7 2 -0.4
v 0.7 2 -1
v 0.7 2.9 -0.4
v 0.7 2.9 -1
v 0.7 8.8 -3.6
v 0.7 8.8 -3.7
v 0.7 8.9 -3.6
v 0.7 8.9 -3.7
v 0.7 8.9 -4.1
v 0.7 9.1 -3.7
v 0.7 9.1 -4.1
v 0.8 8.8 -3.7
v 0.8 8.8 -4.1
v 0.8 8.9 -3.7
v 0.8 8.9 -4.1
v 0.2 9.4 0
v 0.2 9.6 0
v 0.3 9.3 0
v 0.3 9.4 0
v 0.3 9.6 0
v 0.3 9.7 0
v 0.5 9.3 0
v 0.5 9.4 0
v 0.5 9.6 0
v 0.5 9.7 0
v 0.6 9.4 0
v 0.6 9.6 0
v 0.1 2 -0.4
v 0.1 2.9 -0.4
v 0.7 2 -0.4
v 0.7 2.9 -0.4
v 0.3 2.9 -0.5
v 0.3 9.3 -0.5
v 0.3 9.7 -0.5
v 0.3 10 -0.5
v 0.5 2.9 -0.5
v 0.5 9.3 -0.5
v 0.5 9.7 -0.5
v 0.5 10 -0.5
v 0.2 2.9 -0.6
v 0.2 9.4 -0.6
v 0.2 9.6 -0.6
v 0.2 10 -0.6
v 0.3 2.9 -0.6
v 0.3 9.4 -0.6
v 0.3 9.6 -0.6
v 0.3 10 -0.6
v 0.5 2.9 -0.6
v 0.5 9.4 -0.6
v 0.5 9.6 -0.6
v 0.5 10 -0.6
v 0.6 2.9 -0.6
v 0.6 9.4 -0.6
v 0.6 9.6 -0.6
v 0.6 10 -0.6
v 0.2 9.4 -0.9
v 0.2 9.6 -0.9
v 0.3 9.4 -0.9
v 0.3 9.6 -0.9
v 0.5 9.4 -0.9
v 0.5 9.6 -0.9
v 0.6 9.4 -0.9
v 0.6 9.6 -0.9
v 0.2 8.8 -3.5
v 0.2 8.9 -3.5
v 0.6 8.8 -3.5
v 0.6 8.9 -3.5
v 0.1 8.8 -3.6
v 0.1 8.9 -3.6
v 0.2 8.8 -3.6
v 0.2 8.9 -3.6
v 0.2 9.1 -3.6
v 0.6 8.8 -3.6
v 0.6 8.9 -3.6
v 0.6 9.1 -3.6
v 0.7 8.8 -3.6
v 0.7 8.9 -3.6
v 0 8.8 -3.7
v 0 8.9 -3.7
v 0.1 8.8 -3.7
v 0.1 8.9 -3.7
v 0.1 9.1 -3.7
v 0.2 8.9 -3.7
v 0.2 9.1 -3.7
v 0.3 8.5 -3.7
v 0.3 8.8 -3.7
v 0.5 8.5 -3.7
v 0.5 8.8 -3.7
v 0.6 8.9 -3.7
v 0.6 9.1 -3.7
v 0.7 8.8 -3.7
v 0.7 8.9 -3.7
v 0.7 9.1 -3.7
v 0.8 8.8 -3.7
v 0.8 8.9 -3.7
v 0.2 8.5 -3.8
v 0.2 8.8 -3.8
v 0.3 8.4 -3.8
v 0.3 8.5 -3.8
v 0.3 8.8 -3.8
v 0.3 9.1 -3.8
v 0.3 9.3 -3.8
v 0.5 8.4 -3.8
v 0.5 8.5 -3.8
v 0.5 8.8 -3.8
v 0.5 9.1 -3.8
v 0.5 9.3 -3.8
v 0.6 8.5 -3.8
v 0.6 8.8 -3.8
v 0.2 2.9 -0.8
v 0.2 10 -0.8
v 0.3 2.9 -0.8
v 0.3 10 -0.8
v 0.5 2.9 -0.8
v 0.5 10 -0.8
v 0.6 2.9 -0.8
v 0.6 10 -0.8
v 0.3 2.9 -0.9
v 0.3 9.3 -0.9
v 0.3 9.7 -0.9
v 0.3 10 -0.9
v 0.5 2.9 -0.9
v 0.5 9.3 -0.9
v 0.5 9.7 -0.9
v 0.5 10 -0.9
v 0.1 2 -1
v 0.1 2.9 -1
v 0.7 2 -1
v 0.7 2.9 -1
v 0.2 8.5 -4
v 0.2 8.8 -4
v 0.2 9.4 -4
v 0.2 9.6 -4
v 0.3 8.4 -4
v 0.3 8.5 -4
v 0.3 8.8 -4
v 0.3 9.1 -4
v 0.3 9.4 -4
v 0.3 9.6 -4
v 0.3 9.7 -4
v 0.5 8.4 -4
v 0.5 8.5 -4
v 0.5 8.8 -4
v 0.5 9.1 -4
v 0.5 9.4 -4
v 0.5 9.6 -4
v 0.5 9.7 -4
v 0.6 8.5 -4
v 0.6 8.8 -4
v 0.6 9.4 -4
v 0.6 9.6 -4
v 0 8.8 -4.1
v 0 8.9 -4.1
v 0.1 8.8 -4.1
v 0.1 8.9 -4.1
v 0.1 9.1 -4.1
v 0.2 8.9 -4.1
v 0.2 9.1 -4.1
v 0.3 8.5 -4.1
v 0.3 8.8 -4.1
v 0.5 8.5 -4.1
v 0.5 8.8 -4.1
v 0.6 8.8 -4.1
v 0.6 9.1 -4.1
v 0.7 8.9 -4.1
v 0.7 9.1 -4.1
v 0.8 8.8 -4.1
v 0.8 8.9 -4.1
v 0.1 8.8 -4.2
v 0.1 8.9 -4.2
v 0.2 8.8 -4.2
v 0.2 8.9 -4.2
v 0.2 9.1 -4.2
v 0.6 8.9 -4.2
v 0.6 9.1 -4.2
v 0.2 8.8 -4.3
v 0.2 8.9 -4.3
v 0.6 8.8 -4.3
v 0.6 8.9 -4.3
v 0.1 2 -0.4
v 0.7 2 -0.4
v 0.1 2 -1
v 0.7 2 -1
v 0.3 8.4 -3.8
v 0.5 8.4 -3.8
v 0.3 8.4 -4
v 0.5 8.4 -4
v 0.3 8.5 -3.7
v 0.5 8.5 -3.7
v 0.2 8.5 -3.8
v 0.3 8.5 -3.8
v 0.5 8.5 -3.8
v 0.6 8.5 -3.8
v 0.2 8.5 -4
v 0.3 8.5 -4
v 0.5 8.5 -4
v 0.6 8.5 -4
v 0.3 8.5 -4.1
v 0.5 8.5 -4.1
v 0.2 8.8 -3.5
v 0.6 8.8 -3.5
v 0.1 8.8 -3.6
v 0.2 8.8 -3.6
v 0.6 8.8 -3.6
v 0.7 8.8 -3.6
v 0 8.8 -3.7
v 0.1 8.8 -3.7
v 0.3 8.8 -3.7
v 0.5 8.8 -3.7
v 0.7 8.8 -3.7
v 0.8 8.8 -3.7
v 0.2 8.8 -3.8
v 0.3 8.8 -3.8
v 0.5 8.8 -3.8
v 0.6 8.8 -3.8
v 0.2 8.8 -4
v 0.3 8.8 -4
v 0.5 8.8 -4
v 0.6 8.8 -4
v 0 8.8 -4.1
v 0.1 8.8 -4.1
v 0.3 8.8 -4.1
v 0.5 8.8 -4.1
v 0.6 8.8 -4.1
v 0.8 8.8 -4.1
v 0.1 8.8 -4.2
v 0.2 8.8 -4.2
v 0.2 8.8 -4.3
v 0.6 8.8 -4.3
v 0.3 9.3 0
v 0.5 9.3 0
v 0.3 9.3 -0.5
v 0.5 9.3 -0.5
v 0.3 9.3 -0.9
v 0.5 9.3 -0.9
v 0.3 9.3 -3.8
v 0.5 9.3 -3.8
v 0.2 9.4 0
v 0.3 9.4 0
v 0.5 9.4 0
v 0.6 9.4 0
v 0.2 9.4 -0.6
v 0.3 9.4 -0.6
v 0.5 9.4 -0.6
v 0.6 9.4 -0.6
v 0.2 9.4 -0.9
v 0.3 9.4 -0.9
v 0.5 9.4 -0.9
v 0.6 9.4 -0.9
v 0.2 9.4 -4
v 0.3 9.4 -4
v 0.5 9.4 -4
v 0.6 9.4 -4
v 0.1 2.9 -0.4
v 0.7 2.9 -0.4
v 0.3 2.9 -0.5
v 0.5 2.9 -0.5
v 0.2 2.9 -0.6
v 0.3 2.9 -0.6
v 0.5 2.9 -0.6
v 0.6 2.9 -0.6
v 0.2 2.9 -0.8
v 0.3 2.9 -0.8
v 0.5 2.9 -0.8
v 0.6 2.9 -0.8
v 0.3 2.9 -0.9
v 0.5 2.9 -0.9
v 0.1 2.9 -1
v 0.7 2.9 -1
v 0.2 8.9 -3.5
v 0.6 8.9 -3.5
v 0.1 8.9 -3.6
v 0.2 8.9 -3.6
v 0.6 8.9 -3.6
v 0.7 8.9 -3.6
v 0 8.9 -3.7
v 0.1 8.9 -3.7
v 0.2 8.9 -3.7
v 0.6 8.9 -3.7
v 0.7 8.9 -3.7
v 0.8 8.9 -3.7
v 0 8.9 -4.1
v 0.1 8.9 -4.1
v 0.2 8.9 -4.1
v 0.7 8.9 -4.1
v 0.8 8.9 -4.1
v 0.1 8.9 -4.2
v 0.2 8.9 -4.2
v 0.6 8.9 -4.2
v 0.2 8.9 -4.3
v 0.6 8.9 -4.3
v 0.2 9.1 -3.6
v 0.6 9.1 -3.6
v 0.1 9.1 -3.7
v 0.2 9.1 -3.7
v 0.6 9.1 -3.7
v 0.7 9.1 -3.7
v 0.3 9.1 -3.8
v 0.5 9.1 -3.8
v 0.3 9.1 -4
v 0.5 9.1 -4
v 0.1 9.1 -4.1
v 0.2 9.1 -4.1
v 0.6 9.1 -4.1
v 0.7 9.1 -4.1
v 0.2 9.1 -4.2
v 0.6 9.1 -4.2
v 0.2 9.6 0
v 0.3 9.6 0
v 0.5 9.6 0
v 0.6 9.6 0
v 0.2 9.6 -0.6
v 0.3 9.6 -0.6
v 0.5 9.6 -0.6
v 0.6 9.6 -0.6
v 0.2 9.6 -0.9
v 0.3 9.6 -0.9
v 0.5 9.6 -0.9
v 0.6 9.6 -0.9
v 0.2 9.6 -4
v 0.3 9.6 -4
v 0.5 9.6 -4
v 0.6 9.6 -4
v 0.3 9.7 0
v 0.5 9.7 0
v 0.3 9.7 -0.5
v 0.5 9.7 -0.5
v 0.3 9.7 -0.9
v 0.5 9.7 -0.9
v 0.3 9.7 -4
v 0.5 9.7 -4
v 0.3 10 -0.5
v 0.5 10 -0.5
v 0.2 10 -0.6
v 0.3 10 -0.6
v 0.5 10 -0.6
v 0.6 10 -0.6
v 0.2 10 -0.8
v 0.3 10 -0.8
v 0.5 10 -0.8
v 0.6 10 -0.8
v 0.3 10 -0.9
v 0.5 10 -0.9

# faces
f 3/3/1 2/3/1 1/3/1
f 4/3/1 2/3/1 3/3/1
f 7/2/1 6/2/1 5/2/1
f 8/2/1 6/2/1 7/2/1
f 13/3/1 10/3/1 9/3/1
f 14/3/1 10/3/1 13/3/1
f 15/3/1 12/3/1 11/3/1
f 16/3/1 12/3/1 15/3/1
f 17/3/1 15/3/1 14/3/1
f 18/3/1 15/3/1 17/3/1
f 25/1/1 22/1/1 21/1/1
f 26/1/1 22/1/1 25/1/1
f 29/3/1 24/3/1 23/3/1
f 30/3/1 24/3/1 29/3/1
f 33/3/1 28/3/1 27/3/1
f 34/3/1 28/3/1 33/3/1
f 35/3/1 31/3/1 30/3/1
f 36/3/1 31/3/1 35/3/1
f 37/3/1 33/3/1 32/3/1
f 38/3/1 33/3/1 37/3/1
f 40/3/1 20/3/1 19/3/1
f 43/3/1 40/3/1 39/3/1
f 44/3/1 20/3/1 40/3/1
f 44/3/1 40/3/1 43/3/1
f 45/3/1 42/3/1 41/3/1
f 46/3/1 42/3/1 45/3/1
f 47/3/1 20/3/1 44/3/1
f 48/3/1 20/3/1 47/3/1
f 56/1/1 54/1/1 53/1/1
f 57/1/1 54/1/1 56/1/1
f 59/1/1 56/1/1 55/1/1
f 60/1/1 56/1/1 59/1/1
f 61/1/1 58/1/1 57/1/1
f 62/1/1 58/1/1 61/1/1
f 66/3/1 50/3/1 49/3/1
f 67/3/1 52/3/1 51/3/1
f 68/3/1 64/3/1 63/3/1
f 69/3/1 66/3/1 65/3/1
f 70/3/1 50/3/1 66/3/1
f 70/3/1 66/3/1 69/3/1
f 71/3/1 67/3/1 51/3/1
f 71/3/1 68/3/1 67/3/1
f 72/3/1 64/3/1 68/3/1
f 72/3/1 68/3/1 71/3/1
f 75/3/1 71/3/1 51/3/1
f 77/3/1 74/3/1 73/3/1
f 78/3/1 74/3/1 77/3/1
f 79/3/1 76/3/1 75/3/1
f 79/3/1 75/3/1 51/3/1
f 80/3/1 76/3/1 79/3/1
f 81/3/1 74/3/1 78/3/1
f 82/3/1 74/3/1 81/3/1
f 83/3/1 79/3/1 51/3/1
f 84/3/1 79/3/1 83/3/1
f 89/1/2 90/1/2 92/1/2
f 92/1/2 90/1/2 93/1/2
f 91/1/2 92/1/2 95/1/2
f 95/1/2 92/1/2 96/1/2
f 93/1/2 94/1/2 97/1/2
f 97/1/2 94/1/2 98/1/2
f 85/3/2 86/3/2 102/3/2
f 87/3/2 88/3/2 103/3/2
f 99/3/2 100/3/2 104/3/2
f 101/3/2 102/3/2 105/3/2
f 102/3/2 86/3/2 106/3/2
f 105/3/2 102/3/2 106/3/2
f 87/3/2 103/3/2 107/3/2
f 103/3/2 104/3/2 107/3/2
f 104/3/2 100/3/2 108/3/2
f 107/3/2 104/3/2 108/3/2
f 87/3/2 107/3/2 111/3/2
f 109/3/2 110/3/2 113/3/2
f 113/3/2 110/3/2 114/3/2
f 111/3/2 112/3/2 115/3/2
f 87/3/2 111/3/2 115/3/2
f 115/3/2 112/3/2 116/3/2
f 114/3/2 110/3/2 117/3/2
f 117/3/2 110/3/2 118/3/2
f 87/3/2 115/3/2 119/3/2
f 119/3/2 115/3/2 120/3/2
f 123/1/2 124/1/2 127/1/2
f 127/1/2 124/1/2 128/1/2
f 125/3/2 126/3/2 131/3/2
f 131/3/2 126/3/2 132/3/2
f 129/3/2 130/3/2 134/3/2
f 134/3/2 130/3/2 135/3/2
f 132/3/2 133/3/2 136/3/2
f 136/3/2 133/3/2 137/3/2
f 129/3/2 134/3/2 138/3/2
f 138/3/2 134/3/2 139/3/2
f 121/3/2 122/3/2 141/3/2
f 140/3/2 141/3/2 144/3/2
f 141/3/2 122/3/2 145/3/2
f 144/3/2 141/3/2 145/3/2
f 142/3/2 143/3/2 146/3/2
f 146/3/2 143/3/2 147/3/2
f 145/3/2 122/3/2 148/3/2
f 148/3/2 122/3/2 149/3/2
f 150/2/2 151/2/2 152/2/2
f 152/2/2 151/2/2 153/2/2
f 154/3/2 155/3/2 156/3/2
f 156/3/2 155/3/2 157/3/2
f 157/3/2 158/3/2 159/3/2
f 159/3/2 158/3/2 160/3/2
f 161/3/2 162/3/2 163/3/2
f 163/3/2 162/3/2 164/3/2
f 168/3/3 166/3/3 165/3/3
f 169/3/3 166/3/3 168/3/3
f 171/3/3 168/3/3 167/3/3
f 171/3/3 170/3/3 169/3/3
f 171/3/3 169/3/3 168/3/3
f 172/3/3 170/3/3 171/3/3
f 173/3/3 170/3/3 172/3/3
f 174/3/3 170/3/3 173/3/3
f 175/3/3 173/3/3 172/3/3
f 176/3/3 173/3/3 175/3/3
f 179/2/3 178/2/3 177/2/3
f 180/2/3 178/2/3 179/2/3
f 185/3/3 182/3/3 181/3/3
f 186/3/3 182/3/3 185/3/3
f 187/3/3 184/3/3 183/3/3
f 188/3/3 184/3/3 187/3/3
f 193/3/3 190/3/3 189/3/3
f 194/3/3 190/3/3 193/3/3
f 195/3/3 192/3/3 191/3/3
f 196/3/3 192/3/3 195/3/3
f 201/3/3 198/3/3 197/3/3
f 202/3/3 198/3/3 201/3/3
f 203/3/3 200/3/3 199/3/3
f 204/3/3 200/3/3 203/3/3
f 207/3/3 206/3/3 205/3/3
f 208/3/3 206/3/3 207/3/3
f 211/3/3 210/3/3 209/3/3
f 212/3/3 210/3/3 211/3/3
f 215/3/3 214/3/3 213/3/3
f 216/3/3 214/3/3 215/3/3
f 219/3/3 218/3/3 217/3/3
f 220/3/3 218/3/3 219/3/3
f 223/3/3 221/3/3 220/3/3
f 224/3/3 221/3/3 223/3/3
f 225/3/3 223/3/3 222/3/3
f 226/3/3 223/3/3 225/3/3
f 229/3/3 228/3/3 227/3/3
f 230/3/3 228/3/3 229/3/3
f 232/3/3 231/3/3 230/3/3
f 233/3/3 231/3/3 232/3/3
f 236/1/3 235/1/3 234/1/3
f 237/1/3 235/1/3 236/1/3
f 241/3/3 239/3/3 238/3/3
f 242/3/3 239/3/3 241/3/3
f 243/3/3 241/3/3 240/3/3
f 244/3/3 241/3/3 243/3/3
f 248/1/3 246/1/3 245/1/3
f 249/1/3 246/1/3 248/1/3
f 252/1/3 248/1/3 247/1/3
f 253/1/3 248/1/3 252/1/3
f 255/3/3 251/3/3 250/3/3
f 256/3/3 251/3/3 255/3/3
f 257/1/3 254/1/3 253/1/3
f 258/1/3 254/1/3 257/1/3
f 259/3/4 260/3/4 261/3/4
f 261/3/4 260/3/4 262/3/4
f 263/3/4 264/3/4 265/3/4
f 265/3/4 264/3/4 266/3/4
f 267/3/4 268/3/4 271/3/4
f 271/3/4 268/3/4 272/3/4
f 269/3/4 270/3/4 273/3/4
f 273/3/4 270/3/4 274/3/4
f 275/2/4 276/2/4 277/2/4
f 277/2/4 276/2/4 278/2/4
f 279/1/4 280/1/4 284/1/4
f 284/1/4 280/1/4 285/1/4
f 281/3/4 282/3/4 287/3/4
f 287/3/4 282/3/4 288/3/4
f 283/1/4 284/1/4 290/1/4
f 290/1/4 284/1/4 291/1/4
f 288/3/4 289/3/4 293/3/4
f 287/3/4 288/3/4 293/3/4
f 286/3/4 287/3/4 293/3/4
f 293/3/4 289/3/4 294/3/4
f 294/3/4 289/3/4 295/3/4
f 295/3/4 289/3/4 296/3/4
f 291/1/4 292/1/4 297/1/4
f 297/1/4 292/1/4 298/1/4
f 294/3/4 295/3/4 299/3/4
f 299/3/4 295/3/4 300/3/4
f 301/3/4 302/3/4 303/3/4
f 303/3/4 302/3/4 304/3/4
f 304/3/4 305/3/4 306/3/4
f 306/3/4 305/3/4 307/3/4
f 308/1/4 309/1/4 310/1/4
f 310/1/4 309/1/4 311/1/4
f 312/3/4 313/3/4 314/3/4
f 314/3/4 313/3/4 315/3/4
f 312/3/4 314/3/4 316/3/4
f 316/3/4 314/3/4 317/3/4
f 318/3/4 319/3/4 320/3/4
f 320/3/4 319/3/4 321/3/4
f 321/3/4 322/3/4 323/3/4
f 323/3/4 322/3/4 324/3/4
f 325/3/4 326/3/4 327/3/4
f 327/3/4 326/3/4 328/3/4
f 331/2/5 330/2/5 329/2/5
f 332/2/5 330/2/5 331/2/5
f 335/1/5 334/1/5 333/1/5
f 336/1/5 334/1/5 335/1/5
f 340/1/5 338/1/5 337/1/5
f 341/1/5 338/1/5 340/1/5
f 343/1/5 340/1/5 339/1/5
f 344/1/5 340/1/5 343/1/5
f 345/1/5 342/1/5 341/1/5
f 346/1/5 342/1/5 345/1/5
f 347/1/5 345/1/5 344/1/5
f 348/1/5 345/1/5 347/1/5
f 352/3/5 350/3/5 349/3/5
f 353/3/5 350/3/5 352/3/5
f 356/3/5 352/3/5 351/3/5
f 356/3/5 354/3/5 353/3/5
f 356/3/5 353/3/5 352/3/5
f 357/3/5 354/3/5 356/3/5
f 358/3/5 354/3/5 357/3/5
f 359/3/5 354/3/5 358/3/5
f 361/3/5 356/3/5 355/3/5
f 361/3/5 357/3/5 356/3/5
f 362/3/5 357/3/5 361/3/5
f 363/3/5 360/3/5 359/3/5
f 363/3/5 359/3/5 358/3/5
f 364/3/5 360/3/5 363/3/5
f 365/3/5 361/3/5 355/3/5
f 368/3/5 360/3/5 364/3/5
f 369/3/5 366/3/5 365/3/5
f 369/3/5 365/3/5 355/3/5
f 370/3/5 366/3/5 369/3/5
f 371/3/5 366/3/5 370/3/5
f 372/3/5 368/3/5 367/3/5
f 373/3/5 360/3/5 368/3/5
f 373/3/5 368/3/5 372/3/5
f 374/3/5 360/3/5 373/3/5
f 375/3/5 371/3/5 370/3/5
f 375/3/5 372/3/5 371/3/5
f 375/3/5 373/3/5 372/3/5
f 376/3/5 373/3/5 375/3/5
f 377/3/5 373/3/5 376/3/5
f 378/3/5 373/3/5 377/3/5
f 381/3/5 380/3/5 379/3/5
f 382/3/5 380/3/5 381/3/5
f 385/3/5 384/3/5 383/3/5
f 386/3/5 384/3/5 385/3/5
f 391/3/5 388/3/5 387/3/5
f 392/3/5 388/3/5 391/3/5
f 393/3/5 390/3/5 389/3/5
f 394/3/5 390/3/5 393/3/5
f 399/3/5 396/3/5 395/3/5
f 400/3/5 396/3/5 399/3/5
f 401/3/5 398/3/5 397/3/5
f 402/3/5 398/3/5 401/3/5
f 403/2/6 404/2/6 405/2/6
f 405/2/6 404/2/6 406/2/6
f 403/2/6 405/2/6 407/2/6
f 407/2/6 405/2/6 408/2/6
f 406/2/6 404/2/6 409/2/6
f 409/2/6 404/2/6 410/2/6
f 403/2/6 407/2/6 411/2/6
f 410/2/6 404/2/6 414/2/6
f 411/2/6 412/2/6 415/2/6
f 413/2/6 414/2/6 416/2/6
f 411/2/6 415/2/6 417/2/6
f 415/2/6 416/2/6 417/2/6
f 403/2/6 411/2/6 417/2/6
f 416/2/6 414/2/6 418/2/6
f 417/2/6 416/2/6 418/2/6
f 414/2/6 404/2/6 418/2/6
f 419/3/6 420/3/6 422/3/6
f 422/3/6 420/3/6 423/3/6
f 421/3/6 422/3/6 426/3/6
f 426/3/6 422/3/6 427/3/6
f 423/3/6 424/3/6 428/3/6
f 428/3/6 424/3/6 429/3/6
f 425/3/6 426/3/6 431/3/6
f 431/3/6 426/3/6 432/3/6
f 429/3/6 430/3/6 434/3/6
f 434/3/6 430/3/6 435/3/6
f 432/3/6 433/3/6 436/3/6
f 436/3/6 433/3/6 437/3/6
f 437/3/6 438/3/6 439/3/6
f 439/3/6 438/3/6 440/3/6
f 441/3/6 442/3/6 444/3/6
f 444/3/6 442/3/6 445/3/6
f 443/3/6 444/3/6 447/3/6
f 445/3/6 446/3/6 447/3/6
f 444/3/6 445/3/6 447/3/6
f 447/3/6 446/3/6 448/3/6
f 443/3/6 447/3/6 449/3/6
f 448/3/6 446/3/6 450/3/6
f 443/3/6 449/3/6 451/3/6
f 449/3/6 450/3/6 451/3/6
f 451/3/6 450/3/6 452/3/6
f 450/3/6 446/3/6 453/3/6
f 452/3/6 450/3/6 453/3/6
f 453/3/6 446/3/6 454/3/6
f 452/3/6 453/3/6 455/3/6
f 455/3/6 453/3/6 456/3/6
f 457/3/6 458/3/6 461/3/6
f 461/3/6 458/3/6 462/3/6
f 459/3/6 460/3/6 463/3/6
f 463/3/6 460/3/6 464/3/6
f 465/3/6 466/3/6 469/3/6
f 469/3/6 466/3/6 470/3/6
f 467/3/6 468/3/6 471/3/6
f 471/3/6 468/3/6 472/3/6
f 473/3/6 474/3/6 475/3/6
f 475/3/6 474/3/6 476/3/6
f 477/3/6 478/3/6 479/3/6
f 479/3/6 478/3/6 480/3/6
f 481/3/6 482/3/6 484/3/6
f 484/3/6 482/3/6 485/3/6
f 483/3/6 484/3/6 487/3/6
f 485/3/6 486/3/6 487/3/6
f 484/3/6 485/3/6 487/3/6
f 487/3/6 486/3/6 488/3/6
f 488/3/6 486/3/6 489/3/6
f 489/3/6 486/3/6 490/3/6
f 488/3/6 489/3/6 491/3/6
f 491/3/6 489/3/6 492/3/6
