# MagicaVoxel @ Ephtracy

# group
o 

# material
mtllib rat_ledgel_0.mtl
usemtl palette

# normals
vn -1 0 0
vn 1 0 0
vn 0 0 1
vn 0 0 -1
vn 0 -1 0
vn 0 1 0

# texcoords
vt 0.0292969 0.5
vt 0.982422 0.5
vt 0.994141 0.5

# verts
v 0 2.6 -0.4
v 0 2.6 -0.5
v 0 2.7 -0.4
v 0 2.7 -0.5
v 0.1 2 -0.8
v 0.1 2 -1
v 0.1 2.1 -0.4
v 0.1 2.1 -0.6
v 0.1 2.1 -0.8
v 0.1 2.1 -0.9
v 0.1 2.1 -1
v 0.1 2.1 -1.1
v 0.1 2.1 -1.6
v 0.1 2.1 -1.7
v 0.1 2.2 -1.6
v 0.1 2.2 -1.7
v 0.1 2.3 -0.4
v 0.1 2.3 -0.6
v 0.1 2.4 -0.2
v 0.1 2.4 -0.3
v 0.1 2.4 -0.9
v 0.1 2.4 -1.1
v 0.1 2.5 -0.2
v 0.1 2.5 -0.3
v 0.1 2.5 -0.4
v 0.1 2.6 -0.3
v 0.1 2.6 -0.4
v 0.2 2 -0.2
v 0.2 2 -0.4
v 0.2 2.1 -0.2
v 0.2 2.1 -0.4
v 0.2 2.2 -0.3
v 0.2 2.2 -0.4
v 0.2 2.2 -0.6
v 0.2 2.2 -0.9
v 0.2 2.2 -1.4
v 0.2 2.2 -1.6
v 0.2 2.3 -0.1
v 0.2 2.3 -0.3
v 0.2 2.3 -0.4
v 0.2 2.3 -0.6
v 0.2 2.3 -1.4
v 0.2 2.3 -1.6
v 0.2 2.4 -0.2
v 0.2 2.4 -0.3
v 0.2 2.4 -0.9
v 0.2 2.4 -1.1
v 0.2 2.5 -0.1
v 0.2 2.5 -0.2
v 0.2 2.5 -0.3
v 0.2 2.5 -0.4
v 0.2 2.5 -1.1
v 0.2 2.6 -0.2
v 0.2 2.6 -0.3
v 0.3 2 0
v 0.3 2 -0.2
v 0.3 2.1 0
v 0.3 2.1 -0.2
v 0.3 2.2 -0.2
v 0.3 2.2 -0.3
v 0.3 2.3 0
v 0.3 2.3 -0.1
v 0.3 2.3 -0.2
v 0.3 2.3 -0.3
v 0.3 2.3 -1.1
v 0.3 2.3 -1.2
v 0.3 2.3 -1.4
v 0.3 2.4 0
v 0.3 2.4 -0.1
v 0.3 2.4 -1.1
v 0.3 2.4 -1.2
v 0.3 2.4 -1.4
v 0.4 2.3 -0.4
v 0.4 2.3 -0.6
v 0.4 2.3 -0.7
v 0.4 2.3 -1.1
v 0.4 2.4 -0.4
v 0.4 2.4 -0.6
v 0.4 2.4 -0.7
v 0.4 2.4 -1.1
v 0.4 2.6 -0.4
v 0.4 2.6 -0.5
v 0.4 2.7 -0.4
v 0.4 2.7 -0.5
v 0.5 2 -0.8
v 0.5 2 -1
v 0.5 2.1 -0.4
v 0.5 2.1 -0.6
v 0.5 2.1 -0.8
v 0.5 2.1 -0.9
v 0.5 2.1 -1
v 0.5 2.1 -1.1
v 0.5 2.2 -0.4
v 0.5 2.2 -0.6
v 0.5 2.2 -0.9
v 0.5 2.2 -1.1
v 0.6 2 -0.2
v 0.6 2 -0.4
v 0.6 2.1 -0.2
v 0.6 2.1 -0.4
v 0.7 2 0
v 0.7 2 -0.2
v 0.7 2.1 0
v 0.7 2.1 -0.2
v 0.1 2.6 -0.4
v 0.1 2.6 -0.5
v 0.1 2.7 -0.4
v 0.1 2.7 -0.5
v 0.2 2 -0.8
v 0.2 2 -1
v 0.2 2.1 -0.4
v 0.2 2.1 -0.6
v 0.2 2.1 -0.8
v 0.2 2.1 -0.9
v 0.2 2.1 -1
v 0.2 2.1 -1.1
v 0.2 2.1 -1.6
v 0.2 2.1 -1.7
v 0.2 2.2 -0.4
v 0.2 2.2 -0.6
v 0.2 2.2 -0.9
v 0.2 2.2 -1.1
v 0.2 2.2 -1.6
v 0.2 2.2 -1.7
v 0.3 2 -0.2
v 0.3 2 -0.4
v 0.3 2.1 -0.2
v 0.3 2.1 -0.4
v 0.3 2.2 -1.4
v 0.3 2.2 -1.6
v 0.3 2.3 -0.4
v 0.3 2.3 -0.6
v 0.3 2.3 -0.7
v 0.3 2.3 -1.1
v 0.3 2.3 -1.4
v 0.3 2.3 -1.6
v 0.3 2.4 -0.4
v 0.3 2.4 -0.6
v 0.3 2.4 -0.7
v 0.3 2.4 -1.1
v 0.4 2 0
v 0.4 2 -0.2
v 0.4 2.1 0
v 0.4 2.1 -0.2
v 0.4 2.2 -0.2
v 0.4 2.2 -0.3
v 0.4 2.3 0
v 0.4 2.3 -0.1
v 0.4 2.3 -0.2
v 0.4 2.3 -0.3
v 0.4 2.3 -1.1
v 0.4 2.3 -1.2
v 0.4 2.3 -1.4
v 0.4 2.4 0
v 0.4 2.4 -0.1
v 0.4 2.4 -1.1
v 0.4 2.4 -1.2
v 0.4 2.4 -1.4
v 0.5 2.2 -0.3
v 0.5 2.2 -0.4
v 0.5 2.2 -0.6
v 0.5 2.2 -0.9
v 0.5 2.3 -0.1
v 0.5 2.3 -0.3
v 0.5 2.3 -0.4
v 0.5 2.3 -0.6
v 0.5 2.4 -0.2
v 0.5 2.4 -0.3
v 0.5 2.4 -0.9
v 0.5 2.4 -1.1
v 0.5 2.5 -0.1
v 0.5 2.5 -0.2
v 0.5 2.5 -0.3
v 0.5 2.5 -0.4
v 0.5 2.5 -1.1
v 0.5 2.6 -0.2
v 0.5 2.6 -0.3
v 0.5 2.6 -0.4
v 0.5 2.6 -0.5
v 0.5 2.7 -0.4
v 0.5 2.7 -0.5
v 0.6 2 -0.8
v 0.6 2 -1
v 0.6 2.1 -0.4
v 0.6 2.1 -0.6
v 0.6 2.1 -0.8
v 0.6 2.1 -0.9
v 0.6 2.1 -1
v 0.6 2.1 -1.1
v 0.6 2.3 -0.4
v 0.6 2.3 -0.6
v 0.6 2.4 -0.2
v 0.6 2.4 -0.3
v 0.6 2.4 -0.9
v 0.6 2.4 -1.1
v 0.6 2.5 -0.2
v 0.6 2.5 -0.3
v 0.6 2.5 -0.4
v 0.6 2.6 -0.3
v 0.6 2.6 -0.4
v 0.7 2 -0.2
v 0.7 2 -0.4
v 0.7 2.1 -0.2
v 0.7 2.1 -0.4
v 0.8 2 0
v 0.8 2 -0.2
v 0.8 2.1 0
v 0.8 2.1 -0.2
v 0.3 2 0
v 0.3 2.1 0
v 0.3 2.3 0
v 0.3 2.4 0
v 0.4 2 0
v 0.4 2.1 0
v 0.4 2.3 0
v 0.4 2.4 0
v 0.7 2 0
v 0.7 2.1 0
v 0.8 2 0
v 0.8 2.1 0
v 0.2 2.3 -0.1
v 0.2 2.5 -0.1
v 0.3 2.3 -0.1
v 0.3 2.4 -0.1
v 0.4 2.3 -0.1
v 0.4 2.4 -0.1
v 0.5 2.3 -0.1
v 0.5 2.5 -0.1
v 0.1 2.4 -0.2
v 0.1 2.5 -0.2
v 0.2 2 -0.2
v 0.2 2.1 -0.2
v 0.2 2.4 -0.2
v 0.2 2.5 -0.2
v 0.2 2.6 -0.2
v 0.3 2 -0.2
v 0.3 2.1 -0.2
v 0.3 2.2 -0.2
v 0.3 2.3 -0.2
v 0.4 2.2 -0.2
v 0.4 2.3 -0.2
v 0.5 2.4 -0.2
v 0.5 2.5 -0.2
v 0.5 2.6 -0.2
v 0.6 2 -0.2
v 0.6 2.1 -0.2
v 0.6 2.4 -0.2
v 0.6 2.5 -0.2
v 0.7 2 -0.2
v 0.7 2.1 -0.2
v 0.1 2.5 -0.3
v 0.1 2.6 -0.3
v 0.2 2.2 -0.3
v 0.2 2.3 -0.3
v 0.2 2.5 -0.3
v 0.2 2.6 -0.3
v 0.3 2.2 -0.3
v 0.3 2.3 -0.3
v 0.4 2.2 -0.3
v 0.4 2.3 -0.3
v 0.5 2.2 -0.3
v 0.5 2.3 -0.3
v 0.5 2.5 -0.3
v 0.5 2.6 -0.3
v 0.6 2.5 -0.3
v 0.6 2.6 -0.3
v 0 2.6 -0.4
v 0 2.7 -0.4
v 0.1 2.1 -0.4
v 0.1 2.3 -0.4
v 0.1 2.6 -0.4
v 0.1 2.7 -0.4
v 0.2 2.1 -0.4
v 0.2 2.2 -0.4
v 0.2 2.3 -0.4
v 0.4 2.6 -0.4
v 0.4 2.7 -0.4
v 0.5 2.1 -0.4
v 0.5 2.2 -0.4
v 0.5 2.3 -0.4
v 0.5 2.6 -0.4
v 0.5 2.7 -0.4
v 0.6 2.1 -0.4
v 0.6 2.3 -0.4
v 0.3 2.3 -0.6
v 0.3 2.4 -0.6
v 0.4 2.3 -0.6
v 0.4 2.4 -0.6
v 0.1 2 -0.8
v 0.1 2.1 -0.8
v 0.2 2 -0.8
v 0.2 2.1 -0.8
v 0.5 2 -0.8
v 0.5 2.1 -0.8
v 0.6 2 -0.8
v 0.6 2.1 -0.8
v 0.1 2.1 -0.9
v 0.1 2.4 -0.9
v 0.2 2.1 -0.9
v 0.2 2.2 -0.9
v 0.2 2.4 -0.9
v 0.5 2.1 -0.9
v 0.5 2.2 -0.9
v 0.5 2.4 -0.9
v 0.6 2.1 -0.9
v 0.6 2.4 -0.9
v 0.3 2.3 -1.1
v 0.3 2.4 -1.1
v 0.4 2.3 -1.1
v 0.4 2.4 -1.1
v 0.2 2.2 -1.4
v 0.2 2.3 -1.4
v 0.3 2.2 -1.4
v 0.3 2.3 -1.4
v 0.1 2.1 -1.6
v 0.1 2.2 -1.6
v 0.2 2.1 -1.6
v 0.2 2.2 -1.6
v 0.3 2 -0.2
v 0.3 2.1 -0.2
v 0.4 2 -0.2
v 0.4 2.1 -0.2
v 0.7 2 -0.2
v 0.7 2.1 -0.2
v 0.8 2 -0.2
v 0.8 2.1 -0.2
v 0.1 2.4 -0.3
v 0.1 2.5 -0.3
v 0.2 2.4 -0.3
v 0.2 2.5 -0.3
v 0.5 2.4 -0.3
v 0.5 2.5 -0.3
v 0.6 2.4 -0.3
v 0.6 2.5 -0.3
v 0.1 2.5 -0.4
v 0.1 2.6 -0.4
v 0.2 2 -0.4
v 0.2 2.1 -0.4
v 0.2 2.5 -0.4
v 0.2 2.6 -0.4
v 0.3 2 -0.4
v 0.3 2.1 -0.4
v 0.3 2.3 -0.4
v 0.3 2.4 -0.4
v 0.4 2.3 -0.4
v 0.4 2.4 -0.4
v 0.4 2.6 -0.4
v 0.5 2.5 -0.4
v 0.5 2.6 -0.4
v 0.6 2 -0.4
v 0.6 2.1 -0.4
v 0.6 2.5 -0.4
v 0.6 2.6 -0.4
v 0.7 2 -0.4
v 0.7 2.1 -0.4
v 0 2.6 -0.5
v 0 2.7 -0.5
v 0.1 2.6 -0.5
v 0.1 2.7 -0.5
v 0.4 2.6 -0.5
v 0.4 2.7 -0.5
v 0.5 2.6 -0.5
v 0.5 2.7 -0.5
v 0.1 2.1 -0.6
v 0.1 2.3 -0.6
v 0.2 2.1 -0.6
v 0.2 2.2 -0.6
v 0.2 2.3 -0.6
v 0.5 2.1 -0.6
v 0.5 2.2 -0.6
v 0.5 2.3 -0.6
v 0.6 2.1 -0.6
v 0.6 2.3 -0.6
v 0.3 2.3 -0.7
v 0.3 2.4 -0.7
v 0.4 2.3 -0.7
v 0.4 2.4 -0.7
v 0.1 2 -1
v 0.1 2.1 -1
v 0.2 2 -1
v 0.2 2.1 -1
v 0.5 2 -1
v 0.5 2.1 -1
v 0.6 2 -1
v 0.6 2.1 -1
v 0.1 2.1 -1.1
v 0.1 2.4 -1.1
v 0.2 2.1 -1.1
v 0.2 2.2 -1.1
v 0.2 2.4 -1.1
v 0.2 2.5 -1.1
v 0.3 2.3 -1.1
v 0.3 2.4 -1.1
v 0.4 2.3 -1.1
v 0.4 2.4 -1.1
v 0.5 2.1 -1.1
v 0.5 2.2 -1.1
v 0.5 2.4 -1.1
v 0.5 2.5 -1.1
v 0.6 2.1 -1.1
v 0.6 2.4 -1.1
v 0.3 2.3 -1.4
v 0.3 2.4 -1.4
v 0.4 2.3 -1.4
v 0.4 2.4 -1.4
v 0.2 2.2 -1.6
v 0.2 2.3 -1.6
v 0.3 2.2 -1.6
v 0.3 2.3 -1.6
v 0.1 2.1 -1.7
v 0.1 2.2 -1.7
v 0.2 2.1 -1.7
v 0.2 2.2 -1.7
v 0.3 2 0
v 0.4 2 0
v 0.7 2 0
v 0.8 2 0
v 0.2 2 -0.2
v 0.3 2 -0.2
v 0.4 2 -0.2
v 0.6 2 -0.2
v 0.7 2 -0.2
v 0.8 2 -0.2
v 0.2 2 -0.4
v 0.3 2 -0.4
v 0.6 2 -0.4
v 0.7 2 -0.4
v 0.1 2 -0.8
v 0.2 2 -0.8
v 0.5 2 -0.8
v 0.6 2 -0.8
v 0.1 2 -1
v 0.2 2 -1
v 0.5 2 -1
v 0.6 2 -1
v 0.1 2.1 -0.4
v 0.2 2.1 -0.4
v 0.5 2.1 -0.4
v 0.6 2.1 -0.4
v 0.1 2.1 -0.6
v 0.2 2.1 -0.6
v 0.5 2.1 -0.6
v 0.6 2.1 -0.6
v 0.1 2.1 -1
v 0.2 2.1 -1
v 0.5 2.1 -1
v 0.6 2.1 -1
v 0.1 2.1 -1.1
v 0.2 2.1 -1.1
v 0.5 2.1 -1.1
v 0.6 2.1 -1.1
v 0.1 2.1 -1.6
v 0.2 2.1 -1.6
v 0.1 2.1 -1.7
v 0.2 2.1 -1.7
v 0.3 2.2 -0.2
v 0.4 2.2 -0.2
v 0.2 2.2 -0.3
v 0.3 2.2 -0.3
v 0.4 2.2 -0.3
v 0.5 2.2 -0.3
v 0.2 2.2 -0.4
v 0.5 2.2 -0.4
v 0.2 2.2 -0.6
v 0.5 2.2 -0.6
v 0.2 2.2 -0.9
v 0.5 2.2 -0.9
v 0.2 2.2 -1.1
v 0.5 2.2 -1.1
v 0.2 2.2 -1.4
v 0.3 2.2 -1.4
v 0.2 2.2 -1.6
v 0.3 2.2 -1.6
v 0.3 2.3 0
v 0.4 2.3 0
v 0.2 2.3 -0.1
v 0.3 2.3 -0.1
v 0.4 2.3 -0.1
v 0.5 2.3 -0.1
v 0.3 2.3 -0.2
v 0.4 2.3 -0.2
v 0.2 2.3 -0.3
v 0.3 2.3 -0.3
v 0.4 2.3 -0.3
v 0.5 2.3 -0.3
v 0.3 2.3 -1.1
v 0.4 2.3 -1.1
v 0.3 2.3 -1.2
v 0.4 2.3 -1.2
v 0.3 2.3 -1.4
v 0.4 2.3 -1.4
v 0.1 2.4 -0.2
v 0.2 2.4 -0.2
v 0.5 2.4 -0.2
v 0.6 2.4 -0.2
v 0.1 2.4 -0.3
v 0.2 2.4 -0.3
v 0.5 2.4 -0.3
v 0.6 2.4 -0.3
v 0.3 2.4 -0.4
v 0.4 2.4 -0.4
v 0.3 2.4 -0.6
v 0.4 2.4 -0.6
v 0.3 2.4 -0.7
v 0.4 2.4 -0.7
v 0.3 2.4 -1.1
v 0.4 2.4 -1.1
v 0.1 2.5 -0.3
v 0.2 2.5 -0.3
v 0.5 2.5 -0.3
v 0.6 2.5 -0.3
v 0.1 2.5 -0.4
v 0.2 2.5 -0.4
v 0.5 2.5 -0.4
v 0.6 2.5 -0.4
v 0 2.6 -0.4
v 0.1 2.6 -0.4
v 0.4 2.6 -0.4
v 0.5 2.6 -0.4
v 0 2.6 -0.5
v 0.1 2.6 -0.5
v 0.4 2.6 -0.5
v 0.5 2.6 -0.5
v 0.3 2.1 0
v 0.4 2.1 0
v 0.7 2.1 0
v 0.8 2.1 0
v 0.2 2.1 -0.2
v 0.3 2.1 -0.2
v 0.4 2.1 -0.2
v 0.6 2.1 -0.2
v 0.7 2.1 -0.2
v 0.8 2.1 -0.2
v 0.2 2.1 -0.4
v 0.3 2.1 -0.4
v 0.6 2.1 -0.4
v 0.7 2.1 -0.4
v 0.1 2.1 -0.8
v 0.2 2.1 -0.8
v 0.5 2.1 -0.8
v 0.6 2.1 -0.8
v 0.1 2.1 -0.9
v 0.2 2.1 -0.9
v 0.5 2.1 -0.9
v 0.6 2.1 -0.9
v 0.1 2.2 -1.6
v 0.2 2.2 -1.6
v 0.1 2.2 -1.7
v 0.2 2.2 -1.7
v 0.1 2.3 -0.4
v 0.2 2.3 -0.4
v 0.3 2.3 -0.4
v 0.4 2.3 -0.4
v 0.5 2.3 -0.4
v 0.6 2.3 -0.4
v 0.1 2.3 -0.6
v 0.2 2.3 -0.6
v 0.3 2.3 -0.6
v 0.4 2.3 -0.6
v 0.5 2.3 -0.6
v 0.6 2.3 -0.6
v 0.3 2.3 -0.7
v 0.4 2.3 -0.7
v 0.3 2.3 -1.1
v 0.4 2.3 -1.1
v 0.2 2.3 -1.4
v 0.3 2.3 -1.4
v 0.2 2.3 -1.6
v 0.3 2.3 -1.6
v 0.3 2.4 0
v 0.4 2.4 0
v 0.3 2.4 -0.1
v 0.4 2.4 -0.1
v 0.1 2.4 -0.9
v 0.2 2.4 -0.9
v 0.5 2.4 -0.9
v 0.6 2.4 -0.9
v 0.1 2.4 -1.1
v 0.2 2.4 -1.1
v 0.3 2.4 -1.1
v 0.4 2.4 -1.1
v 0.5 2.4 -1.1
v 0.6 2.4 -1.1
v 0.3 2.4 -1.2
v 0.4 2.4 -1.2
v 0.3 2.4 -1.4
v 0.4 2.4 -1.4
v 0.2 2.5 -0.1
v 0.5 2.5 -0.1
v 0.1 2.5 -0.2
v 0.2 2.5 -0.2
v 0.5 2.5 -0.2
v 0.6 2.5 -0.2
v 0.1 2.5 -0.3
v 0.2 2.5 -0.3
v 0.5 2.5 -0.3
v 0.6 2.5 -0.3
v 0.2 2.5 -0.4
v 0.5 2.5 -0.4
v 0.2 2.5 -1.1
v 0.5 2.5 -1.1
v 0.2 2.6 -0.2
v 0.5 2.6 -0.2
v 0.1 2.6 -0.3
v 0.2 2.6 -0.3
v 0.5 2.6 -0.3
v 0.6 2.6 -0.3
v 0.1 2.6 -0.4
v 0.2 2.6 -0.4
v 0.4 2.6 -0.4
v 0.5 2.6 -0.4
v 0.6 2.6 -0.4
v 0 2.7 -0.4
v 0.1 2.7 -0.4
v 0.4 2.7 -0.4
v 0.5 2.7 -0.4
v 0 2.7 -0.5
v 0.1 2.7 -0.5
v 0.4 2.7 -0.5
v 0.5 2.7 -0.5

# faces
f 3/1/1 2/1/1 1/1/1
f 4/1/1 2/1/1 3/1/1
f 9/1/1 6/1/1 5/1/1
f 10/1/1 6/1/1 9/1/1
f 11/1/1 6/1/1 10/1/1
f 15/1/1 14/1/1 13/1/1
f 16/1/1 14/1/1 15/1/1
f 17/2/1 8/2/1 7/2/1
f 18/2/1 8/2/1 17/2/1
f 21/2/1 12/2/1 11/2/1
f 21/2/1 11/2/1 10/2/1
f 22/2/1 12/2/1 21/2/1
f 23/3/1 20/3/1 19/3/1
f 24/3/1 20/3/1 23/3/1
f 26/1/1 25/1/1 24/1/1
f 27/1/1 25/1/1 26/1/1
f 30/2/1 29/2/1 28/2/1
f 31/2/1 29/2/1 30/2/1
f 39/2/1 33/2/1 32/2/1
f 40/2/1 33/2/1 39/2/1
f 41/2/1 35/2/1 34/2/1
f 42/1/1 37/1/1 36/1/1
f 43/1/1 37/1/1 42/1/1
f 44/2/1 41/2/1 40/2/1
f 44/2/1 40/2/1 39/2/1
f 44/2/1 39/2/1 38/2/1
f 45/2/1 41/2/1 44/2/1
f 46/2/1 35/2/1 41/2/1
f 46/2/1 41/2/1 45/2/1
f 48/2/1 44/2/1 38/2/1
f 49/2/1 44/2/1 48/2/1
f 50/2/1 47/2/1 46/2/1
f 50/2/1 46/2/1 45/2/1
f 51/2/1 47/2/1 50/2/1
f 52/2/1 47/2/1 51/2/1
f 53/2/1 50/2/1 49/2/1
f 54/2/1 50/2/1 53/2/1
f 57/1/1 56/1/1 55/1/1
f 58/1/1 56/1/1 57/1/1
f 63/2/1 60/2/1 59/2/1
f 64/2/1 60/2/1 63/2/1
f 68/1/1 62/1/1 61/1/1
f 69/1/1 62/1/1 68/1/1
f 70/2/1 66/2/1 65/2/1
f 71/1/1 67/1/1 66/1/1
f 71/2/1 66/2/1 70/2/1
f 72/1/1 67/1/1 71/1/1
f 77/2/1 74/2/1 73/2/1
f 78/2/1 74/2/1 77/2/1
f 79/2/1 76/2/1 75/2/1
f 80/2/1 76/2/1 79/2/1
f 83/1/1 82/1/1 81/1/1
f 84/1/1 82/1/1 83/1/1
f 89/1/1 86/1/1 85/1/1
f 90/1/1 86/1/1 89/1/1
f 91/1/1 86/1/1 90/1/1
f 93/2/1 88/2/1 87/2/1
f 94/2/1 88/2/1 93/2/1
f 95/2/1 92/2/1 91/2/1
f 95/2/1 91/2/1 90/2/1
f 96/2/1 92/2/1 95/2/1
f 99/2/1 98/2/1 97/2/1
f 100/2/1 98/2/1 99/2/1
f 103/1/1 102/1/1 101/1/1
f 104/1/1 102/1/1 103/1/1
f 105/1/2 106/1/2 107/1/2
f 107/1/2 106/1/2 108/1/2
f 109/1/2 110/1/2 113/1/2
f 113/1/2 110/1/2 114/1/2
f 114/1/2 110/1/2 115/1/2
f 111/2/2 112/2/2 119/2/2
f 119/2/2 112/2/2 120/2/2
f 115/2/2 116/2/2 121/2/2
f 114/2/2 115/2/2 121/2/2
f 121/2/2 116/2/2 122/2/2
f 117/1/2 118/1/2 123/1/2
f 123/1/2 118/1/2 124/1/2
f 125/2/2 126/2/2 127/2/2
f 127/2/2 126/2/2 128/2/2
f 129/1/2 130/1/2 135/1/2
f 135/1/2 130/1/2 136/1/2
f 131/2/2 132/2/2 137/2/2
f 137/2/2 132/2/2 138/2/2
f 133/2/2 134/2/2 139/2/2
f 139/2/2 134/2/2 140/2/2
f 141/1/2 142/1/2 143/1/2
f 143/1/2 142/1/2 144/1/2
f 145/2/2 146/2/2 149/2/2
f 149/2/2 146/2/2 150/2/2
f 147/1/2 148/1/2 154/1/2
f 154/1/2 148/1/2 155/1/2
f 151/2/2 152/2/2 156/2/2
f 152/1/2 153/1/2 157/1/2
f 156/2/2 152/2/2 157/2/2
f 157/1/2 153/1/2 158/1/2
f 159/2/2 160/2/2 164/2/2
f 164/2/2 160/2/2 165/2/2
f 161/2/2 162/2/2 166/2/2
f 164/2/2 165/2/2 167/2/2
f 165/2/2 166/2/2 167/2/2
f 163/2/2 164/2/2 167/2/2
f 167/2/2 166/2/2 168/2/2
f 166/2/2 162/2/2 169/2/2
f 168/2/2 166/2/2 169/2/2
f 163/2/2 167/2/2 171/2/2
f 171/2/2 167/2/2 172/2/2
f 169/2/2 170/2/2 173/2/2
f 168/2/2 169/2/2 173/2/2
f 173/2/2 170/2/2 174/2/2
f 174/2/2 170/2/2 175/2/2
f 172/2/2 173/2/2 176/2/2
f 176/2/2 173/2/2 177/2/2
f 178/1/2 179/1/2 180/1/2
f 180/1/2 179/1/2 181/1/2
f 182/1/2 183/1/2 186/1/2
f 186/1/2 183/1/2 187/1/2
f 187/1/2 183/1/2 188/1/2
f 184/2/2 185/2/2 190/2/2
f 190/2/2 185/2/2 191/2/2
f 188/2/2 189/2/2 194/2/2
f 187/2/2 188/2/2 194/2/2
f 194/2/2 189/2/2 195/2/2
f 192/3/2 193/3/2 196/3/2
f 196/3/2 193/3/2 197/3/2
f 197/1/2 198/1/2 199/1/2
f 199/1/2 198/1/2 200/1/2
f 201/2/2 202/2/2 203/2/2
f 203/2/2 202/2/2 204/2/2
f 205/1/2 206/1/2 207/1/2
f 207/1/2 206/1/2 208/1/2
f 213/1/3 210/1/3 209/1/3
f 214/1/3 210/1/3 213/1/3
f 215/1/3 212/1/3 211/1/3
f 216/1/3 212/1/3 215/1/3
f 219/1/3 218/1/3 217/1/3
f 220/1/3 218/1/3 219/1/3
f 223/2/3 222/2/3 221/2/3
f 224/2/3 222/2/3 223/2/3
f 226/2/3 222/2/3 224/2/3
f 227/2/3 226/2/3 225/2/3
f 228/2/3 222/2/3 226/2/3
f 228/2/3 226/2/3 227/2/3
f 233/3/3 230/3/3 229/3/3
f 234/3/3 230/3/3 233/3/3
f 236/2/3 232/2/3 231/2/3
f 237/2/3 232/2/3 236/2/3
f 240/2/3 239/2/3 238/2/3
f 241/2/3 239/2/3 240/2/3
f 243/2/3 235/2/3 234/2/3
f 244/2/3 235/2/3 243/2/3
f 247/3/3 243/3/3 242/3/3
f 248/3/3 243/3/3 247/3/3
f 249/2/3 246/2/3 245/2/3
f 250/2/3 246/2/3 249/2/3
f 255/1/3 252/1/3 251/1/3
f 256/1/3 252/1/3 255/1/3
f 257/2/3 254/2/3 253/2/3
f 258/2/3 254/2/3 257/2/3
f 261/2/3 260/2/3 259/2/3
f 262/2/3 260/2/3 261/2/3
f 265/1/3 264/1/3 263/1/3
f 266/1/3 264/1/3 265/1/3
f 271/1/3 268/1/3 267/1/3
f 272/1/3 268/1/3 271/1/3
f 273/2/3 270/2/3 269/2/3
f 274/2/3 270/2/3 273/2/3
f 275/2/3 270/2/3 274/2/3
f 281/1/3 277/1/3 276/1/3
f 282/1/3 277/1/3 281/1/3
f 283/2/3 280/2/3 279/2/3
f 283/2/3 279/2/3 278/2/3
f 284/2/3 280/2/3 283/2/3
f 287/2/3 286/2/3 285/2/3
f 288/2/3 286/2/3 287/2/3
f 291/1/3 290/1/3 289/1/3
f 292/1/3 290/1/3 291/1/3
f 295/1/3 294/1/3 293/1/3
f 296/1/3 294/1/3 295/1/3
f 299/2/3 298/2/3 297/2/3
f 300/2/3 298/2/3 299/2/3
f 301/2/3 298/2/3 300/2/3
f 305/2/3 303/2/3 302/2/3
f 305/2/3 304/2/3 303/2/3
f 306/2/3 304/2/3 305/2/3
f 309/2/3 308/2/3 307/2/3
f 310/2/3 308/2/3 309/2/3
f 313/1/3 312/1/3 311/1/3
f 314/1/3 312/1/3 313/1/3
f 317/1/3 316/1/3 315/1/3
f 318/1/3 316/1/3 317/1/3
f 319/1/4 320/1/4 321/1/4
f 321/1/4 320/1/4 322/1/4
f 323/1/4 324/1/4 325/1/4
f 325/1/4 324/1/4 326/1/4
f 327/3/4 328/3/4 329/3/4
f 329/3/4 328/3/4 330/3/4
f 331/3/4 332/3/4 333/3/4
f 333/3/4 332/3/4 334/3/4
f 335/1/4 336/1/4 339/1/4
f 339/1/4 336/1/4 340/1/4
f 337/2/4 338/2/4 341/2/4
f 341/2/4 338/2/4 342/2/4
f 343/2/4 344/2/4 345/2/4
f 345/2/4 344/2/4 346/2/4
f 339/2/4 340/2/4 347/2/4
f 339/2/4 347/2/4 348/2/4
f 348/2/4 347/2/4 349/2/4
f 348/1/4 349/1/4 352/1/4
f 352/1/4 349/1/4 353/1/4
f 350/2/4 351/2/4 354/2/4
f 354/2/4 351/2/4 355/2/4
f 356/1/4 357/1/4 358/1/4
f 358/1/4 357/1/4 359/1/4
f 360/1/4 361/1/4 362/1/4
f 362/1/4 361/1/4 363/1/4
f 364/2/4 365/2/4 366/2/4
f 366/2/4 365/2/4 367/2/4
f 367/2/4 365/2/4 368/2/4
f 369/2/4 370/2/4 372/2/4
f 370/2/4 371/2/4 372/2/4
f 372/2/4 371/2/4 373/2/4
f 374/2/4 375/2/4 376/2/4
f 376/2/4 375/2/4 377/2/4
f 378/1/4 379/1/4 380/1/4
f 380/1/4 379/1/4 381/1/4
f 382/1/4 383/1/4 384/1/4
f 384/1/4 383/1/4 385/1/4
f 386/2/4 387/2/4 388/2/4
f 388/2/4 387/2/4 389/2/4
f 389/2/4 387/2/4 390/2/4
f 390/2/4 391/2/4 392/2/4
f 389/2/4 390/2/4 392/2/4
f 392/2/4 391/2/4 393/2/4
f 389/2/4 392/2/4 394/2/4
f 393/2/4 391/2/4 395/2/4
f 389/2/4 394/2/4 397/2/4
f 394/2/4 395/2/4 397/2/4
f 395/2/4 391/2/4 398/2/4
f 397/2/4 395/2/4 398/2/4
f 398/2/4 391/2/4 399/2/4
f 396/2/4 397/2/4 400/2/4
f 397/2/4 398/2/4 400/2/4
f 400/2/4 398/2/4 401/2/4
f 402/1/4 403/1/4 404/1/4
f 404/1/4 403/1/4 405/1/4
f 406/1/4 407/1/4 408/1/4
f 408/1/4 407/1/4 409/1/4
f 410/1/4 411/1/4 412/1/4
f 412/1/4 411/1/4 413/1/4
f 419/1/5 415/1/5 414/1/5
f 420/1/5 415/1/5 419/1/5
f 422/1/5 417/1/5 416/1/5
f 423/1/5 417/1/5 422/1/5
f 424/2/5 419/2/5 418/2/5
f 425/2/5 419/2/5 424/2/5
f 426/2/5 422/2/5 421/2/5
f 427/2/5 422/2/5 426/2/5
f 432/1/5 429/1/5 428/1/5
f 433/1/5 429/1/5 432/1/5
f 434/1/5 431/1/5 430/1/5
f 435/1/5 431/1/5 434/1/5
f 440/2/5 437/2/5 436/2/5
f 441/2/5 437/2/5 440/2/5
f 442/2/5 439/2/5 438/2/5
f 443/2/5 439/2/5 442/2/5
f 448/2/5 445/2/5 444/2/5
f 449/2/5 445/2/5 448/2/5
f 450/2/5 447/2/5 446/2/5
f 451/2/5 447/2/5 450/2/5
f 454/1/5 453/1/5 452/1/5
f 455/1/5 453/1/5 454/1/5
f 459/2/5 457/2/5 456/2/5
f 460/2/5 457/2/5 459/2/5
f 462/2/5 459/2/5 458/2/5
f 462/2/5 461/2/5 460/2/5
f 462/2/5 460/2/5 459/2/5
f 463/2/5 461/2/5 462/2/5
f 464/2/5 463/2/5 462/2/5
f 465/2/5 463/2/5 464/2/5
f 466/2/5 465/2/5 464/2/5
f 467/2/5 465/2/5 466/2/5
f 468/2/5 467/2/5 466/2/5
f 469/2/5 467/2/5 468/2/5
f 472/1/5 471/1/5 470/1/5
f 473/1/5 471/1/5 472/1/5
f 477/1/5 475/1/5 474/1/5
f 478/1/5 475/1/5 477/1/5
f 480/2/5 477/2/5 476/2/5
f 480/2/5 479/2/5 478/2/5
f 480/2/5 478/2/5 477/2/5
f 481/2/5 479/2/5 480/2/5
f 482/2/5 480/2/5 476/2/5
f 483/2/5 480/2/5 482/2/5
f 484/2/5 479/2/5 481/2/5
f 485/2/5 479/2/5 484/2/5
f 488/2/5 487/2/5 486/2/5
f 489/2/5 487/2/5 488/2/5
f 490/1/5 489/1/5 488/1/5
f 491/1/5 489/1/5 490/1/5
f 496/3/5 493/3/5 492/3/5
f 497/3/5 493/3/5 496/3/5
f 498/3/5 495/3/5 494/3/5
f 499/3/5 495/3/5 498/3/5
f 502/2/5 501/2/5 500/2/5
f 503/2/5 501/2/5 502/2/5
f 506/2/5 505/2/5 504/2/5
f 507/2/5 505/2/5 506/2/5
f 512/1/5 509/1/5 508/1/5
f 513/1/5 509/1/5 512/1/5
f 514/1/5 511/1/5 510/1/5
f 515/1/5 511/1/5 514/1/5
f 520/1/5 517/1/5 516/1/5
f 521/1/5 517/1/5 520/1/5
f 522/1/5 519/1/5 518/1/5
f 523/1/5 519/1/5 522/1/5
f 524/1/6 525/1/6 529/1/6
f 529/1/6 525/1/6 530/1/6
f 526/1/6 527/1/6 532/1/6
f 532/1/6 527/1/6 533/1/6
f 528/2/6 529/2/6 534/2/6
f 534/2/6 529/2/6 535/2/6
f 531/2/6 532/2/6 536/2/6
f 536/2/6 532/2/6 537/2/6
f 538/1/6 539/1/6 542/1/6
f 542/1/6 539/1/6 543/1/6
f 540/1/6 541/1/6 544/1/6
f 544/1/6 541/1/6 545/1/6
f 546/1/6 547/1/6 548/1/6
f 548/1/6 547/1/6 549/1/6
f 550/2/6 551/2/6 556/2/6
f 556/2/6 551/2/6 557/2/6
f 552/2/6 553/2/6 558/2/6
f 558/2/6 553/2/6 559/2/6
f 554/2/6 555/2/6 560/2/6
f 560/2/6 555/2/6 561/2/6
f 562/2/6 563/2/6 564/2/6
f 564/2/6 563/2/6 565/2/6
f 566/1/6 567/1/6 568/1/6
f 568/1/6 567/1/6 569/1/6
f 570/1/6 571/1/6 572/1/6
f 572/1/6 571/1/6 573/1/6
f 574/2/6 575/2/6 578/2/6
f 578/2/6 575/2/6 579/2/6
f 576/2/6 577/2/6 582/2/6
f 582/2/6 577/2/6 583/2/6
f 580/2/6 581/2/6 584/2/6
f 584/2/6 581/2/6 585/2/6
f 584/1/6 585/1/6 586/1/6
f 586/1/6 585/1/6 587/1/6
f 588/2/6 589/2/6 591/2/6
f 591/2/6 589/2/6 592/2/6
f 590/3/6 591/3/6 594/3/6
f 594/3/6 591/3/6 595/3/6
f 592/3/6 593/3/6 596/3/6
f 596/3/6 593/3/6 597/3/6
f 598/2/6 599/2/6 600/2/6
f 600/2/6 599/2/6 601/2/6
f 602/2/6 603/2/6 605/2/6
f 605/2/6 603/2/6 606/2/6
f 604/1/6 605/1/6 608/1/6
f 605/2/6 606/2/6 609/2/6
f 608/1/6 605/1/6 609/1/6
f 609/2/6 606/2/6 610/2/6
f 606/1/6 607/1/6 611/1/6
f 610/2/6 606/2/6 611/2/6
f 611/1/6 607/1/6 612/1/6
f 613/1/6 614/1/6 617/1/6
f 617/1/6 614/1/6 618/1/6
f 615/1/6 616/1/6 619/1/6
f 619/1/6 616/1/6 620/1/6
