# MagicaVoxel @ Ephtracy

# group
o 

# material
mtllib rat_ledgegrab_1.mtl
usemtl palette

# normals
vn -1 0 0
vn 1 0 0
vn 0 0 1
vn 0 0 -1
vn 0 -1 0
vn 0 1 0

# texcoords
vt 0.0292969 0.5
vt 0.982422 0.5
vt 0.994141 0.5

# verts
v 0 2 0
v 0 2 -0.2
v 0 2 -0.4
v 0 2.1 0
v 0 2.1 -0.2
v 0 2.1 -0.4
v 0 2.1 -0.6
v 0 2.1 -0.8
v 0 2.1 -1
v 0 2.2 -0.8
v 0 2.2 -0.9
v 0 2.2 -1
v 0 2.2 -1.1
v 0 2.3 -0.4
v 0 2.3 -0.6
v 0 2.4 -0.2
v 0 2.4 -0.3
v 0 2.5 -0.2
v 0 2.5 -0.3
v 0 2.5 -0.4
v 0 2.5 -0.9
v 0 2.5 -1.1
v 0 2.6 -0.3
v 0 2.6 -0.4
v 0 2.6 -0.5
v 0 2.7 -0.4
v 0 2.7 -0.5
v 0.1 2.2 -0.3
v 0.1 2.2 -0.4
v 0.1 2.2 -0.6
v 0.1 2.2 -0.7
v 0.1 2.3 -0.1
v 0.1 2.3 -0.3
v 0.1 2.3 -0.4
v 0.1 2.3 -0.6
v 0.1 2.3 -0.7
v 0.1 2.3 -0.9
v 0.1 2.4 -0.2
v 0.1 2.4 -0.3
v 0.1 2.5 -0.1
v 0.1 2.5 -0.2
v 0.1 2.5 -0.3
v 0.1 2.5 -0.4
v 0.1 2.5 -0.7
v 0.1 2.5 -0.9
v 0.1 2.5 -1.1
v 0.1 2.6 -0.2
v 0.1 2.6 -0.3
v 0.1 2.6 -0.7
v 0.1 2.6 -1.1
v 0.2 2.2 -0.2
v 0.2 2.2 -0.3
v 0.2 2.3 0
v 0.2 2.3 -0.1
v 0.2 2.3 -0.2
v 0.2 2.3 -0.3
v 0.2 2.4 0
v 0.2 2.4 -0.1
v 0.2 2.4 -1.1
v 0.2 2.4 -1.2
v 0.2 2.4 -1.6
v 0.2 2.5 -1.1
v 0.2 2.5 -1.2
v 0.2 2.5 -1.6
v 0.2 2.5 -1.7
v 0.2 2.6 -1.6
v 0.2 2.6 -1.7
v 0.3 2.3 -0.4
v 0.3 2.3 -0.6
v 0.3 2.4 -0.4
v 0.3 2.4 -0.6
v 0.3 2.4 -0.7
v 0.3 2.4 -1.1
v 0.3 2.5 -0.7
v 0.3 2.5 -1.1
v 0.4 2 0
v 0.4 2 -0.2
v 0.4 2 -0.4
v 0.4 2.1 0
v 0.4 2.1 -0.2
v 0.4 2.1 -0.4
v 0.4 2.1 -0.6
v 0.4 2.1 -0.8
v 0.4 2.1 -1
v 0.4 2.2 -0.4
v 0.4 2.2 -0.6
v 0.4 2.2 -0.8
v 0.4 2.2 -0.9
v 0.4 2.2 -1
v 0.4 2.2 -1.1
v 0.4 2.3 -0.9
v 0.4 2.3 -1.1
v 0.4 2.6 -0.4
v 0.4 2.6 -0.5
v 0.4 2.7 -0.4
v 0.4 2.7 -0.5
v 0.1 2 0
v 0.1 2 -0.2
v 0.1 2 -0.4
v 0.1 2.1 0
v 0.1 2.1 -0.2
v 0.1 2.1 -0.4
v 0.1 2.1 -0.6
v 0.1 2.1 -0.8
v 0.1 2.1 -1
v 0.1 2.2 -0.4
v 0.1 2.2 -0.6
v 0.1 2.2 -0.8
v 0.1 2.2 -0.9
v 0.1 2.2 -1
v 0.1 2.2 -1.1
v 0.1 2.3 -0.9
v 0.1 2.3 -1.1
v 0.1 2.6 -0.4
v 0.1 2.6 -0.5
v 0.1 2.7 -0.4
v 0.1 2.7 -0.5
v 0.2 2.3 -0.4
v 0.2 2.3 -0.6
v 0.2 2.4 -0.4
v 0.2 2.4 -0.6
v 0.2 2.4 -0.7
v 0.2 2.4 -1.1
v 0.2 2.5 -0.7
v 0.2 2.5 -1.1
v 0.3 2.2 -0.2
v 0.3 2.2 -0.3
v 0.3 2.3 0
v 0.3 2.3 -0.1
v 0.3 2.3 -0.2
v 0.3 2.3 -0.3
v 0.3 2.4 0
v 0.3 2.4 -0.1
v 0.3 2.4 -1.1
v 0.3 2.4 -1.2
v 0.3 2.4 -1.6
v 0.3 2.5 -1.1
v 0.3 2.5 -1.2
v 0.3 2.5 -1.6
v 0.3 2.5 -1.7
v 0.3 2.6 -1.6
v 0.3 2.6 -1.7
v 0.4 2.2 -0.3
v 0.4 2.2 -0.4
v 0.4 2.2 -0.6
v 0.4 2.2 -0.7
v 0.4 2.3 -0.1
v 0.4 2.3 -0.3
v 0.4 2.3 -0.4
v 0.4 2.3 -0.6
v 0.4 2.3 -0.7
v 0.4 2.3 -0.9
v 0.4 2.4 -0.2
v 0.4 2.4 -0.3
v 0.4 2.5 -0.1
v 0.4 2.5 -0.2
v 0.4 2.5 -0.3
v 0.4 2.5 -0.4
v 0.4 2.5 -0.7
v 0.4 2.5 -0.9
v 0.4 2.5 -1.1
v 0.4 2.6 -0.2
v 0.4 2.6 -0.3
v 0.4 2.6 -0.7
v 0.4 2.6 -1.1
v 0.5 2 0
v 0.5 2 -0.2
v 0.5 2 -0.4
v 0.5 2.1 0
v 0.5 2.1 -0.2
v 0.5 2.1 -0.4
v 0.5 2.1 -0.6
v 0.5 2.1 -0.8
v 0.5 2.1 -1
v 0.5 2.2 -0.8
v 0.5 2.2 -0.9
v 0.5 2.2 -1
v 0.5 2.2 -1.1
v 0.5 2.3 -0.4
v 0.5 2.3 -0.6
v 0.5 2.4 -0.2
v 0.5 2.4 -0.3
v 0.5 2.5 -0.2
v 0.5 2.5 -0.3
v 0.5 2.5 -0.4
v 0.5 2.5 -0.9
v 0.5 2.5 -1.1
v 0.5 2.6 -0.3
v 0.5 2.6 -0.4
v 0.5 2.6 -0.5
v 0.5 2.7 -0.4
v 0.5 2.7 -0.5
v 0 2 0
v 0 2.1 0
v 0.1 2 0
v 0.1 2.1 0
v 0.2 2.3 0
v 0.2 2.4 0
v 0.3 2.3 0
v 0.3 2.4 0
v 0.4 2 0
v 0.4 2.1 0
v 0.5 2 0
v 0.5 2.1 0
v 0.1 2.3 -0.1
v 0.1 2.5 -0.1
v 0.2 2.3 -0.1
v 0.2 2.4 -0.1
v 0.3 2.3 -0.1
v 0.3 2.4 -0.1
v 0.4 2.3 -0.1
v 0.4 2.5 -0.1
v 0 2.4 -0.2
v 0 2.5 -0.2
v 0.1 2.4 -0.2
v 0.1 2.5 -0.2
v 0.1 2.6 -0.2
v 0.2 2.2 -0.2
v 0.2 2.3 -0.2
v 0.3 2.2 -0.2
v 0.3 2.3 -0.2
v 0.4 2.4 -0.2
v 0.4 2.5 -0.2
v 0.4 2.6 -0.2
v 0.5 2.4 -0.2
v 0.5 2.5 -0.2
v 0 2.5 -0.3
v 0 2.6 -0.3
v 0.1 2.2 -0.3
v 0.1 2.3 -0.3
v 0.1 2.5 -0.3
v 0.1 2.6 -0.3
v 0.2 2.2 -0.3
v 0.2 2.3 -0.3
v 0.3 2.2 -0.3
v 0.3 2.3 -0.3
v 0.4 2.2 -0.3
v 0.4 2.3 -0.3
v 0.4 2.5 -0.3
v 0.4 2.6 -0.3
v 0.5 2.5 -0.3
v 0.5 2.6 -0.3
v 0 2.1 -0.4
v 0 2.3 -0.4
v 0 2.6 -0.4
v 0 2.7 -0.4
v 0.1 2.1 -0.4
v 0.1 2.2 -0.4
v 0.1 2.3 -0.4
v 0.1 2.6 -0.4
v 0.1 2.7 -0.4
v 0.4 2.1 -0.4
v 0.4 2.2 -0.4
v 0.4 2.3 -0.4
v 0.4 2.6 -0.4
v 0.4 2.7 -0.4
v 0.5 2.1 -0.4
v 0.5 2.3 -0.4
v 0.5 2.6 -0.4
v 0.5 2.7 -0.4
v 0.2 2.3 -0.6
v 0.2 2.4 -0.6
v 0.3 2.3 -0.6
v 0.3 2.4 -0.6
v 0.1 2.5 -0.7
v 0.1 2.6 -0.7
v 0.4 2.5 -0.7
v 0.4 2.6 -0.7
v 0 2.1 -0.8
v 0 2.2 -0.8
v 0.1 2.1 -0.8
v 0.1 2.2 -0.8
v 0.4 2.1 -0.8
v 0.4 2.2 -0.8
v 0.5 2.1 -0.8
v 0.5 2.2 -0.8
v 0 2.2 -0.9
v 0 2.5 -0.9
v 0.1 2.2 -0.9
v 0.1 2.3 -0.9
v 0.1 2.5 -0.9
v 0.4 2.2 -0.9
v 0.4 2.3 -0.9
v 0.4 2.5 -0.9
v 0.5 2.2 -0.9
v 0.5 2.5 -0.9
v 0.2 2.4 -1.1
v 0.2 2.5 -1.1
v 0.3 2.4 -1.1
v 0.3 2.5 -1.1
v 0.2 2.5 -1.6
v 0.2 2.6 -1.6
v 0.3 2.5 -1.6
v 0.3 2.6 -1.6
v 0 2.4 -0.3
v 0 2.5 -0.3
v 0.1 2.4 -0.3
v 0.1 2.5 -0.3
v 0.4 2.4 -0.3
v 0.4 2.5 -0.3
v 0.5 2.4 -0.3
v 0.5 2.5 -0.3
v 0 2 -0.4
v 0 2.1 -0.4
v 0 2.5 -0.4
v 0 2.6 -0.4
v 0.1 2 -0.4
v 0.1 2.1 -0.4
v 0.1 2.5 -0.4
v 0.1 2.6 -0.4
v 0.2 2.3 -0.4
v 0.2 2.4 -0.4
v 0.3 2.3 -0.4
v 0.3 2.4 -0.4
v 0.4 2 -0.4
v 0.4 2.1 -0.4
v 0.4 2.5 -0.4
v 0.4 2.6 -0.4
v 0.5 2 -0.4
v 0.5 2.1 -0.4
v 0.5 2.5 -0.4
v 0.5 2.6 -0.4
v 0 2.6 -0.5
v 0 2.7 -0.5
v 0.1 2.6 -0.5
v 0.1 2.7 -0.5
v 0.4 2.6 -0.5
v 0.4 2.7 -0.5
v 0.5 2.6 -0.5
v 0.5 2.7 -0.5
v 0 2.1 -0.6
v 0 2.3 -0.6
v 0.1 2.1 -0.6
v 0.1 2.2 -0.6
v 0.1 2.3 -0.6
v 0.4 2.1 -0.6
v 0.4 2.2 -0.6
v 0.4 2.3 -0.6
v 0.5 2.1 -0.6
v 0.5 2.3 -0.6
v 0.1 2.2 -0.7
v 0.1 2.3 -0.7
v 0.2 2.4 -0.7
v 0.2 2.5 -0.7
v 0.3 2.4 -0.7
v 0.3 2.5 -0.7
v 0.4 2.2 -0.7
v 0.4 2.3 -0.7
v 0 2.1 -1
v 0 2.2 -1
v 0.1 2.1 -1
v 0.1 2.2 -1
v 0.4 2.1 -1
v 0.4 2.2 -1
v 0.5 2.1 -1
v 0.5 2.2 -1
v 0 2.2 -1.1
v 0 2.5 -1.1
v 0.1 2.2 -1.1
v 0.1 2.3 -1.1
v 0.1 2.5 -1.1
v 0.1 2.6 -1.1
v 0.2 2.4 -1.1
v 0.2 2.5 -1.1
v 0.3 2.4 -1.1
v 0.3 2.5 -1.1
v 0.4 2.2 -1.1
v 0.4 2.3 -1.1
v 0.4 2.5 -1.1
v 0.4 2.6 -1.1
v 0.5 2.2 -1.1
v 0.5 2.5 -1.1
v 0.2 2.4 -1.6
v 0.2 2.5 -1.6
v 0.3 2.4 -1.6
v 0.3 2.5 -1.6
v 0.2 2.5 -1.7
v 0.2 2.6 -1.7
v 0.3 2.5 -1.7
v 0.3 2.6 -1.7
v 0 2 0
v 0.1 2 0
v 0.4 2 0
v 0.5 2 0
v 0 2 -0.2
v 0.1 2 -0.2
v 0.4 2 -0.2
v 0.5 2 -0.2
v 0 2 -0.4
v 0.1 2 -0.4
v 0.4 2 -0.4
v 0.5 2 -0.4
v 0 2.1 -0.4
v 0.1 2.1 -0.4
v 0.4 2.1 -0.4
v 0.5 2.1 -0.4
v 0 2.1 -0.6
v 0.1 2.1 -0.6
v 0.4 2.1 -0.6
v 0.5 2.1 -0.6
v 0 2.1 -0.8
v 0.1 2.1 -0.8
v 0.4 2.1 -0.8
v 0.5 2.1 -0.8
v 0 2.1 -1
v 0.1 2.1 -1
v 0.4 2.1 -1
v 0.5 2.1 -1
v 0.2 2.2 -0.2
v 0.3 2.2 -0.2
v 0.1 2.2 -0.3
v 0.2 2.2 -0.3
v 0.3 2.2 -0.3
v 0.4 2.2 -0.3
v 0.1 2.2 -0.4
v 0.4 2.2 -0.4
v 0.1 2.2 -0.6
v 0.4 2.2 -0.6
v 0.1 2.2 -0.7
v 0.4 2.2 -0.7
v 0 2.2 -1
v 0.1 2.2 -1
v 0.4 2.2 -1
v 0.5 2.2 -1
v 0 2.2 -1.1
v 0.1 2.2 -1.1
v 0.4 2.2 -1.1
v 0.5 2.2 -1.1
v 0.2 2.3 0
v 0.3 2.3 0
v 0.1 2.3 -0.1
v 0.2 2.3 -0.1
v 0.3 2.3 -0.1
v 0.4 2.3 -0.1
v 0.2 2.3 -0.2
v 0.3 2.3 -0.2
v 0.1 2.3 -0.3
v 0.2 2.3 -0.3
v 0.3 2.3 -0.3
v 0.4 2.3 -0.3
v 0.1 2.3 -0.7
v 0.4 2.3 -0.7
v 0.1 2.3 -0.9
v 0.4 2.3 -0.9
v 0.1 2.3 -1.1
v 0.4 2.3 -1.1
v 0 2.4 -0.2
v 0.1 2.4 -0.2
v 0.4 2.4 -0.2
v 0.5 2.4 -0.2
v 0 2.4 -0.3
v 0.1 2.4 -0.3
v 0.4 2.4 -0.3
v 0.5 2.4 -0.3
v 0.2 2.4 -0.4
v 0.3 2.4 -0.4
v 0.2 2.4 -0.6
v 0.3 2.4 -0.6
v 0.2 2.4 -1.1
v 0.3 2.4 -1.1
v 0.2 2.4 -1.2
v 0.3 2.4 -1.2
v 0.2 2.4 -1.6
v 0.3 2.4 -1.6
v 0 2.5 -0.3
v 0.1 2.5 -0.3
v 0.4 2.5 -0.3
v 0.5 2.5 -0.3
v 0 2.5 -0.4
v 0.1 2.5 -0.4
v 0.4 2.5 -0.4
v 0.5 2.5 -0.4
v 0.2 2.5 -0.7
v 0.3 2.5 -0.7
v 0.2 2.5 -1.1
v 0.3 2.5 -1.1
v 0.2 2.5 -1.6
v 0.3 2.5 -1.6
v 0.2 2.5 -1.7
v 0.3 2.5 -1.7
v 0 2.6 -0.4
v 0.1 2.6 -0.4
v 0.4 2.6 -0.4
v 0.5 2.6 -0.4
v 0 2.6 -0.5
v 0.1 2.6 -0.5
v 0.4 2.6 -0.5
v 0.5 2.6 -0.5
v 0 2.1 0
v 0.1 2.1 0
v 0.4 2.1 0
v 0.5 2.1 0
v 0 2.1 -0.2
v 0.1 2.1 -0.2
v 0.4 2.1 -0.2
v 0.5 2.1 -0.2
v 0 2.1 -0.4
v 0.1 2.1 -0.4
v 0.4 2.1 -0.4
v 0.5 2.1 -0.4
v 0 2.2 -0.8
v 0.1 2.2 -0.8
v 0.4 2.2 -0.8
v 0.5 2.2 -0.8
v 0 2.2 -0.9
v 0.1 2.2 -0.9
v 0.4 2.2 -0.9
v 0.5 2.2 -0.9
v 0 2.3 -0.4
v 0.1 2.3 -0.4
v 0.2 2.3 -0.4
v 0.3 2.3 -0.4
v 0.4 2.3 -0.4
v 0.5 2.3 -0.4
v 0 2.3 -0.6
v 0.1 2.3 -0.6
v 0.2 2.3 -0.6
v 0.3 2.3 -0.6
v 0.4 2.3 -0.6
v 0.5 2.3 -0.6
v 0.2 2.4 0
v 0.3 2.4 0
v 0.2 2.4 -0.1
v 0.3 2.4 -0.1
v 0.2 2.4 -0.7
v 0.3 2.4 -0.7
v 0.2 2.4 -1.1
v 0.3 2.4 -1.1
v 0.1 2.5 -0.1
v 0.4 2.5 -0.1
v 0 2.5 -0.2
v 0.1 2.5 -0.2
v 0.4 2.5 -0.2
v 0.5 2.5 -0.2
v 0 2.5 -0.3
v 0.1 2.5 -0.3
v 0.4 2.5 -0.3
v 0.5 2.5 -0.3
v 0.1 2.5 -0.4
v 0.4 2.5 -0.4
v 0.1 2.5 -0.7
v 0.4 2.5 -0.7
v 0 2.5 -0.9
v 0.1 2.5 -0.9
v 0.4 2.5 -0.9
v 0.5 2.5 -0.9
v 0 2.5 -1.1
v 0.1 2.5 -1.1
v 0.2 2.5 -1.1
v 0.3 2.5 -1.1
v 0.4 2.5 -1.1
v 0.5 2.5 -1.1
v 0.2 2.5 -1.2
v 0.3 2.5 -1.2
v 0.2 2.5 -1.6
v 0.3 2.5 -1.6
v 0.1 2.6 -0.2
v 0.4 2.6 -0.2
v 0 2.6 -0.3
v 0.1 2.6 -0.3
v 0.4 2.6 -0.3
v 0.5 2.6 -0.3
v 0 2.6 -0.4
v 0.1 2.6 -0.4
v 0.4 2.6 -0.4
v 0.5 2.6 -0.4
v 0.1 2.6 -0.7
v 0.4 2.6 -0.7
v 0.1 2.6 -1.1
v 0.4 2.6 -1.1
v 0.2 2.6 -1.6
v 0.3 2.6 -1.6
v 0.2 2.6 -1.7
v 0.3 2.6 -1.7
v 0 2.7 -0.4
v 0.1 2.7 -0.4
v 0.4 2.7 -0.4
v 0.5 2.7 -0.4
v 0 2.7 -0.5
v 0.1 2.7 -0.5
v 0.4 2.7 -0.5
v 0.5 2.7 -0.5

# faces
f 4/1/1 2/1/1 1/1/1
f 5/2/1 3/2/1 2/2/1
f 5/1/1 2/1/1 4/1/1
f 6/2/1 3/2/1 5/2/1
f 10/1/1 9/1/1 8/1/1
f 11/1/1 9/1/1 10/1/1
f 12/1/1 9/1/1 11/1/1
f 14/2/1 7/2/1 6/2/1
f 15/2/1 7/2/1 14/2/1
f 18/3/1 17/3/1 16/3/1
f 19/3/1 17/3/1 18/3/1
f 21/2/1 13/2/1 12/2/1
f 21/2/1 12/2/1 11/2/1
f 22/2/1 13/2/1 21/2/1
f 23/1/1 20/1/1 19/1/1
f 24/1/1 20/1/1 23/1/1
f 26/1/1 25/1/1 24/1/1
f 27/1/1 25/1/1 26/1/1
f 33/2/1 29/2/1 28/2/1
f 34/2/1 29/2/1 33/2/1
f 35/2/1 31/2/1 30/2/1
f 36/2/1 31/2/1 35/2/1
f 38/2/1 34/2/1 33/2/1
f 38/2/1 37/2/1 36/2/1
f 38/2/1 36/2/1 35/2/1
f 38/2/1 35/2/1 34/2/1
f 38/2/1 33/2/1 32/2/1
f 39/2/1 37/2/1 38/2/1
f 40/2/1 38/2/1 32/2/1
f 41/2/1 38/2/1 40/2/1
f 42/2/1 37/2/1 39/2/1
f 43/2/1 37/2/1 42/2/1
f 44/2/1 37/2/1 43/2/1
f 45/2/1 37/2/1 44/2/1
f 47/2/1 42/2/1 41/2/1
f 48/2/1 42/2/1 47/2/1
f 49/2/1 46/2/1 45/2/1
f 49/2/1 45/2/1 44/2/1
f 50/2/1 46/2/1 49/2/1
f 55/2/1 52/2/1 51/2/1
f 56/2/1 52/2/1 55/2/1
f 57/1/1 54/1/1 53/1/1
f 58/1/1 54/1/1 57/1/1
f 62/2/1 60/2/1 59/2/1
f 63/1/1 61/1/1 60/1/1
f 63/2/1 60/2/1 62/2/1
f 64/1/1 61/1/1 63/1/1
f 66/1/1 65/1/1 64/1/1
f 67/1/1 65/1/1 66/1/1
f 70/2/1 69/2/1 68/2/1
f 71/2/1 69/2/1 70/2/1
f 74/2/1 73/2/1 72/2/1
f 75/2/1 73/2/1 74/2/1
f 79/1/1 77/1/1 76/1/1
f 80/2/1 78/2/1 77/2/1
f 80/1/1 77/1/1 79/1/1
f 81/2/1 78/2/1 80/2/1
f 85/2/1 82/2/1 81/2/1
f 86/2/1 82/2/1 85/2/1
f 87/1/1 84/1/1 83/1/1
f 88/1/1 84/1/1 87/1/1
f 89/1/1 84/1/1 88/1/1
f 91/2/1 90/2/1 89/2/1
f 91/2/1 89/2/1 88/2/1
f 92/2/1 90/2/1 91/2/1
f 95/1/1 94/1/1 93/1/1
f 96/1/1 94/1/1 95/1/1
f 97/1/2 98/1/2 100/1/2
f 98/2/2 99/2/2 101/2/2
f 100/1/2 98/1/2 101/1/2
f 101/2/2 99/2/2 102/2/2
f 102/2/2 103/2/2 106/2/2
f 106/2/2 103/2/2 107/2/2
f 104/1/2 105/1/2 108/1/2
f 108/1/2 105/1/2 109/1/2
f 109/1/2 105/1/2 110/1/2
f 110/2/2 111/2/2 112/2/2
f 109/2/2 110/2/2 112/2/2
f 112/2/2 111/2/2 113/2/2
f 114/1/2 115/1/2 116/1/2
f 116/1/2 115/1/2 117/1/2
f 118/2/2 119/2/2 120/2/2
f 120/2/2 119/2/2 121/2/2
f 122/2/2 123/2/2 124/2/2
f 124/2/2 123/2/2 125/2/2
f 126/2/2 127/2/2 130/2/2
f 130/2/2 127/2/2 131/2/2
f 128/1/2 129/1/2 132/1/2
f 132/1/2 129/1/2 133/1/2
f 134/2/2 135/2/2 137/2/2
f 135/1/2 136/1/2 138/1/2
f 137/2/2 135/2/2 138/2/2
f 138/1/2 136/1/2 139/1/2
f 139/1/2 140/1/2 141/1/2
f 141/1/2 140/1/2 142/1/2
f 143/2/2 144/2/2 148/2/2
f 148/2/2 144/2/2 149/2/2
f 145/2/2 146/2/2 150/2/2
f 150/2/2 146/2/2 151/2/2
f 148/2/2 149/2/2 153/2/2
f 151/2/2 152/2/2 153/2/2
f 150/2/2 151/2/2 153/2/2
f 149/2/2 150/2/2 153/2/2
f 147/2/2 148/2/2 153/2/2
f 153/2/2 152/2/2 154/2/2
f 147/2/2 153/2/2 155/2/2
f 155/2/2 153/2/2 156/2/2
f 154/2/2 152/2/2 157/2/2
f 157/2/2 152/2/2 158/2/2
f 158/2/2 152/2/2 159/2/2
f 159/2/2 152/2/2 160/2/2
f 156/2/2 157/2/2 162/2/2
f 162/2/2 157/2/2 163/2/2
f 160/2/2 161/2/2 164/2/2
f 159/2/2 160/2/2 164/2/2
f 164/2/2 161/2/2 165/2/2
f 166/1/2 167/1/2 169/1/2
f 167/2/2 168/2/2 170/2/2
f 169/1/2 167/1/2 170/1/2
f 170/2/2 168/2/2 171/2/2
f 173/1/2 174/1/2 175/1/2
f 175/1/2 174/1/2 176/1/2
f 176/1/2 174/1/2 177/1/2
f 171/2/2 172/2/2 179/2/2
f 179/2/2 172/2/2 180/2/2
f 181/3/2 182/3/2 183/3/2
f 183/3/2 182/3/2 184/3/2
f 177/2/2 178/2/2 186/2/2
f 176/2/2 177/2/2 186/2/2
f 186/2/2 178/2/2 187/2/2
f 184/1/2 185/1/2 188/1/2
f 188/1/2 185/1/2 189/1/2
f 189/1/2 190/1/2 191/1/2
f 191/1/2 190/1/2 192/1/2
f 195/1/3 194/1/3 193/1/3
f 196/1/3 194/1/3 195/1/3
f 199/1/3 198/1/3 197/1/3
f 200/1/3 198/1/3 199/1/3
f 203/1/3 202/1/3 201/1/3
f 204/1/3 202/1/3 203/1/3
f 207/2/3 206/2/3 205/2/3
f 208/2/3 206/2/3 207/2/3
f 210/2/3 206/2/3 208/2/3
f 211/2/3 210/2/3 209/2/3
f 212/2/3 206/2/3 210/2/3
f 212/2/3 210/2/3 211/2/3
f 215/3/3 214/3/3 213/3/3
f 216/3/3 214/3/3 215/3/3
f 220/2/3 219/2/3 218/2/3
f 221/2/3 219/2/3 220/2/3
f 223/2/3 217/2/3 216/2/3
f 224/2/3 217/2/3 223/2/3
f 225/3/3 223/3/3 222/3/3
f 226/3/3 223/3/3 225/3/3
f 231/1/3 228/1/3 227/1/3
f 232/1/3 228/1/3 231/1/3
f 233/2/3 230/2/3 229/2/3
f 234/2/3 230/2/3 233/2/3
f 237/2/3 236/2/3 235/2/3
f 238/2/3 236/2/3 237/2/3
f 241/1/3 240/1/3 239/1/3
f 242/1/3 240/1/3 241/1/3
f 247/2/3 244/2/3 243/2/3
f 248/2/3 244/2/3 247/2/3
f 249/2/3 244/2/3 248/2/3
f 250/1/3 246/1/3 245/1/3
f 251/1/3 246/1/3 250/1/3
f 257/2/3 253/2/3 252/2/3
f 257/2/3 254/2/3 253/2/3
f 258/2/3 254/2/3 257/2/3
f 259/1/3 256/1/3 255/1/3
f 260/1/3 256/1/3 259/1/3
f 263/2/3 262/2/3 261/2/3
f 264/2/3 262/2/3 263/2/3
f 267/2/3 266/2/3 265/2/3
f 268/2/3 266/2/3 267/2/3
f 271/1/3 270/1/3 269/1/3
f 272/1/3 270/1/3 271/1/3
f 275/1/3 274/1/3 273/1/3
f 276/1/3 274/1/3 275/1/3
f 279/2/3 278/2/3 277/2/3
f 280/2/3 278/2/3 279/2/3
f 281/2/3 278/2/3 280/2/3
f 285/2/3 283/2/3 282/2/3
f 285/2/3 284/2/3 283/2/3
f 286/2/3 284/2/3 285/2/3
f 289/2/3 288/2/3 287/2/3
f 290/2/3 288/2/3 289/2/3
f 293/1/3 292/1/3 291/1/3
f 294/1/3 292/1/3 293/1/3
f 295/3/4 296/3/4 297/3/4
f 297/3/4 296/3/4 298/3/4
f 299/3/4 300/3/4 301/3/4
f 301/3/4 300/3/4 302/3/4
f 303/2/4 304/2/4 307/2/4
f 307/2/4 304/2/4 308/2/4
f 305/1/4 306/1/4 309/1/4
f 309/1/4 306/1/4 310/1/4
f 311/2/4 312/2/4 313/2/4
f 313/2/4 312/2/4 314/2/4
f 309/2/4 310/2/4 317/2/4
f 317/2/4 310/2/4 318/2/4
f 315/2/4 316/2/4 319/2/4
f 319/2/4 316/2/4 320/2/4
f 317/1/4 318/1/4 321/1/4
f 321/1/4 318/1/4 322/1/4
f 323/1/4 324/1/4 325/1/4
f 325/1/4 324/1/4 326/1/4
f 327/1/4 328/1/4 329/1/4
f 329/1/4 328/1/4 330/1/4
f 331/2/4 332/2/4 333/2/4
f 333/2/4 332/2/4 334/2/4
f 334/2/4 332/2/4 335/2/4
f 336/2/4 337/2/4 339/2/4
f 337/2/4 338/2/4 339/2/4
f 339/2/4 338/2/4 340/2/4
f 343/2/4 344/2/4 345/2/4
f 345/2/4 344/2/4 346/2/4
f 341/2/4 342/2/4 347/2/4
f 347/2/4 342/2/4 348/2/4
f 349/1/4 350/1/4 351/1/4
f 351/1/4 350/1/4 352/1/4
f 353/1/4 354/1/4 355/1/4
f 355/1/4 354/1/4 356/1/4
f 357/2/4 358/2/4 359/2/4
f 359/2/4 358/2/4 360/2/4
f 360/2/4 358/2/4 361/2/4
f 361/2/4 362/2/4 363/2/4
f 360/2/4 361/2/4 363/2/4
f 363/2/4 362/2/4 364/2/4
f 360/2/4 363/2/4 365/2/4
f 364/2/4 362/2/4 366/2/4
f 360/2/4 365/2/4 368/2/4
f 365/2/4 366/2/4 368/2/4
f 366/2/4 362/2/4 369/2/4
f 368/2/4 366/2/4 369/2/4
f 369/2/4 362/2/4 370/2/4
f 367/2/4 368/2/4 371/2/4
f 368/2/4 369/2/4 371/2/4
f 371/2/4 369/2/4 372/2/4
f 373/1/4 374/1/4 375/1/4
f 375/1/4 374/1/4 376/1/4
f 377/1/4 378/1/4 379/1/4
f 379/1/4 378/1/4 380/1/4
f 385/1/5 382/1/5 381/1/5
f 386/1/5 382/1/5 385/1/5
f 387/1/5 384/1/5 383/1/5
f 388/1/5 384/1/5 387/1/5
f 389/2/5 386/2/5 385/2/5
f 390/2/5 386/2/5 389/2/5
f 391/2/5 388/2/5 387/2/5
f 392/2/5 388/2/5 391/2/5
f 397/2/5 394/2/5 393/2/5
f 398/2/5 394/2/5 397/2/5
f 399/2/5 396/2/5 395/2/5
f 400/2/5 396/2/5 399/2/5
f 405/1/5 402/1/5 401/1/5
f 406/1/5 402/1/5 405/1/5
f 407/1/5 404/1/5 403/1/5
f 408/1/5 404/1/5 407/1/5
f 412/2/5 410/2/5 409/2/5
f 413/2/5 410/2/5 412/2/5
f 415/2/5 412/2/5 411/2/5
f 415/2/5 414/2/5 413/2/5
f 415/2/5 413/2/5 412/2/5
f 416/2/5 414/2/5 415/2/5
f 417/2/5 416/2/5 415/2/5
f 418/2/5 416/2/5 417/2/5
f 419/2/5 418/2/5 417/2/5
f 420/2/5 418/2/5 419/2/5
f 425/2/5 422/2/5 421/2/5
f 426/2/5 422/2/5 425/2/5
f 427/2/5 424/2/5 423/2/5
f 428/2/5 424/2/5 427/2/5
f 432/1/5 430/1/5 429/1/5
f 433/1/5 430/1/5 432/1/5
f 435/2/5 432/2/5 431/2/5
f 435/2/5 434/2/5 433/2/5
f 435/2/5 433/2/5 432/2/5
f 436/2/5 434/2/5 435/2/5
f 437/2/5 435/2/5 431/2/5
f 438/2/5 435/2/5 437/2/5
f 439/2/5 434/2/5 436/2/5
f 440/2/5 434/2/5 439/2/5
f 443/2/5 442/2/5 441/2/5
f 444/2/5 442/2/5 443/2/5
f 445/2/5 444/2/5 443/2/5
f 446/2/5 444/2/5 445/2/5
f 451/3/5 448/3/5 447/3/5
f 452/3/5 448/3/5 451/3/5
f 453/3/5 450/3/5 449/3/5
f 454/3/5 450/3/5 453/3/5
f 457/2/5 456/2/5 455/2/5
f 458/2/5 456/2/5 457/2/5
f 461/2/5 460/2/5 459/2/5
f 462/2/5 460/2/5 461/2/5
f 463/1/5 462/1/5 461/1/5
f 464/1/5 462/1/5 463/1/5
f 469/1/5 466/1/5 465/1/5
f 470/1/5 466/1/5 469/1/5
f 471/1/5 468/1/5 467/1/5
f 472/1/5 468/1/5 471/1/5
f 475/2/5 474/2/5 473/2/5
f 476/2/5 474/2/5 475/2/5
f 479/1/5 478/1/5 477/1/5
f 480/1/5 478/1/5 479/1/5
f 485/1/5 482/1/5 481/1/5
f 486/1/5 482/1/5 485/1/5
f 487/1/5 484/1/5 483/1/5
f 488/1/5 484/1/5 487/1/5
f 489/1/6 490/1/6 493/1/6
f 493/1/6 490/1/6 494/1/6
f 491/1/6 492/1/6 495/1/6
f 495/1/6 492/1/6 496/1/6
f 493/2/6 494/2/6 497/2/6
f 497/2/6 494/2/6 498/2/6
f 495/2/6 496/2/6 499/2/6
f 499/2/6 496/2/6 500/2/6
f 501/1/6 502/1/6 505/1/6
f 505/1/6 502/1/6 506/1/6
f 503/1/6 504/1/6 507/1/6
f 507/1/6 504/1/6 508/1/6
f 509/2/6 510/2/6 515/2/6
f 515/2/6 510/2/6 516/2/6
f 511/2/6 512/2/6 517/2/6
f 517/2/6 512/2/6 518/2/6
f 513/2/6 514/2/6 519/2/6
f 519/2/6 514/2/6 520/2/6
f 521/1/6 522/1/6 523/1/6
f 523/1/6 522/1/6 524/1/6
f 525/2/6 526/2/6 527/2/6
f 527/2/6 526/2/6 528/2/6
f 529/2/6 530/2/6 532/2/6
f 532/2/6 530/2/6 533/2/6
f 531/3/6 532/3/6 535/3/6
f 535/3/6 532/3/6 536/3/6
f 533/3/6 534/3/6 537/3/6
f 537/3/6 534/3/6 538/3/6
f 539/2/6 540/2/6 541/2/6
f 541/2/6 540/2/6 542/2/6
f 543/2/6 544/2/6 547/2/6
f 547/2/6 544/2/6 548/2/6
f 545/2/6 546/2/6 551/2/6
f 551/2/6 546/2/6 552/2/6
f 549/2/6 550/2/6 553/2/6
f 553/2/6 550/2/6 554/2/6
f 553/1/6 554/1/6 555/1/6
f 555/1/6 554/1/6 556/1/6
f 557/2/6 558/2/6 560/2/6
f 560/2/6 558/2/6 561/2/6
f 559/1/6 560/1/6 563/1/6
f 560/2/6 561/2/6 564/2/6
f 563/1/6 560/1/6 564/1/6
f 561/1/6 562/1/6 565/1/6
f 564/2/6 561/2/6 565/2/6
f 565/1/6 562/1/6 566/1/6
f 567/2/6 568/2/6 569/2/6
f 569/2/6 568/2/6 570/2/6
f 571/1/6 572/1/6 573/1/6
f 573/1/6 572/1/6 574/1/6
f 575/1/6 576/1/6 579/1/6
f 579/1/6 576/1/6 580/1/6
f 577/1/6 578/1/6 581/1/6
f 581/1/6 578/1/6 582/1/6
