# MagicaVoxel @ Ephtracy

# group
o 

# material
mtllib rat_ledgegrab_0.mtl
usemtl palette

# normals
vn -1 0 0
vn 1 0 0
vn 0 0 1
vn 0 0 -1
vn 0 -1 0
vn 0 1 0

# texcoords
vt 0.0292969 0.5
vt 0.982422 0.5
vt 0.994141 0.5

# verts
v 0 2 0
v 0 2 -0.2
v 0 2 -0.4
v 0 2.1 0
v 0 2.1 -0.2
v 0 2.1 -0.4
v 0 2.1 -0.6
v 0 2.2 -0.8
v 0 2.2 -1
v 0 2.3 -0.4
v 0 2.3 -0.6
v 0 2.3 -0.8
v 0 2.3 -0.9
v 0 2.3 -1
v 0 2.3 -1.1
v 0 2.4 -0.2
v 0 2.4 -0.3
v 0 2.5 -0.2
v 0 2.5 -0.3
v 0 2.5 -0.4
v 0 2.6 -0.3
v 0 2.6 -0.4
v 0 2.6 -0.5
v 0 2.6 -0.9
v 0 2.6 -1.1
v 0 2.7 -0.4
v 0 2.7 -0.5
v 0.1 2.2 -0.3
v 0.1 2.2 -0.4
v 0.1 2.2 -0.6
v 0.1 2.2 -0.7
v 0.1 2.3 -0.1
v 0.1 2.3 -0.3
v 0.1 2.3 -0.4
v 0.1 2.3 -0.6
v 0.1 2.3 -0.7
v 0.1 2.3 -0.8
v 0.1 2.4 -0.2
v 0.1 2.4 -0.3
v 0.1 2.4 -0.8
v 0.1 2.4 -0.9
v 0.1 2.5 -0.1
v 0.1 2.5 -0.2
v 0.1 2.5 -0.3
v 0.1 2.5 -0.4
v 0.1 2.5 -0.7
v 0.1 2.6 -0.2
v 0.1 2.6 -0.3
v 0.1 2.6 -0.7
v 0.1 2.6 -0.8
v 0.1 2.6 -0.9
v 0.1 2.6 -1.1
v 0.1 2.7 -0.8
v 0.1 2.7 -1.1
v 0.2 2.2 -0.2
v 0.2 2.2 -0.3
v 0.2 2.3 0
v 0.2 2.3 -0.1
v 0.2 2.3 -0.2
v 0.2 2.3 -0.3
v 0.2 2.4 0
v 0.2 2.4 -0.1
v 0.2 2.5 -1.1
v 0.2 2.5 -1.2
v 0.2 2.5 -1.4
v 0.2 2.6 -1.1
v 0.2 2.6 -1.2
v 0.2 2.6 -1.4
v 0.2 2.6 -1.6
v 0.2 2.7 -1.4
v 0.2 2.7 -1.6
v 0.2 2.7 -1.7
v 0.2 2.8 -1.6
v 0.2 2.8 -1.7
v 0.3 2.3 -0.4
v 0.3 2.3 -0.6
v 0.3 2.4 -0.4
v 0.3 2.4 -0.6
v 0.3 2.4 -0.7
v 0.3 2.4 -0.8
v 0.3 2.5 -0.7
v 0.3 2.5 -0.8
v 0.3 2.5 -1.1
v 0.3 2.6 -0.8
v 0.3 2.6 -1.1
v 0.4 2 0
v 0.4 2 -0.2
v 0.4 2 -0.4
v 0.4 2.1 0
v 0.4 2.1 -0.2
v 0.4 2.1 -0.4
v 0.4 2.1 -0.6
v 0.4 2.2 -0.4
v 0.4 2.2 -0.6
v 0.4 2.2 -0.8
v 0.4 2.2 -1
v 0.4 2.3 -0.8
v 0.4 2.3 -0.9
v 0.4 2.3 -1
v 0.4 2.3 -1.1
v 0.4 2.4 -0.9
v 0.4 2.4 -1.1
v 0.4 2.6 -0.4
v 0.4 2.6 -0.5
v 0.4 2.7 -0.4
v 0.4 2.7 -0.5
v 0.1 2 0
v 0.1 2 -0.2
v 0.1 2 -0.4
v 0.1 2.1 0
v 0.1 2.1 -0.2
v 0.1 2.1 -0.4
v 0.1 2.1 -0.6
v 0.1 2.2 -0.4
v 0.1 2.2 -0.6
v 0.1 2.2 -0.8
v 0.1 2.2 -1
v 0.1 2.3 -0.8
v 0.1 2.3 -0.9
v 0.1 2.3 -1
v 0.1 2.3 -1.1
v 0.1 2.4 -0.9
v 0.1 2.4 -1.1
v 0.1 2.6 -0.4
v 0.1 2.6 -0.5
v 0.1 2.7 -0.4
v 0.1 2.7 -0.5
v 0.2 2.3 -0.4
v 0.2 2.3 -0.6
v 0.2 2.4 -0.4
v 0.2 2.4 -0.6
v 0.2 2.4 -0.7
v 0.2 2.4 -0.8
v 0.2 2.5 -0.7
v 0.2 2.5 -0.8
v 0.2 2.5 -1.1
v 0.2 2.6 -0.8
v 0.2 2.6 -1.1
v 0.3 2.2 -0.2
v 0.3 2.2 -0.3
v 0.3 2.3 0
v 0.3 2.3 -0.1
v 0.3 2.3 -0.2
v 0.3 2.3 -0.3
v 0.3 2.4 0
v 0.3 2.4 -0.1
v 0.3 2.5 -1.1
v 0.3 2.5 -1.2
v 0.3 2.5 -1.4
v 0.3 2.6 -1.1
v 0.3 2.6 -1.2
v 0.3 2.6 -1.4
v 0.3 2.6 -1.6
v 0.3 2.7 -1.4
v 0.3 2.7 -1.6
v 0.3 2.7 -1.7
v 0.3 2.8 -1.6
v 0.3 2.8 -1.7
v 0.4 2.2 -0.3
v 0.4 2.2 -0.4
v 0.4 2.2 -0.6
v 0.4 2.2 -0.7
v 0.4 2.3 -0.1
v 0.4 2.3 -0.3
v 0.4 2.3 -0.4
v 0.4 2.3 -0.6
v 0.4 2.3 -0.7
v 0.4 2.3 -0.8
v 0.4 2.4 -0.2
v 0.4 2.4 -0.3
v 0.4 2.4 -0.8
v 0.4 2.4 -0.9
v 0.4 2.5 -0.1
v 0.4 2.5 -0.2
v 0.4 2.5 -0.3
v 0.4 2.5 -0.4
v 0.4 2.5 -0.7
v 0.4 2.6 -0.2
v 0.4 2.6 -0.3
v 0.4 2.6 -0.7
v 0.4 2.6 -0.8
v 0.4 2.6 -0.9
v 0.4 2.6 -1.1
v 0.4 2.7 -0.8
v 0.4 2.7 -1.1
v 0.5 2 0
v 0.5 2 -0.2
v 0.5 2 -0.4
v 0.5 2.1 0
v 0.5 2.1 -0.2
v 0.5 2.1 -0.4
v 0.5 2.1 -0.6
v 0.5 2.2 -0.8
v 0.5 2.2 -1
v 0.5 2.3 -0.4
v 0.5 2.3 -0.6
v 0.5 2.3 -0.8
v 0.5 2.3 -0.9
v 0.5 2.3 -1
v 0.5 2.3 -1.1
v 0.5 2.4 -0.2
v 0.5 2.4 -0.3
v 0.5 2.5 -0.2
v 0.5 2.5 -0.3
v 0.5 2.5 -0.4
v 0.5 2.6 -0.3
v 0.5 2.6 -0.4
v 0.5 2.6 -0.5
v 0.5 2.6 -0.9
v 0.5 2.6 -1.1
v 0.5 2.7 -0.4
v 0.5 2.7 -0.5
v 0 2 0
v 0 2.1 0
v 0.1 2 0
v 0.1 2.1 0
v 0.2 2.3 0
v 0.2 2.4 0
v 0.3 2.3 0
v 0.3 2.4 0
v 0.4 2 0
v 0.4 2.1 0
v 0.5 2 0
v 0.5 2.1 0
v 0.1 2.3 -0.1
v 0.1 2.5 -0.1
v 0.2 2.3 -0.1
v 0.2 2.4 -0.1
v 0.3 2.3 -0.1
v 0.3 2.4 -0.1
v 0.4 2.3 -0.1
v 0.4 2.5 -0.1
v 0 2.4 -0.2
v 0 2.5 -0.2
v 0.1 2.4 -0.2
v 0.1 2.5 -0.2
v 0.1 2.6 -0.2
v 0.2 2.2 -0.2
v 0.2 2.3 -0.2
v 0.3 2.2 -0.2
v 0.3 2.3 -0.2
v 0.4 2.4 -0.2
v 0.4 2.5 -0.2
v 0.4 2.6 -0.2
v 0.5 2.4 -0.2
v 0.5 2.5 -0.2
v 0 2.5 -0.3
v 0 2.6 -0.3
v 0.1 2.2 -0.3
v 0.1 2.3 -0.3
v 0.1 2.5 -0.3
v 0.1 2.6 -0.3
v 0.2 2.2 -0.3
v 0.2 2.3 -0.3
v 0.3 2.2 -0.3
v 0.3 2.3 -0.3
v 0.4 2.2 -0.3
v 0.4 2.3 -0.3
v 0.4 2.5 -0.3
v 0.4 2.6 -0.3
v 0.5 2.5 -0.3
v 0.5 2.6 -0.3
v 0 2.1 -0.4
v 0 2.3 -0.4
v 0 2.6 -0.4
v 0 2.7 -0.4
v 0.1 2.1 -0.4
v 0.1 2.2 -0.4
v 0.1 2.3 -0.4
v 0.1 2.6 -0.4
v 0.1 2.7 -0.4
v 0.4 2.1 -0.4
v 0.4 2.2 -0.4
v 0.4 2.3 -0.4
v 0.4 2.6 -0.4
v 0.4 2.7 -0.4
v 0.5 2.1 -0.4
v 0.5 2.3 -0.4
v 0.5 2.6 -0.4
v 0.5 2.7 -0.4
v 0.2 2.3 -0.6
v 0.2 2.4 -0.6
v 0.3 2.3 -0.6
v 0.3 2.4 -0.6
v 0.1 2.5 -0.7
v 0.1 2.6 -0.7
v 0.4 2.5 -0.7
v 0.4 2.6 -0.7
v 0 2.2 -0.8
v 0 2.3 -0.8
v 0.1 2.2 -0.8
v 0.1 2.3 -0.8
v 0.1 2.6 -0.8
v 0.1 2.7 -0.8
v 0.2 2.4 -0.8
v 0.2 2.5 -0.8
v 0.3 2.4 -0.8
v 0.3 2.5 -0.8
v 0.4 2.2 -0.8
v 0.4 2.3 -0.8
v 0.4 2.6 -0.8
v 0.4 2.7 -0.8
v 0.5 2.2 -0.8
v 0.5 2.3 -0.8
v 0 2.3 -0.9
v 0 2.6 -0.9
v 0.1 2.3 -0.9
v 0.1 2.4 -0.9
v 0.1 2.6 -0.9
v 0.4 2.3 -0.9
v 0.4 2.4 -0.9
v 0.4 2.6 -0.9
v 0.5 2.3 -0.9
v 0.5 2.6 -0.9
v 0.2 2.5 -1.1
v 0.2 2.6 -1.1
v 0.3 2.5 -1.1
v 0.3 2.6 -1.1
v 0.2 2.6 -1.4
v 0.2 2.7 -1.4
v 0.3 2.6 -1.4
v 0.3 2.7 -1.4
v 0.2 2.7 -1.6
v 0.2 2.8 -1.6
v 0.3 2.7 -1.6
v 0.3 2.8 -1.6
v 0 2.4 -0.3
v 0 2.5 -0.3
v 0.1 2.4 -0.3
v 0.1 2.5 -0.3
v 0.4 2.4 -0.3
v 0.4 2.5 -0.3
v 0.5 2.4 -0.3
v 0.5 2.5 -0.3
v 0 2 -0.4
v 0 2.1 -0.4
v 0 2.5 -0.4
v 0 2.6 -0.4
v 0.1 2 -0.4
v 0.1 2.1 -0.4
v 0.1 2.5 -0.4
v 0.1 2.6 -0.4
v 0.2 2.3 -0.4
v 0.2 2.4 -0.4
v 0.3 2.3 -0.4
v 0.3 2.4 -0.4
v 0.4 2 -0.4
v 0.4 2.1 -0.4
v 0.4 2.5 -0.4
v 0.4 2.6 -0.4
v 0.5 2 -0.4
v 0.5 2.1 -0.4
v 0.5 2.5 -0.4
v 0.5 2.6 -0.4
v 0 2.6 -0.5
v 0 2.7 -0.5
v 0.1 2.6 -0.5
v 0.1 2.7 -0.5
v 0.4 2.6 -0.5
v 0.4 2.7 -0.5
v 0.5 2.6 -0.5
v 0.5 2.7 -0.5
v 0 2.1 -0.6
v 0 2.3 -0.6
v 0.1 2.1 -0.6
v 0.1 2.2 -0.6
v 0.1 2.3 -0.6
v 0.4 2.1 -0.6
v 0.4 2.2 -0.6
v 0.4 2.3 -0.6
v 0.5 2.1 -0.6
v 0.5 2.3 -0.6
v 0.1 2.2 -0.7
v 0.1 2.3 -0.7
v 0.2 2.4 -0.7
v 0.2 2.5 -0.7
v 0.3 2.4 -0.7
v 0.3 2.5 -0.7
v 0.4 2.2 -0.7
v 0.4 2.3 -0.7
v 0.1 2.3 -0.8
v 0.1 2.4 -0.8
v 0.2 2.5 -0.8
v 0.2 2.6 -0.8
v 0.3 2.5 -0.8
v 0.3 2.6 -0.8
v 0.4 2.3 -0.8
v 0.4 2.4 -0.8
v 0 2.2 -1
v 0 2.3 -1
v 0.1 2.2 -1
v 0.1 2.3 -1
v 0.4 2.2 -1
v 0.4 2.3 -1
v 0.5 2.2 -1
v 0.5 2.3 -1
v 0 2.3 -1.1
v 0 2.6 -1.1
v 0.1 2.3 -1.1
v 0.1 2.4 -1.1
v 0.1 2.6 -1.1
v 0.1 2.7 -1.1
v 0.2 2.5 -1.1
v 0.2 2.6 -1.1
v 0.3 2.5 -1.1
v 0.3 2.6 -1.1
v 0.4 2.3 -1.1
v 0.4 2.4 -1.1
v 0.4 2.6 -1.1
v 0.4 2.7 -1.1
v 0.5 2.3 -1.1
v 0.5 2.6 -1.1
v 0.2 2.5 -1.4
v 0.2 2.6 -1.4
v 0.3 2.5 -1.4
v 0.3 2.6 -1.4
v 0.2 2.6 -1.6
v 0.2 2.7 -1.6
v 0.3 2.6 -1.6
v 0.3 2.7 -1.6
v 0.2 2.7 -1.7
v 0.2 2.8 -1.7
v 0.3 2.7 -1.7
v 0.3 2.8 -1.7
v 0 2 0
v 0.1 2 0
v 0.4 2 0
v 0.5 2 0
v 0 2 -0.2
v 0.1 2 -0.2
v 0.4 2 -0.2
v 0.5 2 -0.2
v 0 2 -0.4
v 0.1 2 -0.4
v 0.4 2 -0.4
v 0.5 2 -0.4
v 0 2.1 -0.4
v 0.1 2.1 -0.4
v 0.4 2.1 -0.4
v 0.5 2.1 -0.4
v 0 2.1 -0.6
v 0.1 2.1 -0.6
v 0.4 2.1 -0.6
v 0.5 2.1 -0.6
v 0.2 2.2 -0.2
v 0.3 2.2 -0.2
v 0.1 2.2 -0.3
v 0.2 2.2 -0.3
v 0.3 2.2 -0.3
v 0.4 2.2 -0.3
v 0.1 2.2 -0.4
v 0.4 2.2 -0.4
v 0.1 2.2 -0.6
v 0.4 2.2 -0.6
v 0.1 2.2 -0.7
v 0.4 2.2 -0.7
v 0 2.2 -0.8
v 0.1 2.2 -0.8
v 0.4 2.2 -0.8
v 0.5 2.2 -0.8
v 0 2.2 -1
v 0.1 2.2 -1
v 0.4 2.2 -1
v 0.5 2.2 -1
v 0.2 2.3 0
v 0.3 2.3 0
v 0.1 2.3 -0.1
v 0.2 2.3 -0.1
v 0.3 2.3 -0.1
v 0.4 2.3 -0.1
v 0.2 2.3 -0.2
v 0.3 2.3 -0.2
v 0.1 2.3 -0.3
v 0.2 2.3 -0.3
v 0.3 2.3 -0.3
v 0.4 2.3 -0.3
v 0.1 2.3 -0.7
v 0.4 2.3 -0.7
v 0.1 2.3 -0.8
v 0.4 2.3 -0.8
v 0 2.3 -1
v 0.1 2.3 -1
v 0.4 2.3 -1
v 0.5 2.3 -1
v 0 2.3 -1.1
v 0.1 2.3 -1.1
v 0.4 2.3 -1.1
v 0.5 2.3 -1.1
v 0 2.4 -0.2
v 0.1 2.4 -0.2
v 0.4 2.4 -0.2
v 0.5 2.4 -0.2
v 0 2.4 -0.3
v 0.1 2.4 -0.3
v 0.4 2.4 -0.3
v 0.5 2.4 -0.3
v 0.2 2.4 -0.4
v 0.3 2.4 -0.4
v 0.2 2.4 -0.6
v 0.3 2.4 -0.6
v 0.1 2.4 -0.8
v 0.4 2.4 -0.8
v 0.1 2.4 -0.9
v 0.4 2.4 -0.9
v 0.1 2.4 -1.1
v 0.4 2.4 -1.1
v 0 2.5 -0.3
v 0.1 2.5 -0.3
v 0.4 2.5 -0.3
v 0.5 2.5 -0.3
v 0 2.5 -0.4
v 0.1 2.5 -0.4
v 0.4 2.5 -0.4
v 0.5 2.5 -0.4
v 0.2 2.5 -0.7
v 0.3 2.5 -0.7
v 0.2 2.5 -0.8
v 0.3 2.5 -0.8
v 0.2 2.5 -1.1
v 0.3 2.5 -1.1
v 0.2 2.5 -1.2
v 0.3 2.5 -1.2
v 0.2 2.5 -1.4
v 0.3 2.5 -1.4
v 0 2.6 -0.4
v 0.1 2.6 -0.4
v 0.4 2.6 -0.4
v 0.5 2.6 -0.4
v 0 2.6 -0.5
v 0.1 2.6 -0.5
v 0.4 2.6 -0.5
v 0.5 2.6 -0.5
v 0.2 2.6 -0.8
v 0.3 2.6 -0.8
v 0.2 2.6 -1.1
v 0.3 2.6 -1.1
v 0.2 2.6 -1.4
v 0.3 2.6 -1.4
v 0.2 2.6 -1.6
v 0.3 2.6 -1.6
v 0.2 2.7 -1.6
v 0.3 2.7 -1.6
v 0.2 2.7 -1.7
v 0.3 2.7 -1.7
v 0 2.1 0
v 0.1 2.1 0
v 0.4 2.1 0
v 0.5 2.1 0
v 0 2.1 -0.2
v 0.1 2.1 -0.2
v 0.4 2.1 -0.2
v 0.5 2.1 -0.2
v 0 2.1 -0.4
v 0.1 2.1 -0.4
v 0.4 2.1 -0.4
v 0.5 2.1 -0.4
v 0 2.3 -0.4
v 0.1 2.3 -0.4
v 0.2 2.3 -0.4
v 0.3 2.3 -0.4
v 0.4 2.3 -0.4
v 0.5 2.3 -0.4
v 0 2.3 -0.6
v 0.1 2.3 -0.6
v 0.2 2.3 -0.6
v 0.3 2.3 -0.6
v 0.4 2.3 -0.6
v 0.5 2.3 -0.6
v 0 2.3 -0.8
v 0.1 2.3 -0.8
v 0.4 2.3 -0.8
v 0.5 2.3 -0.8
v 0 2.3 -0.9
v 0.1 2.3 -0.9
v 0.4 2.3 -0.9
v 0.5 2.3 -0.9
v 0.2 2.4 0
v 0.3 2.4 0
v 0.2 2.4 -0.1
v 0.3 2.4 -0.1
v 0.2 2.4 -0.7
v 0.3 2.4 -0.7
v 0.2 2.4 -0.8
v 0.3 2.4 -0.8
v 0.1 2.5 -0.1
v 0.4 2.5 -0.1
v 0 2.5 -0.2
v 0.1 2.5 -0.2
v 0.4 2.5 -0.2
v 0.5 2.5 -0.2
v 0 2.5 -0.3
v 0.1 2.5 -0.3
v 0.4 2.5 -0.3
v 0.5 2.5 -0.3
v 0.1 2.5 -0.4
v 0.4 2.5 -0.4
v 0.1 2.5 -0.7
v 0.4 2.5 -0.7
v 0.2 2.5 -0.8
v 0.3 2.5 -0.8
v 0.2 2.5 -1.1
v 0.3 2.5 -1.1
v 0.1 2.6 -0.2
v 0.4 2.6 -0.2
v 0 2.6 -0.3
v 0.1 2.6 -0.3
v 0.4 2.6 -0.3
v 0.5 2.6 -0.3
v 0 2.6 -0.4
v 0.1 2.6 -0.4
v 0.4 2.6 -0.4
v 0.5 2.6 -0.4
v 0.1 2.6 -0.7
v 0.4 2.6 -0.7
v 0.1 2.6 -0.8
v 0.4 2.6 -0.8
v 0 2.6 -0.9
v 0.1 2.6 -0.9
v 0.4 2.6 -0.9
v 0.5 2.6 -0.9
v 0 2.6 -1.1
v 0.1 2.6 -1.1
v 0.2 2.6 -1.1
v 0.3 2.6 -1.1
v 0.4 2.6 -1.1
v 0.5 2.6 -1.1
v 0.2 2.6 -1.2
v 0.3 2.6 -1.2
v 0.2 2.6 -1.4
v 0.3 2.6 -1.4
v 0 2.7 -0.4
v 0.1 2.7 -0.4
v 0.4 2.7 -0.4
v 0.5 2.7 -0.4
v 0 2.7 -0.5
v 0.1 2.7 -0.5
v 0.4 2.7 -0.5
v 0.5 2.7 -0.5
v 0.1 2.7 -0.8
v 0.4 2.7 -0.8
v 0.1 2.7 -1.1
v 0.4 2.7 -1.1
v 0.2 2.7 -1.4
v 0.3 2.7 -1.4
v 0.2 2.7 -1.6
v 0.3 2.7 -1.6
v 0.2 2.8 -1.6
v 0.3 2.8 -1.6
v 0.2 2.8 -1.7
v 0.3 2.8 -1.7

# faces
f 4/1/1 2/1/1 1/1/1
f 5/2/1 3/2/1 2/2/1
f 5/1/1 2/1/1 4/1/1
f 6/2/1 3/2/1 5/2/1
f 10/2/1 7/2/1 6/2/1
f 11/2/1 7/2/1 10/2/1
f 12/1/1 9/1/1 8/1/1
f 13/1/1 9/1/1 12/1/1
f 14/1/1 9/1/1 13/1/1
f 18/3/1 17/3/1 16/3/1
f 19/3/1 17/3/1 18/3/1
f 21/1/1 20/1/1 19/1/1
f 22/1/1 20/1/1 21/1/1
f 24/2/1 15/2/1 14/2/1
f 24/2/1 14/2/1 13/2/1
f 25/2/1 15/2/1 24/2/1
f 26/1/1 23/1/1 22/1/1
f 27/1/1 23/1/1 26/1/1
f 33/2/1 29/2/1 28/2/1
f 34/2/1 29/2/1 33/2/1
f 35/2/1 31/2/1 30/2/1
f 36/2/1 31/2/1 35/2/1
f 38/2/1 34/2/1 33/2/1
f 38/2/1 37/2/1 36/2/1
f 38/2/1 36/2/1 35/2/1
f 38/2/1 35/2/1 34/2/1
f 38/2/1 33/2/1 32/2/1
f 39/2/1 37/2/1 38/2/1
f 40/2/1 37/2/1 39/2/1
f 42/2/1 38/2/1 32/2/1
f 43/2/1 38/2/1 42/2/1
f 44/2/1 41/2/1 40/2/1
f 44/2/1 40/2/1 39/2/1
f 45/2/1 41/2/1 44/2/1
f 46/2/1 41/2/1 45/2/1
f 47/2/1 44/2/1 43/2/1
f 48/2/1 44/2/1 47/2/1
f 49/2/1 41/2/1 46/2/1
f 50/2/1 41/2/1 49/2/1
f 51/2/1 41/2/1 50/2/1
f 53/2/1 52/2/1 51/2/1
f 53/2/1 51/2/1 50/2/1
f 54/2/1 52/2/1 53/2/1
f 59/2/1 56/2/1 55/2/1
f 60/2/1 56/2/1 59/2/1
f 61/1/1 58/1/1 57/1/1
f 62/1/1 58/1/1 61/1/1
f 66/2/1 64/2/1 63/2/1
f 67/1/1 65/1/1 64/1/1
f 67/2/1 64/2/1 66/2/1
f 68/1/1 65/1/1 67/1/1
f 70/1/1 69/1/1 68/1/1
f 71/1/1 69/1/1 70/1/1
f 73/1/1 72/1/1 71/1/1
f 74/1/1 72/1/1 73/1/1
f 77/2/1 76/2/1 75/2/1
f 78/2/1 76/2/1 77/2/1
f 81/2/1 80/2/1 79/2/1
f 82/2/1 80/2/1 81/2/1
f 84/2/1 83/2/1 82/2/1
f 85/2/1 83/2/1 84/2/1
f 89/1/1 87/1/1 86/1/1
f 90/2/1 88/2/1 87/2/1
f 90/1/1 87/1/1 89/1/1
f 91/2/1 88/2/1 90/2/1
f 93/2/1 92/2/1 91/2/1
f 94/2/1 92/2/1 93/2/1
f 97/1/1 96/1/1 95/1/1
f 98/1/1 96/1/1 97/1/1
f 99/1/1 96/1/1 98/1/1
f 101/2/1 100/2/1 99/2/1
f 101/2/1 99/2/1 98/2/1
f 102/2/1 100/2/1 101/2/1
f 105/1/1 104/1/1 103/1/1
f 106/1/1 104/1/1 105/1/1
f 107/1/2 108/1/2 110/1/2
f 108/2/2 109/2/2 111/2/2
f 110/1/2 108/1/2 111/1/2
f 111/2/2 109/2/2 112/2/2
f 112/2/2 113/2/2 114/2/2
f 114/2/2 113/2/2 115/2/2
f 116/1/2 117/1/2 118/1/2
f 118/1/2 117/1/2 119/1/2
f 119/1/2 117/1/2 120/1/2
f 120/2/2 121/2/2 122/2/2
f 119/2/2 120/2/2 122/2/2
f 122/2/2 121/2/2 123/2/2
f 124/1/2 125/1/2 126/1/2
f 126/1/2 125/1/2 127/1/2
f 128/2/2 129/2/2 130/2/2
f 130/2/2 129/2/2 131/2/2
f 132/2/2 133/2/2 134/2/2
f 134/2/2 133/2/2 135/2/2
f 135/2/2 136/2/2 137/2/2
f 137/2/2 136/2/2 138/2/2
f 139/2/2 140/2/2 143/2/2
f 143/2/2 140/2/2 144/2/2
f 141/1/2 142/1/2 145/1/2
f 145/1/2 142/1/2 146/1/2
f 147/2/2 148/2/2 150/2/2
f 148/1/2 149/1/2 151/1/2
f 150/2/2 148/2/2 151/2/2
f 151/1/2 149/1/2 152/1/2
f 152/1/2 153/1/2 154/1/2
f 154/1/2 153/1/2 155/1/2
f 155/1/2 156/1/2 157/1/2
f 157/1/2 156/1/2 158/1/2
f 159/2/2 160/2/2 164/2/2
f 164/2/2 160/2/2 165/2/2
f 161/2/2 162/2/2 166/2/2
f 166/2/2 162/2/2 167/2/2
f 164/2/2 165/2/2 169/2/2
f 167/2/2 168/2/2 169/2/2
f 166/2/2 167/2/2 169/2/2
f 165/2/2 166/2/2 169/2/2
f 163/2/2 164/2/2 169/2/2
f 169/2/2 168/2/2 170/2/2
f 170/2/2 168/2/2 171/2/2
f 163/2/2 169/2/2 173/2/2
f 173/2/2 169/2/2 174/2/2
f 171/2/2 172/2/2 175/2/2
f 170/2/2 171/2/2 175/2/2
f 175/2/2 172/2/2 176/2/2
f 176/2/2 172/2/2 177/2/2
f 174/2/2 175/2/2 178/2/2
f 178/2/2 175/2/2 179/2/2
f 177/2/2 172/2/2 180/2/2
f 180/2/2 172/2/2 181/2/2
f 181/2/2 172/2/2 182/2/2
f 182/2/2 183/2/2 184/2/2
f 181/2/2 182/2/2 184/2/2
f 184/2/2 183/2/2 185/2/2
f 186/1/2 187/1/2 189/1/2
f 187/2/2 188/2/2 190/2/2
f 189/1/2 187/1/2 190/1/2
f 190/2/2 188/2/2 191/2/2
f 191/2/2 192/2/2 195/2/2
f 195/2/2 192/2/2 196/2/2
f 193/1/2 194/1/2 197/1/2
f 197/1/2 194/1/2 198/1/2
f 198/1/2 194/1/2 199/1/2
f 201/3/2 202/3/2 203/3/2
f 203/3/2 202/3/2 204/3/2
f 204/1/2 205/1/2 206/1/2
f 206/1/2 205/1/2 207/1/2
f 199/2/2 200/2/2 209/2/2
f 198/2/2 199/2/2 209/2/2
f 209/2/2 200/2/2 210/2/2
f 207/1/2 208/1/2 211/1/2
f 211/1/2 208/1/2 212/1/2
f 215/1/3 214/1/3 213/1/3
f 216/1/3 214/1/3 215/1/3
f 219/1/3 218/1/3 217/1/3
f 220/1/3 218/1/3 219/1/3
f 223/1/3 222/1/3 221/1/3
f 224/1/3 222/1/3 223/1/3
f 227/2/3 226/2/3 225/2/3
f 228/2/3 226/2/3 227/2/3
f 230/2/3 226/2/3 228/2/3
f 231/2/3 230/2/3 229/2/3
f 232/2/3 226/2/3 230/2/3
f 232/2/3 230/2/3 231/2/3
f 235/3/3 234/3/3 233/3/3
f 236/3/3 234/3/3 235/3/3
f 240/2/3 239/2/3 238/2/3
f 241/2/3 239/2/3 240/2/3
f 243/2/3 237/2/3 236/2/3
f 244/2/3 237/2/3 243/2/3
f 245/3/3 243/3/3 242/3/3
f 246/3/3 243/3/3 245/3/3
f 251/1/3 248/1/3 247/1/3
f 252/1/3 248/1/3 251/1/3
f 253/2/3 250/2/3 249/2/3
f 254/2/3 250/2/3 253/2/3
f 257/2/3 256/2/3 255/2/3
f 258/2/3 256/2/3 257/2/3
f 261/1/3 260/1/3 259/1/3
f 262/1/3 260/1/3 261/1/3
f 267/2/3 264/2/3 263/2/3
f 268/2/3 264/2/3 267/2/3
f 269/2/3 264/2/3 268/2/3
f 270/1/3 266/1/3 265/1/3
f 271/1/3 266/1/3 270/1/3
f 277/2/3 273/2/3 272/2/3
f 277/2/3 274/2/3 273/2/3
f 278/2/3 274/2/3 277/2/3
f 279/1/3 276/1/3 275/1/3
f 280/1/3 276/1/3 279/1/3
f 283/2/3 282/2/3 281/2/3
f 284/2/3 282/2/3 283/2/3
f 287/2/3 286/2/3 285/2/3
f 288/2/3 286/2/3 287/2/3
f 291/1/3 290/1/3 289/1/3
f 292/1/3 290/1/3 291/1/3
f 297/2/3 296/2/3 295/2/3
f 298/2/3 296/2/3 297/2/3
f 301/2/3 294/2/3 293/2/3
f 302/2/3 294/2/3 301/2/3
f 303/1/3 300/1/3 299/1/3
f 304/1/3 300/1/3 303/1/3
f 307/2/3 306/2/3 305/2/3
f 308/2/3 306/2/3 307/2/3
f 309/2/3 306/2/3 308/2/3
f 313/2/3 311/2/3 310/2/3
f 313/2/3 312/2/3 311/2/3
f 314/2/3 312/2/3 313/2/3
f 317/2/3 316/2/3 315/2/3
f 318/2/3 316/2/3 317/2/3
f 321/1/3 320/1/3 319/1/3
f 322/1/3 320/1/3 321/1/3
f 325/1/3 324/1/3 323/1/3
f 326/1/3 324/1/3 325/1/3
f 327/3/4 328/3/4 329/3/4
f 329/3/4 328/3/4 330/3/4
f 331/3/4 332/3/4 333/3/4
f 333/3/4 332/3/4 334/3/4
f 335/2/4 336/2/4 339/2/4
f 339/2/4 336/2/4 340/2/4
f 337/1/4 338/1/4 341/1/4
f 341/1/4 338/1/4 342/1/4
f 343/2/4 344/2/4 345/2/4
f 345/2/4 344/2/4 346/2/4
f 341/2/4 342/2/4 349/2/4
f 349/2/4 342/2/4 350/2/4
f 347/2/4 348/2/4 351/2/4
f 351/2/4 348/2/4 352/2/4
f 349/1/4 350/1/4 353/1/4
f 353/1/4 350/1/4 354/1/4
f 355/1/4 356/1/4 357/1/4
f 357/1/4 356/1/4 358/1/4
f 359/1/4 360/1/4 361/1/4
f 361/1/4 360/1/4 362/1/4
f 363/2/4 364/2/4 365/2/4
f 365/2/4 364/2/4 366/2/4
f 366/2/4 364/2/4 367/2/4
f 368/2/4 369/2/4 371/2/4
f 369/2/4 370/2/4 371/2/4
f 371/2/4 370/2/4 372/2/4
f 375/2/4 376/2/4 377/2/4
f 377/2/4 376/2/4 378/2/4
f 373/2/4 374/2/4 379/2/4
f 379/2/4 374/2/4 380/2/4
f 383/2/4 384/2/4 385/2/4
f 385/2/4 384/2/4 386/2/4
f 381/2/4 382/2/4 387/2/4
f 387/2/4 382/2/4 388/2/4
f 389/1/4 390/1/4 391/1/4
f 391/1/4 390/1/4 392/1/4
f 393/1/4 394/1/4 395/1/4
f 395/1/4 394/1/4 396/1/4
f 397/2/4 398/2/4 399/2/4
f 399/2/4 398/2/4 400/2/4
f 400/2/4 398/2/4 401/2/4
f 401/2/4 402/2/4 403/2/4
f 400/2/4 401/2/4 403/2/4
f 403/2/4 402/2/4 404/2/4
f 400/2/4 403/2/4 405/2/4
f 404/2/4 402/2/4 406/2/4
f 400/2/4 405/2/4 408/2/4
f 405/2/4 406/2/4 408/2/4
f 406/2/4 402/2/4 409/2/4
f 408/2/4 406/2/4 409/2/4
f 409/2/4 402/2/4 410/2/4
f 407/2/4 408/2/4 411/2/4
f 408/2/4 409/2/4 411/2/4
f 411/2/4 409/2/4 412/2/4
f 413/1/4 414/1/4 415/1/4
f 415/1/4 414/1/4 416/1/4
f 417/1/4 418/1/4 419/1/4
f 419/1/4 418/1/4 420/1/4
f 421/1/4 422/1/4 423/1/4
f 423/1/4 422/1/4 424/1/4
f 429/1/5 426/1/5 425/1/5
f 430/1/5 426/1/5 429/1/5
f 431/1/5 428/1/5 427/1/5
f 432/1/5 428/1/5 431/1/5
f 433/2/5 430/2/5 429/2/5
f 434/2/5 430/2/5 433/2/5
f 435/2/5 432/2/5 431/2/5
f 436/2/5 432/2/5 435/2/5
f 441/2/5 438/2/5 437/2/5
f 442/2/5 438/2/5 441/2/5
f 443/2/5 440/2/5 439/2/5
f 444/2/5 440/2/5 443/2/5
f 448/2/5 446/2/5 445/2/5
f 449/2/5 446/2/5 448/2/5
f 451/2/5 448/2/5 447/2/5
f 451/2/5 450/2/5 449/2/5
f 451/2/5 449/2/5 448/2/5
f 452/2/5 450/2/5 451/2/5
f 453/2/5 452/2/5 451/2/5
f 454/2/5 452/2/5 453/2/5
f 455/2/5 454/2/5 453/2/5
f 456/2/5 454/2/5 455/2/5
f 461/1/5 458/1/5 457/1/5
f 462/1/5 458/1/5 461/1/5
f 463/1/5 460/1/5 459/1/5
f 464/1/5 460/1/5 463/1/5
f 468/1/5 466/1/5 465/1/5
f 469/1/5 466/1/5 468/1/5
f 471/2/5 468/2/5 467/2/5
f 471/2/5 470/2/5 469/2/5
f 471/2/5 469/2/5 468/2/5
f 472/2/5 470/2/5 471/2/5
f 473/2/5 471/2/5 467/2/5
f 474/2/5 471/2/5 473/2/5
f 475/2/5 470/2/5 472/2/5
f 476/2/5 470/2/5 475/2/5
f 479/2/5 478/2/5 477/2/5
f 480/2/5 478/2/5 479/2/5
f 485/2/5 482/2/5 481/2/5
f 486/2/5 482/2/5 485/2/5
f 487/2/5 484/2/5 483/2/5
f 488/2/5 484/2/5 487/2/5
f 493/3/5 490/3/5 489/3/5
f 494/3/5 490/3/5 493/3/5
f 495/3/5 492/3/5 491/3/5
f 496/3/5 492/3/5 495/3/5
f 499/2/5 498/2/5 497/2/5
f 500/2/5 498/2/5 499/2/5
f 503/2/5 502/2/5 501/2/5
f 504/2/5 502/2/5 503/2/5
f 505/2/5 504/2/5 503/2/5
f 506/2/5 504/2/5 505/2/5
f 511/1/5 508/1/5 507/1/5
f 512/1/5 508/1/5 511/1/5
f 513/1/5 510/1/5 509/1/5
f 514/1/5 510/1/5 513/1/5
f 517/2/5 516/2/5 515/2/5
f 518/2/5 516/2/5 517/2/5
f 521/2/5 520/2/5 519/2/5
f 522/2/5 520/2/5 521/2/5
f 523/1/5 522/1/5 521/1/5
f 524/1/5 522/1/5 523/1/5
f 529/1/5 526/1/5 525/1/5
f 530/1/5 526/1/5 529/1/5
f 531/1/5 528/1/5 527/1/5
f 532/1/5 528/1/5 531/1/5
f 535/2/5 534/2/5 533/2/5
f 536/2/5 534/2/5 535/2/5
f 539/1/5 538/1/5 537/1/5
f 540/1/5 538/1/5 539/1/5
f 543/1/5 542/1/5 541/1/5
f 544/1/5 542/1/5 543/1/5
f 545/1/6 546/1/6 549/1/6
f 549/1/6 546/1/6 550/1/6
f 547/1/6 548/1/6 551/1/6
f 551/1/6 548/1/6 552/1/6
f 549/2/6 550/2/6 553/2/6
f 553/2/6 550/2/6 554/2/6
f 551/2/6 552/2/6 555/2/6
f 555/2/6 552/2/6 556/2/6
f 557/2/6 558/2/6 563/2/6
f 563/2/6 558/2/6 564/2/6
f 559/2/6 560/2/6 565/2/6
f 565/2/6 560/2/6 566/2/6
f 561/2/6 562/2/6 567/2/6
f 567/2/6 562/2/6 568/2/6
f 569/1/6 570/1/6 573/1/6
f 573/1/6 570/1/6 574/1/6
f 571/1/6 572/1/6 575/1/6
f 575/1/6 572/1/6 576/1/6
f 577/1/6 578/1/6 579/1/6
f 579/1/6 578/1/6 580/1/6
f 581/2/6 582/2/6 583/2/6
f 583/2/6 582/2/6 584/2/6
f 585/2/6 586/2/6 588/2/6
f 588/2/6 586/2/6 589/2/6
f 587/3/6 588/3/6 591/3/6
f 591/3/6 588/3/6 592/3/6
f 589/3/6 590/3/6 593/3/6
f 593/3/6 590/3/6 594/3/6
f 595/2/6 596/2/6 597/2/6
f 597/2/6 596/2/6 598/2/6
f 599/2/6 600/2/6 601/2/6
f 601/2/6 600/2/6 602/2/6
f 603/2/6 604/2/6 606/2/6
f 606/2/6 604/2/6 607/2/6
f 605/1/6 606/1/6 609/1/6
f 606/2/6 607/2/6 610/2/6
f 609/1/6 606/1/6 610/1/6
f 607/1/6 608/1/6 611/1/6
f 610/2/6 607/2/6 611/2/6
f 611/1/6 608/1/6 612/1/6
f 613/2/6 614/2/6 615/2/6
f 615/2/6 614/2/6 616/2/6
f 617/2/6 618/2/6 621/2/6
f 621/2/6 618/2/6 622/2/6
f 619/2/6 620/2/6 625/2/6
f 625/2/6 620/2/6 626/2/6
f 623/2/6 624/2/6 627/2/6
f 627/2/6 624/2/6 628/2/6
f 627/1/6 628/1/6 629/1/6
f 629/1/6 628/1/6 630/1/6
f 631/1/6 632/1/6 635/1/6
f 635/1/6 632/1/6 636/1/6
f 633/1/6 634/1/6 637/1/6
f 637/1/6 634/1/6 638/1/6
f 639/2/6 640/2/6 641/2/6
f 641/2/6 640/2/6 642/2/6
f 643/1/6 644/1/6 645/1/6
f 645/1/6 644/1/6 646/1/6
f 647/1/6 648/1/6 649/1/6
f 649/1/6 648/1/6 650/1/6
