# MagicaVoxel @ Ephtracy

# group
o 

# material
mtllib grass_dense.mtl
usemtl palette

# normals
vn -1 0 0
vn 1 0 0
vn 0 0 1
vn 0 0 -1
vn 0 -1 0
vn 0 1 0

# texcoords
vt 0.177734 0.5
vt 0.630859 0.5
vt 0.654297 0.5

# verts
v 0 2 0
v 0 2 -0.1
v 0 2 -0.2
v 0 2 -0.3
v 0 2.4 0
v 0 2.4 -0.1
v 0 2.5 -0.2
v 0 2.5 -0.3
v 0 2.8 -0.1
v 0 2.8 -0.2
v 0.1 2.4 0
v 0.1 2.4 -0.1
v 0.1 2.5 -0.2
v 0.1 2.5 -0.3
v 0.1 2.6 0
v 0.1 2.6 -0.1
v 0.1 2.6 -0.2
v 0.1 2.6 -0.3
v 0.2 2 -0.2
v 0.2 2 -0.3
v 0.2 2.4 -0.2
v 0.2 2.4 -0.3
v 0.2 2.6 0
v 0.2 2.6 -0.1
v 0.2 2.6 -0.2
v 0.2 2.6 -0.3
v 0.2 2.7 0
v 0.2 2.7 -0.1
v 0.2 2.7 -0.2
v 0.2 2.7 -0.3
v 0.2 2.9 -0.1
v 0.2 2.9 -0.2
v 0.3 2 0
v 0.3 2 -0.1
v 0.3 2 -0.2
v 0.3 2.2 -0.1
v 0.3 2.2 -0.2
v 0.3 2.3 0
v 0.3 2.3 -0.1
v 0.3 2.7 -0.2
v 0.3 2.7 -0.3
v 0.3 2.8 -0.2
v 0.3 2.8 -0.3
v 0.4 2.7 -0.1
v 0.4 2.7 -0.2
v 0.4 2.8 -0.2
v 0.4 2.9 -0.1
v 0.4 2.9 -0.2
v 0.1 2 0
v 0.1 2 -0.1
v 0.1 2 -0.2
v 0.1 2 -0.3
v 0.1 2.3 0
v 0.1 2.3 -0.1
v 0.1 2.4 -0.2
v 0.1 2.4 -0.3
v 0.1 2.7 -0.1
v 0.1 2.7 -0.2
v 0.1 2.8 -0.1
v 0.1 2.8 -0.2
v 0.2 2 -0.1
v 0.2 2 -0.2
v 0.2 2.2 -0.1
v 0.2 2.2 -0.2
v 0.3 2.3 0
v 0.3 2.3 -0.1
v 0.3 2.4 -0.2
v 0.3 2.4 -0.3
v 0.3 2.6 -0.2
v 0.3 2.6 -0.3
v 0.3 2.7 0
v 0.3 2.7 -0.1
v 0.3 2.7 -0.2
v 0.3 2.8 -0.2
v 0.3 2.9 -0.1
v 0.3 2.9 -0.2
v 0.4 2 0
v 0.4 2 -0.1
v 0.4 2 -0.2
v 0.4 2 -0.3
v 0.4 2.3 0
v 0.4 2.3 -0.1
v 0.4 2.4 -0.2
v 0.4 2.4 -0.3
v 0.4 2.6 -0.1
v 0.4 2.6 -0.2
v 0.4 2.6 -0.3
v 0.4 2.8 -0.2
v 0.4 2.8 -0.3
v 0.5 2.6 -0.1
v 0.5 2.6 -0.2
v 0.5 2.9 -0.1
v 0.5 2.9 -0.2
v 0 2 0
v 0 2.4 0
v 0.1 2 0
v 0.1 2.3 0
v 0.1 2.4 0
v 0.1 2.6 0
v 0.2 2.3 0
v 0.2 2.6 0
v 0.2 2.7 0
v 0.3 2 0
v 0.3 2.3 0
v 0.3 2.7 0
v 0.4 2 0
v 0.4 2.3 0
v 0 2.4 -0.1
v 0 2.8 -0.1
v 0.1 2 -0.1
v 0.1 2.3 -0.1
v 0.1 2.4 -0.1
v 0.1 2.6 -0.1
v 0.1 2.7 -0.1
v 0.1 2.8 -0.1
v 0.2 2 -0.1
v 0.2 2.2 -0.1
v 0.2 2.3 -0.1
v 0.2 2.6 -0.1
v 0.2 2.7 -0.1
v 0.2 2.9 -0.1
v 0.3 2.2 -0.1
v 0.3 2.3 -0.1
v 0.3 2.7 -0.1
v 0.3 2.9 -0.1
v 0.4 2.3 -0.1
v 0.4 2.6 -0.1
v 0.4 2.7 -0.1
v 0.4 2.9 -0.1
v 0.5 2.6 -0.1
v 0.5 2.9 -0.1
v 0.2 2 -0.2
v 0.2 2.2 -0.2
v 0.3 2 -0.2
v 0.3 2.2 -0.2
v 0.3 2.7 -0.2
v 0.3 2.8 -0.2
v 0.4 2.7 -0.2
v 0.4 2.8 -0.2
v 0 2.5 -0.2
v 0 2.8 -0.2
v 0.1 2 -0.2
v 0.1 2.4 -0.2
v 0.1 2.5 -0.2
v 0.1 2.6 -0.2
v 0.1 2.7 -0.2
v 0.1 2.8 -0.2
v 0.2 2 -0.2
v 0.2 2.4 -0.2
v 0.2 2.6 -0.2
v 0.2 2.7 -0.2
v 0.2 2.9 -0.2
v 0.3 2.4 -0.2
v 0.3 2.6 -0.2
v 0.3 2.7 -0.2
v 0.3 2.8 -0.2
v 0.3 2.9 -0.2
v 0.4 2.4 -0.2
v 0.4 2.6 -0.2
v 0.4 2.8 -0.2
v 0.4 2.9 -0.2
v 0.5 2.6 -0.2
v 0.5 2.9 -0.2
v 0 2 -0.3
v 0 2.5 -0.3
v 0.1 2 -0.3
v 0.1 2.4 -0.3
v 0.1 2.5 -0.3
v 0.1 2.6 -0.3
v 0.2 2 -0.3
v 0.2 2.4 -0.3
v 0.2 2.6 -0.3
v 0.2 2.7 -0.3
v 0.3 2 -0.3
v 0.3 2.4 -0.3
v 0.3 2.6 -0.3
v 0.3 2.7 -0.3
v 0.3 2.8 -0.3
v 0.4 2 -0.3
v 0.4 2.4 -0.3
v 0.4 2.6 -0.3
v 0.4 2.8 -0.3
v 0 2 0
v 0.1 2 0
v 0.3 2 0
v 0.4 2 0
v 0 2 -0.1
v 0.1 2 -0.1
v 0.2 2 -0.1
v 0.3 2 -0.1
v 0.4 2 -0.1
v 0 2 -0.2
v 0.1 2 -0.2
v 0.2 2 -0.2
v 0.3 2 -0.2
v 0.4 2 -0.2
v 0 2 -0.3
v 0.1 2 -0.3
v 0.2 2 -0.3
v 0.3 2 -0.3
v 0.4 2 -0.3
v 0.2 2.2 -0.1
v 0.3 2.2 -0.1
v 0.2 2.2 -0.2
v 0.3 2.2 -0.2
v 0.1 2.3 0
v 0.2 2.3 0
v 0.3 2.3 0
v 0.1 2.3 -0.1
v 0.2 2.3 -0.1
v 0.3 2.3 -0.1
v 0.1 2.4 -0.2
v 0.2 2.4 -0.2
v 0.1 2.4 -0.3
v 0.2 2.4 -0.3
v 0.4 2.6 -0.1
v 0.5 2.6 -0.1
v 0.3 2.6 -0.2
v 0.4 2.6 -0.2
v 0.5 2.6 -0.2
v 0.3 2.6 -0.3
v 0.4 2.6 -0.3
v 0.3 2.3 0
v 0.4 2.3 0
v 0.3 2.3 -0.1
v 0.4 2.3 -0.1
v 0 2.4 0
v 0.1 2.4 0
v 0 2.4 -0.1
v 0.1 2.4 -0.1
v 0.3 2.4 -0.2
v 0.4 2.4 -0.2
v 0.3 2.4 -0.3
v 0.4 2.4 -0.3
v 0 2.5 -0.2
v 0.1 2.5 -0.2
v 0 2.5 -0.3
v 0.1 2.5 -0.3
v 0.1 2.6 0
v 0.2 2.6 0
v 0.1 2.6 -0.1
v 0.2 2.6 -0.1
v 0.1 2.6 -0.2
v 0.2 2.6 -0.2
v 0.1 2.6 -0.3
v 0.2 2.6 -0.3
v 0.2 2.7 0
v 0.3 2.7 0
v 0.1 2.7 -0.1
v 0.2 2.7 -0.1
v 0.3 2.7 -0.1
v 0.4 2.7 -0.1
v 0.1 2.7 -0.2
v 0.2 2.7 -0.2
v 0.3 2.7 -0.2
v 0.4 2.7 -0.2
v 0.2 2.7 -0.3
v 0.3 2.7 -0.3
v 0 2.8 -0.1
v 0.1 2.8 -0.1
v 0 2.8 -0.2
v 0.1 2.8 -0.2
v 0.3 2.8 -0.2
v 0.4 2.8 -0.2
v 0.3 2.8 -0.3
v 0.4 2.8 -0.3
v 0.2 2.9 -0.1
v 0.3 2.9 -0.1
v 0.4 2.9 -0.1
v 0.5 2.9 -0.1
v 0.2 2.9 -0.2
v 0.3 2.9 -0.2
v 0.4 2.9 -0.2
v 0.5 2.9 -0.2

# faces
f 5/3/1 2/3/1 1/3/1
f 6/1/1 3/1/1 2/1/1
f 6/3/1 2/3/1 5/3/1
f 7/2/1 4/2/1 3/2/1
f 7/1/1 3/1/1 6/1/1
f 8/2/1 4/2/1 7/2/1
f 9/1/1 7/1/1 6/1/1
f 10/1/1 7/1/1 9/1/1
f 15/3/1 12/3/1 11/3/1
f 16/3/1 12/3/1 15/3/1
f 17/2/1 14/2/1 13/2/1
f 18/2/1 14/2/1 17/2/1
f 21/3/1 20/3/1 19/3/1
f 22/3/1 20/3/1 21/3/1
f 27/1/1 24/1/1 23/1/1
f 28/1/1 24/1/1 27/1/1
f 29/3/1 26/3/1 25/3/1
f 30/3/1 26/3/1 29/3/1
f 31/2/1 29/2/1 28/2/1
f 32/2/1 29/2/1 31/2/1
f 36/1/1 34/1/1 33/1/1
f 36/3/1 35/3/1 34/3/1
f 37/3/1 35/3/1 36/3/1
f 38/1/1 36/1/1 33/1/1
f 39/1/1 36/1/1 38/1/1
f 42/3/1 41/3/1 40/3/1
f 43/3/1 41/3/1 42/3/1
f 46/3/1 45/3/1 44/3/1
f 47/3/1 46/3/1 44/3/1
f 48/3/1 46/3/1 47/3/1
f 49/3/2 50/3/2 53/3/2
f 53/3/2 50/3/2 54/3/2
f 51/2/2 52/2/2 55/2/2
f 55/2/2 52/2/2 56/2/2
f 57/1/2 58/1/2 59/1/2
f 59/1/2 58/1/2 60/1/2
f 61/2/2 62/2/2 63/2/2
f 63/2/2 62/2/2 64/2/2
f 67/3/2 68/3/2 69/3/2
f 69/3/2 68/3/2 70/3/2
f 65/1/2 66/1/2 71/1/2
f 71/1/2 66/1/2 72/1/2
f 72/2/2 73/2/2 74/2/2
f 72/2/2 74/2/2 75/2/2
f 75/2/2 74/2/2 76/2/2
f 77/1/2 78/1/2 81/1/2
f 78/3/2 79/3/2 82/3/2
f 81/1/2 78/1/2 82/1/2
f 79/1/2 80/1/2 83/1/2
f 82/3/2 79/3/2 83/3/2
f 83/1/2 80/1/2 84/1/2
f 82/3/2 83/3/2 85/3/2
f 85/3/2 83/3/2 86/3/2
f 86/3/2 87/3/2 88/3/2
f 88/3/2 87/3/2 89/3/2
f 90/3/2 91/3/2 92/3/2
f 92/3/2 91/3/2 93/3/2
f 96/3/3 95/3/3 94/3/3
f 97/3/3 95/3/3 96/3/3
f 98/3/3 95/3/3 97/3/3
f 100/3/3 99/3/3 98/3/3
f 100/3/3 98/3/3 97/3/3
f 101/3/3 99/3/3 100/3/3
f 104/1/3 101/1/3 100/1/3
f 104/1/3 102/1/3 101/1/3
f 105/1/3 102/1/3 104/1/3
f 106/1/3 104/1/3 103/1/3
f 107/1/3 104/1/3 106/1/3
f 112/1/3 109/1/3 108/1/3
f 113/1/3 109/1/3 112/1/3
f 114/1/3 109/1/3 113/1/3
f 115/1/3 109/1/3 114/1/3
f 116/2/3 111/2/3 110/2/3
f 117/2/3 111/2/3 116/2/3
f 118/2/3 111/2/3 117/2/3
f 119/2/3 114/2/3 113/2/3
f 120/2/3 114/2/3 119/2/3
f 122/1/3 118/1/3 117/1/3
f 123/1/3 118/1/3 122/1/3
f 124/2/3 121/2/3 120/2/3
f 125/2/3 121/2/3 124/2/3
f 126/3/3 124/3/3 123/3/3
f 127/3/3 124/3/3 126/3/3
f 128/3/3 124/3/3 127/3/3
f 130/3/3 129/3/3 128/3/3
f 130/3/3 128/3/3 127/3/3
f 131/3/3 129/3/3 130/3/3
f 134/3/3 133/3/3 132/3/3
f 135/3/3 133/3/3 134/3/3
f 138/3/3 137/3/3 136/3/3
f 139/3/3 137/3/3 138/3/3
f 140/1/4 141/1/4 144/1/4
f 144/1/4 141/1/4 145/1/4
f 145/1/4 141/1/4 146/1/4
f 146/1/4 141/1/4 147/1/4
f 142/2/4 143/2/4 148/2/4
f 148/2/4 143/2/4 149/2/4
f 145/2/4 146/2/4 150/2/4
f 150/2/4 146/2/4 151/2/4
f 151/2/4 152/2/4 155/2/4
f 155/2/4 152/2/4 156/2/4
f 156/2/4 152/2/4 157/2/4
f 153/3/4 154/3/4 158/3/4
f 158/3/4 154/3/4 159/3/4
f 160/3/4 161/3/4 162/3/4
f 159/3/4 160/3/4 162/3/4
f 162/3/4 161/3/4 163/3/4
f 164/2/4 165/2/4 166/2/4
f 166/2/4 165/2/4 167/2/4
f 167/2/4 165/2/4 168/2/4
f 168/2/4 169/2/4 171/2/4
f 167/2/4 168/2/4 171/2/4
f 171/2/4 169/2/4 172/2/4
f 170/3/4 171/3/4 174/3/4
f 172/3/4 173/3/4 174/3/4
f 171/3/4 172/3/4 174/3/4
f 174/3/4 173/3/4 175/3/4
f 175/3/4 173/3/4 176/3/4
f 176/3/4 173/3/4 177/3/4
f 174/1/4 175/1/4 179/1/4
f 179/1/4 175/1/4 180/1/4
f 177/3/4 178/3/4 181/3/4
f 176/3/4 177/3/4 181/3/4
f 181/3/4 178/3/4 182/3/4
f 187/3/5 184/3/5 183/3/5
f 188/3/5 184/3/5 187/3/5
f 190/1/5 186/1/5 185/1/5
f 191/1/5 186/1/5 190/1/5
f 192/1/5 188/1/5 187/1/5
f 193/2/5 189/2/5 188/2/5
f 193/1/5 188/1/5 192/1/5
f 194/2/5 189/2/5 193/2/5
f 195/3/5 191/3/5 190/3/5
f 196/3/5 191/3/5 195/3/5
f 197/2/5 193/2/5 192/2/5
f 198/2/5 193/2/5 197/2/5
f 199/3/5 195/3/5 194/3/5
f 200/1/5 196/1/5 195/1/5
f 200/3/5 195/3/5 199/3/5
f 201/1/5 196/1/5 200/1/5
f 204/1/5 203/1/5 202/1/5
f 205/1/5 203/1/5 204/1/5
f 209/3/5 207/3/5 206/3/5
f 210/1/5 208/1/5 207/1/5
f 210/3/5 207/3/5 209/3/5
f 211/1/5 208/1/5 210/1/5
f 214/2/5 213/2/5 212/2/5
f 215/2/5 213/2/5 214/2/5
f 219/3/5 217/3/5 216/3/5
f 220/3/5 217/3/5 219/3/5
f 221/3/5 219/3/5 218/3/5
f 222/3/5 219/3/5 221/3/5
f 223/1/6 224/1/6 225/1/6
f 225/1/6 224/1/6 226/1/6
f 227/3/6 228/3/6 229/3/6
f 229/3/6 228/3/6 230/3/6
f 231/1/6 232/1/6 233/1/6
f 233/1/6 232/1/6 234/1/6
f 235/2/6 236/2/6 237/2/6
f 237/2/6 236/2/6 238/2/6
f 239/3/6 240/3/6 241/3/6
f 241/3/6 240/3/6 242/3/6
f 243/2/6 244/2/6 245/2/6
f 245/2/6 244/2/6 246/2/6
f 247/1/6 248/1/6 250/1/6
f 250/1/6 248/1/6 251/1/6
f 249/2/6 250/2/6 253/2/6
f 253/2/6 250/2/6 254/2/6
f 251/3/6 252/3/6 255/3/6
f 255/3/6 252/3/6 256/3/6
f 254/3/6 255/3/6 257/3/6
f 257/3/6 255/3/6 258/3/6
f 259/1/6 260/1/6 261/1/6
f 261/1/6 260/1/6 262/1/6
f 263/3/6 264/3/6 265/3/6
f 265/3/6 264/3/6 266/3/6
f 267/2/6 268/2/6 271/2/6
f 271/2/6 268/2/6 272/2/6
f 269/3/6 270/3/6 273/3/6
f 273/3/6 270/3/6 274/3/6
