# MagicaVoxel @ Ephtracy

# group
o 

# material
mtllib rat_roll_3.mtl
usemtl palette

# normals
vn -1 0 0
vn 1 0 0
vn 0 0 1
vn 0 0 -1
vn 0 -1 0
vn 0 1 0

# texcoords
vt 0.0292969 0.5
vt 0.982422 0.5
vt 0.994141 0.5

# verts
v 0 2 -0.6
v 0 2 -0.7
v 0 2.1 -0.6
v 0 2.1 -0.7
v 0 2.1 -0.8
v 0 2.2 -0.7
v 0 2.2 -0.8
v 0 2.2 -0.9
v 0 2.3 -0.9
v 0 2.3 -1
v 0 2.4 -0.3
v 0 2.4 -0.4
v 0 2.6 -0.3
v 0 2.6 -0.4
v 0 2.6 -0.5
v 0 2.6 -0.8
v 0 2.6 -1
v 0 2.7 -0.5
v 0 2.7 -0.6
v 0 2.9 -0.2
v 0 2.9 -0.3
v 0 2.9 -0.4
v 0 2.9 -0.6
v 0 3 -0.2
v 0 3 -0.3
v 0 3.1 -0.3
v 0 3.1 -0.5
v 0 3.2 -0.3
v 0 3.2 -0.5
v 0.1 2.4 -0.7
v 0.1 2.4 -0.8
v 0.1 2.5 -0.6
v 0.1 2.5 -0.7
v 0.1 2.6 -0.5
v 0.1 2.6 -0.6
v 0.1 2.6 -0.8
v 0.1 2.6 -1
v 0.1 2.7 -0.3
v 0.1 2.7 -0.4
v 0.1 2.7 -0.5
v 0.1 2.7 -0.6
v 0.1 2.7 -0.8
v 0.1 2.7 -1
v 0.1 2.8 -0.1
v 0.1 2.8 -0.3
v 0.1 2.8 -0.7
v 0.1 2.8 -0.8
v 0.1 2.9 -0.2
v 0.1 2.9 -0.3
v 0.1 2.9 -0.4
v 0.1 2.9 -0.5
v 0.1 2.9 -0.6
v 0.1 2.9 -0.7
v 0.1 3 -0.1
v 0.1 3 -0.2
v 0.1 3 -0.3
v 0.1 3 -0.4
v 0.1 3 -0.5
v 0.1 3.1 -0.2
v 0.1 3.1 -0.3
v 0.1 3.1 -0.4
v 0.2 2.1 -1
v 0.2 2.1 -1.1
v 0.2 2.2 -1
v 0.2 2.2 -1.1
v 0.2 2.2 -1.2
v 0.2 2.3 -1.1
v 0.2 2.3 -1.2
v 0.2 2.3 -1.3
v 0.2 2.5 -1
v 0.2 2.5 -1.1
v 0.2 2.5 -1.2
v 0.2 2.5 -1.3
v 0.2 2.6 -1
v 0.2 2.6 -1.1
v 0.2 2.6 -1.2
v 0.2 2.7 -0.2
v 0.2 2.7 -0.3
v 0.2 2.8 0
v 0.2 2.8 -0.1
v 0.2 2.8 -0.2
v 0.2 2.8 -0.3
v 0.2 2.9 0
v 0.2 2.9 -0.1
v 0.3 2.4 -0.8
v 0.3 2.4 -0.9
v 0.3 2.6 -0.8
v 0.3 2.6 -0.9
v 0.3 2.8 -0.4
v 0.3 2.8 -0.5
v 0.3 2.9 -0.4
v 0.3 2.9 -0.5
v 0.4 2 -0.6
v 0.4 2 -0.7
v 0.4 2.1 -0.6
v 0.4 2.1 -0.7
v 0.4 2.1 -0.8
v 0.4 2.2 -0.7
v 0.4 2.2 -0.8
v 0.4 2.2 -0.9
v 0.4 2.3 -0.8
v 0.4 2.3 -0.9
v 0.4 2.3 -1
v 0.4 2.4 -0.3
v 0.4 2.4 -0.4
v 0.4 2.4 -0.9
v 0.4 2.4 -1
v 0.4 2.6 -0.3
v 0.4 2.6 -0.4
v 0.4 2.6 -0.5
v 0.4 2.7 -0.4
v 0.4 2.7 -0.5
v 0.4 2.7 -0.6
v 0.4 2.8 -0.5
v 0.4 2.8 -0.6
v 0.4 3.1 -0.3
v 0.4 3.1 -0.4
v 0.4 3.1 -0.5
v 0.4 3.2 -0.3
v 0.4 3.2 -0.5
v 0.1 2 -0.6
v 0.1 2 -0.7
v 0.1 2.1 -0.6
v 0.1 2.1 -0.7
v 0.1 2.1 -0.8
v 0.1 2.2 -0.7
v 0.1 2.2 -0.8
v 0.1 2.2 -0.9
v 0.1 2.3 -0.8
v 0.1 2.3 -0.9
v 0.1 2.3 -1
v 0.1 2.4 -0.3
v 0.1 2.4 -0.4
v 0.1 2.4 -0.9
v 0.1 2.4 -1
v 0.1 2.6 -0.3
v 0.1 2.6 -0.4
v 0.1 2.6 -0.5
v 0.1 2.7 -0.4
v 0.1 2.7 -0.5
v 0.1 2.7 -0.6
v 0.1 2.8 -0.5
v 0.1 2.8 -0.6
v 0.1 3.1 -0.3
v 0.1 3.1 -0.4
v 0.1 3.1 -0.5
v 0.1 3.2 -0.3
v 0.1 3.2 -0.5
v 0.2 2.4 -0.8
v 0.2 2.4 -0.9
v 0.2 2.6 -0.8
v 0.2 2.6 -0.9
v 0.2 2.8 -0.4
v 0.2 2.8 -0.5
v 0.2 2.9 -0.4
v 0.2 2.9 -0.5
v 0.3 2.1 -1
v 0.3 2.1 -1.1
v 0.3 2.2 -1
v 0.3 2.2 -1.1
v 0.3 2.2 -1.2
v 0.3 2.3 -1.1
v 0.3 2.3 -1.2
v 0.3 2.3 -1.3
v 0.3 2.5 -1
v 0.3 2.5 -1.1
v 0.3 2.5 -1.2
v 0.3 2.5 -1.3
v 0.3 2.6 -1
v 0.3 2.6 -1.1
v 0.3 2.6 -1.2
v 0.3 2.7 -0.2
v 0.3 2.7 -0.3
v 0.3 2.8 0
v 0.3 2.8 -0.1
v 0.3 2.8 -0.2
v 0.3 2.8 -0.3
v 0.3 2.9 0
v 0.3 2.9 -0.1
v 0.4 2.4 -0.7
v 0.4 2.4 -0.8
v 0.4 2.5 -0.6
v 0.4 2.5 -0.7
v 0.4 2.6 -0.5
v 0.4 2.6 -0.6
v 0.4 2.6 -0.8
v 0.4 2.6 -1
v 0.4 2.7 -0.3
v 0.4 2.7 -0.4
v 0.4 2.7 -0.5
v 0.4 2.7 -0.6
v 0.4 2.7 -0.8
v 0.4 2.7 -1
v 0.4 2.8 -0.1
v 0.4 2.8 -0.3
v 0.4 2.8 -0.7
v 0.4 2.8 -0.8
v 0.4 2.9 -0.2
v 0.4 2.9 -0.3
v 0.4 2.9 -0.4
v 0.4 2.9 -0.5
v 0.4 2.9 -0.6
v 0.4 2.9 -0.7
v 0.4 3 -0.1
v 0.4 3 -0.2
v 0.4 3 -0.3
v 0.4 3 -0.4
v 0.4 3 -0.5
v 0.4 3.1 -0.2
v 0.4 3.1 -0.3
v 0.4 3.1 -0.4
v 0.5 2 -0.6
v 0.5 2 -0.7
v 0.5 2.1 -0.6
v 0.5 2.1 -0.7
v 0.5 2.1 -0.8
v 0.5 2.2 -0.7
v 0.5 2.2 -0.8
v 0.5 2.2 -0.9
v 0.5 2.3 -0.9
v 0.5 2.3 -1
v 0.5 2.4 -0.3
v 0.5 2.4 -0.4
v 0.5 2.6 -0.3
v 0.5 2.6 -0.4
v 0.5 2.6 -0.5
v 0.5 2.6 -0.8
v 0.5 2.6 -1
v 0.5 2.7 -0.5
v 0.5 2.7 -0.6
v 0.5 2.9 -0.2
v 0.5 2.9 -0.3
v 0.5 2.9 -0.4
v 0.5 2.9 -0.6
v 0.5 3 -0.2
v 0.5 3 -0.3
v 0.5 3.1 -0.3
v 0.5 3.1 -0.5
v 0.5 3.2 -0.3
v 0.5 3.2 -0.5
v 0.2 2.8 0
v 0.2 2.9 0
v 0.3 2.8 0
v 0.3 2.9 0
v 0.1 2.8 -0.1
v 0.1 3 -0.1
v 0.2 2.8 -0.1
v 0.2 2.9 -0.1
v 0.3 2.8 -0.1
v 0.3 2.9 -0.1
v 0.4 2.8 -0.1
v 0.4 3 -0.1
v 0 2.9 -0.2
v 0 3 -0.2
v 0.1 2.9 -0.2
v 0.1 3 -0.2
v 0.1 3.1 -0.2
v 0.2 2.7 -0.2
v 0.2 2.8 -0.2
v 0.3 2.7 -0.2
v 0.3 2.8 -0.2
v 0.4 2.9 -0.2
v 0.4 3 -0.2
v 0.4 3.1 -0.2
v 0.5 2.9 -0.2
v 0.5 3 -0.2
v 0 2.4 -0.3
v 0 2.6 -0.3
v 0 3.1 -0.3
v 0 3.2 -0.3
v 0.1 2.4 -0.3
v 0.1 2.6 -0.3
v 0.1 2.7 -0.3
v 0.1 2.8 -0.3
v 0.1 3.1 -0.3
v 0.1 3.2 -0.3
v 0.2 2.7 -0.3
v 0.2 2.8 -0.3
v 0.3 2.7 -0.3
v 0.3 2.8 -0.3
v 0.4 2.4 -0.3
v 0.4 2.6 -0.3
v 0.4 2.7 -0.3
v 0.4 2.8 -0.3
v 0.4 3.1 -0.3
v 0.4 3.2 -0.3
v 0.5 2.4 -0.3
v 0.5 2.6 -0.3
v 0.5 3.1 -0.3
v 0.5 3.2 -0.3
v 0 2.6 -0.4
v 0 2.9 -0.4
v 0.1 2.6 -0.4
v 0.1 2.7 -0.4
v 0.1 2.9 -0.4
v 0.4 2.6 -0.4
v 0.4 2.7 -0.4
v 0.4 2.9 -0.4
v 0.5 2.6 -0.4
v 0.5 2.9 -0.4
v 0.1 2.6 -0.5
v 0.1 2.7 -0.5
v 0.2 2.8 -0.5
v 0.2 2.9 -0.5
v 0.3 2.8 -0.5
v 0.3 2.9 -0.5
v 0.4 2.6 -0.5
v 0.4 2.7 -0.5
v 0 2 -0.6
v 0 2.1 -0.6
v 0.1 2 -0.6
v 0.1 2.1 -0.6
v 0.1 2.5 -0.6
v 0.1 2.6 -0.6
v 0.1 2.7 -0.6
v 0.1 2.8 -0.6
v 0.4 2 -0.6
v 0.4 2.1 -0.6
v 0.4 2.5 -0.6
v 0.4 2.6 -0.6
v 0.4 2.7 -0.6
v 0.4 2.8 -0.6
v 0.5 2 -0.6
v 0.5 2.1 -0.6
v 0 2.1 -0.7
v 0 2.2 -0.7
v 0.1 2.1 -0.7
v 0.1 2.2 -0.7
v 0.1 2.4 -0.7
v 0.1 2.5 -0.7
v 0.4 2.1 -0.7
v 0.4 2.2 -0.7
v 0.4 2.4 -0.7
v 0.4 2.5 -0.7
v 0.5 2.1 -0.7
v 0.5 2.2 -0.7
v 0 2.2 -0.8
v 0 2.6 -0.8
v 0.1 2.2 -0.8
v 0.1 2.3 -0.8
v 0.1 2.4 -0.8
v 0.1 2.6 -0.8
v 0.4 2.2 -0.8
v 0.4 2.3 -0.8
v 0.4 2.4 -0.8
v 0.4 2.6 -0.8
v 0.5 2.2 -0.8
v 0.5 2.6 -0.8
v 0.2 2.4 -0.9
v 0.2 2.6 -0.9
v 0.3 2.4 -0.9
v 0.3 2.6 -0.9
v 0.2 2.1 -1
v 0.2 2.2 -1
v 0.3 2.1 -1
v 0.3 2.2 -1
v 0.2 2.2 -1.1
v 0.2 2.3 -1.1
v 0.3 2.2 -1.1
v 0.3 2.3 -1.1
v 0.2 2.3 -1.2
v 0.2 2.5 -1.2
v 0.3 2.3 -1.2
v 0.3 2.5 -1.2
v 0 2.9 -0.3
v 0 3 -0.3
v 0.1 2.9 -0.3
v 0.1 3 -0.3
v 0.4 2.9 -0.3
v 0.4 3 -0.3
v 0.5 2.9 -0.3
v 0.5 3 -0.3
v 0 2.4 -0.4
v 0 2.6 -0.4
v 0.1 2.4 -0.4
v 0.1 2.6 -0.4
v 0.1 3 -0.4
v 0.1 3.1 -0.4
v 0.2 2.8 -0.4
v 0.2 2.9 -0.4
v 0.3 2.8 -0.4
v 0.3 2.9 -0.4
v 0.4 2.4 -0.4
v 0.4 2.6 -0.4
v 0.4 3 -0.4
v 0.4 3.1 -0.4
v 0.5 2.4 -0.4
v 0.5 2.6 -0.4
v 0 2.6 -0.5
v 0 2.7 -0.5
v 0 3.1 -0.5
v 0 3.2 -0.5
v 0.1 2.6 -0.5
v 0.1 2.7 -0.5
v 0.1 2.8 -0.5
v 0.1 2.9 -0.5
v 0.1 3 -0.5
v 0.1 3.1 -0.5
v 0.1 3.2 -0.5
v 0.4 2.6 -0.5
v 0.4 2.7 -0.5
v 0.4 2.8 -0.5
v 0.4 2.9 -0.5
v 0.4 3 -0.5
v 0.4 3.1 -0.5
v 0.4 3.2 -0.5
v 0.5 2.6 -0.5
v 0.5 2.7 -0.5
v 0.5 3.1 -0.5
v 0.5 3.2 -0.5
v 0 2.7 -0.6
v 0 2.9 -0.6
v 0.1 2.7 -0.6
v 0.1 2.9 -0.6
v 0.4 2.7 -0.6
v 0.4 2.9 -0.6
v 0.5 2.7 -0.6
v 0.5 2.9 -0.6
v 0 2 -0.7
v 0 2.1 -0.7
v 0.1 2 -0.7
v 0.1 2.1 -0.7
v 0.1 2.8 -0.7
v 0.1 2.9 -0.7
v 0.4 2 -0.7
v 0.4 2.1 -0.7
v 0.4 2.8 -0.7
v 0.4 2.9 -0.7
v 0.5 2 -0.7
v 0.5 2.1 -0.7
v 0 2.1 -0.8
v 0 2.2 -0.8
v 0.1 2.1 -0.8
v 0.1 2.2 -0.8
v 0.1 2.7 -0.8
v 0.1 2.8 -0.8
v 0.2 2.4 -0.8
v 0.2 2.6 -0.8
v 0.3 2.4 -0.8
v 0.3 2.6 -0.8
v 0.4 2.1 -0.8
v 0.4 2.2 -0.8
v 0.4 2.7 -0.8
v 0.4 2.8 -0.8
v 0.5 2.1 -0.8
v 0.5 2.2 -0.8
v 0 2.2 -0.9
v 0 2.3 -0.9
v 0.1 2.2 -0.9
v 0.1 2.3 -0.9
v 0.1 2.4 -0.9
v 0.4 2.2 -0.9
v 0.4 2.3 -0.9
v 0.4 2.4 -0.9
v 0.5 2.2 -0.9
v 0.5 2.3 -0.9
v 0 2.3 -1
v 0 2.6 -1
v 0.1 2.3 -1
v 0.1 2.4 -1
v 0.1 2.6 -1
v 0.1 2.7 -1
v 0.2 2.5 -1
v 0.2 2.6 -1
v 0.3 2.5 -1
v 0.3 2.6 -1
v 0.4 2.3 -1
v 0.4 2.4 -1
v 0.4 2.6 -1
v 0.4 2.7 -1
v 0.5 2.3 -1
v 0.5 2.6 -1
v 0.2 2.1 -1.1
v 0.2 2.2 -1.1
v 0.3 2.1 -1.1
v 0.3 2.2 -1.1
v 0.2 2.2 -1.2
v 0.2 2.3 -1.2
v 0.2 2.5 -1.2
v 0.2 2.6 -1.2
v 0.3 2.2 -1.2
v 0.3 2.3 -1.2
v 0.3 2.5 -1.2
v 0.3 2.6 -1.2
v 0.2 2.3 -1.3
v 0.2 2.5 -1.3
v 0.3 2.3 -1.3
v 0.3 2.5 -1.3
v 0 2 -0.6
v 0.1 2 -0.6
v 0.4 2 -0.6
v 0.5 2 -0.6
v 0 2 -0.7
v 0.1 2 -0.7
v 0.4 2 -0.7
v 0.5 2 -0.7
v 0 2.1 -0.7
v 0.1 2.1 -0.7
v 0.4 2.1 -0.7
v 0.5 2.1 -0.7
v 0 2.1 -0.8
v 0.1 2.1 -0.8
v 0.4 2.1 -0.8
v 0.5 2.1 -0.8
v 0.2 2.1 -1
v 0.3 2.1 -1
v 0.2 2.1 -1.1
v 0.3 2.1 -1.1
v 0 2.2 -0.8
v 0.1 2.2 -0.8
v 0.4 2.2 -0.8
v 0.5 2.2 -0.8
v 0 2.2 -0.9
v 0.1 2.2 -0.9
v 0.4 2.2 -0.9
v 0.5 2.2 -0.9
v 0.2 2.2 -1.1
v 0.3 2.2 -1.1
v 0.2 2.2 -1.2
v 0.3 2.2 -1.2
v 0.1 2.3 -0.8
v 0.4 2.3 -0.8
v 0 2.3 -0.9
v 0.1 2.3 -0.9
v 0.4 2.3 -0.9
v 0.5 2.3 -0.9
v 0 2.3 -1
v 0.1 2.3 -1
v 0.4 2.3 -1
v 0.5 2.3 -1
v 0.2 2.3 -1.2
v 0.3 2.3 -1.2
v 0.2 2.3 -1.3
v 0.3 2.3 -1.3
v 0 2.4 -0.3
v 0.1 2.4 -0.3
v 0.4 2.4 -0.3
v 0.5 2.4 -0.3
v 0 2.4 -0.4
v 0.1 2.4 -0.4
v 0.4 2.4 -0.4
v 0.5 2.4 -0.4
v 0.1 2.4 -0.7
v 0.4 2.4 -0.7
v 0.1 2.4 -0.8
v 0.4 2.4 -0.8
v 0.1 2.4 -0.9
v 0.4 2.4 -0.9
v 0.1 2.4 -1
v 0.4 2.4 -1
v 0.1 2.5 -0.6
v 0.4 2.5 -0.6
v 0.1 2.5 -0.7
v 0.4 2.5 -0.7
v 0.2 2.5 -1
v 0.3 2.5 -1
v 0.2 2.5 -1.1
v 0.3 2.5 -1.1
v 0.2 2.5 -1.2
v 0.3 2.5 -1.2
v 0 2.6 -0.4
v 0.1 2.6 -0.4
v 0.4 2.6 -0.4
v 0.5 2.6 -0.4
v 0 2.6 -0.5
v 0.1 2.6 -0.5
v 0.4 2.6 -0.5
v 0.5 2.6 -0.5
v 0.1 2.6 -0.6
v 0.4 2.6 -0.6
v 0.2 2.6 -0.8
v 0.3 2.6 -0.8
v 0.2 2.6 -0.9
v 0.3 2.6 -0.9
v 0.2 2.7 -0.2
v 0.3 2.7 -0.2
v 0.1 2.7 -0.3
v 0.2 2.7 -0.3
v 0.3 2.7 -0.3
v 0.4 2.7 -0.3
v 0.1 2.7 -0.4
v 0.4 2.7 -0.4
v 0 2.7 -0.5
v 0.1 2.7 -0.5
v 0.4 2.7 -0.5
v 0.5 2.7 -0.5
v 0 2.7 -0.6
v 0.1 2.7 -0.6
v 0.4 2.7 -0.6
v 0.5 2.7 -0.6
v 0.2 2.8 0
v 0.3 2.8 0
v 0.1 2.8 -0.1
v 0.2 2.8 -0.1
v 0.3 2.8 -0.1
v 0.4 2.8 -0.1
v 0.2 2.8 -0.2
v 0.3 2.8 -0.2
v 0.1 2.8 -0.3
v 0.2 2.8 -0.3
v 0.3 2.8 -0.3
v 0.4 2.8 -0.3
v 0.1 2.8 -0.5
v 0.4 2.8 -0.5
v 0.1 2.8 -0.6
v 0.4 2.8 -0.6
v 0 2.9 -0.2
v 0.1 2.9 -0.2
v 0.4 2.9 -0.2
v 0.5 2.9 -0.2
v 0 2.9 -0.3
v 0.1 2.9 -0.3
v 0.4 2.9 -0.3
v 0.5 2.9 -0.3
v 0.2 2.9 -0.4
v 0.3 2.9 -0.4
v 0.2 2.9 -0.5
v 0.3 2.9 -0.5
v 0 3.1 -0.3
v 0.1 3.1 -0.3
v 0.4 3.1 -0.3
v 0.5 3.1 -0.3
v 0.1 3.1 -0.4
v 0.4 3.1 -0.4
v 0 3.1 -0.5
v 0.1 3.1 -0.5
v 0.4 3.1 -0.5
v 0.5 3.1 -0.5
v 0 2.1 -0.6
v 0.1 2.1 -0.6
v 0.4 2.1 -0.6
v 0.5 2.1 -0.6
v 0 2.1 -0.7
v 0.1 2.1 -0.7
v 0.4 2.1 -0.7
v 0.5 2.1 -0.7
v 0 2.2 -0.7
v 0.1 2.2 -0.7
v 0.4 2.2 -0.7
v 0.5 2.2 -0.7
v 0 2.2 -0.8
v 0.1 2.2 -0.8
v 0.4 2.2 -0.8
v 0.5 2.2 -0.8
v 0.2 2.2 -1
v 0.3 2.2 -1
v 0.2 2.2 -1.1
v 0.3 2.2 -1.1
v 0.2 2.3 -1.1
v 0.3 2.3 -1.1
v 0.2 2.3 -1.2
v 0.3 2.3 -1.2
v 0.2 2.4 -0.8
v 0.3 2.4 -0.8
v 0.2 2.4 -0.9
v 0.3 2.4 -0.9
v 0.2 2.5 -1.2
v 0.3 2.5 -1.2
v 0.2 2.5 -1.3
v 0.3 2.5 -1.3
v 0 2.6 -0.3
v 0.1 2.6 -0.3
v 0.4 2.6 -0.3
v 0.5 2.6 -0.3
v 0 2.6 -0.4
v 0.1 2.6 -0.4
v 0.4 2.6 -0.4
v 0.5 2.6 -0.4
v 0 2.6 -0.8
v 0.1 2.6 -0.8
v 0.4 2.6 -0.8
v 0.5 2.6 -0.8
v 0 2.6 -1
v 0.1 2.6 -1
v 0.2 2.6 -1
v 0.3 2.6 -1
v 0.4 2.6 -1
v 0.5 2.6 -1
v 0.2 2.6 -1.1
v 0.3 2.6 -1.1
v 0.2 2.6 -1.2
v 0.3 2.6 -1.2
v 0.1 2.7 -0.5
v 0.4 2.7 -0.5
v 0.1 2.7 -0.6
v 0.4 2.7 -0.6
v 0.1 2.7 -0.8
v 0.4 2.7 -0.8
v 0.1 2.7 -1
v 0.4 2.7 -1
v 0.2 2.8 -0.4
v 0.3 2.8 -0.4
v 0.2 2.8 -0.5
v 0.3 2.8 -0.5
v 0.1 2.8 -0.7
v 0.4 2.8 -0.7
v 0.1 2.8 -0.8
v 0.4 2.8 -0.8
v 0.2 2.9 0
v 0.3 2.9 0
v 0.2 2.9 -0.1
v 0.3 2.9 -0.1
v 0 2.9 -0.4
v 0.1 2.9 -0.4
v 0.4 2.9 -0.4
v 0.5 2.9 -0.4
v 0.1 2.9 -0.5
v 0.4 2.9 -0.5
v 0 2.9 -0.6
v 0.1 2.9 -0.6
v 0.4 2.9 -0.6
v 0.5 2.9 -0.6
v 0.1 2.9 -0.7
v 0.4 2.9 -0.7
v 0.1 3 -0.1
v 0.4 3 -0.1
v 0 3 -0.2
v 0.1 3 -0.2
v 0.4 3 -0.2
v 0.5 3 -0.2
v 0 3 -0.3
v 0.1 3 -0.3
v 0.4 3 -0.3
v 0.5 3 -0.3
v 0.1 3 -0.4
v 0.4 3 -0.4
v 0.1 3 -0.5
v 0.4 3 -0.5
v 0.1 3.1 -0.2
v 0.4 3.1 -0.2
v 0.1 3.1 -0.3
v 0.4 3.1 -0.3
v 0.1 3.1 -0.4
v 0.4 3.1 -0.4
v 0 3.2 -0.3
v 0.1 3.2 -0.3
v 0.4 3.2 -0.3
v 0.5 3.2 -0.3
v 0 3.2 -0.5
v 0.1 3.2 -0.5
v 0.4 3.2 -0.5
v 0.5 3.2 -0.5

# faces
f 3/1/1 2/1/1 1/1/1
f 4/1/1 2/1/1 3/1/1
f 6/1/1 5/1/1 4/1/1
f 7/1/1 5/1/1 6/1/1
f 9/2/1 8/2/1 7/2/1
f 13/1/1 12/1/1 11/1/1
f 14/1/1 12/1/1 13/1/1
f 16/2/1 9/2/1 7/2/1
f 16/2/1 10/2/1 9/2/1
f 17/2/1 10/2/1 16/2/1
f 18/2/1 15/2/1 14/2/1
f 22/2/1 18/2/1 14/2/1
f 22/2/1 19/2/1 18/2/1
f 23/2/1 19/2/1 22/2/1
f 24/3/1 21/3/1 20/3/1
f 25/3/1 21/3/1 24/3/1
f 28/1/1 27/1/1 26/1/1
f 29/1/1 27/1/1 28/1/1
f 33/2/1 31/2/1 30/2/1
f 35/2/1 33/2/1 32/2/1
f 36/2/1 31/2/1 33/2/1
f 36/2/1 33/2/1 35/2/1
f 40/2/1 35/2/1 34/2/1
f 40/2/1 36/2/1 35/2/1
f 40/2/1 37/2/1 36/2/1
f 41/2/1 37/2/1 40/2/1
f 42/2/1 37/2/1 41/2/1
f 43/2/1 37/2/1 42/2/1
f 45/2/1 39/2/1 38/2/1
f 46/2/1 42/2/1 41/2/1
f 47/2/1 42/2/1 46/2/1
f 48/2/1 45/2/1 44/2/1
f 49/2/1 39/2/1 45/2/1
f 49/2/1 45/2/1 48/2/1
f 50/2/1 39/2/1 49/2/1
f 52/2/1 46/2/1 41/2/1
f 53/2/1 46/2/1 52/2/1
f 54/2/1 48/2/1 44/2/1
f 55/2/1 48/2/1 54/2/1
f 56/2/1 51/2/1 50/2/1
f 56/2/1 50/2/1 49/2/1
f 57/2/1 51/2/1 56/2/1
f 58/2/1 51/2/1 57/2/1
f 59/2/1 56/2/1 55/2/1
f 59/2/1 57/2/1 56/2/1
f 60/2/1 57/2/1 59/2/1
f 61/2/1 57/2/1 60/2/1
f 64/1/1 63/1/1 62/1/1
f 65/1/1 63/1/1 64/1/1
f 67/1/1 66/1/1 65/1/1
f 68/1/1 66/1/1 67/1/1
f 72/1/1 69/1/1 68/1/1
f 73/1/1 69/1/1 72/1/1
f 74/2/1 71/2/1 70/2/1
f 75/1/1 72/1/1 71/1/1
f 75/2/1 71/2/1 74/2/1
f 76/1/1 72/1/1 75/1/1
f 81/2/1 78/2/1 77/2/1
f 82/2/1 78/2/1 81/2/1
f 83/1/1 80/1/1 79/1/1
f 84/1/1 80/1/1 83/1/1
f 87/2/1 86/2/1 85/2/1
f 88/2/1 86/2/1 87/2/1
f 91/2/1 90/2/1 89/2/1
f 92/2/1 90/2/1 91/2/1
f 95/1/1 94/1/1 93/1/1
f 96/1/1 94/1/1 95/1/1
f 98/1/1 97/1/1 96/1/1
f 99/1/1 97/1/1 98/1/1
f 101/2/1 100/2/1 99/2/1
f 102/2/1 100/2/1 101/2/1
f 106/2/1 103/2/1 102/2/1
f 107/2/1 103/2/1 106/2/1
f 108/1/1 105/1/1 104/1/1
f 109/1/1 105/1/1 108/1/1
f 111/2/1 110/2/1 109/2/1
f 112/2/1 110/2/1 111/2/1
f 114/2/1 113/2/1 112/2/1
f 115/2/1 113/2/1 114/2/1
f 119/1/1 117/1/1 116/1/1
f 119/1/1 118/1/1 117/1/1
f 120/1/1 118/1/1 119/1/1
f 121/1/2 122/1/2 123/1/2
f 123/1/2 122/1/2 124/1/2
f 124/1/2 125/1/2 126/1/2
f 126/1/2 125/1/2 127/1/2
f 127/2/2 128/2/2 129/2/2
f 129/2/2 128/2/2 130/2/2
f 130/2/2 131/2/2 134/2/2
f 134/2/2 131/2/2 135/2/2
f 132/1/2 133/1/2 136/1/2
f 136/1/2 133/1/2 137/1/2
f 137/2/2 138/2/2 139/2/2
f 139/2/2 138/2/2 140/2/2
f 140/2/2 141/2/2 142/2/2
f 142/2/2 141/2/2 143/2/2
f 144/1/2 145/1/2 147/1/2
f 145/1/2 146/1/2 147/1/2
f 147/1/2 146/1/2 148/1/2
f 149/2/2 150/2/2 151/2/2
f 151/2/2 150/2/2 152/2/2
f 153/2/2 154/2/2 155/2/2
f 155/2/2 154/2/2 156/2/2
f 157/1/2 158/1/2 159/1/2
f 159/1/2 158/1/2 160/1/2
f 160/1/2 161/1/2 162/1/2
f 162/1/2 161/1/2 163/1/2
f 163/1/2 164/1/2 167/1/2
f 167/1/2 164/1/2 168/1/2
f 165/2/2 166/2/2 169/2/2
f 166/1/2 167/1/2 170/1/2
f 169/2/2 166/2/2 170/2/2
f 170/1/2 167/1/2 171/1/2
f 172/2/2 173/2/2 176/2/2
f 176/2/2 173/2/2 177/2/2
f 174/1/2 175/1/2 178/1/2
f 178/1/2 175/1/2 179/1/2
f 180/2/2 181/2/2 183/2/2
f 182/2/2 183/2/2 185/2/2
f 183/2/2 181/2/2 186/2/2
f 185/2/2 183/2/2 186/2/2
f 184/2/2 185/2/2 190/2/2
f 185/2/2 186/2/2 190/2/2
f 186/2/2 187/2/2 190/2/2
f 190/2/2 187/2/2 191/2/2
f 191/2/2 187/2/2 192/2/2
f 192/2/2 187/2/2 193/2/2
f 188/2/2 189/2/2 195/2/2
f 191/2/2 192/2/2 196/2/2
f 196/2/2 192/2/2 197/2/2
f 194/2/2 195/2/2 198/2/2
f 195/2/2 189/2/2 199/2/2
f 198/2/2 195/2/2 199/2/2
f 199/2/2 189/2/2 200/2/2
f 191/2/2 196/2/2 202/2/2
f 202/2/2 196/2/2 203/2/2
f 194/2/2 198/2/2 204/2/2
f 204/2/2 198/2/2 205/2/2
f 200/2/2 201/2/2 206/2/2
f 199/2/2 200/2/2 206/2/2
f 206/2/2 201/2/2 207/2/2
f 207/2/2 201/2/2 208/2/2
f 205/2/2 206/2/2 209/2/2
f 206/2/2 207/2/2 209/2/2
f 209/2/2 207/2/2 210/2/2
f 210/2/2 207/2/2 211/2/2
f 212/1/2 213/1/2 214/1/2
f 214/1/2 213/1/2 215/1/2
f 215/1/2 216/1/2 217/1/2
f 217/1/2 216/1/2 218/1/2
f 218/2/2 219/2/2 220/2/2
f 222/1/2 223/1/2 224/1/2
f 224/1/2 223/1/2 225/1/2
f 218/2/2 220/2/2 227/2/2
f 220/2/2 221/2/2 227/2/2
f 227/2/2 221/2/2 228/2/2
f 225/2/2 226/2/2 229/2/2
f 225/2/2 229/2/2 233/2/2
f 229/2/2 230/2/2 233/2/2
f 233/2/2 230/2/2 234/2/2
f 231/3/2 232/3/2 235/3/2
f 235/3/2 232/3/2 236/3/2
f 237/1/2 238/1/2 239/1/2
f 239/1/2 238/1/2 240/1/2
f 243/1/3 242/1/3 241/1/3
f 244/1/3 242/1/3 243/1/3
f 247/2/3 246/2/3 245/2/3
f 248/2/3 246/2/3 247/2/3
f 250/2/3 246/2/3 248/2/3
f 251/2/3 250/2/3 249/2/3
f 252/2/3 246/2/3 250/2/3
f 252/2/3 250/2/3 251/2/3
f 255/3/3 254/3/3 253/3/3
f 256/3/3 254/3/3 255/3/3
f 260/2/3 259/2/3 258/2/3
f 261/2/3 259/2/3 260/2/3
f 263/2/3 257/2/3 256/2/3
f 264/2/3 257/2/3 263/2/3
f 265/3/3 263/3/3 262/3/3
f 266/3/3 263/3/3 265/3/3
f 271/1/3 268/1/3 267/1/3
f 272/1/3 268/1/3 271/1/3
f 275/1/3 270/1/3 269/1/3
f 276/1/3 270/1/3 275/1/3
f 277/2/3 274/2/3 273/2/3
f 278/2/3 274/2/3 277/2/3
f 283/2/3 280/2/3 279/2/3
f 284/2/3 280/2/3 283/2/3
f 287/1/3 282/1/3 281/1/3
f 288/1/3 282/1/3 287/1/3
f 289/1/3 286/1/3 285/1/3
f 290/1/3 286/1/3 289/1/3
f 293/2/3 292/2/3 291/2/3
f 294/2/3 292/2/3 293/2/3
f 295/2/3 292/2/3 294/2/3
f 299/2/3 297/2/3 296/2/3
f 299/2/3 298/2/3 297/2/3
f 300/2/3 298/2/3 299/2/3
f 305/2/3 304/2/3 303/2/3
f 306/2/3 304/2/3 305/2/3
f 307/2/3 302/2/3 301/2/3
f 308/2/3 302/2/3 307/2/3
f 311/1/3 310/1/3 309/1/3
f 312/1/3 310/1/3 311/1/3
f 319/2/3 314/2/3 313/2/3
f 320/2/3 314/2/3 319/2/3
f 321/2/3 316/2/3 315/2/3
f 322/2/3 316/2/3 321/2/3
f 323/1/3 318/1/3 317/1/3
f 324/1/3 318/1/3 323/1/3
f 327/1/3 326/1/3 325/1/3
f 328/1/3 326/1/3 327/1/3
f 333/2/3 330/2/3 329/2/3
f 334/2/3 330/2/3 333/2/3
f 335/1/3 332/1/3 331/1/3
f 336/1/3 332/1/3 335/1/3
f 339/2/3 338/2/3 337/2/3
f 340/2/3 338/2/3 339/2/3
f 341/2/3 338/2/3 340/2/3
f 342/2/3 338/2/3 341/2/3
f 344/2/3 341/2/3 340/2/3
f 345/2/3 341/2/3 344/2/3
f 347/2/3 344/2/3 343/2/3
f 347/2/3 346/2/3 345/2/3
f 347/2/3 345/2/3 344/2/3
f 348/2/3 346/2/3 347/2/3
f 351/2/3 350/2/3 349/2/3
f 352/2/3 350/2/3 351/2/3
f 355/1/3 354/1/3 353/1/3
f 356/1/3 354/1/3 355/1/3
f 359/1/3 358/1/3 357/1/3
f 360/1/3 358/1/3 359/1/3
f 363/1/3 362/1/3 361/1/3
f 364/1/3 362/1/3 363/1/3
f 365/3/4 366/3/4 367/3/4
f 367/3/4 366/3/4 368/3/4
f 369/3/4 370/3/4 371/3/4
f 371/3/4 370/3/4 372/3/4
f 373/1/4 374/1/4 375/1/4
f 375/1/4 374/1/4 376/1/4
f 379/2/4 380/2/4 381/2/4
f 381/2/4 380/2/4 382/2/4
f 377/2/4 378/2/4 385/2/4
f 385/2/4 378/2/4 386/2/4
f 383/1/4 384/1/4 387/1/4
f 387/1/4 384/1/4 388/1/4
f 389/2/4 390/2/4 393/2/4
f 393/2/4 390/2/4 394/2/4
f 391/1/4 392/1/4 398/1/4
f 398/1/4 392/1/4 399/1/4
f 394/2/4 395/2/4 401/2/4
f 401/2/4 395/2/4 402/2/4
f 396/2/4 397/2/4 403/2/4
f 403/2/4 397/2/4 404/2/4
f 400/2/4 401/2/4 407/2/4
f 407/2/4 401/2/4 408/2/4
f 405/1/4 406/1/4 409/1/4
f 409/1/4 406/1/4 410/1/4
f 411/2/4 412/2/4 413/2/4
f 413/2/4 412/2/4 414/2/4
f 415/2/4 416/2/4 417/2/4
f 417/2/4 416/2/4 418/2/4
f 419/1/4 420/1/4 421/1/4
f 421/1/4 420/1/4 422/1/4
f 423/2/4 424/2/4 427/2/4
f 427/2/4 424/2/4 428/2/4
f 425/1/4 426/1/4 429/1/4
f 429/1/4 426/1/4 430/1/4
f 431/1/4 432/1/4 433/1/4
f 433/1/4 432/1/4 434/1/4
f 437/2/4 438/2/4 439/2/4
f 439/2/4 438/2/4 440/2/4
f 435/2/4 436/2/4 443/2/4
f 443/2/4 436/2/4 444/2/4
f 441/1/4 442/1/4 445/1/4
f 445/1/4 442/1/4 446/1/4
f 447/2/4 448/2/4 449/2/4
f 449/2/4 448/2/4 450/2/4
f 450/2/4 451/2/4 453/2/4
f 453/2/4 451/2/4 454/2/4
f 452/2/4 453/2/4 455/2/4
f 455/2/4 453/2/4 456/2/4
f 457/2/4 458/2/4 459/2/4
f 459/2/4 458/2/4 460/2/4
f 460/2/4 458/2/4 461/2/4
f 461/2/4 462/2/4 463/2/4
f 460/2/4 461/2/4 463/2/4
f 463/2/4 462/2/4 464/2/4
f 460/2/4 463/2/4 465/2/4
f 464/2/4 462/2/4 466/2/4
f 460/2/4 465/2/4 468/2/4
f 465/2/4 466/2/4 468/2/4
f 466/2/4 462/2/4 469/2/4
f 468/2/4 466/2/4 469/2/4
f 469/2/4 462/2/4 470/2/4
f 467/2/4 468/2/4 471/2/4
f 468/2/4 469/2/4 471/2/4
f 471/2/4 469/2/4 472/2/4
f 473/1/4 474/1/4 475/1/4
f 475/1/4 474/1/4 476/1/4
f 477/1/4 478/1/4 481/1/4
f 481/1/4 478/1/4 482/1/4
f 479/1/4 480/1/4 483/1/4
f 483/1/4 480/1/4 484/1/4
f 485/1/4 486/1/4 487/1/4
f 487/1/4 486/1/4 488/1/4
f 493/1/5 490/1/5 489/1/5
f 494/1/5 490/1/5 493/1/5
f 495/1/5 492/1/5 491/1/5
f 496/1/5 492/1/5 495/1/5
f 501/1/5 498/1/5 497/1/5
f 502/1/5 498/1/5 501/1/5
f 503/1/5 500/1/5 499/1/5
f 504/1/5 500/1/5 503/1/5
f 507/1/5 506/1/5 505/1/5
f 508/1/5 506/1/5 507/1/5
f 513/2/5 510/2/5 509/2/5
f 514/2/5 510/2/5 513/2/5
f 515/2/5 512/2/5 511/2/5
f 516/2/5 512/2/5 515/2/5
f 519/1/5 518/1/5 517/1/5
f 520/1/5 518/1/5 519/1/5
f 524/2/5 522/2/5 521/2/5
f 525/2/5 522/2/5 524/2/5
f 527/2/5 524/2/5 523/2/5
f 528/2/5 524/2/5 527/2/5
f 529/2/5 526/2/5 525/2/5
f 530/2/5 526/2/5 529/2/5
f 533/1/5 532/1/5 531/1/5
f 534/1/5 532/1/5 533/1/5
f 539/1/5 536/1/5 535/1/5
f 540/1/5 536/1/5 539/1/5
f 541/1/5 538/1/5 537/1/5
f 542/1/5 538/1/5 541/1/5
f 545/2/5 544/2/5 543/2/5
f 546/2/5 544/2/5 545/2/5
f 549/2/5 548/2/5 547/2/5
f 550/2/5 548/2/5 549/2/5
f 553/2/5 552/2/5 551/2/5
f 554/2/5 552/2/5 553/2/5
f 557/2/5 556/2/5 555/2/5
f 558/2/5 556/2/5 557/2/5
f 559/1/5 558/1/5 557/1/5
f 560/1/5 558/1/5 559/1/5
f 565/2/5 562/2/5 561/2/5
f 566/2/5 562/2/5 565/2/5
f 567/2/5 564/2/5 563/2/5
f 568/2/5 564/2/5 567/2/5
f 569/2/5 567/2/5 566/2/5
f 570/2/5 567/2/5 569/2/5
f 573/2/5 572/2/5 571/2/5
f 574/2/5 572/2/5 573/2/5
f 578/2/5 576/2/5 575/2/5
f 579/2/5 576/2/5 578/2/5
f 581/2/5 578/2/5 577/2/5
f 581/2/5 580/2/5 579/2/5
f 581/2/5 579/2/5 578/2/5
f 582/2/5 580/2/5 581/2/5
f 584/2/5 582/2/5 581/2/5
f 585/2/5 582/2/5 584/2/5
f 587/2/5 584/2/5 583/2/5
f 588/2/5 584/2/5 587/2/5
f 589/2/5 586/2/5 585/2/5
f 590/2/5 586/2/5 589/2/5
f 594/1/5 592/1/5 591/1/5
f 595/1/5 592/1/5 594/1/5
f 597/2/5 594/2/5 593/2/5
f 597/2/5 596/2/5 595/2/5
f 597/2/5 595/2/5 594/2/5
f 598/2/5 596/2/5 597/2/5
f 599/2/5 597/2/5 593/2/5
f 600/2/5 597/2/5 599/2/5
f 601/2/5 596/2/5 598/2/5
f 602/2/5 596/2/5 601/2/5
f 605/2/5 604/2/5 603/2/5
f 606/2/5 604/2/5 605/2/5
f 611/3/5 608/3/5 607/3/5
f 612/3/5 608/3/5 611/3/5
f 613/3/5 610/3/5 609/3/5
f 614/3/5 610/3/5 613/3/5
f 617/2/5 616/2/5 615/2/5
f 618/2/5 616/2/5 617/2/5
f 623/1/5 620/1/5 619/1/5
f 624/1/5 622/1/5 621/1/5
f 625/1/5 623/1/5 619/1/5
f 626/1/5 623/1/5 625/1/5
f 627/1/5 622/1/5 624/1/5
f 628/1/5 622/1/5 627/1/5
f 629/1/6 630/1/6 633/1/6
f 633/1/6 630/1/6 634/1/6
f 631/1/6 632/1/6 635/1/6
f 635/1/6 632/1/6 636/1/6
f 637/1/6 638/1/6 641/1/6
f 641/1/6 638/1/6 642/1/6
f 639/1/6 640/1/6 643/1/6
f 643/1/6 640/1/6 644/1/6
f 645/1/6 646/1/6 647/1/6
f 647/1/6 646/1/6 648/1/6
f 649/1/6 650/1/6 651/1/6
f 651/1/6 650/1/6 652/1/6
f 653/2/6 654/2/6 655/2/6
f 655/2/6 654/2/6 656/2/6
f 657/1/6 658/1/6 659/1/6
f 659/1/6 658/1/6 660/1/6
f 661/1/6 662/1/6 665/1/6
f 665/1/6 662/1/6 666/1/6
f 663/1/6 664/1/6 667/1/6
f 667/1/6 664/1/6 668/1/6
f 669/2/6 670/2/6 673/2/6
f 673/2/6 670/2/6 674/2/6
f 671/2/6 672/2/6 677/2/6
f 677/2/6 672/2/6 678/2/6
f 675/2/6 676/2/6 679/2/6
f 679/2/6 676/2/6 680/2/6
f 679/1/6 680/1/6 681/1/6
f 681/1/6 680/1/6 682/1/6
f 683/2/6 684/2/6 685/2/6
f 685/2/6 684/2/6 686/2/6
f 687/2/6 688/2/6 689/2/6
f 689/2/6 688/2/6 690/2/6
f 691/2/6 692/2/6 693/2/6
f 693/2/6 692/2/6 694/2/6
f 695/2/6 696/2/6 697/2/6
f 697/2/6 696/2/6 698/2/6
f 699/1/6 700/1/6 701/1/6
f 701/1/6 700/1/6 702/1/6
f 703/2/6 704/2/6 707/2/6
f 705/2/6 706/2/6 708/2/6
f 703/2/6 707/2/6 709/2/6
f 707/2/6 708/2/6 709/2/6
f 709/2/6 708/2/6 710/2/6
f 708/2/6 706/2/6 711/2/6
f 710/2/6 708/2/6 711/2/6
f 711/2/6 706/2/6 712/2/6
f 710/2/6 711/2/6 713/2/6
f 713/2/6 711/2/6 714/2/6
f 715/2/6 716/2/6 718/2/6
f 718/2/6 716/2/6 719/2/6
f 717/3/6 718/3/6 721/3/6
f 721/3/6 718/3/6 722/3/6
f 719/3/6 720/3/6 723/3/6
f 723/3/6 720/3/6 724/3/6
f 725/2/6 726/2/6 727/2/6
f 727/2/6 726/2/6 728/2/6
f 729/2/6 730/2/6 731/2/6
f 731/2/6 730/2/6 732/2/6
f 731/2/6 732/2/6 733/2/6
f 733/2/6 732/2/6 734/2/6
f 735/1/6 736/1/6 739/1/6
f 739/1/6 736/1/6 740/1/6
f 737/1/6 738/1/6 741/1/6
f 741/1/6 738/1/6 742/1/6
