# MagicaVoxel @ Ephtracy

# group
o 

# material
mtllib rat_roll_4.mtl
usemtl palette

# normals
vn -1 0 0
vn 1 0 0
vn 0 0 1
vn 0 0 -1
vn 0 -1 0
vn 0 1 0

# texcoords
vt 0.0292969 0.5
vt 0.982422 0.5
vt 0.994141 0.5

# verts
v 0 2 -0.7
v 0 2 -0.8
v 0 2.1 -0.6
v 0 2.1 -0.7
v 0 2.1 -0.8
v 0 2.1 -0.9
v 0 2.2 -0.6
v 0 2.2 -0.7
v 0 2.2 -0.9
v 0 2.2 -1
v 0 2.3 -0.5
v 0 2.3 -0.6
v 0 2.4 -0.2
v 0 2.4 -0.3
v 0 2.4 -0.4
v 0 2.4 -0.5
v 0 2.4 -0.6
v 0 2.5 0
v 0 2.5 -0.1
v 0 2.5 -0.2
v 0 2.5 -0.3
v 0 2.5 -0.4
v 0 2.5 -0.5
v 0 2.5 -0.8
v 0 2.5 -1
v 0 2.6 -0.5
v 0 2.6 -0.6
v 0 2.7 0
v 0 2.7 -0.1
v 0 2.8 -0.4
v 0 2.8 -0.6
v 0.1 2.3 -0.2
v 0.1 2.3 -0.4
v 0.1 2.3 -0.7
v 0.1 2.3 -0.8
v 0.1 2.4 -0.1
v 0.1 2.4 -0.2
v 0.1 2.4 -0.3
v 0.1 2.4 -0.4
v 0.1 2.4 -0.6
v 0.1 2.4 -0.7
v 0.1 2.5 -0.1
v 0.1 2.5 -0.2
v 0.1 2.5 -0.3
v 0.1 2.5 -0.4
v 0.1 2.5 -0.5
v 0.1 2.5 -0.6
v 0.1 2.5 -0.8
v 0.1 2.5 -1
v 0.1 2.6 -0.1
v 0.1 2.6 -0.2
v 0.1 2.6 -0.5
v 0.1 2.6 -0.6
v 0.1 2.6 -0.8
v 0.1 2.6 -1
v 0.1 2.7 -0.2
v 0.1 2.7 -0.4
v 0.1 2.7 -0.7
v 0.1 2.7 -0.8
v 0.1 2.8 -0.6
v 0.1 2.8 -0.7
v 0.2 2 -0.9
v 0.2 2 -1.1
v 0.2 2.1 -0.9
v 0.2 2.1 -1.1
v 0.2 2.1 -1.2
v 0.2 2.2 -0.3
v 0.2 2.2 -0.4
v 0.2 2.3 -0.3
v 0.2 2.3 -0.4
v 0.2 2.3 -1
v 0.2 2.3 -1.1
v 0.2 2.3 -1.2
v 0.2 2.4 -0.4
v 0.2 2.4 -0.5
v 0.2 2.4 -1
v 0.2 2.4 -1.1
v 0.2 2.5 -0.4
v 0.2 2.5 -0.5
v 0.2 2.5 -1
v 0.2 2.5 -1.1
v 0.3 2.5 -0.7
v 0.3 2.5 -0.8
v 0.3 2.6 -0.7
v 0.3 2.6 -0.8
v 0.4 2 -0.7
v 0.4 2 -0.8
v 0.4 2.1 -0.6
v 0.4 2.1 -0.7
v 0.4 2.1 -0.8
v 0.4 2.1 -0.9
v 0.4 2.2 -0.6
v 0.4 2.2 -0.7
v 0.4 2.2 -0.8
v 0.4 2.2 -0.9
v 0.4 2.2 -1
v 0.4 2.3 -0.5
v 0.4 2.3 -0.6
v 0.4 2.3 -0.9
v 0.4 2.3 -1
v 0.4 2.4 -0.4
v 0.4 2.4 -0.5
v 0.4 2.4 -0.6
v 0.4 2.5 0
v 0.4 2.5 -0.1
v 0.4 2.5 -0.4
v 0.4 2.5 -0.5
v 0.4 2.6 -0.1
v 0.4 2.6 -0.5
v 0.4 2.6 -0.6
v 0.4 2.7 0
v 0.4 2.7 -0.1
v 0.4 2.7 -0.5
v 0.4 2.7 -0.6
v 0.1 2 -0.7
v 0.1 2 -0.8
v 0.1 2.1 -0.6
v 0.1 2.1 -0.7
v 0.1 2.1 -0.8
v 0.1 2.1 -0.9
v 0.1 2.2 -0.6
v 0.1 2.2 -0.7
v 0.1 2.2 -0.8
v 0.1 2.2 -0.9
v 0.1 2.2 -1
v 0.1 2.3 -0.5
v 0.1 2.3 -0.6
v 0.1 2.3 -0.9
v 0.1 2.3 -1
v 0.1 2.4 -0.4
v 0.1 2.4 -0.5
v 0.1 2.4 -0.6
v 0.1 2.5 0
v 0.1 2.5 -0.1
v 0.1 2.5 -0.4
v 0.1 2.5 -0.5
v 0.1 2.6 -0.1
v 0.1 2.6 -0.5
v 0.1 2.6 -0.6
v 0.1 2.7 0
v 0.1 2.7 -0.1
v 0.1 2.7 -0.5
v 0.1 2.7 -0.6
v 0.2 2.5 -0.7
v 0.2 2.5 -0.8
v 0.2 2.6 -0.7
v 0.2 2.6 -0.8
v 0.3 2 -0.9
v 0.3 2 -1.1
v 0.3 2.1 -0.9
v 0.3 2.1 -1.1
v 0.3 2.1 -1.2
v 0.3 2.2 -0.3
v 0.3 2.2 -0.4
v 0.3 2.3 -0.3
v 0.3 2.3 -0.4
v 0.3 2.3 -1
v 0.3 2.3 -1.1
v 0.3 2.3 -1.2
v 0.3 2.4 -0.4
v 0.3 2.4 -0.5
v 0.3 2.4 -1
v 0.3 2.4 -1.1
v 0.3 2.5 -0.4
v 0.3 2.5 -0.5
v 0.3 2.5 -1
v 0.3 2.5 -1.1
v 0.4 2.3 -0.2
v 0.4 2.3 -0.4
v 0.4 2.3 -0.7
v 0.4 2.3 -0.8
v 0.4 2.4 -0.1
v 0.4 2.4 -0.2
v 0.4 2.4 -0.3
v 0.4 2.4 -0.4
v 0.4 2.4 -0.6
v 0.4 2.4 -0.7
v 0.4 2.5 -0.1
v 0.4 2.5 -0.2
v 0.4 2.5 -0.3
v 0.4 2.5 -0.4
v 0.4 2.5 -0.5
v 0.4 2.5 -0.6
v 0.4 2.5 -0.8
v 0.4 2.5 -1
v 0.4 2.6 -0.1
v 0.4 2.6 -0.2
v 0.4 2.6 -0.5
v 0.4 2.6 -0.6
v 0.4 2.6 -0.8
v 0.4 2.6 -1
v 0.4 2.7 -0.2
v 0.4 2.7 -0.4
v 0.4 2.7 -0.7
v 0.4 2.7 -0.8
v 0.4 2.8 -0.6
v 0.4 2.8 -0.7
v 0.5 2 -0.7
v 0.5 2 -0.8
v 0.5 2.1 -0.6
v 0.5 2.1 -0.7
v 0.5 2.1 -0.8
v 0.5 2.1 -0.9
v 0.5 2.2 -0.6
v 0.5 2.2 -0.7
v 0.5 2.2 -0.9
v 0.5 2.2 -1
v 0.5 2.3 -0.5
v 0.5 2.3 -0.6
v 0.5 2.4 -0.2
v 0.5 2.4 -0.3
v 0.5 2.4 -0.4
v 0.5 2.4 -0.5
v 0.5 2.4 -0.6
v 0.5 2.5 0
v 0.5 2.5 -0.1
v 0.5 2.5 -0.2
v 0.5 2.5 -0.3
v 0.5 2.5 -0.4
v 0.5 2.5 -0.5
v 0.5 2.5 -0.8
v 0.5 2.5 -1
v 0.5 2.6 -0.5
v 0.5 2.6 -0.6
v 0.5 2.7 0
v 0.5 2.7 -0.1
v 0.5 2.8 -0.4
v 0.5 2.8 -0.6
v 0 2.5 0
v 0 2.7 0
v 0.1 2.5 0
v 0.1 2.7 0
v 0.4 2.5 0
v 0.4 2.7 0
v 0.5 2.5 0
v 0.5 2.7 0
v 0.1 2.4 -0.1
v 0.1 2.5 -0.1
v 0.1 2.6 -0.1
v 0.4 2.4 -0.1
v 0.4 2.5 -0.1
v 0.4 2.6 -0.1
v 0 2.4 -0.2
v 0 2.5 -0.2
v 0.1 2.3 -0.2
v 0.1 2.4 -0.2
v 0.1 2.5 -0.2
v 0.1 2.6 -0.2
v 0.1 2.7 -0.2
v 0.4 2.3 -0.2
v 0.4 2.4 -0.2
v 0.4 2.5 -0.2
v 0.4 2.6 -0.2
v 0.4 2.7 -0.2
v 0.5 2.4 -0.2
v 0.5 2.5 -0.2
v 0.2 2.2 -0.3
v 0.2 2.3 -0.3
v 0.3 2.2 -0.3
v 0.3 2.3 -0.3
v 0 2.4 -0.4
v 0 2.5 -0.4
v 0 2.8 -0.4
v 0.1 2.4 -0.4
v 0.1 2.5 -0.4
v 0.1 2.7 -0.4
v 0.4 2.4 -0.4
v 0.4 2.5 -0.4
v 0.4 2.7 -0.4
v 0.5 2.4 -0.4
v 0.5 2.5 -0.4
v 0.5 2.8 -0.4
v 0 2.3 -0.5
v 0 2.4 -0.5
v 0.1 2.3 -0.5
v 0.1 2.4 -0.5
v 0.4 2.3 -0.5
v 0.4 2.4 -0.5
v 0.5 2.3 -0.5
v 0.5 2.4 -0.5
v 0 2.1 -0.6
v 0 2.2 -0.6
v 0.1 2.1 -0.6
v 0.1 2.2 -0.6
v 0.1 2.4 -0.6
v 0.1 2.5 -0.6
v 0.1 2.6 -0.6
v 0.1 2.7 -0.6
v 0.4 2.1 -0.6
v 0.4 2.2 -0.6
v 0.4 2.4 -0.6
v 0.4 2.5 -0.6
v 0.4 2.6 -0.6
v 0.4 2.7 -0.6
v 0.5 2.1 -0.6
v 0.5 2.2 -0.6
v 0 2 -0.7
v 0 2.1 -0.7
v 0.1 2 -0.7
v 0.1 2.1 -0.7
v 0.1 2.3 -0.7
v 0.1 2.4 -0.7
v 0.4 2 -0.7
v 0.4 2.1 -0.7
v 0.4 2.3 -0.7
v 0.4 2.4 -0.7
v 0.5 2 -0.7
v 0.5 2.1 -0.7
v 0 2.1 -0.8
v 0 2.5 -0.8
v 0.1 2.1 -0.8
v 0.1 2.2 -0.8
v 0.1 2.3 -0.8
v 0.1 2.5 -0.8
v 0.2 2.5 -0.8
v 0.2 2.6 -0.8
v 0.3 2.5 -0.8
v 0.3 2.6 -0.8
v 0.4 2.1 -0.8
v 0.4 2.2 -0.8
v 0.4 2.3 -0.8
v 0.4 2.5 -0.8
v 0.5 2.1 -0.8
v 0.5 2.5 -0.8
v 0.2 2 -0.9
v 0.2 2.1 -0.9
v 0.3 2 -0.9
v 0.3 2.1 -0.9
v 0.2 2.1 -1.1
v 0.2 2.3 -1.1
v 0.3 2.1 -1.1
v 0.3 2.3 -1.1
v 0 2.5 -0.1
v 0 2.7 -0.1
v 0.1 2.5 -0.1
v 0.1 2.6 -0.1
v 0.1 2.7 -0.1
v 0.4 2.5 -0.1
v 0.4 2.6 -0.1
v 0.4 2.7 -0.1
v 0.5 2.5 -0.1
v 0.5 2.7 -0.1
v 0 2.4 -0.3
v 0 2.5 -0.3
v 0.1 2.4 -0.3
v 0.1 2.5 -0.3
v 0.4 2.4 -0.3
v 0.4 2.5 -0.3
v 0.5 2.4 -0.3
v 0.5 2.5 -0.3
v 0.1 2.3 -0.4
v 0.1 2.4 -0.4
v 0.1 2.5 -0.4
v 0.2 2.2 -0.4
v 0.2 2.3 -0.4
v 0.2 2.4 -0.4
v 0.2 2.5 -0.4
v 0.3 2.2 -0.4
v 0.3 2.3 -0.4
v 0.3 2.4 -0.4
v 0.3 2.5 -0.4
v 0.4 2.3 -0.4
v 0.4 2.4 -0.4
v 0.4 2.5 -0.4
v 0 2.4 -0.5
v 0 2.5 -0.5
v 0 2.6 -0.5
v 0.1 2.4 -0.5
v 0.1 2.5 -0.5
v 0.1 2.6 -0.5
v 0.1 2.7 -0.5
v 0.2 2.4 -0.5
v 0.2 2.5 -0.5
v 0.3 2.4 -0.5
v 0.3 2.5 -0.5
v 0.4 2.4 -0.5
v 0.4 2.5 -0.5
v 0.4 2.6 -0.5
v 0.4 2.7 -0.5
v 0.5 2.4 -0.5
v 0.5 2.5 -0.5
v 0.5 2.6 -0.5
v 0 2.3 -0.6
v 0 2.4 -0.6
v 0 2.6 -0.6
v 0 2.8 -0.6
v 0.1 2.3 -0.6
v 0.1 2.4 -0.6
v 0.1 2.6 -0.6
v 0.1 2.8 -0.6
v 0.4 2.3 -0.6
v 0.4 2.4 -0.6
v 0.4 2.6 -0.6
v 0.4 2.8 -0.6
v 0.5 2.3 -0.6
v 0.5 2.4 -0.6
v 0.5 2.6 -0.6
v 0.5 2.8 -0.6
v 0 2.1 -0.7
v 0 2.2 -0.7
v 0.1 2.1 -0.7
v 0.1 2.2 -0.7
v 0.1 2.7 -0.7
v 0.1 2.8 -0.7
v 0.2 2.5 -0.7
v 0.2 2.6 -0.7
v 0.3 2.5 -0.7
v 0.3 2.6 -0.7
v 0.4 2.1 -0.7
v 0.4 2.2 -0.7
v 0.4 2.7 -0.7
v 0.4 2.8 -0.7
v 0.5 2.1 -0.7
v 0.5 2.2 -0.7
v 0 2 -0.8
v 0 2.1 -0.8
v 0.1 2 -0.8
v 0.1 2.1 -0.8
v 0.1 2.6 -0.8
v 0.1 2.7 -0.8
v 0.4 2 -0.8
v 0.4 2.1 -0.8
v 0.4 2.6 -0.8
v 0.4 2.7 -0.8
v 0.5 2 -0.8
v 0.5 2.1 -0.8
v 0 2.1 -0.9
v 0 2.2 -0.9
v 0.1 2.1 -0.9
v 0.1 2.2 -0.9
v 0.1 2.3 -0.9
v 0.4 2.1 -0.9
v 0.4 2.2 -0.9
v 0.4 2.3 -0.9
v 0.5 2.1 -0.9
v 0.5 2.2 -0.9
v 0 2.2 -1
v 0 2.5 -1
v 0.1 2.2 -1
v 0.1 2.3 -1
v 0.1 2.5 -1
v 0.1 2.6 -1
v 0.2 2.3 -1
v 0.2 2.4 -1
v 0.2 2.5 -1
v 0.3 2.3 -1
v 0.3 2.4 -1
v 0.3 2.5 -1
v 0.4 2.2 -1
v 0.4 2.3 -1
v 0.4 2.5 -1
v 0.4 2.6 -1
v 0.5 2.2 -1
v 0.5 2.5 -1
v 0.2 2 -1.1
v 0.2 2.1 -1.1
v 0.2 2.3 -1.1
v 0.2 2.4 -1.1
v 0.2 2.5 -1.1
v 0.3 2 -1.1
v 0.3 2.1 -1.1
v 0.3 2.3 -1.1
v 0.3 2.4 -1.1
v 0.3 2.5 -1.1
v 0.2 2.1 -1.2
v 0.2 2.3 -1.2
v 0.3 2.1 -1.2
v 0.3 2.3 -1.2
v 0 2 -0.7
v 0.1 2 -0.7
v 0.4 2 -0.7
v 0.5 2 -0.7
v 0 2 -0.8
v 0.1 2 -0.8
v 0.4 2 -0.8
v 0.5 2 -0.8
v 0.2 2 -0.9
v 0.3 2 -0.9
v 0.2 2 -1.1
v 0.3 2 -1.1
v 0 2.1 -0.6
v 0.1 2.1 -0.6
v 0.4 2.1 -0.6
v 0.5 2.1 -0.6
v 0 2.1 -0.7
v 0.1 2.1 -0.7
v 0.4 2.1 -0.7
v 0.5 2.1 -0.7
v 0 2.1 -0.8
v 0.1 2.1 -0.8
v 0.4 2.1 -0.8
v 0.5 2.1 -0.8
v 0 2.1 -0.9
v 0.1 2.1 -0.9
v 0.4 2.1 -0.9
v 0.5 2.1 -0.9
v 0.2 2.1 -1.1
v 0.3 2.1 -1.1
v 0.2 2.1 -1.2
v 0.3 2.1 -1.2
v 0.2 2.2 -0.3
v 0.3 2.2 -0.3
v 0.2 2.2 -0.4
v 0.3 2.2 -0.4
v 0.1 2.2 -0.8
v 0.4 2.2 -0.8
v 0 2.2 -0.9
v 0.1 2.2 -0.9
v 0.4 2.2 -0.9
v 0.5 2.2 -0.9
v 0 2.2 -1
v 0.1 2.2 -1
v 0.4 2.2 -1
v 0.5 2.2 -1
v 0.1 2.3 -0.2
v 0.4 2.3 -0.2
v 0.2 2.3 -0.3
v 0.3 2.3 -0.3
v 0.1 2.3 -0.4
v 0.2 2.3 -0.4
v 0.3 2.3 -0.4
v 0.4 2.3 -0.4
v 0 2.3 -0.5
v 0.1 2.3 -0.5
v 0.4 2.3 -0.5
v 0.5 2.3 -0.5
v 0 2.3 -0.6
v 0.1 2.3 -0.6
v 0.4 2.3 -0.6
v 0.5 2.3 -0.6
v 0.1 2.3 -0.7
v 0.4 2.3 -0.7
v 0.1 2.3 -0.8
v 0.4 2.3 -0.8
v 0.1 2.3 -0.9
v 0.4 2.3 -0.9
v 0.1 2.3 -1
v 0.2 2.3 -1
v 0.3 2.3 -1
v 0.4 2.3 -1
v 0.2 2.3 -1.1
v 0.3 2.3 -1.1
v 0.1 2.4 -0.1
v 0.4 2.4 -0.1
v 0 2.4 -0.2
v 0.1 2.4 -0.2
v 0.4 2.4 -0.2
v 0.5 2.4 -0.2
v 0 2.4 -0.3
v 0.1 2.4 -0.3
v 0.4 2.4 -0.3
v 0.5 2.4 -0.3
v 0 2.4 -0.4
v 0.1 2.4 -0.4
v 0.2 2.4 -0.4
v 0.3 2.4 -0.4
v 0.4 2.4 -0.4
v 0.5 2.4 -0.4
v 0 2.4 -0.5
v 0.1 2.4 -0.5
v 0.2 2.4 -0.5
v 0.3 2.4 -0.5
v 0.4 2.4 -0.5
v 0.5 2.4 -0.5
v 0.1 2.4 -0.6
v 0.4 2.4 -0.6
v 0.1 2.4 -0.7
v 0.4 2.4 -0.7
v 0 2.5 0
v 0.1 2.5 0
v 0.4 2.5 0
v 0.5 2.5 0
v 0 2.5 -0.1
v 0.1 2.5 -0.1
v 0.4 2.5 -0.1
v 0.5 2.5 -0.1
v 0.1 2.5 -0.4
v 0.2 2.5 -0.4
v 0.3 2.5 -0.4
v 0.4 2.5 -0.4
v 0.1 2.5 -0.5
v 0.2 2.5 -0.5
v 0.3 2.5 -0.5
v 0.4 2.5 -0.5
v 0.1 2.5 -0.6
v 0.4 2.5 -0.6
v 0 2.6 -0.5
v 0.1 2.6 -0.5
v 0.4 2.6 -0.5
v 0.5 2.6 -0.5
v 0 2.6 -0.6
v 0.1 2.6 -0.6
v 0.4 2.6 -0.6
v 0.5 2.6 -0.6
v 0.2 2.6 -0.7
v 0.3 2.6 -0.7
v 0.2 2.6 -0.8
v 0.3 2.6 -0.8
v 0.1 2.7 -0.5
v 0.4 2.7 -0.5
v 0.1 2.7 -0.6
v 0.4 2.7 -0.6
v 0 2.1 -0.7
v 0.1 2.1 -0.7
v 0.4 2.1 -0.7
v 0.5 2.1 -0.7
v 0 2.1 -0.8
v 0.1 2.1 -0.8
v 0.4 2.1 -0.8
v 0.5 2.1 -0.8
v 0.2 2.1 -0.9
v 0.3 2.1 -0.9
v 0.2 2.1 -1.1
v 0.3 2.1 -1.1
v 0 2.2 -0.6
v 0.1 2.2 -0.6
v 0.4 2.2 -0.6
v 0.5 2.2 -0.6
v 0 2.2 -0.7
v 0.1 2.2 -0.7
v 0.4 2.2 -0.7
v 0.5 2.2 -0.7
v 0.2 2.3 -1.1
v 0.3 2.3 -1.1
v 0.2 2.3 -1.2
v 0.3 2.3 -1.2
v 0 2.4 -0.5
v 0.1 2.4 -0.5
v 0.4 2.4 -0.5
v 0.5 2.4 -0.5
v 0 2.4 -0.6
v 0.1 2.4 -0.6
v 0.4 2.4 -0.6
v 0.5 2.4 -0.6
v 0 2.5 -0.2
v 0.1 2.5 -0.2
v 0.4 2.5 -0.2
v 0.5 2.5 -0.2
v 0 2.5 -0.3
v 0.1 2.5 -0.3
v 0.4 2.5 -0.3
v 0.5 2.5 -0.3
v 0.2 2.5 -0.7
v 0.3 2.5 -0.7
v 0 2.5 -0.8
v 0.1 2.5 -0.8
v 0.2 2.5 -0.8
v 0.3 2.5 -0.8
v 0.4 2.5 -0.8
v 0.5 2.5 -0.8
v 0 2.5 -1
v 0.1 2.5 -1
v 0.2 2.5 -1
v 0.3 2.5 -1
v 0.4 2.5 -1
v 0.5 2.5 -1
v 0.2 2.5 -1.1
v 0.3 2.5 -1.1
v 0.1 2.6 -0.1
v 0.4 2.6 -0.1
v 0.1 2.6 -0.2
v 0.4 2.6 -0.2
v 0.1 2.6 -0.5
v 0.4 2.6 -0.5
v 0.1 2.6 -0.6
v 0.4 2.6 -0.6
v 0.1 2.6 -0.8
v 0.4 2.6 -0.8
v 0.1 2.6 -1
v 0.4 2.6 -1
v 0 2.7 0
v 0.1 2.7 0
v 0.4 2.7 0
v 0.5 2.7 0
v 0 2.7 -0.1
v 0.1 2.7 -0.1
v 0.4 2.7 -0.1
v 0.5 2.7 -0.1
v 0.1 2.7 -0.2
v 0.4 2.7 -0.2
v 0.1 2.7 -0.4
v 0.4 2.7 -0.4
v 0.1 2.7 -0.7
v 0.4 2.7 -0.7
v 0.1 2.7 -0.8
v 0.4 2.7 -0.8
v 0 2.8 -0.4
v 0.5 2.8 -0.4
v 0 2.8 -0.6
v 0.1 2.8 -0.6
v 0.4 2.8 -0.6
v 0.5 2.8 -0.6
v 0.1 2.8 -0.7
v 0.4 2.8 -0.7

# faces
f 4/1/1 2/1/1 1/1/1
f 5/1/1 2/1/1 4/1/1
f 7/1/1 4/1/1 3/1/1
f 8/1/1 4/1/1 7/1/1
f 9/2/1 6/2/1 5/2/1
f 16/1/1 12/1/1 11/1/1
f 17/1/1 12/1/1 16/1/1
f 20/3/1 14/3/1 13/3/1
f 21/3/1 14/3/1 20/3/1
f 22/1/1 16/1/1 15/1/1
f 23/1/1 16/1/1 22/1/1
f 24/2/1 10/2/1 9/2/1
f 24/2/1 9/2/1 5/2/1
f 25/2/1 10/2/1 24/2/1
f 26/2/1 23/2/1 22/2/1
f 28/1/1 19/1/1 18/1/1
f 29/1/1 19/1/1 28/1/1
f 30/2/1 27/2/1 26/2/1
f 30/2/1 26/2/1 22/2/1
f 31/2/1 27/2/1 30/2/1
f 37/2/1 33/2/1 32/2/1
f 38/2/1 33/2/1 37/2/1
f 39/2/1 33/2/1 38/2/1
f 41/2/1 35/2/1 34/2/1
f 42/2/1 37/2/1 36/2/1
f 43/2/1 37/2/1 42/2/1
f 44/2/1 39/2/1 38/2/1
f 45/2/1 39/2/1 44/2/1
f 47/2/1 41/2/1 40/2/1
f 48/2/1 35/2/1 41/2/1
f 48/2/1 41/2/1 47/2/1
f 50/2/1 43/2/1 42/2/1
f 50/2/1 45/2/1 44/2/1
f 50/2/1 44/2/1 43/2/1
f 51/2/1 45/2/1 50/2/1
f 52/2/1 49/2/1 48/2/1
f 52/2/1 48/2/1 47/2/1
f 52/2/1 47/2/1 46/2/1
f 53/2/1 49/2/1 52/2/1
f 54/2/1 49/2/1 53/2/1
f 55/2/1 49/2/1 54/2/1
f 56/2/1 45/2/1 51/2/1
f 57/2/1 45/2/1 56/2/1
f 58/2/1 54/2/1 53/2/1
f 59/2/1 54/2/1 58/2/1
f 60/2/1 58/2/1 53/2/1
f 61/2/1 58/2/1 60/2/1
f 64/1/1 63/1/1 62/1/1
f 65/1/1 63/1/1 64/1/1
f 69/1/1 68/1/1 67/1/1
f 70/1/1 68/1/1 69/1/1
f 72/1/1 66/1/1 65/1/1
f 73/1/1 66/1/1 72/1/1
f 76/1/1 72/1/1 71/1/1
f 77/1/1 72/1/1 76/1/1
f 78/2/1 75/2/1 74/2/1
f 79/2/1 75/2/1 78/2/1
f 80/2/1 77/2/1 76/2/1
f 81/2/1 77/2/1 80/2/1
f 84/2/1 83/2/1 82/2/1
f 85/2/1 83/2/1 84/2/1
f 89/1/1 87/1/1 86/1/1
f 90/1/1 87/1/1 89/1/1
f 92/1/1 89/1/1 88/1/1
f 93/1/1 89/1/1 92/1/1
f 94/2/1 91/2/1 90/2/1
f 95/2/1 91/2/1 94/2/1
f 99/2/1 96/2/1 95/2/1
f 100/2/1 96/2/1 99/2/1
f 102/1/1 98/1/1 97/1/1
f 103/1/1 98/1/1 102/1/1
f 106/1/1 102/1/1 101/1/1
f 107/1/1 102/1/1 106/1/1
f 108/1/1 105/1/1 104/1/1
f 111/1/1 108/1/1 104/1/1
f 112/1/1 108/1/1 111/1/1
f 113/2/1 110/2/1 109/2/1
f 114/2/1 110/2/1 113/2/1
f 115/1/2 116/1/2 118/1/2
f 118/1/2 116/1/2 119/1/2
f 117/1/2 118/1/2 121/1/2
f 121/1/2 118/1/2 122/1/2
f 119/2/2 120/2/2 123/2/2
f 123/2/2 120/2/2 124/2/2
f 124/2/2 125/2/2 128/2/2
f 128/2/2 125/2/2 129/2/2
f 126/1/2 127/1/2 131/1/2
f 131/1/2 127/1/2 132/1/2
f 130/1/2 131/1/2 135/1/2
f 135/1/2 131/1/2 136/1/2
f 133/1/2 134/1/2 137/1/2
f 133/1/2 137/1/2 140/1/2
f 140/1/2 137/1/2 141/1/2
f 138/2/2 139/2/2 142/2/2
f 142/2/2 139/2/2 143/2/2
f 144/2/2 145/2/2 146/2/2
f 146/2/2 145/2/2 147/2/2
f 148/1/2 149/1/2 150/1/2
f 150/1/2 149/1/2 151/1/2
f 153/1/2 154/1/2 155/1/2
f 155/1/2 154/1/2 156/1/2
f 151/1/2 152/1/2 158/1/2
f 158/1/2 152/1/2 159/1/2
f 157/1/2 158/1/2 162/1/2
f 162/1/2 158/1/2 163/1/2
f 160/2/2 161/2/2 164/2/2
f 164/2/2 161/2/2 165/2/2
f 162/2/2 163/2/2 166/2/2
f 166/2/2 163/2/2 167/2/2
f 168/2/2 169/2/2 173/2/2
f 173/2/2 169/2/2 174/2/2
f 174/2/2 169/2/2 175/2/2
f 170/2/2 171/2/2 177/2/2
f 172/2/2 173/2/2 178/2/2
f 178/2/2 173/2/2 179/2/2
f 174/2/2 175/2/2 180/2/2
f 180/2/2 175/2/2 181/2/2
f 176/2/2 177/2/2 183/2/2
f 177/2/2 171/2/2 184/2/2
f 183/2/2 177/2/2 184/2/2
f 178/2/2 179/2/2 186/2/2
f 180/2/2 181/2/2 186/2/2
f 179/2/2 180/2/2 186/2/2
f 186/2/2 181/2/2 187/2/2
f 184/2/2 185/2/2 188/2/2
f 183/2/2 184/2/2 188/2/2
f 182/2/2 183/2/2 188/2/2
f 188/2/2 185/2/2 189/2/2
f 189/2/2 185/2/2 190/2/2
f 190/2/2 185/2/2 191/2/2
f 187/2/2 181/2/2 192/2/2
f 192/2/2 181/2/2 193/2/2
f 189/2/2 190/2/2 194/2/2
f 194/2/2 190/2/2 195/2/2
f 189/2/2 194/2/2 196/2/2
f 196/2/2 194/2/2 197/2/2
f 198/1/2 199/1/2 201/1/2
f 201/1/2 199/1/2 202/1/2
f 200/1/2 201/1/2 204/1/2
f 204/1/2 201/1/2 205/1/2
f 202/2/2 203/2/2 206/2/2
f 208/1/2 209/1/2 213/1/2
f 213/1/2 209/1/2 214/1/2
f 210/3/2 211/3/2 217/3/2
f 217/3/2 211/3/2 218/3/2
f 212/1/2 213/1/2 219/1/2
f 219/1/2 213/1/2 220/1/2
f 206/2/2 207/2/2 221/2/2
f 202/2/2 206/2/2 221/2/2
f 221/2/2 207/2/2 222/2/2
f 219/2/2 220/2/2 223/2/2
f 215/1/2 216/1/2 225/1/2
f 225/1/2 216/1/2 226/1/2
f 223/2/2 224/2/2 227/2/2
f 219/2/2 223/2/2 227/2/2
f 227/2/2 224/2/2 228/2/2
f 231/1/3 230/1/3 229/1/3
f 232/1/3 230/1/3 231/1/3
f 235/1/3 234/1/3 233/1/3
f 236/1/3 234/1/3 235/1/3
f 240/2/3 238/2/3 237/2/3
f 240/2/3 239/2/3 238/2/3
f 241/2/3 239/2/3 240/2/3
f 242/2/3 239/2/3 241/2/3
f 246/3/3 244/3/3 243/3/3
f 247/3/3 244/3/3 246/3/3
f 250/2/3 246/2/3 245/2/3
f 251/2/3 246/2/3 250/2/3
f 253/2/3 249/2/3 248/2/3
f 254/2/3 249/2/3 253/2/3
f 255/3/3 252/3/3 251/3/3
f 256/3/3 252/3/3 255/3/3
f 259/1/3 258/1/3 257/1/3
f 260/1/3 258/1/3 259/1/3
f 264/1/3 262/1/3 261/1/3
f 265/2/3 263/2/3 262/2/3
f 265/1/3 262/1/3 264/1/3
f 266/2/3 263/2/3 265/2/3
f 269/2/3 263/2/3 266/2/3
f 270/1/3 268/1/3 267/1/3
f 271/2/3 269/2/3 268/2/3
f 271/1/3 268/1/3 270/1/3
f 272/2/3 263/2/3 269/2/3
f 272/2/3 269/2/3 271/2/3
f 275/1/3 274/1/3 273/1/3
f 276/1/3 274/1/3 275/1/3
f 279/1/3 278/1/3 277/1/3
f 280/1/3 278/1/3 279/1/3
f 283/1/3 282/1/3 281/1/3
f 284/1/3 282/1/3 283/1/3
f 291/2/3 286/2/3 285/2/3
f 292/2/3 286/2/3 291/2/3
f 293/2/3 288/2/3 287/2/3
f 294/2/3 288/2/3 293/2/3
f 295/1/3 290/1/3 289/1/3
f 296/1/3 290/1/3 295/1/3
f 299/1/3 298/1/3 297/1/3
f 300/1/3 298/1/3 299/1/3
f 305/2/3 302/2/3 301/2/3
f 306/2/3 302/2/3 305/2/3
f 307/1/3 304/1/3 303/1/3
f 308/1/3 304/1/3 307/1/3
f 311/2/3 310/2/3 309/2/3
f 312/2/3 310/2/3 311/2/3
f 313/2/3 310/2/3 312/2/3
f 314/2/3 310/2/3 313/2/3
f 317/2/3 316/2/3 315/2/3
f 318/2/3 316/2/3 317/2/3
f 320/2/3 313/2/3 312/2/3
f 321/2/3 313/2/3 320/2/3
f 323/2/3 320/2/3 319/2/3
f 323/2/3 322/2/3 321/2/3
f 323/2/3 321/2/3 320/2/3
f 324/2/3 322/2/3 323/2/3
f 327/1/3 326/1/3 325/1/3
f 328/1/3 326/1/3 327/1/3
f 331/1/3 330/1/3 329/1/3
f 332/1/3 330/1/3 331/1/3
f 333/1/4 334/1/4 335/1/4
f 335/1/4 334/1/4 336/1/4
f 336/1/4 334/1/4 337/1/4
f 338/1/4 339/1/4 341/1/4
f 339/1/4 340/1/4 341/1/4
f 341/1/4 340/1/4 342/1/4
f 343/3/4 344/3/4 345/3/4
f 345/3/4 344/3/4 346/3/4
f 347/3/4 348/3/4 349/3/4
f 349/3/4 348/3/4 350/3/4
f 351/2/4 352/2/4 355/2/4
f 352/2/4 353/2/4 355/2/4
f 355/2/4 353/2/4 356/2/4
f 356/2/4 353/2/4 357/2/4
f 354/1/4 355/1/4 358/1/4
f 355/2/4 356/2/4 359/2/4
f 358/1/4 355/1/4 359/1/4
f 359/2/4 356/2/4 360/2/4
f 360/2/4 361/2/4 362/2/4
f 359/2/4 360/2/4 362/2/4
f 362/2/4 361/2/4 363/2/4
f 363/2/4 361/2/4 364/2/4
f 365/1/4 366/1/4 368/1/4
f 366/2/4 367/2/4 369/2/4
f 368/1/4 366/1/4 369/1/4
f 369/2/4 367/2/4 370/2/4
f 372/2/4 373/2/4 374/2/4
f 374/2/4 373/2/4 375/2/4
f 370/2/4 371/2/4 378/2/4
f 378/2/4 371/2/4 379/2/4
f 376/1/4 377/1/4 380/1/4
f 377/2/4 378/2/4 381/2/4
f 380/1/4 377/1/4 381/1/4
f 381/2/4 378/2/4 382/2/4
f 383/1/4 384/1/4 387/1/4
f 387/1/4 384/1/4 388/1/4
f 385/2/4 386/2/4 389/2/4
f 389/2/4 386/2/4 390/2/4
f 391/1/4 392/1/4 395/1/4
f 395/1/4 392/1/4 396/1/4
f 393/2/4 394/2/4 397/2/4
f 397/2/4 394/2/4 398/2/4
f 399/1/4 400/1/4 401/1/4
f 401/1/4 400/1/4 402/1/4
f 405/2/4 406/2/4 407/2/4
f 407/2/4 406/2/4 408/2/4
f 403/2/4 404/2/4 411/2/4
f 411/2/4 404/2/4 412/2/4
f 409/1/4 410/1/4 413/1/4
f 413/1/4 410/1/4 414/1/4
f 415/1/4 416/1/4 417/1/4
f 417/1/4 416/1/4 418/1/4
f 419/2/4 420/2/4 423/2/4
f 423/2/4 420/2/4 424/2/4
f 421/1/4 422/1/4 425/1/4
f 425/1/4 422/1/4 426/1/4
f 427/2/4 428/2/4 429/2/4
f 429/2/4 428/2/4 430/2/4
f 430/2/4 431/2/4 433/2/4
f 433/2/4 431/2/4 434/2/4
f 432/2/4 433/2/4 435/2/4
f 435/2/4 433/2/4 436/2/4
f 437/2/4 438/2/4 439/2/4
f 439/2/4 438/2/4 440/2/4
f 440/2/4 438/2/4 441/2/4
f 441/2/4 442/2/4 443/2/4
f 440/2/4 441/2/4 443/2/4
f 443/2/4 442/2/4 444/2/4
f 444/2/4 442/2/4 445/2/4
f 445/2/4 442/2/4 448/2/4
f 446/2/4 447/2/4 450/2/4
f 447/2/4 448/2/4 450/2/4
f 448/2/4 442/2/4 451/2/4
f 450/2/4 448/2/4 451/2/4
f 451/2/4 442/2/4 452/2/4
f 449/2/4 450/2/4 453/2/4
f 450/2/4 451/2/4 453/2/4
f 453/2/4 451/2/4 454/2/4
f 455/1/4 456/1/4 460/1/4
f 460/1/4 456/1/4 461/1/4
f 457/1/4 458/1/4 462/1/4
f 458/2/4 459/2/4 463/2/4
f 462/1/4 458/1/4 463/1/4
f 463/2/4 459/2/4 464/2/4
f 465/1/4 466/1/4 467/1/4
f 467/1/4 466/1/4 468/1/4
f 473/1/5 470/1/5 469/1/5
f 474/1/5 470/1/5 473/1/5
f 475/1/5 472/1/5 471/1/5
f 476/1/5 472/1/5 475/1/5
f 479/1/5 478/1/5 477/1/5
f 480/1/5 478/1/5 479/1/5
f 485/1/5 482/1/5 481/1/5
f 486/1/5 482/1/5 485/1/5
f 487/1/5 484/1/5 483/1/5
f 488/1/5 484/1/5 487/1/5
f 493/2/5 490/2/5 489/2/5
f 494/2/5 490/2/5 493/2/5
f 495/2/5 492/2/5 491/2/5
f 496/2/5 492/2/5 495/2/5
f 499/1/5 498/1/5 497/1/5
f 500/1/5 498/1/5 499/1/5
f 503/1/5 502/1/5 501/1/5
f 504/1/5 502/1/5 503/1/5
f 508/2/5 506/2/5 505/2/5
f 509/2/5 506/2/5 508/2/5
f 511/2/5 508/2/5 507/2/5
f 512/2/5 508/2/5 511/2/5
f 513/2/5 510/2/5 509/2/5
f 514/2/5 510/2/5 513/2/5
f 517/2/5 516/2/5 515/2/5
f 518/2/5 516/2/5 517/2/5
f 519/2/5 517/2/5 515/2/5
f 520/2/5 517/2/5 519/2/5
f 521/2/5 516/2/5 518/2/5
f 522/2/5 516/2/5 521/2/5
f 527/1/5 524/1/5 523/1/5
f 528/1/5 524/1/5 527/1/5
f 529/1/5 526/1/5 525/1/5
f 530/1/5 526/1/5 529/1/5
f 533/2/5 532/2/5 531/2/5
f 534/2/5 532/2/5 533/2/5
f 537/2/5 536/2/5 535/2/5
f 538/2/5 536/2/5 537/2/5
f 539/2/5 536/2/5 538/2/5
f 540/2/5 536/2/5 539/2/5
f 541/1/5 539/1/5 538/1/5
f 542/1/5 539/1/5 541/1/5
f 546/2/5 544/2/5 543/2/5
f 547/2/5 544/2/5 546/2/5
f 549/3/5 546/3/5 545/3/5
f 550/3/5 546/3/5 549/3/5
f 551/3/5 548/3/5 547/3/5
f 552/3/5 548/3/5 551/3/5
f 559/1/5 554/1/5 553/1/5
f 560/1/5 554/1/5 559/1/5
f 561/2/5 556/2/5 555/2/5
f 562/2/5 556/2/5 561/2/5
f 563/1/5 558/1/5 557/1/5
f 564/1/5 558/1/5 563/1/5
f 567/2/5 566/2/5 565/2/5
f 568/2/5 566/2/5 567/2/5
f 573/1/5 570/1/5 569/1/5
f 574/1/5 570/1/5 573/1/5
f 575/1/5 572/1/5 571/1/5
f 576/1/5 572/1/5 575/1/5
f 581/2/5 578/2/5 577/2/5
f 582/2/5 578/2/5 581/2/5
f 583/2/5 580/2/5 579/2/5
f 584/2/5 580/2/5 583/2/5
f 585/2/5 582/2/5 581/2/5
f 585/2/5 583/2/5 582/2/5
f 585/2/5 584/2/5 583/2/5
f 586/2/5 584/2/5 585/2/5
f 591/2/5 588/2/5 587/2/5
f 592/2/5 588/2/5 591/2/5
f 593/2/5 590/2/5 589/2/5
f 594/2/5 590/2/5 593/2/5
f 597/2/5 596/2/5 595/2/5
f 598/2/5 596/2/5 597/2/5
f 601/2/5 600/2/5 599/2/5
f 602/2/5 600/2/5 601/2/5
f 603/1/6 604/1/6 607/1/6
f 607/1/6 604/1/6 608/1/6
f 605/1/6 606/1/6 609/1/6
f 609/1/6 606/1/6 610/1/6
f 611/1/6 612/1/6 613/1/6
f 613/1/6 612/1/6 614/1/6
f 615/1/6 616/1/6 619/1/6
f 619/1/6 616/1/6 620/1/6
f 617/1/6 618/1/6 621/1/6
f 621/1/6 618/1/6 622/1/6
f 623/1/6 624/1/6 625/1/6
f 625/1/6 624/1/6 626/1/6
f 627/1/6 628/1/6 631/1/6
f 631/1/6 628/1/6 632/1/6
f 629/1/6 630/1/6 633/1/6
f 633/1/6 630/1/6 634/1/6
f 635/3/6 636/3/6 639/3/6
f 639/3/6 636/3/6 640/3/6
f 637/3/6 638/3/6 641/3/6
f 641/3/6 638/3/6 642/3/6
f 643/2/6 644/2/6 647/2/6
f 647/2/6 644/2/6 648/2/6
f 645/2/6 646/2/6 651/2/6
f 651/2/6 646/2/6 652/2/6
f 649/2/6 650/2/6 655/2/6
f 655/2/6 650/2/6 656/2/6
f 653/2/6 654/2/6 657/2/6
f 657/2/6 654/2/6 658/2/6
f 659/2/6 660/2/6 661/2/6
f 661/2/6 660/2/6 662/2/6
f 663/2/6 664/2/6 665/2/6
f 665/2/6 664/2/6 666/2/6
f 667/2/6 668/2/6 669/2/6
f 669/2/6 668/2/6 670/2/6
f 671/1/6 672/1/6 675/1/6
f 675/1/6 672/1/6 676/1/6
f 673/1/6 674/1/6 677/1/6
f 677/1/6 674/1/6 678/1/6
f 679/2/6 680/2/6 681/2/6
f 681/2/6 680/2/6 682/2/6
f 683/2/6 684/2/6 685/2/6
f 685/2/6 684/2/6 686/2/6
f 687/2/6 688/2/6 689/2/6
f 689/2/6 688/2/6 690/2/6
f 690/2/6 688/2/6 691/2/6
f 691/2/6 688/2/6 692/2/6
f 690/2/6 691/2/6 693/2/6
f 693/2/6 691/2/6 694/2/6
