# MagicaVoxel @ Ephtracy

# group
o 

# material
mtllib rat_roll_1.mtl
usemtl palette

# normals
vn -1 0 0
vn 1 0 0
vn 0 0 1
vn 0 0 -1
vn 0 -1 0
vn 0 1 0

# texcoords
vt 0.0292969 0.5
vt 0.982422 0.5
vt 0.994141 0.5

# verts
v 0 2 -1.3
v 0 2 -1.5
v 0 2.1 -1.2
v 0 2.1 -1.3
v 0 2.1 -1.5
v 0 2.2 -0.2
v 0 2.2 -0.3
v 0 2.2 -0.9
v 0 2.2 -1.2
v 0 2.2 -1.3
v 0 2.3 -0.2
v 0 2.3 -0.3
v 0 2.3 -0.4
v 0 2.3 -1.1
v 0 2.3 -1.2
v 0 2.4 -0.3
v 0 2.4 -0.4
v 0 2.4 -0.5
v 0 2.5 -0.5
v 0 2.5 -0.6
v 0 2.5 -0.9
v 0 2.5 -1.1
v 0 2.7 -0.2
v 0 2.7 -0.3
v 0 2.7 -0.4
v 0 2.7 -0.6
v 0 2.8 -0.2
v 0 2.8 -0.3
v 0 2.9 -0.3
v 0 2.9 -0.5
v 0 3 -0.3
v 0 3 -0.5
v 0.1 2.3 -0.8
v 0.1 2.3 -0.9
v 0.1 2.4 -0.7
v 0.1 2.4 -0.8
v 0.1 2.5 -0.3
v 0.1 2.5 -0.4
v 0.1 2.5 -0.6
v 0.1 2.5 -0.7
v 0.1 2.5 -0.9
v 0.1 2.5 -1.1
v 0.1 2.6 -0.1
v 0.1 2.6 -0.3
v 0.1 2.6 -0.9
v 0.1 2.6 -1.1
v 0.1 2.7 -0.2
v 0.1 2.7 -0.3
v 0.1 2.7 -0.4
v 0.1 2.7 -0.6
v 0.1 2.7 -0.7
v 0.1 2.7 -0.9
v 0.1 2.8 -0.1
v 0.1 2.8 -0.2
v 0.1 2.8 -0.3
v 0.1 2.8 -0.4
v 0.1 2.8 -0.7
v 0.1 2.9 -0.2
v 0.1 2.9 -0.3
v 0.1 2.9 -0.4
v 0.2 2.2 -1.5
v 0.2 2.2 -1.7
v 0.2 2.3 -1.3
v 0.2 2.3 -1.5
v 0.2 2.3 -1.7
v 0.2 2.4 -1.1
v 0.2 2.4 -1.2
v 0.2 2.4 -1.3
v 0.2 2.4 -1.5
v 0.2 2.5 -0.2
v 0.2 2.5 -0.3
v 0.2 2.5 -1.1
v 0.2 2.5 -1.2
v 0.2 2.5 -1.3
v 0.2 2.6 0
v 0.2 2.6 -0.1
v 0.2 2.6 -0.2
v 0.2 2.6 -0.3
v 0.2 2.7 0
v 0.2 2.7 -0.1
v 0.3 2.5 -0.7
v 0.3 2.5 -0.9
v 0.3 2.6 -0.4
v 0.3 2.6 -0.6
v 0.3 2.6 -0.7
v 0.3 2.6 -0.9
v 0.3 2.7 -0.4
v 0.3 2.7 -0.6
v 0.4 2 -1.3
v 0.4 2 -1.5
v 0.4 2.1 -1.2
v 0.4 2.1 -1.3
v 0.4 2.1 -1.5
v 0.4 2.2 -0.2
v 0.4 2.2 -0.3
v 0.4 2.2 -1
v 0.4 2.2 -1.2
v 0.4 2.2 -1.3
v 0.4 2.3 -0.2
v 0.4 2.3 -0.3
v 0.4 2.3 -0.4
v 0.4 2.3 -1
v 0.4 2.3 -1.1
v 0.4 2.3 -1.2
v 0.4 2.4 -0.3
v 0.4 2.4 -0.4
v 0.4 2.4 -0.5
v 0.4 2.5 -0.4
v 0.4 2.5 -0.5
v 0.4 2.9 -0.3
v 0.4 2.9 -0.4
v 0.4 2.9 -0.5
v 0.4 3 -0.3
v 0.4 3 -0.5
v 0.1 2 -1.3
v 0.1 2 -1.5
v 0.1 2.1 -1.2
v 0.1 2.1 -1.3
v 0.1 2.1 -1.5
v 0.1 2.2 -0.2
v 0.1 2.2 -0.3
v 0.1 2.2 -1
v 0.1 2.2 -1.2
v 0.1 2.2 -1.3
v 0.1 2.3 -0.2
v 0.1 2.3 -0.3
v 0.1 2.3 -0.4
v 0.1 2.3 -1
v 0.1 2.3 -1.1
v 0.1 2.3 -1.2
v 0.1 2.4 -0.3
v 0.1 2.4 -0.4
v 0.1 2.4 -0.5
v 0.1 2.5 -0.4
v 0.1 2.5 -0.5
v 0.1 2.9 -0.3
v 0.1 2.9 -0.4
v 0.1 2.9 -0.5
v 0.1 3 -0.3
v 0.1 3 -0.5
v 0.2 2.5 -0.7
v 0.2 2.5 -0.9
v 0.2 2.6 -0.4
v 0.2 2.6 -0.6
v 0.2 2.6 -0.7
v 0.2 2.6 -0.9
v 0.2 2.7 -0.4
v 0.2 2.7 -0.6
v 0.3 2.2 -1.5
v 0.3 2.2 -1.7
v 0.3 2.3 -1.3
v 0.3 2.3 -1.5
v 0.3 2.3 -1.7
v 0.3 2.4 -1.1
v 0.3 2.4 -1.2
v 0.3 2.4 -1.3
v 0.3 2.4 -1.5
v 0.3 2.5 -0.2
v 0.3 2.5 -0.3
v 0.3 2.5 -1.1
v 0.3 2.5 -1.2
v 0.3 2.5 -1.3
v 0.3 2.6 0
v 0.3 2.6 -0.1
v 0.3 2.6 -0.2
v 0.3 2.6 -0.3
v 0.3 2.7 0
v 0.3 2.7 -0.1
v 0.4 2.3 -0.8
v 0.4 2.3 -0.9
v 0.4 2.4 -0.7
v 0.4 2.4 -0.8
v 0.4 2.5 -0.3
v 0.4 2.5 -0.4
v 0.4 2.5 -0.6
v 0.4 2.5 -0.7
v 0.4 2.5 -0.9
v 0.4 2.5 -1.1
v 0.4 2.6 -0.1
v 0.4 2.6 -0.3
v 0.4 2.6 -0.9
v 0.4 2.6 -1.1
v 0.4 2.7 -0.2
v 0.4 2.7 -0.3
v 0.4 2.7 -0.4
v 0.4 2.7 -0.6
v 0.4 2.7 -0.7
v 0.4 2.7 -0.9
v 0.4 2.8 -0.1
v 0.4 2.8 -0.2
v 0.4 2.8 -0.3
v 0.4 2.8 -0.4
v 0.4 2.8 -0.7
v 0.4 2.9 -0.2
v 0.4 2.9 -0.3
v 0.4 2.9 -0.4
v 0.5 2 -1.3
v 0.5 2 -1.5
v 0.5 2.1 -1.2
v 0.5 2.1 -1.3
v 0.5 2.1 -1.5
v 0.5 2.2 -0.2
v 0.5 2.2 -0.3
v 0.5 2.2 -0.9
v 0.5 2.2 -1.2
v 0.5 2.2 -1.3
v 0.5 2.3 -0.2
v 0.5 2.3 -0.3
v 0.5 2.3 -0.4
v 0.5 2.3 -1.1
v 0.5 2.3 -1.2
v 0.5 2.4 -0.3
v 0.5 2.4 -0.4
v 0.5 2.4 -0.5
v 0.5 2.5 -0.5
v 0.5 2.5 -0.6
v 0.5 2.5 -0.9
v 0.5 2.5 -1.1
v 0.5 2.7 -0.2
v 0.5 2.7 -0.3
v 0.5 2.7 -0.4
v 0.5 2.7 -0.6
v 0.5 2.8 -0.2
v 0.5 2.8 -0.3
v 0.5 2.9 -0.3
v 0.5 2.9 -0.5
v 0.5 3 -0.3
v 0.5 3 -0.5
v 0.2 2.6 0
v 0.2 2.7 0
v 0.3 2.6 0
v 0.3 2.7 0
v 0.1 2.6 -0.1
v 0.1 2.8 -0.1
v 0.2 2.6 -0.1
v 0.2 2.7 -0.1
v 0.3 2.6 -0.1
v 0.3 2.7 -0.1
v 0.4 2.6 -0.1
v 0.4 2.8 -0.1
v 0 2.2 -0.2
v 0 2.3 -0.2
v 0 2.7 -0.2
v 0 2.8 -0.2
v 0.1 2.2 -0.2
v 0.1 2.3 -0.2
v 0.1 2.7 -0.2
v 0.1 2.8 -0.2
v 0.1 2.9 -0.2
v 0.2 2.5 -0.2
v 0.2 2.6 -0.2
v 0.3 2.5 -0.2
v 0.3 2.6 -0.2
v 0.4 2.2 -0.2
v 0.4 2.3 -0.2
v 0.4 2.7 -0.2
v 0.4 2.8 -0.2
v 0.4 2.9 -0.2
v 0.5 2.2 -0.2
v 0.5 2.3 -0.2
v 0.5 2.7 -0.2
v 0.5 2.8 -0.2
v 0 2.3 -0.3
v 0 2.4 -0.3
v 0 2.9 -0.3
v 0 3 -0.3
v 0.1 2.3 -0.3
v 0.1 2.4 -0.3
v 0.1 2.5 -0.3
v 0.1 2.6 -0.3
v 0.1 2.9 -0.3
v 0.1 3 -0.3
v 0.2 2.5 -0.3
v 0.2 2.6 -0.3
v 0.3 2.5 -0.3
v 0.3 2.6 -0.3
v 0.4 2.3 -0.3
v 0.4 2.4 -0.3
v 0.4 2.5 -0.3
v 0.4 2.6 -0.3
v 0.4 2.9 -0.3
v 0.4 3 -0.3
v 0.5 2.3 -0.3
v 0.5 2.4 -0.3
v 0.5 2.9 -0.3
v 0.5 3 -0.3
v 0 2.4 -0.4
v 0 2.7 -0.4
v 0.1 2.4 -0.4
v 0.1 2.5 -0.4
v 0.1 2.7 -0.4
v 0.4 2.4 -0.4
v 0.4 2.5 -0.4
v 0.4 2.7 -0.4
v 0.5 2.4 -0.4
v 0.5 2.7 -0.4
v 0.2 2.6 -0.6
v 0.2 2.7 -0.6
v 0.3 2.6 -0.6
v 0.3 2.7 -0.6
v 0.1 2.4 -0.7
v 0.1 2.5 -0.7
v 0.4 2.4 -0.7
v 0.4 2.5 -0.7
v 0.1 2.3 -0.8
v 0.1 2.4 -0.8
v 0.4 2.3 -0.8
v 0.4 2.4 -0.8
v 0 2.2 -0.9
v 0 2.5 -0.9
v 0.1 2.3 -0.9
v 0.1 2.5 -0.9
v 0.2 2.5 -0.9
v 0.2 2.6 -0.9
v 0.3 2.5 -0.9
v 0.3 2.6 -0.9
v 0.4 2.3 -0.9
v 0.4 2.5 -0.9
v 0.5 2.2 -0.9
v 0.5 2.5 -0.9
v 0 2.1 -1.2
v 0 2.2 -1.2
v 0.1 2.1 -1.2
v 0.1 2.2 -1.2
v 0.4 2.1 -1.2
v 0.4 2.2 -1.2
v 0.5 2.1 -1.2
v 0.5 2.2 -1.2
v 0 2 -1.3
v 0 2.1 -1.3
v 0.1 2 -1.3
v 0.1 2.1 -1.3
v 0.2 2.3 -1.3
v 0.2 2.4 -1.3
v 0.3 2.3 -1.3
v 0.3 2.4 -1.3
v 0.4 2 -1.3
v 0.4 2.1 -1.3
v 0.5 2 -1.3
v 0.5 2.1 -1.3
v 0.2 2.2 -1.5
v 0.2 2.3 -1.5
v 0.3 2.2 -1.5
v 0.3 2.3 -1.5
v 0 2.2 -0.3
v 0 2.3 -0.3
v 0 2.7 -0.3
v 0 2.8 -0.3
v 0.1 2.2 -0.3
v 0.1 2.3 -0.3
v 0.1 2.7 -0.3
v 0.1 2.8 -0.3
v 0.4 2.2 -0.3
v 0.4 2.3 -0.3
v 0.4 2.7 -0.3
v 0.4 2.8 -0.3
v 0.5 2.2 -0.3
v 0.5 2.3 -0.3
v 0.5 2.7 -0.3
v 0.5 2.8 -0.3
v 0 2.3 -0.4
v 0 2.4 -0.4
v 0.1 2.3 -0.4
v 0.1 2.4 -0.4
v 0.1 2.8 -0.4
v 0.1 2.9 -0.4
v 0.2 2.6 -0.4
v 0.2 2.7 -0.4
v 0.3 2.6 -0.4
v 0.3 2.7 -0.4
v 0.4 2.3 -0.4
v 0.4 2.4 -0.4
v 0.4 2.8 -0.4
v 0.4 2.9 -0.4
v 0.5 2.3 -0.4
v 0.5 2.4 -0.4
v 0 2.4 -0.5
v 0 2.5 -0.5
v 0 2.9 -0.5
v 0 3 -0.5
v 0.1 2.4 -0.5
v 0.1 2.5 -0.5
v 0.1 2.9 -0.5
v 0.1 3 -0.5
v 0.4 2.4 -0.5
v 0.4 2.5 -0.5
v 0.4 2.9 -0.5
v 0.4 3 -0.5
v 0.5 2.4 -0.5
v 0.5 2.5 -0.5
v 0.5 2.9 -0.5
v 0.5 3 -0.5
v 0 2.5 -0.6
v 0 2.7 -0.6
v 0.1 2.5 -0.6
v 0.1 2.7 -0.6
v 0.4 2.5 -0.6
v 0.4 2.7 -0.6
v 0.5 2.5 -0.6
v 0.5 2.7 -0.6
v 0.1 2.7 -0.7
v 0.1 2.8 -0.7
v 0.2 2.5 -0.7
v 0.2 2.6 -0.7
v 0.3 2.5 -0.7
v 0.3 2.6 -0.7
v 0.4 2.7 -0.7
v 0.4 2.8 -0.7
v 0.1 2.6 -0.9
v 0.1 2.7 -0.9
v 0.4 2.6 -0.9
v 0.4 2.7 -0.9
v 0.1 2.2 -1
v 0.1 2.3 -1
v 0.4 2.2 -1
v 0.4 2.3 -1
v 0 2.3 -1.1
v 0 2.5 -1.1
v 0.1 2.3 -1.1
v 0.1 2.5 -1.1
v 0.1 2.6 -1.1
v 0.2 2.4 -1.1
v 0.2 2.5 -1.1
v 0.3 2.4 -1.1
v 0.3 2.5 -1.1
v 0.4 2.3 -1.1
v 0.4 2.5 -1.1
v 0.4 2.6 -1.1
v 0.5 2.3 -1.1
v 0.5 2.5 -1.1
v 0 2.2 -1.2
v 0 2.3 -1.2
v 0.1 2.2 -1.2
v 0.1 2.3 -1.2
v 0.4 2.2 -1.2
v 0.4 2.3 -1.2
v 0.5 2.2 -1.2
v 0.5 2.3 -1.2
v 0 2.1 -1.3
v 0 2.2 -1.3
v 0.1 2.1 -1.3
v 0.1 2.2 -1.3
v 0.2 2.4 -1.3
v 0.2 2.5 -1.3
v 0.3 2.4 -1.3
v 0.3 2.5 -1.3
v 0.4 2.1 -1.3
v 0.4 2.2 -1.3
v 0.5 2.1 -1.3
v 0.5 2.2 -1.3
v 0 2 -1.5
v 0 2.1 -1.5
v 0.1 2 -1.5
v 0.1 2.1 -1.5
v 0.2 2.3 -1.5
v 0.2 2.4 -1.5
v 0.3 2.3 -1.5
v 0.3 2.4 -1.5
v 0.4 2 -1.5
v 0.4 2.1 -1.5
v 0.5 2 -1.5
v 0.5 2.1 -1.5
v 0.2 2.2 -1.7
v 0.2 2.3 -1.7
v 0.3 2.2 -1.7
v 0.3 2.3 -1.7
v 0 2 -1.3
v 0.1 2 -1.3
v 0.4 2 -1.3
v 0.5 2 -1.3
v 0 2 -1.5
v 0.1 2 -1.5
v 0.4 2 -1.5
v 0.5 2 -1.5
v 0 2.1 -1.2
v 0.1 2.1 -1.2
v 0.4 2.1 -1.2
v 0.5 2.1 -1.2
v 0 2.1 -1.3
v 0.1 2.1 -1.3
v 0.4 2.1 -1.3
v 0.5 2.1 -1.3
v 0 2.2 -0.2
v 0.1 2.2 -0.2
v 0.4 2.2 -0.2
v 0.5 2.2 -0.2
v 0 2.2 -0.3
v 0.1 2.2 -0.3
v 0.4 2.2 -0.3
v 0.5 2.2 -0.3
v 0 2.2 -0.9
v 0.5 2.2 -0.9
v 0.1 2.2 -1
v 0.4 2.2 -1
v 0 2.2 -1.2
v 0.1 2.2 -1.2
v 0.4 2.2 -1.2
v 0.5 2.2 -1.2
v 0.2 2.2 -1.5
v 0.3 2.2 -1.5
v 0.2 2.2 -1.7
v 0.3 2.2 -1.7
v 0 2.3 -0.3
v 0.1 2.3 -0.3
v 0.4 2.3 -0.3
v 0.5 2.3 -0.3
v 0 2.3 -0.4
v 0.1 2.3 -0.4
v 0.4 2.3 -0.4
v 0.5 2.3 -0.4
v 0.1 2.3 -0.8
v 0.4 2.3 -0.8
v 0.1 2.3 -0.9
v 0.4 2.3 -0.9
v 0.1 2.3 -1
v 0.4 2.3 -1
v 0.1 2.3 -1.1
v 0.4 2.3 -1.1
v 0.2 2.3 -1.3
v 0.3 2.3 -1.3
v 0.2 2.3 -1.5
v 0.3 2.3 -1.5
v 0 2.4 -0.4
v 0.1 2.4 -0.4
v 0.4 2.4 -0.4
v 0.5 2.4 -0.4
v 0 2.4 -0.5
v 0.1 2.4 -0.5
v 0.4 2.4 -0.5
v 0.5 2.4 -0.5
v 0.1 2.4 -0.7
v 0.4 2.4 -0.7
v 0.1 2.4 -0.8
v 0.4 2.4 -0.8
v 0.2 2.4 -1.1
v 0.3 2.4 -1.1
v 0.2 2.4 -1.2
v 0.3 2.4 -1.2
v 0.2 2.4 -1.3
v 0.3 2.4 -1.3
v 0.2 2.5 -0.2
v 0.3 2.5 -0.2
v 0.1 2.5 -0.3
v 0.2 2.5 -0.3
v 0.3 2.5 -0.3
v 0.4 2.5 -0.3
v 0.1 2.5 -0.4
v 0.4 2.5 -0.4
v 0 2.5 -0.5
v 0.1 2.5 -0.5
v 0.4 2.5 -0.5
v 0.5 2.5 -0.5
v 0 2.5 -0.6
v 0.1 2.5 -0.6
v 0.4 2.5 -0.6
v 0.5 2.5 -0.6
v 0.1 2.5 -0.7
v 0.4 2.5 -0.7
v 0.2 2.6 0
v 0.3 2.6 0
v 0.1 2.6 -0.1
v 0.2 2.6 -0.1
v 0.3 2.6 -0.1
v 0.4 2.6 -0.1
v 0.2 2.6 -0.2
v 0.3 2.6 -0.2
v 0.1 2.6 -0.3
v 0.2 2.6 -0.3
v 0.3 2.6 -0.3
v 0.4 2.6 -0.3
v 0.2 2.6 -0.7
v 0.3 2.6 -0.7
v 0.2 2.6 -0.9
v 0.3 2.6 -0.9
v 0 2.7 -0.2
v 0.1 2.7 -0.2
v 0.4 2.7 -0.2
v 0.5 2.7 -0.2
v 0 2.7 -0.3
v 0.1 2.7 -0.3
v 0.4 2.7 -0.3
v 0.5 2.7 -0.3
v 0.2 2.7 -0.4
v 0.3 2.7 -0.4
v 0.2 2.7 -0.6
v 0.3 2.7 -0.6
v 0 2.9 -0.3
v 0.1 2.9 -0.3
v 0.4 2.9 -0.3
v 0.5 2.9 -0.3
v 0.1 2.9 -0.4
v 0.4 2.9 -0.4
v 0 2.9 -0.5
v 0.1 2.9 -0.5
v 0.4 2.9 -0.5
v 0.5 2.9 -0.5
v 0 2.1 -1.3
v 0.1 2.1 -1.3
v 0.4 2.1 -1.3
v 0.5 2.1 -1.3
v 0 2.1 -1.5
v 0.1 2.1 -1.5
v 0.4 2.1 -1.5
v 0.5 2.1 -1.5
v 0 2.2 -1.2
v 0.1 2.2 -1.2
v 0.4 2.2 -1.2
v 0.5 2.2 -1.2
v 0 2.2 -1.3
v 0.1 2.2 -1.3
v 0.4 2.2 -1.3
v 0.5 2.2 -1.3
v 0 2.3 -0.2
v 0.1 2.3 -0.2
v 0.4 2.3 -0.2
v 0.5 2.3 -0.2
v 0 2.3 -0.3
v 0.1 2.3 -0.3
v 0.4 2.3 -0.3
v 0.5 2.3 -0.3
v 0 2.3 -1.1
v 0.1 2.3 -1.1
v 0.4 2.3 -1.1
v 0.5 2.3 -1.1
v 0 2.3 -1.2
v 0.1 2.3 -1.2
v 0.4 2.3 -1.2
v 0.5 2.3 -1.2
v 0.2 2.3 -1.5
v 0.3 2.3 -1.5
v 0.2 2.3 -1.7
v 0.3 2.3 -1.7
v 0 2.4 -0.3
v 0.1 2.4 -0.3
v 0.4 2.4 -0.3
v 0.5 2.4 -0.3
v 0 2.4 -0.4
v 0.1 2.4 -0.4
v 0.4 2.4 -0.4
v 0.5 2.4 -0.4
v 0.2 2.4 -1.3
v 0.3 2.4 -1.3
v 0.2 2.4 -1.5
v 0.3 2.4 -1.5
v 0.2 2.5 -0.7
v 0.3 2.5 -0.7
v 0 2.5 -0.9
v 0.1 2.5 -0.9
v 0.2 2.5 -0.9
v 0.3 2.5 -0.9
v 0.4 2.5 -0.9
v 0.5 2.5 -0.9
v 0 2.5 -1.1
v 0.1 2.5 -1.1
v 0.2 2.5 -1.1
v 0.3 2.5 -1.1
v 0.4 2.5 -1.1
v 0.5 2.5 -1.1
v 0.2 2.5 -1.2
v 0.3 2.5 -1.2
v 0.2 2.5 -1.3
v 0.3 2.5 -1.3
v 0.2 2.6 -0.4
v 0.3 2.6 -0.4
v 0.2 2.6 -0.6
v 0.3 2.6 -0.6
v 0.1 2.6 -0.9
v 0.4 2.6 -0.9
v 0.1 2.6 -1.1
v 0.4 2.6 -1.1
v 0.2 2.7 0
v 0.3 2.7 0
v 0.2 2.7 -0.1
v 0.3 2.7 -0.1
v 0 2.7 -0.4
v 0.1 2.7 -0.4
v 0.4 2.7 -0.4
v 0.5 2.7 -0.4
v 0 2.7 -0.6
v 0.1 2.7 -0.6
v 0.4 2.7 -0.6
v 0.5 2.7 -0.6
v 0.1 2.7 -0.7
v 0.4 2.7 -0.7
v 0.1 2.7 -0.9
v 0.4 2.7 -0.9
v 0.1 2.8 -0.1
v 0.4 2.8 -0.1
v 0 2.8 -0.2
v 0.1 2.8 -0.2
v 0.4 2.8 -0.2
v 0.5 2.8 -0.2
v 0 2.8 -0.3
v 0.1 2.8 -0.3
v 0.4 2.8 -0.3
v 0.5 2.8 -0.3
v 0.1 2.8 -0.4
v 0.4 2.8 -0.4
v 0.1 2.8 -0.7
v 0.4 2.8 -0.7
v 0.1 2.9 -0.2
v 0.4 2.9 -0.2
v 0.1 2.9 -0.3
v 0.4 2.9 -0.3
v 0.1 2.9 -0.4
v 0.4 2.9 -0.4
v 0 3 -0.3
v 0.1 3 -0.3
v 0.4 3 -0.3
v 0.5 3 -0.3
v 0 3 -0.5
v 0.1 3 -0.5
v 0.4 3 -0.5
v 0.5 3 -0.5

# faces
f 4/1/1 2/1/1 1/1/1
f 5/1/1 2/1/1 4/1/1
f 9/2/1 4/2/1 3/2/1
f 10/2/1 4/2/1 9/2/1
f 11/1/1 7/1/1 6/1/1
f 12/1/1 7/1/1 11/1/1
f 14/2/1 9/2/1 8/2/1
f 15/2/1 9/2/1 14/2/1
f 16/1/1 13/1/1 12/1/1
f 17/1/1 13/1/1 16/1/1
f 19/2/1 18/2/1 17/2/1
f 21/2/1 14/2/1 8/2/1
f 22/2/1 14/2/1 21/2/1
f 25/2/1 20/2/1 19/2/1
f 25/2/1 19/2/1 17/2/1
f 26/2/1 20/2/1 25/2/1
f 27/3/1 24/3/1 23/3/1
f 28/3/1 24/3/1 27/3/1
f 31/1/1 30/1/1 29/1/1
f 32/1/1 30/1/1 31/1/1
f 36/2/1 34/2/1 33/2/1
f 40/2/1 36/2/1 35/2/1
f 41/2/1 34/2/1 36/2/1
f 41/2/1 36/2/1 40/2/1
f 44/2/1 38/2/1 37/2/1
f 45/2/1 40/2/1 39/2/1
f 45/2/1 42/2/1 41/2/1
f 45/2/1 41/2/1 40/2/1
f 46/2/1 42/2/1 45/2/1
f 47/2/1 44/2/1 43/2/1
f 48/2/1 38/2/1 44/2/1
f 48/2/1 44/2/1 47/2/1
f 49/2/1 38/2/1 48/2/1
f 50/2/1 45/2/1 39/2/1
f 51/2/1 45/2/1 50/2/1
f 52/2/1 45/2/1 51/2/1
f 53/2/1 47/2/1 43/2/1
f 54/2/1 47/2/1 53/2/1
f 55/2/1 49/2/1 48/2/1
f 55/2/1 51/2/1 50/2/1
f 55/2/1 50/2/1 49/2/1
f 56/2/1 51/2/1 55/2/1
f 57/2/1 51/2/1 56/2/1
f 58/2/1 55/2/1 54/2/1
f 58/2/1 56/2/1 55/2/1
f 59/2/1 56/2/1 58/2/1
f 60/2/1 56/2/1 59/2/1
f 64/1/1 62/1/1 61/1/1
f 65/1/1 62/1/1 64/1/1
f 68/1/1 64/1/1 63/1/1
f 69/1/1 64/1/1 68/1/1
f 72/2/1 67/2/1 66/2/1
f 73/1/1 68/1/1 67/1/1
f 73/2/1 67/2/1 72/2/1
f 74/1/1 68/1/1 73/1/1
f 77/2/1 71/2/1 70/2/1
f 78/2/1 71/2/1 77/2/1
f 79/1/1 76/1/1 75/1/1
f 80/1/1 76/1/1 79/1/1
f 85/2/1 82/2/1 81/2/1
f 86/2/1 82/2/1 85/2/1
f 87/2/1 84/2/1 83/2/1
f 88/2/1 84/2/1 87/2/1
f 92/1/1 90/1/1 89/1/1
f 93/1/1 90/1/1 92/1/1
f 97/2/1 92/2/1 91/2/1
f 98/2/1 92/2/1 97/2/1
f 99/1/1 95/1/1 94/1/1
f 100/1/1 95/1/1 99/1/1
f 102/2/1 97/2/1 96/2/1
f 103/2/1 97/2/1 102/2/1
f 104/2/1 97/2/1 103/2/1
f 105/1/1 101/1/1 100/1/1
f 106/1/1 101/1/1 105/1/1
f 108/2/1 107/2/1 106/2/1
f 109/2/1 107/2/1 108/2/1
f 113/1/1 111/1/1 110/1/1
f 113/1/1 112/1/1 111/1/1
f 114/1/1 112/1/1 113/1/1
f 115/1/2 116/1/2 118/1/2
f 118/1/2 116/1/2 119/1/2
f 117/2/2 118/2/2 123/2/2
f 123/2/2 118/2/2 124/2/2
f 120/1/2 121/1/2 125/1/2
f 125/1/2 121/1/2 126/1/2
f 122/2/2 123/2/2 128/2/2
f 128/2/2 123/2/2 129/2/2
f 129/2/2 123/2/2 130/2/2
f 126/1/2 127/1/2 131/1/2
f 131/1/2 127/1/2 132/1/2
f 132/2/2 133/2/2 134/2/2
f 134/2/2 133/2/2 135/2/2
f 136/1/2 137/1/2 139/1/2
f 137/1/2 138/1/2 139/1/2
f 139/1/2 138/1/2 140/1/2
f 141/2/2 142/2/2 145/2/2
f 145/2/2 142/2/2 146/2/2
f 143/2/2 144/2/2 147/2/2
f 147/2/2 144/2/2 148/2/2
f 149/1/2 150/1/2 152/1/2
f 152/1/2 150/1/2 153/1/2
f 151/1/2 152/1/2 156/1/2
f 156/1/2 152/1/2 157/1/2
f 154/2/2 155/2/2 160/2/2
f 155/1/2 156/1/2 161/1/2
f 160/2/2 155/2/2 161/2/2
f 161/1/2 156/1/2 162/1/2
f 158/2/2 159/2/2 165/2/2
f 165/2/2 159/2/2 166/2/2
f 163/1/2 164/1/2 167/1/2
f 167/1/2 164/1/2 168/1/2
f 169/2/2 170/2/2 172/2/2
f 171/2/2 172/2/2 176/2/2
f 172/2/2 170/2/2 177/2/2
f 176/2/2 172/2/2 177/2/2
f 173/2/2 174/2/2 180/2/2
f 175/2/2 176/2/2 181/2/2
f 177/2/2 178/2/2 181/2/2
f 176/2/2 177/2/2 181/2/2
f 181/2/2 178/2/2 182/2/2
f 179/2/2 180/2/2 183/2/2
f 180/2/2 174/2/2 184/2/2
f 183/2/2 180/2/2 184/2/2
f 184/2/2 174/2/2 185/2/2
f 175/2/2 181/2/2 186/2/2
f 186/2/2 181/2/2 187/2/2
f 187/2/2 181/2/2 188/2/2
f 179/2/2 183/2/2 189/2/2
f 189/2/2 183/2/2 190/2/2
f 184/2/2 185/2/2 191/2/2
f 186/2/2 187/2/2 191/2/2
f 185/2/2 186/2/2 191/2/2
f 191/2/2 187/2/2 192/2/2
f 192/2/2 187/2/2 193/2/2
f 190/2/2 191/2/2 194/2/2
f 191/2/2 192/2/2 194/2/2
f 194/2/2 192/2/2 195/2/2
f 195/2/2 192/2/2 196/2/2
f 197/1/2 198/1/2 200/1/2
f 200/1/2 198/1/2 201/1/2
f 199/2/2 200/2/2 205/2/2
f 205/2/2 200/2/2 206/2/2
f 202/1/2 203/1/2 207/1/2
f 207/1/2 203/1/2 208/1/2
f 204/2/2 205/2/2 210/2/2
f 210/2/2 205/2/2 211/2/2
f 208/1/2 209/1/2 212/1/2
f 212/1/2 209/1/2 213/1/2
f 213/2/2 214/2/2 215/2/2
f 204/2/2 210/2/2 217/2/2
f 217/2/2 210/2/2 218/2/2
f 215/2/2 216/2/2 221/2/2
f 213/2/2 215/2/2 221/2/2
f 221/2/2 216/2/2 222/2/2
f 219/3/2 220/3/2 223/3/2
f 223/3/2 220/3/2 224/3/2
f 225/1/2 226/1/2 227/1/2
f 227/1/2 226/1/2 228/1/2
f 231/1/3 230/1/3 229/1/3
f 232/1/3 230/1/3 231/1/3
f 235/2/3 234/2/3 233/2/3
f 236/2/3 234/2/3 235/2/3
f 238/2/3 234/2/3 236/2/3
f 239/2/3 238/2/3 237/2/3
f 240/2/3 234/2/3 238/2/3
f 240/2/3 238/2/3 239/2/3
f 245/1/3 242/1/3 241/1/3
f 246/1/3 242/1/3 245/1/3
f 247/3/3 244/3/3 243/3/3
f 248/3/3 244/3/3 247/3/3
f 252/2/3 251/2/3 250/2/3
f 253/2/3 251/2/3 252/2/3
f 257/2/3 249/2/3 248/2/3
f 258/2/3 249/2/3 257/2/3
f 259/1/3 255/1/3 254/1/3
f 260/1/3 255/1/3 259/1/3
f 261/3/3 257/3/3 256/3/3
f 262/3/3 257/3/3 261/3/3
f 267/1/3 264/1/3 263/1/3
f 268/1/3 264/1/3 267/1/3
f 271/1/3 266/1/3 265/1/3
f 272/1/3 266/1/3 271/1/3
f 273/2/3 270/2/3 269/2/3
f 274/2/3 270/2/3 273/2/3
f 279/2/3 276/2/3 275/2/3
f 280/2/3 276/2/3 279/2/3
f 283/1/3 278/1/3 277/1/3
f 284/1/3 278/1/3 283/1/3
f 285/1/3 282/1/3 281/1/3
f 286/1/3 282/1/3 285/1/3
f 289/2/3 288/2/3 287/2/3
f 290/2/3 288/2/3 289/2/3
f 291/2/3 288/2/3 290/2/3
f 295/2/3 293/2/3 292/2/3
f 295/2/3 294/2/3 293/2/3
f 296/2/3 294/2/3 295/2/3
f 299/2/3 298/2/3 297/2/3
f 300/2/3 298/2/3 299/2/3
f 303/2/3 302/2/3 301/2/3
f 304/2/3 302/2/3 303/2/3
f 307/2/3 306/2/3 305/2/3
f 308/2/3 306/2/3 307/2/3
f 311/2/3 310/2/3 309/2/3
f 312/2/3 310/2/3 311/2/3
f 315/2/3 314/2/3 313/2/3
f 316/2/3 314/2/3 315/2/3
f 317/2/3 311/2/3 309/2/3
f 319/2/3 317/2/3 309/2/3
f 319/2/3 318/2/3 317/2/3
f 320/2/3 318/2/3 319/2/3
f 323/2/3 322/2/3 321/2/3
f 324/2/3 322/2/3 323/2/3
f 327/2/3 326/2/3 325/2/3
f 328/2/3 326/2/3 327/2/3
f 331/1/3 330/1/3 329/1/3
f 332/1/3 330/1/3 331/1/3
f 335/1/3 334/1/3 333/1/3
f 336/1/3 334/1/3 335/1/3
f 339/1/3 338/1/3 337/1/3
f 340/1/3 338/1/3 339/1/3
f 343/1/3 342/1/3 341/1/3
f 344/1/3 342/1/3 343/1/3
f 345/1/4 346/1/4 349/1/4
f 349/1/4 346/1/4 350/1/4
f 347/3/4 348/3/4 351/3/4
f 351/3/4 348/3/4 352/3/4
f 353/1/4 354/1/4 357/1/4
f 357/1/4 354/1/4 358/1/4
f 355/3/4 356/3/4 359/3/4
f 359/3/4 356/3/4 360/3/4
f 361/1/4 362/1/4 363/1/4
f 363/1/4 362/1/4 364/1/4
f 367/2/4 368/2/4 369/2/4
f 369/2/4 368/2/4 370/2/4
f 365/2/4 366/2/4 373/2/4
f 373/2/4 366/2/4 374/2/4
f 371/1/4 372/1/4 375/1/4
f 375/1/4 372/1/4 376/1/4
f 377/2/4 378/2/4 381/2/4
f 381/2/4 378/2/4 382/2/4
f 379/1/4 380/1/4 383/1/4
f 383/1/4 380/1/4 384/1/4
f 385/2/4 386/2/4 389/2/4
f 389/2/4 386/2/4 390/2/4
f 387/1/4 388/1/4 391/1/4
f 391/1/4 388/1/4 392/1/4
f 393/2/4 394/2/4 395/2/4
f 395/2/4 394/2/4 396/2/4
f 397/2/4 398/2/4 399/2/4
f 399/2/4 398/2/4 400/2/4
f 403/2/4 404/2/4 405/2/4
f 405/2/4 404/2/4 406/2/4
f 401/2/4 402/2/4 407/2/4
f 407/2/4 402/2/4 408/2/4
f 409/2/4 410/2/4 411/2/4
f 411/2/4 410/2/4 412/2/4
f 413/2/4 414/2/4 415/2/4
f 415/2/4 414/2/4 416/2/4
f 417/2/4 418/2/4 419/2/4
f 419/2/4 418/2/4 420/2/4
f 419/2/4 420/2/4 422/2/4
f 420/2/4 421/2/4 422/2/4
f 422/2/4 421/2/4 423/2/4
f 419/2/4 422/2/4 424/2/4
f 423/2/4 421/2/4 425/2/4
f 419/2/4 424/2/4 426/2/4
f 424/2/4 425/2/4 426/2/4
f 425/2/4 421/2/4 427/2/4
f 426/2/4 425/2/4 427/2/4
f 427/2/4 421/2/4 428/2/4
f 426/2/4 427/2/4 429/2/4
f 429/2/4 427/2/4 430/2/4
f 431/2/4 432/2/4 433/2/4
f 433/2/4 432/2/4 434/2/4
f 435/2/4 436/2/4 437/2/4
f 437/2/4 436/2/4 438/2/4
f 439/2/4 440/2/4 441/2/4
f 441/2/4 440/2/4 442/2/4
f 443/1/4 444/1/4 445/1/4
f 445/1/4 444/1/4 446/1/4
f 447/2/4 448/2/4 449/2/4
f 449/2/4 448/2/4 450/2/4
f 451/1/4 452/1/4 453/1/4
f 453/1/4 452/1/4 454/1/4
f 455/1/4 456/1/4 457/1/4
f 457/1/4 456/1/4 458/1/4
f 459/1/4 460/1/4 461/1/4
f 461/1/4 460/1/4 462/1/4
f 463/1/4 464/1/4 465/1/4
f 465/1/4 464/1/4 466/1/4
f 471/1/5 468/1/5 467/1/5
f 472/1/5 468/1/5 471/1/5
f 473/1/5 470/1/5 469/1/5
f 474/1/5 470/1/5 473/1/5
f 479/2/5 476/2/5 475/2/5
f 480/2/5 476/2/5 479/2/5
f 481/2/5 478/2/5 477/2/5
f 482/2/5 478/2/5 481/2/5
f 487/1/5 484/1/5 483/1/5
f 488/1/5 484/1/5 487/1/5
f 489/1/5 486/1/5 485/1/5
f 490/1/5 486/1/5 489/1/5
f 493/2/5 492/2/5 491/2/5
f 494/2/5 492/2/5 493/2/5
f 495/2/5 493/2/5 491/2/5
f 496/2/5 493/2/5 495/2/5
f 497/2/5 492/2/5 494/2/5
f 498/2/5 492/2/5 497/2/5
f 501/1/5 500/1/5 499/1/5
f 502/1/5 500/1/5 501/1/5
f 507/1/5 504/1/5 503/1/5
f 508/1/5 504/1/5 507/1/5
f 509/1/5 506/1/5 505/1/5
f 510/1/5 506/1/5 509/1/5
f 513/2/5 512/2/5 511/2/5
f 514/2/5 512/2/5 513/2/5
f 517/2/5 516/2/5 515/2/5
f 518/2/5 516/2/5 517/2/5
f 521/1/5 520/1/5 519/1/5
f 522/1/5 520/1/5 521/1/5
f 527/2/5 524/2/5 523/2/5
f 528/2/5 524/2/5 527/2/5
f 529/2/5 526/2/5 525/2/5
f 530/2/5 526/2/5 529/2/5
f 533/2/5 532/2/5 531/2/5
f 534/2/5 532/2/5 533/2/5
f 537/2/5 536/2/5 535/2/5
f 538/2/5 536/2/5 537/2/5
f 539/1/5 538/1/5 537/1/5
f 540/1/5 538/1/5 539/1/5
f 544/2/5 542/2/5 541/2/5
f 545/2/5 542/2/5 544/2/5
f 547/2/5 544/2/5 543/2/5
f 547/2/5 546/2/5 545/2/5
f 547/2/5 545/2/5 544/2/5
f 548/2/5 546/2/5 547/2/5
f 550/2/5 548/2/5 547/2/5
f 551/2/5 548/2/5 550/2/5
f 553/2/5 551/2/5 550/2/5
f 553/2/5 552/2/5 551/2/5
f 553/2/5 550/2/5 549/2/5
f 554/2/5 552/2/5 553/2/5
f 555/2/5 552/2/5 554/2/5
f 556/2/5 552/2/5 555/2/5
f 557/2/5 555/2/5 554/2/5
f 558/2/5 555/2/5 557/2/5
f 562/1/5 560/1/5 559/1/5
f 563/1/5 560/1/5 562/1/5
f 565/2/5 562/2/5 561/2/5
f 565/2/5 564/2/5 563/2/5
f 565/2/5 563/2/5 562/2/5
f 566/2/5 564/2/5 565/2/5
f 567/2/5 565/2/5 561/2/5
f 568/2/5 565/2/5 567/2/5
f 569/2/5 564/2/5 566/2/5
f 570/2/5 564/2/5 569/2/5
f 573/2/5 572/2/5 571/2/5
f 574/2/5 572/2/5 573/2/5
f 579/3/5 576/3/5 575/3/5
f 580/3/5 576/3/5 579/3/5
f 581/3/5 578/3/5 577/3/5
f 582/3/5 578/3/5 581/3/5
f 585/2/5 584/2/5 583/2/5
f 586/2/5 584/2/5 585/2/5
f 591/1/5 588/1/5 587/1/5
f 592/1/5 590/1/5 589/1/5
f 593/1/5 591/1/5 587/1/5
f 594/1/5 591/1/5 593/1/5
f 595/1/5 590/1/5 592/1/5
f 596/1/5 590/1/5 595/1/5
f 597/1/6 598/1/6 601/1/6
f 601/1/6 598/1/6 602/1/6
f 599/1/6 600/1/6 603/1/6
f 603/1/6 600/1/6 604/1/6
f 605/2/6 606/2/6 609/2/6
f 609/2/6 606/2/6 610/2/6
f 607/2/6 608/2/6 611/2/6
f 611/2/6 608/2/6 612/2/6
f 613/1/6 614/1/6 617/1/6
f 617/1/6 614/1/6 618/1/6
f 615/1/6 616/1/6 619/1/6
f 619/1/6 616/1/6 620/1/6
f 621/2/6 622/2/6 625/2/6
f 625/2/6 622/2/6 626/2/6
f 623/2/6 624/2/6 627/2/6
f 627/2/6 624/2/6 628/2/6
f 629/1/6 630/1/6 631/1/6
f 631/1/6 630/1/6 632/1/6
f 633/1/6 634/1/6 637/1/6
f 637/1/6 634/1/6 638/1/6
f 635/1/6 636/1/6 639/1/6
f 639/1/6 636/1/6 640/1/6
f 641/1/6 642/1/6 643/1/6
f 643/1/6 642/1/6 644/1/6
f 645/2/6 646/2/6 649/2/6
f 649/2/6 646/2/6 650/2/6
f 647/2/6 648/2/6 653/2/6
f 653/2/6 648/2/6 654/2/6
f 651/2/6 652/2/6 657/2/6
f 657/2/6 652/2/6 658/2/6
f 655/2/6 656/2/6 659/2/6
f 659/2/6 656/2/6 660/2/6
f 659/1/6 660/1/6 661/1/6
f 661/1/6 660/1/6 662/1/6
f 663/2/6 664/2/6 665/2/6
f 665/2/6 664/2/6 666/2/6
f 667/2/6 668/2/6 669/2/6
f 669/2/6 668/2/6 670/2/6
f 671/1/6 672/1/6 673/1/6
f 673/1/6 672/1/6 674/1/6
f 675/2/6 676/2/6 679/2/6
f 679/2/6 676/2/6 680/2/6
f 677/2/6 678/2/6 681/2/6
f 681/2/6 678/2/6 682/2/6
f 683/2/6 684/2/6 685/2/6
f 685/2/6 684/2/6 686/2/6
f 687/2/6 688/2/6 690/2/6
f 690/2/6 688/2/6 691/2/6
f 689/3/6 690/3/6 693/3/6
f 693/3/6 690/3/6 694/3/6
f 691/3/6 692/3/6 695/3/6
f 695/3/6 692/3/6 696/3/6
f 697/2/6 698/2/6 699/2/6
f 699/2/6 698/2/6 700/2/6
f 701/2/6 702/2/6 703/2/6
f 703/2/6 702/2/6 704/2/6
f 703/2/6 704/2/6 705/2/6
f 705/2/6 704/2/6 706/2/6
f 707/1/6 708/1/6 711/1/6
f 711/1/6 708/1/6 712/1/6
f 709/1/6 710/1/6 713/1/6
f 713/1/6 710/1/6 714/1/6
