# MagicaVoxel @ Ephtracy

# group
o 

# material
mtllib rat_roll_5.mtl
usemtl palette

# normals
vn -1 0 0
vn 1 0 0
vn 0 0 1
vn 0 0 -1
vn 0 -1 0
vn 0 1 0

# texcoords
vt 0.0292969 0.5
vt 0.982422 0.5
vt 0.994141 0.5

# verts
v 0 2 -0.6
v 0 2 -0.7
v 0 2.1 -0.5
v 0 2.1 -0.6
v 0 2.1 -0.7
v 0 2.1 -0.8
v 0 2.2 -0.8
v 0 2.2 -0.9
v 0 2.3 -0.2
v 0 2.3 -0.3
v 0 2.3 -0.4
v 0 2.3 -0.5
v 0 2.3 -0.6
v 0 2.4 0
v 0 2.4 -0.1
v 0 2.4 -0.2
v 0 2.4 -0.3
v 0 2.4 -0.4
v 0 2.4 -0.5
v 0 2.5 0
v 0 2.5 -0.1
v 0 2.5 -0.2
v 0 2.5 -0.5
v 0 2.5 -0.6
v 0 2.5 -0.7
v 0 2.5 -0.9
v 0 2.6 -0.1
v 0 2.6 -0.2
v 0 2.7 -0.4
v 0 2.7 -0.6
v 0.1 2.2 -0.2
v 0.1 2.2 -0.4
v 0.1 2.3 -0.1
v 0.1 2.3 -0.2
v 0.1 2.3 -0.3
v 0.1 2.3 -0.4
v 0.1 2.3 -0.6
v 0.1 2.3 -0.7
v 0.1 2.4 -0.1
v 0.1 2.4 -0.2
v 0.1 2.4 -0.3
v 0.1 2.4 -0.4
v 0.1 2.4 -0.5
v 0.1 2.4 -0.6
v 0.1 2.5 -0.1
v 0.1 2.5 -0.2
v 0.1 2.5 -0.5
v 0.1 2.5 -0.6
v 0.1 2.5 -0.7
v 0.1 2.5 -0.9
v 0.1 2.6 -0.2
v 0.1 2.6 -0.4
v 0.1 2.6 -0.7
v 0.1 2.6 -0.9
v 0.1 2.7 -0.6
v 0.1 2.7 -0.7
v 0.2 2 -0.8
v 0.2 2 -1
v 0.2 2.1 -0.3
v 0.2 2.1 -0.4
v 0.2 2.1 -0.8
v 0.2 2.1 -1
v 0.2 2.1 -1.1
v 0.2 2.2 -0.3
v 0.2 2.2 -0.4
v 0.2 2.3 -0.4
v 0.2 2.3 -0.5
v 0.2 2.3 -0.9
v 0.2 2.3 -1
v 0.2 2.3 -1.1
v 0.2 2.4 -0.4
v 0.2 2.4 -0.5
v 0.2 2.4 -0.9
v 0.2 2.4 -1
v 0.2 2.5 -0.5
v 0.2 2.5 -0.6
v 0.2 2.5 -0.9
v 0.2 2.5 -1
v 0.2 2.6 -0.5
v 0.2 2.6 -0.6
v 0.3 2.5 -0.6
v 0.3 2.5 -0.7
v 0.3 2.6 -0.6
v 0.3 2.6 -0.7
v 0.4 2 -0.6
v 0.4 2 -0.7
v 0.4 2.1 -0.5
v 0.4 2.1 -0.6
v 0.4 2.1 -0.7
v 0.4 2.1 -0.8
v 0.4 2.2 -0.7
v 0.4 2.2 -0.8
v 0.4 2.2 -0.9
v 0.4 2.3 -0.4
v 0.4 2.3 -0.5
v 0.4 2.3 -0.6
v 0.4 2.3 -0.8
v 0.4 2.3 -0.9
v 0.4 2.4 0
v 0.4 2.4 -0.1
v 0.4 2.4 -0.4
v 0.4 2.4 -0.5
v 0.4 2.5 0
v 0.4 2.5 -0.1
v 0.4 2.5 -0.2
v 0.4 2.5 -0.5
v 0.4 2.5 -0.6
v 0.4 2.6 -0.1
v 0.4 2.6 -0.2
v 0.4 2.6 -0.5
v 0.4 2.6 -0.6
v 0.1 2 -0.6
v 0.1 2 -0.7
v 0.1 2.1 -0.5
v 0.1 2.1 -0.6
v 0.1 2.1 -0.7
v 0.1 2.1 -0.8
v 0.1 2.2 -0.7
v 0.1 2.2 -0.8
v 0.1 2.2 -0.9
v 0.1 2.3 -0.4
v 0.1 2.3 -0.5
v 0.1 2.3 -0.6
v 0.1 2.3 -0.8
v 0.1 2.3 -0.9
v 0.1 2.4 0
v 0.1 2.4 -0.1
v 0.1 2.4 -0.4
v 0.1 2.4 -0.5
v 0.1 2.5 0
v 0.1 2.5 -0.1
v 0.1 2.5 -0.2
v 0.1 2.5 -0.5
v 0.1 2.5 -0.6
v 0.1 2.6 -0.1
v 0.1 2.6 -0.2
v 0.1 2.6 -0.5
v 0.1 2.6 -0.6
v 0.2 2.5 -0.6
v 0.2 2.5 -0.7
v 0.2 2.6 -0.6
v 0.2 2.6 -0.7
v 0.3 2 -0.8
v 0.3 2 -1
v 0.3 2.1 -0.3
v 0.3 2.1 -0.4
v 0.3 2.1 -0.8
v 0.3 2.1 -1
v 0.3 2.1 -1.1
v 0.3 2.2 -0.3
v 0.3 2.2 -0.4
v 0.3 2.3 -0.4
v 0.3 2.3 -0.5
v 0.3 2.3 -0.9
v 0.3 2.3 -1
v 0.3 2.3 -1.1
v 0.3 2.4 -0.4
v 0.3 2.4 -0.5
v 0.3 2.4 -0.9
v 0.3 2.4 -1
v 0.3 2.5 -0.5
v 0.3 2.5 -0.6
v 0.3 2.5 -0.9
v 0.3 2.5 -1
v 0.3 2.6 -0.5
v 0.3 2.6 -0.6
v 0.4 2.2 -0.2
v 0.4 2.2 -0.4
v 0.4 2.3 -0.1
v 0.4 2.3 -0.2
v 0.4 2.3 -0.3
v 0.4 2.3 -0.4
v 0.4 2.3 -0.6
v 0.4 2.3 -0.7
v 0.4 2.4 -0.1
v 0.4 2.4 -0.2
v 0.4 2.4 -0.3
v 0.4 2.4 -0.4
v 0.4 2.4 -0.5
v 0.4 2.4 -0.6
v 0.4 2.5 -0.1
v 0.4 2.5 -0.2
v 0.4 2.5 -0.5
v 0.4 2.5 -0.6
v 0.4 2.5 -0.7
v 0.4 2.5 -0.9
v 0.4 2.6 -0.2
v 0.4 2.6 -0.4
v 0.4 2.6 -0.7
v 0.4 2.6 -0.9
v 0.4 2.7 -0.6
v 0.4 2.7 -0.7
v 0.5 2 -0.6
v 0.5 2 -0.7
v 0.5 2.1 -0.5
v 0.5 2.1 -0.6
v 0.5 2.1 -0.7
v 0.5 2.1 -0.8
v 0.5 2.2 -0.8
v 0.5 2.2 -0.9
v 0.5 2.3 -0.2
v 0.5 2.3 -0.3
v 0.5 2.3 -0.4
v 0.5 2.3 -0.5
v 0.5 2.3 -0.6
v 0.5 2.4 0
v 0.5 2.4 -0.1
v 0.5 2.4 -0.2
v 0.5 2.4 -0.3
v 0.5 2.4 -0.4
v 0.5 2.4 -0.5
v 0.5 2.5 0
v 0.5 2.5 -0.1
v 0.5 2.5 -0.2
v 0.5 2.5 -0.5
v 0.5 2.5 -0.6
v 0.5 2.5 -0.7
v 0.5 2.5 -0.9
v 0.5 2.6 -0.1
v 0.5 2.6 -0.2
v 0.5 2.7 -0.4
v 0.5 2.7 -0.6
v 0 2.4 0
v 0 2.5 0
v 0.1 2.4 0
v 0.1 2.5 0
v 0.4 2.4 0
v 0.4 2.5 0
v 0.5 2.4 0
v 0.5 2.5 0
v 0 2.5 -0.1
v 0 2.6 -0.1
v 0.1 2.3 -0.1
v 0.1 2.4 -0.1
v 0.1 2.5 -0.1
v 0.1 2.6 -0.1
v 0.4 2.3 -0.1
v 0.4 2.4 -0.1
v 0.4 2.5 -0.1
v 0.4 2.6 -0.1
v 0.5 2.5 -0.1
v 0.5 2.6 -0.1
v 0 2.3 -0.2
v 0 2.4 -0.2
v 0.1 2.2 -0.2
v 0.1 2.3 -0.2
v 0.1 2.4 -0.2
v 0.1 2.5 -0.2
v 0.1 2.6 -0.2
v 0.4 2.2 -0.2
v 0.4 2.3 -0.2
v 0.4 2.4 -0.2
v 0.4 2.5 -0.2
v 0.4 2.6 -0.2
v 0.5 2.3 -0.2
v 0.5 2.4 -0.2
v 0.2 2.1 -0.3
v 0.2 2.2 -0.3
v 0.3 2.1 -0.3
v 0.3 2.2 -0.3
v 0 2.3 -0.4
v 0 2.4 -0.4
v 0 2.7 -0.4
v 0.1 2.3 -0.4
v 0.1 2.4 -0.4
v 0.1 2.6 -0.4
v 0.4 2.3 -0.4
v 0.4 2.4 -0.4
v 0.4 2.6 -0.4
v 0.5 2.3 -0.4
v 0.5 2.4 -0.4
v 0.5 2.7 -0.4
v 0 2.1 -0.5
v 0 2.3 -0.5
v 0.1 2.1 -0.5
v 0.1 2.3 -0.5
v 0.4 2.1 -0.5
v 0.4 2.3 -0.5
v 0.5 2.1 -0.5
v 0.5 2.3 -0.5
v 0 2 -0.6
v 0 2.1 -0.6
v 0.1 2 -0.6
v 0.1 2.1 -0.6
v 0.1 2.3 -0.6
v 0.1 2.4 -0.6
v 0.1 2.5 -0.6
v 0.1 2.6 -0.6
v 0.2 2.5 -0.6
v 0.2 2.6 -0.6
v 0.3 2.5 -0.6
v 0.3 2.6 -0.6
v 0.4 2 -0.6
v 0.4 2.1 -0.6
v 0.4 2.3 -0.6
v 0.4 2.4 -0.6
v 0.4 2.5 -0.6
v 0.4 2.6 -0.6
v 0.5 2 -0.6
v 0.5 2.1 -0.6
v 0 2.1 -0.7
v 0 2.5 -0.7
v 0.1 2.1 -0.7
v 0.1 2.2 -0.7
v 0.1 2.3 -0.7
v 0.1 2.5 -0.7
v 0.2 2.5 -0.7
v 0.2 2.6 -0.7
v 0.3 2.5 -0.7
v 0.3 2.6 -0.7
v 0.4 2.1 -0.7
v 0.4 2.2 -0.7
v 0.4 2.3 -0.7
v 0.4 2.5 -0.7
v 0.5 2.1 -0.7
v 0.5 2.5 -0.7
v 0.2 2 -0.8
v 0.2 2.1 -0.8
v 0.3 2 -0.8
v 0.3 2.1 -0.8
v 0.2 2.1 -1
v 0.2 2.3 -1
v 0.3 2.1 -1
v 0.3 2.3 -1
v 0 2.4 -0.1
v 0 2.5 -0.1
v 0.1 2.4 -0.1
v 0.1 2.5 -0.1
v 0.4 2.4 -0.1
v 0.4 2.5 -0.1
v 0.5 2.4 -0.1
v 0.5 2.5 -0.1
v 0 2.5 -0.2
v 0 2.6 -0.2
v 0.1 2.5 -0.2
v 0.1 2.6 -0.2
v 0.4 2.5 -0.2
v 0.4 2.6 -0.2
v 0.5 2.5 -0.2
v 0.5 2.6 -0.2
v 0 2.3 -0.3
v 0 2.4 -0.3
v 0.1 2.3 -0.3
v 0.1 2.4 -0.3
v 0.4 2.3 -0.3
v 0.4 2.4 -0.3
v 0.5 2.3 -0.3
v 0.5 2.4 -0.3
v 0.1 2.2 -0.4
v 0.1 2.3 -0.4
v 0.1 2.4 -0.4
v 0.2 2.1 -0.4
v 0.2 2.2 -0.4
v 0.2 2.3 -0.4
v 0.2 2.4 -0.4
v 0.3 2.1 -0.4
v 0.3 2.2 -0.4
v 0.3 2.3 -0.4
v 0.3 2.4 -0.4
v 0.4 2.2 -0.4
v 0.4 2.3 -0.4
v 0.4 2.4 -0.4
v 0 2.3 -0.5
v 0 2.4 -0.5
v 0 2.5 -0.5
v 0.1 2.3 -0.5
v 0.1 2.4 -0.5
v 0.1 2.5 -0.5
v 0.1 2.6 -0.5
v 0.2 2.3 -0.5
v 0.2 2.4 -0.5
v 0.2 2.5 -0.5
v 0.2 2.6 -0.5
v 0.3 2.3 -0.5
v 0.3 2.4 -0.5
v 0.3 2.5 -0.5
v 0.3 2.6 -0.5
v 0.4 2.3 -0.5
v 0.4 2.4 -0.5
v 0.4 2.5 -0.5
v 0.4 2.6 -0.5
v 0.5 2.3 -0.5
v 0.5 2.4 -0.5
v 0.5 2.5 -0.5
v 0 2.1 -0.6
v 0 2.3 -0.6
v 0 2.5 -0.6
v 0 2.7 -0.6
v 0.1 2.1 -0.6
v 0.1 2.3 -0.6
v 0.1 2.5 -0.6
v 0.1 2.7 -0.6
v 0.2 2.5 -0.6
v 0.2 2.6 -0.6
v 0.3 2.5 -0.6
v 0.3 2.6 -0.6
v 0.4 2.1 -0.6
v 0.4 2.3 -0.6
v 0.4 2.5 -0.6
v 0.4 2.7 -0.6
v 0.5 2.1 -0.6
v 0.5 2.3 -0.6
v 0.5 2.5 -0.6
v 0.5 2.7 -0.6
v 0 2 -0.7
v 0 2.1 -0.7
v 0.1 2 -0.7
v 0.1 2.1 -0.7
v 0.1 2.6 -0.7
v 0.1 2.7 -0.7
v 0.4 2 -0.7
v 0.4 2.1 -0.7
v 0.4 2.6 -0.7
v 0.4 2.7 -0.7
v 0.5 2 -0.7
v 0.5 2.1 -0.7
v 0 2.1 -0.8
v 0 2.2 -0.8
v 0.1 2.1 -0.8
v 0.1 2.2 -0.8
v 0.1 2.3 -0.8
v 0.4 2.1 -0.8
v 0.4 2.2 -0.8
v 0.4 2.3 -0.8
v 0.5 2.1 -0.8
v 0.5 2.2 -0.8
v 0 2.2 -0.9
v 0 2.5 -0.9
v 0.1 2.2 -0.9
v 0.1 2.3 -0.9
v 0.1 2.5 -0.9
v 0.1 2.6 -0.9
v 0.2 2.3 -0.9
v 0.2 2.4 -0.9
v 0.2 2.5 -0.9
v 0.3 2.3 -0.9
v 0.3 2.4 -0.9
v 0.3 2.5 -0.9
v 0.4 2.2 -0.9
v 0.4 2.3 -0.9
v 0.4 2.5 -0.9
v 0.4 2.6 -0.9
v 0.5 2.2 -0.9
v 0.5 2.5 -0.9
v 0.2 2 -1
v 0.2 2.1 -1
v 0.2 2.3 -1
v 0.2 2.4 -1
v 0.2 2.5 -1
v 0.3 2 -1
v 0.3 2.1 -1
v 0.3 2.3 -1
v 0.3 2.4 -1
v 0.3 2.5 -1
v 0.2 2.1 -1.1
v 0.2 2.3 -1.1
v 0.3 2.1 -1.1
v 0.3 2.3 -1.1
v 0 2 -0.6
v 0.1 2 -0.6
v 0.4 2 -0.6
v 0.5 2 -0.6
v 0 2 -0.7
v 0.1 2 -0.7
v 0.4 2 -0.7
v 0.5 2 -0.7
v 0.2 2 -0.8
v 0.3 2 -0.8
v 0.2 2 -1
v 0.3 2 -1
v 0.2 2.1 -0.3
v 0.3 2.1 -0.3
v 0.2 2.1 -0.4
v 0.3 2.1 -0.4
v 0 2.1 -0.5
v 0.1 2.1 -0.5
v 0.4 2.1 -0.5
v 0.5 2.1 -0.5
v 0 2.1 -0.6
v 0.1 2.1 -0.6
v 0.4 2.1 -0.6
v 0.5 2.1 -0.6
v 0 2.1 -0.7
v 0.1 2.1 -0.7
v 0.4 2.1 -0.7
v 0.5 2.1 -0.7
v 0 2.1 -0.8
v 0.1 2.1 -0.8
v 0.4 2.1 -0.8
v 0.5 2.1 -0.8
v 0.2 2.1 -1
v 0.3 2.1 -1
v 0.2 2.1 -1.1
v 0.3 2.1 -1.1
v 0.1 2.2 -0.2
v 0.4 2.2 -0.2
v 0.2 2.2 -0.3
v 0.3 2.2 -0.3
v 0.1 2.2 -0.4
v 0.2 2.2 -0.4
v 0.3 2.2 -0.4
v 0.4 2.2 -0.4
v 0.1 2.2 -0.7
v 0.4 2.2 -0.7
v 0 2.2 -0.8
v 0.1 2.2 -0.8
v 0.4 2.2 -0.8
v 0.5 2.2 -0.8
v 0 2.2 -0.9
v 0.1 2.2 -0.9
v 0.4 2.2 -0.9
v 0.5 2.2 -0.9
v 0.1 2.3 -0.1
v 0.4 2.3 -0.1
v 0 2.3 -0.2
v 0.1 2.3 -0.2
v 0.4 2.3 -0.2
v 0.5 2.3 -0.2
v 0 2.3 -0.3
v 0.1 2.3 -0.3
v 0.4 2.3 -0.3
v 0.5 2.3 -0.3
v 0 2.3 -0.4
v 0.1 2.3 -0.4
v 0.2 2.3 -0.4
v 0.3 2.3 -0.4
v 0.4 2.3 -0.4
v 0.5 2.3 -0.4
v 0 2.3 -0.5
v 0.1 2.3 -0.5
v 0.2 2.3 -0.5
v 0.3 2.3 -0.5
v 0.4 2.3 -0.5
v 0.5 2.3 -0.5
v 0.1 2.3 -0.6
v 0.4 2.3 -0.6
v 0.1 2.3 -0.7
v 0.4 2.3 -0.7
v 0.1 2.3 -0.8
v 0.4 2.3 -0.8
v 0.1 2.3 -0.9
v 0.2 2.3 -0.9
v 0.3 2.3 -0.9
v 0.4 2.3 -0.9
v 0.2 2.3 -1
v 0.3 2.3 -1
v 0 2.4 0
v 0.1 2.4 0
v 0.4 2.4 0
v 0.5 2.4 0
v 0 2.4 -0.1
v 0.1 2.4 -0.1
v 0.4 2.4 -0.1
v 0.5 2.4 -0.1
v 0.1 2.4 -0.4
v 0.2 2.4 -0.4
v 0.3 2.4 -0.4
v 0.4 2.4 -0.4
v 0.1 2.4 -0.5
v 0.2 2.4 -0.5
v 0.3 2.4 -0.5
v 0.4 2.4 -0.5
v 0.1 2.4 -0.6
v 0.4 2.4 -0.6
v 0 2.5 -0.1
v 0.1 2.5 -0.1
v 0.4 2.5 -0.1
v 0.5 2.5 -0.1
v 0 2.5 -0.2
v 0.1 2.5 -0.2
v 0.4 2.5 -0.2
v 0.5 2.5 -0.2
v 0 2.5 -0.5
v 0.1 2.5 -0.5
v 0.4 2.5 -0.5
v 0.5 2.5 -0.5
v 0 2.5 -0.6
v 0.1 2.5 -0.6
v 0.4 2.5 -0.6
v 0.5 2.5 -0.6
v 0.1 2.6 -0.5
v 0.2 2.6 -0.5
v 0.3 2.6 -0.5
v 0.4 2.6 -0.5
v 0.1 2.6 -0.6
v 0.2 2.6 -0.6
v 0.3 2.6 -0.6
v 0.4 2.6 -0.6
v 0.2 2.6 -0.7
v 0.3 2.6 -0.7
v 0 2.1 -0.6
v 0.1 2.1 -0.6
v 0.4 2.1 -0.6
v 0.5 2.1 -0.6
v 0 2.1 -0.7
v 0.1 2.1 -0.7
v 0.4 2.1 -0.7
v 0.5 2.1 -0.7
v 0.2 2.1 -0.8
v 0.3 2.1 -0.8
v 0.2 2.1 -1
v 0.3 2.1 -1
v 0 2.3 -0.5
v 0.1 2.3 -0.5
v 0.4 2.3 -0.5
v 0.5 2.3 -0.5
v 0 2.3 -0.6
v 0.1 2.3 -0.6
v 0.4 2.3 -0.6
v 0.5 2.3 -0.6
v 0.2 2.3 -1
v 0.3 2.3 -1
v 0.2 2.3 -1.1
v 0.3 2.3 -1.1
v 0 2.4 -0.2
v 0.1 2.4 -0.2
v 0.4 2.4 -0.2
v 0.5 2.4 -0.2
v 0 2.4 -0.3
v 0.1 2.4 -0.3
v 0.4 2.4 -0.3
v 0.5 2.4 -0.3
v 0 2.5 0
v 0.1 2.5 0
v 0.4 2.5 0
v 0.5 2.5 0
v 0 2.5 -0.1
v 0.1 2.5 -0.1
v 0.4 2.5 -0.1
v 0.5 2.5 -0.1
v 0.1 2.5 -0.2
v 0.4 2.5 -0.2
v 0.1 2.5 -0.5
v 0.2 2.5 -0.5
v 0.3 2.5 -0.5
v 0.4 2.5 -0.5
v 0.1 2.5 -0.6
v 0.2 2.5 -0.6
v 0.3 2.5 -0.6
v 0.4 2.5 -0.6
v 0 2.5 -0.7
v 0.1 2.5 -0.7
v 0.2 2.5 -0.7
v 0.3 2.5 -0.7
v 0.4 2.5 -0.7
v 0.5 2.5 -0.7
v 0 2.5 -0.9
v 0.1 2.5 -0.9
v 0.2 2.5 -0.9
v 0.3 2.5 -0.9
v 0.4 2.5 -0.9
v 0.5 2.5 -0.9
v 0.2 2.5 -1
v 0.3 2.5 -1
v 0 2.6 -0.1
v 0.1 2.6 -0.1
v 0.4 2.6 -0.1
v 0.5 2.6 -0.1
v 0 2.6 -0.2
v 0.1 2.6 -0.2
v 0.4 2.6 -0.2
v 0.5 2.6 -0.2
v 0.1 2.6 -0.4
v 0.4 2.6 -0.4
v 0.1 2.6 -0.7
v 0.4 2.6 -0.7
v 0.1 2.6 -0.9
v 0.4 2.6 -0.9
v 0 2.7 -0.4
v 0.5 2.7 -0.4
v 0 2.7 -0.6
v 0.1 2.7 -0.6
v 0.4 2.7 -0.6
v 0.5 2.7 -0.6
v 0.1 2.7 -0.7
v 0.4 2.7 -0.7

# faces
f 4/1/1 2/1/1 1/1/1
f 5/1/1 2/1/1 4/1/1
f 7/2/1 6/2/1 5/2/1
f 12/1/1 4/1/1 3/1/1
f 13/1/1 4/1/1 12/1/1
f 16/3/1 10/3/1 9/3/1
f 17/3/1 10/3/1 16/3/1
f 18/1/1 12/1/1 11/1/1
f 19/1/1 12/1/1 18/1/1
f 20/1/1 15/1/1 14/1/1
f 21/1/1 15/1/1 20/1/1
f 23/2/1 19/2/1 18/2/1
f 25/2/1 7/2/1 5/2/1
f 25/2/1 8/2/1 7/2/1
f 26/2/1 8/2/1 25/2/1
f 27/1/1 22/1/1 21/1/1
f 28/1/1 22/1/1 27/1/1
f 29/2/1 23/2/1 18/2/1
f 29/2/1 24/2/1 23/2/1
f 30/2/1 24/2/1 29/2/1
f 34/2/1 32/2/1 31/2/1
f 35/2/1 32/2/1 34/2/1
f 36/2/1 32/2/1 35/2/1
f 39/2/1 34/2/1 33/2/1
f 40/2/1 34/2/1 39/2/1
f 41/2/1 36/2/1 35/2/1
f 42/2/1 36/2/1 41/2/1
f 44/2/1 38/2/1 37/2/1
f 45/2/1 42/2/1 41/2/1
f 45/2/1 40/2/1 39/2/1
f 45/2/1 41/2/1 40/2/1
f 46/2/1 42/2/1 45/2/1
f 47/2/1 44/2/1 43/2/1
f 48/2/1 38/2/1 44/2/1
f 48/2/1 44/2/1 47/2/1
f 49/2/1 38/2/1 48/2/1
f 51/2/1 42/2/1 46/2/1
f 52/2/1 42/2/1 51/2/1
f 53/2/1 50/2/1 49/2/1
f 53/2/1 49/2/1 48/2/1
f 54/2/1 50/2/1 53/2/1
f 55/2/1 53/2/1 48/2/1
f 56/2/1 53/2/1 55/2/1
f 61/1/1 58/1/1 57/1/1
f 62/1/1 58/1/1 61/1/1
f 64/1/1 60/1/1 59/1/1
f 65/1/1 60/1/1 64/1/1
f 69/1/1 63/1/1 62/1/1
f 70/1/1 63/1/1 69/1/1
f 71/2/1 67/2/1 66/2/1
f 72/2/1 67/2/1 71/2/1
f 73/1/1 69/1/1 68/1/1
f 74/1/1 69/1/1 73/1/1
f 77/2/1 74/2/1 73/2/1
f 78/2/1 74/2/1 77/2/1
f 79/2/1 76/2/1 75/2/1
f 80/2/1 76/2/1 79/2/1
f 83/2/1 82/2/1 81/2/1
f 84/2/1 82/2/1 83/2/1
f 88/1/1 86/1/1 85/1/1
f 89/1/1 86/1/1 88/1/1
f 91/2/1 90/2/1 89/2/1
f 92/2/1 90/2/1 91/2/1
f 95/1/1 88/1/1 87/1/1
f 96/1/1 88/1/1 95/1/1
f 97/2/1 93/2/1 92/2/1
f 98/2/1 93/2/1 97/2/1
f 101/1/1 95/1/1 94/1/1
f 102/1/1 95/1/1 101/1/1
f 103/1/1 100/1/1 99/1/1
f 104/1/1 100/1/1 103/1/1
f 108/1/1 105/1/1 104/1/1
f 109/1/1 105/1/1 108/1/1
f 110/2/1 107/2/1 106/2/1
f 111/2/1 107/2/1 110/2/1
f 112/1/2 113/1/2 115/1/2
f 115/1/2 113/1/2 116/1/2
f 116/2/2 117/2/2 118/2/2
f 118/2/2 117/2/2 119/2/2
f 114/1/2 115/1/2 122/1/2
f 122/1/2 115/1/2 123/1/2
f 119/2/2 120/2/2 124/2/2
f 124/2/2 120/2/2 125/2/2
f 121/1/2 122/1/2 128/1/2
f 128/1/2 122/1/2 129/1/2
f 126/1/2 127/1/2 130/1/2
f 130/1/2 127/1/2 131/1/2
f 131/1/2 132/1/2 135/1/2
f 135/1/2 132/1/2 136/1/2
f 133/2/2 134/2/2 137/2/2
f 137/2/2 134/2/2 138/2/2
f 139/2/2 140/2/2 141/2/2
f 141/2/2 140/2/2 142/2/2
f 143/1/2 144/1/2 147/1/2
f 147/1/2 144/1/2 148/1/2
f 145/1/2 146/1/2 150/1/2
f 150/1/2 146/1/2 151/1/2
f 148/1/2 149/1/2 155/1/2
f 155/1/2 149/1/2 156/1/2
f 152/2/2 153/2/2 157/2/2
f 157/2/2 153/2/2 158/2/2
f 154/1/2 155/1/2 159/1/2
f 159/1/2 155/1/2 160/1/2
f 159/2/2 160/2/2 163/2/2
f 163/2/2 160/2/2 164/2/2
f 161/2/2 162/2/2 165/2/2
f 165/2/2 162/2/2 166/2/2
f 167/2/2 168/2/2 170/2/2
f 170/2/2 168/2/2 171/2/2
f 171/2/2 168/2/2 172/2/2
f 169/2/2 170/2/2 175/2/2
f 175/2/2 170/2/2 176/2/2
f 171/2/2 172/2/2 177/2/2
f 177/2/2 172/2/2 178/2/2
f 173/2/2 174/2/2 180/2/2
f 177/2/2 178/2/2 181/2/2
f 175/2/2 176/2/2 181/2/2
f 176/2/2 177/2/2 181/2/2
f 181/2/2 178/2/2 182/2/2
f 179/2/2 180/2/2 183/2/2
f 180/2/2 174/2/2 184/2/2
f 183/2/2 180/2/2 184/2/2
f 184/2/2 174/2/2 185/2/2
f 182/2/2 178/2/2 187/2/2
f 187/2/2 178/2/2 188/2/2
f 185/2/2 186/2/2 189/2/2
f 184/2/2 185/2/2 189/2/2
f 189/2/2 186/2/2 190/2/2
f 184/2/2 189/2/2 191/2/2
f 191/2/2 189/2/2 192/2/2
f 193/1/2 194/1/2 196/1/2
f 196/1/2 194/1/2 197/1/2
f 197/2/2 198/2/2 199/2/2
f 195/1/2 196/1/2 204/1/2
f 204/1/2 196/1/2 205/1/2
f 201/3/2 202/3/2 208/3/2
f 208/3/2 202/3/2 209/3/2
f 203/1/2 204/1/2 210/1/2
f 210/1/2 204/1/2 211/1/2
f 206/1/2 207/1/2 212/1/2
f 212/1/2 207/1/2 213/1/2
f 210/2/2 211/2/2 215/2/2
f 197/2/2 199/2/2 217/2/2
f 199/2/2 200/2/2 217/2/2
f 217/2/2 200/2/2 218/2/2
f 213/1/2 214/1/2 219/1/2
f 219/1/2 214/1/2 220/1/2
f 210/2/2 215/2/2 221/2/2
f 215/2/2 216/2/2 221/2/2
f 221/2/2 216/2/2 222/2/2
f 225/1/3 224/1/3 223/1/3
f 226/1/3 224/1/3 225/1/3
f 229/1/3 228/1/3 227/1/3
f 230/1/3 228/1/3 229/1/3
f 235/1/3 232/1/3 231/1/3
f 236/1/3 232/1/3 235/1/3
f 237/2/3 234/2/3 233/2/3
f 237/2/3 235/2/3 234/2/3
f 238/2/3 235/2/3 237/2/3
f 239/2/3 235/2/3 238/2/3
f 241/1/3 240/1/3 239/1/3
f 242/1/3 240/1/3 241/1/3
f 246/3/3 244/3/3 243/3/3
f 247/3/3 244/3/3 246/3/3
f 250/2/3 246/2/3 245/2/3
f 251/2/3 246/2/3 250/2/3
f 253/2/3 249/2/3 248/2/3
f 254/2/3 249/2/3 253/2/3
f 255/3/3 252/3/3 251/3/3
f 256/3/3 252/3/3 255/3/3
f 259/1/3 258/1/3 257/1/3
f 260/1/3 258/1/3 259/1/3
f 264/1/3 262/1/3 261/1/3
f 265/2/3 263/2/3 262/2/3
f 265/1/3 262/1/3 264/1/3
f 266/2/3 263/2/3 265/2/3
f 269/2/3 263/2/3 266/2/3
f 270/1/3 268/1/3 267/1/3
f 271/2/3 269/2/3 268/2/3
f 271/1/3 268/1/3 270/1/3
f 272/2/3 263/2/3 269/2/3
f 272/2/3 269/2/3 271/2/3
f 275/1/3 274/1/3 273/1/3
f 276/1/3 274/1/3 275/1/3
f 279/1/3 278/1/3 277/1/3
f 280/1/3 278/1/3 279/1/3
f 283/1/3 282/1/3 281/1/3
f 284/1/3 282/1/3 283/1/3
f 289/2/3 288/2/3 287/2/3
f 290/2/3 288/2/3 289/2/3
f 295/2/3 286/2/3 285/2/3
f 296/2/3 286/2/3 295/2/3
f 297/2/3 292/2/3 291/2/3
f 298/2/3 292/2/3 297/2/3
f 299/1/3 294/1/3 293/1/3
f 300/1/3 294/1/3 299/1/3
f 303/2/3 302/2/3 301/2/3
f 304/2/3 302/2/3 303/2/3
f 305/2/3 302/2/3 304/2/3
f 306/2/3 302/2/3 305/2/3
f 309/2/3 308/2/3 307/2/3
f 310/2/3 308/2/3 309/2/3
f 312/2/3 305/2/3 304/2/3
f 313/2/3 305/2/3 312/2/3
f 315/2/3 312/2/3 311/2/3
f 315/2/3 314/2/3 313/2/3
f 315/2/3 313/2/3 312/2/3
f 316/2/3 314/2/3 315/2/3
f 319/1/3 318/1/3 317/1/3
f 320/1/3 318/1/3 319/1/3
f 323/1/3 322/1/3 321/1/3
f 324/1/3 322/1/3 323/1/3
f 325/1/4 326/1/4 327/1/4
f 327/1/4 326/1/4 328/1/4
f 329/1/4 330/1/4 331/1/4
f 331/1/4 330/1/4 332/1/4
f 333/1/4 334/1/4 335/1/4
f 335/1/4 334/1/4 336/1/4
f 337/1/4 338/1/4 339/1/4
f 339/1/4 338/1/4 340/1/4
f 341/3/4 342/3/4 343/3/4
f 343/3/4 342/3/4 344/3/4
f 345/3/4 346/3/4 347/3/4
f 347/3/4 346/3/4 348/3/4
f 349/2/4 350/2/4 353/2/4
f 350/2/4 351/2/4 353/2/4
f 353/2/4 351/2/4 354/2/4
f 354/2/4 351/2/4 355/2/4
f 352/1/4 353/1/4 356/1/4
f 353/2/4 354/2/4 357/2/4
f 356/1/4 353/1/4 357/1/4
f 357/2/4 354/2/4 358/2/4
f 358/2/4 359/2/4 360/2/4
f 357/2/4 358/2/4 360/2/4
f 360/2/4 359/2/4 361/2/4
f 361/2/4 359/2/4 362/2/4
f 363/1/4 364/1/4 366/1/4
f 364/2/4 365/2/4 367/2/4
f 366/1/4 364/1/4 367/1/4
f 367/2/4 365/2/4 368/2/4
f 368/2/4 369/2/4 372/2/4
f 372/2/4 369/2/4 373/2/4
f 370/2/4 371/2/4 374/2/4
f 374/2/4 371/2/4 375/2/4
f 376/2/4 377/2/4 380/2/4
f 380/2/4 377/2/4 381/2/4
f 378/1/4 379/1/4 382/1/4
f 379/2/4 380/2/4 383/2/4
f 382/1/4 379/1/4 383/1/4
f 383/2/4 380/2/4 384/2/4
f 385/1/4 386/1/4 389/1/4
f 389/1/4 386/1/4 390/1/4
f 387/2/4 388/2/4 391/2/4
f 391/2/4 388/2/4 392/2/4
f 393/2/4 394/2/4 395/2/4
f 395/2/4 394/2/4 396/2/4
f 397/1/4 398/1/4 401/1/4
f 401/1/4 398/1/4 402/1/4
f 399/2/4 400/2/4 403/2/4
f 403/2/4 400/2/4 404/2/4
f 405/1/4 406/1/4 407/1/4
f 407/1/4 406/1/4 408/1/4
f 409/2/4 410/2/4 413/2/4
f 413/2/4 410/2/4 414/2/4
f 411/1/4 412/1/4 415/1/4
f 415/1/4 412/1/4 416/1/4
f 417/2/4 418/2/4 419/2/4
f 419/2/4 418/2/4 420/2/4
f 420/2/4 421/2/4 423/2/4
f 423/2/4 421/2/4 424/2/4
f 422/2/4 423/2/4 425/2/4
f 425/2/4 423/2/4 426/2/4
f 427/2/4 428/2/4 429/2/4
f 429/2/4 428/2/4 430/2/4
f 430/2/4 428/2/4 431/2/4
f 431/2/4 432/2/4 433/2/4
f 430/2/4 431/2/4 433/2/4
f 433/2/4 432/2/4 434/2/4
f 434/2/4 432/2/4 435/2/4
f 435/2/4 432/2/4 438/2/4
f 436/2/4 437/2/4 440/2/4
f 437/2/4 438/2/4 440/2/4
f 438/2/4 432/2/4 441/2/4
f 440/2/4 438/2/4 441/2/4
f 441/2/4 432/2/4 442/2/4
f 439/2/4 440/2/4 443/2/4
f 440/2/4 441/2/4 443/2/4
f 443/2/4 441/2/4 444/2/4
f 445/1/4 446/1/4 450/1/4
f 450/1/4 446/1/4 451/1/4
f 447/1/4 448/1/4 452/1/4
f 448/2/4 449/2/4 453/2/4
f 452/1/4 448/1/4 453/1/4
f 453/2/4 449/2/4 454/2/4
f 455/1/4 456/1/4 457/1/4
f 457/1/4 456/1/4 458/1/4
f 463/1/5 460/1/5 459/1/5
f 464/1/5 460/1/5 463/1/5
f 465/1/5 462/1/5 461/1/5
f 466/1/5 462/1/5 465/1/5
f 469/1/5 468/1/5 467/1/5
f 470/1/5 468/1/5 469/1/5
f 473/1/5 472/1/5 471/1/5
f 474/1/5 472/1/5 473/1/5
f 479/1/5 476/1/5 475/1/5
f 480/1/5 476/1/5 479/1/5
f 481/1/5 478/1/5 477/1/5
f 482/1/5 478/1/5 481/1/5
f 487/2/5 484/2/5 483/2/5
f 488/2/5 484/2/5 487/2/5
f 489/2/5 486/2/5 485/2/5
f 490/2/5 486/2/5 489/2/5
f 493/1/5 492/1/5 491/1/5
f 494/1/5 492/1/5 493/1/5
f 497/2/5 496/2/5 495/2/5
f 498/2/5 496/2/5 497/2/5
f 499/2/5 497/2/5 495/2/5
f 500/2/5 497/2/5 499/2/5
f 501/2/5 496/2/5 498/2/5
f 502/2/5 496/2/5 501/2/5
f 506/2/5 504/2/5 503/2/5
f 507/2/5 504/2/5 506/2/5
f 509/2/5 506/2/5 505/2/5
f 510/2/5 506/2/5 509/2/5
f 511/2/5 508/2/5 507/2/5
f 512/2/5 508/2/5 511/2/5
f 516/2/5 514/2/5 513/2/5
f 517/2/5 514/2/5 516/2/5
f 519/3/5 516/3/5 515/3/5
f 520/3/5 516/3/5 519/3/5
f 521/3/5 518/3/5 517/3/5
f 522/3/5 518/3/5 521/3/5
f 529/1/5 524/1/5 523/1/5
f 530/1/5 524/1/5 529/1/5
f 531/2/5 526/2/5 525/2/5
f 532/2/5 526/2/5 531/2/5
f 533/1/5 528/1/5 527/1/5
f 534/1/5 528/1/5 533/1/5
f 537/2/5 536/2/5 535/2/5
f 538/2/5 536/2/5 537/2/5
f 541/2/5 540/2/5 539/2/5
f 542/2/5 540/2/5 541/2/5
f 543/2/5 540/2/5 542/2/5
f 544/2/5 540/2/5 543/2/5
f 545/1/5 543/1/5 542/1/5
f 546/1/5 543/1/5 545/1/5
f 551/1/5 548/1/5 547/1/5
f 552/1/5 548/1/5 551/1/5
f 553/1/5 550/1/5 549/1/5
f 554/1/5 550/1/5 553/1/5
f 559/2/5 556/2/5 555/2/5
f 560/2/5 556/2/5 559/2/5
f 561/2/5 558/2/5 557/2/5
f 562/2/5 558/2/5 561/2/5
f 563/2/5 560/2/5 559/2/5
f 563/2/5 561/2/5 560/2/5
f 563/2/5 562/2/5 561/2/5
f 564/2/5 562/2/5 563/2/5
f 569/1/5 566/1/5 565/1/5
f 570/1/5 566/1/5 569/1/5
f 571/1/5 568/1/5 567/1/5
f 572/1/5 568/1/5 571/1/5
f 577/2/5 574/2/5 573/2/5
f 578/2/5 574/2/5 577/2/5
f 579/2/5 576/2/5 575/2/5
f 580/2/5 576/2/5 579/2/5
f 585/2/5 582/2/5 581/2/5
f 586/2/5 582/2/5 585/2/5
f 587/2/5 584/2/5 583/2/5
f 588/2/5 584/2/5 587/2/5
f 589/2/5 587/2/5 586/2/5
f 590/2/5 587/2/5 589/2/5
f 591/1/6 592/1/6 595/1/6
f 595/1/6 592/1/6 596/1/6
f 593/1/6 594/1/6 597/1/6
f 597/1/6 594/1/6 598/1/6
f 599/1/6 600/1/6 601/1/6
f 601/1/6 600/1/6 602/1/6
f 603/1/6 604/1/6 607/1/6
f 607/1/6 604/1/6 608/1/6
f 605/1/6 606/1/6 609/1/6
f 609/1/6 606/1/6 610/1/6
f 611/1/6 612/1/6 613/1/6
f 613/1/6 612/1/6 614/1/6
f 615/3/6 616/3/6 619/3/6
f 619/3/6 616/3/6 620/3/6
f 617/3/6 618/3/6 621/3/6
f 621/3/6 618/3/6 622/3/6
f 623/1/6 624/1/6 627/1/6
f 627/1/6 624/1/6 628/1/6
f 625/1/6 626/1/6 629/1/6
f 629/1/6 626/1/6 630/1/6
f 628/2/6 629/2/6 631/2/6
f 631/2/6 629/2/6 632/2/6
f 633/2/6 634/2/6 637/2/6
f 637/2/6 634/2/6 638/2/6
f 635/2/6 636/2/6 639/2/6
f 639/2/6 636/2/6 640/2/6
f 638/2/6 639/2/6 643/2/6
f 643/2/6 639/2/6 644/2/6
f 641/2/6 642/2/6 647/2/6
f 647/2/6 642/2/6 648/2/6
f 645/2/6 646/2/6 651/2/6
f 651/2/6 646/2/6 652/2/6
f 649/2/6 650/2/6 653/2/6
f 653/2/6 650/2/6 654/2/6
f 655/1/6 656/1/6 659/1/6
f 659/1/6 656/1/6 660/1/6
f 657/1/6 658/1/6 661/1/6
f 661/1/6 658/1/6 662/1/6
f 660/2/6 661/2/6 663/2/6
f 663/2/6 661/2/6 664/2/6
f 665/2/6 666/2/6 667/2/6
f 667/2/6 666/2/6 668/2/6
f 669/2/6 670/2/6 671/2/6
f 671/2/6 670/2/6 672/2/6
f 672/2/6 670/2/6 673/2/6
f 673/2/6 670/2/6 674/2/6
f 672/2/6 673/2/6 675/2/6
f 675/2/6 673/2/6 676/2/6
