# MagicaVoxel @ Ephtracy

# group
o 

# material
mtllib coin.mtl
usemtl palette

# normals
vn -1 0 0
vn 1 0 0
vn 0 0 1
vn 0 0 -1
vn 0 -1 0
vn 0 1 0

# texcoords
vt 0.0214844 0.5
vt 0.0449219 0.5
vt 0.0683594 0.5
vt 0.955078 0.5
vt 0.958984 0.5

# verts
v 0 2.4 0
v 0 2.4 -0.1
v 0 3.4 0
v 0 3.4 -0.1
v 0.1 2.2 0
v 0.1 2.2 -0.1
v 0.1 2.4 0
v 0.1 2.4 -0.1
v 0.1 3.4 0
v 0.1 3.4 -0.1
v 0.1 3.6 0
v 0.1 3.6 -0.1
v 0.2 2.1 0
v 0.2 2.1 -0.1
v 0.2 2.2 0
v 0.2 2.2 -0.1
v 0.2 3.6 0
v 0.2 3.6 -0.1
v 0.2 3.7 0
v 0.2 3.7 -0.1
v 0.4 2 0
v 0.4 2 -0.1
v 0.4 2.1 0
v 0.4 2.1 -0.1
v 0.4 3.7 0
v 0.4 3.7 -0.1
v 0.4 3.8 0
v 0.4 3.8 -0.1
v 0.8 2 0
v 0.8 2 -0.1
v 0.8 2.1 0
v 0.8 2.1 -0.1
v 0.8 3.7 0
v 0.8 3.7 -0.1
v 0.8 3.8 0
v 0.8 3.8 -0.1
v 1 2.1 0
v 1 2.1 -0.1
v 1 2.2 0
v 1 2.2 -0.1
v 1 3.6 0
v 1 3.6 -0.1
v 1 3.7 0
v 1 3.7 -0.1
v 1.1 2.2 0
v 1.1 2.2 -0.1
v 1.1 2.4 0
v 1.1 2.4 -0.1
v 1.1 3.4 0
v 1.1 3.4 -0.1
v 1.1 3.6 0
v 1.1 3.6 -0.1
v 1.2 2.4 0
v 1.2 2.4 -0.1
v 1.2 3.4 0
v 1.2 3.4 -0.1
v 0 2.4 0
v 0 3.4 0
v 0.1 2.2 0
v 0.1 2.4 0
v 0.1 3.4 0
v 0.1 3.6 0
v 0.2 2.1 0
v 0.2 2.2 0
v 0.2 2.4 0
v 0.2 3.4 0
v 0.2 3.6 0
v 0.2 3.7 0
v 0.3 2.3 0
v 0.3 2.4 0
v 0.3 3.4 0
v 0.3 3.6 0
v 0.4 2 0
v 0.4 2.1 0
v 0.4 2.2 0
v 0.4 2.3 0
v 0.4 2.4 0
v 0.4 3.4 0
v 0.4 3.5 0
v 0.4 3.6 0
v 0.4 3.7 0
v 0.4 3.8 0
v 0.5 2.3 0
v 0.5 2.4 0
v 0.5 3.4 0
v 0.5 3.5 0
v 0.6 2.6 0
v 0.6 3.4 0
v 0.7 2.3 0
v 0.7 2.4 0
v 0.7 2.6 0
v 0.7 3.4 0
v 0.7 3.5 0
v 0.8 2 0
v 0.8 2.1 0
v 0.8 2.2 0
v 0.8 2.4 0
v 0.8 3.4 0
v 0.8 3.5 0
v 0.8 3.6 0
v 0.8 3.7 0
v 0.8 3.8 0
v 0.9 2.3 0
v 0.9 3.4 0
v 0.9 3.5 0
v 1 2.1 0
v 1 2.2 0
v 1 2.4 0
v 1 3.4 0
v 1 3.6 0
v 1 3.7 0
v 1.1 2.2 0
v 1.1 2.4 0
v 1.1 3.4 0
v 1.1 3.6 0
v 1.2 2.4 0
v 1.2 3.4 0
v 0 2.4 -0.1
v 0 3.4 -0.1
v 0.1 2.2 -0.1
v 0.1 2.4 -0.1
v 0.1 3.4 -0.1
v 0.1 3.6 -0.1
v 0.2 2.1 -0.1
v 0.2 2.2 -0.1
v 0.2 2.4 -0.1
v 0.2 3.4 -0.1
v 0.2 3.6 -0.1
v 0.2 3.7 -0.1
v 0.3 2.3 -0.1
v 0.3 2.4 -0.1
v 0.3 3.4 -0.1
v 0.3 3.6 -0.1
v 0.4 2 -0.1
v 0.4 2.1 -0.1
v 0.4 2.2 -0.1
v 0.4 2.3 -0.1
v 0.4 2.4 -0.1
v 0.4 3.4 -0.1
v 0.4 3.5 -0.1
v 0.4 3.6 -0.1
v 0.4 3.7 -0.1
v 0.4 3.8 -0.1
v 0.5 2.3 -0.1
v 0.5 2.4 -0.1
v 0.5 3.4 -0.1
v 0.5 3.5 -0.1
v 0.6 2.6 -0.1
v 0.6 3.4 -0.1
v 0.7 2.3 -0.1
v 0.7 2.4 -0.1
v 0.7 2.6 -0.1
v 0.7 3.4 -0.1
v 0.7 3.5 -0.1
v 0.8 2 -0.1
v 0.8 2.1 -0.1
v 0.8 2.2 -0.1
v 0.8 2.4 -0.1
v 0.8 3.4 -0.1
v 0.8 3.5 -0.1
v 0.8 3.6 -0.1
v 0.8 3.7 -0.1
v 0.8 3.8 -0.1
v 0.9 2.3 -0.1
v 0.9 3.4 -0.1
v 0.9 3.5 -0.1
v 1 2.1 -0.1
v 1 2.2 -0.1
v 1 2.4 -0.1
v 1 3.4 -0.1
v 1 3.6 -0.1
v 1 3.7 -0.1
v 1.1 2.2 -0.1
v 1.1 2.4 -0.1
v 1.1 3.4 -0.1
v 1.1 3.6 -0.1
v 1.2 2.4 -0.1
v 1.2 3.4 -0.1
v 0.4 2 0
v 0.8 2 0
v 0.4 2 -0.1
v 0.8 2 -0.1
v 0.2 2.1 0
v 0.4 2.1 0
v 0.8 2.1 0
v 1 2.1 0
v 0.2 2.1 -0.1
v 0.4 2.1 -0.1
v 0.8 2.1 -0.1
v 1 2.1 -0.1
v 0.1 2.2 0
v 0.2 2.2 0
v 1 2.2 0
v 1.1 2.2 0
v 0.1 2.2 -0.1
v 0.2 2.2 -0.1
v 1 2.2 -0.1
v 1.1 2.2 -0.1
v 0 2.4 0
v 0.1 2.4 0
v 1.1 2.4 0
v 1.2 2.4 0
v 0 2.4 -0.1
v 0.1 2.4 -0.1
v 1.1 2.4 -0.1
v 1.2 2.4 -0.1
v 0 3.4 0
v 0.1 3.4 0
v 1.1 3.4 0
v 1.2 3.4 0
v 0 3.4 -0.1
v 0.1 3.4 -0.1
v 1.1 3.4 -0.1
v 1.2 3.4 -0.1
v 0.1 3.6 0
v 0.2 3.6 0
v 1 3.6 0
v 1.1 3.6 0
v 0.1 3.6 -0.1
v 0.2 3.6 -0.1
v 1 3.6 -0.1
v 1.1 3.6 -0.1
v 0.2 3.7 0
v 0.4 3.7 0
v 0.8 3.7 0
v 1 3.7 0
v 0.2 3.7 -0.1
v 0.4 3.7 -0.1
v 0.8 3.7 -0.1
v 1 3.7 -0.1
v 0.4 3.8 0
v 0.8 3.8 0
v 0.4 3.8 -0.1
v 0.8 3.8 -0.1

# faces
f 3/4/1 2/4/1 1/4/1
f 4/4/1 2/4/1 3/4/1
f 7/4/1 6/4/1 5/4/1
f 8/4/1 6/4/1 7/4/1
f 11/4/1 10/4/1 9/4/1
f 12/4/1 10/4/1 11/4/1
f 15/4/1 14/4/1 13/4/1
f 16/4/1 14/4/1 15/4/1
f 19/4/1 18/4/1 17/4/1
f 20/4/1 18/4/1 19/4/1
f 23/4/1 22/4/1 21/4/1
f 24/4/1 22/4/1 23/4/1
f 27/4/1 26/4/1 25/4/1
f 28/4/1 26/4/1 27/4/1
f 29/4/2 30/4/2 31/4/2
f 31/4/2 30/4/2 32/4/2
f 33/4/2 34/4/2 35/4/2
f 35/4/2 34/4/2 36/4/2
f 37/4/2 38/4/2 39/4/2
f 39/4/2 38/4/2 40/4/2
f 41/4/2 42/4/2 43/4/2
f 43/4/2 42/4/2 44/4/2
f 45/4/2 46/4/2 47/4/2
f 47/4/2 46/4/2 48/4/2
f 49/4/2 50/4/2 51/4/2
f 51/4/2 50/4/2 52/4/2
f 53/4/2 54/4/2 55/4/2
f 55/4/2 54/4/2 56/4/2
f 60/4/3 58/4/3 57/4/3
f 61/4/3 58/4/3 60/4/3
f 64/4/3 60/4/3 59/4/3
f 65/3/3 61/3/3 60/3/3
f 65/4/3 60/4/3 64/4/3
f 66/4/3 62/4/3 61/4/3
f 66/3/3 61/3/3 65/3/3
f 67/4/3 62/4/3 66/4/3
f 69/3/3 65/3/3 64/3/3
f 70/2/3 66/2/3 65/2/3
f 70/3/3 65/3/3 69/3/3
f 71/3/3 67/3/3 66/3/3
f 71/2/3 66/2/3 70/2/3
f 72/4/3 68/4/3 67/4/3
f 72/3/3 67/3/3 71/3/3
f 74/4/3 64/4/3 63/4/3
f 75/3/3 69/3/3 64/3/3
f 75/4/3 64/4/3 74/4/3
f 76/2/3 70/2/3 69/2/3
f 76/3/3 69/3/3 75/3/3
f 77/1/3 71/1/3 70/1/3
f 77/2/3 70/2/3 76/2/3
f 78/2/3 72/2/3 71/2/3
f 78/1/3 71/1/3 77/1/3
f 79/2/3 72/2/3 78/2/3
f 80/4/3 68/4/3 72/4/3
f 80/2/3 72/2/3 79/2/3
f 81/4/3 68/4/3 80/4/3
f 83/2/3 76/2/3 75/2/3
f 83/1/3 77/1/3 76/1/3
f 84/4/3 78/4/3 77/4/3
f 84/1/3 77/1/3 83/1/3
f 85/1/3 79/1/3 78/1/3
f 85/4/3 78/4/3 84/4/3
f 86/2/3 80/2/3 79/2/3
f 86/1/3 79/1/3 85/1/3
f 87/2/3 85/2/3 84/2/3
f 88/5/3 86/5/3 85/5/3
f 88/2/3 85/2/3 87/2/3
f 89/4/3 84/4/3 83/4/3
f 89/2/3 83/2/3 75/2/3
f 90/2/3 87/2/3 84/2/3
f 90/4/3 84/4/3 89/4/3
f 91/1/3 88/1/3 87/1/3
f 91/2/3 87/2/3 90/2/3
f 92/5/3 86/5/3 88/5/3
f 92/1/3 88/1/3 91/1/3
f 93/2/3 80/2/3 86/2/3
f 93/5/3 86/5/3 92/5/3
f 94/4/3 74/4/3 73/4/3
f 95/3/3 75/3/3 74/3/3
f 95/4/3 74/4/3 94/4/3
f 96/2/3 89/2/3 75/2/3
f 96/3/3 75/3/3 95/3/3
f 97/5/3 91/5/3 90/5/3
f 97/1/3 90/1/3 89/1/3
f 97/5/3 92/5/3 91/5/3
f 98/1/3 93/1/3 92/1/3
f 98/5/3 92/5/3 97/5/3
f 99/2/3 80/2/3 93/2/3
f 99/1/3 93/1/3 98/1/3
f 100/5/3 81/5/3 80/5/3
f 100/2/3 80/2/3 99/2/3
f 101/4/3 82/4/3 81/4/3
f 101/5/3 81/5/3 100/5/3
f 102/4/3 82/4/3 101/4/3
f 103/2/3 89/2/3 96/2/3
f 103/1/3 98/1/3 97/1/3
f 103/1/3 97/1/3 89/1/3
f 104/2/3 99/2/3 98/2/3
f 104/1/3 98/1/3 103/1/3
f 105/5/3 100/5/3 99/5/3
f 105/2/3 99/2/3 104/2/3
f 106/4/3 96/4/3 95/4/3
f 107/2/3 104/2/3 103/2/3
f 107/4/3 96/4/3 106/4/3
f 107/2/3 103/2/3 96/2/3
f 108/2/3 104/2/3 107/2/3
f 109/5/3 105/5/3 104/5/3
f 109/2/3 104/2/3 108/2/3
f 110/4/3 101/4/3 100/4/3
f 110/5/3 105/5/3 109/5/3
f 110/5/3 100/5/3 105/5/3
f 111/4/3 101/4/3 110/4/3
f 112/4/3 108/4/3 107/4/3
f 113/5/3 109/5/3 108/5/3
f 113/4/3 108/4/3 112/4/3
f 114/4/3 110/4/3 109/4/3
f 114/5/3 109/5/3 113/5/3
f 115/4/3 110/4/3 114/4/3
f 116/4/3 114/4/3 113/4/3
f 117/4/3 114/4/3 116/4/3
f 118/4/4 119/4/4 121/4/4
f 121/4/4 119/4/4 122/4/4
f 120/4/4 121/4/4 125/4/4
f 121/3/4 122/3/4 126/3/4
f 125/4/4 121/4/4 126/4/4
f 122/4/4 123/4/4 127/4/4
f 126/3/4 122/3/4 127/3/4
f 127/4/4 123/4/4 128/4/4
f 125/3/4 126/3/4 130/3/4
f 126/2/4 127/2/4 131/2/4
f 130/3/4 126/3/4 131/3/4
f 127/3/4 128/3/4 132/3/4
f 131/2/4 127/2/4 132/2/4
f 128/4/4 129/4/4 133/4/4
f 132/3/4 128/3/4 133/3/4
f 124/4/4 125/4/4 135/4/4
f 125/3/4 130/3/4 136/3/4
f 135/4/4 125/4/4 136/4/4
f 130/2/4 131/2/4 137/2/4
f 136/3/4 130/3/4 137/3/4
f 131/1/4 132/1/4 138/1/4
f 137/2/4 131/2/4 138/2/4
f 132/2/4 133/2/4 139/2/4
f 138/1/4 132/1/4 139/1/4
f 139/2/4 133/2/4 140/2/4
f 133/4/4 129/4/4 141/4/4
f 140/2/4 133/2/4 141/2/4
f 141/4/4 129/4/4 142/4/4
f 136/2/4 137/2/4 144/2/4
f 137/1/4 138/1/4 144/1/4
f 138/4/4 139/4/4 145/4/4
f 144/1/4 138/1/4 145/1/4
f 139/1/4 140/1/4 146/1/4
f 145/4/4 139/4/4 146/4/4
f 140/2/4 141/2/4 147/2/4
f 146/1/4 140/1/4 147/1/4
f 145/2/4 146/2/4 148/2/4
f 146/5/4 147/5/4 149/5/4
f 148/2/4 146/2/4 149/2/4
f 144/4/4 145/4/4 150/4/4
f 136/2/4 144/2/4 150/2/4
f 145/2/4 148/2/4 151/2/4
f 150/4/4 145/4/4 151/4/4
f 148/1/4 149/1/4 152/1/4
f 151/2/4 148/2/4 152/2/4
f 149/5/4 147/5/4 153/5/4
f 152/1/4 149/1/4 153/1/4
f 147/2/4 141/2/4 154/2/4
f 153/5/4 147/5/4 154/5/4
f 134/4/4 135/4/4 155/4/4
f 135/3/4 136/3/4 156/3/4
f 155/4/4 135/4/4 156/4/4
f 136/2/4 150/2/4 157/2/4
f 156/3/4 136/3/4 157/3/4
f 151/5/4 152/5/4 158/5/4
f 150/1/4 151/1/4 158/1/4
f 152/5/4 153/5/4 158/5/4
f 153/1/4 154/1/4 159/1/4
f 158/5/4 153/5/4 159/5/4
f 154/2/4 141/2/4 160/2/4
f 159/1/4 154/1/4 160/1/4
f 141/5/4 142/5/4 161/5/4
f 160/2/4 141/2/4 161/2/4
f 142/4/4 143/4/4 162/4/4
f 161/5/4 142/5/4 162/5/4
f 162/4/4 143/4/4 163/4/4
f 157/2/4 150/2/4 164/2/4
f 158/1/4 159/1/4 164/1/4
f 150/1/4 158/1/4 164/1/4
f 159/2/4 160/2/4 165/2/4
f 164/1/4 159/1/4 165/1/4
f 160/5/4 161/5/4 166/5/4
f 165/2/4 160/2/4 166/2/4
f 156/4/4 157/4/4 167/4/4
f 164/2/4 165/2/4 168/2/4
f 167/4/4 157/4/4 168/4/4
f 157/2/4 164/2/4 168/2/4
f 168/2/4 165/2/4 169/2/4
f 165/5/4 166/5/4 170/5/4
f 169/2/4 165/2/4 170/2/4
f 161/4/4 162/4/4 171/4/4
f 170/5/4 166/5/4 171/5/4
f 166/5/4 161/5/4 171/5/4
f 171/4/4 162/4/4 172/4/4
f 168/4/4 169/4/4 173/4/4
f 169/5/4 170/5/4 174/5/4
f 173/4/4 169/4/4 174/4/4
f 170/4/4 171/4/4 175/4/4
f 174/5/4 170/5/4 175/5/4
f 175/4/4 171/4/4 176/4/4
f 174/4/4 175/4/4 177/4/4
f 177/4/4 175/4/4 178/4/4
f 181/4/5 180/4/5 179/4/5
f 182/4/5 180/4/5 181/4/5
f 187/4/5 184/4/5 183/4/5
f 188/4/5 184/4/5 187/4/5
f 189/4/5 186/4/5 185/4/5
f 190/4/5 186/4/5 189/4/5
f 195/4/5 192/4/5 191/4/5
f 196/4/5 192/4/5 195/4/5
f 197/4/5 194/4/5 193/4/5
f 198/4/5 194/4/5 197/4/5
f 203/4/5 200/4/5 199/4/5
f 204/4/5 200/4/5 203/4/5
f 205/4/5 202/4/5 201/4/5
f 206/4/5 202/4/5 205/4/5
f 207/4/6 208/4/6 211/4/6
f 211/4/6 208/4/6 212/4/6
f 209/4/6 210/4/6 213/4/6
f 213/4/6 210/4/6 214/4/6
f 215/4/6 216/4/6 219/4/6
f 219/4/6 216/4/6 220/4/6
f 217/4/6 218/4/6 221/4/6
f 221/4/6 218/4/6 222/4/6
f 223/4/6 224/4/6 227/4/6
f 227/4/6 224/4/6 228/4/6
f 225/4/6 226/4/6 229/4/6
f 229/4/6 226/4/6 230/4/6
f 231/4/6 232/4/6 233/4/6
f 233/4/6 232/4/6 234/4/6
