# MagicaVoxel @ Ephtracy

# group
o 

# material
mtllib rat_ledgeclimb_2.mtl
usemtl palette

# normals
vn -1 0 0
vn 1 0 0
vn 0 0 1
vn 0 0 -1
vn 0 -1 0
vn 0 1 0

# texcoords
vt 0.0292969 0.5
vt 0.982422 0.5
vt 0.994141 0.5

# verts
v 0 2.1 -0.6
v 0 2.1 -0.7
v 0 2.2 -0.1
v 0 2.2 -0.2
v 0 2.3 0
v 0 2.3 -0.1
v 0 2.3 -0.2
v 0 2.3 -0.5
v 0 2.3 -0.6
v 0 2.3 -0.7
v 0 2.4 -0.3
v 0 2.4 -0.5
v 0 2.4 -0.6
v 0 2.5 0
v 0 2.5 -0.1
v 0 2.6 -0.3
v 0 2.6 -0.5
v 0 3 -0.4
v 0 3 -0.6
v 0 3.1 -0.6
v 0 3.1 -0.7
v 0 3.2 -0.4
v 0 3.2 -0.5
v 0 3.2 -0.7
v 0 3.2 -0.9
v 0 3.3 -0.5
v 0 3.3 -0.7
v 0 3.3 -0.9
v 0.1 2.1 -0.1
v 0.1 2.1 -0.3
v 0.1 2.2 0
v 0.1 2.2 -0.1
v 0.1 2.2 -0.2
v 0.1 2.3 0
v 0.1 2.3 -0.1
v 0.1 2.3 -0.2
v 0.1 2.3 -0.3
v 0.1 2.3 -0.4
v 0.1 2.4 -0.3
v 0.1 2.4 -0.4
v 0.1 2.5 -0.1
v 0.1 2.6 -0.3
v 0.1 2.6 -0.5
v 0.1 2.8 -0.1
v 0.1 2.8 -0.2
v 0.1 2.9 -0.5
v 0.1 2.9 -0.6
v 0.1 3 -0.2
v 0.1 3 -0.3
v 0.1 3 -0.4
v 0.1 3 -0.6
v 0.1 3.1 -0.3
v 0.1 3.1 -0.4
v 0.2 2 -0.2
v 0.2 2 -0.3
v 0.2 2.1 -0.2
v 0.2 2.1 -0.3
v 0.2 2.2 -0.3
v 0.2 2.2 -0.4
v 0.2 2.3 -0.3
v 0.2 2.3 -0.4
v 0.2 3.2 -0.6
v 0.2 3.2 -0.7
v 0.2 3.3 -0.6
v 0.2 3.3 -0.7
v 0.2 3.3 -0.9
v 0.2 3.4 -0.7
v 0.2 3.4 -0.9
v 0.2 3.4 -1.1
v 0.2 3.5 -0.9
v 0.2 3.5 -1.1
v 0.2 3.5 -1.2
v 0.2 3.6 -1.1
v 0.2 3.6 -1.2
v 0.3 2.4 -0.2
v 0.3 2.4 -0.3
v 0.3 2.5 -0.2
v 0.3 2.5 -0.3
v 0.4 2.1 -0.6
v 0.4 2.1 -0.7
v 0.4 2.3 -0.5
v 0.4 2.3 -0.6
v 0.4 2.3 -0.7
v 0.4 2.4 0
v 0.4 2.4 -0.1
v 0.4 2.4 -0.4
v 0.4 2.4 -0.5
v 0.4 2.4 -0.6
v 0.4 2.5 0
v 0.4 2.5 -0.1
v 0.4 2.5 -0.4
v 0.4 2.5 -0.5
v 0.4 3.1 -0.6
v 0.4 3.1 -0.7
v 0.4 3.2 -0.5
v 0.4 3.2 -0.6
v 0.4 3.2 -0.7
v 0.4 3.2 -0.9
v 0.4 3.3 -0.5
v 0.4 3.3 -0.7
v 0.4 3.3 -0.9
v 0.1 2.1 -0.6
v 0.1 2.1 -0.7
v 0.1 2.3 -0.5
v 0.1 2.3 -0.6
v 0.1 2.3 -0.7
v 0.1 2.4 0
v 0.1 2.4 -0.1
v 0.1 2.4 -0.4
v 0.1 2.4 -0.5
v 0.1 2.4 -0.6
v 0.1 2.5 0
v 0.1 2.5 -0.1
v 0.1 2.5 -0.4
v 0.1 2.5 -0.5
v 0.1 3.1 -0.6
v 0.1 3.1 -0.7
v 0.1 3.2 -0.5
v 0.1 3.2 -0.6
v 0.1 3.2 -0.7
v 0.1 3.2 -0.9
v 0.1 3.3 -0.5
v 0.1 3.3 -0.7
v 0.1 3.3 -0.9
v 0.2 2.4 -0.2
v 0.2 2.4 -0.3
v 0.2 2.5 -0.2
v 0.2 2.5 -0.3
v 0.3 2 -0.2
v 0.3 2 -0.3
v 0.3 2.1 -0.2
v 0.3 2.1 -0.3
v 0.3 2.2 -0.3
v 0.3 2.2 -0.4
v 0.3 2.3 -0.3
v 0.3 2.3 -0.4
v 0.3 3.2 -0.6
v 0.3 3.2 -0.7
v 0.3 3.3 -0.6
v 0.3 3.3 -0.7
v 0.3 3.3 -0.9
v 0.3 3.4 -0.7
v 0.3 3.4 -0.9
v 0.3 3.4 -1.1
v 0.3 3.5 -0.9
v 0.3 3.5 -1.1
v 0.3 3.5 -1.2
v 0.3 3.6 -1.1
v 0.3 3.6 -1.2
v 0.4 2.1 -0.1
v 0.4 2.1 -0.3
v 0.4 2.2 0
v 0.4 2.2 -0.1
v 0.4 2.2 -0.2
v 0.4 2.3 0
v 0.4 2.3 -0.1
v 0.4 2.3 -0.2
v 0.4 2.3 -0.3
v 0.4 2.3 -0.4
v 0.4 2.4 -0.3
v 0.4 2.4 -0.4
v 0.4 2.5 -0.1
v 0.4 2.6 -0.3
v 0.4 2.6 -0.5
v 0.4 2.8 -0.1
v 0.4 2.8 -0.2
v 0.4 2.9 -0.5
v 0.4 2.9 -0.6
v 0.4 3 -0.2
v 0.4 3 -0.3
v 0.4 3 -0.4
v 0.4 3 -0.6
v 0.4 3.1 -0.3
v 0.4 3.1 -0.4
v 0.5 2.1 -0.6
v 0.5 2.1 -0.7
v 0.5 2.2 -0.1
v 0.5 2.2 -0.2
v 0.5 2.3 0
v 0.5 2.3 -0.1
v 0.5 2.3 -0.2
v 0.5 2.3 -0.5
v 0.5 2.3 -0.6
v 0.5 2.3 -0.7
v 0.5 2.4 -0.3
v 0.5 2.4 -0.5
v 0.5 2.4 -0.6
v 0.5 2.5 0
v 0.5 2.5 -0.1
v 0.5 2.6 -0.3
v 0.5 2.6 -0.5
v 0.5 3 -0.4
v 0.5 3 -0.6
v 0.5 3.1 -0.6
v 0.5 3.1 -0.7
v 0.5 3.2 -0.4
v 0.5 3.2 -0.5
v 0.5 3.2 -0.7
v 0.5 3.2 -0.9
v 0.5 3.3 -0.5
v 0.5 3.3 -0.7
v 0.5 3.3 -0.9
v 0 2.3 0
v 0 2.5 0
v 0.1 2.2 0
v 0.1 2.3 0
v 0.1 2.4 0
v 0.1 2.5 0
v 0.4 2.2 0
v 0.4 2.3 0
v 0.4 2.4 0
v 0.4 2.5 0
v 0.5 2.3 0
v 0.5 2.5 0
v 0 2.2 -0.1
v 0 2.3 -0.1
v 0.1 2.1 -0.1
v 0.1 2.2 -0.1
v 0.1 2.3 -0.1
v 0.1 2.4 -0.1
v 0.1 2.5 -0.1
v 0.1 2.8 -0.1
v 0.4 2.1 -0.1
v 0.4 2.2 -0.1
v 0.4 2.3 -0.1
v 0.4 2.4 -0.1
v 0.4 2.5 -0.1
v 0.4 2.8 -0.1
v 0.5 2.2 -0.1
v 0.5 2.3 -0.1
v 0.1 2.8 -0.2
v 0.1 3 -0.2
v 0.2 2 -0.2
v 0.2 2.1 -0.2
v 0.3 2 -0.2
v 0.3 2.1 -0.2
v 0.4 2.8 -0.2
v 0.4 3 -0.2
v 0 2.4 -0.3
v 0 2.6 -0.3
v 0.1 2.4 -0.3
v 0.1 2.6 -0.3
v 0.1 3 -0.3
v 0.1 3.1 -0.3
v 0.2 2.4 -0.3
v 0.2 2.5 -0.3
v 0.3 2.4 -0.3
v 0.3 2.5 -0.3
v 0.4 2.4 -0.3
v 0.4 2.6 -0.3
v 0.4 3 -0.3
v 0.4 3.1 -0.3
v 0.5 2.4 -0.3
v 0.5 2.6 -0.3
v 0 3 -0.4
v 0 3.2 -0.4
v 0.1 3 -0.4
v 0.1 3.1 -0.4
v 0.4 3 -0.4
v 0.4 3.1 -0.4
v 0.5 3 -0.4
v 0.5 3.2 -0.4
v 0 2.3 -0.5
v 0 2.4 -0.5
v 0 3.2 -0.5
v 0 3.3 -0.5
v 0.1 2.3 -0.5
v 0.1 2.4 -0.5
v 0.1 3.2 -0.5
v 0.1 3.3 -0.5
v 0.4 2.3 -0.5
v 0.4 2.4 -0.5
v 0.4 3.2 -0.5
v 0.4 3.3 -0.5
v 0.5 2.3 -0.5
v 0.5 2.4 -0.5
v 0.5 3.2 -0.5
v 0.5 3.3 -0.5
v 0 2.1 -0.6
v 0 2.3 -0.6
v 0.1 2.1 -0.6
v 0.1 2.3 -0.6
v 0.2 3.2 -0.6
v 0.2 3.3 -0.6
v 0.3 3.2 -0.6
v 0.3 3.3 -0.6
v 0.4 2.1 -0.6
v 0.4 2.3 -0.6
v 0.5 2.1 -0.6
v 0.5 2.3 -0.6
v 0.2 3.3 -0.7
v 0.2 3.4 -0.7
v 0.3 3.3 -0.7
v 0.3 3.4 -0.7
v 0.2 3.4 -0.9
v 0.2 3.5 -0.9
v 0.3 3.4 -0.9
v 0.3 3.5 -0.9
v 0.2 3.5 -1.1
v 0.2 3.6 -1.1
v 0.3 3.5 -1.1
v 0.3 3.6 -1.1
v 0 2.3 -0.1
v 0 2.5 -0.1
v 0.1 2.3 -0.1
v 0.1 2.5 -0.1
v 0.4 2.3 -0.1
v 0.4 2.5 -0.1
v 0.5 2.3 -0.1
v 0.5 2.5 -0.1
v 0 2.2 -0.2
v 0 2.3 -0.2
v 0.1 2.2 -0.2
v 0.1 2.3 -0.2
v 0.2 2.4 -0.2
v 0.2 2.5 -0.2
v 0.3 2.4 -0.2
v 0.3 2.5 -0.2
v 0.4 2.2 -0.2
v 0.4 2.3 -0.2
v 0.5 2.2 -0.2
v 0.5 2.3 -0.2
v 0.1 2.1 -0.3
v 0.1 2.3 -0.3
v 0.2 2 -0.3
v 0.2 2.1 -0.3
v 0.2 2.2 -0.3
v 0.2 2.3 -0.3
v 0.3 2 -0.3
v 0.3 2.1 -0.3
v 0.3 2.2 -0.3
v 0.3 2.3 -0.3
v 0.4 2.1 -0.3
v 0.4 2.3 -0.3
v 0.1 2.3 -0.4
v 0.1 2.4 -0.4
v 0.1 2.5 -0.4
v 0.2 2.2 -0.4
v 0.2 2.3 -0.4
v 0.3 2.2 -0.4
v 0.3 2.3 -0.4
v 0.4 2.3 -0.4
v 0.4 2.4 -0.4
v 0.4 2.5 -0.4
v 0 2.4 -0.5
v 0 2.6 -0.5
v 0.1 2.4 -0.5
v 0.1 2.5 -0.5
v 0.1 2.6 -0.5
v 0.1 2.9 -0.5
v 0.4 2.4 -0.5
v 0.4 2.5 -0.5
v 0.4 2.6 -0.5
v 0.4 2.9 -0.5
v 0.5 2.4 -0.5
v 0.5 2.6 -0.5
v 0 2.3 -0.6
v 0 2.4 -0.6
v 0 3 -0.6
v 0 3.1 -0.6
v 0.1 2.3 -0.6
v 0.1 2.4 -0.6
v 0.1 2.9 -0.6
v 0.1 3 -0.6
v 0.1 3.1 -0.6
v 0.1 3.2 -0.6
v 0.2 3.2 -0.6
v 0.3 3.2 -0.6
v 0.4 2.3 -0.6
v 0.4 2.4 -0.6
v 0.4 2.9 -0.6
v 0.4 3 -0.6
v 0.4 3.1 -0.6
v 0.4 3.2 -0.6
v 0.5 2.3 -0.6
v 0.5 2.4 -0.6
v 0.5 3 -0.6
v 0.5 3.1 -0.6
v 0 2.1 -0.7
v 0 2.3 -0.7
v 0 3.1 -0.7
v 0 3.2 -0.7
v 0.1 2.1 -0.7
v 0.1 2.3 -0.7
v 0.1 3.1 -0.7
v 0.1 3.2 -0.7
v 0.2 3.2 -0.7
v 0.2 3.3 -0.7
v 0.3 3.2 -0.7
v 0.3 3.3 -0.7
v 0.4 2.1 -0.7
v 0.4 2.3 -0.7
v 0.4 3.1 -0.7
v 0.4 3.2 -0.7
v 0.5 2.1 -0.7
v 0.5 2.3 -0.7
v 0.5 3.1 -0.7
v 0.5 3.2 -0.7
v 0 3.2 -0.9
v 0 3.3 -0.9
v 0.1 3.2 -0.9
v 0.1 3.3 -0.9
v 0.2 3.3 -0.9
v 0.2 3.4 -0.9
v 0.3 3.3 -0.9
v 0.3 3.4 -0.9
v 0.4 3.2 -0.9
v 0.4 3.3 -0.9
v 0.5 3.2 -0.9
v 0.5 3.3 -0.9
v 0.2 3.4 -1.1
v 0.2 3.5 -1.1
v 0.3 3.4 -1.1
v 0.3 3.5 -1.1
v 0.2 3.5 -1.2
v 0.2 3.6 -1.2
v 0.3 3.5 -1.2
v 0.3 3.6 -1.2
v 0.2 2 -0.2
v 0.3 2 -0.2
v 0.2 2 -0.3
v 0.3 2 -0.3
v 0.1 2.1 -0.1
v 0.4 2.1 -0.1
v 0.2 2.1 -0.2
v 0.3 2.1 -0.2
v 0.1 2.1 -0.3
v 0.2 2.1 -0.3
v 0.3 2.1 -0.3
v 0.4 2.1 -0.3
v 0 2.1 -0.6
v 0.1 2.1 -0.6
v 0.4 2.1 -0.6
v 0.5 2.1 -0.6
v 0 2.1 -0.7
v 0.1 2.1 -0.7
v 0.4 2.1 -0.7
v 0.5 2.1 -0.7
v 0.1 2.2 0
v 0.4 2.2 0
v 0 2.2 -0.1
v 0.1 2.2 -0.1
v 0.4 2.2 -0.1
v 0.5 2.2 -0.1
v 0 2.2 -0.2
v 0.1 2.2 -0.2
v 0.4 2.2 -0.2
v 0.5 2.2 -0.2
v 0.2 2.2 -0.3
v 0.3 2.2 -0.3
v 0.2 2.2 -0.4
v 0.3 2.2 -0.4
v 0 2.3 0
v 0.1 2.3 0
v 0.4 2.3 0
v 0.5 2.3 0
v 0 2.3 -0.1
v 0.1 2.3 -0.1
v 0.4 2.3 -0.1
v 0.5 2.3 -0.1
v 0.1 2.3 -0.3
v 0.2 2.3 -0.3
v 0.3 2.3 -0.3
v 0.4 2.3 -0.3
v 0.1 2.3 -0.4
v 0.2 2.3 -0.4
v 0.3 2.3 -0.4
v 0.4 2.3 -0.4
v 0 2.3 -0.5
v 0.1 2.3 -0.5
v 0.4 2.3 -0.5
v 0.5 2.3 -0.5
v 0 2.3 -0.6
v 0.1 2.3 -0.6
v 0.4 2.3 -0.6
v 0.5 2.3 -0.6
v 0 2.4 -0.3
v 0.1 2.4 -0.3
v 0.4 2.4 -0.3
v 0.5 2.4 -0.3
v 0.1 2.4 -0.4
v 0.4 2.4 -0.4
v 0 2.4 -0.5
v 0.1 2.4 -0.5
v 0.4 2.4 -0.5
v 0.5 2.4 -0.5
v 0.2 2.5 -0.2
v 0.3 2.5 -0.2
v 0.2 2.5 -0.3
v 0.3 2.5 -0.3
v 0.1 2.5 -0.4
v 0.4 2.5 -0.4
v 0.1 2.5 -0.5
v 0.4 2.5 -0.5
v 0.1 2.9 -0.5
v 0.4 2.9 -0.5
v 0.1 2.9 -0.6
v 0.4 2.9 -0.6
v 0 3 -0.4
v 0.1 3 -0.4
v 0.4 3 -0.4
v 0.5 3 -0.4
v 0 3 -0.6
v 0.1 3 -0.6
v 0.4 3 -0.6
v 0.5 3 -0.6
v 0 3.1 -0.6
v 0.1 3.1 -0.6
v 0.4 3.1 -0.6
v 0.5 3.1 -0.6
v 0 3.1 -0.7
v 0.1 3.1 -0.7
v 0.4 3.1 -0.7
v 0.5 3.1 -0.7
v 0.2 3.2 -0.6
v 0.3 3.2 -0.6
v 0 3.2 -0.7
v 0.1 3.2 -0.7
v 0.2 3.2 -0.7
v 0.3 3.2 -0.7
v 0.4 3.2 -0.7
v 0.5 3.2 -0.7
v 0 3.2 -0.9
v 0.1 3.2 -0.9
v 0.4 3.2 -0.9
v 0.5 3.2 -0.9
v 0.2 3.3 -0.7
v 0.3 3.3 -0.7
v 0.2 3.3 -0.9
v 0.3 3.3 -0.9
v 0.2 3.4 -0.9
v 0.3 3.4 -0.9
v 0.2 3.4 -1.1
v 0.3 3.4 -1.1
v 0.2 3.5 -1.1
v 0.3 3.5 -1.1
v 0.2 3.5 -1.2
v 0.3 3.5 -1.2
v 0 2.3 -0.1
v 0.1 2.3 -0.1
v 0.4 2.3 -0.1
v 0.5 2.3 -0.1
v 0 2.3 -0.2
v 0.1 2.3 -0.2
v 0.4 2.3 -0.2
v 0.5 2.3 -0.2
v 0 2.3 -0.6
v 0.1 2.3 -0.6
v 0.4 2.3 -0.6
v 0.5 2.3 -0.6
v 0 2.3 -0.7
v 0.1 2.3 -0.7
v 0.4 2.3 -0.7
v 0.5 2.3 -0.7
v 0.1 2.4 0
v 0.4 2.4 0
v 0.1 2.4 -0.1
v 0.4 2.4 -0.1
v 0.2 2.4 -0.2
v 0.3 2.4 -0.2
v 0.2 2.4 -0.3
v 0.3 2.4 -0.3
v 0 2.4 -0.5
v 0.1 2.4 -0.5
v 0.4 2.4 -0.5
v 0.5 2.4 -0.5
v 0 2.4 -0.6
v 0.1 2.4 -0.6
v 0.4 2.4 -0.6
v 0.5 2.4 -0.6
v 0 2.5 0
v 0.1 2.5 0
v 0.4 2.5 0
v 0.5 2.5 0
v 0 2.5 -0.1
v 0.1 2.5 -0.1
v 0.4 2.5 -0.1
v 0.5 2.5 -0.1
v 0 2.6 -0.3
v 0.1 2.6 -0.3
v 0.4 2.6 -0.3
v 0.5 2.6 -0.3
v 0 2.6 -0.5
v 0.1 2.6 -0.5
v 0.4 2.6 -0.5
v 0.5 2.6 -0.5
v 0.1 2.8 -0.1
v 0.4 2.8 -0.1
v 0.1 2.8 -0.2
v 0.4 2.8 -0.2
v 0.1 3 -0.2
v 0.4 3 -0.2
v 0.1 3 -0.3
v 0.4 3 -0.3
v 0.1 3.1 -0.3
v 0.4 3.1 -0.3
v 0.1 3.1 -0.4
v 0.4 3.1 -0.4
v 0 3.2 -0.4
v 0.5 3.2 -0.4
v 0 3.2 -0.5
v 0.1 3.2 -0.5
v 0.4 3.2 -0.5
v 0.5 3.2 -0.5
v 0.1 3.2 -0.6
v 0.2 3.2 -0.6
v 0.3 3.2 -0.6
v 0.4 3.2 -0.6
v 0 3.3 -0.5
v 0.1 3.3 -0.5
v 0.4 3.3 -0.5
v 0.5 3.3 -0.5
v 0.2 3.3 -0.6
v 0.3 3.3 -0.6
v 0 3.3 -0.7
v 0.1 3.3 -0.7
v 0.2 3.3 -0.7
v 0.3 3.3 -0.7
v 0.4 3.3 -0.7
v 0.5 3.3 -0.7
v 0 3.3 -0.9
v 0.1 3.3 -0.9
v 0.4 3.3 -0.9
v 0.5 3.3 -0.9
v 0.2 3.4 -0.7
v 0.3 3.4 -0.7
v 0.2 3.4 -0.9
v 0.3 3.4 -0.9
v 0.2 3.5 -0.9
v 0.3 3.5 -0.9
v 0.2 3.5 -1.1
v 0.3 3.5 -1.1
v 0.2 3.6 -1.1
v 0.3 3.6 -1.1
v 0.2 3.6 -1.2
v 0.3 3.6 -1.2

# faces
f 6/3/1 4/3/1 3/3/1
f 7/3/1 4/3/1 6/3/1
f 9/1/1 2/1/1 1/1/1
f 10/1/1 2/1/1 9/1/1
f 12/2/1 9/2/1 8/2/1
f 13/2/1 9/2/1 12/2/1
f 14/1/1 6/1/1 5/1/1
f 15/1/1 6/1/1 14/1/1
f 16/2/1 12/2/1 11/2/1
f 17/2/1 12/2/1 16/2/1
f 20/2/1 19/2/1 18/2/1
f 22/2/1 20/2/1 18/2/1
f 22/2/1 21/2/1 20/2/1
f 23/2/1 21/2/1 22/2/1
f 24/2/1 21/2/1 23/2/1
f 26/2/1 24/2/1 23/2/1
f 27/1/1 25/1/1 24/1/1
f 27/2/1 24/2/1 26/2/1
f 28/1/1 25/1/1 27/1/1
f 32/2/1 30/2/1 29/2/1
f 33/2/1 30/2/1 32/2/1
f 34/2/1 32/2/1 31/2/1
f 35/2/1 32/2/1 34/2/1
f 36/2/1 30/2/1 33/2/1
f 37/2/1 30/2/1 36/2/1
f 39/2/1 38/2/1 37/2/1
f 39/2/1 37/2/1 36/2/1
f 39/2/1 36/2/1 35/2/1
f 40/2/1 38/2/1 39/2/1
f 41/2/1 39/2/1 35/2/1
f 42/2/1 39/2/1 41/2/1
f 44/2/1 42/2/1 41/2/1
f 44/2/1 43/2/1 42/2/1
f 45/2/1 43/2/1 44/2/1
f 46/2/1 43/2/1 45/2/1
f 48/2/1 46/2/1 45/2/1
f 48/2/1 47/2/1 46/2/1
f 49/2/1 47/2/1 48/2/1
f 50/2/1 47/2/1 49/2/1
f 51/2/1 47/2/1 50/2/1
f 52/2/1 50/2/1 49/2/1
f 53/2/1 50/2/1 52/2/1
f 56/1/1 55/1/1 54/1/1
f 57/1/1 55/1/1 56/1/1
f 60/2/1 59/2/1 58/2/1
f 61/2/1 59/2/1 60/2/1
f 64/2/1 63/2/1 62/2/1
f 65/2/1 63/2/1 64/2/1
f 67/1/1 66/1/1 65/1/1
f 68/1/1 66/1/1 67/1/1
f 70/1/1 69/1/1 68/1/1
f 71/1/1 69/1/1 70/1/1
f 73/1/1 72/1/1 71/1/1
f 74/1/1 72/1/1 73/1/1
f 77/2/1 76/2/1 75/2/1
f 78/2/1 76/2/1 77/2/1
f 82/1/1 80/1/1 79/1/1
f 83/1/1 80/1/1 82/1/1
f 87/2/1 82/2/1 81/2/1
f 88/2/1 82/2/1 87/2/1
f 89/1/1 85/1/1 84/1/1
f 90/1/1 85/1/1 89/1/1
f 91/2/1 87/2/1 86/2/1
f 92/2/1 87/2/1 91/2/1
f 96/2/1 94/2/1 93/2/1
f 97/2/1 94/2/1 96/2/1
f 99/2/1 97/2/1 96/2/1
f 99/2/1 96/2/1 95/2/1
f 100/1/1 98/1/1 97/1/1
f 100/2/1 97/2/1 99/2/1
f 101/1/1 98/1/1 100/1/1
f 102/1/2 103/1/2 105/1/2
f 105/1/2 103/1/2 106/1/2
f 104/2/2 105/2/2 110/2/2
f 110/2/2 105/2/2 111/2/2
f 107/1/2 108/1/2 112/1/2
f 112/1/2 108/1/2 113/1/2
f 109/2/2 110/2/2 114/2/2
f 114/2/2 110/2/2 115/2/2
f 116/2/2 117/2/2 119/2/2
f 119/2/2 117/2/2 120/2/2
f 119/2/2 120/2/2 122/2/2
f 118/2/2 119/2/2 122/2/2
f 120/1/2 121/1/2 123/1/2
f 122/2/2 120/2/2 123/2/2
f 123/1/2 121/1/2 124/1/2
f 125/2/2 126/2/2 127/2/2
f 127/2/2 126/2/2 128/2/2
f 129/1/2 130/1/2 131/1/2
f 131/1/2 130/1/2 132/1/2
f 133/2/2 134/2/2 135/2/2
f 135/2/2 134/2/2 136/2/2
f 137/2/2 138/2/2 139/2/2
f 139/2/2 138/2/2 140/2/2
f 140/1/2 141/1/2 142/1/2
f 142/1/2 141/1/2 143/1/2
f 143/1/2 144/1/2 145/1/2
f 145/1/2 144/1/2 146/1/2
f 146/1/2 147/1/2 148/1/2
f 148/1/2 147/1/2 149/1/2
f 150/2/2 151/2/2 153/2/2
f 153/2/2 151/2/2 154/2/2
f 152/2/2 153/2/2 155/2/2
f 155/2/2 153/2/2 156/2/2
f 154/2/2 151/2/2 157/2/2
f 157/2/2 151/2/2 158/2/2
f 158/2/2 159/2/2 160/2/2
f 157/2/2 158/2/2 160/2/2
f 156/2/2 157/2/2 160/2/2
f 160/2/2 159/2/2 161/2/2
f 156/2/2 160/2/2 162/2/2
f 162/2/2 160/2/2 163/2/2
f 162/2/2 163/2/2 165/2/2
f 163/2/2 164/2/2 165/2/2
f 165/2/2 164/2/2 166/2/2
f 166/2/2 164/2/2 167/2/2
f 166/2/2 167/2/2 169/2/2
f 167/2/2 168/2/2 169/2/2
f 169/2/2 168/2/2 170/2/2
f 170/2/2 168/2/2 171/2/2
f 171/2/2 168/2/2 172/2/2
f 170/2/2 171/2/2 173/2/2
f 173/2/2 171/2/2 174/2/2
f 177/3/2 178/3/2 180/3/2
f 180/3/2 178/3/2 181/3/2
f 175/1/2 176/1/2 183/1/2
f 183/1/2 176/1/2 184/1/2
f 182/2/2 183/2/2 186/2/2
f 186/2/2 183/2/2 187/2/2
f 179/1/2 180/1/2 188/1/2
f 188/1/2 180/1/2 189/1/2
f 185/2/2 186/2/2 190/2/2
f 190/2/2 186/2/2 191/2/2
f 192/2/2 193/2/2 194/2/2
f 192/2/2 194/2/2 196/2/2
f 194/2/2 195/2/2 196/2/2
f 196/2/2 195/2/2 197/2/2
f 197/2/2 195/2/2 198/2/2
f 197/2/2 198/2/2 200/2/2
f 198/1/2 199/1/2 201/1/2
f 200/2/2 198/2/2 201/2/2
f 201/1/2 199/1/2 202/1/2
f 206/1/3 204/1/3 203/1/3
f 207/1/3 204/1/3 206/1/3
f 208/1/3 204/1/3 207/1/3
f 209/2/3 206/2/3 205/2/3
f 209/2/3 207/2/3 206/2/3
f 210/2/3 207/2/3 209/2/3
f 211/2/3 207/2/3 210/2/3
f 213/1/3 212/1/3 211/1/3
f 213/1/3 211/1/3 210/1/3
f 214/1/3 212/1/3 213/1/3
f 218/3/3 216/3/3 215/3/3
f 219/3/3 216/3/3 218/3/3
f 223/2/3 218/2/3 217/2/3
f 224/2/3 218/2/3 223/2/3
f 226/2/3 222/2/3 221/2/3
f 226/2/3 221/2/3 220/2/3
f 227/2/3 222/2/3 226/2/3
f 228/2/3 222/2/3 227/2/3
f 229/3/3 225/3/3 224/3/3
f 230/3/3 225/3/3 229/3/3
f 235/1/3 234/1/3 233/1/3
f 236/1/3 234/1/3 235/1/3
f 237/2/3 232/2/3 231/2/3
f 238/2/3 232/2/3 237/2/3
f 241/2/3 240/2/3 239/2/3
f 242/2/3 240/2/3 241/2/3
f 247/2/3 246/2/3 245/2/3
f 248/2/3 246/2/3 247/2/3
f 251/2/3 244/2/3 243/2/3
f 252/2/3 244/2/3 251/2/3
f 253/2/3 250/2/3 249/2/3
f 254/2/3 250/2/3 253/2/3
f 257/2/3 256/2/3 255/2/3
f 258/2/3 256/2/3 257/2/3
f 260/2/3 256/2/3 258/2/3
f 261/2/3 260/2/3 259/2/3
f 262/2/3 256/2/3 260/2/3
f 262/2/3 260/2/3 261/2/3
f 267/2/3 264/2/3 263/2/3
f 268/2/3 264/2/3 267/2/3
f 269/2/3 266/2/3 265/2/3
f 270/2/3 266/2/3 269/2/3
f 275/2/3 272/2/3 271/2/3
f 276/2/3 272/2/3 275/2/3
f 277/2/3 274/2/3 273/2/3
f 278/2/3 274/2/3 277/2/3
f 281/1/3 280/1/3 279/1/3
f 282/1/3 280/1/3 281/1/3
f 285/2/3 284/2/3 283/2/3
f 286/2/3 284/2/3 285/2/3
f 289/1/3 288/1/3 287/1/3
f 290/1/3 288/1/3 289/1/3
f 293/1/3 292/1/3 291/1/3
f 294/1/3 292/1/3 293/1/3
f 297/1/3 296/1/3 295/1/3
f 298/1/3 296/1/3 297/1/3
f 301/1/3 300/1/3 299/1/3
f 302/1/3 300/1/3 301/1/3
f 303/1/4 304/1/4 305/1/4
f 305/1/4 304/1/4 306/1/4
f 307/1/4 308/1/4 309/1/4
f 309/1/4 308/1/4 310/1/4
f 311/3/4 312/3/4 313/3/4
f 313/3/4 312/3/4 314/3/4
f 315/2/4 316/2/4 317/2/4
f 317/2/4 316/2/4 318/2/4
f 319/3/4 320/3/4 321/3/4
f 321/3/4 320/3/4 322/3/4
f 323/2/4 324/2/4 326/2/4
f 326/2/4 324/2/4 327/2/4
f 327/2/4 324/2/4 328/2/4
f 325/1/4 326/1/4 329/1/4
f 326/2/4 327/2/4 330/2/4
f 329/1/4 326/1/4 330/1/4
f 330/2/4 327/2/4 331/2/4
f 331/2/4 332/2/4 333/2/4
f 330/2/4 331/2/4 333/2/4
f 333/2/4 332/2/4 334/2/4
f 335/2/4 336/2/4 339/2/4
f 336/2/4 337/2/4 339/2/4
f 338/2/4 339/2/4 340/2/4
f 339/2/4 337/2/4 341/2/4
f 340/2/4 339/2/4 341/2/4
f 341/2/4 337/2/4 342/2/4
f 342/2/4 337/2/4 343/2/4
f 343/2/4 337/2/4 344/2/4
f 345/2/4 346/2/4 347/2/4
f 347/2/4 346/2/4 348/2/4
f 348/2/4 346/2/4 349/2/4
f 349/2/4 350/2/4 352/2/4
f 348/2/4 349/2/4 352/2/4
f 352/2/4 350/2/4 353/2/4
f 353/2/4 350/2/4 354/2/4
f 351/2/4 352/2/4 355/2/4
f 352/2/4 353/2/4 355/2/4
f 355/2/4 353/2/4 356/2/4
f 357/2/4 358/2/4 361/2/4
f 361/2/4 358/2/4 362/2/4
f 359/2/4 360/2/4 364/2/4
f 364/2/4 360/2/4 365/2/4
f 365/2/4 366/2/4 367/2/4
f 364/2/4 365/2/4 367/2/4
f 363/2/4 364/2/4 367/2/4
f 363/2/4 367/2/4 368/2/4
f 363/2/4 368/2/4 371/2/4
f 371/2/4 368/2/4 372/2/4
f 372/2/4 368/2/4 373/2/4
f 373/2/4 368/2/4 374/2/4
f 369/2/4 370/2/4 375/2/4
f 375/2/4 370/2/4 376/2/4
f 372/2/4 373/2/4 377/2/4
f 377/2/4 373/2/4 378/2/4
f 379/1/4 380/1/4 383/1/4
f 383/1/4 380/1/4 384/1/4
f 381/2/4 382/2/4 385/2/4
f 385/2/4 382/2/4 386/2/4
f 387/2/4 388/2/4 389/2/4
f 389/2/4 388/2/4 390/2/4
f 391/1/4 392/1/4 395/1/4
f 395/1/4 392/1/4 396/1/4
f 393/2/4 394/2/4 397/2/4
f 397/2/4 394/2/4 398/2/4
f 399/1/4 400/1/4 401/1/4
f 401/1/4 400/1/4 402/1/4
f 403/1/4 404/1/4 405/1/4
f 405/1/4 404/1/4 406/1/4
f 407/1/4 408/1/4 409/1/4
f 409/1/4 408/1/4 410/1/4
f 411/1/4 412/1/4 413/1/4
f 413/1/4 412/1/4 414/1/4
f 415/1/4 416/1/4 417/1/4
f 417/1/4 416/1/4 418/1/4
f 421/1/5 420/1/5 419/1/5
f 422/1/5 420/1/5 421/1/5
f 425/2/5 424/2/5 423/2/5
f 426/2/5 424/2/5 425/2/5
f 427/2/5 425/2/5 423/2/5
f 428/2/5 425/2/5 427/2/5
f 429/2/5 424/2/5 426/2/5
f 430/2/5 424/2/5 429/2/5
f 435/1/5 432/1/5 431/1/5
f 436/1/5 432/1/5 435/1/5
f 437/1/5 434/1/5 433/1/5
f 438/1/5 434/1/5 437/1/5
f 442/2/5 440/2/5 439/2/5
f 443/2/5 440/2/5 442/2/5
f 445/3/5 442/3/5 441/3/5
f 446/3/5 442/3/5 445/3/5
f 447/3/5 444/3/5 443/3/5
f 448/3/5 444/3/5 447/3/5
f 451/2/5 450/2/5 449/2/5
f 452/2/5 450/2/5 451/2/5
f 457/1/5 454/1/5 453/1/5
f 458/1/5 454/1/5 457/1/5
f 459/1/5 456/1/5 455/1/5
f 460/1/5 456/1/5 459/1/5
f 465/2/5 462/2/5 461/2/5
f 466/2/5 462/2/5 465/2/5
f 467/2/5 464/2/5 463/2/5
f 468/2/5 464/2/5 467/2/5
f 473/2/5 470/2/5 469/2/5
f 474/2/5 470/2/5 473/2/5
f 475/2/5 472/2/5 471/2/5
f 476/2/5 472/2/5 475/2/5
f 481/2/5 478/2/5 477/2/5
f 482/2/5 480/2/5 479/2/5
f 483/2/5 481/2/5 477/2/5
f 484/2/5 481/2/5 483/2/5
f 485/2/5 480/2/5 482/2/5
f 486/2/5 480/2/5 485/2/5
f 489/2/5 488/2/5 487/2/5
f 490/2/5 488/2/5 489/2/5
f 493/2/5 492/2/5 491/2/5
f 494/2/5 492/2/5 493/2/5
f 497/2/5 496/2/5 495/2/5
f 498/2/5 496/2/5 497/2/5
f 503/2/5 500/2/5 499/2/5
f 504/2/5 500/2/5 503/2/5
f 505/2/5 502/2/5 501/2/5
f 506/2/5 502/2/5 505/2/5
f 511/2/5 508/2/5 507/2/5
f 512/2/5 508/2/5 511/2/5
f 513/2/5 510/2/5 509/2/5
f 514/2/5 510/2/5 513/2/5
f 519/2/5 516/2/5 515/2/5
f 520/2/5 516/2/5 519/2/5
f 523/1/5 518/1/5 517/1/5
f 524/1/5 518/1/5 523/1/5
f 525/1/5 522/1/5 521/1/5
f 526/1/5 522/1/5 525/1/5
f 529/1/5 528/1/5 527/1/5
f 530/1/5 528/1/5 529/1/5
f 533/1/5 532/1/5 531/1/5
f 534/1/5 532/1/5 533/1/5
f 537/1/5 536/1/5 535/1/5
f 538/1/5 536/1/5 537/1/5
f 539/3/6 540/3/6 543/3/6
f 543/3/6 540/3/6 544/3/6
f 541/3/6 542/3/6 545/3/6
f 545/3/6 542/3/6 546/3/6
f 547/1/6 548/1/6 551/1/6
f 551/1/6 548/1/6 552/1/6
f 549/1/6 550/1/6 553/1/6
f 553/1/6 550/1/6 554/1/6
f 555/2/6 556/2/6 557/2/6
f 557/2/6 556/2/6 558/2/6
f 559/2/6 560/2/6 561/2/6
f 561/2/6 560/2/6 562/2/6
f 563/2/6 564/2/6 567/2/6
f 567/2/6 564/2/6 568/2/6
f 565/2/6 566/2/6 569/2/6
f 569/2/6 566/2/6 570/2/6
f 571/1/6 572/1/6 575/1/6
f 575/1/6 572/1/6 576/1/6
f 573/1/6 574/1/6 577/1/6
f 577/1/6 574/1/6 578/1/6
f 579/2/6 580/2/6 583/2/6
f 583/2/6 580/2/6 584/2/6
f 581/2/6 582/2/6 585/2/6
f 585/2/6 582/2/6 586/2/6
f 587/2/6 588/2/6 589/2/6
f 589/2/6 588/2/6 590/2/6
f 591/2/6 592/2/6 593/2/6
f 593/2/6 592/2/6 594/2/6
f 595/2/6 596/2/6 597/2/6
f 597/2/6 596/2/6 598/2/6
f 599/2/6 600/2/6 601/2/6
f 601/2/6 600/2/6 602/2/6
f 602/2/6 600/2/6 603/2/6
f 603/2/6 600/2/6 604/2/6
f 602/2/6 603/2/6 605/2/6
f 605/2/6 603/2/6 606/2/6
f 606/2/6 603/2/6 607/2/6
f 607/2/6 603/2/6 608/2/6
f 609/2/6 610/2/6 615/2/6
f 615/2/6 610/2/6 616/2/6
f 613/2/6 614/2/6 617/2/6
f 617/2/6 614/2/6 618/2/6
f 611/2/6 612/2/6 619/2/6
f 619/2/6 612/2/6 620/2/6
f 615/1/6 616/1/6 621/1/6
f 621/1/6 616/1/6 622/1/6
f 619/1/6 620/1/6 623/1/6
f 623/1/6 620/1/6 624/1/6
f 625/1/6 626/1/6 627/1/6
f 627/1/6 626/1/6 628/1/6
f 629/1/6 630/1/6 631/1/6
f 631/1/6 630/1/6 632/1/6
f 633/1/6 634/1/6 635/1/6
f 635/1/6 634/1/6 636/1/6
