# MagicaVoxel @ Ephtracy

# group
o 

# material
mtllib concrete_light.mtl
usemtl palette

# normals
vn -1 0 0
vn 1 0 0
vn 0 0 1
vn 0 0 -1
vn 0 -1 0
vn 0 1 0

# texcoords
vt 0.962891 0.5
vt 0.966797 0.5
vt 0.974609 0.5
vt 0.978516 0.5

# verts
v 0 2 0
v 0 2 -0.1
v 0 4 0
v 0 4 -0.1
v 2 2 0
v 2 2 -0.1
v 2 4 0
v 2 4 -0.1
v 0 2 0
v 0 4 0
v 0.1 3.5 0
v 0.1 3.6 0
v 0.2 2.3 0
v 0.2 2.4 0
v 0.2 2.7 0
v 0.2 2.9 0
v 0.2 3 0
v 0.2 3.2 0
v 0.2 3.3 0
v 0.2 3.5 0
v 0.2 3.6 0
v 0.3 2.3 0
v 0.3 2.4 0
v 0.3 2.7 0
v 0.3 2.9 0
v 0.3 3 0
v 0.3 3.1 0
v 0.3 3.2 0
v 0.3 3.3 0
v 0.3 3.4 0
v 0.3 3.5 0
v 0.3 3.6 0
v 0.4 3 0
v 0.4 3.1 0
v 0.4 3.2 0
v 0.4 3.3 0
v 0.4 3.4 0
v 0.4 3.5 0
v 0.4 3.7 0
v 0.4 3.8 0
v 0.5 2.5 0
v 0.5 2.8 0
v 0.5 2.9 0
v 0.5 3 0
v 0.5 3.5 0
v 0.5 3.6 0
v 0.5 3.7 0
v 0.5 3.8 0
v 0.6 2.5 0
v 0.6 2.8 0
v 0.6 2.9 0
v 0.6 3 0
v 0.6 3.1 0
v 0.7 2.2 0
v 0.7 2.3 0
v 0.7 2.5 0
v 0.7 2.8 0
v 0.7 2.9 0
v 0.7 3 0
v 0.7 3.1 0
v 0.7 3.4 0
v 0.7 3.7 0
v 0.8 2.9 0
v 0.8 3 0
v 0.8 3.1 0
v 0.8 3.2 0
v 0.8 3.3 0
v 0.8 3.4 0
v 0.8 3.6 0
v 0.8 3.7 0
v 0.8 3.8 0
v 0.9 2.2 0
v 0.9 2.3 0
v 0.9 2.5 0
v 0.9 2.9 0
v 0.9 3 0
v 0.9 3.2 0
v 0.9 3.3 0
v 0.9 3.6 0
v 0.9 3.8 0
v 1 2.2 0
v 1 2.3 0
v 1 2.4 0
v 1 2.5 0
v 1 2.6 0
v 1.1 2.3 0
v 1.1 2.4 0
v 1.1 2.5 0
v 1.1 2.6 0
v 1.1 2.7 0
v 1.1 2.9 0
v 1.1 3 0
v 1.1 3.1 0
v 1.1 3.2 0
v 1.1 3.3 0
v 1.1 3.4 0
v 1.2 2.5 0
v 1.2 2.7 0
v 1.2 2.9 0
v 1.2 3 0
v 1.2 3.1 0
v 1.2 3.2 0
v 1.2 3.3 0
v 1.2 3.4 0
v 1.2 3.5 0
v 1.2 3.6 0
v 1.2 3.8 0
v 1.3 3 0
v 1.3 3.3 0
v 1.3 3.4 0
v 1.3 3.5 0
v 1.3 3.6 0
v 1.3 3.8 0
v 1.3 3.9 0
v 1.4 2.2 0
v 1.4 2.3 0
v 1.4 3.5 0
v 1.4 3.6 0
v 1.4 3.8 0
v 1.4 3.9 0
v 1.5 2.2 0
v 1.5 2.3 0
v 1.5 2.4 0
v 1.5 2.5 0
v 1.5 2.8 0
v 1.5 3 0
v 1.6 2.3 0
v 1.6 2.4 0
v 1.6 2.5 0
v 1.6 2.7 0
v 1.6 2.8 0
v 1.6 3 0
v 1.6 3.2 0
v 1.6 3.3 0
v 1.6 3.4 0
v 1.6 3.5 0
v 1.6 3.6 0
v 1.6 3.7 0
v 1.7 2.3 0
v 1.7 2.5 0
v 1.7 2.7 0
v 1.7 3.1 0
v 1.7 3.2 0
v 1.7 3.3 0
v 1.7 3.4 0
v 1.7 3.5 0
v 1.7 3.6 0
v 1.7 3.7 0
v 1.8 3.1 0
v 1.8 3.3 0
v 1.8 3.4 0
v 1.8 3.5 0
v 1.8 3.6 0
v 1.8 3.7 0
v 1.8 3.8 0
v 1.9 3.3 0
v 1.9 3.4 0
v 1.9 3.5 0
v 1.9 3.6 0
v 1.9 3.7 0
v 1.9 3.8 0
v 2 2 0
v 2 4 0
v 0 2 -0.1
v 0 4 -0.1
v 0.1 3.5 -0.1
v 0.1 3.6 -0.1
v 0.2 2.3 -0.1
v 0.2 2.4 -0.1
v 0.2 2.7 -0.1
v 0.2 2.9 -0.1
v 0.2 3 -0.1
v 0.2 3.2 -0.1
v 0.2 3.3 -0.1
v 0.2 3.5 -0.1
v 0.2 3.6 -0.1
v 0.3 2.3 -0.1
v 0.3 2.4 -0.1
v 0.3 2.7 -0.1
v 0.3 2.9 -0.1
v 0.3 3 -0.1
v 0.3 3.1 -0.1
v 0.3 3.2 -0.1
v 0.3 3.3 -0.1
v 0.3 3.4 -0.1
v 0.3 3.5 -0.1
v 0.3 3.6 -0.1
v 0.4 3 -0.1
v 0.4 3.1 -0.1
v 0.4 3.2 -0.1
v 0.4 3.3 -0.1
v 0.4 3.4 -0.1
v 0.4 3.5 -0.1
v 0.4 3.7 -0.1
v 0.4 3.8 -0.1
v 0.5 2.5 -0.1
v 0.5 2.8 -0.1
v 0.5 2.9 -0.1
v 0.5 3 -0.1
v 0.5 3.5 -0.1
v 0.5 3.6 -0.1
v 0.5 3.7 -0.1
v 0.5 3.8 -0.1
v 0.6 2.5 -0.1
v 0.6 2.8 -0.1
v 0.6 2.9 -0.1
v 0.6 3 -0.1
v 0.6 3.1 -0.1
v 0.7 2.2 -0.1
v 0.7 2.3 -0.1
v 0.7 2.5 -0.1
v 0.7 2.8 -0.1
v 0.7 2.9 -0.1
v 0.7 3 -0.1
v 0.7 3.1 -0.1
v 0.7 3.4 -0.1
v 0.7 3.7 -0.1
v 0.8 2.9 -0.1
v 0.8 3 -0.1
v 0.8 3.1 -0.1
v 0.8 3.2 -0.1
v 0.8 3.3 -0.1
v 0.8 3.4 -0.1
v 0.8 3.6 -0.1
v 0.8 3.7 -0.1
v 0.8 3.8 -0.1
v 0.9 2.2 -0.1
v 0.9 2.3 -0.1
v 0.9 2.5 -0.1
v 0.9 2.9 -0.1
v 0.9 3 -0.1
v 0.9 3.2 -0.1
v 0.9 3.3 -0.1
v 0.9 3.6 -0.1
v 0.9 3.8 -0.1
v 1 2.2 -0.1
v 1 2.3 -0.1
v 1 2.4 -0.1
v 1 2.5 -0.1
v 1 2.6 -0.1
v 1.1 2.3 -0.1
v 1.1 2.4 -0.1
v 1.1 2.5 -0.1
v 1.1 2.6 -0.1
v 1.1 2.7 -0.1
v 1.1 2.9 -0.1
v 1.1 3 -0.1
v 1.1 3.1 -0.1
v 1.1 3.2 -0.1
v 1.1 3.3 -0.1
v 1.1 3.4 -0.1
v 1.2 2.5 -0.1
v 1.2 2.7 -0.1
v 1.2 2.9 -0.1
v 1.2 3 -0.1
v 1.2 3.1 -0.1
v 1.2 3.2 -0.1
v 1.2 3.3 -0.1
v 1.2 3.4 -0.1
v 1.2 3.5 -0.1
v 1.2 3.6 -0.1
v 1.2 3.8 -0.1
v 1.3 3 -0.1
v 1.3 3.3 -0.1
v 1.3 3.4 -0.1
v 1.3 3.5 -0.1
v 1.3 3.6 -0.1
v 1.3 3.8 -0.1
v 1.3 3.9 -0.1
v 1.4 2.2 -0.1
v 1.4 2.3 -0.1
v 1.4 3.5 -0.1
v 1.4 3.6 -0.1
v 1.4 3.8 -0.1
v 1.4 3.9 -0.1
v 1.5 2.2 -0.1
v 1.5 2.3 -0.1
v 1.5 2.4 -0.1
v 1.5 2.5 -0.1
v 1.5 2.8 -0.1
v 1.5 3 -0.1
v 1.6 2.3 -0.1
v 1.6 2.4 -0.1
v 1.6 2.5 -0.1
v 1.6 2.7 -0.1
v 1.6 2.8 -0.1
v 1.6 3 -0.1
v 1.6 3.2 -0.1
v 1.6 3.3 -0.1
v 1.6 3.4 -0.1
v 1.6 3.5 -0.1
v 1.6 3.6 -0.1
v 1.6 3.7 -0.1
v 1.7 2.3 -0.1
v 1.7 2.5 -0.1
v 1.7 2.7 -0.1
v 1.7 3.1 -0.1
v 1.7 3.2 -0.1
v 1.7 3.3 -0.1
v 1.7 3.4 -0.1
v 1.7 3.5 -0.1
v 1.7 3.6 -0.1
v 1.7 3.7 -0.1
v 1.8 3.1 -0.1
v 1.8 3.3 -0.1
v 1.8 3.4 -0.1
v 1.8 3.5 -0.1
v 1.8 3.6 -0.1
v 1.8 3.7 -0.1
v 1.8 3.8 -0.1
v 1.9 3.3 -0.1
v 1.9 3.4 -0.1
v 1.9 3.5 -0.1
v 1.9 3.6 -0.1
v 1.9 3.7 -0.1
v 1.9 3.8 -0.1
v 2 2 -0.1
v 2 4 -0.1
v 0 2 0
v 2 2 0
v 0 2 -0.1
v 2 2 -0.1
v 0 4 0
v 2 4 0
v 0 4 -0.1
v 2 4 -0.1

# faces
f 3/2/1 2/2/1 1/2/1
f 4/2/1 2/2/1 3/2/1
f 5/2/2 6/2/2 7/2/2
f 7/2/2 6/2/2 8/2/2
f 11/2/3 10/2/3 9/2/3
f 12/2/3 10/2/3 11/2/3
f 13/2/3 11/2/3 9/2/3
f 14/2/3 11/2/3 13/2/3
f 15/2/3 11/2/3 14/2/3
f 16/2/3 11/2/3 15/2/3
f 17/2/3 11/2/3 16/2/3
f 18/2/3 11/2/3 17/2/3
f 19/2/3 11/2/3 18/2/3
f 20/1/3 12/1/3 11/1/3
f 20/2/3 11/2/3 19/2/3
f 21/2/3 10/2/3 12/2/3
f 21/1/3 12/1/3 20/1/3
f 22/2/3 13/2/3 9/2/3
f 22/1/3 14/1/3 13/1/3
f 23/2/3 15/2/3 14/2/3
f 23/1/3 14/1/3 22/1/3
f 24/1/3 16/1/3 15/1/3
f 24/2/3 15/2/3 23/2/3
f 25/2/3 17/2/3 16/2/3
f 25/1/3 16/1/3 24/1/3
f 26/1/3 18/1/3 17/1/3
f 26/2/3 17/2/3 25/2/3
f 27/1/3 18/1/3 26/1/3
f 28/2/3 19/2/3 18/2/3
f 28/1/3 18/1/3 27/1/3
f 29/4/3 20/4/3 19/4/3
f 29/2/3 19/2/3 28/2/3
f 30/4/3 20/4/3 29/4/3
f 31/2/3 21/2/3 20/2/3
f 31/4/3 20/4/3 30/4/3
f 32/2/3 10/2/3 21/2/3
f 32/2/3 21/2/3 31/2/3
f 33/3/3 27/3/3 26/3/3
f 33/2/3 23/2/3 22/2/3
f 33/2/3 24/2/3 23/2/3
f 33/2/3 25/2/3 24/2/3
f 33/2/3 26/2/3 25/2/3
f 34/2/3 28/2/3 27/2/3
f 34/3/3 27/3/3 33/3/3
f 35/3/3 29/3/3 28/3/3
f 35/2/3 28/2/3 34/2/3
f 36/2/3 30/2/3 29/2/3
f 36/3/3 29/3/3 35/3/3
f 37/3/3 31/3/3 30/3/3
f 37/2/3 30/2/3 36/2/3
f 37/3/3 32/3/3 31/3/3
f 38/3/3 32/3/3 37/3/3
f 39/2/3 10/2/3 32/2/3
f 40/2/3 10/2/3 39/2/3
f 41/2/3 33/2/3 22/2/3
f 41/2/3 36/2/3 35/2/3
f 41/2/3 35/2/3 34/2/3
f 41/2/3 34/2/3 33/2/3
f 41/2/3 38/2/3 37/2/3
f 41/2/3 37/2/3 36/2/3
f 42/2/3 38/2/3 41/2/3
f 43/2/3 38/2/3 42/2/3
f 44/2/3 38/2/3 43/2/3
f 45/3/3 32/3/3 38/3/3
f 45/2/3 38/2/3 44/2/3
f 46/2/3 39/2/3 32/2/3
f 46/3/3 32/3/3 45/3/3
f 47/3/3 40/3/3 39/3/3
f 47/2/3 39/2/3 46/2/3
f 48/2/3 10/2/3 40/2/3
f 48/3/3 40/3/3 47/3/3
f 49/2/3 41/2/3 22/2/3
f 49/3/3 42/3/3 41/3/3
f 50/2/3 43/2/3 42/2/3
f 50/3/3 42/3/3 49/3/3
f 51/3/3 44/3/3 43/3/3
f 51/2/3 43/2/3 50/2/3
f 52/2/3 47/2/3 46/2/3
f 52/3/3 44/3/3 51/3/3
f 52/2/3 46/2/3 45/2/3
f 52/2/3 45/2/3 44/2/3
f 52/2/3 48/2/3 47/2/3
f 53/2/3 48/2/3 52/2/3
f 54/2/3 49/2/3 22/2/3
f 54/2/3 22/2/3 9/2/3
f 55/2/3 49/2/3 54/2/3
f 56/1/3 50/1/3 49/1/3
f 56/2/3 49/2/3 55/2/3
f 57/4/3 51/4/3 50/4/3
f 57/1/3 50/1/3 56/1/3
f 58/2/3 52/2/3 51/2/3
f 58/4/3 51/4/3 57/4/3
f 59/3/3 53/3/3 52/3/3
f 59/2/3 52/2/3 58/2/3
f 60/2/3 48/2/3 53/2/3
f 60/3/3 53/3/3 59/3/3
f 61/2/3 48/2/3 60/2/3
f 62/2/3 48/2/3 61/2/3
f 63/2/3 56/2/3 55/2/3
f 63/4/3 59/4/3 58/4/3
f 63/2/3 58/2/3 57/2/3
f 63/2/3 57/2/3 56/2/3
f 63/4/3 60/4/3 59/4/3
f 64/4/3 60/4/3 63/4/3
f 65/2/3 61/2/3 60/2/3
f 65/4/3 60/4/3 64/4/3
f 66/2/3 61/2/3 65/2/3
f 67/2/3 61/2/3 66/2/3
f 68/4/3 62/4/3 61/4/3
f 68/2/3 61/2/3 67/2/3
f 69/4/3 62/4/3 68/4/3
f 70/2/3 48/2/3 62/2/3
f 70/4/3 62/4/3 69/4/3
f 71/2/3 10/2/3 48/2/3
f 71/2/3 48/2/3 70/2/3
f 72/3/3 55/3/3 54/3/3
f 72/2/3 54/2/3 9/2/3
f 73/2/3 63/2/3 55/2/3
f 73/3/3 55/3/3 72/3/3
f 74/2/3 63/2/3 73/2/3
f 75/1/3 64/1/3 63/1/3
f 75/2/3 63/2/3 74/2/3
f 76/2/3 65/2/3 64/2/3
f 76/1/3 64/1/3 75/1/3
f 76/2/3 66/2/3 65/2/3
f 77/1/3 67/1/3 66/1/3
f 77/2/3 66/2/3 76/2/3
f 78/2/3 69/2/3 68/2/3
f 78/1/3 67/1/3 77/1/3
f 78/2/3 68/2/3 67/2/3
f 79/1/3 70/1/3 69/1/3
f 79/2/3 69/2/3 78/2/3
f 79/1/3 71/1/3 70/1/3
f 80/2/3 10/2/3 71/2/3
f 80/1/3 71/1/3 79/1/3
f 81/1/3 73/1/3 72/1/3
f 81/2/3 72/2/3 9/2/3
f 82/3/3 74/3/3 73/3/3
f 82/1/3 73/1/3 81/1/3
f 83/3/3 74/3/3 82/3/3
f 84/2/3 77/2/3 76/2/3
f 84/3/3 74/3/3 83/3/3
f 84/2/3 79/2/3 78/2/3
f 84/2/3 76/2/3 75/2/3
f 84/2/3 75/2/3 74/2/3
f 84/2/3 80/2/3 79/2/3
f 84/2/3 78/2/3 77/2/3
f 85/2/3 80/2/3 84/2/3
f 86/4/3 83/4/3 82/4/3
f 86/2/3 82/2/3 81/2/3
f 87/2/3 84/2/3 83/2/3
f 87/4/3 83/4/3 86/4/3
f 88/3/3 85/3/3 84/3/3
f 88/2/3 84/2/3 87/2/3
f 89/2/3 80/2/3 85/2/3
f 89/3/3 85/3/3 88/3/3
f 90/2/3 80/2/3 89/2/3
f 91/2/3 80/2/3 90/2/3
f 92/2/3 80/2/3 91/2/3
f 93/2/3 80/2/3 92/2/3
f 94/2/3 80/2/3 93/2/3
f 95/2/3 80/2/3 94/2/3
f 96/2/3 80/2/3 95/2/3
f 97/2/3 88/2/3 87/2/3
f 97/2/3 87/2/3 86/2/3
f 97/1/3 89/1/3 88/1/3
f 97/1/3 90/1/3 89/1/3
f 98/2/3 91/2/3 90/2/3
f 98/1/3 90/1/3 97/1/3
f 99/3/3 92/3/3 91/3/3
f 99/2/3 91/2/3 98/2/3
f 100/2/3 93/2/3 92/2/3
f 100/3/3 92/3/3 99/3/3
f 101/3/3 94/3/3 93/3/3
f 101/2/3 93/2/3 100/2/3
f 102/2/3 95/2/3 94/2/3
f 102/3/3 94/3/3 101/3/3
f 103/3/3 96/3/3 95/3/3
f 103/2/3 95/2/3 102/2/3
f 104/2/3 80/2/3 96/2/3
f 104/3/3 96/3/3 103/3/3
f 105/2/3 80/2/3 104/2/3
f 106/2/3 80/2/3 105/2/3
f 107/2/3 10/2/3 80/2/3
f 107/2/3 80/2/3 106/2/3
f 108/4/3 103/4/3 102/4/3
f 108/4/3 102/4/3 101/4/3
f 108/4/3 101/4/3 100/4/3
f 108/2/3 100/2/3 99/2/3
f 108/2/3 98/2/3 97/2/3
f 108/2/3 99/2/3 98/2/3
f 109/2/3 104/2/3 103/2/3
f 109/4/3 103/4/3 108/4/3
f 110/3/3 105/3/3 104/3/3
f 110/2/3 104/2/3 109/2/3
f 111/2/3 106/2/3 105/2/3
f 111/3/3 105/3/3 110/3/3
f 112/3/3 107/3/3 106/3/3
f 112/2/3 106/2/3 111/2/3
f 113/2/3 10/2/3 107/2/3
f 113/3/3 107/3/3 112/3/3
f 114/2/3 10/2/3 113/2/3
f 115/2/3 111/2/3 110/2/3
f 115/2/3 110/2/3 109/2/3
f 115/2/3 81/2/3 9/2/3
f 115/2/3 86/2/3 81/2/3
f 115/2/3 97/2/3 86/2/3
f 115/2/3 108/2/3 97/2/3
f 115/2/3 109/2/3 108/2/3
f 116/2/3 111/2/3 115/2/3
f 117/1/3 112/1/3 111/1/3
f 117/2/3 111/2/3 116/2/3
f 118/2/3 113/2/3 112/2/3
f 118/1/3 112/1/3 117/1/3
f 119/1/3 114/1/3 113/1/3
f 119/2/3 113/2/3 118/2/3
f 120/2/3 10/2/3 114/2/3
f 120/1/3 114/1/3 119/1/3
f 121/3/3 116/3/3 115/3/3
f 121/2/3 115/2/3 9/2/3
f 122/2/3 119/2/3 118/2/3
f 122/3/3 116/3/3 121/3/3
f 122/2/3 118/2/3 117/2/3
f 122/2/3 120/2/3 119/2/3
f 122/2/3 117/2/3 116/2/3
f 123/2/3 120/2/3 122/2/3
f 124/2/3 120/2/3 123/2/3
f 125/2/3 120/2/3 124/2/3
f 126/2/3 120/2/3 125/2/3
f 127/2/3 122/2/3 121/2/3
f 127/2/3 123/2/3 122/2/3
f 128/3/3 124/3/3 123/3/3
f 128/2/3 123/2/3 127/2/3
f 129/2/3 125/2/3 124/2/3
f 129/3/3 124/3/3 128/3/3
f 130/2/3 125/2/3 129/2/3
f 131/1/3 126/1/3 125/1/3
f 131/2/3 125/2/3 130/2/3
f 132/2/3 120/2/3 126/2/3
f 132/1/3 126/1/3 131/1/3
f 133/2/3 120/2/3 132/2/3
f 134/2/3 120/2/3 133/2/3
f 135/2/3 120/2/3 134/2/3
f 136/2/3 120/2/3 135/2/3
f 137/2/3 120/2/3 136/2/3
f 138/2/3 120/2/3 137/2/3
f 139/2/3 127/2/3 121/2/3
f 139/1/3 128/1/3 127/1/3
f 139/1/3 129/1/3 128/1/3
f 140/4/3 130/4/3 129/4/3
f 140/1/3 129/1/3 139/1/3
f 141/2/3 131/2/3 130/2/3
f 141/4/3 130/4/3 140/4/3
f 141/2/3 132/2/3 131/2/3
f 141/2/3 133/2/3 132/2/3
f 142/2/3 133/2/3 141/2/3
f 143/1/3 134/1/3 133/1/3
f 143/2/3 133/2/3 142/2/3
f 144/2/3 135/2/3 134/2/3
f 144/1/3 134/1/3 143/1/3
f 145/4/3 136/4/3 135/4/3
f 145/2/3 135/2/3 144/2/3
f 146/2/3 137/2/3 136/2/3
f 146/4/3 136/4/3 145/4/3
f 147/3/3 138/3/3 137/3/3
f 147/2/3 137/2/3 146/2/3
f 148/2/3 120/2/3 138/2/3
f 148/3/3 138/3/3 147/3/3
f 149/2/3 140/2/3 139/2/3
f 149/3/3 144/3/3 143/3/3
f 149/3/3 143/3/3 142/3/3
f 149/2/3 141/2/3 140/2/3
f 149/2/3 142/2/3 141/2/3
f 150/2/3 146/2/3 145/2/3
f 150/3/3 144/3/3 149/3/3
f 150/2/3 145/2/3 144/2/3
f 151/2/3 146/2/3 150/2/3
f 152/3/3 147/3/3 146/3/3
f 152/2/3 146/2/3 151/2/3
f 153/2/3 148/2/3 147/2/3
f 153/3/3 147/3/3 152/3/3
f 154/2/3 120/2/3 148/2/3
f 154/2/3 148/2/3 153/2/3
f 155/2/3 120/2/3 154/2/3
f 156/1/3 151/1/3 150/1/3
f 156/2/3 150/2/3 149/2/3
f 157/2/3 152/2/3 151/2/3
f 157/1/3 151/1/3 156/1/3
f 158/1/3 153/1/3 152/1/3
f 158/2/3 152/2/3 157/2/3
f 159/2/3 154/2/3 153/2/3
f 159/1/3 153/1/3 158/1/3
f 160/1/3 155/1/3 154/1/3
f 160/2/3 154/2/3 159/2/3
f 161/2/3 120/2/3 155/2/3
f 161/1/3 155/1/3 160/1/3
f 162/2/3 121/2/3 9/2/3
f 162/2/3 157/2/3 156/2/3
f 162/2/3 161/2/3 160/2/3
f 162/2/3 158/2/3 157/2/3
f 162/2/3 159/2/3 158/2/3
f 162/2/3 156/2/3 149/2/3
f 162/2/3 149/2/3 139/2/3
f 162/2/3 160/2/3 159/2/3
f 162/2/3 139/2/3 121/2/3
f 163/2/3 10/2/3 120/2/3
f 163/2/3 161/2/3 162/2/3
f 163/2/3 120/2/3 161/2/3
f 164/2/4 165/2/4 166/2/4
f 166/2/4 165/2/4 167/2/4
f 164/2/4 166/2/4 168/2/4
f 168/2/4 166/2/4 169/2/4
f 169/2/4 166/2/4 170/2/4
f 170/2/4 166/2/4 171/2/4
f 171/2/4 166/2/4 172/2/4
f 172/2/4 166/2/4 173/2/4
f 173/2/4 166/2/4 174/2/4
f 166/1/4 167/1/4 175/1/4
f 174/2/4 166/2/4 175/2/4
f 167/2/4 165/2/4 176/2/4
f 175/1/4 167/1/4 176/1/4
f 164/2/4 168/2/4 177/2/4
f 168/1/4 169/1/4 177/1/4
f 169/2/4 170/2/4 178/2/4
f 177/1/4 169/1/4 178/1/4
f 170/1/4 171/1/4 179/1/4
f 178/2/4 170/2/4 179/2/4
f 171/2/4 172/2/4 180/2/4
f 179/1/4 171/1/4 180/1/4
f 172/1/4 173/1/4 181/1/4
f 180/2/4 172/2/4 181/2/4
f 181/1/4 173/1/4 182/1/4
f 173/2/4 174/2/4 183/2/4
f 182/1/4 173/1/4 183/1/4
f 174/4/4 175/4/4 184/4/4
f 183/2/4 174/2/4 184/2/4
f 184/4/4 175/4/4 185/4/4
f 175/2/4 176/2/4 186/2/4
f 185/4/4 175/4/4 186/4/4
f 176/2/4 165/2/4 187/2/4
f 186/2/4 176/2/4 187/2/4
f 181/3/4 182/3/4 188/3/4
f 177/2/4 178/2/4 188/2/4
f 178/2/4 179/2/4 188/2/4
f 179/2/4 180/2/4 188/2/4
f 180/2/4 181/2/4 188/2/4
f 182/2/4 183/2/4 189/2/4
f 188/3/4 182/3/4 189/3/4
f 183/3/4 184/3/4 190/3/4
f 189/2/4 183/2/4 190/2/4
f 184/2/4 185/2/4 191/2/4
f 190/3/4 184/3/4 191/3/4
f 185/3/4 186/3/4 192/3/4
f 191/2/4 185/2/4 192/2/4
f 186/3/4 187/3/4 192/3/4
f 192/3/4 187/3/4 193/3/4
f 187/2/4 165/2/4 194/2/4
f 194/2/4 165/2/4 195/2/4
f 177/2/4 188/2/4 196/2/4
f 190/2/4 191/2/4 196/2/4
f 189/2/4 190/2/4 196/2/4
f 188/2/4 189/2/4 196/2/4
f 192/2/4 193/2/4 196/2/4
f 191/2/4 192/2/4 196/2/4
f 196/2/4 193/2/4 197/2/4
f 197/2/4 193/2/4 198/2/4
f 198/2/4 193/2/4 199/2/4
f 193/3/4 187/3/4 200/3/4
f 199/2/4 193/2/4 200/2/4
f 187/2/4 194/2/4 201/2/4
f 200/3/4 187/3/4 201/3/4
f 194/3/4 195/3/4 202/3/4
f 201/2/4 194/2/4 202/2/4
f 195/2/4 165/2/4 203/2/4
f 202/3/4 195/3/4 203/3/4
f 177/2/4 196/2/4 204/2/4
f 196/3/4 197/3/4 204/3/4
f 197/2/4 198/2/4 205/2/4
f 204/3/4 197/3/4 205/3/4
f 198/3/4 199/3/4 206/3/4
f 205/2/4 198/2/4 206/2/4
f 201/2/4 202/2/4 207/2/4
f 206/3/4 199/3/4 207/3/4
f 200/2/4 201/2/4 207/2/4
f 199/2/4 200/2/4 207/2/4
f 202/2/4 203/2/4 207/2/4
f 207/2/4 203/2/4 208/2/4
f 177/2/4 204/2/4 209/2/4
f 164/2/4 177/2/4 209/2/4
f 209/2/4 204/2/4 210/2/4
f 204/1/4 205/1/4 211/1/4
f 210/2/4 204/2/4 211/2/4
f 205/4/4 206/4/4 212/4/4
f 211/1/4 205/1/4 212/1/4
f 206/2/4 207/2/4 213/2/4
f 212/4/4 206/4/4 213/4/4
f 207/3/4 208/3/4 214/3/4
f 213/2/4 207/2/4 214/2/4
f 208/2/4 203/2/4 215/2/4
f 214/3/4 208/3/4 215/3/4
f 215/2/4 203/2/4 216/2/4
f 216/2/4 203/2/4 217/2/4
f 210/2/4 211/2/4 218/2/4
f 213/4/4 214/4/4 218/4/4
f 212/2/4 213/2/4 218/2/4
f 211/2/4 212/2/4 218/2/4
f 214/4/4 215/4/4 218/4/4
f 218/4/4 215/4/4 219/4/4
f 215/2/4 216/2/4 220/2/4
f 219/4/4 215/4/4 220/4/4
f 220/2/4 216/2/4 221/2/4
f 221/2/4 216/2/4 222/2/4
f 216/4/4 217/4/4 223/4/4
f 222/2/4 216/2/4 223/2/4
f 223/4/4 217/4/4 224/4/4
f 217/2/4 203/2/4 225/2/4
f 224/4/4 217/4/4 225/4/4
f 203/2/4 165/2/4 226/2/4
f 225/2/4 203/2/4 226/2/4
f 209/3/4 210/3/4 227/3/4
f 164/2/4 209/2/4 227/2/4
f 210/2/4 218/2/4 228/2/4
f 227/3/4 210/3/4 228/3/4
f 228/2/4 218/2/4 229/2/4
f 218/1/4 219/1/4 230/1/4
f 229/2/4 218/2/4 230/2/4
f 219/2/4 220/2/4 231/2/4
f 230/1/4 219/1/4 231/1/4
f 220/2/4 221/2/4 231/2/4
f 221/1/4 222/1/4 232/1/4
f 231/2/4 221/2/4 232/2/4
f 223/2/4 224/2/4 233/2/4
f 232/1/4 222/1/4 233/1/4
f 222/2/4 223/2/4 233/2/4
f 224/1/4 225/1/4 234/1/4
f 233/2/4 224/2/4 234/2/4
f 225/1/4 226/1/4 234/1/4
f 226/2/4 165/2/4 235/2/4
f 234/1/4 226/1/4 235/1/4
f 227/1/4 228/1/4 236/1/4
f 164/2/4 227/2/4 236/2/4
f 228/3/4 229/3/4 237/3/4
f 236/1/4 228/1/4 237/1/4
f 237/3/4 229/3/4 238/3/4
f 231/2/4 232/2/4 239/2/4
f 238/3/4 229/3/4 239/3/4
f 233/2/4 234/2/4 239/2/4
f 230/2/4 231/2/4 239/2/4
f 229/2/4 230/2/4 239/2/4
f 234/2/4 235/2/4 239/2/4
f 232/2/4 233/2/4 239/2/4
f 239/2/4 235/2/4 240/2/4
f 237/4/4 238/4/4 241/4/4
f 236/2/4 237/2/4 241/2/4
f 238/2/4 239/2/4 242/2/4
f 241/4/4 238/4/4 242/4/4
f 239/3/4 240/3/4 243/3/4
f 242/2/4 239/2/4 243/2/4
f 240/2/4 235/2/4 244/2/4
f 243/3/4 240/3/4 244/3/4
f 244/2/4 235/2/4 245/2/4
f 245/2/4 235/2/4 246/2/4
f 246/2/4 235/2/4 247/2/4
f 247/2/4 235/2/4 248/2/4
f 248/2/4 235/2/4 249/2/4
f 249/2/4 235/2/4 250/2/4
f 250/2/4 235/2/4 251/2/4
f 242/2/4 243/2/4 252/2/4
f 241/2/4 242/2/4 252/2/4
f 243/1/4 244/1/4 252/1/4
f 244/1/4 245/1/4 252/1/4
f 245/2/4 246/2/4 253/2/4
f 252/1/4 245/1/4 253/1/4
f 246/3/4 247/3/4 254/3/4
f 253/2/4 246/2/4 254/2/4
f 247/2/4 248/2/4 255/2/4
f 254/3/4 247/3/4 255/3/4
f 248/3/4 249/3/4 256/3/4
f 255/2/4 248/2/4 256/2/4
f 249/2/4 250/2/4 257/2/4
f 256/3/4 249/3/4 257/3/4
f 250/3/4 251/3/4 258/3/4
f 257/2/4 250/2/4 258/2/4
f 251/2/4 235/2/4 259/2/4
f 258/3/4 251/3/4 259/3/4
f 259/2/4 235/2/4 260/2/4
f 260/2/4 235/2/4 261/2/4
f 235/2/4 165/2/4 262/2/4
f 261/2/4 235/2/4 262/2/4
f 257/4/4 258/4/4 263/4/4
f 256/4/4 257/4/4 263/4/4
f 255/4/4 256/4/4 263/4/4
f 254/2/4 255/2/4 263/2/4
f 252/2/4 253/2/4 263/2/4
f 253/2/4 254/2/4 263/2/4
f 258/2/4 259/2/4 264/2/4
f 263/4/4 258/4/4 264/4/4
f 259/3/4 260/3/4 265/3/4
f 264/2/4 259/2/4 265/2/4
f 260/2/4 261/2/4 266/2/4
f 265/3/4 260/3/4 266/3/4
f 261/3/4 262/3/4 267/3/4
f 266/2/4 261/2/4 267/2/4
f 262/2/4 165/2/4 268/2/4
f 267/3/4 262/3/4 268/3/4
f 268/2/4 165/2/4 269/2/4
f 265/2/4 266/2/4 270/2/4
f 264/2/4 265/2/4 270/2/4
f 164/2/4 236/2/4 270/2/4
f 236/2/4 241/2/4 270/2/4
f 241/2/4 252/2/4 270/2/4
f 252/2/4 263/2/4 270/2/4
f 263/2/4 264/2/4 270/2/4
f 270/2/4 266/2/4 271/2/4
f 266/1/4 267/1/4 272/1/4
f 271/2/4 266/2/4 272/2/4
f 267/2/4 268/2/4 273/2/4
f 272/1/4 267/1/4 273/1/4
f 268/1/4 269/1/4 274/1/4
f 273/2/4 268/2/4 274/2/4
f 269/2/4 165/2/4 275/2/4
f 274/1/4 269/1/4 275/1/4
f 270/3/4 271/3/4 276/3/4
f 164/2/4 270/2/4 276/2/4
f 273/2/4 274/2/4 277/2/4
f 276/3/4 271/3/4 277/3/4
f 272/2/4 273/2/4 277/2/4
f 274/2/4 275/2/4 277/2/4
f 271/2/4 272/2/4 277/2/4
f 277/2/4 275/2/4 278/2/4
f 278/2/4 275/2/4 279/2/4
f 279/2/4 275/2/4 280/2/4
f 280/2/4 275/2/4 281/2/4
f 276/2/4 277/2/4 282/2/4
f 277/2/4 278/2/4 282/2/4
f 278/3/4 279/3/4 283/3/4
f 282/2/4 278/2/4 283/2/4
f 279/2/4 280/2/4 284/2/4
f 283/3/4 279/3/4 284/3/4
f 284/2/4 280/2/4 285/2/4
f 280/1/4 281/1/4 286/1/4
f 285/2/4 280/2/4 286/2/4
f 281/2/4 275/2/4 287/2/4
f 286/1/4 281/1/4 287/1/4
f 287/2/4 275/2/4 288/2/4
f 288/2/4 275/2/4 289/2/4
f 289/2/4 275/2/4 290/2/4
f 290/2/4 275/2/4 291/2/4
f 291/2/4 275/2/4 292/2/4
f 292/2/4 275/2/4 293/2/4
f 276/2/4 282/2/4 294/2/4
f 282/1/4 283/1/4 294/1/4
f 283/1/4 284/1/4 294/1/4
f 284/4/4 285/4/4 295/4/4
f 294/1/4 284/1/4 295/1/4
f 285/2/4 286/2/4 296/2/4
f 295/4/4 285/4/4 296/4/4
f 286/2/4 287/2/4 296/2/4
f 287/2/4 288/2/4 296/2/4
f 296/2/4 288/2/4 297/2/4
f 288/1/4 289/1/4 298/1/4
f 297/2/4 288/2/4 298/2/4
f 289/2/4 290/2/4 299/2/4
f 298/1/4 289/1/4 299/1/4
f 290/4/4 291/4/4 300/4/4
f 299/2/4 290/2/4 300/2/4
f 291/2/4 292/2/4 301/2/4
f 300/4/4 291/4/4 301/4/4
f 292/3/4 293/3/4 302/3/4
f 301/2/4 292/2/4 302/2/4
f 293/2/4 275/2/4 303/2/4
f 302/3/4 293/3/4 303/3/4
f 294/2/4 295/2/4 304/2/4
f 298/3/4 299/3/4 304/3/4
f 297/3/4 298/3/4 304/3/4
f 295/2/4 296/2/4 304/2/4
f 296/2/4 297/2/4 304/2/4
f 300/2/4 301/2/4 305/2/4
f 304/3/4 299/3/4 305/3/4
f 299/2/4 300/2/4 305/2/4
f 305/2/4 301/2/4 306/2/4
f 301/3/4 302/3/4 307/3/4
f 306/2/4 301/2/4 307/2/4
f 302/2/4 303/2/4 308/2/4
f 307/3/4 302/3/4 308/3/4
f 303/2/4 275/2/4 309/2/4
f 308/2/4 303/2/4 309/2/4
f 309/2/4 275/2/4 310/2/4
f 305/1/4 306/1/4 311/1/4
f 304/2/4 305/2/4 311/2/4
f 306/2/4 307/2/4 312/2/4
f 311/1/4 306/1/4 312/1/4
f 307/1/4 308/1/4 313/1/4
f 312/2/4 307/2/4 313/2/4
f 308/2/4 309/2/4 314/2/4
f 313/1/4 308/1/4 314/1/4
f 309/1/4 310/1/4 315/1/4
f 314/2/4 309/2/4 315/2/4
f 310/2/4 275/2/4 316/2/4
f 315/1/4 310/1/4 316/1/4
f 164/2/4 276/2/4 317/2/4
f 311/2/4 312/2/4 317/2/4
f 315/2/4 316/2/4 317/2/4
f 312/2/4 313/2/4 317/2/4
f 313/2/4 314/2/4 317/2/4
f 304/2/4 311/2/4 317/2/4
f 294/2/4 304/2/4 317/2/4
f 314/2/4 315/2/4 317/2/4
f 276/2/4 294/2/4 317/2/4
f 275/2/4 165/2/4 318/2/4
f 317/2/4 316/2/4 318/2/4
f 316/2/4 275/2/4 318/2/4
f 321/2/5 320/2/5 319/2/5
f 322/2/5 320/2/5 321/2/5
f 323/2/6 324/2/6 325/2/6
f 325/2/6 324/2/6 326/2/6
