# MagicaVoxel @ Ephtracy

# group
o 

# material
mtllib rat_land_1.mtl
usemtl palette

# normals
vn -1 0 0
vn 1 0 0
vn 0 0 1
vn 0 0 -1
vn 0 -1 0
vn 0 1 0

# texcoords
vt 0.0292969 0.5
vt 0.982422 0.5
vt 0.994141 0.5

# verts
v 0 2 -0.1
v 0 2 -0.2
v 0 2.1 -0.1
v 0 2.1 -0.2
v 0 2.1 -0.3
v 0 2.2 -0.2
v 0 2.2 -0.3
v 0 2.2 -0.5
v 0 2.3 -0.3
v 0 2.3 -0.4
v 0 2.3 -0.5
v 0 2.3 -0.6
v 0 2.5 -0.2
v 0 2.5 -0.3
v 0 2.5 -0.4
v 0 2.5 -0.6
v 0 2.5 -0.9
v 0 2.5 -1.3
v 0 2.5 -1.5
v 0 2.6 -0.2
v 0 2.6 -0.3
v 0 2.6 -1.1
v 0 2.6 -1.3
v 0 2.6 -1.5
v 0 2.7 -0.3
v 0 2.7 -0.4
v 0 2.8 -0.9
v 0 2.8 -1.1
v 0 2.9 -0.3
v 0 2.9 -0.4
v 0.1 2.3 -0.3
v 0.1 2.3 -0.4
v 0.1 2.3 -0.6
v 0.1 2.3 -0.7
v 0.1 2.4 -0.1
v 0.1 2.4 -0.3
v 0.1 2.4 -0.7
v 0.1 2.4 -0.9
v 0.1 2.5 -0.2
v 0.1 2.5 -0.3
v 0.1 2.5 -0.4
v 0.1 2.5 -0.6
v 0.1 2.5 -0.9
v 0.1 2.6 -0.1
v 0.1 2.6 -0.2
v 0.1 2.6 -0.3
v 0.1 2.6 -0.4
v 0.1 2.6 -0.7
v 0.1 2.7 -0.2
v 0.1 2.7 -0.3
v 0.1 2.7 -0.4
v 0.1 2.7 -0.7
v 0.1 2.7 -0.8
v 0.1 2.8 -0.8
v 0.1 2.8 -0.9
v 0.1 2.8 -1.1
v 0.1 2.9 -0.9
v 0.1 2.9 -1.1
v 0.2 2.3 -0.2
v 0.2 2.3 -0.3
v 0.2 2.4 0
v 0.2 2.4 -0.1
v 0.2 2.4 -0.2
v 0.2 2.4 -0.3
v 0.2 2.5 0
v 0.2 2.5 -0.1
v 0.2 2.7 -1.1
v 0.2 2.7 -1.2
v 0.2 2.7 -1.5
v 0.2 2.8 -1.1
v 0.2 2.8 -1.2
v 0.2 2.8 -1.5
v 0.2 2.8 -1.7
v 0.2 2.9 -1.5
v 0.2 2.9 -1.7
v 0.3 2.4 -0.4
v 0.3 2.4 -0.6
v 0.3 2.5 -0.4
v 0.3 2.5 -0.6
v 0.3 2.5 -0.7
v 0.3 2.5 -0.8
v 0.3 2.6 -0.7
v 0.3 2.6 -0.8
v 0.4 2 -0.1
v 0.4 2 -0.2
v 0.4 2.1 -0.1
v 0.4 2.1 -0.2
v 0.4 2.1 -0.3
v 0.4 2.2 -0.2
v 0.4 2.2 -0.3
v 0.4 2.2 -0.5
v 0.4 2.3 -0.3
v 0.4 2.3 -0.5
v 0.4 2.5 -1
v 0.4 2.5 -1.3
v 0.4 2.5 -1.5
v 0.4 2.6 -1
v 0.4 2.6 -1.1
v 0.4 2.6 -1.3
v 0.4 2.6 -1.5
v 0.4 2.7 -0.3
v 0.4 2.7 -0.4
v 0.4 2.9 -0.3
v 0.4 2.9 -0.4
v 0.1 2 -0.1
v 0.1 2 -0.2
v 0.1 2.1 -0.1
v 0.1 2.1 -0.2
v 0.1 2.1 -0.3
v 0.1 2.2 -0.2
v 0.1 2.2 -0.3
v 0.1 2.2 -0.5
v 0.1 2.3 -0.3
v 0.1 2.3 -0.5
v 0.1 2.5 -1
v 0.1 2.5 -1.3
v 0.1 2.5 -1.5
v 0.1 2.6 -1
v 0.1 2.6 -1.1
v 0.1 2.6 -1.3
v 0.1 2.6 -1.5
v 0.1 2.7 -0.3
v 0.1 2.7 -0.4
v 0.1 2.9 -0.3
v 0.1 2.9 -0.4
v 0.2 2.4 -0.4
v 0.2 2.4 -0.6
v 0.2 2.5 -0.4
v 0.2 2.5 -0.6
v 0.2 2.5 -0.7
v 0.2 2.5 -0.8
v 0.2 2.6 -0.7
v 0.2 2.6 -0.8
v 0.3 2.3 -0.2
v 0.3 2.3 -0.3
v 0.3 2.4 0
v 0.3 2.4 -0.1
v 0.3 2.4 -0.2
v 0.3 2.4 -0.3
v 0.3 2.5 0
v 0.3 2.5 -0.1
v 0.3 2.7 -1.1
v 0.3 2.7 -1.2
v 0.3 2.7 -1.5
v 0.3 2.8 -1.1
v 0.3 2.8 -1.2
v 0.3 2.8 -1.5
v 0.3 2.8 -1.7
v 0.3 2.9 -1.5
v 0.3 2.9 -1.7
v 0.4 2.3 -0.3
v 0.4 2.3 -0.4
v 0.4 2.3 -0.6
v 0.4 2.3 -0.7
v 0.4 2.4 -0.1
v 0.4 2.4 -0.3
v 0.4 2.4 -0.7
v 0.4 2.4 -0.9
v 0.4 2.5 -0.2
v 0.4 2.5 -0.3
v 0.4 2.5 -0.4
v 0.4 2.5 -0.6
v 0.4 2.5 -0.9
v 0.4 2.6 -0.1
v 0.4 2.6 -0.2
v 0.4 2.6 -0.3
v 0.4 2.6 -0.4
v 0.4 2.6 -0.7
v 0.4 2.7 -0.2
v 0.4 2.7 -0.3
v 0.4 2.7 -0.4
v 0.4 2.7 -0.7
v 0.4 2.7 -0.8
v 0.4 2.8 -0.8
v 0.4 2.8 -0.9
v 0.4 2.8 -1.1
v 0.4 2.9 -0.9
v 0.4 2.9 -1.1
v 0.5 2 -0.1
v 0.5 2 -0.2
v 0.5 2.1 -0.1
v 0.5 2.1 -0.2
v 0.5 2.1 -0.3
v 0.5 2.2 -0.2
v 0.5 2.2 -0.3
v 0.5 2.2 -0.5
v 0.5 2.3 -0.3
v 0.5 2.3 -0.4
v 0.5 2.3 -0.5
v 0.5 2.3 -0.6
v 0.5 2.5 -0.2
v 0.5 2.5 -0.3
v 0.5 2.5 -0.4
v 0.5 2.5 -0.6
v 0.5 2.5 -0.9
v 0.5 2.5 -1.3
v 0.5 2.5 -1.5
v 0.5 2.6 -0.2
v 0.5 2.6 -0.3
v 0.5 2.6 -1.1
v 0.5 2.6 -1.3
v 0.5 2.6 -1.5
v 0.5 2.7 -0.3
v 0.5 2.7 -0.4
v 0.5 2.8 -0.9
v 0.5 2.8 -1.1
v 0.5 2.9 -0.3
v 0.5 2.9 -0.4
v 0.2 2.4 0
v 0.2 2.5 0
v 0.3 2.4 0
v 0.3 2.5 0
v 0 2 -0.1
v 0 2.1 -0.1
v 0.1 2 -0.1
v 0.1 2.1 -0.1
v 0.1 2.4 -0.1
v 0.1 2.6 -0.1
v 0.2 2.4 -0.1
v 0.2 2.5 -0.1
v 0.3 2.4 -0.1
v 0.3 2.5 -0.1
v 0.4 2 -0.1
v 0.4 2.1 -0.1
v 0.4 2.4 -0.1
v 0.4 2.6 -0.1
v 0.5 2 -0.1
v 0.5 2.1 -0.1
v 0 2.1 -0.2
v 0 2.2 -0.2
v 0 2.5 -0.2
v 0 2.6 -0.2
v 0.1 2.1 -0.2
v 0.1 2.2 -0.2
v 0.1 2.5 -0.2
v 0.1 2.6 -0.2
v 0.1 2.7 -0.2
v 0.2 2.3 -0.2
v 0.2 2.4 -0.2
v 0.3 2.3 -0.2
v 0.3 2.4 -0.2
v 0.4 2.1 -0.2
v 0.4 2.2 -0.2
v 0.4 2.5 -0.2
v 0.4 2.6 -0.2
v 0.4 2.7 -0.2
v 0.5 2.1 -0.2
v 0.5 2.2 -0.2
v 0.5 2.5 -0.2
v 0.5 2.6 -0.2
v 0 2.2 -0.3
v 0 2.3 -0.3
v 0 2.7 -0.3
v 0 2.9 -0.3
v 0.1 2.2 -0.3
v 0.1 2.3 -0.3
v 0.1 2.4 -0.3
v 0.1 2.7 -0.3
v 0.1 2.9 -0.3
v 0.2 2.3 -0.3
v 0.2 2.4 -0.3
v 0.3 2.3 -0.3
v 0.3 2.4 -0.3
v 0.4 2.2 -0.3
v 0.4 2.3 -0.3
v 0.4 2.4 -0.3
v 0.4 2.7 -0.3
v 0.4 2.9 -0.3
v 0.5 2.2 -0.3
v 0.5 2.3 -0.3
v 0.5 2.7 -0.3
v 0.5 2.9 -0.3
v 0 2.3 -0.4
v 0 2.5 -0.4
v 0.1 2.3 -0.4
v 0.1 2.5 -0.4
v 0.4 2.3 -0.4
v 0.4 2.5 -0.4
v 0.5 2.3 -0.4
v 0.5 2.5 -0.4
v 0.2 2.4 -0.6
v 0.2 2.5 -0.6
v 0.3 2.4 -0.6
v 0.3 2.5 -0.6
v 0.1 2.6 -0.7
v 0.1 2.7 -0.7
v 0.4 2.6 -0.7
v 0.4 2.7 -0.7
v 0.1 2.7 -0.8
v 0.1 2.8 -0.8
v 0.2 2.5 -0.8
v 0.2 2.6 -0.8
v 0.3 2.5 -0.8
v 0.3 2.6 -0.8
v 0.4 2.7 -0.8
v 0.4 2.8 -0.8
v 0 2.5 -0.9
v 0 2.8 -0.9
v 0.1 2.5 -0.9
v 0.1 2.8 -0.9
v 0.1 2.9 -0.9
v 0.4 2.5 -0.9
v 0.4 2.8 -0.9
v 0.4 2.9 -0.9
v 0.5 2.5 -0.9
v 0.5 2.8 -0.9
v 0.2 2.8 -1.5
v 0.2 2.9 -1.5
v 0.3 2.8 -1.5
v 0.3 2.9 -1.5
v 0 2 -0.2
v 0 2.1 -0.2
v 0.1 2 -0.2
v 0.1 2.1 -0.2
v 0.4 2 -0.2
v 0.4 2.1 -0.2
v 0.5 2 -0.2
v 0.5 2.1 -0.2
v 0 2.1 -0.3
v 0 2.2 -0.3
v 0 2.5 -0.3
v 0 2.6 -0.3
v 0.1 2.1 -0.3
v 0.1 2.2 -0.3
v 0.1 2.5 -0.3
v 0.1 2.6 -0.3
v 0.4 2.1 -0.3
v 0.4 2.2 -0.3
v 0.4 2.5 -0.3
v 0.4 2.6 -0.3
v 0.5 2.1 -0.3
v 0.5 2.2 -0.3
v 0.5 2.5 -0.3
v 0.5 2.6 -0.3
v 0 2.7 -0.4
v 0 2.9 -0.4
v 0.1 2.6 -0.4
v 0.1 2.7 -0.4
v 0.1 2.9 -0.4
v 0.2 2.4 -0.4
v 0.2 2.5 -0.4
v 0.3 2.4 -0.4
v 0.3 2.5 -0.4
v 0.4 2.6 -0.4
v 0.4 2.7 -0.4
v 0.4 2.9 -0.4
v 0.5 2.7 -0.4
v 0.5 2.9 -0.4
v 0 2.2 -0.5
v 0 2.3 -0.5
v 0.1 2.2 -0.5
v 0.1 2.3 -0.5
v 0.4 2.2 -0.5
v 0.4 2.3 -0.5
v 0.5 2.2 -0.5
v 0.5 2.3 -0.5
v 0 2.3 -0.6
v 0 2.5 -0.6
v 0.1 2.3 -0.6
v 0.1 2.5 -0.6
v 0.4 2.3 -0.6
v 0.4 2.5 -0.6
v 0.5 2.3 -0.6
v 0.5 2.5 -0.6
v 0.1 2.3 -0.7
v 0.1 2.4 -0.7
v 0.2 2.5 -0.7
v 0.2 2.6 -0.7
v 0.3 2.5 -0.7
v 0.3 2.6 -0.7
v 0.4 2.3 -0.7
v 0.4 2.4 -0.7
v 0.1 2.4 -0.9
v 0.1 2.5 -0.9
v 0.4 2.4 -0.9
v 0.4 2.5 -0.9
v 0.1 2.5 -1
v 0.1 2.6 -1
v 0.4 2.5 -1
v 0.4 2.6 -1
v 0 2.6 -1.1
v 0 2.8 -1.1
v 0.1 2.6 -1.1
v 0.1 2.8 -1.1
v 0.1 2.9 -1.1
v 0.2 2.7 -1.1
v 0.2 2.8 -1.1
v 0.3 2.7 -1.1
v 0.3 2.8 -1.1
v 0.4 2.6 -1.1
v 0.4 2.8 -1.1
v 0.4 2.9 -1.1
v 0.5 2.6 -1.1
v 0.5 2.8 -1.1
v 0 2.5 -1.5
v 0 2.6 -1.5
v 0.1 2.5 -1.5
v 0.1 2.6 -1.5
v 0.2 2.7 -1.5
v 0.2 2.8 -1.5
v 0.3 2.7 -1.5
v 0.3 2.8 -1.5
v 0.4 2.5 -1.5
v 0.4 2.6 -1.5
v 0.5 2.5 -1.5
v 0.5 2.6 -1.5
v 0.2 2.8 -1.7
v 0.2 2.9 -1.7
v 0.3 2.8 -1.7
v 0.3 2.9 -1.7
v 0 2 -0.1
v 0.1 2 -0.1
v 0.4 2 -0.1
v 0.5 2 -0.1
v 0 2 -0.2
v 0.1 2 -0.2
v 0.4 2 -0.2
v 0.5 2 -0.2
v 0 2.1 -0.2
v 0.1 2.1 -0.2
v 0.4 2.1 -0.2
v 0.5 2.1 -0.2
v 0 2.1 -0.3
v 0.1 2.1 -0.3
v 0.4 2.1 -0.3
v 0.5 2.1 -0.3
v 0 2.2 -0.3
v 0.1 2.2 -0.3
v 0.4 2.2 -0.3
v 0.5 2.2 -0.3
v 0 2.2 -0.5
v 0.1 2.2 -0.5
v 0.4 2.2 -0.5
v 0.5 2.2 -0.5
v 0.2 2.3 -0.2
v 0.3 2.3 -0.2
v 0.1 2.3 -0.3
v 0.2 2.3 -0.3
v 0.3 2.3 -0.3
v 0.4 2.3 -0.3
v 0 2.3 -0.5
v 0.1 2.3 -0.5
v 0.4 2.3 -0.5
v 0.5 2.3 -0.5
v 0 2.3 -0.6
v 0.1 2.3 -0.6
v 0.4 2.3 -0.6
v 0.5 2.3 -0.6
v 0.1 2.3 -0.7
v 0.4 2.3 -0.7
v 0.2 2.4 0
v 0.3 2.4 0
v 0.1 2.4 -0.1
v 0.2 2.4 -0.1
v 0.3 2.4 -0.1
v 0.4 2.4 -0.1
v 0.2 2.4 -0.2
v 0.3 2.4 -0.2
v 0.1 2.4 -0.3
v 0.2 2.4 -0.3
v 0.3 2.4 -0.3
v 0.4 2.4 -0.3
v 0.1 2.4 -0.7
v 0.4 2.4 -0.7
v 0.1 2.4 -0.9
v 0.4 2.4 -0.9
v 0 2.5 -0.2
v 0.1 2.5 -0.2
v 0.4 2.5 -0.2
v 0.5 2.5 -0.2
v 0 2.5 -0.3
v 0.1 2.5 -0.3
v 0.4 2.5 -0.3
v 0.5 2.5 -0.3
v 0.2 2.5 -0.4
v 0.3 2.5 -0.4
v 0.2 2.5 -0.6
v 0.3 2.5 -0.6
v 0 2.5 -0.9
v 0.1 2.5 -0.9
v 0.4 2.5 -0.9
v 0.5 2.5 -0.9
v 0.1 2.5 -1
v 0.4 2.5 -1
v 0 2.5 -1.3
v 0.1 2.5 -1.3
v 0.4 2.5 -1.3
v 0.5 2.5 -1.3
v 0 2.5 -1.5
v 0.1 2.5 -1.5
v 0.4 2.5 -1.5
v 0.5 2.5 -1.5
v 0.2 2.6 -0.7
v 0.3 2.6 -0.7
v 0.2 2.6 -0.8
v 0.3 2.6 -0.8
v 0.1 2.6 -1
v 0.4 2.6 -1
v 0.1 2.6 -1.1
v 0.4 2.6 -1.1
v 0 2.7 -0.3
v 0.1 2.7 -0.3
v 0.4 2.7 -0.3
v 0.5 2.7 -0.3
v 0 2.7 -0.4
v 0.1 2.7 -0.4
v 0.4 2.7 -0.4
v 0.5 2.7 -0.4
v 0.2 2.7 -1.1
v 0.3 2.7 -1.1
v 0.2 2.7 -1.2
v 0.3 2.7 -1.2
v 0.2 2.7 -1.5
v 0.3 2.7 -1.5
v 0.2 2.8 -1.5
v 0.3 2.8 -1.5
v 0.2 2.8 -1.7
v 0.3 2.8 -1.7
v 0 2.1 -0.1
v 0.1 2.1 -0.1
v 0.4 2.1 -0.1
v 0.5 2.1 -0.1
v 0 2.1 -0.2
v 0.1 2.1 -0.2
v 0.4 2.1 -0.2
v 0.5 2.1 -0.2
v 0 2.2 -0.2
v 0.1 2.2 -0.2
v 0.4 2.2 -0.2
v 0.5 2.2 -0.2
v 0 2.2 -0.3
v 0.1 2.2 -0.3
v 0.4 2.2 -0.3
v 0.5 2.2 -0.3
v 0 2.3 -0.3
v 0.1 2.3 -0.3
v 0.4 2.3 -0.3
v 0.5 2.3 -0.3
v 0 2.3 -0.4
v 0.1 2.3 -0.4
v 0.4 2.3 -0.4
v 0.5 2.3 -0.4
v 0.2 2.4 -0.4
v 0.3 2.4 -0.4
v 0.2 2.4 -0.6
v 0.3 2.4 -0.6
v 0.2 2.5 0
v 0.3 2.5 0
v 0.2 2.5 -0.1
v 0.3 2.5 -0.1
v 0 2.5 -0.4
v 0.1 2.5 -0.4
v 0.4 2.5 -0.4
v 0.5 2.5 -0.4
v 0 2.5 -0.6
v 0.1 2.5 -0.6
v 0.4 2.5 -0.6
v 0.5 2.5 -0.6
v 0.2 2.5 -0.7
v 0.3 2.5 -0.7
v 0.2 2.5 -0.8
v 0.3 2.5 -0.8
v 0.1 2.6 -0.1
v 0.4 2.6 -0.1
v 0 2.6 -0.2
v 0.1 2.6 -0.2
v 0.4 2.6 -0.2
v 0.5 2.6 -0.2
v 0 2.6 -0.3
v 0.1 2.6 -0.3
v 0.4 2.6 -0.3
v 0.5 2.6 -0.3
v 0.1 2.6 -0.4
v 0.4 2.6 -0.4
v 0.1 2.6 -0.7
v 0.4 2.6 -0.7
v 0 2.6 -1.1
v 0.1 2.6 -1.1
v 0.4 2.6 -1.1
v 0.5 2.6 -1.1
v 0 2.6 -1.3
v 0.1 2.6 -1.3
v 0.4 2.6 -1.3
v 0.5 2.6 -1.3
v 0 2.6 -1.5
v 0.1 2.6 -1.5
v 0.4 2.6 -1.5
v 0.5 2.6 -1.5
v 0.1 2.7 -0.2
v 0.4 2.7 -0.2
v 0.1 2.7 -0.3
v 0.4 2.7 -0.3
v 0.1 2.7 -0.4
v 0.4 2.7 -0.4
v 0.1 2.7 -0.7
v 0.4 2.7 -0.7
v 0.1 2.7 -0.8
v 0.4 2.7 -0.8
v 0.1 2.8 -0.8
v 0.4 2.8 -0.8
v 0 2.8 -0.9
v 0.1 2.8 -0.9
v 0.4 2.8 -0.9
v 0.5 2.8 -0.9
v 0 2.8 -1.1
v 0.1 2.8 -1.1
v 0.2 2.8 -1.1
v 0.3 2.8 -1.1
v 0.4 2.8 -1.1
v 0.5 2.8 -1.1
v 0.2 2.8 -1.2
v 0.3 2.8 -1.2
v 0.2 2.8 -1.5
v 0.3 2.8 -1.5
v 0 2.9 -0.3
v 0.1 2.9 -0.3
v 0.4 2.9 -0.3
v 0.5 2.9 -0.3
v 0 2.9 -0.4
v 0.1 2.9 -0.4
v 0.4 2.9 -0.4
v 0.5 2.9 -0.4
v 0.1 2.9 -0.9
v 0.4 2.9 -0.9
v 0.1 2.9 -1.1
v 0.4 2.9 -1.1
v 0.2 2.9 -1.5
v 0.3 2.9 -1.5
v 0.2 2.9 -1.7
v 0.3 2.9 -1.7

# faces
f 3/1/1 2/1/1 1/1/1
f 4/1/1 2/1/1 3/1/1
f 6/1/1 5/1/1 4/1/1
f 7/1/1 5/1/1 6/1/1
f 9/2/1 8/2/1 7/2/1
f 10/2/1 8/2/1 9/2/1
f 11/2/1 8/2/1 10/2/1
f 15/2/1 12/2/1 11/2/1
f 15/2/1 11/2/1 10/2/1
f 16/2/1 12/2/1 15/2/1
f 20/3/1 14/3/1 13/3/1
f 21/3/1 14/3/1 20/3/1
f 22/2/1 18/2/1 17/2/1
f 23/1/1 19/1/1 18/1/1
f 23/2/1 18/2/1 22/2/1
f 24/1/1 19/1/1 23/1/1
f 27/2/1 22/2/1 17/2/1
f 28/2/1 22/2/1 27/2/1
f 29/1/1 26/1/1 25/1/1
f 30/1/1 26/1/1 29/1/1
f 36/2/1 32/2/1 31/2/1
f 37/2/1 34/2/1 33/2/1
f 39/2/1 36/2/1 35/2/1
f 40/2/1 32/2/1 36/2/1
f 40/2/1 36/2/1 39/2/1
f 41/2/1 32/2/1 40/2/1
f 42/2/1 38/2/1 37/2/1
f 42/2/1 37/2/1 33/2/1
f 43/2/1 38/2/1 42/2/1
f 44/2/1 39/2/1 35/2/1
f 45/2/1 39/2/1 44/2/1
f 46/2/1 41/2/1 40/2/1
f 46/2/1 43/2/1 42/2/1
f 46/2/1 42/2/1 41/2/1
f 47/2/1 43/2/1 46/2/1
f 48/2/1 43/2/1 47/2/1
f 49/2/1 46/2/1 45/2/1
f 49/2/1 47/2/1 46/2/1
f 50/2/1 47/2/1 49/2/1
f 51/2/1 47/2/1 50/2/1
f 52/2/1 43/2/1 48/2/1
f 53/2/1 43/2/1 52/2/1
f 54/2/1 43/2/1 53/2/1
f 55/2/1 43/2/1 54/2/1
f 57/2/1 56/2/1 55/2/1
f 58/2/1 56/2/1 57/2/1
f 63/2/1 60/2/1 59/2/1
f 64/2/1 60/2/1 63/2/1
f 65/1/1 62/1/1 61/1/1
f 66/1/1 62/1/1 65/1/1
f 70/2/1 68/2/1 67/2/1
f 71/1/1 69/1/1 68/1/1
f 71/2/1 68/2/1 70/2/1
f 72/1/1 69/1/1 71/1/1
f 74/1/1 73/1/1 72/1/1
f 75/1/1 73/1/1 74/1/1
f 78/2/1 77/2/1 76/2/1
f 79/2/1 77/2/1 78/2/1
f 82/2/1 81/2/1 80/2/1
f 83/2/1 81/2/1 82/2/1
f 86/1/1 85/1/1 84/1/1
f 87/1/1 85/1/1 86/1/1
f 89/1/1 88/1/1 87/1/1
f 90/1/1 88/1/1 89/1/1
f 92/2/1 91/2/1 90/2/1
f 93/2/1 91/2/1 92/2/1
f 97/2/1 95/2/1 94/2/1
f 98/2/1 95/2/1 97/2/1
f 99/1/1 96/1/1 95/1/1
f 99/2/1 95/2/1 98/2/1
f 100/1/1 96/1/1 99/1/1
f 103/1/1 102/1/1 101/1/1
f 104/1/1 102/1/1 103/1/1
f 105/1/2 106/1/2 107/1/2
f 107/1/2 106/1/2 108/1/2
f 108/1/2 109/1/2 110/1/2
f 110/1/2 109/1/2 111/1/2
f 111/2/2 112/2/2 113/2/2
f 113/2/2 112/2/2 114/2/2
f 115/2/2 116/2/2 118/2/2
f 118/2/2 116/2/2 119/2/2
f 116/1/2 117/1/2 120/1/2
f 119/2/2 116/2/2 120/2/2
f 120/1/2 117/1/2 121/1/2
f 122/1/2 123/1/2 124/1/2
f 124/1/2 123/1/2 125/1/2
f 126/2/2 127/2/2 128/2/2
f 128/2/2 127/2/2 129/2/2
f 130/2/2 131/2/2 132/2/2
f 132/2/2 131/2/2 133/2/2
f 134/2/2 135/2/2 138/2/2
f 138/2/2 135/2/2 139/2/2
f 136/1/2 137/1/2 140/1/2
f 140/1/2 137/1/2 141/1/2
f 142/2/2 143/2/2 145/2/2
f 143/1/2 144/1/2 146/1/2
f 145/2/2 143/2/2 146/2/2
f 146/1/2 144/1/2 147/1/2
f 147/1/2 148/1/2 149/1/2
f 149/1/2 148/1/2 150/1/2
f 151/2/2 152/2/2 156/2/2
f 153/2/2 154/2/2 157/2/2
f 155/2/2 156/2/2 159/2/2
f 156/2/2 152/2/2 160/2/2
f 159/2/2 156/2/2 160/2/2
f 160/2/2 152/2/2 161/2/2
f 157/2/2 158/2/2 162/2/2
f 153/2/2 157/2/2 162/2/2
f 162/2/2 158/2/2 163/2/2
f 155/2/2 159/2/2 164/2/2
f 164/2/2 159/2/2 165/2/2
f 160/2/2 161/2/2 166/2/2
f 162/2/2 163/2/2 166/2/2
f 161/2/2 162/2/2 166/2/2
f 166/2/2 163/2/2 167/2/2
f 167/2/2 163/2/2 168/2/2
f 165/2/2 166/2/2 169/2/2
f 166/2/2 167/2/2 169/2/2
f 169/2/2 167/2/2 170/2/2
f 170/2/2 167/2/2 171/2/2
f 168/2/2 163/2/2 172/2/2
f 172/2/2 163/2/2 173/2/2
f 173/2/2 163/2/2 174/2/2
f 174/2/2 163/2/2 175/2/2
f 175/2/2 176/2/2 177/2/2
f 177/2/2 176/2/2 178/2/2
f 179/1/2 180/1/2 181/1/2
f 181/1/2 180/1/2 182/1/2
f 182/1/2 183/1/2 184/1/2
f 184/1/2 183/1/2 185/1/2
f 185/2/2 186/2/2 187/2/2
f 187/2/2 186/2/2 188/2/2
f 188/2/2 186/2/2 189/2/2
f 189/2/2 190/2/2 193/2/2
f 188/2/2 189/2/2 193/2/2
f 193/2/2 190/2/2 194/2/2
f 191/3/2 192/3/2 198/3/2
f 198/3/2 192/3/2 199/3/2
f 195/2/2 196/2/2 200/2/2
f 196/1/2 197/1/2 201/1/2
f 200/2/2 196/2/2 201/2/2
f 201/1/2 197/1/2 202/1/2
f 195/2/2 200/2/2 205/2/2
f 205/2/2 200/2/2 206/2/2
f 203/1/2 204/1/2 207/1/2
f 207/1/2 204/1/2 208/1/2
f 211/1/3 210/1/3 209/1/3
f 212/1/3 210/1/3 211/1/3
f 215/1/3 214/1/3 213/1/3
f 216/1/3 214/1/3 215/1/3
f 219/2/3 218/2/3 217/2/3
f 220/2/3 218/2/3 219/2/3
f 222/2/3 218/2/3 220/2/3
f 225/2/3 222/2/3 221/2/3
f 226/2/3 218/2/3 222/2/3
f 226/2/3 222/2/3 225/2/3
f 227/1/3 224/1/3 223/1/3
f 228/1/3 224/1/3 227/1/3
f 233/1/3 230/1/3 229/1/3
f 234/1/3 230/1/3 233/1/3
f 235/3/3 232/3/3 231/3/3
f 236/3/3 232/3/3 235/3/3
f 240/2/3 239/2/3 238/2/3
f 241/2/3 239/2/3 240/2/3
f 245/2/3 237/2/3 236/2/3
f 246/2/3 237/2/3 245/2/3
f 247/1/3 243/1/3 242/1/3
f 248/1/3 243/1/3 247/1/3
f 249/3/3 245/3/3 244/3/3
f 250/3/3 245/3/3 249/3/3
f 255/2/3 252/2/3 251/2/3
f 256/2/3 252/2/3 255/2/3
f 258/1/3 254/1/3 253/1/3
f 259/1/3 254/1/3 258/1/3
f 260/2/3 257/2/3 256/2/3
f 261/2/3 257/2/3 260/2/3
f 265/2/3 263/2/3 262/2/3
f 266/2/3 263/2/3 265/2/3
f 269/2/3 265/2/3 264/2/3
f 270/2/3 265/2/3 269/2/3
f 271/1/3 268/1/3 267/1/3
f 272/1/3 268/1/3 271/1/3
f 275/2/3 274/2/3 273/2/3
f 276/2/3 274/2/3 275/2/3
f 279/2/3 278/2/3 277/2/3
f 280/2/3 278/2/3 279/2/3
f 283/2/3 282/2/3 281/2/3
f 284/2/3 282/2/3 283/2/3
f 287/2/3 286/2/3 285/2/3
f 288/2/3 286/2/3 287/2/3
f 293/2/3 292/2/3 291/2/3
f 294/2/3 292/2/3 293/2/3
f 295/2/3 290/2/3 289/2/3
f 296/2/3 290/2/3 295/2/3
f 299/2/3 298/2/3 297/2/3
f 300/2/3 298/2/3 299/2/3
f 303/2/3 301/2/3 300/2/3
f 304/2/3 301/2/3 303/2/3
f 305/2/3 303/2/3 302/2/3
f 306/2/3 303/2/3 305/2/3
f 309/1/3 308/1/3 307/1/3
f 310/1/3 308/1/3 309/1/3
f 311/1/4 312/1/4 313/1/4
f 313/1/4 312/1/4 314/1/4
f 315/1/4 316/1/4 317/1/4
f 317/1/4 316/1/4 318/1/4
f 319/1/4 320/1/4 323/1/4
f 323/1/4 320/1/4 324/1/4
f 321/3/4 322/3/4 325/3/4
f 325/3/4 322/3/4 326/3/4
f 327/1/4 328/1/4 331/1/4
f 331/1/4 328/1/4 332/1/4
f 329/3/4 330/3/4 333/3/4
f 333/3/4 330/3/4 334/3/4
f 335/1/4 336/1/4 338/1/4
f 338/1/4 336/1/4 339/1/4
f 340/2/4 341/2/4 342/2/4
f 342/2/4 341/2/4 343/2/4
f 337/2/4 338/2/4 344/2/4
f 344/2/4 338/2/4 345/2/4
f 345/1/4 346/1/4 347/1/4
f 347/1/4 346/1/4 348/1/4
f 349/2/4 350/2/4 351/2/4
f 351/2/4 350/2/4 352/2/4
f 353/2/4 354/2/4 355/2/4
f 355/2/4 354/2/4 356/2/4
f 357/2/4 358/2/4 359/2/4
f 359/2/4 358/2/4 360/2/4
f 361/2/4 362/2/4 363/2/4
f 363/2/4 362/2/4 364/2/4
f 367/2/4 368/2/4 369/2/4
f 369/2/4 368/2/4 370/2/4
f 365/2/4 366/2/4 371/2/4
f 371/2/4 366/2/4 372/2/4
f 373/2/4 374/2/4 375/2/4
f 375/2/4 374/2/4 376/2/4
f 377/2/4 378/2/4 379/2/4
f 379/2/4 378/2/4 380/2/4
f 381/2/4 382/2/4 383/2/4
f 383/2/4 382/2/4 384/2/4
f 383/2/4 384/2/4 386/2/4
f 384/2/4 385/2/4 386/2/4
f 386/2/4 385/2/4 387/2/4
f 383/2/4 386/2/4 388/2/4
f 387/2/4 385/2/4 389/2/4
f 383/2/4 388/2/4 390/2/4
f 388/2/4 389/2/4 390/2/4
f 389/2/4 385/2/4 391/2/4
f 390/2/4 389/2/4 391/2/4
f 391/2/4 385/2/4 392/2/4
f 390/2/4 391/2/4 393/2/4
f 393/2/4 391/2/4 394/2/4
f 395/1/4 396/1/4 397/1/4
f 397/1/4 396/1/4 398/1/4
f 399/1/4 400/1/4 401/1/4
f 401/1/4 400/1/4 402/1/4
f 403/1/4 404/1/4 405/1/4
f 405/1/4 404/1/4 406/1/4
f 407/1/4 408/1/4 409/1/4
f 409/1/4 408/1/4 410/1/4
f 415/1/5 412/1/5 411/1/5
f 416/1/5 412/1/5 415/1/5
f 417/1/5 414/1/5 413/1/5
f 418/1/5 414/1/5 417/1/5
f 423/1/5 420/1/5 419/1/5
f 424/1/5 420/1/5 423/1/5
f 425/1/5 422/1/5 421/1/5
f 426/1/5 422/1/5 425/1/5
f 431/2/5 428/2/5 427/2/5
f 432/2/5 428/2/5 431/2/5
f 433/2/5 430/2/5 429/2/5
f 434/2/5 430/2/5 433/2/5
f 438/2/5 436/2/5 435/2/5
f 439/2/5 436/2/5 438/2/5
f 442/2/5 438/2/5 437/2/5
f 442/2/5 440/2/5 439/2/5
f 442/2/5 439/2/5 438/2/5
f 443/2/5 440/2/5 442/2/5
f 445/2/5 442/2/5 441/2/5
f 445/2/5 444/2/5 443/2/5
f 445/2/5 443/2/5 442/2/5
f 446/2/5 444/2/5 445/2/5
f 447/2/5 444/2/5 446/2/5
f 448/2/5 444/2/5 447/2/5
f 449/2/5 447/2/5 446/2/5
f 450/2/5 447/2/5 449/2/5
f 454/1/5 452/1/5 451/1/5
f 455/1/5 452/1/5 454/1/5
f 457/2/5 454/2/5 453/2/5
f 457/2/5 456/2/5 455/2/5
f 457/2/5 455/2/5 454/2/5
f 458/2/5 456/2/5 457/2/5
f 459/2/5 457/2/5 453/2/5
f 460/2/5 457/2/5 459/2/5
f 461/2/5 456/2/5 458/2/5
f 462/2/5 456/2/5 461/2/5
f 465/2/5 464/2/5 463/2/5
f 466/2/5 464/2/5 465/2/5
f 471/3/5 468/3/5 467/3/5
f 472/3/5 468/3/5 471/3/5
f 473/3/5 470/3/5 469/3/5
f 474/3/5 470/3/5 473/3/5
f 477/2/5 476/2/5 475/2/5
f 478/2/5 476/2/5 477/2/5
f 483/2/5 480/2/5 479/2/5
f 483/2/5 482/2/5 481/2/5
f 483/2/5 481/2/5 480/2/5
f 484/2/5 482/2/5 483/2/5
f 485/2/5 483/2/5 479/2/5
f 486/2/5 483/2/5 485/2/5
f 487/2/5 482/2/5 484/2/5
f 488/2/5 482/2/5 487/2/5
f 489/1/5 486/1/5 485/1/5
f 490/1/5 486/1/5 489/1/5
f 491/1/5 488/1/5 487/1/5
f 492/1/5 488/1/5 491/1/5
f 495/2/5 494/2/5 493/2/5
f 496/2/5 494/2/5 495/2/5
f 499/2/5 498/2/5 497/2/5
f 500/2/5 498/2/5 499/2/5
f 505/1/5 502/1/5 501/1/5
f 506/1/5 502/1/5 505/1/5
f 507/1/5 504/1/5 503/1/5
f 508/1/5 504/1/5 507/1/5
f 511/2/5 510/2/5 509/2/5
f 512/2/5 510/2/5 511/2/5
f 513/1/5 512/1/5 511/1/5
f 514/1/5 512/1/5 513/1/5
f 517/1/5 516/1/5 515/1/5
f 518/1/5 516/1/5 517/1/5
f 519/1/6 520/1/6 523/1/6
f 523/1/6 520/1/6 524/1/6
f 521/1/6 522/1/6 525/1/6
f 525/1/6 522/1/6 526/1/6
f 527/1/6 528/1/6 531/1/6
f 531/1/6 528/1/6 532/1/6
f 529/1/6 530/1/6 533/1/6
f 533/1/6 530/1/6 534/1/6
f 535/2/6 536/2/6 539/2/6
f 539/2/6 536/2/6 540/2/6
f 537/2/6 538/2/6 541/2/6
f 541/2/6 538/2/6 542/2/6
f 543/2/6 544/2/6 545/2/6
f 545/2/6 544/2/6 546/2/6
f 547/1/6 548/1/6 549/1/6
f 549/1/6 548/1/6 550/1/6
f 551/2/6 552/2/6 555/2/6
f 555/2/6 552/2/6 556/2/6
f 553/2/6 554/2/6 557/2/6
f 557/2/6 554/2/6 558/2/6
f 559/2/6 560/2/6 561/2/6
f 561/2/6 560/2/6 562/2/6
f 563/2/6 564/2/6 566/2/6
f 566/2/6 564/2/6 567/2/6
f 565/3/6 566/3/6 569/3/6
f 569/3/6 566/3/6 570/3/6
f 567/3/6 568/3/6 571/3/6
f 571/3/6 568/3/6 572/3/6
f 573/2/6 574/2/6 575/2/6
f 575/2/6 574/2/6 576/2/6
f 577/2/6 578/2/6 581/2/6
f 581/2/6 578/2/6 582/2/6
f 579/2/6 580/2/6 583/2/6
f 583/2/6 580/2/6 584/2/6
f 581/1/6 582/1/6 585/1/6
f 585/1/6 582/1/6 586/1/6
f 583/1/6 584/1/6 587/1/6
f 587/1/6 584/1/6 588/1/6
f 589/2/6 590/2/6 591/2/6
f 591/2/6 590/2/6 592/2/6
f 591/2/6 592/2/6 593/2/6
f 593/2/6 592/2/6 594/2/6
f 595/2/6 596/2/6 597/2/6
f 597/2/6 596/2/6 598/2/6
f 599/2/6 600/2/6 602/2/6
f 602/2/6 600/2/6 603/2/6
f 601/2/6 602/2/6 605/2/6
f 605/2/6 602/2/6 606/2/6
f 603/2/6 604/2/6 609/2/6
f 609/2/6 604/2/6 610/2/6
f 607/2/6 608/2/6 611/2/6
f 611/2/6 608/2/6 612/2/6
f 611/1/6 612/1/6 613/1/6
f 613/1/6 612/1/6 614/1/6
f 615/1/6 616/1/6 619/1/6
f 619/1/6 616/1/6 620/1/6
f 617/1/6 618/1/6 621/1/6
f 621/1/6 618/1/6 622/1/6
f 623/2/6 624/2/6 625/2/6
f 625/2/6 624/2/6 626/2/6
f 627/1/6 628/1/6 629/1/6
f 629/1/6 628/1/6 630/1/6
