# MagicaVoxel @ Ephtracy

# group
o 

# material
mtllib rat_land_0.mtl
usemtl palette

# normals
vn -1 0 0
vn 1 0 0
vn 0 0 1
vn 0 0 -1
vn 0 -1 0
vn 0 1 0

# texcoords
vt 0.0292969 0.5
vt 0.982422 0.5
vt 0.994141 0.5

# verts
v 0 2 -0.1
v 0 2 -0.2
v 0 2.1 -0.1
v 0 2.1 -0.2
v 0 2.1 -0.3
v 0 2.2 -0.2
v 0 2.2 -0.3
v 0 2.2 -0.5
v 0 2.3 -0.3
v 0 2.3 -0.4
v 0 2.3 -0.5
v 0 2.3 -0.6
v 0 2.5 -0.2
v 0 2.5 -0.3
v 0 2.5 -0.4
v 0 2.5 -0.6
v 0 2.6 -0.2
v 0 2.6 -0.3
v 0 2.6 -0.9
v 0 2.6 -1.3
v 0 2.7 -0.3
v 0 2.7 -0.4
v 0 2.7 -1.1
v 0 2.7 -1.3
v 0 2.7 -1.4
v 0 2.8 -0.3
v 0 2.8 -0.4
v 0 2.8 -0.5
v 0 2.8 -1.3
v 0 2.8 -1.4
v 0 2.8 -1.5
v 0 2.9 -0.4
v 0 2.9 -0.5
v 0 2.9 -0.9
v 0 2.9 -1.1
v 0 2.9 -1.4
v 0 2.9 -1.5
v 0.1 2.3 -0.3
v 0.1 2.3 -0.4
v 0.1 2.4 -0.1
v 0.1 2.4 -0.3
v 0.1 2.4 -0.6
v 0.1 2.4 -0.7
v 0.1 2.5 -0.2
v 0.1 2.5 -0.3
v 0.1 2.5 -0.4
v 0.1 2.5 -0.6
v 0.1 2.5 -0.7
v 0.1 2.5 -0.9
v 0.1 2.6 -0.1
v 0.1 2.6 -0.2
v 0.1 2.6 -0.3
v 0.1 2.6 -0.4
v 0.1 2.6 -0.6
v 0.1 2.6 -0.9
v 0.1 2.7 -0.2
v 0.1 2.7 -0.3
v 0.1 2.7 -0.4
v 0.1 2.7 -0.6
v 0.1 2.7 -0.7
v 0.1 2.8 -0.7
v 0.1 2.8 -0.8
v 0.1 2.9 -0.8
v 0.1 2.9 -0.9
v 0.1 2.9 -1.1
v 0.1 3 -0.9
v 0.1 3 -1.1
v 0.2 2.3 -0.2
v 0.2 2.3 -0.3
v 0.2 2.4 0
v 0.2 2.4 -0.1
v 0.2 2.4 -0.2
v 0.2 2.4 -0.3
v 0.2 2.5 0
v 0.2 2.5 -0.1
v 0.2 2.8 -1.1
v 0.2 2.8 -1.2
v 0.2 2.8 -1.3
v 0.2 2.9 -1.1
v 0.2 2.9 -1.2
v 0.2 2.9 -1.3
v 0.2 2.9 -1.5
v 0.2 3 -1.3
v 0.2 3 -1.5
v 0.2 3 -1.7
v 0.2 3.1 -1.5
v 0.2 3.1 -1.7
v 0.3 2.4 -0.4
v 0.3 2.4 -0.6
v 0.3 2.5 -0.4
v 0.3 2.5 -0.6
v 0.3 2.6 -0.7
v 0.3 2.6 -0.8
v 0.3 2.7 -0.7
v 0.3 2.7 -0.8
v 0.4 2 -0.1
v 0.4 2 -0.2
v 0.4 2.1 -0.1
v 0.4 2.1 -0.2
v 0.4 2.1 -0.3
v 0.4 2.2 -0.2
v 0.4 2.2 -0.3
v 0.4 2.2 -0.5
v 0.4 2.3 -0.3
v 0.4 2.3 -0.5
v 0.4 2.6 -1
v 0.4 2.6 -1.3
v 0.4 2.7 -0.3
v 0.4 2.7 -0.4
v 0.4 2.7 -1
v 0.4 2.7 -1.1
v 0.4 2.7 -1.3
v 0.4 2.7 -1.4
v 0.4 2.8 -0.3
v 0.4 2.8 -0.4
v 0.4 2.8 -0.5
v 0.4 2.8 -1.3
v 0.4 2.8 -1.4
v 0.4 2.8 -1.5
v 0.4 2.9 -0.4
v 0.4 2.9 -0.5
v 0.4 2.9 -1.4
v 0.4 2.9 -1.5
v 0.1 2 -0.1
v 0.1 2 -0.2
v 0.1 2.1 -0.1
v 0.1 2.1 -0.2
v 0.1 2.1 -0.3
v 0.1 2.2 -0.2
v 0.1 2.2 -0.3
v 0.1 2.2 -0.5
v 0.1 2.3 -0.3
v 0.1 2.3 -0.5
v 0.1 2.6 -1
v 0.1 2.6 -1.3
v 0.1 2.7 -0.3
v 0.1 2.7 -0.4
v 0.1 2.7 -1
v 0.1 2.7 -1.1
v 0.1 2.7 -1.3
v 0.1 2.7 -1.4
v 0.1 2.8 -0.3
v 0.1 2.8 -0.4
v 0.1 2.8 -0.5
v 0.1 2.8 -1.3
v 0.1 2.8 -1.4
v 0.1 2.8 -1.5
v 0.1 2.9 -0.4
v 0.1 2.9 -0.5
v 0.1 2.9 -1.4
v 0.1 2.9 -1.5
v 0.2 2.4 -0.4
v 0.2 2.4 -0.6
v 0.2 2.5 -0.4
v 0.2 2.5 -0.6
v 0.2 2.6 -0.7
v 0.2 2.6 -0.8
v 0.2 2.7 -0.7
v 0.2 2.7 -0.8
v 0.3 2.3 -0.2
v 0.3 2.3 -0.3
v 0.3 2.4 0
v 0.3 2.4 -0.1
v 0.3 2.4 -0.2
v 0.3 2.4 -0.3
v 0.3 2.5 0
v 0.3 2.5 -0.1
v 0.3 2.8 -1.1
v 0.3 2.8 -1.2
v 0.3 2.8 -1.3
v 0.3 2.9 -1.1
v 0.3 2.9 -1.2
v 0.3 2.9 -1.3
v 0.3 2.9 -1.5
v 0.3 3 -1.3
v 0.3 3 -1.5
v 0.3 3 -1.7
v 0.3 3.1 -1.5
v 0.3 3.1 -1.7
v 0.4 2.3 -0.3
v 0.4 2.3 -0.4
v 0.4 2.4 -0.1
v 0.4 2.4 -0.3
v 0.4 2.4 -0.6
v 0.4 2.4 -0.7
v 0.4 2.5 -0.2
v 0.4 2.5 -0.3
v 0.4 2.5 -0.4
v 0.4 2.5 -0.6
v 0.4 2.5 -0.7
v 0.4 2.5 -0.9
v 0.4 2.6 -0.1
v 0.4 2.6 -0.2
v 0.4 2.6 -0.3
v 0.4 2.6 -0.4
v 0.4 2.6 -0.6
v 0.4 2.6 -0.9
v 0.4 2.7 -0.2
v 0.4 2.7 -0.3
v 0.4 2.7 -0.4
v 0.4 2.7 -0.6
v 0.4 2.7 -0.7
v 0.4 2.8 -0.7
v 0.4 2.8 -0.8
v 0.4 2.9 -0.8
v 0.4 2.9 -0.9
v 0.4 2.9 -1.1
v 0.4 3 -0.9
v 0.4 3 -1.1
v 0.5 2 -0.1
v 0.5 2 -0.2
v 0.5 2.1 -0.1
v 0.5 2.1 -0.2
v 0.5 2.1 -0.3
v 0.5 2.2 -0.2
v 0.5 2.2 -0.3
v 0.5 2.2 -0.5
v 0.5 2.3 -0.3
v 0.5 2.3 -0.4
v 0.5 2.3 -0.5
v 0.5 2.3 -0.6
v 0.5 2.5 -0.2
v 0.5 2.5 -0.3
v 0.5 2.5 -0.4
v 0.5 2.5 -0.6
v 0.5 2.6 -0.2
v 0.5 2.6 -0.3
v 0.5 2.6 -0.9
v 0.5 2.6 -1.3
v 0.5 2.7 -0.3
v 0.5 2.7 -0.4
v 0.5 2.7 -1.1
v 0.5 2.7 -1.3
v 0.5 2.7 -1.4
v 0.5 2.8 -0.3
v 0.5 2.8 -0.4
v 0.5 2.8 -0.5
v 0.5 2.8 -1.3
v 0.5 2.8 -1.4
v 0.5 2.8 -1.5
v 0.5 2.9 -0.4
v 0.5 2.9 -0.5
v 0.5 2.9 -0.9
v 0.5 2.9 -1.1
v 0.5 2.9 -1.4
v 0.5 2.9 -1.5
v 0.2 2.4 0
v 0.2 2.5 0
v 0.3 2.4 0
v 0.3 2.5 0
v 0 2 -0.1
v 0 2.1 -0.1
v 0.1 2 -0.1
v 0.1 2.1 -0.1
v 0.1 2.4 -0.1
v 0.1 2.6 -0.1
v 0.2 2.4 -0.1
v 0.2 2.5 -0.1
v 0.3 2.4 -0.1
v 0.3 2.5 -0.1
v 0.4 2 -0.1
v 0.4 2.1 -0.1
v 0.4 2.4 -0.1
v 0.4 2.6 -0.1
v 0.5 2 -0.1
v 0.5 2.1 -0.1
v 0 2.1 -0.2
v 0 2.2 -0.2
v 0 2.5 -0.2
v 0 2.6 -0.2
v 0.1 2.1 -0.2
v 0.1 2.2 -0.2
v 0.1 2.5 -0.2
v 0.1 2.6 -0.2
v 0.1 2.7 -0.2
v 0.2 2.3 -0.2
v 0.2 2.4 -0.2
v 0.3 2.3 -0.2
v 0.3 2.4 -0.2
v 0.4 2.1 -0.2
v 0.4 2.2 -0.2
v 0.4 2.5 -0.2
v 0.4 2.6 -0.2
v 0.4 2.7 -0.2
v 0.5 2.1 -0.2
v 0.5 2.2 -0.2
v 0.5 2.5 -0.2
v 0.5 2.6 -0.2
v 0 2.2 -0.3
v 0 2.3 -0.3
v 0 2.7 -0.3
v 0 2.8 -0.3
v 0.1 2.2 -0.3
v 0.1 2.3 -0.3
v 0.1 2.4 -0.3
v 0.1 2.7 -0.3
v 0.1 2.8 -0.3
v 0.2 2.3 -0.3
v 0.2 2.4 -0.3
v 0.3 2.3 -0.3
v 0.3 2.4 -0.3
v 0.4 2.2 -0.3
v 0.4 2.3 -0.3
v 0.4 2.4 -0.3
v 0.4 2.7 -0.3
v 0.4 2.8 -0.3
v 0.5 2.2 -0.3
v 0.5 2.3 -0.3
v 0.5 2.7 -0.3
v 0.5 2.8 -0.3
v 0 2.3 -0.4
v 0 2.5 -0.4
v 0 2.8 -0.4
v 0 2.9 -0.4
v 0.1 2.3 -0.4
v 0.1 2.5 -0.4
v 0.1 2.8 -0.4
v 0.1 2.9 -0.4
v 0.4 2.3 -0.4
v 0.4 2.5 -0.4
v 0.4 2.8 -0.4
v 0.4 2.9 -0.4
v 0.5 2.3 -0.4
v 0.5 2.5 -0.4
v 0.5 2.8 -0.4
v 0.5 2.9 -0.4
v 0.1 2.6 -0.6
v 0.1 2.7 -0.6
v 0.2 2.4 -0.6
v 0.2 2.5 -0.6
v 0.3 2.4 -0.6
v 0.3 2.5 -0.6
v 0.4 2.6 -0.6
v 0.4 2.7 -0.6
v 0.1 2.7 -0.7
v 0.1 2.8 -0.7
v 0.4 2.7 -0.7
v 0.4 2.8 -0.7
v 0.1 2.8 -0.8
v 0.1 2.9 -0.8
v 0.2 2.6 -0.8
v 0.2 2.7 -0.8
v 0.3 2.6 -0.8
v 0.3 2.7 -0.8
v 0.4 2.8 -0.8
v 0.4 2.9 -0.8
v 0 2.6 -0.9
v 0 2.9 -0.9
v 0.1 2.6 -0.9
v 0.1 2.9 -0.9
v 0.1 3 -0.9
v 0.4 2.6 -0.9
v 0.4 2.9 -0.9
v 0.4 3 -0.9
v 0.5 2.6 -0.9
v 0.5 2.9 -0.9
v 0 2.7 -1.3
v 0 2.8 -1.3
v 0.1 2.7 -1.3
v 0.1 2.8 -1.3
v 0.2 2.9 -1.3
v 0.2 3 -1.3
v 0.3 2.9 -1.3
v 0.3 3 -1.3
v 0.4 2.7 -1.3
v 0.4 2.8 -1.3
v 0.5 2.7 -1.3
v 0.5 2.8 -1.3
v 0 2.8 -1.4
v 0 2.9 -1.4
v 0.1 2.8 -1.4
v 0.1 2.9 -1.4
v 0.4 2.8 -1.4
v 0.4 2.9 -1.4
v 0.5 2.8 -1.4
v 0.5 2.9 -1.4
v 0.2 3 -1.5
v 0.2 3.1 -1.5
v 0.3 3 -1.5
v 0.3 3.1 -1.5
v 0 2 -0.2
v 0 2.1 -0.2
v 0.1 2 -0.2
v 0.1 2.1 -0.2
v 0.4 2 -0.2
v 0.4 2.1 -0.2
v 0.5 2 -0.2
v 0.5 2.1 -0.2
v 0 2.1 -0.3
v 0 2.2 -0.3
v 0 2.5 -0.3
v 0 2.6 -0.3
v 0.1 2.1 -0.3
v 0.1 2.2 -0.3
v 0.1 2.5 -0.3
v 0.1 2.6 -0.3
v 0.4 2.1 -0.3
v 0.4 2.2 -0.3
v 0.4 2.5 -0.3
v 0.4 2.6 -0.3
v 0.5 2.1 -0.3
v 0.5 2.2 -0.3
v 0.5 2.5 -0.3
v 0.5 2.6 -0.3
v 0 2.7 -0.4
v 0 2.8 -0.4
v 0.1 2.6 -0.4
v 0.1 2.7 -0.4
v 0.1 2.8 -0.4
v 0.2 2.4 -0.4
v 0.2 2.5 -0.4
v 0.3 2.4 -0.4
v 0.3 2.5 -0.4
v 0.4 2.6 -0.4
v 0.4 2.7 -0.4
v 0.4 2.8 -0.4
v 0.5 2.7 -0.4
v 0.5 2.8 -0.4
v 0 2.2 -0.5
v 0 2.3 -0.5
v 0 2.8 -0.5
v 0 2.9 -0.5
v 0.1 2.2 -0.5
v 0.1 2.3 -0.5
v 0.1 2.8 -0.5
v 0.1 2.9 -0.5
v 0.4 2.2 -0.5
v 0.4 2.3 -0.5
v 0.4 2.8 -0.5
v 0.4 2.9 -0.5
v 0.5 2.2 -0.5
v 0.5 2.3 -0.5
v 0.5 2.8 -0.5
v 0.5 2.9 -0.5
v 0 2.3 -0.6
v 0 2.5 -0.6
v 0.1 2.4 -0.6
v 0.1 2.5 -0.6
v 0.4 2.4 -0.6
v 0.4 2.5 -0.6
v 0.5 2.3 -0.6
v 0.5 2.5 -0.6
v 0.1 2.4 -0.7
v 0.1 2.5 -0.7
v 0.2 2.6 -0.7
v 0.2 2.7 -0.7
v 0.3 2.6 -0.7
v 0.3 2.7 -0.7
v 0.4 2.4 -0.7
v 0.4 2.5 -0.7
v 0.1 2.5 -0.9
v 0.1 2.6 -0.9
v 0.4 2.5 -0.9
v 0.4 2.6 -0.9
v 0.1 2.6 -1
v 0.1 2.7 -1
v 0.4 2.6 -1
v 0.4 2.7 -1
v 0 2.7 -1.1
v 0 2.9 -1.1
v 0.1 2.7 -1.1
v 0.1 2.9 -1.1
v 0.1 3 -1.1
v 0.2 2.8 -1.1
v 0.2 2.9 -1.1
v 0.3 2.8 -1.1
v 0.3 2.9 -1.1
v 0.4 2.7 -1.1
v 0.4 2.9 -1.1
v 0.4 3 -1.1
v 0.5 2.7 -1.1
v 0.5 2.9 -1.1
v 0 2.6 -1.3
v 0 2.7 -1.3
v 0.1 2.6 -1.3
v 0.1 2.7 -1.3
v 0.2 2.8 -1.3
v 0.2 2.9 -1.3
v 0.3 2.8 -1.3
v 0.3 2.9 -1.3
v 0.4 2.6 -1.3
v 0.4 2.7 -1.3
v 0.5 2.6 -1.3
v 0.5 2.7 -1.3
v 0 2.7 -1.4
v 0 2.8 -1.4
v 0.1 2.7 -1.4
v 0.1 2.8 -1.4
v 0.4 2.7 -1.4
v 0.4 2.8 -1.4
v 0.5 2.7 -1.4
v 0.5 2.8 -1.4
v 0 2.8 -1.5
v 0 2.9 -1.5
v 0.1 2.8 -1.5
v 0.1 2.9 -1.5
v 0.2 2.9 -1.5
v 0.2 3 -1.5
v 0.3 2.9 -1.5
v 0.3 3 -1.5
v 0.4 2.8 -1.5
v 0.4 2.9 -1.5
v 0.5 2.8 -1.5
v 0.5 2.9 -1.5
v 0.2 3 -1.7
v 0.2 3.1 -1.7
v 0.3 3 -1.7
v 0.3 3.1 -1.7
v 0 2 -0.1
v 0.1 2 -0.1
v 0.4 2 -0.1
v 0.5 2 -0.1
v 0 2 -0.2
v 0.1 2 -0.2
v 0.4 2 -0.2
v 0.5 2 -0.2
v 0 2.1 -0.2
v 0.1 2.1 -0.2
v 0.4 2.1 -0.2
v 0.5 2.1 -0.2
v 0 2.1 -0.3
v 0.1 2.1 -0.3
v 0.4 2.1 -0.3
v 0.5 2.1 -0.3
v 0 2.2 -0.3
v 0.1 2.2 -0.3
v 0.4 2.2 -0.3
v 0.5 2.2 -0.3
v 0 2.2 -0.5
v 0.1 2.2 -0.5
v 0.4 2.2 -0.5
v 0.5 2.2 -0.5
v 0.2 2.3 -0.2
v 0.3 2.3 -0.2
v 0.1 2.3 -0.3
v 0.2 2.3 -0.3
v 0.3 2.3 -0.3
v 0.4 2.3 -0.3
v 0 2.3 -0.5
v 0.1 2.3 -0.5
v 0.4 2.3 -0.5
v 0.5 2.3 -0.5
v 0 2.3 -0.6
v 0.5 2.3 -0.6
v 0.2 2.4 0
v 0.3 2.4 0
v 0.1 2.4 -0.1
v 0.2 2.4 -0.1
v 0.3 2.4 -0.1
v 0.4 2.4 -0.1
v 0.2 2.4 -0.2
v 0.3 2.4 -0.2
v 0.1 2.4 -0.3
v 0.2 2.4 -0.3
v 0.3 2.4 -0.3
v 0.4 2.4 -0.3
v 0.1 2.4 -0.6
v 0.4 2.4 -0.6
v 0.1 2.4 -0.7
v 0.4 2.4 -0.7
v 0 2.5 -0.2
v 0.1 2.5 -0.2
v 0.4 2.5 -0.2
v 0.5 2.5 -0.2
v 0 2.5 -0.3
v 0.1 2.5 -0.3
v 0.4 2.5 -0.3
v 0.5 2.5 -0.3
v 0.2 2.5 -0.4
v 0.3 2.5 -0.4
v 0.2 2.5 -0.6
v 0.3 2.5 -0.6
v 0.1 2.5 -0.7
v 0.4 2.5 -0.7
v 0.1 2.5 -0.9
v 0.4 2.5 -0.9
v 0 2.6 -0.9
v 0.1 2.6 -0.9
v 0.4 2.6 -0.9
v 0.5 2.6 -0.9
v 0.1 2.6 -1
v 0.4 2.6 -1
v 0 2.6 -1.3
v 0.1 2.6 -1.3
v 0.4 2.6 -1.3
v 0.5 2.6 -1.3
v 0 2.7 -0.3
v 0.1 2.7 -0.3
v 0.4 2.7 -0.3
v 0.5 2.7 -0.3
v 0 2.7 -0.4
v 0.1 2.7 -0.4
v 0.4 2.7 -0.4
v 0.5 2.7 -0.4
v 0.2 2.7 -0.7
v 0.3 2.7 -0.7
v 0.2 2.7 -0.8
v 0.3 2.7 -0.8
v 0.1 2.7 -1
v 0.4 2.7 -1
v 0.1 2.7 -1.1
v 0.4 2.7 -1.1
v 0 2.7 -1.3
v 0.1 2.7 -1.3
v 0.4 2.7 -1.3
v 0.5 2.7 -1.3
v 0 2.7 -1.4
v 0.1 2.7 -1.4
v 0.4 2.7 -1.4
v 0.5 2.7 -1.4
v 0 2.8 -0.4
v 0.1 2.8 -0.4
v 0.4 2.8 -0.4
v 0.5 2.8 -0.4
v 0 2.8 -0.5
v 0.1 2.8 -0.5
v 0.4 2.8 -0.5
v 0.5 2.8 -0.5
v 0.2 2.8 -1.1
v 0.3 2.8 -1.1
v 0.2 2.8 -1.2
v 0.3 2.8 -1.2
v 0.2 2.8 -1.3
v 0.3 2.8 -1.3
v 0 2.8 -1.4
v 0.1 2.8 -1.4
v 0.4 2.8 -1.4
v 0.5 2.8 -1.4
v 0 2.8 -1.5
v 0.1 2.8 -1.5
v 0.4 2.8 -1.5
v 0.5 2.8 -1.5
v 0.2 2.9 -1.3
v 0.3 2.9 -1.3
v 0.2 2.9 -1.5
v 0.3 2.9 -1.5
v 0.2 3 -1.5
v 0.3 3 -1.5
v 0.2 3 -1.7
v 0.3 3 -1.7
v 0 2.1 -0.1
v 0.1 2.1 -0.1
v 0.4 2.1 -0.1
v 0.5 2.1 -0.1
v 0 2.1 -0.2
v 0.1 2.1 -0.2
v 0.4 2.1 -0.2
v 0.5 2.1 -0.2
v 0 2.2 -0.2
v 0.1 2.2 -0.2
v 0.4 2.2 -0.2
v 0.5 2.2 -0.2
v 0 2.2 -0.3
v 0.1 2.2 -0.3
v 0.4 2.2 -0.3
v 0.5 2.2 -0.3
v 0 2.3 -0.3
v 0.1 2.3 -0.3
v 0.4 2.3 -0.3
v 0.5 2.3 -0.3
v 0 2.3 -0.4
v 0.1 2.3 -0.4
v 0.4 2.3 -0.4
v 0.5 2.3 -0.4
v 0.2 2.4 -0.4
v 0.3 2.4 -0.4
v 0.2 2.4 -0.6
v 0.3 2.4 -0.6
v 0.2 2.5 0
v 0.3 2.5 0
v 0.2 2.5 -0.1
v 0.3 2.5 -0.1
v 0 2.5 -0.4
v 0.1 2.5 -0.4
v 0.4 2.5 -0.4
v 0.5 2.5 -0.4
v 0 2.5 -0.6
v 0.1 2.5 -0.6
v 0.4 2.5 -0.6
v 0.5 2.5 -0.6
v 0.1 2.6 -0.1
v 0.4 2.6 -0.1
v 0 2.6 -0.2
v 0.1 2.6 -0.2
v 0.4 2.6 -0.2
v 0.5 2.6 -0.2
v 0 2.6 -0.3
v 0.1 2.6 -0.3
v 0.4 2.6 -0.3
v 0.5 2.6 -0.3
v 0.1 2.6 -0.4
v 0.4 2.6 -0.4
v 0.1 2.6 -0.6
v 0.4 2.6 -0.6
v 0.2 2.6 -0.7
v 0.3 2.6 -0.7
v 0.2 2.6 -0.8
v 0.3 2.6 -0.8
v 0.1 2.7 -0.2
v 0.4 2.7 -0.2
v 0.1 2.7 -0.3
v 0.4 2.7 -0.3
v 0.1 2.7 -0.4
v 0.4 2.7 -0.4
v 0.1 2.7 -0.6
v 0.4 2.7 -0.6
v 0.1 2.7 -0.7
v 0.4 2.7 -0.7
v 0 2.7 -1.1
v 0.1 2.7 -1.1
v 0.4 2.7 -1.1
v 0.5 2.7 -1.1
v 0 2.7 -1.3
v 0.1 2.7 -1.3
v 0.4 2.7 -1.3
v 0.5 2.7 -1.3
v 0 2.8 -0.3
v 0.1 2.8 -0.3
v 0.4 2.8 -0.3
v 0.5 2.8 -0.3
v 0 2.8 -0.4
v 0.1 2.8 -0.4
v 0.4 2.8 -0.4
v 0.5 2.8 -0.4
v 0.1 2.8 -0.7
v 0.4 2.8 -0.7
v 0.1 2.8 -0.8
v 0.4 2.8 -0.8
v 0 2.8 -1.3
v 0.1 2.8 -1.3
v 0.4 2.8 -1.3
v 0.5 2.8 -1.3
v 0 2.8 -1.4
v 0.1 2.8 -1.4
v 0.4 2.8 -1.4
v 0.5 2.8 -1.4
v 0 2.9 -0.4
v 0.1 2.9 -0.4
v 0.4 2.9 -0.4
v 0.5 2.9 -0.4
v 0 2.9 -0.5
v 0.1 2.9 -0.5
v 0.4 2.9 -0.5
v 0.5 2.9 -0.5
v 0.1 2.9 -0.8
v 0.4 2.9 -0.8
v 0 2.9 -0.9
v 0.1 2.9 -0.9
v 0.4 2.9 -0.9
v 0.5 2.9 -0.9
v 0 2.9 -1.1
v 0.1 2.9 -1.1
v 0.2 2.9 -1.1
v 0.3 2.9 -1.1
v 0.4 2.9 -1.1
v 0.5 2.9 -1.1
v 0.2 2.9 -1.2
v 0.3 2.9 -1.2
v 0.2 2.9 -1.3
v 0.3 2.9 -1.3
v 0 2.9 -1.4
v 0.1 2.9 -1.4
v 0.4 2.9 -1.4
v 0.5 2.9 -1.4
v 0 2.9 -1.5
v 0.1 2.9 -1.5
v 0.4 2.9 -1.5
v 0.5 2.9 -1.5
v 0.1 3 -0.9
v 0.4 3 -0.9
v 0.1 3 -1.1
v 0.4 3 -1.1
v 0.2 3 -1.3
v 0.3 3 -1.3
v 0.2 3 -1.5
v 0.3 3 -1.5
v 0.2 3.1 -1.5
v 0.3 3.1 -1.5
v 0.2 3.1 -1.7
v 0.3 3.1 -1.7

# faces
f 3/1/1 2/1/1 1/1/1
f 4/1/1 2/1/1 3/1/1
f 6/1/1 5/1/1 4/1/1
f 7/1/1 5/1/1 6/1/1
f 9/2/1 8/2/1 7/2/1
f 10/2/1 8/2/1 9/2/1
f 11/2/1 8/2/1 10/2/1
f 15/2/1 12/2/1 11/2/1
f 15/2/1 11/2/1 10/2/1
f 16/2/1 12/2/1 15/2/1
f 17/3/1 14/3/1 13/3/1
f 18/3/1 14/3/1 17/3/1
f 23/2/1 20/2/1 19/2/1
f 24/2/1 20/2/1 23/2/1
f 26/1/1 22/1/1 21/1/1
f 27/1/1 22/1/1 26/1/1
f 29/1/1 25/1/1 24/1/1
f 30/1/1 25/1/1 29/1/1
f 32/1/1 28/1/1 27/1/1
f 33/1/1 28/1/1 32/1/1
f 34/2/1 23/2/1 19/2/1
f 35/2/1 23/2/1 34/2/1
f 36/1/1 31/1/1 30/1/1
f 37/1/1 31/1/1 36/1/1
f 41/2/1 39/2/1 38/2/1
f 44/2/1 41/2/1 40/2/1
f 45/2/1 39/2/1 41/2/1
f 45/2/1 41/2/1 44/2/1
f 46/2/1 39/2/1 45/2/1
f 47/2/1 43/2/1 42/2/1
f 48/2/1 43/2/1 47/2/1
f 50/2/1 44/2/1 40/2/1
f 51/2/1 44/2/1 50/2/1
f 52/2/1 49/2/1 48/2/1
f 52/2/1 46/2/1 45/2/1
f 52/2/1 48/2/1 47/2/1
f 52/2/1 47/2/1 46/2/1
f 53/2/1 49/2/1 52/2/1
f 54/2/1 49/2/1 53/2/1
f 55/2/1 49/2/1 54/2/1
f 56/2/1 52/2/1 51/2/1
f 56/2/1 53/2/1 52/2/1
f 57/2/1 53/2/1 56/2/1
f 58/2/1 53/2/1 57/2/1
f 59/2/1 55/2/1 54/2/1
f 60/2/1 55/2/1 59/2/1
f 61/2/1 55/2/1 60/2/1
f 62/2/1 55/2/1 61/2/1
f 63/2/1 55/2/1 62/2/1
f 64/2/1 55/2/1 63/2/1
f 66/2/1 65/2/1 64/2/1
f 67/2/1 65/2/1 66/2/1
f 72/2/1 69/2/1 68/2/1
f 73/2/1 69/2/1 72/2/1
f 74/1/1 71/1/1 70/1/1
f 75/1/1 71/1/1 74/1/1
f 79/2/1 77/2/1 76/2/1
f 80/1/1 78/1/1 77/1/1
f 80/2/1 77/2/1 79/2/1
f 81/1/1 78/1/1 80/1/1
f 83/1/1 82/1/1 81/1/1
f 84/1/1 82/1/1 83/1/1
f 86/1/1 85/1/1 84/1/1
f 87/1/1 85/1/1 86/1/1
f 90/2/1 89/2/1 88/2/1
f 91/2/1 89/2/1 90/2/1
f 94/2/1 93/2/1 92/2/1
f 95/2/1 93/2/1 94/2/1
f 98/1/1 97/1/1 96/1/1
f 99/1/1 97/1/1 98/1/1
f 101/1/1 100/1/1 99/1/1
f 102/1/1 100/1/1 101/1/1
f 104/2/1 103/2/1 102/2/1
f 105/2/1 103/2/1 104/2/1
f 110/2/1 107/2/1 106/2/1
f 111/2/1 107/2/1 110/2/1
f 112/2/1 107/2/1 111/2/1
f 114/1/1 109/1/1 108/1/1
f 115/1/1 109/1/1 114/1/1
f 117/1/1 113/1/1 112/1/1
f 118/1/1 113/1/1 117/1/1
f 120/1/1 116/1/1 115/1/1
f 121/1/1 116/1/1 120/1/1
f 122/1/1 119/1/1 118/1/1
f 123/1/1 119/1/1 122/1/1
f 124/1/2 125/1/2 126/1/2
f 126/1/2 125/1/2 127/1/2
f 127/1/2 128/1/2 129/1/2
f 129/1/2 128/1/2 130/1/2
f 130/2/2 131/2/2 132/2/2
f 132/2/2 131/2/2 133/2/2
f 134/2/2 135/2/2 138/2/2
f 138/2/2 135/2/2 139/2/2
f 139/2/2 135/2/2 140/2/2
f 136/1/2 137/1/2 142/1/2
f 142/1/2 137/1/2 143/1/2
f 140/1/2 141/1/2 145/1/2
f 145/1/2 141/1/2 146/1/2
f 143/1/2 144/1/2 148/1/2
f 148/1/2 144/1/2 149/1/2
f 146/1/2 147/1/2 150/1/2
f 150/1/2 147/1/2 151/1/2
f 152/2/2 153/2/2 154/2/2
f 154/2/2 153/2/2 155/2/2
f 156/2/2 157/2/2 158/2/2
f 158/2/2 157/2/2 159/2/2
f 160/2/2 161/2/2 164/2/2
f 164/2/2 161/2/2 165/2/2
f 162/1/2 163/1/2 166/1/2
f 166/1/2 163/1/2 167/1/2
f 168/2/2 169/2/2 171/2/2
f 169/1/2 170/1/2 172/1/2
f 171/2/2 169/2/2 172/2/2
f 172/1/2 170/1/2 173/1/2
f 173/1/2 174/1/2 175/1/2
f 175/1/2 174/1/2 176/1/2
f 176/1/2 177/1/2 178/1/2
f 178/1/2 177/1/2 179/1/2
f 180/2/2 181/2/2 183/2/2
f 182/2/2 183/2/2 186/2/2
f 183/2/2 181/2/2 187/2/2
f 186/2/2 183/2/2 187/2/2
f 187/2/2 181/2/2 188/2/2
f 184/2/2 185/2/2 189/2/2
f 189/2/2 185/2/2 190/2/2
f 182/2/2 186/2/2 192/2/2
f 192/2/2 186/2/2 193/2/2
f 190/2/2 191/2/2 194/2/2
f 187/2/2 188/2/2 194/2/2
f 189/2/2 190/2/2 194/2/2
f 188/2/2 189/2/2 194/2/2
f 194/2/2 191/2/2 195/2/2
f 195/2/2 191/2/2 196/2/2
f 196/2/2 191/2/2 197/2/2
f 193/2/2 194/2/2 198/2/2
f 194/2/2 195/2/2 198/2/2
f 198/2/2 195/2/2 199/2/2
f 199/2/2 195/2/2 200/2/2
f 196/2/2 197/2/2 201/2/2
f 201/2/2 197/2/2 202/2/2
f 202/2/2 197/2/2 203/2/2
f 203/2/2 197/2/2 204/2/2
f 204/2/2 197/2/2 205/2/2
f 205/2/2 197/2/2 206/2/2
f 206/2/2 207/2/2 208/2/2
f 208/2/2 207/2/2 209/2/2
f 210/1/2 211/1/2 212/1/2
f 212/1/2 211/1/2 213/1/2
f 213/1/2 214/1/2 215/1/2
f 215/1/2 214/1/2 216/1/2
f 216/2/2 217/2/2 218/2/2
f 218/2/2 217/2/2 219/2/2
f 219/2/2 217/2/2 220/2/2
f 220/2/2 221/2/2 224/2/2
f 219/2/2 220/2/2 224/2/2
f 224/2/2 221/2/2 225/2/2
f 222/3/2 223/3/2 226/3/2
f 226/3/2 223/3/2 227/3/2
f 228/2/2 229/2/2 232/2/2
f 232/2/2 229/2/2 233/2/2
f 230/1/2 231/1/2 235/1/2
f 235/1/2 231/1/2 236/1/2
f 233/1/2 234/1/2 238/1/2
f 238/1/2 234/1/2 239/1/2
f 236/1/2 237/1/2 241/1/2
f 241/1/2 237/1/2 242/1/2
f 228/2/2 232/2/2 243/2/2
f 243/2/2 232/2/2 244/2/2
f 239/1/2 240/1/2 245/1/2
f 245/1/2 240/1/2 246/1/2
f 249/1/3 248/1/3 247/1/3
f 250/1/3 248/1/3 249/1/3
f 253/1/3 252/1/3 251/1/3
f 254/1/3 252/1/3 253/1/3
f 257/2/3 256/2/3 255/2/3
f 258/2/3 256/2/3 257/2/3
f 260/2/3 256/2/3 258/2/3
f 263/2/3 260/2/3 259/2/3
f 264/2/3 256/2/3 260/2/3
f 264/2/3 260/2/3 263/2/3
f 265/1/3 262/1/3 261/1/3
f 266/1/3 262/1/3 265/1/3
f 271/1/3 268/1/3 267/1/3
f 272/1/3 268/1/3 271/1/3
f 273/3/3 270/3/3 269/3/3
f 274/3/3 270/3/3 273/3/3
f 278/2/3 277/2/3 276/2/3
f 279/2/3 277/2/3 278/2/3
f 283/2/3 275/2/3 274/2/3
f 284/2/3 275/2/3 283/2/3
f 285/1/3 281/1/3 280/1/3
f 286/1/3 281/1/3 285/1/3
f 287/3/3 283/3/3 282/3/3
f 288/3/3 283/3/3 287/3/3
f 293/2/3 290/2/3 289/2/3
f 294/2/3 290/2/3 293/2/3
f 296/1/3 292/1/3 291/1/3
f 297/1/3 292/1/3 296/1/3
f 298/2/3 295/2/3 294/2/3
f 299/2/3 295/2/3 298/2/3
f 303/2/3 301/2/3 300/2/3
f 304/2/3 301/2/3 303/2/3
f 307/2/3 303/2/3 302/2/3
f 308/2/3 303/2/3 307/2/3
f 309/1/3 306/1/3 305/1/3
f 310/1/3 306/1/3 309/1/3
f 315/2/3 312/2/3 311/2/3
f 316/2/3 312/2/3 315/2/3
f 317/1/3 314/1/3 313/1/3
f 318/1/3 314/1/3 317/1/3
f 323/2/3 320/2/3 319/2/3
f 324/2/3 320/2/3 323/2/3
f 325/1/3 322/1/3 321/1/3
f 326/1/3 322/1/3 325/1/3
f 331/2/3 330/2/3 329/2/3
f 332/2/3 330/2/3 331/2/3
f 333/2/3 328/2/3 327/2/3
f 334/2/3 328/2/3 333/2/3
f 337/2/3 336/2/3 335/2/3
f 338/2/3 336/2/3 337/2/3
f 343/2/3 342/2/3 341/2/3
f 344/2/3 342/2/3 343/2/3
f 345/2/3 340/2/3 339/2/3
f 346/2/3 340/2/3 345/2/3
f 349/2/3 348/2/3 347/2/3
f 350/2/3 348/2/3 349/2/3
f 353/2/3 351/2/3 350/2/3
f 354/2/3 351/2/3 353/2/3
f 355/2/3 353/2/3 352/2/3
f 356/2/3 353/2/3 355/2/3
f 359/1/3 358/1/3 357/1/3
f 360/1/3 358/1/3 359/1/3
f 363/1/3 362/1/3 361/1/3
f 364/1/3 362/1/3 363/1/3
f 367/1/3 366/1/3 365/1/3
f 368/1/3 366/1/3 367/1/3
f 371/1/3 370/1/3 369/1/3
f 372/1/3 370/1/3 371/1/3
f 375/1/3 374/1/3 373/1/3
f 376/1/3 374/1/3 375/1/3
f 379/1/3 378/1/3 377/1/3
f 380/1/3 378/1/3 379/1/3
f 381/1/4 382/1/4 383/1/4
f 383/1/4 382/1/4 384/1/4
f 385/1/4 386/1/4 387/1/4
f 387/1/4 386/1/4 388/1/4
f 389/1/4 390/1/4 393/1/4
f 393/1/4 390/1/4 394/1/4
f 391/3/4 392/3/4 395/3/4
f 395/3/4 392/3/4 396/3/4
f 397/1/4 398/1/4 401/1/4
f 401/1/4 398/1/4 402/1/4
f 399/3/4 400/3/4 403/3/4
f 403/3/4 400/3/4 404/3/4
f 405/1/4 406/1/4 408/1/4
f 408/1/4 406/1/4 409/1/4
f 410/2/4 411/2/4 412/2/4
f 412/2/4 411/2/4 413/2/4
f 407/2/4 408/2/4 414/2/4
f 414/2/4 408/2/4 415/2/4
f 415/1/4 416/1/4 417/1/4
f 417/1/4 416/1/4 418/1/4
f 419/2/4 420/2/4 423/2/4
f 423/2/4 420/2/4 424/2/4
f 421/1/4 422/1/4 425/1/4
f 425/1/4 422/1/4 426/1/4
f 427/2/4 428/2/4 431/2/4
f 431/2/4 428/2/4 432/2/4
f 429/1/4 430/1/4 433/1/4
f 433/1/4 430/1/4 434/1/4
f 435/2/4 436/2/4 437/2/4
f 437/2/4 436/2/4 438/2/4
f 435/2/4 437/2/4 439/2/4
f 435/2/4 439/2/4 441/2/4
f 439/2/4 440/2/4 441/2/4
f 441/2/4 440/2/4 442/2/4
f 445/2/4 446/2/4 447/2/4
f 447/2/4 446/2/4 448/2/4
f 443/2/4 444/2/4 449/2/4
f 449/2/4 444/2/4 450/2/4
f 451/2/4 452/2/4 453/2/4
f 453/2/4 452/2/4 454/2/4
f 455/2/4 456/2/4 457/2/4
f 457/2/4 456/2/4 458/2/4
f 459/2/4 460/2/4 461/2/4
f 461/2/4 460/2/4 462/2/4
f 461/2/4 462/2/4 464/2/4
f 462/2/4 463/2/4 464/2/4
f 464/2/4 463/2/4 465/2/4
f 461/2/4 464/2/4 466/2/4
f 465/2/4 463/2/4 467/2/4
f 461/2/4 466/2/4 468/2/4
f 466/2/4 467/2/4 468/2/4
f 467/2/4 463/2/4 469/2/4
f 468/2/4 467/2/4 469/2/4
f 469/2/4 463/2/4 470/2/4
f 468/2/4 469/2/4 471/2/4
f 471/2/4 469/2/4 472/2/4
f 473/2/4 474/2/4 475/2/4
f 475/2/4 474/2/4 476/2/4
f 477/1/4 478/1/4 479/1/4
f 479/1/4 478/1/4 480/1/4
f 481/2/4 482/2/4 483/2/4
f 483/2/4 482/2/4 484/2/4
f 485/1/4 486/1/4 487/1/4
f 487/1/4 486/1/4 488/1/4
f 489/1/4 490/1/4 491/1/4
f 491/1/4 490/1/4 492/1/4
f 493/1/4 494/1/4 495/1/4
f 495/1/4 494/1/4 496/1/4
f 497/1/4 498/1/4 499/1/4
f 499/1/4 498/1/4 500/1/4
f 501/1/4 502/1/4 503/1/4
f 503/1/4 502/1/4 504/1/4
f 505/1/4 506/1/4 507/1/4
f 507/1/4 506/1/4 508/1/4
f 513/1/5 510/1/5 509/1/5
f 514/1/5 510/1/5 513/1/5
f 515/1/5 512/1/5 511/1/5
f 516/1/5 512/1/5 515/1/5
f 521/1/5 518/1/5 517/1/5
f 522/1/5 518/1/5 521/1/5
f 523/1/5 520/1/5 519/1/5
f 524/1/5 520/1/5 523/1/5
f 529/2/5 526/2/5 525/2/5
f 530/2/5 526/2/5 529/2/5
f 531/2/5 528/2/5 527/2/5
f 532/2/5 528/2/5 531/2/5
f 536/2/5 534/2/5 533/2/5
f 537/2/5 534/2/5 536/2/5
f 540/2/5 536/2/5 535/2/5
f 540/2/5 538/2/5 537/2/5
f 540/2/5 537/2/5 536/2/5
f 541/2/5 538/2/5 540/2/5
f 543/2/5 540/2/5 539/2/5
f 543/2/5 542/2/5 541/2/5
f 543/2/5 541/2/5 540/2/5
f 544/2/5 542/2/5 543/2/5
f 548/1/5 546/1/5 545/1/5
f 549/1/5 546/1/5 548/1/5
f 551/2/5 548/2/5 547/2/5
f 551/2/5 550/2/5 549/2/5
f 551/2/5 549/2/5 548/2/5
f 552/2/5 550/2/5 551/2/5
f 553/2/5 551/2/5 547/2/5
f 554/2/5 551/2/5 553/2/5
f 555/2/5 550/2/5 552/2/5
f 556/2/5 550/2/5 555/2/5
f 559/2/5 558/2/5 557/2/5
f 560/2/5 558/2/5 559/2/5
f 565/3/5 562/3/5 561/3/5
f 566/3/5 562/3/5 565/3/5
f 567/3/5 564/3/5 563/3/5
f 568/3/5 564/3/5 567/3/5
f 571/2/5 570/2/5 569/2/5
f 572/2/5 570/2/5 571/2/5
f 575/2/5 574/2/5 573/2/5
f 576/2/5 574/2/5 575/2/5
f 581/2/5 578/2/5 577/2/5
f 581/2/5 580/2/5 579/2/5
f 581/2/5 579/2/5 578/2/5
f 582/2/5 580/2/5 581/2/5
f 583/2/5 581/2/5 577/2/5
f 584/2/5 581/2/5 583/2/5
f 585/2/5 580/2/5 582/2/5
f 586/2/5 580/2/5 585/2/5
f 591/1/5 588/1/5 587/1/5
f 592/1/5 588/1/5 591/1/5
f 593/1/5 590/1/5 589/1/5
f 594/1/5 590/1/5 593/1/5
f 597/2/5 596/2/5 595/2/5
f 598/2/5 596/2/5 597/2/5
f 601/2/5 600/2/5 599/2/5
f 602/2/5 600/2/5 601/2/5
f 607/1/5 604/1/5 603/1/5
f 608/1/5 604/1/5 607/1/5
f 609/1/5 606/1/5 605/1/5
f 610/1/5 606/1/5 609/1/5
f 615/1/5 612/1/5 611/1/5
f 616/1/5 612/1/5 615/1/5
f 617/1/5 614/1/5 613/1/5
f 618/1/5 614/1/5 617/1/5
f 621/2/5 620/2/5 619/2/5
f 622/2/5 620/2/5 621/2/5
f 623/1/5 622/1/5 621/1/5
f 624/1/5 622/1/5 623/1/5
f 629/1/5 626/1/5 625/1/5
f 630/1/5 626/1/5 629/1/5
f 631/1/5 628/1/5 627/1/5
f 632/1/5 628/1/5 631/1/5
f 635/1/5 634/1/5 633/1/5
f 636/1/5 634/1/5 635/1/5
f 639/1/5 638/1/5 637/1/5
f 640/1/5 638/1/5 639/1/5
f 641/1/6 642/1/6 645/1/6
f 645/1/6 642/1/6 646/1/6
f 643/1/6 644/1/6 647/1/6
f 647/1/6 644/1/6 648/1/6
f 649/1/6 650/1/6 653/1/6
f 653/1/6 650/1/6 654/1/6
f 651/1/6 652/1/6 655/1/6
f 655/1/6 652/1/6 656/1/6
f 657/2/6 658/2/6 661/2/6
f 661/2/6 658/2/6 662/2/6
f 659/2/6 660/2/6 663/2/6
f 663/2/6 660/2/6 664/2/6
f 665/2/6 666/2/6 667/2/6
f 667/2/6 666/2/6 668/2/6
f 669/1/6 670/1/6 671/1/6
f 671/1/6 670/1/6 672/1/6
f 673/2/6 674/2/6 677/2/6
f 677/2/6 674/2/6 678/2/6
f 675/2/6 676/2/6 679/2/6
f 679/2/6 676/2/6 680/2/6
f 681/2/6 682/2/6 684/2/6
f 684/2/6 682/2/6 685/2/6
f 683/3/6 684/3/6 687/3/6
f 687/3/6 684/3/6 688/3/6
f 685/3/6 686/3/6 689/3/6
f 689/3/6 686/3/6 690/3/6
f 691/2/6 692/2/6 693/2/6
f 693/2/6 692/2/6 694/2/6
f 695/2/6 696/2/6 697/2/6
f 697/2/6 696/2/6 698/2/6
f 699/2/6 700/2/6 701/2/6
f 701/2/6 700/2/6 702/2/6
f 701/2/6 702/2/6 703/2/6
f 703/2/6 702/2/6 704/2/6
f 705/2/6 706/2/6 707/2/6
f 707/2/6 706/2/6 708/2/6
f 709/2/6 710/2/6 713/2/6
f 713/2/6 710/2/6 714/2/6
f 711/2/6 712/2/6 715/2/6
f 715/2/6 712/2/6 716/2/6
f 717/1/6 718/1/6 721/1/6
f 721/1/6 718/1/6 722/1/6
f 719/1/6 720/1/6 723/1/6
f 723/1/6 720/1/6 724/1/6
f 725/2/6 726/2/6 727/2/6
f 727/2/6 726/2/6 728/2/6
f 729/1/6 730/1/6 733/1/6
f 733/1/6 730/1/6 734/1/6
f 731/1/6 732/1/6 735/1/6
f 735/1/6 732/1/6 736/1/6
f 737/1/6 738/1/6 741/1/6
f 741/1/6 738/1/6 742/1/6
f 739/1/6 740/1/6 743/1/6
f 743/1/6 740/1/6 744/1/6
f 745/2/6 746/2/6 748/2/6
f 748/2/6 746/2/6 749/2/6
f 747/2/6 748/2/6 751/2/6
f 751/2/6 748/2/6 752/2/6
f 749/2/6 750/2/6 755/2/6
f 755/2/6 750/2/6 756/2/6
f 753/2/6 754/2/6 757/2/6
f 757/2/6 754/2/6 758/2/6
f 757/1/6 758/1/6 759/1/6
f 759/1/6 758/1/6 760/1/6
f 761/1/6 762/1/6 765/1/6
f 765/1/6 762/1/6 766/1/6
f 763/1/6 764/1/6 767/1/6
f 767/1/6 764/1/6 768/1/6
f 769/2/6 770/2/6 771/2/6
f 771/2/6 770/2/6 772/2/6
f 773/1/6 774/1/6 775/1/6
f 775/1/6 774/1/6 776/1/6
f 777/1/6 778/1/6 779/1/6
f 779/1/6 778/1/6 780/1/6
