# MagicaVoxel @ Ephtracy

# group
o 

# material
mtllib rat_iddle_3.mtl
usemtl palette

# normals
vn -1 0 0
vn 1 0 0
vn 0 0 1
vn 0 0 -1
vn 0 -1 0
vn 0 1 0

# texcoords
vt 0.0292969 0.5
vt 0.982422 0.5
vt 0.994141 0.5

# verts
v 0.2 2 -0.3
v 0.2 2 -0.5
v 0.2 2 -0.8
v 0.2 2 -1
v 0.2 2 -1.4
v 0.2 2 -1.7
v 0.2 2.1 -0.3
v 0.2 2.1 -0.4
v 0.2 2.1 -0.5
v 0.2 2.1 -0.8
v 0.2 2.1 -0.9
v 0.2 2.1 -1
v 0.2 2.1 -1.1
v 0.2 2.1 -1.4
v 0.2 2.1 -1.7
v 0.2 2.3 -0.5
v 0.2 2.3 -0.6
v 0.2 2.3 -0.9
v 0.2 2.3 -1.1
v 0.2 2.6 -0.2
v 0.2 2.6 -0.3
v 0.2 2.6 -0.4
v 0.2 2.6 -0.6
v 0.2 2.7 -0.2
v 0.2 2.7 -0.3
v 0.2 2.7 -0.4
v 0.2 2.9 -0.3
v 0.2 2.9 -0.4
v 0.3 2 -1.3
v 0.3 2 -1.4
v 0.3 2.1 -1.3
v 0.3 2.1 -1.4
v 0.3 2.2 -0.6
v 0.3 2.2 -0.9
v 0.3 2.3 -0.6
v 0.3 2.3 -0.9
v 0.3 2.3 -1
v 0.3 2.4 -0.3
v 0.3 2.4 -0.4
v 0.3 2.4 -0.9
v 0.3 2.4 -1
v 0.3 2.5 -0.1
v 0.3 2.5 -0.3
v 0.3 2.5 -0.7
v 0.3 2.5 -0.9
v 0.3 2.6 -0.2
v 0.3 2.6 -0.3
v 0.3 2.6 -0.4
v 0.3 2.6 -0.6
v 0.3 2.6 -0.7
v 0.3 2.7 -0.1
v 0.3 2.7 -0.2
v 0.3 2.7 -0.3
v 0.3 2.7 -0.4
v 0.3 2.7 -0.6
v 0.3 2.8 -0.2
v 0.3 2.8 -0.3
v 0.4 2 -1.2
v 0.4 2 -1.3
v 0.4 2.1 -1.1
v 0.4 2.1 -1.2
v 0.4 2.1 -1.3
v 0.4 2.2 -1.1
v 0.4 2.2 -1.2
v 0.4 2.2 -1.3
v 0.4 2.4 -0.2
v 0.4 2.4 -0.3
v 0.4 2.5 0
v 0.4 2.5 -0.1
v 0.4 2.5 -0.2
v 0.4 2.5 -0.3
v 0.4 2.6 0
v 0.4 2.6 -0.1
v 0.5 2.3 -0.7
v 0.5 2.3 -0.9
v 0.5 2.4 -0.7
v 0.5 2.4 -0.9
v 0.6 2 -0.3
v 0.6 2 -0.5
v 0.6 2 -0.8
v 0.6 2 -1
v 0.6 2.1 -0.3
v 0.6 2.1 -0.4
v 0.6 2.1 -0.5
v 0.6 2.1 -0.8
v 0.6 2.1 -0.9
v 0.6 2.1 -1
v 0.6 2.2 -0.9
v 0.6 2.2 -1
v 0.6 2.3 -0.5
v 0.6 2.3 -0.9
v 0.6 2.3 -1
v 0.6 2.4 -0.4
v 0.6 2.4 -0.5
v 0.6 2.8 -0.3
v 0.6 2.8 -0.4
v 0.6 2.9 -0.3
v 0.6 2.9 -0.4
v 0.3 2 -0.3
v 0.3 2 -0.5
v 0.3 2 -0.8
v 0.3 2 -1
v 0.3 2 -1.5
v 0.3 2 -1.7
v 0.3 2.1 -0.3
v 0.3 2.1 -0.4
v 0.3 2.1 -0.5
v 0.3 2.1 -0.8
v 0.3 2.1 -0.9
v 0.3 2.1 -1
v 0.3 2.1 -1.5
v 0.3 2.1 -1.7
v 0.3 2.2 -0.9
v 0.3 2.2 -1
v 0.3 2.3 -0.5
v 0.3 2.3 -0.9
v 0.3 2.3 -1
v 0.3 2.4 -0.4
v 0.3 2.4 -0.5
v 0.3 2.8 -0.3
v 0.3 2.8 -0.4
v 0.3 2.9 -0.3
v 0.3 2.9 -0.4
v 0.4 2 -1.3
v 0.4 2 -1.5
v 0.4 2.1 -1.3
v 0.4 2.1 -1.5
v 0.4 2.3 -0.7
v 0.4 2.3 -0.9
v 0.4 2.4 -0.7
v 0.4 2.4 -0.9
v 0.5 2 -1.2
v 0.5 2 -1.3
v 0.5 2.1 -1.1
v 0.5 2.1 -1.2
v 0.5 2.2 -1.1
v 0.5 2.2 -1.2
v 0.5 2.2 -1.3
v 0.5 2.4 -0.2
v 0.5 2.4 -0.3
v 0.5 2.5 0
v 0.5 2.5 -0.1
v 0.5 2.5 -0.2
v 0.5 2.5 -0.3
v 0.5 2.6 0
v 0.5 2.6 -0.1
v 0.6 2.2 -0.6
v 0.6 2.2 -0.9
v 0.6 2.3 -0.6
v 0.6 2.3 -0.9
v 0.6 2.3 -1
v 0.6 2.4 -0.3
v 0.6 2.4 -0.4
v 0.6 2.4 -0.9
v 0.6 2.4 -1
v 0.6 2.5 -0.1
v 0.6 2.5 -0.3
v 0.6 2.5 -0.7
v 0.6 2.5 -0.9
v 0.6 2.6 -0.2
v 0.6 2.6 -0.3
v 0.6 2.6 -0.4
v 0.6 2.6 -0.6
v 0.6 2.6 -0.7
v 0.6 2.7 -0.1
v 0.6 2.7 -0.2
v 0.6 2.7 -0.3
v 0.6 2.7 -0.4
v 0.6 2.7 -0.6
v 0.6 2.8 -0.2
v 0.6 2.8 -0.3
v 0.7 2 -0.3
v 0.7 2 -0.5
v 0.7 2 -0.8
v 0.7 2 -1
v 0.7 2.1 -0.3
v 0.7 2.1 -0.4
v 0.7 2.1 -0.5
v 0.7 2.1 -0.8
v 0.7 2.1 -0.9
v 0.7 2.1 -1
v 0.7 2.1 -1.1
v 0.7 2.3 -0.5
v 0.7 2.3 -0.6
v 0.7 2.3 -0.9
v 0.7 2.3 -1.1
v 0.7 2.6 -0.2
v 0.7 2.6 -0.3
v 0.7 2.6 -0.4
v 0.7 2.6 -0.6
v 0.7 2.7 -0.2
v 0.7 2.7 -0.3
v 0.7 2.7 -0.4
v 0.7 2.9 -0.3
v 0.7 2.9 -0.4
v 0.4 2.5 0
v 0.4 2.6 0
v 0.5 2.5 0
v 0.5 2.6 0
v 0.3 2.5 -0.1
v 0.3 2.7 -0.1
v 0.4 2.5 -0.1
v 0.4 2.6 -0.1
v 0.5 2.5 -0.1
v 0.5 2.6 -0.1
v 0.6 2.5 -0.1
v 0.6 2.7 -0.1
v 0.2 2.6 -0.2
v 0.2 2.7 -0.2
v 0.3 2.6 -0.2
v 0.3 2.7 -0.2
v 0.3 2.8 -0.2
v 0.4 2.4 -0.2
v 0.4 2.5 -0.2
v 0.5 2.4 -0.2
v 0.5 2.5 -0.2
v 0.6 2.6 -0.2
v 0.6 2.7 -0.2
v 0.6 2.8 -0.2
v 0.7 2.6 -0.2
v 0.7 2.7 -0.2
v 0.2 2 -0.3
v 0.2 2.1 -0.3
v 0.2 2.7 -0.3
v 0.2 2.9 -0.3
v 0.3 2 -0.3
v 0.3 2.1 -0.3
v 0.3 2.4 -0.3
v 0.3 2.5 -0.3
v 0.3 2.7 -0.3
v 0.3 2.8 -0.3
v 0.3 2.9 -0.3
v 0.4 2.4 -0.3
v 0.4 2.5 -0.3
v 0.5 2.4 -0.3
v 0.5 2.5 -0.3
v 0.6 2 -0.3
v 0.6 2.1 -0.3
v 0.6 2.4 -0.3
v 0.6 2.5 -0.3
v 0.6 2.7 -0.3
v 0.6 2.8 -0.3
v 0.6 2.9 -0.3
v 0.7 2 -0.3
v 0.7 2.1 -0.3
v 0.7 2.7 -0.3
v 0.7 2.9 -0.3
v 0.2 2.1 -0.4
v 0.2 2.6 -0.4
v 0.3 2.1 -0.4
v 0.3 2.4 -0.4
v 0.3 2.6 -0.4
v 0.6 2.1 -0.4
v 0.6 2.4 -0.4
v 0.6 2.6 -0.4
v 0.7 2.1 -0.4
v 0.7 2.6 -0.4
v 0.3 2.3 -0.5
v 0.3 2.4 -0.5
v 0.6 2.3 -0.5
v 0.6 2.4 -0.5
v 0.3 2.2 -0.6
v 0.3 2.3 -0.6
v 0.6 2.2 -0.6
v 0.6 2.3 -0.6
v 0.2 2 -0.8
v 0.2 2.1 -0.8
v 0.3 2 -0.8
v 0.3 2.1 -0.8
v 0.6 2 -0.8
v 0.6 2.1 -0.8
v 0.7 2 -0.8
v 0.7 2.1 -0.8
v 0.2 2.1 -0.9
v 0.2 2.3 -0.9
v 0.3 2.1 -0.9
v 0.3 2.2 -0.9
v 0.3 2.3 -0.9
v 0.4 2.3 -0.9
v 0.4 2.4 -0.9
v 0.5 2.3 -0.9
v 0.5 2.4 -0.9
v 0.6 2.1 -0.9
v 0.6 2.2 -0.9
v 0.6 2.3 -0.9
v 0.7 2.1 -0.9
v 0.7 2.3 -0.9
v 0.3 2.2 -1
v 0.3 2.3 -1
v 0.6 2.2 -1
v 0.6 2.3 -1
v 0.4 2 -1.2
v 0.4 2.1 -1.2
v 0.5 2 -1.2
v 0.5 2.1 -1.2
v 0.3 2 -1.3
v 0.3 2.1 -1.3
v 0.4 2 -1.3
v 0.4 2.1 -1.3
v 0.2 2 -1.4
v 0.2 2.1 -1.4
v 0.3 2 -1.4
v 0.3 2.1 -1.4
v 0.2 2.6 -0.3
v 0.2 2.7 -0.3
v 0.3 2.6 -0.3
v 0.3 2.7 -0.3
v 0.6 2.6 -0.3
v 0.6 2.7 -0.3
v 0.7 2.6 -0.3
v 0.7 2.7 -0.3
v 0.2 2.7 -0.4
v 0.2 2.9 -0.4
v 0.3 2.7 -0.4
v 0.3 2.8 -0.4
v 0.3 2.9 -0.4
v 0.6 2.7 -0.4
v 0.6 2.8 -0.4
v 0.6 2.9 -0.4
v 0.7 2.7 -0.4
v 0.7 2.9 -0.4
v 0.2 2 -0.5
v 0.2 2.1 -0.5
v 0.2 2.3 -0.5
v 0.3 2 -0.5
v 0.3 2.1 -0.5
v 0.3 2.3 -0.5
v 0.6 2 -0.5
v 0.6 2.1 -0.5
v 0.6 2.3 -0.5
v 0.7 2 -0.5
v 0.7 2.1 -0.5
v 0.7 2.3 -0.5
v 0.2 2.3 -0.6
v 0.2 2.6 -0.6
v 0.3 2.3 -0.6
v 0.3 2.6 -0.6
v 0.3 2.7 -0.6
v 0.6 2.3 -0.6
v 0.6 2.6 -0.6
v 0.6 2.7 -0.6
v 0.7 2.3 -0.6
v 0.7 2.6 -0.6
v 0.3 2.5 -0.7
v 0.3 2.6 -0.7
v 0.4 2.3 -0.7
v 0.4 2.4 -0.7
v 0.5 2.3 -0.7
v 0.5 2.4 -0.7
v 0.6 2.5 -0.7
v 0.6 2.6 -0.7
v 0.3 2.2 -0.9
v 0.3 2.3 -0.9
v 0.3 2.4 -0.9
v 0.3 2.5 -0.9
v 0.6 2.2 -0.9
v 0.6 2.3 -0.9
v 0.6 2.4 -0.9
v 0.6 2.5 -0.9
v 0.2 2 -1
v 0.2 2.1 -1
v 0.3 2 -1
v 0.3 2.1 -1
v 0.3 2.3 -1
v 0.3 2.4 -1
v 0.6 2 -1
v 0.6 2.1 -1
v 0.6 2.3 -1
v 0.6 2.4 -1
v 0.7 2 -1
v 0.7 2.1 -1
v 0.2 2.1 -1.1
v 0.2 2.3 -1.1
v 0.4 2.1 -1.1
v 0.4 2.2 -1.1
v 0.5 2.1 -1.1
v 0.5 2.2 -1.1
v 0.7 2.1 -1.1
v 0.7 2.3 -1.1
v 0.4 2 -1.3
v 0.4 2.1 -1.3
v 0.4 2.2 -1.3
v 0.5 2 -1.3
v 0.5 2.2 -1.3
v 0.3 2 -1.5
v 0.3 2.1 -1.5
v 0.4 2 -1.5
v 0.4 2.1 -1.5
v 0.2 2 -1.7
v 0.2 2.1 -1.7
v 0.3 2 -1.7
v 0.3 2.1 -1.7
v 0.2 2 -0.3
v 0.3 2 -0.3
v 0.6 2 -0.3
v 0.7 2 -0.3
v 0.2 2 -0.5
v 0.3 2 -0.5
v 0.6 2 -0.5
v 0.7 2 -0.5
v 0.2 2 -0.8
v 0.3 2 -0.8
v 0.6 2 -0.8
v 0.7 2 -0.8
v 0.2 2 -1
v 0.3 2 -1
v 0.6 2 -1
v 0.7 2 -1
v 0.4 2 -1.2
v 0.5 2 -1.2
v 0.3 2 -1.3
v 0.4 2 -1.3
v 0.5 2 -1.3
v 0.2 2 -1.4
v 0.3 2 -1.4
v 0.3 2 -1.5
v 0.4 2 -1.5
v 0.2 2 -1.7
v 0.3 2 -1.7
v 0.3 2.1 -0.9
v 0.6 2.1 -0.9
v 0.2 2.1 -1
v 0.3 2.1 -1
v 0.6 2.1 -1
v 0.7 2.1 -1
v 0.2 2.1 -1.1
v 0.4 2.1 -1.1
v 0.5 2.1 -1.1
v 0.7 2.1 -1.1
v 0.4 2.1 -1.2
v 0.5 2.1 -1.2
v 0.3 2.2 -0.6
v 0.6 2.2 -0.6
v 0.3 2.2 -0.9
v 0.6 2.2 -0.9
v 0.2 2.3 -0.5
v 0.3 2.3 -0.5
v 0.6 2.3 -0.5
v 0.7 2.3 -0.5
v 0.2 2.3 -0.6
v 0.3 2.3 -0.6
v 0.6 2.3 -0.6
v 0.7 2.3 -0.6
v 0.3 2.3 -0.9
v 0.6 2.3 -0.9
v 0.3 2.3 -1
v 0.6 2.3 -1
v 0.4 2.4 -0.2
v 0.5 2.4 -0.2
v 0.3 2.4 -0.3
v 0.4 2.4 -0.3
v 0.5 2.4 -0.3
v 0.6 2.4 -0.3
v 0.3 2.4 -0.4
v 0.6 2.4 -0.4
v 0.3 2.4 -0.5
v 0.6 2.4 -0.5
v 0.4 2.4 -0.7
v 0.5 2.4 -0.7
v 0.4 2.4 -0.9
v 0.5 2.4 -0.9
v 0.4 2.5 0
v 0.5 2.5 0
v 0.3 2.5 -0.1
v 0.4 2.5 -0.1
v 0.5 2.5 -0.1
v 0.6 2.5 -0.1
v 0.4 2.5 -0.2
v 0.5 2.5 -0.2
v 0.3 2.5 -0.3
v 0.4 2.5 -0.3
v 0.5 2.5 -0.3
v 0.6 2.5 -0.3
v 0.2 2.6 -0.2
v 0.3 2.6 -0.2
v 0.6 2.6 -0.2
v 0.7 2.6 -0.2
v 0.2 2.6 -0.3
v 0.3 2.6 -0.3
v 0.6 2.6 -0.3
v 0.7 2.6 -0.3
v 0.2 2.7 -0.3
v 0.3 2.7 -0.3
v 0.6 2.7 -0.3
v 0.7 2.7 -0.3
v 0.2 2.7 -0.4
v 0.3 2.7 -0.4
v 0.6 2.7 -0.4
v 0.7 2.7 -0.4
v 0.2 2.1 -0.3
v 0.3 2.1 -0.3
v 0.6 2.1 -0.3
v 0.7 2.1 -0.3
v 0.2 2.1 -0.4
v 0.3 2.1 -0.4
v 0.6 2.1 -0.4
v 0.7 2.1 -0.4
v 0.2 2.1 -0.8
v 0.3 2.1 -0.8
v 0.6 2.1 -0.8
v 0.7 2.1 -0.8
v 0.2 2.1 -0.9
v 0.3 2.1 -0.9
v 0.6 2.1 -0.9
v 0.7 2.1 -0.9
v 0.3 2.1 -1.3
v 0.4 2.1 -1.3
v 0.2 2.1 -1.4
v 0.3 2.1 -1.4
v 0.3 2.1 -1.5
v 0.4 2.1 -1.5
v 0.2 2.1 -1.7
v 0.3 2.1 -1.7
v 0.3 2.2 -0.9
v 0.6 2.2 -0.9
v 0.3 2.2 -1
v 0.6 2.2 -1
v 0.4 2.2 -1.1
v 0.5 2.2 -1.1
v 0.4 2.2 -1.2
v 0.5 2.2 -1.2
v 0.4 2.2 -1.3
v 0.5 2.2 -1.3
v 0.4 2.3 -0.7
v 0.5 2.3 -0.7
v 0.2 2.3 -0.9
v 0.3 2.3 -0.9
v 0.4 2.3 -0.9
v 0.5 2.3 -0.9
v 0.6 2.3 -0.9
v 0.7 2.3 -0.9
v 0.3 2.3 -1
v 0.6 2.3 -1
v 0.2 2.3 -1.1
v 0.7 2.3 -1.1
v 0.3 2.4 -0.9
v 0.6 2.4 -0.9
v 0.3 2.4 -1
v 0.6 2.4 -1
v 0.3 2.5 -0.7
v 0.6 2.5 -0.7
v 0.3 2.5 -0.9
v 0.6 2.5 -0.9
v 0.4 2.6 0
v 0.5 2.6 0
v 0.4 2.6 -0.1
v 0.5 2.6 -0.1
v 0.2 2.6 -0.4
v 0.3 2.6 -0.4
v 0.6 2.6 -0.4
v 0.7 2.6 -0.4
v 0.2 2.6 -0.6
v 0.3 2.6 -0.6
v 0.6 2.6 -0.6
v 0.7 2.6 -0.6
v 0.3 2.6 -0.7
v 0.6 2.6 -0.7
v 0.3 2.7 -0.1
v 0.6 2.7 -0.1
v 0.2 2.7 -0.2
v 0.3 2.7 -0.2
v 0.6 2.7 -0.2
v 0.7 2.7 -0.2
v 0.2 2.7 -0.3
v 0.3 2.7 -0.3
v 0.6 2.7 -0.3
v 0.7 2.7 -0.3
v 0.3 2.7 -0.4
v 0.6 2.7 -0.4
v 0.3 2.7 -0.6
v 0.6 2.7 -0.6
v 0.3 2.8 -0.2
v 0.6 2.8 -0.2
v 0.3 2.8 -0.3
v 0.6 2.8 -0.3
v 0.3 2.8 -0.4
v 0.6 2.8 -0.4
v 0.2 2.9 -0.3
v 0.3 2.9 -0.3
v 0.6 2.9 -0.3
v 0.7 2.9 -0.3
v 0.2 2.9 -0.4
v 0.3 2.9 -0.4
v 0.6 2.9 -0.4
v 0.7 2.9 -0.4

# faces
f 7/1/1 2/1/1 1/1/1
f 8/1/1 2/1/1 7/1/1
f 9/1/1 2/1/1 8/1/1
f 10/1/1 4/1/1 3/1/1
f 11/1/1 4/1/1 10/1/1
f 12/1/1 4/1/1 11/1/1
f 14/1/1 6/1/1 5/1/1
f 15/1/1 6/1/1 14/1/1
f 16/2/1 9/2/1 8/2/1
f 18/2/1 13/2/1 12/2/1
f 18/2/1 12/2/1 11/2/1
f 19/2/1 13/2/1 18/2/1
f 22/2/1 17/2/1 16/2/1
f 22/2/1 16/2/1 8/2/1
f 23/2/1 17/2/1 22/2/1
f 24/3/1 21/3/1 20/3/1
f 25/3/1 21/3/1 24/3/1
f 27/1/1 26/1/1 25/1/1
f 28/1/1 26/1/1 27/1/1
f 31/1/1 30/1/1 29/1/1
f 32/1/1 30/1/1 31/1/1
f 35/2/1 34/2/1 33/2/1
f 36/2/1 34/2/1 35/2/1
f 40/2/1 36/2/1 35/2/1
f 40/2/1 37/2/1 36/2/1
f 41/2/1 37/2/1 40/2/1
f 43/2/1 39/2/1 38/2/1
f 44/2/1 40/2/1 35/2/1
f 45/2/1 40/2/1 44/2/1
f 46/2/1 43/2/1 42/2/1
f 47/2/1 39/2/1 43/2/1
f 47/2/1 43/2/1 46/2/1
f 48/2/1 39/2/1 47/2/1
f 49/2/1 44/2/1 35/2/1
f 50/2/1 44/2/1 49/2/1
f 51/2/1 46/2/1 42/2/1
f 52/2/1 46/2/1 51/2/1
f 53/2/1 48/2/1 47/2/1
f 53/2/1 49/2/1 48/2/1
f 54/2/1 49/2/1 53/2/1
f 55/2/1 49/2/1 54/2/1
f 56/2/1 53/2/1 52/2/1
f 57/2/1 53/2/1 56/2/1
f 61/1/1 59/1/1 58/1/1
f 62/1/1 59/1/1 61/1/1
f 63/2/1 61/2/1 60/2/1
f 64/1/1 62/1/1 61/1/1
f 64/2/1 61/2/1 63/2/1
f 65/1/1 62/1/1 64/1/1
f 70/2/1 67/2/1 66/2/1
f 71/2/1 67/2/1 70/2/1
f 72/1/1 69/1/1 68/1/1
f 73/1/1 69/1/1 72/1/1
f 76/2/1 75/2/1 74/2/1
f 77/2/1 75/2/1 76/2/1
f 82/1/1 79/1/1 78/1/1
f 83/1/1 79/1/1 82/1/1
f 84/1/1 79/1/1 83/1/1
f 85/1/1 81/1/1 80/1/1
f 86/1/1 81/1/1 85/1/1
f 87/1/1 81/1/1 86/1/1
f 90/2/1 84/2/1 83/2/1
f 91/2/1 89/2/1 88/2/1
f 92/2/1 89/2/1 91/2/1
f 93/2/1 90/2/1 83/2/1
f 94/2/1 90/2/1 93/2/1
f 97/1/1 96/1/1 95/1/1
f 98/1/1 96/1/1 97/1/1
f 99/1/2 100/1/2 105/1/2
f 105/1/2 100/1/2 106/1/2
f 106/1/2 100/1/2 107/1/2
f 101/1/2 102/1/2 108/1/2
f 108/1/2 102/1/2 109/1/2
f 109/1/2 102/1/2 110/1/2
f 103/1/2 104/1/2 111/1/2
f 111/1/2 104/1/2 112/1/2
f 106/2/2 107/2/2 115/2/2
f 113/2/2 114/2/2 116/2/2
f 116/2/2 114/2/2 117/2/2
f 106/2/2 115/2/2 118/2/2
f 118/2/2 115/2/2 119/2/2
f 120/1/2 121/1/2 122/1/2
f 122/1/2 121/1/2 123/1/2
f 124/1/2 125/1/2 126/1/2
f 126/1/2 125/1/2 127/1/2
f 128/2/2 129/2/2 130/2/2
f 130/2/2 129/2/2 131/2/2
f 132/1/2 133/1/2 135/1/2
f 134/2/2 135/2/2 136/2/2
f 135/1/2 133/1/2 137/1/2
f 136/2/2 135/2/2 137/2/2
f 137/1/2 133/1/2 138/1/2
f 139/2/2 140/2/2 143/2/2
f 143/2/2 140/2/2 144/2/2
f 141/1/2 142/1/2 145/1/2
f 145/1/2 142/1/2 146/1/2
f 147/2/2 148/2/2 149/2/2
f 149/2/2 148/2/2 150/2/2
f 149/2/2 150/2/2 154/2/2
f 150/2/2 151/2/2 154/2/2
f 154/2/2 151/2/2 155/2/2
f 152/2/2 153/2/2 157/2/2
f 149/2/2 154/2/2 158/2/2
f 158/2/2 154/2/2 159/2/2
f 156/2/2 157/2/2 160/2/2
f 157/2/2 153/2/2 161/2/2
f 160/2/2 157/2/2 161/2/2
f 161/2/2 153/2/2 162/2/2
f 149/2/2 158/2/2 163/2/2
f 163/2/2 158/2/2 164/2/2
f 156/2/2 160/2/2 165/2/2
f 165/2/2 160/2/2 166/2/2
f 161/2/2 162/2/2 167/2/2
f 162/2/2 163/2/2 167/2/2
f 167/2/2 163/2/2 168/2/2
f 168/2/2 163/2/2 169/2/2
f 166/2/2 167/2/2 170/2/2
f 170/2/2 167/2/2 171/2/2
f 172/1/2 173/1/2 176/1/2
f 176/1/2 173/1/2 177/1/2
f 177/1/2 173/1/2 178/1/2
f 174/1/2 175/1/2 179/1/2
f 179/1/2 175/1/2 180/1/2
f 180/1/2 175/1/2 181/1/2
f 177/2/2 178/2/2 183/2/2
f 181/2/2 182/2/2 185/2/2
f 180/2/2 181/2/2 185/2/2
f 185/2/2 182/2/2 186/2/2
f 183/2/2 184/2/2 189/2/2
f 177/2/2 183/2/2 189/2/2
f 189/2/2 184/2/2 190/2/2
f 187/3/2 188/3/2 191/3/2
f 191/3/2 188/3/2 192/3/2
f 192/1/2 193/1/2 194/1/2
f 194/1/2 193/1/2 195/1/2
f 198/1/3 197/1/3 196/1/3
f 199/1/3 197/1/3 198/1/3
f 202/2/3 201/2/3 200/2/3
f 203/2/3 201/2/3 202/2/3
f 205/2/3 201/2/3 203/2/3
f 206/2/3 205/2/3 204/2/3
f 207/2/3 201/2/3 205/2/3
f 207/2/3 205/2/3 206/2/3
f 210/3/3 209/3/3 208/3/3
f 211/3/3 209/3/3 210/3/3
f 215/2/3 214/2/3 213/2/3
f 216/2/3 214/2/3 215/2/3
f 218/2/3 212/2/3 211/2/3
f 219/2/3 212/2/3 218/2/3
f 220/3/3 218/3/3 217/3/3
f 221/3/3 218/3/3 220/3/3
f 226/1/3 223/1/3 222/1/3
f 227/1/3 223/1/3 226/1/3
f 230/1/3 225/1/3 224/1/3
f 231/1/3 225/1/3 230/1/3
f 232/1/3 225/1/3 231/1/3
f 233/2/3 229/2/3 228/2/3
f 234/2/3 229/2/3 233/2/3
f 239/2/3 236/2/3 235/2/3
f 240/2/3 236/2/3 239/2/3
f 244/1/3 238/1/3 237/1/3
f 245/1/3 238/1/3 244/1/3
f 246/1/3 243/1/3 242/1/3
f 246/1/3 242/1/3 241/1/3
f 247/1/3 243/1/3 246/1/3
f 250/2/3 249/2/3 248/2/3
f 251/2/3 249/2/3 250/2/3
f 252/2/3 249/2/3 251/2/3
f 256/2/3 254/2/3 253/2/3
f 256/2/3 255/2/3 254/2/3
f 257/2/3 255/2/3 256/2/3
f 260/2/3 259/2/3 258/2/3
f 261/2/3 259/2/3 260/2/3
f 264/2/3 263/2/3 262/2/3
f 265/2/3 263/2/3 264/2/3
f 268/1/3 267/1/3 266/1/3
f 269/1/3 267/1/3 268/1/3
f 272/1/3 271/1/3 270/1/3
f 273/1/3 271/1/3 272/1/3
f 276/2/3 275/2/3 274/2/3
f 277/2/3 275/2/3 276/2/3
f 278/2/3 275/2/3 277/2/3
f 281/2/3 280/2/3 279/2/3
f 282/2/3 280/2/3 281/2/3
f 283/2/3 277/2/3 276/2/3
f 284/2/3 277/2/3 283/2/3
f 286/2/3 284/2/3 283/2/3
f 286/2/3 285/2/3 284/2/3
f 287/2/3 285/2/3 286/2/3
f 290/2/3 289/2/3 288/2/3
f 291/2/3 289/2/3 290/2/3
f 294/1/3 293/1/3 292/1/3
f 295/1/3 293/1/3 294/1/3
f 298/1/3 297/1/3 296/1/3
f 299/1/3 297/1/3 298/1/3
f 302/1/3 301/1/3 300/1/3
f 303/1/3 301/1/3 302/1/3
f 304/3/4 305/3/4 306/3/4
f 306/3/4 305/3/4 307/3/4
f 308/3/4 309/3/4 310/3/4
f 310/3/4 309/3/4 311/3/4
f 312/1/4 313/1/4 314/1/4
f 314/1/4 313/1/4 315/1/4
f 315/1/4 313/1/4 316/1/4
f 314/2/4 315/2/4 317/2/4
f 317/2/4 315/2/4 318/2/4
f 317/1/4 318/1/4 320/1/4
f 318/1/4 319/1/4 320/1/4
f 320/1/4 319/1/4 321/1/4
f 322/1/4 323/1/4 325/1/4
f 323/2/4 324/2/4 326/2/4
f 325/1/4 323/1/4 326/1/4
f 326/2/4 324/2/4 327/2/4
f 328/1/4 329/1/4 331/1/4
f 329/2/4 330/2/4 332/2/4
f 331/1/4 329/1/4 332/1/4
f 332/2/4 330/2/4 333/2/4
f 334/2/4 335/2/4 336/2/4
f 336/2/4 335/2/4 337/2/4
f 337/2/4 338/2/4 340/2/4
f 340/2/4 338/2/4 341/2/4
f 339/2/4 340/2/4 342/2/4
f 342/2/4 340/2/4 343/2/4
f 346/2/4 347/2/4 348/2/4
f 348/2/4 347/2/4 349/2/4
f 344/2/4 345/2/4 350/2/4
f 350/2/4 345/2/4 351/2/4
f 352/2/4 353/2/4 356/2/4
f 356/2/4 353/2/4 357/2/4
f 354/2/4 355/2/4 358/2/4
f 358/2/4 355/2/4 359/2/4
f 360/1/4 361/1/4 362/1/4
f 362/1/4 361/1/4 363/1/4
f 364/2/4 365/2/4 368/2/4
f 368/2/4 365/2/4 369/2/4
f 366/1/4 367/1/4 370/1/4
f 370/1/4 367/1/4 371/1/4
f 372/2/4 373/2/4 374/2/4
f 374/2/4 373/2/4 375/2/4
f 375/2/4 373/2/4 377/2/4
f 376/2/4 377/2/4 378/2/4
f 377/2/4 373/2/4 379/2/4
f 378/2/4 377/2/4 379/2/4
f 380/1/4 381/1/4 383/1/4
f 381/1/4 382/1/4 383/1/4
f 383/1/4 382/1/4 384/1/4
f 385/1/4 386/1/4 387/1/4
f 387/1/4 386/1/4 388/1/4
f 389/1/4 390/1/4 391/1/4
f 391/1/4 390/1/4 392/1/4
f 397/1/5 394/1/5 393/1/5
f 398/1/5 394/1/5 397/1/5
f 399/1/5 396/1/5 395/1/5
f 400/1/5 396/1/5 399/1/5
f 405/1/5 402/1/5 401/1/5
f 406/1/5 402/1/5 405/1/5
f 407/1/5 404/1/5 403/1/5
f 408/1/5 404/1/5 407/1/5
f 412/1/5 410/1/5 409/1/5
f 413/1/5 410/1/5 412/1/5
f 415/1/5 412/1/5 411/1/5
f 416/1/5 412/1/5 415/1/5
f 416/1/5 415/1/5 414/1/5
f 417/1/5 412/1/5 416/1/5
f 418/1/5 416/1/5 414/1/5
f 419/1/5 416/1/5 418/1/5
f 423/2/5 421/2/5 420/2/5
f 424/2/5 421/2/5 423/2/5
f 426/2/5 423/2/5 422/2/5
f 426/2/5 425/2/5 424/2/5
f 426/2/5 424/2/5 423/2/5
f 427/2/5 425/2/5 426/2/5
f 428/2/5 425/2/5 427/2/5
f 429/2/5 425/2/5 428/2/5
f 430/2/5 428/2/5 427/2/5
f 431/2/5 428/2/5 430/2/5
f 434/2/5 433/2/5 432/2/5
f 435/2/5 433/2/5 434/2/5
f 440/2/5 437/2/5 436/2/5
f 440/2/5 439/2/5 438/2/5
f 440/2/5 438/2/5 437/2/5
f 441/2/5 439/2/5 440/2/5
f 442/2/5 439/2/5 441/2/5
f 443/2/5 439/2/5 442/2/5
f 446/2/5 445/2/5 444/2/5
f 447/2/5 445/2/5 446/2/5
f 451/2/5 449/2/5 448/2/5
f 452/2/5 449/2/5 451/2/5
f 454/2/5 451/2/5 450/2/5
f 454/2/5 453/2/5 452/2/5
f 454/2/5 452/2/5 451/2/5
f 455/2/5 453/2/5 454/2/5
f 456/2/5 455/2/5 454/2/5
f 457/2/5 455/2/5 456/2/5
f 460/2/5 459/2/5 458/2/5
f 461/2/5 459/2/5 460/2/5
f 465/1/5 463/1/5 462/1/5
f 466/1/5 463/1/5 465/1/5
f 468/2/5 465/2/5 464/2/5
f 468/2/5 467/2/5 466/2/5
f 468/2/5 466/2/5 465/2/5
f 469/2/5 467/2/5 468/2/5
f 470/2/5 468/2/5 464/2/5
f 471/2/5 468/2/5 470/2/5
f 472/2/5 467/2/5 469/2/5
f 473/2/5 467/2/5 472/2/5
f 478/3/5 475/3/5 474/3/5
f 479/3/5 475/3/5 478/3/5
f 480/3/5 477/3/5 476/3/5
f 481/3/5 477/3/5 480/3/5
f 486/1/5 483/1/5 482/1/5
f 487/1/5 483/1/5 486/1/5
f 488/1/5 485/1/5 484/1/5
f 489/1/5 485/1/5 488/1/5
f 490/1/6 491/1/6 494/1/6
f 494/1/6 491/1/6 495/1/6
f 492/1/6 493/1/6 496/1/6
f 496/1/6 493/1/6 497/1/6
f 498/1/6 499/1/6 502/1/6
f 502/1/6 499/1/6 503/1/6
f 500/1/6 501/1/6 504/1/6
f 504/1/6 501/1/6 505/1/6
f 506/1/6 507/1/6 509/1/6
f 509/1/6 507/1/6 510/1/6
f 508/1/6 509/1/6 510/1/6
f 510/1/6 507/1/6 511/1/6
f 508/1/6 510/1/6 512/1/6
f 512/1/6 510/1/6 513/1/6
f 514/2/6 515/2/6 516/2/6
f 516/2/6 515/2/6 517/2/6
f 518/2/6 519/2/6 520/2/6
f 520/2/6 519/2/6 521/2/6
f 520/1/6 521/1/6 522/1/6
f 522/1/6 521/1/6 523/1/6
f 524/2/6 525/2/6 528/2/6
f 528/2/6 525/2/6 529/2/6
f 526/2/6 527/2/6 532/2/6
f 530/2/6 531/2/6 533/2/6
f 526/2/6 532/2/6 534/2/6
f 532/2/6 533/2/6 534/2/6
f 533/2/6 531/2/6 535/2/6
f 534/2/6 533/2/6 535/2/6
f 536/2/6 537/2/6 538/2/6
f 538/2/6 537/2/6 539/2/6
f 540/2/6 541/2/6 542/2/6
f 542/2/6 541/2/6 543/2/6
f 544/1/6 545/1/6 546/1/6
f 546/1/6 545/1/6 547/1/6
f 548/2/6 549/2/6 552/2/6
f 552/2/6 549/2/6 553/2/6
f 550/2/6 551/2/6 554/2/6
f 554/2/6 551/2/6 555/2/6
f 553/2/6 554/2/6 556/2/6
f 556/2/6 554/2/6 557/2/6
f 558/2/6 559/2/6 561/2/6
f 561/2/6 559/2/6 562/2/6
f 560/3/6 561/3/6 564/3/6
f 564/3/6 561/3/6 565/3/6
f 562/3/6 563/3/6 566/3/6
f 566/3/6 563/3/6 567/3/6
f 568/2/6 569/2/6 570/2/6
f 570/2/6 569/2/6 571/2/6
f 572/2/6 573/2/6 574/2/6
f 574/2/6 573/2/6 575/2/6
f 574/2/6 575/2/6 576/2/6
f 576/2/6 575/2/6 577/2/6
f 578/1/6 579/1/6 582/1/6
f 582/1/6 579/1/6 583/1/6
f 580/1/6 581/1/6 584/1/6
f 584/1/6 581/1/6 585/1/6
