# MagicaVoxel @ Ephtracy

# group
o 

# material
mtllib Street T.mtl
usemtl palette

# normals
vn -1 0 0
vn 1 0 0
vn 0 0 1
vn 0 0 -1
vn 0 -1 0
vn 0 1 0

# texcoords
vt 0.958984 0.5
vt 0.978516 0.5
vt 0.982422 0.5
vt 0.986328 0.5

# verts
v 0 2 0
v 0 2 -1.9
v 0 2 -2.2
v 0 2 -4
v 0 2.2 0
v 0 2.2 -0.4
v 0 2.2 -0.6
v 0 2.2 -1.9
v 0 2.2 -2.2
v 0 2.2 -3.4
v 0 2.2 -3.6
v 0 2.2 -4
v 0 2.4 0
v 0 2.4 -0.4
v 0 2.4 -0.6
v 0 2.4 -3.4
v 0 2.4 -3.6
v 0 2.4 -4
v 3.4 2.2 -3.4
v 3.4 2.2 -4
v 3.4 2.4 -3.4
v 3.4 2.4 -4
v 0.6 2.2 -3.4
v 0.6 2.2 -4
v 0.6 2.4 -3.4
v 0.6 2.4 -4
v 4 2 0
v 4 2 -1.9
v 4 2 -2.2
v 4 2 -4
v 4 2.2 0
v 4 2.2 -0.4
v 4 2.2 -0.6
v 4 2.2 -1.9
v 4 2.2 -2.2
v 4 2.2 -3.4
v 4 2.2 -3.6
v 4 2.2 -4
v 4 2.4 0
v 4 2.4 -0.4
v 4 2.4 -0.6
v 4 2.4 -3.4
v 4 2.4 -3.6
v 4 2.4 -4
v 0 2 0
v 0 2.2 0
v 0 2.4 0
v 0.4 2.2 0
v 0.4 2.3 0
v 0.6 2.2 0
v 0.6 2.3 0
v 1.9 2 0
v 1.9 2.1 0
v 2.2 2 0
v 2.2 2.1 0
v 3.4 2.2 0
v 3.4 2.3 0
v 3.6 2.2 0
v 3.6 2.3 0
v 4 2 0
v 4 2.2 0
v 4 2.4 0
v 0 2.2 -3.4
v 0 2.4 -3.4
v 0.6 2.2 -3.4
v 0.6 2.4 -3.4
v 3.4 2.2 -3.4
v 3.4 2.4 -3.4
v 4 2.2 -3.4
v 4 2.4 -3.4
v 0 2.2 -0.6
v 0 2.4 -0.6
v 4 2.2 -0.6
v 4 2.4 -0.6
v 0 2 -4
v 0 2.2 -4
v 0 2.4 -4
v 0.4 2.2 -4
v 0.4 2.4 -4
v 0.6 2.2 -4
v 0.6 2.4 -4
v 1.9 2 -4
v 1.9 2.1 -4
v 2.2 2 -4
v 2.2 2.1 -4
v 3.4 2.2 -4
v 3.4 2.4 -4
v 3.6 2.2 -4
v 3.6 2.4 -4
v 4 2 -4
v 4 2.2 -4
v 4 2.4 -4
v 0 2 0
v 1.9 2 0
v 2.2 2 0
v 4 2 0
v 1.8 2 -1.8
v 1.9 2 -1.8
v 2.2 2 -1.8
v 2.3 2 -1.8
v 0 2 -1.9
v 0.2 2 -1.9
v 0.4 2 -1.9
v 1 2 -1.9
v 1.2 2 -1.9
v 1.8 2 -1.9
v 2.3 2 -1.9
v 2.8 2 -1.9
v 3 2 -1.9
v 3.6 2 -1.9
v 3.8 2 -1.9
v 4 2 -1.9
v 0 2 -2.2
v 0.2 2 -2.2
v 0.4 2 -2.2
v 1 2 -2.2
v 1.2 2 -2.2
v 1.9 2 -2.2
v 2.2 2 -2.2
v 2.8 2 -2.2
v 3 2 -2.2
v 3.6 2 -2.2
v 3.8 2 -2.2
v 4 2 -2.2
v 0 2 -4
v 1.9 2 -4
v 2.2 2 -4
v 4 2 -4
v 0 2.2 -0.6
v 4 2.2 -0.6
v 0 2.2 -1.9
v 0.2 2.2 -1.9
v 0.4 2.2 -1.9
v 1 2.2 -1.9
v 1.3 2.2 -1.9
v 1.6 2.2 -1.9
v 1.7 2.2 -1.9
v 2.3 2.2 -1.9
v 2.4 2.2 -1.9
v 2.8 2.2 -1.9
v 3 2.2 -1.9
v 3.6 2.2 -1.9
v 3.8 2.2 -1.9
v 4 2.2 -1.9
v 0 2.2 -2.2
v 0.2 2.2 -2.2
v 0.4 2.2 -2.2
v 1 2.2 -2.2
v 1.3 2.2 -2.2
v 1.6 2.2 -2.2
v 1.7 2.2 -2.2
v 1.9 2.2 -2.2
v 2.2 2.2 -2.2
v 2.3 2.2 -2.2
v 2.4 2.2 -2.2
v 2.8 2.2 -2.2
v 3 2.2 -2.2
v 3.6 2.2 -2.2
v 3.8 2.2 -2.2
v 4 2.2 -2.2
v 1.9 2.2 -2.4
v 2.2 2.2 -2.4
v 1.9 2.2 -2.6
v 2.2 2.2 -2.6
v 1.9 2.2 -3.1
v 2.2 2.2 -3.1
v 0 2.2 -3.4
v 0.6 2.2 -3.4
v 1.9 2.2 -3.4
v 2.2 2.2 -3.4
v 3.4 2.2 -3.4
v 4 2.2 -3.4
v 1.9 2.2 -3.9
v 2.2 2.2 -3.9
v 0.6 2.2 -4
v 3.4 2.2 -4
v 0 2.4 0
v 4 2.4 0
v 0 2.4 -0.4
v 4 2.4 -0.4
v 0 2.4 -0.6
v 4 2.4 -0.6
v 0 2.4 -3.4
v 0.6 2.4 -3.4
v 3.4 2.4 -3.4
v 4 2.4 -3.4
v 0 2.4 -3.6
v 0.4 2.4 -3.6
v 3.6 2.4 -3.6
v 4 2.4 -3.6
v 0 2.4 -4
v 0.4 2.4 -4
v 0.6 2.4 -4
v 3.4 2.4 -4
v 3.6 2.4 -4
v 4 2.4 -4

# faces
f 5/2/1 2/2/1 1/2/1
f 6/2/1 2/2/1 5/2/1
f 7/2/1 2/2/1 6/2/1
f 8/1/1 3/1/1 2/1/1
f 8/2/1 2/2/1 7/2/1
f 9/2/1 4/2/1 3/2/1
f 9/1/1 3/1/1 8/1/1
f 10/2/1 4/2/1 9/2/1
f 11/2/1 4/2/1 10/2/1
f 12/2/1 4/2/1 11/2/1
f 13/3/1 6/3/1 5/3/1
f 14/4/1 7/4/1 6/4/1
f 14/3/1 6/3/1 13/3/1
f 15/4/1 7/4/1 14/4/1
f 16/4/1 11/4/1 10/4/1
f 17/3/1 12/3/1 11/3/1
f 17/4/1 11/4/1 16/4/1
f 18/3/1 12/3/1 17/3/1
f 21/4/1 20/4/1 19/4/1
f 22/4/1 20/4/1 21/4/1
f 23/4/2 24/4/2 25/4/2
f 25/4/2 24/4/2 26/4/2
f 27/2/2 28/2/2 31/2/2
f 31/2/2 28/2/2 32/2/2
f 32/2/2 28/2/2 33/2/2
f 28/1/2 29/1/2 34/1/2
f 33/2/2 28/2/2 34/2/2
f 29/2/2 30/2/2 35/2/2
f 34/1/2 29/1/2 35/1/2
f 35/2/2 30/2/2 36/2/2
f 36/2/2 30/2/2 37/2/2
f 37/2/2 30/2/2 38/2/2
f 31/3/2 32/3/2 39/3/2
f 32/4/2 33/4/2 40/4/2
f 39/3/2 32/3/2 40/3/2
f 40/4/2 33/4/2 41/4/2
f 36/4/2 37/4/2 42/4/2
f 37/3/2 38/3/2 43/3/2
f 42/4/2 37/4/2 43/4/2
f 43/3/2 38/3/2 44/3/2
f 48/2/3 46/2/3 45/2/3
f 48/3/3 47/3/3 46/3/3
f 49/3/3 47/3/3 48/3/3
f 50/2/3 48/2/3 45/2/3
f 50/4/3 49/4/3 48/4/3
f 51/3/3 47/3/3 49/3/3
f 51/4/3 49/4/3 50/4/3
f 52/2/3 50/2/3 45/2/3
f 53/2/3 50/2/3 52/2/3
f 54/1/3 53/1/3 52/1/3
f 55/2/3 50/2/3 53/2/3
f 55/1/3 53/1/3 54/1/3
f 56/3/3 51/3/3 50/3/3
f 56/2/3 50/2/3 55/2/3
f 56/2/3 55/2/3 54/2/3
f 57/3/3 47/3/3 51/3/3
f 57/3/3 51/3/3 56/3/3
f 58/2/3 56/2/3 54/2/3
f 58/4/3 57/4/3 56/4/3
f 59/3/3 47/3/3 57/3/3
f 59/4/3 57/4/3 58/4/3
f 60/2/3 58/2/3 54/2/3
f 61/3/3 59/3/3 58/3/3
f 61/2/3 58/2/3 60/2/3
f 62/3/3 47/3/3 59/3/3
f 62/3/3 59/3/3 61/3/3
f 65/4/3 64/4/3 63/4/3
f 66/4/3 64/4/3 65/4/3
f 69/4/3 68/4/3 67/4/3
f 70/4/3 68/4/3 69/4/3
f 71/4/4 72/4/4 73/4/4
f 73/4/4 72/4/4 74/4/4
f 75/2/4 76/2/4 78/2/4
f 76/3/4 77/3/4 78/3/4
f 78/3/4 77/3/4 79/3/4
f 75/2/4 78/2/4 80/2/4
f 78/4/4 79/4/4 80/4/4
f 80/4/4 79/4/4 81/4/4
f 75/2/4 80/2/4 82/2/4
f 82/2/4 80/2/4 83/2/4
f 82/1/4 83/1/4 84/1/4
f 83/2/4 80/2/4 85/2/4
f 84/1/4 83/1/4 85/1/4
f 84/2/4 85/2/4 86/2/4
f 85/2/4 80/2/4 86/2/4
f 84/2/4 86/2/4 88/2/4
f 86/4/4 87/4/4 88/4/4
f 88/4/4 87/4/4 89/4/4
f 84/2/4 88/2/4 90/2/4
f 88/3/4 89/3/4 91/3/4
f 90/2/4 88/2/4 91/2/4
f 91/3/4 89/3/4 92/3/4
f 97/2/5 94/2/5 93/2/5
f 98/1/5 95/1/5 94/1/5
f 98/2/5 94/2/5 97/2/5
f 99/2/5 96/2/5 95/2/5
f 99/1/5 95/1/5 98/1/5
f 100/2/5 96/2/5 99/2/5
f 101/2/5 97/2/5 93/2/5
f 102/2/5 97/2/5 101/2/5
f 103/2/5 97/2/5 102/2/5
f 104/2/5 97/2/5 103/2/5
f 105/2/5 97/2/5 104/2/5
f 106/1/5 98/1/5 97/1/5
f 106/2/5 97/2/5 105/2/5
f 106/1/5 99/1/5 98/1/5
f 106/1/5 100/1/5 99/1/5
f 107/2/5 96/2/5 100/2/5
f 107/1/5 100/1/5 106/1/5
f 108/2/5 96/2/5 107/2/5
f 109/2/5 96/2/5 108/2/5
f 110/2/5 96/2/5 109/2/5
f 111/2/5 96/2/5 110/2/5
f 112/2/5 96/2/5 111/2/5
f 113/1/5 102/1/5 101/1/5
f 114/2/5 103/2/5 102/2/5
f 114/1/5 102/1/5 113/1/5
f 115/1/5 104/1/5 103/1/5
f 115/2/5 103/2/5 114/2/5
f 116/2/5 105/2/5 104/2/5
f 116/1/5 104/1/5 115/1/5
f 117/1/5 106/1/5 105/1/5
f 117/2/5 105/2/5 116/2/5
f 117/1/5 107/1/5 106/1/5
f 117/1/5 108/1/5 107/1/5
f 118/1/5 108/1/5 117/1/5
f 119/1/5 108/1/5 118/1/5
f 120/2/5 109/2/5 108/2/5
f 120/1/5 108/1/5 119/1/5
f 121/1/5 110/1/5 109/1/5
f 121/2/5 109/2/5 120/2/5
f 122/2/5 111/2/5 110/2/5
f 122/1/5 110/1/5 121/1/5
f 123/1/5 112/1/5 111/1/5
f 123/2/5 111/2/5 122/2/5
f 124/1/5 112/1/5 123/1/5
f 125/2/5 115/2/5 114/2/5
f 125/2/5 116/2/5 115/2/5
f 125/2/5 114/2/5 113/2/5
f 125/2/5 117/2/5 116/2/5
f 125/2/5 118/2/5 117/2/5
f 126/1/5 119/1/5 118/1/5
f 126/2/5 118/2/5 125/2/5
f 127/2/5 124/2/5 123/2/5
f 127/1/5 119/1/5 126/1/5
f 127/2/5 123/2/5 122/2/5
f 127/2/5 120/2/5 119/2/5
f 127/2/5 122/2/5 121/2/5
f 127/2/5 121/2/5 120/2/5
f 128/2/5 124/2/5 127/2/5
f 129/2/6 130/2/6 131/2/6
f 131/2/6 130/2/6 132/2/6
f 132/2/6 130/2/6 133/2/6
f 133/2/6 130/2/6 134/2/6
f 134/2/6 130/2/6 135/2/6
f 135/2/6 130/2/6 136/2/6
f 136/2/6 130/2/6 137/2/6
f 137/2/6 130/2/6 138/2/6
f 138/2/6 130/2/6 139/2/6
f 139/2/6 130/2/6 140/2/6
f 140/2/6 130/2/6 141/2/6
f 141/2/6 130/2/6 142/2/6
f 142/2/6 130/2/6 143/2/6
f 143/2/6 130/2/6 144/2/6
f 131/1/6 132/1/6 145/1/6
f 132/2/6 133/2/6 146/2/6
f 145/1/6 132/1/6 146/1/6
f 133/1/6 134/1/6 147/1/6
f 146/2/6 133/2/6 147/2/6
f 134/2/6 135/2/6 148/2/6
f 147/1/6 134/1/6 148/1/6
f 135/1/6 136/1/6 149/1/6
f 148/2/6 135/2/6 149/2/6
f 136/2/6 137/2/6 150/2/6
f 149/1/6 136/1/6 150/1/6
f 137/1/6 138/1/6 151/1/6
f 150/2/6 137/2/6 151/2/6
f 151/1/6 138/1/6 152/1/6
f 152/1/6 138/1/6 153/1/6
f 138/2/6 139/2/6 154/2/6
f 153/1/6 138/1/6 154/1/6
f 139/1/6 140/1/6 155/1/6
f 154/2/6 139/2/6 155/2/6
f 140/2/6 141/2/6 156/2/6
f 155/1/6 140/1/6 156/1/6
f 141/1/6 142/1/6 157/1/6
f 156/2/6 141/2/6 157/2/6
f 142/2/6 143/2/6 158/2/6
f 157/1/6 142/1/6 158/1/6
f 143/1/6 144/1/6 159/1/6
f 158/2/6 143/2/6 159/2/6
f 159/1/6 144/1/6 160/1/6
f 145/2/6 146/2/6 161/2/6
f 146/2/6 147/2/6 161/2/6
f 147/2/6 148/2/6 161/2/6
f 148/2/6 149/2/6 161/2/6
f 151/2/6 152/2/6 161/2/6
f 150/2/6 151/2/6 161/2/6
f 149/2/6 150/2/6 161/2/6
f 152/1/6 153/1/6 161/1/6
f 159/2/6 160/2/6 162/2/6
f 161/1/6 153/1/6 162/1/6
f 158/2/6 159/2/6 162/2/6
f 154/2/6 155/2/6 162/2/6
f 153/2/6 154/2/6 162/2/6
f 155/2/6 156/2/6 162/2/6
f 156/2/6 157/2/6 162/2/6
f 157/2/6 158/2/6 162/2/6
f 145/2/6 161/2/6 163/2/6
f 161/2/6 162/2/6 163/2/6
f 162/2/6 160/2/6 164/2/6
f 163/2/6 162/2/6 164/2/6
f 145/2/6 163/2/6 165/2/6
f 163/1/6 164/1/6 165/1/6
f 164/2/6 160/2/6 166/2/6
f 165/1/6 164/1/6 166/1/6
f 145/2/6 165/2/6 167/2/6
f 165/2/6 166/2/6 167/2/6
f 167/2/6 166/2/6 168/2/6
f 168/2/6 166/2/6 169/2/6
f 166/2/6 160/2/6 170/2/6
f 169/2/6 166/2/6 170/2/6
f 170/2/6 160/2/6 171/2/6
f 171/2/6 160/2/6 172/2/6
f 168/2/6 169/2/6 173/2/6
f 169/1/6 170/1/6 173/1/6
f 170/2/6 171/2/6 174/2/6
f 173/1/6 170/1/6 174/1/6
f 168/2/6 173/2/6 175/2/6
f 173/2/6 174/2/6 175/2/6
f 174/2/6 171/2/6 176/2/6
f 175/2/6 174/2/6 176/2/6
f 177/3/6 178/3/6 179/3/6
f 179/3/6 178/3/6 180/3/6
f 179/4/6 180/4/6 181/4/6
f 181/4/6 180/4/6 182/4/6
f 183/4/6 184/4/6 187/4/6
f 187/4/6 184/4/6 188/4/6
f 185/4/6 186/4/6 189/4/6
f 189/4/6 186/4/6 190/4/6
f 187/3/6 188/3/6 191/3/6
f 188/4/6 184/4/6 192/4/6
f 191/3/6 188/3/6 192/3/6
f 192/4/6 184/4/6 193/4/6
f 185/4/6 189/4/6 194/4/6
f 189/3/6 190/3/6 195/3/6
f 194/4/6 189/4/6 195/4/6
f 195/3/6 190/3/6 196/3/6
