# MagicaVoxel @ Ephtracy

# group
o 

# material
mtllib rat_walk_2.mtl
usemtl palette

# normals
vn -1 0 0
vn 1 0 0
vn 0 0 1
vn 0 0 -1
vn 0 -1 0
vn 0 1 0

# texcoords
vt 0.0292969 0.5
vt 0.982422 0.5
vt 0.994141 0.5

# verts
v 0 2 -0.6
v 0 2 -0.8
v 0 2.1 -0.5
v 0 2.1 -0.6
v 0 2.1 -0.8
v 0 2.1 -0.9
v 0 2.2 -0.5
v 0 2.2 -0.6
v 0 2.2 -0.8
v 0 2.2 -0.9
v 0 2.2 -1.1
v 0 2.3 -0.4
v 0 2.3 -0.5
v 0 2.5 -0.2
v 0 2.5 -0.3
v 0 2.5 -0.4
v 0 2.5 -0.6
v 0 2.5 -0.9
v 0 2.5 -1.1
v 0 2.6 -0.2
v 0 2.6 -0.3
v 0 2.7 -0.3
v 0 2.7 -0.4
v 0 2.9 -0.3
v 0 2.9 -0.4
v 0.1 2.3 -0.3
v 0.1 2.3 -0.4
v 0.1 2.3 -0.6
v 0.1 2.3 -0.9
v 0.1 2.4 -0.1
v 0.1 2.4 -0.3
v 0.1 2.5 -0.2
v 0.1 2.5 -0.3
v 0.1 2.5 -0.4
v 0.1 2.5 -0.6
v 0.1 2.5 -0.9
v 0.1 2.5 -1.1
v 0.1 2.6 -0.1
v 0.1 2.6 -0.2
v 0.1 2.6 -0.3
v 0.1 2.6 -0.4
v 0.1 2.6 -1.1
v 0.1 2.7 -0.2
v 0.1 2.7 -0.3
v 0.1 2.7 -0.4
v 0.2 2 -1.5
v 0.2 2 -1.7
v 0.2 2.1 -1.4
v 0.2 2.1 -1.5
v 0.2 2.1 -1.7
v 0.2 2.2 -1.3
v 0.2 2.2 -1.4
v 0.2 2.2 -1.5
v 0.2 2.3 -0.2
v 0.2 2.3 -0.3
v 0.2 2.3 -1.2
v 0.2 2.3 -1.3
v 0.2 2.3 -1.4
v 0.2 2.4 0
v 0.2 2.4 -0.1
v 0.2 2.4 -0.2
v 0.2 2.4 -0.3
v 0.2 2.4 -1.1
v 0.2 2.4 -1.2
v 0.2 2.4 -1.3
v 0.2 2.5 0
v 0.2 2.5 -0.1
v 0.2 2.5 -1.1
v 0.2 2.5 -1.2
v 0.3 2.4 -0.2
v 0.3 2.4 -0.3
v 0.3 2.4 -0.4
v 0.3 2.4 -0.6
v 0.3 2.4 -0.7
v 0.3 2.4 -0.8
v 0.3 2.4 -1
v 0.3 2.4 -1.1
v 0.3 2.5 -0.2
v 0.3 2.5 -0.3
v 0.3 2.5 -0.4
v 0.3 2.5 -0.6
v 0.3 2.5 -0.7
v 0.3 2.5 -0.8
v 0.3 2.5 -1
v 0.3 2.5 -1.1
v 0.4 2 -0.2
v 0.4 2 -0.3
v 0.4 2 -1.2
v 0.4 2 -1.3
v 0.4 2.1 -0.2
v 0.4 2.1 -0.3
v 0.4 2.1 -0.4
v 0.4 2.2 -0.3
v 0.4 2.2 -0.4
v 0.4 2.2 -0.5
v 0.4 2.2 -1.1
v 0.4 2.2 -1.2
v 0.4 2.2 -1.3
v 0.4 2.3 -0.4
v 0.4 2.3 -0.5
v 0.4 2.3 -1.1
v 0.4 2.3 -1.2
v 0.4 2.5 -0.2
v 0.4 2.5 -0.3
v 0.4 2.6 -0.2
v 0.4 2.6 -0.3
v 0.4 2.7 -0.3
v 0.4 2.7 -0.4
v 0.4 2.9 -0.3
v 0.4 2.9 -0.4
v 0.1 2 -0.6
v 0.1 2 -0.8
v 0.1 2.1 -0.5
v 0.1 2.1 -0.6
v 0.1 2.1 -0.8
v 0.1 2.1 -0.9
v 0.1 2.2 -0.5
v 0.1 2.2 -0.6
v 0.1 2.2 -0.8
v 0.1 2.2 -0.9
v 0.1 2.2 -1.1
v 0.1 2.3 -0.5
v 0.1 2.3 -0.6
v 0.1 2.3 -0.9
v 0.1 2.3 -1.1
v 0.1 2.7 -0.3
v 0.1 2.7 -0.4
v 0.1 2.9 -0.3
v 0.1 2.9 -0.4
v 0.2 2.4 -0.2
v 0.2 2.4 -0.3
v 0.2 2.4 -0.4
v 0.2 2.4 -0.6
v 0.2 2.4 -0.7
v 0.2 2.4 -0.8
v 0.2 2.4 -1
v 0.2 2.4 -1.1
v 0.2 2.5 -0.2
v 0.2 2.5 -0.3
v 0.2 2.5 -0.4
v 0.2 2.5 -0.6
v 0.2 2.5 -0.7
v 0.2 2.5 -0.8
v 0.2 2.5 -1
v 0.2 2.5 -1.1
v 0.3 2 -1.5
v 0.3 2 -1.7
v 0.3 2.1 -1.4
v 0.3 2.1 -1.5
v 0.3 2.1 -1.7
v 0.3 2.2 -1.3
v 0.3 2.2 -1.4
v 0.3 2.2 -1.5
v 0.3 2.3 -0.2
v 0.3 2.3 -0.3
v 0.3 2.3 -1.2
v 0.3 2.3 -1.3
v 0.3 2.3 -1.4
v 0.3 2.4 0
v 0.3 2.4 -0.1
v 0.3 2.4 -0.2
v 0.3 2.4 -0.3
v 0.3 2.4 -1.1
v 0.3 2.4 -1.2
v 0.3 2.4 -1.3
v 0.3 2.5 0
v 0.3 2.5 -0.1
v 0.3 2.5 -0.2
v 0.3 2.5 -0.3
v 0.3 2.5 -1.1
v 0.3 2.5 -1.2
v 0.3 2.6 -0.2
v 0.3 2.6 -0.3
v 0.4 2.3 -0.3
v 0.4 2.3 -0.4
v 0.4 2.3 -0.6
v 0.4 2.3 -0.9
v 0.4 2.4 -0.1
v 0.4 2.4 -0.3
v 0.4 2.5 -0.2
v 0.4 2.5 -0.3
v 0.4 2.5 -0.4
v 0.4 2.5 -0.6
v 0.4 2.5 -0.9
v 0.4 2.5 -1.1
v 0.4 2.6 -0.1
v 0.4 2.6 -0.2
v 0.4 2.6 -0.3
v 0.4 2.6 -0.4
v 0.4 2.6 -1.1
v 0.4 2.7 -0.2
v 0.4 2.7 -0.3
v 0.4 2.7 -0.4
v 0.5 2 -0.2
v 0.5 2 -0.3
v 0.5 2 -1.2
v 0.5 2 -1.3
v 0.5 2.1 -0.2
v 0.5 2.1 -0.3
v 0.5 2.1 -0.4
v 0.5 2.2 -0.3
v 0.5 2.2 -0.4
v 0.5 2.2 -0.5
v 0.5 2.2 -1.1
v 0.5 2.2 -1.2
v 0.5 2.2 -1.3
v 0.5 2.3 -0.5
v 0.5 2.3 -0.6
v 0.5 2.3 -0.9
v 0.5 2.3 -1.1
v 0.5 2.3 -1.2
v 0.5 2.5 -0.2
v 0.5 2.5 -0.3
v 0.5 2.5 -0.4
v 0.5 2.5 -0.6
v 0.5 2.5 -0.9
v 0.5 2.5 -1.1
v 0.5 2.6 -0.2
v 0.5 2.6 -0.3
v 0.5 2.7 -0.3
v 0.5 2.7 -0.4
v 0.5 2.9 -0.3
v 0.5 2.9 -0.4
v 0.2 2.4 0
v 0.2 2.5 0
v 0.3 2.4 0
v 0.3 2.5 0
v 0.1 2.4 -0.1
v 0.1 2.6 -0.1
v 0.2 2.4 -0.1
v 0.2 2.5 -0.1
v 0.3 2.4 -0.1
v 0.3 2.5 -0.1
v 0.4 2.4 -0.1
v 0.4 2.6 -0.1
v 0 2.5 -0.2
v 0 2.6 -0.2
v 0.1 2.5 -0.2
v 0.1 2.6 -0.2
v 0.1 2.7 -0.2
v 0.2 2.3 -0.2
v 0.2 2.4 -0.2
v 0.3 2.3 -0.2
v 0.3 2.4 -0.2
v 0.4 2 -0.2
v 0.4 2.1 -0.2
v 0.4 2.5 -0.2
v 0.4 2.6 -0.2
v 0.4 2.7 -0.2
v 0.5 2 -0.2
v 0.5 2.1 -0.2
v 0.5 2.5 -0.2
v 0.5 2.6 -0.2
v 0 2.7 -0.3
v 0 2.9 -0.3
v 0.1 2.3 -0.3
v 0.1 2.4 -0.3
v 0.1 2.7 -0.3
v 0.1 2.9 -0.3
v 0.2 2.3 -0.3
v 0.2 2.4 -0.3
v 0.2 2.5 -0.3
v 0.3 2.3 -0.3
v 0.3 2.4 -0.3
v 0.3 2.5 -0.3
v 0.3 2.6 -0.3
v 0.4 2.1 -0.3
v 0.4 2.2 -0.3
v 0.4 2.3 -0.3
v 0.4 2.4 -0.3
v 0.4 2.5 -0.3
v 0.4 2.6 -0.3
v 0.4 2.7 -0.3
v 0.4 2.9 -0.3
v 0.5 2.1 -0.3
v 0.5 2.2 -0.3
v 0.5 2.7 -0.3
v 0.5 2.9 -0.3
v 0 2.3 -0.4
v 0 2.5 -0.4
v 0.1 2.3 -0.4
v 0.1 2.5 -0.4
v 0.4 2.2 -0.4
v 0.4 2.3 -0.4
v 0.4 2.5 -0.4
v 0.5 2.2 -0.4
v 0.5 2.5 -0.4
v 0 2.1 -0.5
v 0 2.2 -0.5
v 0 2.3 -0.5
v 0.1 2.1 -0.5
v 0.1 2.2 -0.5
v 0.1 2.3 -0.5
v 0 2 -0.6
v 0 2.1 -0.6
v 0.1 2 -0.6
v 0.1 2.1 -0.6
v 0.2 2.4 -0.6
v 0.2 2.5 -0.6
v 0.3 2.4 -0.6
v 0.3 2.5 -0.6
v 0 2.1 -0.8
v 0 2.2 -0.8
v 0.1 2.1 -0.8
v 0.1 2.2 -0.8
v 0.2 2.4 -0.8
v 0.2 2.5 -0.8
v 0.3 2.4 -0.8
v 0.3 2.5 -0.8
v 0 2.2 -0.9
v 0 2.5 -0.9
v 0.1 2.2 -0.9
v 0.1 2.3 -0.9
v 0.1 2.5 -0.9
v 0.4 2.3 -0.9
v 0.4 2.5 -0.9
v 0.5 2.3 -0.9
v 0.5 2.5 -0.9
v 0.2 2.4 -1.1
v 0.2 2.5 -1.1
v 0.3 2.4 -1.1
v 0.3 2.5 -1.1
v 0.4 2.2 -1.1
v 0.4 2.3 -1.1
v 0.5 2.2 -1.1
v 0.5 2.3 -1.1
v 0.2 2.3 -1.2
v 0.2 2.4 -1.2
v 0.3 2.3 -1.2
v 0.3 2.4 -1.2
v 0.4 2 -1.2
v 0.4 2.2 -1.2
v 0.5 2 -1.2
v 0.5 2.2 -1.2
v 0.2 2.2 -1.3
v 0.2 2.3 -1.3
v 0.3 2.2 -1.3
v 0.3 2.3 -1.3
v 0.2 2.1 -1.4
v 0.2 2.2 -1.4
v 0.3 2.1 -1.4
v 0.3 2.2 -1.4
v 0.2 2 -1.5
v 0.2 2.1 -1.5
v 0.3 2 -1.5
v 0.3 2.1 -1.5
v 0.2 2.4 -0.2
v 0.2 2.5 -0.2
v 0.3 2.4 -0.2
v 0.3 2.5 -0.2
v 0.3 2.6 -0.2
v 0.4 2.5 -0.2
v 0.4 2.6 -0.2
v 0 2.5 -0.3
v 0 2.6 -0.3
v 0.1 2.5 -0.3
v 0.1 2.6 -0.3
v 0.4 2 -0.3
v 0.4 2.1 -0.3
v 0.4 2.5 -0.3
v 0.4 2.6 -0.3
v 0.5 2 -0.3
v 0.5 2.1 -0.3
v 0.5 2.5 -0.3
v 0.5 2.6 -0.3
v 0 2.7 -0.4
v 0 2.9 -0.4
v 0.1 2.6 -0.4
v 0.1 2.7 -0.4
v 0.1 2.9 -0.4
v 0.2 2.4 -0.4
v 0.2 2.5 -0.4
v 0.3 2.4 -0.4
v 0.3 2.5 -0.4
v 0.4 2.1 -0.4
v 0.4 2.2 -0.4
v 0.4 2.6 -0.4
v 0.4 2.7 -0.4
v 0.4 2.9 -0.4
v 0.5 2.1 -0.4
v 0.5 2.2 -0.4
v 0.5 2.7 -0.4
v 0.5 2.9 -0.4
v 0.4 2.2 -0.5
v 0.4 2.3 -0.5
v 0.5 2.2 -0.5
v 0.5 2.3 -0.5
v 0 2.1 -0.6
v 0 2.2 -0.6
v 0 2.5 -0.6
v 0.1 2.1 -0.6
v 0.1 2.2 -0.6
v 0.1 2.3 -0.6
v 0.1 2.5 -0.6
v 0.4 2.3 -0.6
v 0.4 2.5 -0.6
v 0.5 2.3 -0.6
v 0.5 2.5 -0.6
v 0.2 2.4 -0.7
v 0.2 2.5 -0.7
v 0.3 2.4 -0.7
v 0.3 2.5 -0.7
v 0 2 -0.8
v 0 2.1 -0.8
v 0.1 2 -0.8
v 0.1 2.1 -0.8
v 0 2.1 -0.9
v 0 2.2 -0.9
v 0.1 2.1 -0.9
v 0.1 2.2 -0.9
v 0.2 2.4 -1
v 0.2 2.5 -1
v 0.3 2.4 -1
v 0.3 2.5 -1
v 0 2.2 -1.1
v 0 2.5 -1.1
v 0.1 2.2 -1.1
v 0.1 2.3 -1.1
v 0.1 2.5 -1.1
v 0.1 2.6 -1.1
v 0.2 2.4 -1.1
v 0.2 2.5 -1.1
v 0.3 2.4 -1.1
v 0.3 2.5 -1.1
v 0.4 2.3 -1.1
v 0.4 2.5 -1.1
v 0.4 2.6 -1.1
v 0.5 2.3 -1.1
v 0.5 2.5 -1.1
v 0.2 2.4 -1.2
v 0.2 2.5 -1.2
v 0.3 2.4 -1.2
v 0.3 2.5 -1.2
v 0.4 2.2 -1.2
v 0.4 2.3 -1.2
v 0.5 2.2 -1.2
v 0.5 2.3 -1.2
v 0.2 2.3 -1.3
v 0.2 2.4 -1.3
v 0.3 2.3 -1.3
v 0.3 2.4 -1.3
v 0.4 2 -1.3
v 0.4 2.2 -1.3
v 0.5 2 -1.3
v 0.5 2.2 -1.3
v 0.2 2.2 -1.4
v 0.2 2.3 -1.4
v 0.3 2.2 -1.4
v 0.3 2.3 -1.4
v 0.2 2.1 -1.5
v 0.2 2.2 -1.5
v 0.3 2.1 -1.5
v 0.3 2.2 -1.5
v 0.2 2 -1.7
v 0.2 2.1 -1.7
v 0.3 2 -1.7
v 0.3 2.1 -1.7
v 0.4 2 -0.2
v 0.5 2 -0.2
v 0.4 2 -0.3
v 0.5 2 -0.3
v 0 2 -0.6
v 0.1 2 -0.6
v 0 2 -0.8
v 0.1 2 -0.8
v 0.4 2 -1.2
v 0.5 2 -1.2
v 0.4 2 -1.3
v 0.5 2 -1.3
v 0.2 2 -1.5
v 0.3 2 -1.5
v 0.2 2 -1.7
v 0.3 2 -1.7
v 0.4 2.1 -0.3
v 0.5 2.1 -0.3
v 0.4 2.1 -0.4
v 0.5 2.1 -0.4
v 0 2.1 -0.5
v 0.1 2.1 -0.5
v 0 2.1 -0.6
v 0.1 2.1 -0.6
v 0 2.1 -0.8
v 0.1 2.1 -0.8
v 0 2.1 -0.9
v 0.1 2.1 -0.9
v 0.2 2.1 -1.4
v 0.3 2.1 -1.4
v 0.2 2.1 -1.5
v 0.3 2.1 -1.5
v 0.4 2.2 -0.4
v 0.5 2.2 -0.4
v 0.4 2.2 -0.5
v 0.5 2.2 -0.5
v 0 2.2 -0.9
v 0.1 2.2 -0.9
v 0 2.2 -1.1
v 0.1 2.2 -1.1
v 0.4 2.2 -1.1
v 0.5 2.2 -1.1
v 0.4 2.2 -1.2
v 0.5 2.2 -1.2
v 0.2 2.2 -1.3
v 0.3 2.2 -1.3
v 0.2 2.2 -1.4
v 0.3 2.2 -1.4
v 0.2 2.3 -0.2
v 0.3 2.3 -0.2
v 0.1 2.3 -0.3
v 0.2 2.3 -0.3
v 0.3 2.3 -0.3
v 0.4 2.3 -0.3
v 0 2.3 -0.4
v 0.1 2.3 -0.4
v 0.4 2.3 -0.4
v 0 2.3 -0.5
v 0.1 2.3 -0.5
v 0.4 2.3 -0.5
v 0.5 2.3 -0.5
v 0.1 2.3 -0.6
v 0.4 2.3 -0.6
v 0.5 2.3 -0.6
v 0.1 2.3 -0.9
v 0.4 2.3 -0.9
v 0.5 2.3 -0.9
v 0.1 2.3 -1.1
v 0.4 2.3 -1.1
v 0.5 2.3 -1.1
v 0.2 2.3 -1.2
v 0.3 2.3 -1.2
v 0.2 2.3 -1.3
v 0.3 2.3 -1.3
v 0.2 2.4 0
v 0.3 2.4 0
v 0.1 2.4 -0.1
v 0.2 2.4 -0.1
v 0.3 2.4 -0.1
v 0.4 2.4 -0.1
v 0.2 2.4 -0.2
v 0.3 2.4 -0.2
v 0.1 2.4 -0.3
v 0.2 2.4 -0.3
v 0.3 2.4 -0.3
v 0.4 2.4 -0.3
v 0.2 2.4 -1.1
v 0.3 2.4 -1.1
v 0.2 2.4 -1.2
v 0.3 2.4 -1.2
v 0 2.5 -0.2
v 0.1 2.5 -0.2
v 0.2 2.5 -0.2
v 0.3 2.5 -0.2
v 0.4 2.5 -0.2
v 0.5 2.5 -0.2
v 0 2.5 -0.3
v 0.1 2.5 -0.3
v 0.2 2.5 -0.3
v 0.3 2.5 -0.3
v 0.4 2.5 -0.3
v 0.5 2.5 -0.3
v 0.2 2.5 -0.4
v 0.3 2.5 -0.4
v 0.2 2.5 -0.6
v 0.3 2.5 -0.6
v 0.2 2.5 -0.7
v 0.3 2.5 -0.7
v 0.2 2.5 -0.8
v 0.3 2.5 -0.8
v 0.2 2.5 -1
v 0.3 2.5 -1
v 0.2 2.5 -1.1
v 0.3 2.5 -1.1
v 0.3 2.6 -0.2
v 0.4 2.6 -0.2
v 0.3 2.6 -0.3
v 0.4 2.6 -0.3
v 0 2.7 -0.3
v 0.1 2.7 -0.3
v 0.4 2.7 -0.3
v 0.5 2.7 -0.3
v 0 2.7 -0.4
v 0.1 2.7 -0.4
v 0.4 2.7 -0.4
v 0.5 2.7 -0.4
v 0.4 2.1 -0.2
v 0.5 2.1 -0.2
v 0.4 2.1 -0.3
v 0.5 2.1 -0.3
v 0 2.1 -0.6
v 0.1 2.1 -0.6
v 0 2.1 -0.8
v 0.1 2.1 -0.8
v 0.2 2.1 -1.5
v 0.3 2.1 -1.5
v 0.2 2.1 -1.7
v 0.3 2.1 -1.7
v 0.4 2.2 -0.3
v 0.5 2.2 -0.3
v 0.4 2.2 -0.4
v 0.5 2.2 -0.4
v 0 2.2 -0.8
v 0.1 2.2 -0.8
v 0 2.2 -0.9
v 0.1 2.2 -0.9
v 0.4 2.2 -1.2
v 0.5 2.2 -1.2
v 0.4 2.2 -1.3
v 0.5 2.2 -1.3
v 0.2 2.2 -1.4
v 0.3 2.2 -1.4
v 0.2 2.2 -1.5
v 0.3 2.2 -1.5
v 0.4 2.3 -1.1
v 0.5 2.3 -1.1
v 0.4 2.3 -1.2
v 0.5 2.3 -1.2
v 0.2 2.3 -1.3
v 0.3 2.3 -1.3
v 0.2 2.3 -1.4
v 0.3 2.3 -1.4
v 0.2 2.4 -0.2
v 0.3 2.4 -0.2
v 0.2 2.4 -0.3
v 0.3 2.4 -0.3
v 0.2 2.4 -0.4
v 0.3 2.4 -0.4
v 0.2 2.4 -0.6
v 0.3 2.4 -0.6
v 0.2 2.4 -0.7
v 0.3 2.4 -0.7
v 0.2 2.4 -0.8
v 0.3 2.4 -0.8
v 0.2 2.4 -1
v 0.3 2.4 -1
v 0.2 2.4 -1.1
v 0.3 2.4 -1.1
v 0.2 2.4 -1.2
v 0.3 2.4 -1.2
v 0.2 2.4 -1.3
v 0.3 2.4 -1.3
v 0.2 2.5 0
v 0.3 2.5 0
v 0.2 2.5 -0.1
v 0.3 2.5 -0.1
v 0.3 2.5 -0.2
v 0.4 2.5 -0.2
v 0.3 2.5 -0.3
v 0.4 2.5 -0.3
v 0 2.5 -0.4
v 0.1 2.5 -0.4
v 0.4 2.5 -0.4
v 0.5 2.5 -0.4
v 0 2.5 -0.6
v 0.1 2.5 -0.6
v 0.4 2.5 -0.6
v 0.5 2.5 -0.6
v 0 2.5 -0.9
v 0.1 2.5 -0.9
v 0.4 2.5 -0.9
v 0.5 2.5 -0.9
v 0 2.5 -1.1
v 0.1 2.5 -1.1
v 0.2 2.5 -1.1
v 0.3 2.5 -1.1
v 0.4 2.5 -1.1
v 0.5 2.5 -1.1
v 0.2 2.5 -1.2
v 0.3 2.5 -1.2
v 0.1 2.6 -0.1
v 0.4 2.6 -0.1
v 0 2.6 -0.2
v 0.1 2.6 -0.2
v 0.4 2.6 -0.2
v 0.5 2.6 -0.2
v 0 2.6 -0.3
v 0.1 2.6 -0.3
v 0.4 2.6 -0.3
v 0.5 2.6 -0.3
v 0.1 2.6 -0.4
v 0.4 2.6 -0.4
v 0.1 2.6 -1.1
v 0.4 2.6 -1.1
v 0.1 2.7 -0.2
v 0.4 2.7 -0.2
v 0.1 2.7 -0.3
v 0.4 2.7 -0.3
v 0.1 2.7 -0.4
v 0.4 2.7 -0.4
v 0 2.9 -0.3
v 0.1 2.9 -0.3
v 0.4 2.9 -0.3
v 0.5 2.9 -0.3
v 0 2.9 -0.4
v 0.1 2.9 -0.4
v 0.4 2.9 -0.4
v 0.5 2.9 -0.4

# faces
f 4/1/1 2/1/1 1/1/1
f 5/1/1 2/1/1 4/1/1
f 7/1/1 4/1/1 3/1/1
f 8/1/1 4/1/1 7/1/1
f 9/1/1 6/1/1 5/1/1
f 10/1/1 6/1/1 9/1/1
f 13/2/1 8/2/1 7/2/1
f 16/2/1 13/2/1 12/2/1
f 17/2/1 8/2/1 13/2/1
f 17/2/1 13/2/1 16/2/1
f 18/2/1 11/2/1 10/2/1
f 19/2/1 11/2/1 18/2/1
f 20/3/1 15/3/1 14/3/1
f 21/3/1 15/3/1 20/3/1
f 24/1/1 23/1/1 22/1/1
f 25/1/1 23/1/1 24/1/1
f 31/2/1 27/2/1 26/2/1
f 32/2/1 31/2/1 30/2/1
f 33/2/1 27/2/1 31/2/1
f 33/2/1 31/2/1 32/2/1
f 34/2/1 27/2/1 33/2/1
f 35/2/1 29/2/1 28/2/1
f 36/2/1 29/2/1 35/2/1
f 38/2/1 32/2/1 30/2/1
f 39/2/1 32/2/1 38/2/1
f 40/2/1 34/2/1 33/2/1
f 40/2/1 37/2/1 36/2/1
f 40/2/1 36/2/1 35/2/1
f 40/2/1 35/2/1 34/2/1
f 41/2/1 37/2/1 40/2/1
f 42/2/1 37/2/1 41/2/1
f 43/2/1 40/2/1 39/2/1
f 43/2/1 41/2/1 40/2/1
f 44/2/1 41/2/1 43/2/1
f 45/2/1 41/2/1 44/2/1
f 49/1/1 47/1/1 46/1/1
f 50/1/1 47/1/1 49/1/1
f 52/1/1 49/1/1 48/1/1
f 53/1/1 49/1/1 52/1/1
f 57/1/1 52/1/1 51/1/1
f 58/1/1 52/1/1 57/1/1
f 61/2/1 55/2/1 54/2/1
f 62/2/1 55/2/1 61/2/1
f 64/1/1 57/1/1 56/1/1
f 65/1/1 57/1/1 64/1/1
f 66/1/1 60/1/1 59/1/1
f 67/1/1 60/1/1 66/1/1
f 68/2/1 64/2/1 63/2/1
f 69/2/1 64/2/1 68/2/1
f 78/2/1 71/2/1 70/2/1
f 79/2/1 71/2/1 78/2/1
f 80/2/1 73/2/1 72/2/1
f 81/2/1 73/2/1 80/2/1
f 82/2/1 75/2/1 74/2/1
f 83/2/1 75/2/1 82/2/1
f 84/2/1 77/2/1 76/2/1
f 85/2/1 77/2/1 84/2/1
f 90/1/1 87/1/1 86/1/1
f 91/1/1 87/1/1 90/1/1
f 93/1/1 92/1/1 91/1/1
f 94/1/1 92/1/1 93/1/1
f 97/1/1 89/1/1 88/1/1
f 98/1/1 89/1/1 97/1/1
f 99/2/1 95/2/1 94/2/1
f 100/2/1 95/2/1 99/2/1
f 101/2/1 97/2/1 96/2/1
f 102/2/1 97/2/1 101/2/1
f 105/3/1 104/3/1 103/3/1
f 106/3/1 104/3/1 105/3/1
f 109/1/1 108/1/1 107/1/1
f 110/1/1 108/1/1 109/1/1
f 111/1/2 112/1/2 114/1/2
f 114/1/2 112/1/2 115/1/2
f 113/1/2 114/1/2 117/1/2
f 117/1/2 114/1/2 118/1/2
f 115/1/2 116/1/2 119/1/2
f 119/1/2 116/1/2 120/1/2
f 117/2/2 118/2/2 122/2/2
f 122/2/2 118/2/2 123/2/2
f 120/2/2 121/2/2 124/2/2
f 124/2/2 121/2/2 125/2/2
f 126/1/2 127/1/2 128/1/2
f 128/1/2 127/1/2 129/1/2
f 130/2/2 131/2/2 138/2/2
f 138/2/2 131/2/2 139/2/2
f 132/2/2 133/2/2 140/2/2
f 140/2/2 133/2/2 141/2/2
f 134/2/2 135/2/2 142/2/2
f 142/2/2 135/2/2 143/2/2
f 136/2/2 137/2/2 144/2/2
f 144/2/2 137/2/2 145/2/2
f 146/1/2 147/1/2 149/1/2
f 149/1/2 147/1/2 150/1/2
f 148/1/2 149/1/2 152/1/2
f 152/1/2 149/1/2 153/1/2
f 151/1/2 152/1/2 157/1/2
f 157/1/2 152/1/2 158/1/2
f 154/2/2 155/2/2 161/2/2
f 161/2/2 155/2/2 162/2/2
f 156/1/2 157/1/2 164/1/2
f 164/1/2 157/1/2 165/1/2
f 159/1/2 160/1/2 166/1/2
f 166/1/2 160/1/2 167/1/2
f 163/2/2 164/2/2 170/2/2
f 170/2/2 164/2/2 171/2/2
f 168/2/2 169/2/2 172/2/2
f 172/2/2 169/2/2 173/2/2
f 174/2/2 175/2/2 179/2/2
f 178/2/2 179/2/2 180/2/2
f 179/2/2 175/2/2 181/2/2
f 180/2/2 179/2/2 181/2/2
f 181/2/2 175/2/2 182/2/2
f 176/2/2 177/2/2 183/2/2
f 183/2/2 177/2/2 184/2/2
f 178/2/2 180/2/2 186/2/2
f 186/2/2 180/2/2 187/2/2
f 181/2/2 182/2/2 188/2/2
f 184/2/2 185/2/2 188/2/2
f 183/2/2 184/2/2 188/2/2
f 182/2/2 183/2/2 188/2/2
f 188/2/2 185/2/2 189/2/2
f 189/2/2 185/2/2 190/2/2
f 187/2/2 188/2/2 191/2/2
f 188/2/2 189/2/2 191/2/2
f 191/2/2 189/2/2 192/2/2
f 192/2/2 189/2/2 193/2/2
f 194/1/2 195/1/2 198/1/2
f 198/1/2 195/1/2 199/1/2
f 199/1/2 200/1/2 201/1/2
f 201/1/2 200/1/2 202/1/2
f 196/1/2 197/1/2 205/1/2
f 205/1/2 197/1/2 206/1/2
f 202/2/2 203/2/2 207/2/2
f 204/2/2 205/2/2 210/2/2
f 210/2/2 205/2/2 211/2/2
f 207/2/2 208/2/2 214/2/2
f 202/2/2 207/2/2 214/2/2
f 214/2/2 208/2/2 215/2/2
f 209/2/2 210/2/2 216/2/2
f 216/2/2 210/2/2 217/2/2
f 212/3/2 213/3/2 218/3/2
f 218/3/2 213/3/2 219/3/2
f 220/1/2 221/1/2 222/1/2
f 222/1/2 221/1/2 223/1/2
f 226/1/3 225/1/3 224/1/3
f 227/1/3 225/1/3 226/1/3
f 230/2/3 229/2/3 228/2/3
f 231/2/3 229/2/3 230/2/3
f 233/2/3 229/2/3 231/2/3
f 234/2/3 233/2/3 232/2/3
f 235/2/3 229/2/3 233/2/3
f 235/2/3 233/2/3 234/2/3
f 238/3/3 237/3/3 236/3/3
f 239/3/3 237/3/3 238/3/3
f 243/2/3 242/2/3 241/2/3
f 244/2/3 242/2/3 243/2/3
f 248/2/3 240/2/3 239/2/3
f 249/2/3 240/2/3 248/2/3
f 250/1/3 246/1/3 245/1/3
f 251/1/3 246/1/3 250/1/3
f 252/3/3 248/3/3 247/3/3
f 253/3/3 248/3/3 252/3/3
f 258/1/3 255/1/3 254/1/3
f 259/1/3 255/1/3 258/1/3
f 260/2/3 257/2/3 256/2/3
f 261/2/3 257/2/3 260/2/3
f 264/2/3 262/2/3 261/2/3
f 265/2/3 262/2/3 264/2/3
f 269/2/3 264/2/3 263/2/3
f 270/2/3 264/2/3 269/2/3
f 271/2/3 266/2/3 265/2/3
f 272/2/3 266/2/3 271/2/3
f 275/1/3 268/1/3 267/1/3
f 276/1/3 268/1/3 275/1/3
f 277/1/3 274/1/3 273/1/3
f 278/1/3 274/1/3 277/1/3
f 281/2/3 280/2/3 279/2/3
f 282/2/3 280/2/3 281/2/3
f 286/2/3 284/2/3 283/2/3
f 286/2/3 285/2/3 284/2/3
f 287/2/3 285/2/3 286/2/3
f 291/1/3 289/1/3 288/1/3
f 292/2/3 290/2/3 289/2/3
f 292/1/3 289/1/3 291/1/3
f 293/2/3 290/2/3 292/2/3
f 296/1/3 295/1/3 294/1/3
f 297/1/3 295/1/3 296/1/3
f 300/2/3 299/2/3 298/2/3
f 301/2/3 299/2/3 300/2/3
f 304/1/3 303/1/3 302/1/3
f 305/1/3 303/1/3 304/1/3
f 308/2/3 307/2/3 306/2/3
f 309/2/3 307/2/3 308/2/3
f 312/2/3 311/2/3 310/2/3
f 313/2/3 311/2/3 312/2/3
f 314/2/3 311/2/3 313/2/3
f 317/2/3 316/2/3 315/2/3
f 318/2/3 316/2/3 317/2/3
f 321/2/3 320/2/3 319/2/3
f 322/2/3 320/2/3 321/2/3
f 325/2/3 324/2/3 323/2/3
f 326/2/3 324/2/3 325/2/3
f 329/1/3 328/1/3 327/1/3
f 330/1/3 328/1/3 329/1/3
f 333/1/3 332/1/3 331/1/3
f 334/1/3 332/1/3 333/1/3
f 337/1/3 336/1/3 335/1/3
f 338/1/3 336/1/3 337/1/3
f 341/1/3 340/1/3 339/1/3
f 342/1/3 340/1/3 341/1/3
f 345/1/3 344/1/3 343/1/3
f 346/1/3 344/1/3 345/1/3
f 347/2/4 348/2/4 349/2/4
f 349/2/4 348/2/4 350/2/4
f 350/2/4 351/2/4 352/2/4
f 352/2/4 351/2/4 353/2/4
f 354/3/4 355/3/4 356/3/4
f 356/3/4 355/3/4 357/3/4
f 358/1/4 359/1/4 362/1/4
f 362/1/4 359/1/4 363/1/4
f 360/3/4 361/3/4 364/3/4
f 364/3/4 361/3/4 365/3/4
f 366/1/4 367/1/4 369/1/4
f 369/1/4 367/1/4 370/1/4
f 371/2/4 372/2/4 373/2/4
f 373/2/4 372/2/4 374/2/4
f 368/2/4 369/2/4 377/2/4
f 377/2/4 369/2/4 378/2/4
f 375/1/4 376/1/4 380/1/4
f 380/1/4 376/1/4 381/1/4
f 378/1/4 379/1/4 382/1/4
f 382/1/4 379/1/4 383/1/4
f 384/2/4 385/2/4 386/2/4
f 386/2/4 385/2/4 387/2/4
f 388/1/4 389/1/4 391/1/4
f 389/2/4 390/2/4 392/2/4
f 391/1/4 389/1/4 392/1/4
f 392/2/4 390/2/4 393/2/4
f 393/2/4 390/2/4 394/2/4
f 395/2/4 396/2/4 397/2/4
f 397/2/4 396/2/4 398/2/4
f 399/2/4 400/2/4 401/2/4
f 401/2/4 400/2/4 402/2/4
f 403/1/4 404/1/4 405/1/4
f 405/1/4 404/1/4 406/1/4
f 407/1/4 408/1/4 409/1/4
f 409/1/4 408/1/4 410/1/4
f 411/2/4 412/2/4 413/2/4
f 413/2/4 412/2/4 414/2/4
f 415/2/4 416/2/4 417/2/4
f 417/2/4 416/2/4 418/2/4
f 418/2/4 416/2/4 419/2/4
f 419/2/4 420/2/4 421/2/4
f 418/2/4 419/2/4 421/2/4
f 421/2/4 420/2/4 422/2/4
f 418/2/4 421/2/4 423/2/4
f 422/2/4 420/2/4 424/2/4
f 418/2/4 423/2/4 425/2/4
f 423/2/4 424/2/4 425/2/4
f 424/2/4 420/2/4 426/2/4
f 425/2/4 424/2/4 426/2/4
f 426/2/4 420/2/4 427/2/4
f 425/2/4 426/2/4 428/2/4
f 428/2/4 426/2/4 429/2/4
f 430/2/4 431/2/4 432/2/4
f 432/2/4 431/2/4 433/2/4
f 434/2/4 435/2/4 436/2/4
f 436/2/4 435/2/4 437/2/4
f 438/1/4 439/1/4 440/1/4
f 440/1/4 439/1/4 441/1/4
f 442/1/4 443/1/4 444/1/4
f 444/1/4 443/1/4 445/1/4
f 446/1/4 447/1/4 448/1/4
f 448/1/4 447/1/4 449/1/4
f 450/1/4 451/1/4 452/1/4
f 452/1/4 451/1/4 453/1/4
f 454/1/4 455/1/4 456/1/4
f 456/1/4 455/1/4 457/1/4
f 460/1/5 459/1/5 458/1/5
f 461/1/5 459/1/5 460/1/5
f 464/1/5 463/1/5 462/1/5
f 465/1/5 463/1/5 464/1/5
f 468/1/5 467/1/5 466/1/5
f 469/1/5 467/1/5 468/1/5
f 472/1/5 471/1/5 470/1/5
f 473/1/5 471/1/5 472/1/5
f 476/1/5 475/1/5 474/1/5
f 477/1/5 475/1/5 476/1/5
f 480/1/5 479/1/5 478/1/5
f 481/1/5 479/1/5 480/1/5
f 484/1/5 483/1/5 482/1/5
f 485/1/5 483/1/5 484/1/5
f 488/1/5 487/1/5 486/1/5
f 489/1/5 487/1/5 488/1/5
f 492/2/5 491/2/5 490/2/5
f 493/2/5 491/2/5 492/2/5
f 496/2/5 495/2/5 494/2/5
f 497/2/5 495/2/5 496/2/5
f 500/2/5 499/2/5 498/2/5
f 501/2/5 499/2/5 500/2/5
f 504/1/5 503/1/5 502/1/5
f 505/1/5 503/1/5 504/1/5
f 509/2/5 507/2/5 506/2/5
f 510/2/5 507/2/5 509/2/5
f 513/2/5 509/2/5 508/2/5
f 513/2/5 511/2/5 510/2/5
f 513/2/5 510/2/5 509/2/5
f 514/2/5 511/2/5 513/2/5
f 515/2/5 513/2/5 512/2/5
f 515/2/5 514/2/5 513/2/5
f 516/2/5 514/2/5 515/2/5
f 517/2/5 514/2/5 516/2/5
f 519/2/5 517/2/5 516/2/5
f 519/2/5 518/2/5 517/2/5
f 520/2/5 518/2/5 519/2/5
f 521/2/5 518/2/5 520/2/5
f 522/2/5 520/2/5 519/2/5
f 523/2/5 520/2/5 522/2/5
f 525/2/5 523/2/5 522/2/5
f 525/2/5 524/2/5 523/2/5
f 526/2/5 524/2/5 525/2/5
f 527/2/5 524/2/5 526/2/5
f 530/1/5 529/1/5 528/1/5
f 531/1/5 529/1/5 530/1/5
f 535/1/5 533/1/5 532/1/5
f 536/1/5 533/1/5 535/1/5
f 538/2/5 535/2/5 534/2/5
f 538/2/5 537/2/5 536/2/5
f 538/2/5 536/2/5 535/2/5
f 539/2/5 537/2/5 538/2/5
f 540/2/5 538/2/5 534/2/5
f 541/2/5 538/2/5 540/2/5
f 542/2/5 537/2/5 539/2/5
f 543/2/5 537/2/5 542/2/5
f 546/2/5 545/2/5 544/2/5
f 547/2/5 545/2/5 546/2/5
f 554/3/5 549/3/5 548/3/5
f 555/3/5 549/3/5 554/3/5
f 556/2/5 551/2/5 550/2/5
f 557/2/5 551/2/5 556/2/5
f 558/3/5 553/3/5 552/3/5
f 559/3/5 553/3/5 558/3/5
f 562/2/5 561/2/5 560/2/5
f 563/2/5 561/2/5 562/2/5
f 566/2/5 565/2/5 564/2/5
f 567/2/5 565/2/5 566/2/5
f 570/2/5 569/2/5 568/2/5
f 571/2/5 569/2/5 570/2/5
f 574/2/5 573/2/5 572/2/5
f 575/2/5 573/2/5 574/2/5
f 580/1/5 577/1/5 576/1/5
f 581/1/5 577/1/5 580/1/5
f 582/1/5 579/1/5 578/1/5
f 583/1/5 579/1/5 582/1/5
f 584/1/6 585/1/6 586/1/6
f 586/1/6 585/1/6 587/1/6
f 588/1/6 589/1/6 590/1/6
f 590/1/6 589/1/6 591/1/6
f 592/1/6 593/1/6 594/1/6
f 594/1/6 593/1/6 595/1/6
f 596/1/6 597/1/6 598/1/6
f 598/1/6 597/1/6 599/1/6
f 600/1/6 601/1/6 602/1/6
f 602/1/6 601/1/6 603/1/6
f 604/1/6 605/1/6 606/1/6
f 606/1/6 605/1/6 607/1/6
f 608/1/6 609/1/6 610/1/6
f 610/1/6 609/1/6 611/1/6
f 612/2/6 613/2/6 614/2/6
f 614/2/6 613/2/6 615/2/6
f 616/1/6 617/1/6 618/1/6
f 618/1/6 617/1/6 619/1/6
f 620/2/6 621/2/6 622/2/6
f 622/2/6 621/2/6 623/2/6
f 624/2/6 625/2/6 626/2/6
f 626/2/6 625/2/6 627/2/6
f 628/2/6 629/2/6 630/2/6
f 630/2/6 629/2/6 631/2/6
f 632/2/6 633/2/6 634/2/6
f 634/2/6 633/2/6 635/2/6
f 636/1/6 637/1/6 638/1/6
f 638/1/6 637/1/6 639/1/6
f 640/1/6 641/1/6 642/1/6
f 642/1/6 641/1/6 643/1/6
f 644/2/6 645/2/6 646/2/6
f 646/2/6 645/2/6 647/2/6
f 648/2/6 649/2/6 652/2/6
f 652/2/6 649/2/6 653/2/6
f 650/2/6 651/2/6 654/2/6
f 654/2/6 651/2/6 655/2/6
f 656/2/6 657/2/6 660/2/6
f 660/2/6 657/2/6 661/2/6
f 658/2/6 659/2/6 664/2/6
f 664/2/6 659/2/6 665/2/6
f 662/2/6 663/2/6 666/2/6
f 666/2/6 663/2/6 667/2/6
f 668/2/6 669/2/6 671/2/6
f 671/2/6 669/2/6 672/2/6
f 670/3/6 671/3/6 674/3/6
f 674/3/6 671/3/6 675/3/6
f 672/3/6 673/3/6 676/3/6
f 676/3/6 673/3/6 677/3/6
f 678/2/6 679/2/6 680/2/6
f 680/2/6 679/2/6 681/2/6
f 682/2/6 683/2/6 684/2/6
f 684/2/6 683/2/6 685/2/6
f 684/2/6 685/2/6 686/2/6
f 686/2/6 685/2/6 687/2/6
f 688/1/6 689/1/6 692/1/6
f 692/1/6 689/1/6 693/1/6
f 690/1/6 691/1/6 694/1/6
f 694/1/6 691/1/6 695/1/6
