# MagicaVoxel @ Ephtracy

# group
o 

# material
mtllib rat_walk_0.mtl
usemtl palette

# normals
vn -1 0 0
vn 1 0 0
vn 0 0 1
vn 0 0 -1
vn 0 -1 0
vn 0 1 0

# texcoords
vt 0.0292969 0.5
vt 0.982422 0.5
vt 0.994141 0.5

# verts
v 0 2 -0.1
v 0 2 -0.2
v 0 2 -1.1
v 0 2 -1.2
v 0 2.1 -0.1
v 0 2.1 -0.2
v 0 2.1 -0.3
v 0 2.1 -0.4
v 0 2.1 -1
v 0 2.1 -1.1
v 0 2.2 -0.2
v 0 2.2 -0.3
v 0 2.2 -0.4
v 0 2.2 -0.6
v 0 2.2 -0.9
v 0 2.2 -1
v 0 2.2 -1.1
v 0 2.2 -1.2
v 0 2.4 -0.2
v 0 2.4 -0.3
v 0 2.4 -0.4
v 0 2.4 -0.6
v 0 2.4 -0.9
v 0 2.4 -1.1
v 0 2.5 -0.2
v 0 2.5 -0.3
v 0 2.6 -0.3
v 0 2.6 -0.4
v 0 2.8 -0.3
v 0 2.8 -0.4
v 0.1 2.2 -0.3
v 0.1 2.2 -0.4
v 0.1 2.2 -0.6
v 0.1 2.2 -0.9
v 0.1 2.3 -0.1
v 0.1 2.3 -0.3
v 0.1 2.4 -0.2
v 0.1 2.4 -0.3
v 0.1 2.4 -0.4
v 0.1 2.4 -0.6
v 0.1 2.4 -0.9
v 0.1 2.4 -1.1
v 0.1 2.5 -0.1
v 0.1 2.5 -0.2
v 0.1 2.5 -0.3
v 0.1 2.5 -0.4
v 0.1 2.5 -1.1
v 0.1 2.6 -0.2
v 0.1 2.6 -0.3
v 0.1 2.6 -0.4
v 0.2 2 -1.4
v 0.2 2 -1.7
v 0.2 2.1 -1.3
v 0.2 2.1 -1.4
v 0.2 2.1 -1.7
v 0.2 2.2 -0.2
v 0.2 2.2 -0.3
v 0.2 2.2 -1.2
v 0.2 2.2 -1.3
v 0.2 2.2 -1.4
v 0.2 2.3 0
v 0.2 2.3 -0.1
v 0.2 2.3 -0.2
v 0.2 2.3 -0.3
v 0.2 2.3 -1.1
v 0.2 2.3 -1.2
v 0.2 2.3 -1.3
v 0.2 2.4 0
v 0.2 2.4 -0.1
v 0.2 2.4 -1.1
v 0.2 2.4 -1.2
v 0.3 2.3 -0.2
v 0.3 2.3 -0.3
v 0.3 2.3 -0.4
v 0.3 2.3 -0.6
v 0.3 2.3 -0.7
v 0.3 2.3 -0.8
v 0.3 2.3 -1
v 0.3 2.3 -1.1
v 0.3 2.4 -0.2
v 0.3 2.4 -0.3
v 0.3 2.4 -0.4
v 0.3 2.4 -0.6
v 0.3 2.4 -0.7
v 0.3 2.4 -0.8
v 0.3 2.4 -1
v 0.3 2.4 -1.1
v 0.4 2 -0.6
v 0.4 2 -0.8
v 0.4 2.1 -0.5
v 0.4 2.1 -0.6
v 0.4 2.1 -0.8
v 0.4 2.1 -0.9
v 0.4 2.1 -1
v 0.4 2.2 -0.5
v 0.4 2.2 -0.6
v 0.4 2.2 -0.8
v 0.4 2.2 -0.9
v 0.4 2.2 -1
v 0.4 2.4 -0.2
v 0.4 2.4 -0.3
v 0.4 2.5 -0.2
v 0.4 2.5 -0.3
v 0.4 2.6 -0.3
v 0.4 2.6 -0.4
v 0.4 2.8 -0.3
v 0.4 2.8 -0.4
v 0.1 2 -0.1
v 0.1 2 -0.2
v 0.1 2 -1.1
v 0.1 2 -1.2
v 0.1 2.1 -0.1
v 0.1 2.1 -0.2
v 0.1 2.1 -0.3
v 0.1 2.1 -0.4
v 0.1 2.1 -1
v 0.1 2.1 -1.1
v 0.1 2.2 -0.2
v 0.1 2.2 -0.3
v 0.1 2.2 -0.4
v 0.1 2.2 -1
v 0.1 2.2 -1.1
v 0.1 2.2 -1.2
v 0.1 2.6 -0.3
v 0.1 2.6 -0.4
v 0.1 2.8 -0.3
v 0.1 2.8 -0.4
v 0.2 2.3 -0.2
v 0.2 2.3 -0.3
v 0.2 2.3 -0.4
v 0.2 2.3 -0.6
v 0.2 2.3 -0.7
v 0.2 2.3 -0.8
v 0.2 2.3 -1
v 0.2 2.3 -1.1
v 0.2 2.4 -0.2
v 0.2 2.4 -0.3
v 0.2 2.4 -0.4
v 0.2 2.4 -0.6
v 0.2 2.4 -0.7
v 0.2 2.4 -0.8
v 0.2 2.4 -1
v 0.2 2.4 -1.1
v 0.3 2 -1.4
v 0.3 2 -1.7
v 0.3 2.1 -1.3
v 0.3 2.1 -1.4
v 0.3 2.1 -1.7
v 0.3 2.2 -0.2
v 0.3 2.2 -0.3
v 0.3 2.2 -1.2
v 0.3 2.2 -1.3
v 0.3 2.2 -1.4
v 0.3 2.3 0
v 0.3 2.3 -0.1
v 0.3 2.3 -0.2
v 0.3 2.3 -0.3
v 0.3 2.3 -1.1
v 0.3 2.3 -1.2
v 0.3 2.3 -1.3
v 0.3 2.4 0
v 0.3 2.4 -0.1
v 0.3 2.4 -0.2
v 0.3 2.4 -0.3
v 0.3 2.4 -1.1
v 0.3 2.4 -1.2
v 0.3 2.5 -0.2
v 0.3 2.5 -0.3
v 0.4 2.2 -0.3
v 0.4 2.2 -0.4
v 0.4 2.2 -0.6
v 0.4 2.2 -0.8
v 0.4 2.2 -0.9
v 0.4 2.3 -0.1
v 0.4 2.3 -0.3
v 0.4 2.4 -0.2
v 0.4 2.4 -0.3
v 0.4 2.4 -0.4
v 0.4 2.4 -0.6
v 0.4 2.4 -0.9
v 0.4 2.4 -1.1
v 0.4 2.5 -0.1
v 0.4 2.5 -0.2
v 0.4 2.5 -0.3
v 0.4 2.5 -0.4
v 0.4 2.5 -1.1
v 0.4 2.6 -0.2
v 0.4 2.6 -0.3
v 0.4 2.6 -0.4
v 0.5 2 -0.6
v 0.5 2 -0.8
v 0.5 2.1 -0.5
v 0.5 2.1 -0.6
v 0.5 2.1 -0.8
v 0.5 2.1 -0.9
v 0.5 2.1 -1
v 0.5 2.2 -0.4
v 0.5 2.2 -0.5
v 0.5 2.2 -0.6
v 0.5 2.2 -0.8
v 0.5 2.2 -0.9
v 0.5 2.2 -1
v 0.5 2.2 -1.1
v 0.5 2.4 -0.2
v 0.5 2.4 -0.3
v 0.5 2.4 -0.4
v 0.5 2.4 -0.6
v 0.5 2.4 -0.9
v 0.5 2.4 -1.1
v 0.5 2.5 -0.2
v 0.5 2.5 -0.3
v 0.5 2.6 -0.3
v 0.5 2.6 -0.4
v 0.5 2.8 -0.3
v 0.5 2.8 -0.4
v 0.2 2.3 0
v 0.2 2.4 0
v 0.3 2.3 0
v 0.3 2.4 0
v 0 2 -0.1
v 0 2.1 -0.1
v 0.1 2 -0.1
v 0.1 2.1 -0.1
v 0.1 2.3 -0.1
v 0.1 2.5 -0.1
v 0.2 2.3 -0.1
v 0.2 2.4 -0.1
v 0.3 2.3 -0.1
v 0.3 2.4 -0.1
v 0.4 2.3 -0.1
v 0.4 2.5 -0.1
v 0 2.1 -0.2
v 0 2.2 -0.2
v 0 2.4 -0.2
v 0 2.5 -0.2
v 0.1 2.1 -0.2
v 0.1 2.2 -0.2
v 0.1 2.4 -0.2
v 0.1 2.5 -0.2
v 0.1 2.6 -0.2
v 0.2 2.2 -0.2
v 0.2 2.3 -0.2
v 0.3 2.2 -0.2
v 0.3 2.3 -0.2
v 0.4 2.4 -0.2
v 0.4 2.5 -0.2
v 0.4 2.6 -0.2
v 0.5 2.4 -0.2
v 0.5 2.5 -0.2
v 0 2.6 -0.3
v 0 2.8 -0.3
v 0.1 2.2 -0.3
v 0.1 2.3 -0.3
v 0.1 2.6 -0.3
v 0.1 2.8 -0.3
v 0.2 2.2 -0.3
v 0.2 2.3 -0.3
v 0.2 2.4 -0.3
v 0.3 2.2 -0.3
v 0.3 2.3 -0.3
v 0.3 2.4 -0.3
v 0.3 2.5 -0.3
v 0.4 2.2 -0.3
v 0.4 2.3 -0.3
v 0.4 2.4 -0.3
v 0.4 2.5 -0.3
v 0.4 2.6 -0.3
v 0.4 2.8 -0.3
v 0.5 2.6 -0.3
v 0.5 2.8 -0.3
v 0 2.2 -0.4
v 0 2.4 -0.4
v 0.1 2.2 -0.4
v 0.1 2.4 -0.4
v 0.4 2.2 -0.4
v 0.4 2.4 -0.4
v 0.5 2.2 -0.4
v 0.5 2.4 -0.4
v 0.4 2.1 -0.5
v 0.4 2.2 -0.5
v 0.5 2.1 -0.5
v 0.5 2.2 -0.5
v 0.2 2.3 -0.6
v 0.2 2.4 -0.6
v 0.3 2.3 -0.6
v 0.3 2.4 -0.6
v 0.4 2 -0.6
v 0.4 2.1 -0.6
v 0.5 2 -0.6
v 0.5 2.1 -0.6
v 0.2 2.3 -0.8
v 0.2 2.4 -0.8
v 0.3 2.3 -0.8
v 0.3 2.4 -0.8
v 0.4 2.1 -0.8
v 0.4 2.2 -0.8
v 0.5 2.1 -0.8
v 0.5 2.2 -0.8
v 0 2.2 -0.9
v 0 2.4 -0.9
v 0.1 2.2 -0.9
v 0.1 2.4 -0.9
v 0.4 2.2 -0.9
v 0.4 2.4 -0.9
v 0.5 2.2 -0.9
v 0.5 2.4 -0.9
v 0 2.1 -1
v 0 2.2 -1
v 0.1 2.1 -1
v 0.1 2.2 -1
v 0 2 -1.1
v 0 2.1 -1.1
v 0.1 2 -1.1
v 0.1 2.1 -1.1
v 0.2 2.3 -1.1
v 0.2 2.4 -1.1
v 0.3 2.3 -1.1
v 0.3 2.4 -1.1
v 0.2 2.2 -1.2
v 0.2 2.3 -1.2
v 0.3 2.2 -1.2
v 0.3 2.3 -1.2
v 0.2 2.1 -1.3
v 0.2 2.2 -1.3
v 0.3 2.1 -1.3
v 0.3 2.2 -1.3
v 0.2 2 -1.4
v 0.2 2.1 -1.4
v 0.3 2 -1.4
v 0.3 2.1 -1.4
v 0 2 -0.2
v 0 2.1 -0.2
v 0.1 2 -0.2
v 0.1 2.1 -0.2
v 0.2 2.3 -0.2
v 0.2 2.4 -0.2
v 0.3 2.3 -0.2
v 0.3 2.4 -0.2
v 0.3 2.5 -0.2
v 0.4 2.4 -0.2
v 0.4 2.5 -0.2
v 0 2.4 -0.3
v 0 2.5 -0.3
v 0.1 2.4 -0.3
v 0.1 2.5 -0.3
v 0.4 2.4 -0.3
v 0.4 2.5 -0.3
v 0.5 2.4 -0.3
v 0.5 2.5 -0.3
v 0 2.1 -0.4
v 0 2.2 -0.4
v 0 2.6 -0.4
v 0 2.8 -0.4
v 0.1 2.1 -0.4
v 0.1 2.2 -0.4
v 0.1 2.5 -0.4
v 0.1 2.6 -0.4
v 0.1 2.8 -0.4
v 0.2 2.3 -0.4
v 0.2 2.4 -0.4
v 0.3 2.3 -0.4
v 0.3 2.4 -0.4
v 0.4 2.5 -0.4
v 0.4 2.6 -0.4
v 0.4 2.8 -0.4
v 0.5 2.6 -0.4
v 0.5 2.8 -0.4
v 0 2.2 -0.6
v 0 2.4 -0.6
v 0.1 2.2 -0.6
v 0.1 2.4 -0.6
v 0.4 2.1 -0.6
v 0.4 2.2 -0.6
v 0.4 2.4 -0.6
v 0.5 2.1 -0.6
v 0.5 2.2 -0.6
v 0.5 2.4 -0.6
v 0.2 2.3 -0.7
v 0.2 2.4 -0.7
v 0.3 2.3 -0.7
v 0.3 2.4 -0.7
v 0.4 2 -0.8
v 0.4 2.1 -0.8
v 0.5 2 -0.8
v 0.5 2.1 -0.8
v 0.2 2.3 -1
v 0.2 2.4 -1
v 0.3 2.3 -1
v 0.3 2.4 -1
v 0.4 2.1 -1
v 0.4 2.2 -1
v 0.5 2.1 -1
v 0.5 2.2 -1
v 0 2.2 -1.1
v 0 2.4 -1.1
v 0.1 2.2 -1.1
v 0.1 2.4 -1.1
v 0.1 2.5 -1.1
v 0.2 2.3 -1.1
v 0.2 2.4 -1.1
v 0.3 2.3 -1.1
v 0.3 2.4 -1.1
v 0.4 2.4 -1.1
v 0.4 2.5 -1.1
v 0.5 2.2 -1.1
v 0.5 2.4 -1.1
v 0 2 -1.2
v 0 2.2 -1.2
v 0.1 2 -1.2
v 0.1 2.2 -1.2
v 0.2 2.3 -1.2
v 0.2 2.4 -1.2
v 0.3 2.3 -1.2
v 0.3 2.4 -1.2
v 0.2 2.2 -1.3
v 0.2 2.3 -1.3
v 0.3 2.2 -1.3
v 0.3 2.3 -1.3
v 0.2 2.1 -1.4
v 0.2 2.2 -1.4
v 0.3 2.1 -1.4
v 0.3 2.2 -1.4
v 0.2 2 -1.7
v 0.2 2.1 -1.7
v 0.3 2 -1.7
v 0.3 2.1 -1.7
v 0 2 -0.1
v 0.1 2 -0.1
v 0 2 -0.2
v 0.1 2 -0.2
v 0.4 2 -0.6
v 0.5 2 -0.6
v 0.4 2 -0.8
v 0.5 2 -0.8
v 0 2 -1.1
v 0.1 2 -1.1
v 0 2 -1.2
v 0.1 2 -1.2
v 0.2 2 -1.4
v 0.3 2 -1.4
v 0.2 2 -1.7
v 0.3 2 -1.7
v 0 2.1 -0.2
v 0.1 2.1 -0.2
v 0 2.1 -0.3
v 0.1 2.1 -0.3
v 0 2.1 -0.4
v 0.1 2.1 -0.4
v 0.4 2.1 -0.5
v 0.5 2.1 -0.5
v 0.4 2.1 -0.6
v 0.5 2.1 -0.6
v 0.4 2.1 -0.8
v 0.5 2.1 -0.8
v 0.4 2.1 -0.9
v 0.5 2.1 -0.9
v 0 2.1 -1
v 0.1 2.1 -1
v 0.4 2.1 -1
v 0.5 2.1 -1
v 0 2.1 -1.1
v 0.1 2.1 -1.1
v 0.2 2.1 -1.3
v 0.3 2.1 -1.3
v 0.2 2.1 -1.4
v 0.3 2.1 -1.4
v 0.2 2.2 -0.2
v 0.3 2.2 -0.2
v 0.1 2.2 -0.3
v 0.2 2.2 -0.3
v 0.3 2.2 -0.3
v 0.4 2.2 -0.3
v 0 2.2 -0.4
v 0.1 2.2 -0.4
v 0.4 2.2 -0.4
v 0.5 2.2 -0.4
v 0.4 2.2 -0.5
v 0.5 2.2 -0.5
v 0 2.2 -0.6
v 0.1 2.2 -0.6
v 0.4 2.2 -0.6
v 0.4 2.2 -0.8
v 0 2.2 -0.9
v 0.1 2.2 -0.9
v 0.4 2.2 -0.9
v 0 2.2 -1
v 0.1 2.2 -1
v 0.4 2.2 -1
v 0.5 2.2 -1
v 0.1 2.2 -1.1
v 0.5 2.2 -1.1
v 0.2 2.2 -1.2
v 0.3 2.2 -1.2
v 0.2 2.2 -1.3
v 0.3 2.2 -1.3
v 0.2 2.3 0
v 0.3 2.3 0
v 0.1 2.3 -0.1
v 0.2 2.3 -0.1
v 0.3 2.3 -0.1
v 0.4 2.3 -0.1
v 0.2 2.3 -0.2
v 0.3 2.3 -0.2
v 0.1 2.3 -0.3
v 0.2 2.3 -0.3
v 0.3 2.3 -0.3
v 0.4 2.3 -0.3
v 0.2 2.3 -1.1
v 0.3 2.3 -1.1
v 0.2 2.3 -1.2
v 0.3 2.3 -1.2
v 0 2.4 -0.2
v 0.1 2.4 -0.2
v 0.2 2.4 -0.2
v 0.3 2.4 -0.2
v 0.4 2.4 -0.2
v 0.5 2.4 -0.2
v 0 2.4 -0.3
v 0.1 2.4 -0.3
v 0.2 2.4 -0.3
v 0.3 2.4 -0.3
v 0.4 2.4 -0.3
v 0.5 2.4 -0.3
v 0.2 2.4 -0.4
v 0.3 2.4 -0.4
v 0.2 2.4 -0.6
v 0.3 2.4 -0.6
v 0.2 2.4 -0.7
v 0.3 2.4 -0.7
v 0.2 2.4 -0.8
v 0.3 2.4 -0.8
v 0.2 2.4 -1
v 0.3 2.4 -1
v 0.2 2.4 -1.1
v 0.3 2.4 -1.1
v 0.3 2.5 -0.2
v 0.4 2.5 -0.2
v 0.3 2.5 -0.3
v 0.4 2.5 -0.3
v 0 2.6 -0.3
v 0.1 2.6 -0.3
v 0.4 2.6 -0.3
v 0.5 2.6 -0.3
v 0 2.6 -0.4
v 0.1 2.6 -0.4
v 0.4 2.6 -0.4
v 0.5 2.6 -0.4
v 0 2.1 -0.1
v 0.1 2.1 -0.1
v 0 2.1 -0.2
v 0.1 2.1 -0.2
v 0.4 2.1 -0.6
v 0.5 2.1 -0.6
v 0.4 2.1 -0.8
v 0.5 2.1 -0.8
v 0.2 2.1 -1.4
v 0.3 2.1 -1.4
v 0.2 2.1 -1.7
v 0.3 2.1 -1.7
v 0 2.2 -0.2
v 0.1 2.2 -0.2
v 0 2.2 -0.3
v 0.1 2.2 -0.3
v 0 2.2 -0.4
v 0.1 2.2 -0.4
v 0.4 2.2 -0.8
v 0.5 2.2 -0.8
v 0.4 2.2 -0.9
v 0.5 2.2 -0.9
v 0 2.2 -1.1
v 0.1 2.2 -1.1
v 0 2.2 -1.2
v 0.1 2.2 -1.2
v 0.2 2.2 -1.3
v 0.3 2.2 -1.3
v 0.2 2.2 -1.4
v 0.3 2.2 -1.4
v 0.2 2.3 -0.2
v 0.3 2.3 -0.2
v 0.2 2.3 -0.3
v 0.3 2.3 -0.3
v 0.2 2.3 -0.4
v 0.3 2.3 -0.4
v 0.2 2.3 -0.6
v 0.3 2.3 -0.6
v 0.2 2.3 -0.7
v 0.3 2.3 -0.7
v 0.2 2.3 -0.8
v 0.3 2.3 -0.8
v 0.2 2.3 -1
v 0.3 2.3 -1
v 0.2 2.3 -1.1
v 0.3 2.3 -1.1
v 0.2 2.3 -1.2
v 0.3 2.3 -1.2
v 0.2 2.3 -1.3
v 0.3 2.3 -1.3
v 0.2 2.4 0
v 0.3 2.4 0
v 0.2 2.4 -0.1
v 0.3 2.4 -0.1
v 0.3 2.4 -0.2
v 0.4 2.4 -0.2
v 0.3 2.4 -0.3
v 0.4 2.4 -0.3
v 0 2.4 -0.4
v 0.1 2.4 -0.4
v 0.4 2.4 -0.4
v 0.5 2.4 -0.4
v 0 2.4 -0.6
v 0.1 2.4 -0.6
v 0.4 2.4 -0.6
v 0.5 2.4 -0.6
v 0 2.4 -0.9
v 0.1 2.4 -0.9
v 0.4 2.4 -0.9
v 0.5 2.4 -0.9
v 0 2.4 -1.1
v 0.1 2.4 -1.1
v 0.2 2.4 -1.1
v 0.3 2.4 -1.1
v 0.4 2.4 -1.1
v 0.5 2.4 -1.1
v 0.2 2.4 -1.2
v 0.3 2.4 -1.2
v 0.1 2.5 -0.1
v 0.4 2.5 -0.1
v 0 2.5 -0.2
v 0.1 2.5 -0.2
v 0.4 2.5 -0.2
v 0.5 2.5 -0.2
v 0 2.5 -0.3
v 0.1 2.5 -0.3
v 0.4 2.5 -0.3
v 0.5 2.5 -0.3
v 0.1 2.5 -0.4
v 0.4 2.5 -0.4
v 0.1 2.5 -1.1
v 0.4 2.5 -1.1
v 0.1 2.6 -0.2
v 0.4 2.6 -0.2
v 0.1 2.6 -0.3
v 0.4 2.6 -0.3
v 0.1 2.6 -0.4
v 0.4 2.6 -0.4
v 0 2.8 -0.3
v 0.1 2.8 -0.3
v 0.4 2.8 -0.3
v 0.5 2.8 -0.3
v 0 2.8 -0.4
v 0.1 2.8 -0.4
v 0.4 2.8 -0.4
v 0.5 2.8 -0.4

# faces
f 5/1/1 2/1/1 1/1/1
f 6/1/1 2/1/1 5/1/1
f 10/1/1 4/1/1 3/1/1
f 11/1/1 7/1/1 6/1/1
f 12/2/1 8/2/1 7/2/1
f 12/1/1 7/1/1 11/1/1
f 13/2/1 8/2/1 12/2/1
f 16/2/1 10/2/1 9/2/1
f 17/1/1 4/1/1 10/1/1
f 17/2/1 10/2/1 16/2/1
f 18/1/1 4/1/1 17/1/1
f 21/2/1 14/2/1 13/2/1
f 22/2/1 14/2/1 21/2/1
f 23/2/1 16/2/1 15/2/1
f 23/2/1 17/2/1 16/2/1
f 24/2/1 17/2/1 23/2/1
f 25/3/1 20/3/1 19/3/1
f 26/3/1 20/3/1 25/3/1
f 29/1/1 28/1/1 27/1/1
f 30/1/1 28/1/1 29/1/1
f 36/2/1 32/2/1 31/2/1
f 37/2/1 36/2/1 35/2/1
f 38/2/1 32/2/1 36/2/1
f 38/2/1 36/2/1 37/2/1
f 39/2/1 32/2/1 38/2/1
f 40/2/1 34/2/1 33/2/1
f 41/2/1 34/2/1 40/2/1
f 43/2/1 37/2/1 35/2/1
f 44/2/1 37/2/1 43/2/1
f 45/2/1 39/2/1 38/2/1
f 45/2/1 42/2/1 41/2/1
f 45/2/1 41/2/1 40/2/1
f 45/2/1 40/2/1 39/2/1
f 46/2/1 42/2/1 45/2/1
f 47/2/1 42/2/1 46/2/1
f 48/2/1 45/2/1 44/2/1
f 48/2/1 46/2/1 45/2/1
f 49/2/1 46/2/1 48/2/1
f 50/2/1 46/2/1 49/2/1
f 54/1/1 52/1/1 51/1/1
f 55/1/1 52/1/1 54/1/1
f 59/1/1 54/1/1 53/1/1
f 60/1/1 54/1/1 59/1/1
f 63/2/1 57/2/1 56/2/1
f 64/2/1 57/2/1 63/2/1
f 66/1/1 59/1/1 58/1/1
f 67/1/1 59/1/1 66/1/1
f 68/1/1 62/1/1 61/1/1
f 69/1/1 62/1/1 68/1/1
f 70/2/1 66/2/1 65/2/1
f 71/2/1 66/2/1 70/2/1
f 80/2/1 73/2/1 72/2/1
f 81/2/1 73/2/1 80/2/1
f 82/2/1 75/2/1 74/2/1
f 83/2/1 75/2/1 82/2/1
f 84/2/1 77/2/1 76/2/1
f 85/2/1 77/2/1 84/2/1
f 86/2/1 79/2/1 78/2/1
f 87/2/1 79/2/1 86/2/1
f 91/1/1 89/1/1 88/1/1
f 92/1/1 89/1/1 91/1/1
f 95/1/1 91/1/1 90/1/1
f 96/1/1 91/1/1 95/1/1
f 97/1/1 93/1/1 92/1/1
f 98/2/1 94/2/1 93/2/1
f 98/1/1 93/1/1 97/1/1
f 99/2/1 94/2/1 98/2/1
f 102/3/1 101/3/1 100/3/1
f 103/3/1 101/3/1 102/3/1
f 106/1/1 105/1/1 104/1/1
f 107/1/1 105/1/1 106/1/1
f 108/1/2 109/1/2 112/1/2
f 112/1/2 109/1/2 113/1/2
f 110/1/2 111/1/2 117/1/2
f 113/1/2 114/1/2 118/1/2
f 114/2/2 115/2/2 119/2/2
f 118/1/2 114/1/2 119/1/2
f 119/2/2 115/2/2 120/2/2
f 116/2/2 117/2/2 121/2/2
f 117/1/2 111/1/2 122/1/2
f 121/2/2 117/2/2 122/2/2
f 122/1/2 111/1/2 123/1/2
f 124/1/2 125/1/2 126/1/2
f 126/1/2 125/1/2 127/1/2
f 128/2/2 129/2/2 136/2/2
f 136/2/2 129/2/2 137/2/2
f 130/2/2 131/2/2 138/2/2
f 138/2/2 131/2/2 139/2/2
f 132/2/2 133/2/2 140/2/2
f 140/2/2 133/2/2 141/2/2
f 134/2/2 135/2/2 142/2/2
f 142/2/2 135/2/2 143/2/2
f 144/1/2 145/1/2 147/1/2
f 147/1/2 145/1/2 148/1/2
f 146/1/2 147/1/2 152/1/2
f 152/1/2 147/1/2 153/1/2
f 149/2/2 150/2/2 156/2/2
f 156/2/2 150/2/2 157/2/2
f 151/1/2 152/1/2 159/1/2
f 159/1/2 152/1/2 160/1/2
f 154/1/2 155/1/2 161/1/2
f 161/1/2 155/1/2 162/1/2
f 158/2/2 159/2/2 165/2/2
f 165/2/2 159/2/2 166/2/2
f 163/2/2 164/2/2 167/2/2
f 167/2/2 164/2/2 168/2/2
f 169/2/2 170/2/2 175/2/2
f 174/2/2 175/2/2 176/2/2
f 175/2/2 170/2/2 177/2/2
f 176/2/2 175/2/2 177/2/2
f 177/2/2 170/2/2 178/2/2
f 172/2/2 173/2/2 179/2/2
f 171/2/2 172/2/2 179/2/2
f 179/2/2 173/2/2 180/2/2
f 174/2/2 176/2/2 182/2/2
f 182/2/2 176/2/2 183/2/2
f 177/2/2 178/2/2 184/2/2
f 180/2/2 181/2/2 184/2/2
f 179/2/2 180/2/2 184/2/2
f 178/2/2 179/2/2 184/2/2
f 184/2/2 181/2/2 185/2/2
f 185/2/2 181/2/2 186/2/2
f 183/2/2 184/2/2 187/2/2
f 184/2/2 185/2/2 187/2/2
f 187/2/2 185/2/2 188/2/2
f 188/2/2 185/2/2 189/2/2
f 190/1/2 191/1/2 193/1/2
f 193/1/2 191/1/2 194/1/2
f 192/1/2 193/1/2 198/1/2
f 198/1/2 193/1/2 199/1/2
f 194/1/2 195/1/2 200/1/2
f 195/2/2 196/2/2 201/2/2
f 200/1/2 195/1/2 201/1/2
f 201/2/2 196/2/2 202/2/2
f 198/2/2 199/2/2 206/2/2
f 197/2/2 198/2/2 206/2/2
f 206/2/2 199/2/2 207/2/2
f 201/2/2 202/2/2 208/2/2
f 202/2/2 203/2/2 208/2/2
f 208/2/2 203/2/2 209/2/2
f 204/3/2 205/3/2 210/3/2
f 210/3/2 205/3/2 211/3/2
f 212/1/2 213/1/2 214/1/2
f 214/1/2 213/1/2 215/1/2
f 218/1/3 217/1/3 216/1/3
f 219/1/3 217/1/3 218/1/3
f 222/1/3 221/1/3 220/1/3
f 223/1/3 221/1/3 222/1/3
f 226/2/3 225/2/3 224/2/3
f 227/2/3 225/2/3 226/2/3
f 229/2/3 225/2/3 227/2/3
f 230/2/3 229/2/3 228/2/3
f 231/2/3 225/2/3 229/2/3
f 231/2/3 229/2/3 230/2/3
f 236/1/3 233/1/3 232/1/3
f 237/1/3 233/1/3 236/1/3
f 238/3/3 235/3/3 234/3/3
f 239/3/3 235/3/3 238/3/3
f 243/2/3 242/2/3 241/2/3
f 244/2/3 242/2/3 243/2/3
f 246/2/3 240/2/3 239/2/3
f 247/2/3 240/2/3 246/2/3
f 248/3/3 246/3/3 245/3/3
f 249/3/3 246/3/3 248/3/3
f 254/1/3 251/1/3 250/1/3
f 255/1/3 251/1/3 254/1/3
f 256/2/3 253/2/3 252/2/3
f 257/2/3 253/2/3 256/2/3
f 260/2/3 258/2/3 257/2/3
f 261/2/3 258/2/3 260/2/3
f 263/2/3 260/2/3 259/2/3
f 264/2/3 260/2/3 263/2/3
f 265/2/3 262/2/3 261/2/3
f 266/2/3 262/2/3 265/2/3
f 269/1/3 268/1/3 267/1/3
f 270/1/3 268/1/3 269/1/3
f 273/2/3 272/2/3 271/2/3
f 274/2/3 272/2/3 273/2/3
f 277/2/3 276/2/3 275/2/3
f 278/2/3 276/2/3 277/2/3
f 281/1/3 280/1/3 279/1/3
f 282/1/3 280/1/3 281/1/3
f 285/2/3 284/2/3 283/2/3
f 286/2/3 284/2/3 285/2/3
f 289/1/3 288/1/3 287/1/3
f 290/1/3 288/1/3 289/1/3
f 293/2/3 292/2/3 291/2/3
f 294/2/3 292/2/3 293/2/3
f 297/1/3 296/1/3 295/1/3
f 298/1/3 296/1/3 297/1/3
f 301/2/3 300/2/3 299/2/3
f 302/2/3 300/2/3 301/2/3
f 305/2/3 304/2/3 303/2/3
f 306/2/3 304/2/3 305/2/3
f 309/2/3 308/2/3 307/2/3
f 310/2/3 308/2/3 309/2/3
f 313/1/3 312/1/3 311/1/3
f 314/1/3 312/1/3 313/1/3
f 317/2/3 316/2/3 315/2/3
f 318/2/3 316/2/3 317/2/3
f 321/1/3 320/1/3 319/1/3
f 322/1/3 320/1/3 321/1/3
f 325/1/3 324/1/3 323/1/3
f 326/1/3 324/1/3 325/1/3
f 329/1/3 328/1/3 327/1/3
f 330/1/3 328/1/3 329/1/3
f 331/1/4 332/1/4 333/1/4
f 333/1/4 332/1/4 334/1/4
f 335/2/4 336/2/4 337/2/4
f 337/2/4 336/2/4 338/2/4
f 338/2/4 339/2/4 340/2/4
f 340/2/4 339/2/4 341/2/4
f 342/3/4 343/3/4 344/3/4
f 344/3/4 343/3/4 345/3/4
f 346/3/4 347/3/4 348/3/4
f 348/3/4 347/3/4 349/3/4
f 350/2/4 351/2/4 354/2/4
f 354/2/4 351/2/4 355/2/4
f 352/1/4 353/1/4 357/1/4
f 357/1/4 353/1/4 358/1/4
f 359/2/4 360/2/4 361/2/4
f 361/2/4 360/2/4 362/2/4
f 356/2/4 357/2/4 363/2/4
f 363/2/4 357/2/4 364/2/4
f 364/1/4 365/1/4 366/1/4
f 366/1/4 365/1/4 367/1/4
f 368/2/4 369/2/4 370/2/4
f 370/2/4 369/2/4 371/2/4
f 372/1/4 373/1/4 375/1/4
f 373/2/4 374/2/4 376/2/4
f 375/1/4 373/1/4 376/1/4
f 376/2/4 374/2/4 377/2/4
f 378/2/4 379/2/4 380/2/4
f 380/2/4 379/2/4 381/2/4
f 382/1/4 383/1/4 384/1/4
f 384/1/4 383/1/4 385/1/4
f 386/2/4 387/2/4 388/2/4
f 388/2/4 387/2/4 389/2/4
f 390/2/4 391/2/4 392/2/4
f 392/2/4 391/2/4 393/2/4
f 394/2/4 395/2/4 396/2/4
f 396/2/4 395/2/4 397/2/4
f 396/2/4 397/2/4 399/2/4
f 397/2/4 398/2/4 399/2/4
f 399/2/4 398/2/4 400/2/4
f 396/2/4 399/2/4 401/2/4
f 400/2/4 398/2/4 402/2/4
f 402/2/4 398/2/4 403/2/4
f 401/2/4 402/2/4 403/2/4
f 403/2/4 398/2/4 404/2/4
f 396/2/4 401/2/4 405/2/4
f 401/2/4 403/2/4 405/2/4
f 405/2/4 403/2/4 406/2/4
f 407/1/4 408/1/4 409/1/4
f 409/1/4 408/1/4 410/1/4
f 411/2/4 412/2/4 413/2/4
f 413/2/4 412/2/4 414/2/4
f 415/1/4 416/1/4 417/1/4
f 417/1/4 416/1/4 418/1/4
f 419/1/4 420/1/4 421/1/4
f 421/1/4 420/1/4 422/1/4
f 423/1/4 424/1/4 425/1/4
f 425/1/4 424/1/4 426/1/4
f 429/1/5 428/1/5 427/1/5
f 430/1/5 428/1/5 429/1/5
f 433/1/5 432/1/5 431/1/5
f 434/1/5 432/1/5 433/1/5
f 437/1/5 436/1/5 435/1/5
f 438/1/5 436/1/5 437/1/5
f 441/1/5 440/1/5 439/1/5
f 442/1/5 440/1/5 441/1/5
f 445/1/5 444/1/5 443/1/5
f 446/1/5 444/1/5 445/1/5
f 447/2/5 446/2/5 445/2/5
f 448/2/5 446/2/5 447/2/5
f 451/1/5 450/1/5 449/1/5
f 452/1/5 450/1/5 451/1/5
f 455/1/5 454/1/5 453/1/5
f 456/1/5 454/1/5 455/1/5
f 459/2/5 456/2/5 455/2/5
f 460/2/5 456/2/5 459/2/5
f 461/2/5 458/2/5 457/2/5
f 462/2/5 458/2/5 461/2/5
f 465/1/5 464/1/5 463/1/5
f 466/1/5 464/1/5 465/1/5
f 470/2/5 468/2/5 467/2/5
f 471/2/5 468/2/5 470/2/5
f 474/2/5 470/2/5 469/2/5
f 474/2/5 472/2/5 471/2/5
f 474/2/5 471/2/5 470/2/5
f 475/2/5 472/2/5 474/2/5
f 477/2/5 474/2/5 473/2/5
f 477/2/5 476/2/5 475/2/5
f 477/2/5 475/2/5 474/2/5
f 478/2/5 476/2/5 477/2/5
f 479/2/5 477/2/5 473/2/5
f 480/2/5 477/2/5 479/2/5
f 481/2/5 477/2/5 480/2/5
f 482/2/5 481/2/5 480/2/5
f 484/2/5 482/2/5 480/2/5
f 485/2/5 482/2/5 484/2/5
f 486/2/5 484/2/5 483/2/5
f 486/2/5 485/2/5 484/2/5
f 487/2/5 485/2/5 486/2/5
f 488/2/5 485/2/5 487/2/5
f 490/2/5 488/2/5 487/2/5
f 490/2/5 489/2/5 488/2/5
f 491/2/5 489/2/5 490/2/5
f 494/1/5 493/1/5 492/1/5
f 495/1/5 493/1/5 494/1/5
f 499/1/5 497/1/5 496/1/5
f 500/1/5 497/1/5 499/1/5
f 502/2/5 499/2/5 498/2/5
f 502/2/5 501/2/5 500/2/5
f 502/2/5 500/2/5 499/2/5
f 503/2/5 501/2/5 502/2/5
f 504/2/5 502/2/5 498/2/5
f 505/2/5 502/2/5 504/2/5
f 506/2/5 501/2/5 503/2/5
f 507/2/5 501/2/5 506/2/5
f 510/2/5 509/2/5 508/2/5
f 511/2/5 509/2/5 510/2/5
f 518/3/5 513/3/5 512/3/5
f 519/3/5 513/3/5 518/3/5
f 520/2/5 515/2/5 514/2/5
f 521/2/5 515/2/5 520/2/5
f 522/3/5 517/3/5 516/3/5
f 523/3/5 517/3/5 522/3/5
f 526/2/5 525/2/5 524/2/5
f 527/2/5 525/2/5 526/2/5
f 530/2/5 529/2/5 528/2/5
f 531/2/5 529/2/5 530/2/5
f 534/2/5 533/2/5 532/2/5
f 535/2/5 533/2/5 534/2/5
f 538/2/5 537/2/5 536/2/5
f 539/2/5 537/2/5 538/2/5
f 544/1/5 541/1/5 540/1/5
f 545/1/5 541/1/5 544/1/5
f 546/1/5 543/1/5 542/1/5
f 547/1/5 543/1/5 546/1/5
f 548/1/6 549/1/6 550/1/6
f 550/1/6 549/1/6 551/1/6
f 552/1/6 553/1/6 554/1/6
f 554/1/6 553/1/6 555/1/6
f 556/1/6 557/1/6 558/1/6
f 558/1/6 557/1/6 559/1/6
f 560/1/6 561/1/6 562/1/6
f 562/1/6 561/1/6 563/1/6
f 562/2/6 563/2/6 564/2/6
f 564/2/6 563/2/6 565/2/6
f 566/1/6 567/1/6 568/1/6
f 568/1/6 567/1/6 569/1/6
f 570/1/6 571/1/6 572/1/6
f 572/1/6 571/1/6 573/1/6
f 574/1/6 575/1/6 576/1/6
f 576/1/6 575/1/6 577/1/6
f 578/2/6 579/2/6 580/2/6
f 580/2/6 579/2/6 581/2/6
f 582/2/6 583/2/6 584/2/6
f 584/2/6 583/2/6 585/2/6
f 586/2/6 587/2/6 588/2/6
f 588/2/6 587/2/6 589/2/6
f 590/2/6 591/2/6 592/2/6
f 592/2/6 591/2/6 593/2/6
f 594/1/6 595/1/6 596/1/6
f 596/1/6 595/1/6 597/1/6
f 598/1/6 599/1/6 600/1/6
f 600/1/6 599/1/6 601/1/6
f 602/2/6 603/2/6 604/2/6
f 604/2/6 603/2/6 605/2/6
f 606/2/6 607/2/6 610/2/6
f 610/2/6 607/2/6 611/2/6
f 608/2/6 609/2/6 612/2/6
f 612/2/6 609/2/6 613/2/6
f 614/2/6 615/2/6 618/2/6
f 618/2/6 615/2/6 619/2/6
f 616/2/6 617/2/6 622/2/6
f 622/2/6 617/2/6 623/2/6
f 620/2/6 621/2/6 624/2/6
f 624/2/6 621/2/6 625/2/6
f 626/2/6 627/2/6 629/2/6
f 629/2/6 627/2/6 630/2/6
f 628/3/6 629/3/6 632/3/6
f 632/3/6 629/3/6 633/3/6
f 630/3/6 631/3/6 634/3/6
f 634/3/6 631/3/6 635/3/6
f 636/2/6 637/2/6 638/2/6
f 638/2/6 637/2/6 639/2/6
f 640/2/6 641/2/6 642/2/6
f 642/2/6 641/2/6 643/2/6
f 642/2/6 643/2/6 644/2/6
f 644/2/6 643/2/6 645/2/6
f 646/1/6 647/1/6 650/1/6
f 650/1/6 647/1/6 651/1/6
f 648/1/6 649/1/6 652/1/6
f 652/1/6 649/1/6 653/1/6
