# MagicaVoxel @ Ephtracy

# group
o 

# material
mtllib rat_walk_2.mtl
usemtl palette

# normals
vn -1 0 0
vn 1 0 0
vn 0 0 1
vn 0 0 -1
vn 0 -1 0
vn 0 1 0

# texcoords
vt 0.0292969 0.5
vt 0.982422 0.5
vt 0.994141 0.5

# verts
v 0 2 -0.6
v 0 2 -0.8
v 0 2.1 -0.5
v 0 2.1 -0.6
v 0 2.1 -0.8
v 0 2.1 -0.9
v 0 2.2 -0.4
v 0 2.2 -0.5
v 0 2.2 -0.6
v 0 2.2 -0.8
v 0 2.2 -0.9
v 0 2.2 -1.1
v 0 2.4 -0.2
v 0 2.4 -0.3
v 0 2.4 -0.4
v 0 2.4 -0.6
v 0 2.4 -0.9
v 0 2.4 -1.1
v 0 2.5 -0.2
v 0 2.5 -0.3
v 0 2.6 -0.3
v 0 2.6 -0.4
v 0 2.8 -0.3
v 0 2.8 -0.4
v 0.1 2.2 -0.3
v 0.1 2.2 -0.4
v 0.1 2.2 -0.6
v 0.1 2.2 -0.8
v 0.1 2.2 -0.9
v 0.1 2.3 -0.1
v 0.1 2.3 -0.3
v 0.1 2.4 -0.2
v 0.1 2.4 -0.3
v 0.1 2.4 -0.4
v 0.1 2.4 -0.6
v 0.1 2.4 -0.9
v 0.1 2.4 -1.1
v 0.1 2.5 -0.1
v 0.1 2.5 -0.2
v 0.1 2.5 -0.3
v 0.1 2.5 -0.4
v 0.1 2.5 -1.1
v 0.1 2.6 -0.2
v 0.1 2.6 -0.3
v 0.1 2.6 -0.4
v 0.2 2 -1.4
v 0.2 2 -1.7
v 0.2 2.1 -1.3
v 0.2 2.1 -1.4
v 0.2 2.1 -1.7
v 0.2 2.2 -0.2
v 0.2 2.2 -0.3
v 0.2 2.2 -1.2
v 0.2 2.2 -1.3
v 0.2 2.2 -1.4
v 0.2 2.3 0
v 0.2 2.3 -0.1
v 0.2 2.3 -0.2
v 0.2 2.3 -0.3
v 0.2 2.3 -1.1
v 0.2 2.3 -1.2
v 0.2 2.3 -1.3
v 0.2 2.4 0
v 0.2 2.4 -0.1
v 0.2 2.4 -1.1
v 0.2 2.4 -1.2
v 0.3 2.3 -0.2
v 0.3 2.3 -0.3
v 0.3 2.3 -0.4
v 0.3 2.3 -0.6
v 0.3 2.3 -0.7
v 0.3 2.3 -0.8
v 0.3 2.3 -1
v 0.3 2.3 -1.1
v 0.3 2.4 -0.2
v 0.3 2.4 -0.3
v 0.3 2.4 -0.4
v 0.3 2.4 -0.6
v 0.3 2.4 -0.7
v 0.3 2.4 -0.8
v 0.3 2.4 -1
v 0.3 2.4 -1.1
v 0.4 2 -0.1
v 0.4 2 -0.2
v 0.4 2 -1.1
v 0.4 2 -1.2
v 0.4 2.1 -0.1
v 0.4 2.1 -0.2
v 0.4 2.1 -0.3
v 0.4 2.1 -0.4
v 0.4 2.1 -1
v 0.4 2.1 -1.1
v 0.4 2.2 -0.2
v 0.4 2.2 -0.3
v 0.4 2.2 -0.4
v 0.4 2.2 -1
v 0.4 2.2 -1.1
v 0.4 2.2 -1.2
v 0.4 2.4 -0.2
v 0.4 2.4 -0.3
v 0.4 2.5 -0.2
v 0.4 2.5 -0.3
v 0.4 2.6 -0.3
v 0.4 2.6 -0.4
v 0.4 2.8 -0.3
v 0.4 2.8 -0.4
v 0.1 2 -0.6
v 0.1 2 -0.8
v 0.1 2.1 -0.5
v 0.1 2.1 -0.6
v 0.1 2.1 -0.8
v 0.1 2.1 -0.9
v 0.1 2.2 -0.5
v 0.1 2.2 -0.6
v 0.1 2.2 -0.8
v 0.1 2.2 -0.9
v 0.1 2.6 -0.3
v 0.1 2.6 -0.4
v 0.1 2.8 -0.3
v 0.1 2.8 -0.4
v 0.2 2.3 -0.2
v 0.2 2.3 -0.3
v 0.2 2.3 -0.4
v 0.2 2.3 -0.6
v 0.2 2.3 -0.7
v 0.2 2.3 -0.8
v 0.2 2.3 -1
v 0.2 2.3 -1.1
v 0.2 2.4 -0.2
v 0.2 2.4 -0.3
v 0.2 2.4 -0.4
v 0.2 2.4 -0.6
v 0.2 2.4 -0.7
v 0.2 2.4 -0.8
v 0.2 2.4 -1
v 0.2 2.4 -1.1
v 0.3 2 -1.4
v 0.3 2 -1.7
v 0.3 2.1 -1.3
v 0.3 2.1 -1.4
v 0.3 2.1 -1.7
v 0.3 2.2 -0.2
v 0.3 2.2 -0.3
v 0.3 2.2 -1.2
v 0.3 2.2 -1.3
v 0.3 2.2 -1.4
v 0.3 2.3 0
v 0.3 2.3 -0.1
v 0.3 2.3 -0.2
v 0.3 2.3 -0.3
v 0.3 2.3 -1.1
v 0.3 2.3 -1.2
v 0.3 2.3 -1.3
v 0.3 2.4 0
v 0.3 2.4 -0.1
v 0.3 2.4 -0.2
v 0.3 2.4 -0.3
v 0.3 2.4 -1.1
v 0.3 2.4 -1.2
v 0.3 2.5 -0.2
v 0.3 2.5 -0.3
v 0.4 2.2 -0.3
v 0.4 2.2 -0.4
v 0.4 2.2 -0.6
v 0.4 2.2 -0.9
v 0.4 2.3 -0.1
v 0.4 2.3 -0.3
v 0.4 2.4 -0.2
v 0.4 2.4 -0.3
v 0.4 2.4 -0.4
v 0.4 2.4 -0.6
v 0.4 2.4 -0.9
v 0.4 2.4 -1.1
v 0.4 2.5 -0.1
v 0.4 2.5 -0.2
v 0.4 2.5 -0.3
v 0.4 2.5 -0.4
v 0.4 2.5 -1.1
v 0.4 2.6 -0.2
v 0.4 2.6 -0.3
v 0.4 2.6 -0.4
v 0.5 2 -0.1
v 0.5 2 -0.2
v 0.5 2 -1.1
v 0.5 2 -1.2
v 0.5 2.1 -0.1
v 0.5 2.1 -0.2
v 0.5 2.1 -0.3
v 0.5 2.1 -0.4
v 0.5 2.1 -1
v 0.5 2.1 -1.1
v 0.5 2.2 -0.2
v 0.5 2.2 -0.3
v 0.5 2.2 -0.4
v 0.5 2.2 -0.6
v 0.5 2.2 -0.9
v 0.5 2.2 -1
v 0.5 2.2 -1.1
v 0.5 2.2 -1.2
v 0.5 2.4 -0.2
v 0.5 2.4 -0.3
v 0.5 2.4 -0.4
v 0.5 2.4 -0.6
v 0.5 2.4 -0.9
v 0.5 2.4 -1.1
v 0.5 2.5 -0.2
v 0.5 2.5 -0.3
v 0.5 2.6 -0.3
v 0.5 2.6 -0.4
v 0.5 2.8 -0.3
v 0.5 2.8 -0.4
v 0.2 2.3 0
v 0.2 2.4 0
v 0.3 2.3 0
v 0.3 2.4 0
v 0.1 2.3 -0.1
v 0.1 2.5 -0.1
v 0.2 2.3 -0.1
v 0.2 2.4 -0.1
v 0.3 2.3 -0.1
v 0.3 2.4 -0.1
v 0.4 2 -0.1
v 0.4 2.1 -0.1
v 0.4 2.3 -0.1
v 0.4 2.5 -0.1
v 0.5 2 -0.1
v 0.5 2.1 -0.1
v 0 2.4 -0.2
v 0 2.5 -0.2
v 0.1 2.4 -0.2
v 0.1 2.5 -0.2
v 0.1 2.6 -0.2
v 0.2 2.2 -0.2
v 0.2 2.3 -0.2
v 0.3 2.2 -0.2
v 0.3 2.3 -0.2
v 0.4 2.1 -0.2
v 0.4 2.2 -0.2
v 0.4 2.4 -0.2
v 0.4 2.5 -0.2
v 0.4 2.6 -0.2
v 0.5 2.1 -0.2
v 0.5 2.2 -0.2
v 0.5 2.4 -0.2
v 0.5 2.5 -0.2
v 0 2.6 -0.3
v 0 2.8 -0.3
v 0.1 2.2 -0.3
v 0.1 2.3 -0.3
v 0.1 2.6 -0.3
v 0.1 2.8 -0.3
v 0.2 2.2 -0.3
v 0.2 2.3 -0.3
v 0.2 2.4 -0.3
v 0.3 2.2 -0.3
v 0.3 2.3 -0.3
v 0.3 2.4 -0.3
v 0.3 2.5 -0.3
v 0.4 2.2 -0.3
v 0.4 2.3 -0.3
v 0.4 2.4 -0.3
v 0.4 2.5 -0.3
v 0.4 2.6 -0.3
v 0.4 2.8 -0.3
v 0.5 2.6 -0.3
v 0.5 2.8 -0.3
v 0 2.2 -0.4
v 0 2.4 -0.4
v 0.1 2.2 -0.4
v 0.1 2.4 -0.4
v 0.4 2.2 -0.4
v 0.4 2.4 -0.4
v 0.5 2.2 -0.4
v 0.5 2.4 -0.4
v 0 2.1 -0.5
v 0 2.2 -0.5
v 0.1 2.1 -0.5
v 0.1 2.2 -0.5
v 0 2 -0.6
v 0 2.1 -0.6
v 0.1 2 -0.6
v 0.1 2.1 -0.6
v 0.2 2.3 -0.6
v 0.2 2.4 -0.6
v 0.3 2.3 -0.6
v 0.3 2.4 -0.6
v 0 2.1 -0.8
v 0 2.2 -0.8
v 0.1 2.1 -0.8
v 0.1 2.2 -0.8
v 0.2 2.3 -0.8
v 0.2 2.4 -0.8
v 0.3 2.3 -0.8
v 0.3 2.4 -0.8
v 0 2.2 -0.9
v 0 2.4 -0.9
v 0.1 2.2 -0.9
v 0.1 2.4 -0.9
v 0.4 2.2 -0.9
v 0.4 2.4 -0.9
v 0.5 2.2 -0.9
v 0.5 2.4 -0.9
v 0.4 2.1 -1
v 0.4 2.2 -1
v 0.5 2.1 -1
v 0.5 2.2 -1
v 0.2 2.3 -1.1
v 0.2 2.4 -1.1
v 0.3 2.3 -1.1
v 0.3 2.4 -1.1
v 0.4 2 -1.1
v 0.4 2.1 -1.1
v 0.5 2 -1.1
v 0.5 2.1 -1.1
v 0.2 2.2 -1.2
v 0.2 2.3 -1.2
v 0.3 2.2 -1.2
v 0.3 2.3 -1.2
v 0.2 2.1 -1.3
v 0.2 2.2 -1.3
v 0.3 2.1 -1.3
v 0.3 2.2 -1.3
v 0.2 2 -1.4
v 0.2 2.1 -1.4
v 0.3 2 -1.4
v 0.3 2.1 -1.4
v 0.2 2.3 -0.2
v 0.2 2.4 -0.2
v 0.3 2.3 -0.2
v 0.3 2.4 -0.2
v 0.3 2.5 -0.2
v 0.4 2 -0.2
v 0.4 2.1 -0.2
v 0.4 2.4 -0.2
v 0.4 2.5 -0.2
v 0.5 2 -0.2
v 0.5 2.1 -0.2
v 0 2.4 -0.3
v 0 2.5 -0.3
v 0.1 2.4 -0.3
v 0.1 2.5 -0.3
v 0.4 2.4 -0.3
v 0.4 2.5 -0.3
v 0.5 2.4 -0.3
v 0.5 2.5 -0.3
v 0 2.6 -0.4
v 0 2.8 -0.4
v 0.1 2.5 -0.4
v 0.1 2.6 -0.4
v 0.1 2.8 -0.4
v 0.2 2.3 -0.4
v 0.2 2.4 -0.4
v 0.3 2.3 -0.4
v 0.3 2.4 -0.4
v 0.4 2.1 -0.4
v 0.4 2.2 -0.4
v 0.4 2.5 -0.4
v 0.4 2.6 -0.4
v 0.4 2.8 -0.4
v 0.5 2.1 -0.4
v 0.5 2.2 -0.4
v 0.5 2.6 -0.4
v 0.5 2.8 -0.4
v 0 2.1 -0.6
v 0 2.2 -0.6
v 0 2.4 -0.6
v 0.1 2.1 -0.6
v 0.1 2.2 -0.6
v 0.1 2.4 -0.6
v 0.4 2.2 -0.6
v 0.4 2.4 -0.6
v 0.5 2.2 -0.6
v 0.5 2.4 -0.6
v 0.2 2.3 -0.7
v 0.2 2.4 -0.7
v 0.3 2.3 -0.7
v 0.3 2.4 -0.7
v 0 2 -0.8
v 0 2.1 -0.8
v 0.1 2 -0.8
v 0.1 2.1 -0.8
v 0 2.1 -0.9
v 0 2.2 -0.9
v 0.1 2.1 -0.9
v 0.1 2.2 -0.9
v 0.2 2.3 -1
v 0.2 2.4 -1
v 0.3 2.3 -1
v 0.3 2.4 -1
v 0 2.2 -1.1
v 0 2.4 -1.1
v 0.1 2.4 -1.1
v 0.1 2.5 -1.1
v 0.2 2.3 -1.1
v 0.2 2.4 -1.1
v 0.3 2.3 -1.1
v 0.3 2.4 -1.1
v 0.4 2.2 -1.1
v 0.4 2.4 -1.1
v 0.4 2.5 -1.1
v 0.5 2.2 -1.1
v 0.5 2.4 -1.1
v 0.2 2.3 -1.2
v 0.2 2.4 -1.2
v 0.3 2.3 -1.2
v 0.3 2.4 -1.2
v 0.4 2 -1.2
v 0.4 2.2 -1.2
v 0.5 2 -1.2
v 0.5 2.2 -1.2
v 0.2 2.2 -1.3
v 0.2 2.3 -1.3
v 0.3 2.2 -1.3
v 0.3 2.3 -1.3
v 0.2 2.1 -1.4
v 0.2 2.2 -1.4
v 0.3 2.1 -1.4
v 0.3 2.2 -1.4
v 0.2 2 -1.7
v 0.2 2.1 -1.7
v 0.3 2 -1.7
v 0.3 2.1 -1.7
v 0.4 2 -0.1
v 0.5 2 -0.1
v 0.4 2 -0.2
v 0.5 2 -0.2
v 0 2 -0.6
v 0.1 2 -0.6
v 0 2 -0.8
v 0.1 2 -0.8
v 0.4 2 -1.1
v 0.5 2 -1.1
v 0.4 2 -1.2
v 0.5 2 -1.2
v 0.2 2 -1.4
v 0.3 2 -1.4
v 0.2 2 -1.7
v 0.3 2 -1.7
v 0.4 2.1 -0.2
v 0.5 2.1 -0.2
v 0.4 2.1 -0.3
v 0.5 2.1 -0.3
v 0.4 2.1 -0.4
v 0.5 2.1 -0.4
v 0 2.1 -0.5
v 0.1 2.1 -0.5
v 0 2.1 -0.6
v 0.1 2.1 -0.6
v 0 2.1 -0.8
v 0.1 2.1 -0.8
v 0 2.1 -0.9
v 0.1 2.1 -0.9
v 0.4 2.1 -1
v 0.5 2.1 -1
v 0.4 2.1 -1.1
v 0.5 2.1 -1.1
v 0.2 2.1 -1.3
v 0.3 2.1 -1.3
v 0.2 2.1 -1.4
v 0.3 2.1 -1.4
v 0.2 2.2 -0.2
v 0.3 2.2 -0.2
v 0.1 2.2 -0.3
v 0.2 2.2 -0.3
v 0.3 2.2 -0.3
v 0.4 2.2 -0.3
v 0 2.2 -0.4
v 0.1 2.2 -0.4
v 0.4 2.2 -0.4
v 0.5 2.2 -0.4
v 0 2.2 -0.5
v 0.1 2.2 -0.5
v 0.1 2.2 -0.6
v 0.4 2.2 -0.6
v 0.5 2.2 -0.6
v 0.1 2.2 -0.8
v 0 2.2 -0.9
v 0.1 2.2 -0.9
v 0.4 2.2 -0.9
v 0.5 2.2 -0.9
v 0.4 2.2 -1
v 0.5 2.2 -1
v 0 2.2 -1.1
v 0.4 2.2 -1.1
v 0.2 2.2 -1.2
v 0.3 2.2 -1.2
v 0.2 2.2 -1.3
v 0.3 2.2 -1.3
v 0.2 2.3 0
v 0.3 2.3 0
v 0.1 2.3 -0.1
v 0.2 2.3 -0.1
v 0.3 2.3 -0.1
v 0.4 2.3 -0.1
v 0.2 2.3 -0.2
v 0.3 2.3 -0.2
v 0.1 2.3 -0.3
v 0.2 2.3 -0.3
v 0.3 2.3 -0.3
v 0.4 2.3 -0.3
v 0.2 2.3 -1.1
v 0.3 2.3 -1.1
v 0.2 2.3 -1.2
v 0.3 2.3 -1.2
v 0 2.4 -0.2
v 0.1 2.4 -0.2
v 0.2 2.4 -0.2
v 0.3 2.4 -0.2
v 0.4 2.4 -0.2
v 0.5 2.4 -0.2
v 0 2.4 -0.3
v 0.1 2.4 -0.3
v 0.2 2.4 -0.3
v 0.3 2.4 -0.3
v 0.4 2.4 -0.3
v 0.5 2.4 -0.3
v 0.2 2.4 -0.4
v 0.3 2.4 -0.4
v 0.2 2.4 -0.6
v 0.3 2.4 -0.6
v 0.2 2.4 -0.7
v 0.3 2.4 -0.7
v 0.2 2.4 -0.8
v 0.3 2.4 -0.8
v 0.2 2.4 -1
v 0.3 2.4 -1
v 0.2 2.4 -1.1
v 0.3 2.4 -1.1
v 0.3 2.5 -0.2
v 0.4 2.5 -0.2
v 0.3 2.5 -0.3
v 0.4 2.5 -0.3
v 0 2.6 -0.3
v 0.1 2.6 -0.3
v 0.4 2.6 -0.3
v 0.5 2.6 -0.3
v 0 2.6 -0.4
v 0.1 2.6 -0.4
v 0.4 2.6 -0.4
v 0.5 2.6 -0.4
v 0.4 2.1 -0.1
v 0.5 2.1 -0.1
v 0.4 2.1 -0.2
v 0.5 2.1 -0.2
v 0 2.1 -0.6
v 0.1 2.1 -0.6
v 0 2.1 -0.8
v 0.1 2.1 -0.8
v 0.2 2.1 -1.4
v 0.3 2.1 -1.4
v 0.2 2.1 -1.7
v 0.3 2.1 -1.7
v 0.4 2.2 -0.2
v 0.5 2.2 -0.2
v 0.4 2.2 -0.3
v 0.5 2.2 -0.3
v 0.4 2.2 -0.4
v 0.5 2.2 -0.4
v 0 2.2 -0.8
v 0.1 2.2 -0.8
v 0 2.2 -0.9
v 0.1 2.2 -0.9
v 0.4 2.2 -1.1
v 0.5 2.2 -1.1
v 0.4 2.2 -1.2
v 0.5 2.2 -1.2
v 0.2 2.2 -1.3
v 0.3 2.2 -1.3
v 0.2 2.2 -1.4
v 0.3 2.2 -1.4
v 0.2 2.3 -0.2
v 0.3 2.3 -0.2
v 0.2 2.3 -0.3
v 0.3 2.3 -0.3
v 0.2 2.3 -0.4
v 0.3 2.3 -0.4
v 0.2 2.3 -0.6
v 0.3 2.3 -0.6
v 0.2 2.3 -0.7
v 0.3 2.3 -0.7
v 0.2 2.3 -0.8
v 0.3 2.3 -0.8
v 0.2 2.3 -1
v 0.3 2.3 -1
v 0.2 2.3 -1.1
v 0.3 2.3 -1.1
v 0.2 2.3 -1.2
v 0.3 2.3 -1.2
v 0.2 2.3 -1.3
v 0.3 2.3 -1.3
v 0.2 2.4 0
v 0.3 2.4 0
v 0.2 2.4 -0.1
v 0.3 2.4 -0.1
v 0.3 2.4 -0.2
v 0.4 2.4 -0.2
v 0.3 2.4 -0.3
v 0.4 2.4 -0.3
v 0 2.4 -0.4
v 0.1 2.4 -0.4
v 0.4 2.4 -0.4
v 0.5 2.4 -0.4
v 0 2.4 -0.6
v 0.1 2.4 -0.6
v 0.4 2.4 -0.6
v 0.5 2.4 -0.6
v 0 2.4 -0.9
v 0.1 2.4 -0.9
v 0.4 2.4 -0.9
v 0.5 2.4 -0.9
v 0 2.4 -1.1
v 0.1 2.4 -1.1
v 0.2 2.4 -1.1
v 0.3 2.4 -1.1
v 0.4 2.4 -1.1
v 0.5 2.4 -1.1
v 0.2 2.4 -1.2
v 0.3 2.4 -1.2
v 0.1 2.5 -0.1
v 0.4 2.5 -0.1
v 0 2.5 -0.2
v 0.1 2.5 -0.2
v 0.4 2.5 -0.2
v 0.5 2.5 -0.2
v 0 2.5 -0.3
v 0.1 2.5 -0.3
v 0.4 2.5 -0.3
v 0.5 2.5 -0.3
v 0.1 2.5 -0.4
v 0.4 2.5 -0.4
v 0.1 2.5 -1.1
v 0.4 2.5 -1.1
v 0.1 2.6 -0.2
v 0.4 2.6 -0.2
v 0.1 2.6 -0.3
v 0.4 2.6 -0.3
v 0.1 2.6 -0.4
v 0.4 2.6 -0.4
v 0 2.8 -0.3
v 0.1 2.8 -0.3
v 0.4 2.8 -0.3
v 0.5 2.8 -0.3
v 0 2.8 -0.4
v 0.1 2.8 -0.4
v 0.4 2.8 -0.4
v 0.5 2.8 -0.4

# faces
f 4/1/1 2/1/1 1/1/1
f 5/1/1 2/1/1 4/1/1
f 8/1/1 4/1/1 3/1/1
f 9/1/1 4/1/1 8/1/1
f 10/1/1 6/1/1 5/1/1
f 11/1/1 6/1/1 10/1/1
f 15/2/1 9/2/1 8/2/1
f 15/2/1 8/2/1 7/2/1
f 16/2/1 9/2/1 15/2/1
f 17/2/1 12/2/1 11/2/1
f 18/2/1 12/2/1 17/2/1
f 19/3/1 14/3/1 13/3/1
f 20/3/1 14/3/1 19/3/1
f 23/1/1 22/1/1 21/1/1
f 24/1/1 22/1/1 23/1/1
f 31/2/1 26/2/1 25/2/1
f 32/2/1 31/2/1 30/2/1
f 33/2/1 26/2/1 31/2/1
f 33/2/1 31/2/1 32/2/1
f 34/2/1 26/2/1 33/2/1
f 35/2/1 29/2/1 28/2/1
f 35/2/1 28/2/1 27/2/1
f 36/2/1 29/2/1 35/2/1
f 38/2/1 32/2/1 30/2/1
f 39/2/1 32/2/1 38/2/1
f 40/2/1 34/2/1 33/2/1
f 40/2/1 37/2/1 36/2/1
f 40/2/1 36/2/1 35/2/1
f 40/2/1 35/2/1 34/2/1
f 41/2/1 37/2/1 40/2/1
f 42/2/1 37/2/1 41/2/1
f 43/2/1 40/2/1 39/2/1
f 43/2/1 41/2/1 40/2/1
f 44/2/1 41/2/1 43/2/1
f 45/2/1 41/2/1 44/2/1
f 49/1/1 47/1/1 46/1/1
f 50/1/1 47/1/1 49/1/1
f 54/1/1 49/1/1 48/1/1
f 55/1/1 49/1/1 54/1/1
f 58/2/1 52/2/1 51/2/1
f 59/2/1 52/2/1 58/2/1
f 61/1/1 54/1/1 53/1/1
f 62/1/1 54/1/1 61/1/1
f 63/1/1 57/1/1 56/1/1
f 64/1/1 57/1/1 63/1/1
f 65/2/1 61/2/1 60/2/1
f 66/2/1 61/2/1 65/2/1
f 75/2/1 68/2/1 67/2/1
f 76/2/1 68/2/1 75/2/1
f 77/2/1 70/2/1 69/2/1
f 78/2/1 70/2/1 77/2/1
f 79/2/1 72/2/1 71/2/1
f 80/2/1 72/2/1 79/2/1
f 81/2/1 74/2/1 73/2/1
f 82/2/1 74/2/1 81/2/1
f 87/1/1 84/1/1 83/1/1
f 88/1/1 84/1/1 87/1/1
f 92/1/1 86/1/1 85/1/1
f 93/1/1 89/1/1 88/1/1
f 94/2/1 90/2/1 89/2/1
f 94/1/1 89/1/1 93/1/1
f 95/2/1 90/2/1 94/2/1
f 96/2/1 92/2/1 91/2/1
f 97/1/1 86/1/1 92/1/1
f 97/2/1 92/2/1 96/2/1
f 98/1/1 86/1/1 97/1/1
f 101/3/1 100/3/1 99/3/1
f 102/3/1 100/3/1 101/3/1
f 105/1/1 104/1/1 103/1/1
f 106/1/1 104/1/1 105/1/1
f 107/1/2 108/1/2 110/1/2
f 110/1/2 108/1/2 111/1/2
f 109/1/2 110/1/2 113/1/2
f 113/1/2 110/1/2 114/1/2
f 111/1/2 112/1/2 115/1/2
f 115/1/2 112/1/2 116/1/2
f 117/1/2 118/1/2 119/1/2
f 119/1/2 118/1/2 120/1/2
f 121/2/2 122/2/2 129/2/2
f 129/2/2 122/2/2 130/2/2
f 123/2/2 124/2/2 131/2/2
f 131/2/2 124/2/2 132/2/2
f 125/2/2 126/2/2 133/2/2
f 133/2/2 126/2/2 134/2/2
f 127/2/2 128/2/2 135/2/2
f 135/2/2 128/2/2 136/2/2
f 137/1/2 138/1/2 140/1/2
f 140/1/2 138/1/2 141/1/2
f 139/1/2 140/1/2 145/1/2
f 145/1/2 140/1/2 146/1/2
f 142/2/2 143/2/2 149/2/2
f 149/2/2 143/2/2 150/2/2
f 144/1/2 145/1/2 152/1/2
f 152/1/2 145/1/2 153/1/2
f 147/1/2 148/1/2 154/1/2
f 154/1/2 148/1/2 155/1/2
f 151/2/2 152/2/2 158/2/2
f 158/2/2 152/2/2 159/2/2
f 156/2/2 157/2/2 160/2/2
f 160/2/2 157/2/2 161/2/2
f 162/2/2 163/2/2 167/2/2
f 166/2/2 167/2/2 168/2/2
f 167/2/2 163/2/2 169/2/2
f 168/2/2 167/2/2 169/2/2
f 169/2/2 163/2/2 170/2/2
f 164/2/2 165/2/2 171/2/2
f 171/2/2 165/2/2 172/2/2
f 166/2/2 168/2/2 174/2/2
f 174/2/2 168/2/2 175/2/2
f 169/2/2 170/2/2 176/2/2
f 172/2/2 173/2/2 176/2/2
f 171/2/2 172/2/2 176/2/2
f 170/2/2 171/2/2 176/2/2
f 176/2/2 173/2/2 177/2/2
f 177/2/2 173/2/2 178/2/2
f 175/2/2 176/2/2 179/2/2
f 176/2/2 177/2/2 179/2/2
f 179/2/2 177/2/2 180/2/2
f 180/2/2 177/2/2 181/2/2
f 182/1/2 183/1/2 186/1/2
f 186/1/2 183/1/2 187/1/2
f 184/1/2 185/1/2 191/1/2
f 187/1/2 188/1/2 192/1/2
f 188/2/2 189/2/2 193/2/2
f 192/1/2 188/1/2 193/1/2
f 193/2/2 189/2/2 194/2/2
f 190/2/2 191/2/2 197/2/2
f 191/1/2 185/1/2 198/1/2
f 197/2/2 191/2/2 198/2/2
f 198/1/2 185/1/2 199/1/2
f 194/2/2 195/2/2 202/2/2
f 202/2/2 195/2/2 203/2/2
f 196/2/2 197/2/2 204/2/2
f 197/2/2 198/2/2 204/2/2
f 204/2/2 198/2/2 205/2/2
f 200/3/2 201/3/2 206/3/2
f 206/3/2 201/3/2 207/3/2
f 208/1/2 209/1/2 210/1/2
f 210/1/2 209/1/2 211/1/2
f 214/1/3 213/1/3 212/1/3
f 215/1/3 213/1/3 214/1/3
f 218/2/3 217/2/3 216/2/3
f 219/2/3 217/2/3 218/2/3
f 221/2/3 217/2/3 219/2/3
f 224/2/3 221/2/3 220/2/3
f 225/2/3 217/2/3 221/2/3
f 225/2/3 221/2/3 224/2/3
f 226/1/3 223/1/3 222/1/3
f 227/1/3 223/1/3 226/1/3
f 230/3/3 229/3/3 228/3/3
f 231/3/3 229/3/3 230/3/3
f 235/2/3 234/2/3 233/2/3
f 236/2/3 234/2/3 235/2/3
f 240/2/3 232/2/3 231/2/3
f 241/2/3 232/2/3 240/2/3
f 242/1/3 238/1/3 237/1/3
f 243/1/3 238/1/3 242/1/3
f 244/3/3 240/3/3 239/3/3
f 245/3/3 240/3/3 244/3/3
f 250/1/3 247/1/3 246/1/3
f 251/1/3 247/1/3 250/1/3
f 252/2/3 249/2/3 248/2/3
f 253/2/3 249/2/3 252/2/3
f 256/2/3 254/2/3 253/2/3
f 257/2/3 254/2/3 256/2/3
f 259/2/3 256/2/3 255/2/3
f 260/2/3 256/2/3 259/2/3
f 261/2/3 258/2/3 257/2/3
f 262/2/3 258/2/3 261/2/3
f 265/1/3 264/1/3 263/1/3
f 266/1/3 264/1/3 265/1/3
f 269/2/3 268/2/3 267/2/3
f 270/2/3 268/2/3 269/2/3
f 273/2/3 272/2/3 271/2/3
f 274/2/3 272/2/3 273/2/3
f 277/1/3 276/1/3 275/1/3
f 278/1/3 276/1/3 277/1/3
f 281/1/3 280/1/3 279/1/3
f 282/1/3 280/1/3 281/1/3
f 285/2/3 284/2/3 283/2/3
f 286/2/3 284/2/3 285/2/3
f 289/1/3 288/1/3 287/1/3
f 290/1/3 288/1/3 289/1/3
f 293/2/3 292/2/3 291/2/3
f 294/2/3 292/2/3 293/2/3
f 297/2/3 296/2/3 295/2/3
f 298/2/3 296/2/3 297/2/3
f 301/2/3 300/2/3 299/2/3
f 302/2/3 300/2/3 301/2/3
f 305/2/3 304/2/3 303/2/3
f 306/2/3 304/2/3 305/2/3
f 309/2/3 308/2/3 307/2/3
f 310/2/3 308/2/3 309/2/3
f 313/1/3 312/1/3 311/1/3
f 314/1/3 312/1/3 313/1/3
f 317/1/3 316/1/3 315/1/3
f 318/1/3 316/1/3 317/1/3
f 321/1/3 320/1/3 319/1/3
f 322/1/3 320/1/3 321/1/3
f 325/1/3 324/1/3 323/1/3
f 326/1/3 324/1/3 325/1/3
f 327/2/4 328/2/4 329/2/4
f 329/2/4 328/2/4 330/2/4
f 330/2/4 331/2/4 334/2/4
f 334/2/4 331/2/4 335/2/4
f 332/1/4 333/1/4 336/1/4
f 336/1/4 333/1/4 337/1/4
f 338/3/4 339/3/4 340/3/4
f 340/3/4 339/3/4 341/3/4
f 342/3/4 343/3/4 344/3/4
f 344/3/4 343/3/4 345/3/4
f 346/1/4 347/1/4 349/1/4
f 349/1/4 347/1/4 350/1/4
f 351/2/4 352/2/4 353/2/4
f 353/2/4 352/2/4 354/2/4
f 348/2/4 349/2/4 357/2/4
f 357/2/4 349/2/4 358/2/4
f 355/2/4 356/2/4 360/2/4
f 360/2/4 356/2/4 361/2/4
f 358/1/4 359/1/4 362/1/4
f 362/1/4 359/1/4 363/1/4
f 364/1/4 365/1/4 367/1/4
f 365/2/4 366/2/4 368/2/4
f 367/1/4 365/1/4 368/1/4
f 368/2/4 366/2/4 369/2/4
f 370/2/4 371/2/4 372/2/4
f 372/2/4 371/2/4 373/2/4
f 374/2/4 375/2/4 376/2/4
f 376/2/4 375/2/4 377/2/4
f 378/1/4 379/1/4 380/1/4
f 380/1/4 379/1/4 381/1/4
f 382/1/4 383/1/4 384/1/4
f 384/1/4 383/1/4 385/1/4
f 386/2/4 387/2/4 388/2/4
f 388/2/4 387/2/4 389/2/4
f 390/2/4 391/2/4 392/2/4
f 390/2/4 392/2/4 394/2/4
f 392/2/4 393/2/4 394/2/4
f 394/2/4 393/2/4 395/2/4
f 390/2/4 394/2/4 396/2/4
f 395/2/4 393/2/4 397/2/4
f 390/2/4 396/2/4 398/2/4
f 396/2/4 397/2/4 398/2/4
f 397/2/4 393/2/4 399/2/4
f 398/2/4 397/2/4 399/2/4
f 399/2/4 393/2/4 400/2/4
f 398/2/4 399/2/4 401/2/4
f 401/2/4 399/2/4 402/2/4
f 403/2/4 404/2/4 405/2/4
f 405/2/4 404/2/4 406/2/4
f 407/1/4 408/1/4 409/1/4
f 409/1/4 408/1/4 410/1/4
f 411/1/4 412/1/4 413/1/4
f 413/1/4 412/1/4 414/1/4
f 415/1/4 416/1/4 417/1/4
f 417/1/4 416/1/4 418/1/4
f 419/1/4 420/1/4 421/1/4
f 421/1/4 420/1/4 422/1/4
f 425/1/5 424/1/5 423/1/5
f 426/1/5 424/1/5 425/1/5
f 429/1/5 428/1/5 427/1/5
f 430/1/5 428/1/5 429/1/5
f 433/1/5 432/1/5 431/1/5
f 434/1/5 432/1/5 433/1/5
f 437/1/5 436/1/5 435/1/5
f 438/1/5 436/1/5 437/1/5
f 441/1/5 440/1/5 439/1/5
f 442/1/5 440/1/5 441/1/5
f 443/2/5 442/2/5 441/2/5
f 444/2/5 442/2/5 443/2/5
f 447/1/5 446/1/5 445/1/5
f 448/1/5 446/1/5 447/1/5
f 451/1/5 450/1/5 449/1/5
f 452/1/5 450/1/5 451/1/5
f 455/2/5 454/2/5 453/2/5
f 456/2/5 454/2/5 455/2/5
f 459/1/5 458/1/5 457/1/5
f 460/1/5 458/1/5 459/1/5
f 464/2/5 462/2/5 461/2/5
f 465/2/5 462/2/5 464/2/5
f 468/2/5 464/2/5 463/2/5
f 468/2/5 466/2/5 465/2/5
f 468/2/5 465/2/5 464/2/5
f 469/2/5 466/2/5 468/2/5
f 471/2/5 468/2/5 467/2/5
f 471/2/5 470/2/5 469/2/5
f 471/2/5 469/2/5 468/2/5
f 472/2/5 470/2/5 471/2/5
f 473/2/5 470/2/5 472/2/5
f 474/2/5 470/2/5 473/2/5
f 475/2/5 470/2/5 474/2/5
f 476/2/5 474/2/5 473/2/5
f 478/2/5 474/2/5 476/2/5
f 479/2/5 474/2/5 478/2/5
f 481/2/5 478/2/5 477/2/5
f 481/2/5 480/2/5 479/2/5
f 481/2/5 479/2/5 478/2/5
f 482/2/5 480/2/5 481/2/5
f 483/2/5 481/2/5 477/2/5
f 484/2/5 481/2/5 483/2/5
f 487/1/5 486/1/5 485/1/5
f 488/1/5 486/1/5 487/1/5
f 492/1/5 490/1/5 489/1/5
f 493/1/5 490/1/5 492/1/5
f 495/2/5 492/2/5 491/2/5
f 495/2/5 494/2/5 493/2/5
f 495/2/5 493/2/5 492/2/5
f 496/2/5 494/2/5 495/2/5
f 497/2/5 495/2/5 491/2/5
f 498/2/5 495/2/5 497/2/5
f 499/2/5 494/2/5 496/2/5
f 500/2/5 494/2/5 499/2/5
f 503/2/5 502/2/5 501/2/5
f 504/2/5 502/2/5 503/2/5
f 511/3/5 506/3/5 505/3/5
f 512/3/5 506/3/5 511/3/5
f 513/2/5 508/2/5 507/2/5
f 514/2/5 508/2/5 513/2/5
f 515/3/5 510/3/5 509/3/5
f 516/3/5 510/3/5 515/3/5
f 519/2/5 518/2/5 517/2/5
f 520/2/5 518/2/5 519/2/5
f 523/2/5 522/2/5 521/2/5
f 524/2/5 522/2/5 523/2/5
f 527/2/5 526/2/5 525/2/5
f 528/2/5 526/2/5 527/2/5
f 531/2/5 530/2/5 529/2/5
f 532/2/5 530/2/5 531/2/5
f 537/1/5 534/1/5 533/1/5
f 538/1/5 534/1/5 537/1/5
f 539/1/5 536/1/5 535/1/5
f 540/1/5 536/1/5 539/1/5
f 541/1/6 542/1/6 543/1/6
f 543/1/6 542/1/6 544/1/6
f 545/1/6 546/1/6 547/1/6
f 547/1/6 546/1/6 548/1/6
f 549/1/6 550/1/6 551/1/6
f 551/1/6 550/1/6 552/1/6
f 553/1/6 554/1/6 555/1/6
f 555/1/6 554/1/6 556/1/6
f 555/2/6 556/2/6 557/2/6
f 557/2/6 556/2/6 558/2/6
f 559/1/6 560/1/6 561/1/6
f 561/1/6 560/1/6 562/1/6
f 563/1/6 564/1/6 565/1/6
f 565/1/6 564/1/6 566/1/6
f 567/1/6 568/1/6 569/1/6
f 569/1/6 568/1/6 570/1/6
f 571/2/6 572/2/6 573/2/6
f 573/2/6 572/2/6 574/2/6
f 575/2/6 576/2/6 577/2/6
f 577/2/6 576/2/6 578/2/6
f 579/2/6 580/2/6 581/2/6
f 581/2/6 580/2/6 582/2/6
f 583/2/6 584/2/6 585/2/6
f 585/2/6 584/2/6 586/2/6
f 587/1/6 588/1/6 589/1/6
f 589/1/6 588/1/6 590/1/6
f 591/1/6 592/1/6 593/1/6
f 593/1/6 592/1/6 594/1/6
f 595/2/6 596/2/6 597/2/6
f 597/2/6 596/2/6 598/2/6
f 599/2/6 600/2/6 603/2/6
f 603/2/6 600/2/6 604/2/6
f 601/2/6 602/2/6 605/2/6
f 605/2/6 602/2/6 606/2/6
f 607/2/6 608/2/6 611/2/6
f 611/2/6 608/2/6 612/2/6
f 609/2/6 610/2/6 615/2/6
f 615/2/6 610/2/6 616/2/6
f 613/2/6 614/2/6 617/2/6
f 617/2/6 614/2/6 618/2/6
f 619/2/6 620/2/6 622/2/6
f 622/2/6 620/2/6 623/2/6
f 621/3/6 622/3/6 625/3/6
f 625/3/6 622/3/6 626/3/6
f 623/3/6 624/3/6 627/3/6
f 627/3/6 624/3/6 628/3/6
f 629/2/6 630/2/6 631/2/6
f 631/2/6 630/2/6 632/2/6
f 633/2/6 634/2/6 635/2/6
f 635/2/6 634/2/6 636/2/6
f 635/2/6 636/2/6 637/2/6
f 637/2/6 636/2/6 638/2/6
f 639/1/6 640/1/6 643/1/6
f 643/1/6 640/1/6 644/1/6
f 641/1/6 642/1/6 645/1/6
f 645/1/6 642/1/6 646/1/6
