# MagicaVoxel @ Ephtracy

# group
o 

# material
mtllib rat_walk_1.mtl
usemtl palette

# normals
vn -1 0 0
vn 1 0 0
vn 0 0 1
vn 0 0 -1
vn 0 -1 0
vn 0 1 0

# texcoords
vt 0.0292969 0.5
vt 0.982422 0.5
vt 0.994141 0.5

# verts
v 0 2 -0.4
v 0 2 -0.6
v 0 2 -0.9
v 0 2 -1.1
v 0 2.1 -0.4
v 0 2.1 -0.5
v 0 2.1 -0.6
v 0 2.1 -0.9
v 0 2.1 -1
v 0 2.1 -1.1
v 0 2.2 -0.9
v 0 2.2 -1
v 0 2.3 -0.4
v 0 2.3 -0.5
v 0 2.5 -0.2
v 0 2.5 -0.3
v 0 2.5 -0.4
v 0 2.5 -0.6
v 0 2.5 -0.9
v 0 2.5 -1.1
v 0 2.6 -0.2
v 0 2.6 -0.3
v 0 2.7 -0.3
v 0 2.7 -0.4
v 0 2.8 -0.3
v 0 2.8 -0.4
v 0 2.8 -0.5
v 0 2.9 -0.4
v 0 2.9 -0.5
v 0.1 2.3 -0.3
v 0.1 2.3 -0.4
v 0.1 2.3 -0.6
v 0.1 2.3 -0.9
v 0.1 2.4 -0.1
v 0.1 2.4 -0.3
v 0.1 2.5 -0.2
v 0.1 2.5 -0.3
v 0.1 2.5 -0.4
v 0.1 2.5 -0.6
v 0.1 2.5 -0.9
v 0.1 2.5 -1.1
v 0.1 2.6 -0.1
v 0.1 2.6 -0.2
v 0.1 2.6 -0.3
v 0.1 2.6 -0.4
v 0.1 2.6 -1.1
v 0.1 2.7 -0.2
v 0.1 2.7 -0.3
v 0.1 2.7 -0.4
v 0.2 2 -1.5
v 0.2 2 -1.7
v 0.2 2.1 -1.4
v 0.2 2.1 -1.5
v 0.2 2.1 -1.7
v 0.2 2.2 -1.3
v 0.2 2.2 -1.4
v 0.2 2.2 -1.5
v 0.2 2.3 -0.2
v 0.2 2.3 -0.3
v 0.2 2.3 -1.2
v 0.2 2.3 -1.3
v 0.2 2.3 -1.4
v 0.2 2.4 0
v 0.2 2.4 -0.1
v 0.2 2.4 -0.2
v 0.2 2.4 -0.3
v 0.2 2.4 -1.1
v 0.2 2.4 -1.2
v 0.2 2.4 -1.3
v 0.2 2.5 0
v 0.2 2.5 -0.1
v 0.2 2.5 -1.1
v 0.2 2.5 -1.2
v 0.3 2.4 -0.2
v 0.3 2.4 -0.3
v 0.3 2.4 -0.4
v 0.3 2.4 -0.6
v 0.3 2.4 -0.7
v 0.3 2.4 -0.8
v 0.3 2.4 -1
v 0.3 2.4 -1.1
v 0.3 2.5 -0.2
v 0.3 2.5 -0.3
v 0.3 2.5 -0.4
v 0.3 2.5 -0.6
v 0.3 2.5 -0.7
v 0.3 2.5 -0.8
v 0.3 2.5 -1
v 0.3 2.5 -1.1
v 0.4 2 -0.4
v 0.4 2 -0.6
v 0.4 2 -0.9
v 0.4 2 -1.1
v 0.4 2.1 -0.4
v 0.4 2.1 -0.5
v 0.4 2.1 -0.6
v 0.4 2.1 -0.9
v 0.4 2.1 -1
v 0.4 2.1 -1.1
v 0.4 2.2 -0.9
v 0.4 2.2 -1
v 0.4 2.3 -0.5
v 0.4 2.3 -0.6
v 0.4 2.3 -0.9
v 0.4 2.3 -1.1
v 0.4 2.5 -0.2
v 0.4 2.5 -0.3
v 0.4 2.6 -0.2
v 0.4 2.6 -0.3
v 0.4 2.7 -0.3
v 0.4 2.7 -0.4
v 0.4 2.8 -0.3
v 0.4 2.8 -0.4
v 0.4 2.8 -0.5
v 0.4 2.9 -0.4
v 0.4 2.9 -0.5
v 0.1 2 -0.4
v 0.1 2 -0.6
v 0.1 2 -0.9
v 0.1 2 -1.1
v 0.1 2.1 -0.4
v 0.1 2.1 -0.5
v 0.1 2.1 -0.6
v 0.1 2.1 -0.9
v 0.1 2.1 -1
v 0.1 2.1 -1.1
v 0.1 2.2 -0.9
v 0.1 2.2 -1
v 0.1 2.3 -0.5
v 0.1 2.3 -0.6
v 0.1 2.3 -0.9
v 0.1 2.3 -1.1
v 0.1 2.7 -0.3
v 0.1 2.7 -0.4
v 0.1 2.8 -0.3
v 0.1 2.8 -0.4
v 0.1 2.8 -0.5
v 0.1 2.9 -0.4
v 0.1 2.9 -0.5
v 0.2 2.4 -0.2
v 0.2 2.4 -0.3
v 0.2 2.4 -0.4
v 0.2 2.4 -0.6
v 0.2 2.4 -0.7
v 0.2 2.4 -0.8
v 0.2 2.4 -1
v 0.2 2.4 -1.1
v 0.2 2.5 -0.2
v 0.2 2.5 -0.3
v 0.2 2.5 -0.4
v 0.2 2.5 -0.6
v 0.2 2.5 -0.7
v 0.2 2.5 -0.8
v 0.2 2.5 -1
v 0.2 2.5 -1.1
v 0.3 2 -1.5
v 0.3 2 -1.7
v 0.3 2.1 -1.4
v 0.3 2.1 -1.5
v 0.3 2.1 -1.7
v 0.3 2.2 -1.3
v 0.3 2.2 -1.4
v 0.3 2.2 -1.5
v 0.3 2.3 -0.2
v 0.3 2.3 -0.3
v 0.3 2.3 -1.2
v 0.3 2.3 -1.3
v 0.3 2.3 -1.4
v 0.3 2.4 0
v 0.3 2.4 -0.1
v 0.3 2.4 -0.2
v 0.3 2.4 -0.3
v 0.3 2.4 -1.1
v 0.3 2.4 -1.2
v 0.3 2.4 -1.3
v 0.3 2.5 0
v 0.3 2.5 -0.1
v 0.3 2.5 -0.2
v 0.3 2.5 -0.3
v 0.3 2.5 -1.1
v 0.3 2.5 -1.2
v 0.3 2.6 -0.2
v 0.3 2.6 -0.3
v 0.4 2.3 -0.3
v 0.4 2.3 -0.4
v 0.4 2.3 -0.6
v 0.4 2.3 -0.9
v 0.4 2.4 -0.1
v 0.4 2.4 -0.3
v 0.4 2.5 -0.2
v 0.4 2.5 -0.3
v 0.4 2.5 -0.4
v 0.4 2.5 -0.6
v 0.4 2.5 -0.9
v 0.4 2.5 -1.1
v 0.4 2.6 -0.1
v 0.4 2.6 -0.2
v 0.4 2.6 -0.3
v 0.4 2.6 -0.4
v 0.4 2.6 -1.1
v 0.4 2.7 -0.2
v 0.4 2.7 -0.3
v 0.4 2.7 -0.4
v 0.5 2 -0.4
v 0.5 2 -0.6
v 0.5 2 -0.9
v 0.5 2 -1.1
v 0.5 2.1 -0.4
v 0.5 2.1 -0.5
v 0.5 2.1 -0.6
v 0.5 2.1 -0.9
v 0.5 2.1 -1
v 0.5 2.1 -1.1
v 0.5 2.2 -0.9
v 0.5 2.2 -1
v 0.5 2.3 -0.4
v 0.5 2.3 -0.5
v 0.5 2.5 -0.2
v 0.5 2.5 -0.3
v 0.5 2.5 -0.4
v 0.5 2.5 -0.6
v 0.5 2.5 -0.9
v 0.5 2.5 -1.1
v 0.5 2.6 -0.2
v 0.5 2.6 -0.3
v 0.5 2.7 -0.3
v 0.5 2.7 -0.4
v 0.5 2.8 -0.3
v 0.5 2.8 -0.4
v 0.5 2.8 -0.5
v 0.5 2.9 -0.4
v 0.5 2.9 -0.5
v 0.2 2.4 0
v 0.2 2.5 0
v 0.3 2.4 0
v 0.3 2.5 0
v 0.1 2.4 -0.1
v 0.1 2.6 -0.1
v 0.2 2.4 -0.1
v 0.2 2.5 -0.1
v 0.3 2.4 -0.1
v 0.3 2.5 -0.1
v 0.4 2.4 -0.1
v 0.4 2.6 -0.1
v 0 2.5 -0.2
v 0 2.6 -0.2
v 0.1 2.5 -0.2
v 0.1 2.6 -0.2
v 0.1 2.7 -0.2
v 0.2 2.3 -0.2
v 0.2 2.4 -0.2
v 0.3 2.3 -0.2
v 0.3 2.4 -0.2
v 0.4 2.5 -0.2
v 0.4 2.6 -0.2
v 0.4 2.7 -0.2
v 0.5 2.5 -0.2
v 0.5 2.6 -0.2
v 0 2.7 -0.3
v 0 2.8 -0.3
v 0.1 2.3 -0.3
v 0.1 2.4 -0.3
v 0.1 2.7 -0.3
v 0.1 2.8 -0.3
v 0.2 2.3 -0.3
v 0.2 2.4 -0.3
v 0.2 2.5 -0.3
v 0.3 2.3 -0.3
v 0.3 2.4 -0.3
v 0.3 2.5 -0.3
v 0.3 2.6 -0.3
v 0.4 2.3 -0.3
v 0.4 2.4 -0.3
v 0.4 2.5 -0.3
v 0.4 2.6 -0.3
v 0.4 2.7 -0.3
v 0.4 2.8 -0.3
v 0.5 2.7 -0.3
v 0.5 2.8 -0.3
v 0 2 -0.4
v 0 2.1 -0.4
v 0 2.3 -0.4
v 0 2.5 -0.4
v 0 2.8 -0.4
v 0 2.9 -0.4
v 0.1 2 -0.4
v 0.1 2.1 -0.4
v 0.1 2.3 -0.4
v 0.1 2.5 -0.4
v 0.1 2.8 -0.4
v 0.1 2.9 -0.4
v 0.4 2 -0.4
v 0.4 2.1 -0.4
v 0.4 2.3 -0.4
v 0.4 2.5 -0.4
v 0.4 2.8 -0.4
v 0.4 2.9 -0.4
v 0.5 2 -0.4
v 0.5 2.1 -0.4
v 0.5 2.3 -0.4
v 0.5 2.5 -0.4
v 0.5 2.8 -0.4
v 0.5 2.9 -0.4
v 0 2.1 -0.5
v 0 2.3 -0.5
v 0.1 2.1 -0.5
v 0.1 2.3 -0.5
v 0.4 2.1 -0.5
v 0.4 2.3 -0.5
v 0.5 2.1 -0.5
v 0.5 2.3 -0.5
v 0.2 2.4 -0.6
v 0.2 2.5 -0.6
v 0.3 2.4 -0.6
v 0.3 2.5 -0.6
v 0.2 2.4 -0.8
v 0.2 2.5 -0.8
v 0.3 2.4 -0.8
v 0.3 2.5 -0.8
v 0 2 -0.9
v 0 2.1 -0.9
v 0 2.2 -0.9
v 0 2.5 -0.9
v 0.1 2 -0.9
v 0.1 2.1 -0.9
v 0.1 2.2 -0.9
v 0.1 2.3 -0.9
v 0.1 2.5 -0.9
v 0.4 2 -0.9
v 0.4 2.1 -0.9
v 0.4 2.2 -0.9
v 0.4 2.3 -0.9
v 0.4 2.5 -0.9
v 0.5 2 -0.9
v 0.5 2.1 -0.9
v 0.5 2.2 -0.9
v 0.5 2.5 -0.9
v 0 2.1 -1
v 0 2.2 -1
v 0.1 2.1 -1
v 0.1 2.2 -1
v 0.4 2.1 -1
v 0.4 2.2 -1
v 0.5 2.1 -1
v 0.5 2.2 -1
v 0.2 2.4 -1.1
v 0.2 2.5 -1.1
v 0.3 2.4 -1.1
v 0.3 2.5 -1.1
v 0.2 2.3 -1.2
v 0.2 2.4 -1.2
v 0.3 2.3 -1.2
v 0.3 2.4 -1.2
v 0.2 2.2 -1.3
v 0.2 2.3 -1.3
v 0.3 2.2 -1.3
v 0.3 2.3 -1.3
v 0.2 2.1 -1.4
v 0.2 2.2 -1.4
v 0.3 2.1 -1.4
v 0.3 2.2 -1.4
v 0.2 2 -1.5
v 0.2 2.1 -1.5
v 0.3 2 -1.5
v 0.3 2.1 -1.5
v 0.2 2.4 -0.2
v 0.2 2.5 -0.2
v 0.3 2.4 -0.2
v 0.3 2.5 -0.2
v 0.3 2.6 -0.2
v 0.4 2.5 -0.2
v 0.4 2.6 -0.2
v 0 2.5 -0.3
v 0 2.6 -0.3
v 0.1 2.5 -0.3
v 0.1 2.6 -0.3
v 0.4 2.5 -0.3
v 0.4 2.6 -0.3
v 0.5 2.5 -0.3
v 0.5 2.6 -0.3
v 0 2.7 -0.4
v 0 2.8 -0.4
v 0.1 2.6 -0.4
v 0.1 2.7 -0.4
v 0.1 2.8 -0.4
v 0.2 2.4 -0.4
v 0.2 2.5 -0.4
v 0.3 2.4 -0.4
v 0.3 2.5 -0.4
v 0.4 2.6 -0.4
v 0.4 2.7 -0.4
v 0.4 2.8 -0.4
v 0.5 2.7 -0.4
v 0.5 2.8 -0.4
v 0 2.8 -0.5
v 0 2.9 -0.5
v 0.1 2.8 -0.5
v 0.1 2.9 -0.5
v 0.4 2.8 -0.5
v 0.4 2.9 -0.5
v 0.5 2.8 -0.5
v 0.5 2.9 -0.5
v 0 2 -0.6
v 0 2.1 -0.6
v 0 2.5 -0.6
v 0.1 2 -0.6
v 0.1 2.1 -0.6
v 0.1 2.3 -0.6
v 0.1 2.5 -0.6
v 0.4 2 -0.6
v 0.4 2.1 -0.6
v 0.4 2.3 -0.6
v 0.4 2.5 -0.6
v 0.5 2 -0.6
v 0.5 2.1 -0.6
v 0.5 2.5 -0.6
v 0.2 2.4 -0.7
v 0.2 2.5 -0.7
v 0.3 2.4 -0.7
v 0.3 2.5 -0.7
v 0.2 2.4 -1
v 0.2 2.5 -1
v 0.3 2.4 -1
v 0.3 2.5 -1
v 0 2 -1.1
v 0 2.1 -1.1
v 0 2.5 -1.1
v 0.1 2 -1.1
v 0.1 2.1 -1.1
v 0.1 2.3 -1.1
v 0.1 2.5 -1.1
v 0.1 2.6 -1.1
v 0.2 2.4 -1.1
v 0.2 2.5 -1.1
v 0.3 2.4 -1.1
v 0.3 2.5 -1.1
v 0.4 2 -1.1
v 0.4 2.1 -1.1
v 0.4 2.3 -1.1
v 0.4 2.5 -1.1
v 0.4 2.6 -1.1
v 0.5 2 -1.1
v 0.5 2.1 -1.1
v 0.5 2.5 -1.1
v 0.2 2.4 -1.2
v 0.2 2.5 -1.2
v 0.3 2.4 -1.2
v 0.3 2.5 -1.2
v 0.2 2.3 -1.3
v 0.2 2.4 -1.3
v 0.3 2.3 -1.3
v 0.3 2.4 -1.3
v 0.2 2.2 -1.4
v 0.2 2.3 -1.4
v 0.3 2.2 -1.4
v 0.3 2.3 -1.4
v 0.2 2.1 -1.5
v 0.2 2.2 -1.5
v 0.3 2.1 -1.5
v 0.3 2.2 -1.5
v 0.2 2 -1.7
v 0.2 2.1 -1.7
v 0.3 2 -1.7
v 0.3 2.1 -1.7
v 0 2 -0.4
v 0.1 2 -0.4
v 0.4 2 -0.4
v 0.5 2 -0.4
v 0 2 -0.6
v 0.1 2 -0.6
v 0.4 2 -0.6
v 0.5 2 -0.6
v 0 2 -0.9
v 0.1 2 -0.9
v 0.4 2 -0.9
v 0.5 2 -0.9
v 0 2 -1.1
v 0.1 2 -1.1
v 0.4 2 -1.1
v 0.5 2 -1.1
v 0.2 2 -1.5
v 0.3 2 -1.5
v 0.2 2 -1.7
v 0.3 2 -1.7
v 0.2 2.1 -1.4
v 0.3 2.1 -1.4
v 0.2 2.1 -1.5
v 0.3 2.1 -1.5
v 0 2.2 -0.9
v 0.1 2.2 -0.9
v 0.4 2.2 -0.9
v 0.5 2.2 -0.9
v 0 2.2 -1
v 0.1 2.2 -1
v 0.4 2.2 -1
v 0.5 2.2 -1
v 0.2 2.2 -1.3
v 0.3 2.2 -1.3
v 0.2 2.2 -1.4
v 0.3 2.2 -1.4
v 0.2 2.3 -0.2
v 0.3 2.3 -0.2
v 0.1 2.3 -0.3
v 0.2 2.3 -0.3
v 0.3 2.3 -0.3
v 0.4 2.3 -0.3
v 0 2.3 -0.4
v 0.1 2.3 -0.4
v 0.4 2.3 -0.4
v 0.5 2.3 -0.4
v 0 2.3 -0.5
v 0.1 2.3 -0.5
v 0.4 2.3 -0.5
v 0.5 2.3 -0.5
v 0.1 2.3 -0.6
v 0.4 2.3 -0.6
v 0.1 2.3 -0.9
v 0.4 2.3 -0.9
v 0.1 2.3 -1.1
v 0.4 2.3 -1.1
v 0.2 2.3 -1.2
v 0.3 2.3 -1.2
v 0.2 2.3 -1.3
v 0.3 2.3 -1.3
v 0.2 2.4 0
v 0.3 2.4 0
v 0.1 2.4 -0.1
v 0.2 2.4 -0.1
v 0.3 2.4 -0.1
v 0.4 2.4 -0.1
v 0.2 2.4 -0.2
v 0.3 2.4 -0.2
v 0.1 2.4 -0.3
v 0.2 2.4 -0.3
v 0.3 2.4 -0.3
v 0.4 2.4 -0.3
v 0.2 2.4 -1.1
v 0.3 2.4 -1.1
v 0.2 2.4 -1.2
v 0.3 2.4 -1.2
v 0 2.5 -0.2
v 0.1 2.5 -0.2
v 0.2 2.5 -0.2
v 0.3 2.5 -0.2
v 0.4 2.5 -0.2
v 0.5 2.5 -0.2
v 0 2.5 -0.3
v 0.1 2.5 -0.3
v 0.2 2.5 -0.3
v 0.3 2.5 -0.3
v 0.4 2.5 -0.3
v 0.5 2.5 -0.3
v 0.2 2.5 -0.4
v 0.3 2.5 -0.4
v 0.2 2.5 -0.6
v 0.3 2.5 -0.6
v 0.2 2.5 -0.7
v 0.3 2.5 -0.7
v 0.2 2.5 -0.8
v 0.3 2.5 -0.8
v 0.2 2.5 -1
v 0.3 2.5 -1
v 0.2 2.5 -1.1
v 0.3 2.5 -1.1
v 0.3 2.6 -0.2
v 0.4 2.6 -0.2
v 0.3 2.6 -0.3
v 0.4 2.6 -0.3
v 0 2.7 -0.3
v 0.1 2.7 -0.3
v 0.4 2.7 -0.3
v 0.5 2.7 -0.3
v 0 2.7 -0.4
v 0.1 2.7 -0.4
v 0.4 2.7 -0.4
v 0.5 2.7 -0.4
v 0 2.8 -0.4
v 0.1 2.8 -0.4
v 0.4 2.8 -0.4
v 0.5 2.8 -0.4
v 0 2.8 -0.5
v 0.1 2.8 -0.5
v 0.4 2.8 -0.5
v 0.5 2.8 -0.5
v 0 2.1 -0.4
v 0.1 2.1 -0.4
v 0.4 2.1 -0.4
v 0.5 2.1 -0.4
v 0 2.1 -0.5
v 0.1 2.1 -0.5
v 0.4 2.1 -0.5
v 0.5 2.1 -0.5
v 0 2.1 -0.9
v 0.1 2.1 -0.9
v 0.4 2.1 -0.9
v 0.5 2.1 -0.9
v 0 2.1 -1
v 0.1 2.1 -1
v 0.4 2.1 -1
v 0.5 2.1 -1
v 0.2 2.1 -1.5
v 0.3 2.1 -1.5
v 0.2 2.1 -1.7
v 0.3 2.1 -1.7
v 0.2 2.2 -1.4
v 0.3 2.2 -1.4
v 0.2 2.2 -1.5
v 0.3 2.2 -1.5
v 0.2 2.3 -1.3
v 0.3 2.3 -1.3
v 0.2 2.3 -1.4
v 0.3 2.3 -1.4
v 0.2 2.4 -0.2
v 0.3 2.4 -0.2
v 0.2 2.4 -0.3
v 0.3 2.4 -0.3
v 0.2 2.4 -0.4
v 0.3 2.4 -0.4
v 0.2 2.4 -0.6
v 0.3 2.4 -0.6
v 0.2 2.4 -0.7
v 0.3 2.4 -0.7
v 0.2 2.4 -0.8
v 0.3 2.4 -0.8
v 0.2 2.4 -1
v 0.3 2.4 -1
v 0.2 2.4 -1.1
v 0.3 2.4 -1.1
v 0.2 2.4 -1.2
v 0.3 2.4 -1.2
v 0.2 2.4 -1.3
v 0.3 2.4 -1.3
v 0.2 2.5 0
v 0.3 2.5 0
v 0.2 2.5 -0.1
v 0.3 2.5 -0.1
v 0.3 2.5 -0.2
v 0.4 2.5 -0.2
v 0.3 2.5 -0.3
v 0.4 2.5 -0.3
v 0 2.5 -0.4
v 0.1 2.5 -0.4
v 0.4 2.5 -0.4
v 0.5 2.5 -0.4
v 0 2.5 -0.6
v 0.1 2.5 -0.6
v 0.4 2.5 -0.6
v 0.5 2.5 -0.6
v 0 2.5 -0.9
v 0.1 2.5 -0.9
v 0.4 2.5 -0.9
v 0.5 2.5 -0.9
v 0 2.5 -1.1
v 0.1 2.5 -1.1
v 0.2 2.5 -1.1
v 0.3 2.5 -1.1
v 0.4 2.5 -1.1
v 0.5 2.5 -1.1
v 0.2 2.5 -1.2
v 0.3 2.5 -1.2
v 0.1 2.6 -0.1
v 0.4 2.6 -0.1
v 0 2.6 -0.2
v 0.1 2.6 -0.2
v 0.4 2.6 -0.2
v 0.5 2.6 -0.2
v 0 2.6 -0.3
v 0.1 2.6 -0.3
v 0.4 2.6 -0.3
v 0.5 2.6 -0.3
v 0.1 2.6 -0.4
v 0.4 2.6 -0.4
v 0.1 2.6 -1.1
v 0.4 2.6 -1.1
v 0.1 2.7 -0.2
v 0.4 2.7 -0.2
v 0.1 2.7 -0.3
v 0.4 2.7 -0.3
v 0.1 2.7 -0.4
v 0.4 2.7 -0.4
v 0 2.8 -0.3
v 0.1 2.8 -0.3
v 0.4 2.8 -0.3
v 0.5 2.8 -0.3
v 0 2.8 -0.4
v 0.1 2.8 -0.4
v 0.4 2.8 -0.4
v 0.5 2.8 -0.4
v 0 2.9 -0.4
v 0.1 2.9 -0.4
v 0.4 2.9 -0.4
v 0.5 2.9 -0.4
v 0 2.9 -0.5
v 0.1 2.9 -0.5
v 0.4 2.9 -0.5
v 0.5 2.9 -0.5

# faces
f 5/1/1 2/1/1 1/1/1
f 6/1/1 2/1/1 5/1/1
f 7/1/1 2/1/1 6/1/1
f 8/1/1 4/1/1 3/1/1
f 9/1/1 4/1/1 8/1/1
f 10/1/1 4/1/1 9/1/1
f 12/2/1 10/2/1 9/2/1
f 14/2/1 7/2/1 6/2/1
f 17/2/1 14/2/1 13/2/1
f 18/2/1 7/2/1 14/2/1
f 18/2/1 14/2/1 17/2/1
f 19/2/1 12/2/1 11/2/1
f 20/2/1 10/2/1 12/2/1
f 20/2/1 12/2/1 19/2/1
f 21/3/1 16/3/1 15/3/1
f 22/3/1 16/3/1 21/3/1
f 25/1/1 24/1/1 23/1/1
f 26/1/1 24/1/1 25/1/1
f 28/1/1 27/1/1 26/1/1
f 29/1/1 27/1/1 28/1/1
f 35/2/1 31/2/1 30/2/1
f 36/2/1 35/2/1 34/2/1
f 37/2/1 31/2/1 35/2/1
f 37/2/1 35/2/1 36/2/1
f 38/2/1 31/2/1 37/2/1
f 39/2/1 33/2/1 32/2/1
f 40/2/1 33/2/1 39/2/1
f 42/2/1 36/2/1 34/2/1
f 43/2/1 36/2/1 42/2/1
f 44/2/1 38/2/1 37/2/1
f 44/2/1 41/2/1 40/2/1
f 44/2/1 40/2/1 39/2/1
f 44/2/1 39/2/1 38/2/1
f 45/2/1 41/2/1 44/2/1
f 46/2/1 41/2/1 45/2/1
f 47/2/1 44/2/1 43/2/1
f 47/2/1 45/2/1 44/2/1
f 48/2/1 45/2/1 47/2/1
f 49/2/1 45/2/1 48/2/1
f 53/1/1 51/1/1 50/1/1
f 54/1/1 51/1/1 53/1/1
f 56/1/1 53/1/1 52/1/1
f 57/1/1 53/1/1 56/1/1
f 61/1/1 56/1/1 55/1/1
f 62/1/1 56/1/1 61/1/1
f 65/2/1 59/2/1 58/2/1
f 66/2/1 59/2/1 65/2/1
f 68/1/1 61/1/1 60/1/1
f 69/1/1 61/1/1 68/1/1
f 70/1/1 64/1/1 63/1/1
f 71/1/1 64/1/1 70/1/1
f 72/2/1 68/2/1 67/2/1
f 73/2/1 68/2/1 72/2/1
f 82/2/1 75/2/1 74/2/1
f 83/2/1 75/2/1 82/2/1
f 84/2/1 77/2/1 76/2/1
f 85/2/1 77/2/1 84/2/1
f 86/2/1 79/2/1 78/2/1
f 87/2/1 79/2/1 86/2/1
f 88/2/1 81/2/1 80/2/1
f 89/2/1 81/2/1 88/2/1
f 94/1/1 91/1/1 90/1/1
f 95/1/1 91/1/1 94/1/1
f 96/1/1 91/1/1 95/1/1
f 97/1/1 93/1/1 92/1/1
f 98/1/1 93/1/1 97/1/1
f 99/1/1 93/1/1 98/1/1
f 101/2/1 99/2/1 98/2/1
f 102/2/1 96/2/1 95/2/1
f 103/2/1 96/2/1 102/2/1
f 104/2/1 101/2/1 100/2/1
f 105/2/1 99/2/1 101/2/1
f 105/2/1 101/2/1 104/2/1
f 108/3/1 107/3/1 106/3/1
f 109/3/1 107/3/1 108/3/1
f 112/1/1 111/1/1 110/1/1
f 113/1/1 111/1/1 112/1/1
f 115/1/1 114/1/1 113/1/1
f 116/1/1 114/1/1 115/1/1
f 117/1/2 118/1/2 121/1/2
f 121/1/2 118/1/2 122/1/2
f 122/1/2 118/1/2 123/1/2
f 119/1/2 120/1/2 124/1/2
f 124/1/2 120/1/2 125/1/2
f 125/1/2 120/1/2 126/1/2
f 125/2/2 126/2/2 128/2/2
f 122/2/2 123/2/2 129/2/2
f 129/2/2 123/2/2 130/2/2
f 127/2/2 128/2/2 131/2/2
f 128/2/2 126/2/2 132/2/2
f 131/2/2 128/2/2 132/2/2
f 133/1/2 134/1/2 135/1/2
f 135/1/2 134/1/2 136/1/2
f 136/1/2 137/1/2 138/1/2
f 138/1/2 137/1/2 139/1/2
f 140/2/2 141/2/2 148/2/2
f 148/2/2 141/2/2 149/2/2
f 142/2/2 143/2/2 150/2/2
f 150/2/2 143/2/2 151/2/2
f 144/2/2 145/2/2 152/2/2
f 152/2/2 145/2/2 153/2/2
f 146/2/2 147/2/2 154/2/2
f 154/2/2 147/2/2 155/2/2
f 156/1/2 157/1/2 159/1/2
f 159/1/2 157/1/2 160/1/2
f 158/1/2 159/1/2 162/1/2
f 162/1/2 159/1/2 163/1/2
f 161/1/2 162/1/2 167/1/2
f 167/1/2 162/1/2 168/1/2
f 164/2/2 165/2/2 171/2/2
f 171/2/2 165/2/2 172/2/2
f 166/1/2 167/1/2 174/1/2
f 174/1/2 167/1/2 175/1/2
f 169/1/2 170/1/2 176/1/2
f 176/1/2 170/1/2 177/1/2
f 173/2/2 174/2/2 180/2/2
f 180/2/2 174/2/2 181/2/2
f 178/2/2 179/2/2 182/2/2
f 182/2/2 179/2/2 183/2/2
f 184/2/2 185/2/2 189/2/2
f 188/2/2 189/2/2 190/2/2
f 189/2/2 185/2/2 191/2/2
f 190/2/2 189/2/2 191/2/2
f 191/2/2 185/2/2 192/2/2
f 186/2/2 187/2/2 193/2/2
f 193/2/2 187/2/2 194/2/2
f 188/2/2 190/2/2 196/2/2
f 196/2/2 190/2/2 197/2/2
f 191/2/2 192/2/2 198/2/2
f 194/2/2 195/2/2 198/2/2
f 193/2/2 194/2/2 198/2/2
f 192/2/2 193/2/2 198/2/2
f 198/2/2 195/2/2 199/2/2
f 199/2/2 195/2/2 200/2/2
f 197/2/2 198/2/2 201/2/2
f 198/2/2 199/2/2 201/2/2
f 201/2/2 199/2/2 202/2/2
f 202/2/2 199/2/2 203/2/2
f 204/1/2 205/1/2 208/1/2
f 208/1/2 205/1/2 209/1/2
f 209/1/2 205/1/2 210/1/2
f 206/1/2 207/1/2 211/1/2
f 211/1/2 207/1/2 212/1/2
f 212/1/2 207/1/2 213/1/2
f 212/2/2 213/2/2 215/2/2
f 209/2/2 210/2/2 217/2/2
f 216/2/2 217/2/2 220/2/2
f 217/2/2 210/2/2 221/2/2
f 220/2/2 217/2/2 221/2/2
f 214/2/2 215/2/2 222/2/2
f 215/2/2 213/2/2 223/2/2
f 222/2/2 215/2/2 223/2/2
f 218/3/2 219/3/2 224/3/2
f 224/3/2 219/3/2 225/3/2
f 226/1/2 227/1/2 228/1/2
f 228/1/2 227/1/2 229/1/2
f 229/1/2 230/1/2 231/1/2
f 231/1/2 230/1/2 232/1/2
f 235/1/3 234/1/3 233/1/3
f 236/1/3 234/1/3 235/1/3
f 239/2/3 238/2/3 237/2/3
f 240/2/3 238/2/3 239/2/3
f 242/2/3 238/2/3 240/2/3
f 243/2/3 242/2/3 241/2/3
f 244/2/3 238/2/3 242/2/3
f 244/2/3 242/2/3 243/2/3
f 247/3/3 246/3/3 245/3/3
f 248/3/3 246/3/3 247/3/3
f 252/2/3 251/2/3 250/2/3
f 253/2/3 251/2/3 252/2/3
f 255/2/3 249/2/3 248/2/3
f 256/2/3 249/2/3 255/2/3
f 257/3/3 255/3/3 254/3/3
f 258/3/3 255/3/3 257/3/3
f 263/1/3 260/1/3 259/1/3
f 264/1/3 260/1/3 263/1/3
f 265/2/3 262/2/3 261/2/3
f 266/2/3 262/2/3 265/2/3
f 269/2/3 267/2/3 266/2/3
f 270/2/3 267/2/3 269/2/3
f 272/2/3 269/2/3 268/2/3
f 273/2/3 269/2/3 272/2/3
f 274/2/3 271/2/3 270/2/3
f 275/2/3 271/2/3 274/2/3
f 278/1/3 277/1/3 276/1/3
f 279/1/3 277/1/3 278/1/3
f 286/1/3 281/1/3 280/1/3
f 287/1/3 281/1/3 286/1/3
f 288/2/3 283/2/3 282/2/3
f 289/2/3 283/2/3 288/2/3
f 290/1/3 285/1/3 284/1/3
f 291/1/3 285/1/3 290/1/3
f 298/1/3 293/1/3 292/1/3
f 299/1/3 293/1/3 298/1/3
f 300/2/3 295/2/3 294/2/3
f 301/2/3 295/2/3 300/2/3
f 302/1/3 297/1/3 296/1/3
f 303/1/3 297/1/3 302/1/3
f 306/2/3 305/2/3 304/2/3
f 307/2/3 305/2/3 306/2/3
f 310/2/3 309/2/3 308/2/3
f 311/2/3 309/2/3 310/2/3
f 314/2/3 313/2/3 312/2/3
f 315/2/3 313/2/3 314/2/3
f 318/2/3 317/2/3 316/2/3
f 319/2/3 317/2/3 318/2/3
f 324/1/3 321/1/3 320/1/3
f 325/1/3 321/1/3 324/1/3
f 326/2/3 323/2/3 322/2/3
f 327/2/3 323/2/3 326/2/3
f 328/2/3 323/2/3 327/2/3
f 334/1/3 330/1/3 329/1/3
f 335/1/3 330/1/3 334/1/3
f 336/2/3 333/2/3 332/2/3
f 336/2/3 332/2/3 331/2/3
f 337/2/3 333/2/3 336/2/3
f 340/2/3 339/2/3 338/2/3
f 341/2/3 339/2/3 340/2/3
f 344/2/3 343/2/3 342/2/3
f 345/2/3 343/2/3 344/2/3
f 348/2/3 347/2/3 346/2/3
f 349/2/3 347/2/3 348/2/3
f 352/1/3 351/1/3 350/1/3
f 353/1/3 351/1/3 352/1/3
f 356/1/3 355/1/3 354/1/3
f 357/1/3 355/1/3 356/1/3
f 360/1/3 359/1/3 358/1/3
f 361/1/3 359/1/3 360/1/3
f 364/1/3 363/1/3 362/1/3
f 365/1/3 363/1/3 364/1/3
f 366/2/4 367/2/4 368/2/4
f 368/2/4 367/2/4 369/2/4
f 369/2/4 370/2/4 371/2/4
f 371/2/4 370/2/4 372/2/4
f 373/3/4 374/3/4 375/3/4
f 375/3/4 374/3/4 376/3/4
f 377/3/4 378/3/4 379/3/4
f 379/3/4 378/3/4 380/3/4
f 381/1/4 382/1/4 384/1/4
f 384/1/4 382/1/4 385/1/4
f 386/2/4 387/2/4 388/2/4
f 388/2/4 387/2/4 389/2/4
f 383/2/4 384/2/4 390/2/4
f 390/2/4 384/2/4 391/2/4
f 391/1/4 392/1/4 393/1/4
f 393/1/4 392/1/4 394/1/4
f 395/1/4 396/1/4 397/1/4
f 397/1/4 396/1/4 398/1/4
f 399/1/4 400/1/4 401/1/4
f 401/1/4 400/1/4 402/1/4
f 403/1/4 404/1/4 406/1/4
f 404/2/4 405/2/4 407/2/4
f 406/1/4 404/1/4 407/1/4
f 407/2/4 405/2/4 408/2/4
f 408/2/4 405/2/4 409/2/4
f 410/1/4 411/1/4 414/1/4
f 412/2/4 413/2/4 415/2/4
f 414/1/4 411/1/4 415/1/4
f 411/2/4 412/2/4 415/2/4
f 415/2/4 413/2/4 416/2/4
f 417/2/4 418/2/4 419/2/4
f 419/2/4 418/2/4 420/2/4
f 421/2/4 422/2/4 423/2/4
f 423/2/4 422/2/4 424/2/4
f 425/1/4 426/1/4 428/1/4
f 426/2/4 427/2/4 429/2/4
f 428/1/4 426/1/4 429/1/4
f 429/2/4 427/2/4 430/2/4
f 430/2/4 427/2/4 431/2/4
f 431/2/4 432/2/4 433/2/4
f 430/2/4 431/2/4 433/2/4
f 433/2/4 432/2/4 434/2/4
f 430/2/4 433/2/4 435/2/4
f 434/2/4 432/2/4 436/2/4
f 430/2/4 435/2/4 439/2/4
f 435/2/4 436/2/4 439/2/4
f 436/2/4 432/2/4 440/2/4
f 439/2/4 436/2/4 440/2/4
f 440/2/4 432/2/4 441/2/4
f 437/1/4 438/1/4 442/1/4
f 438/2/4 439/2/4 443/2/4
f 442/1/4 438/1/4 443/1/4
f 439/2/4 440/2/4 443/2/4
f 443/2/4 440/2/4 444/2/4
f 445/2/4 446/2/4 447/2/4
f 447/2/4 446/2/4 448/2/4
f 449/1/4 450/1/4 451/1/4
f 451/1/4 450/1/4 452/1/4
f 453/1/4 454/1/4 455/1/4
f 455/1/4 454/1/4 456/1/4
f 457/1/4 458/1/4 459/1/4
f 459/1/4 458/1/4 460/1/4
f 461/1/4 462/1/4 463/1/4
f 463/1/4 462/1/4 464/1/4
f 469/1/5 466/1/5 465/1/5
f 470/1/5 466/1/5 469/1/5
f 471/1/5 468/1/5 467/1/5
f 472/1/5 468/1/5 471/1/5
f 477/1/5 474/1/5 473/1/5
f 478/1/5 474/1/5 477/1/5
f 479/1/5 476/1/5 475/1/5
f 480/1/5 476/1/5 479/1/5
f 483/1/5 482/1/5 481/1/5
f 484/1/5 482/1/5 483/1/5
f 487/1/5 486/1/5 485/1/5
f 488/1/5 486/1/5 487/1/5
f 493/2/5 490/2/5 489/2/5
f 494/2/5 490/2/5 493/2/5
f 495/2/5 492/2/5 491/2/5
f 496/2/5 492/2/5 495/2/5
f 499/1/5 498/1/5 497/1/5
f 500/1/5 498/1/5 499/1/5
f 504/2/5 502/2/5 501/2/5
f 505/2/5 502/2/5 504/2/5
f 508/2/5 504/2/5 503/2/5
f 508/2/5 506/2/5 505/2/5
f 508/2/5 505/2/5 504/2/5
f 509/2/5 506/2/5 508/2/5
f 511/2/5 508/2/5 507/2/5
f 511/2/5 510/2/5 509/2/5
f 511/2/5 509/2/5 508/2/5
f 512/2/5 510/2/5 511/2/5
f 513/2/5 510/2/5 512/2/5
f 514/2/5 510/2/5 513/2/5
f 515/2/5 513/2/5 512/2/5
f 516/2/5 513/2/5 515/2/5
f 517/2/5 516/2/5 515/2/5
f 518/2/5 516/2/5 517/2/5
f 519/2/5 518/2/5 517/2/5
f 520/2/5 518/2/5 519/2/5
f 523/1/5 522/1/5 521/1/5
f 524/1/5 522/1/5 523/1/5
f 528/1/5 526/1/5 525/1/5
f 529/1/5 526/1/5 528/1/5
f 531/2/5 528/2/5 527/2/5
f 531/2/5 530/2/5 529/2/5
f 531/2/5 529/2/5 528/2/5
f 532/2/5 530/2/5 531/2/5
f 533/2/5 531/2/5 527/2/5
f 534/2/5 531/2/5 533/2/5
f 535/2/5 530/2/5 532/2/5
f 536/2/5 530/2/5 535/2/5
f 539/2/5 538/2/5 537/2/5
f 540/2/5 538/2/5 539/2/5
f 547/3/5 542/3/5 541/3/5
f 548/3/5 542/3/5 547/3/5
f 549/2/5 544/2/5 543/2/5
f 550/2/5 544/2/5 549/2/5
f 551/3/5 546/3/5 545/3/5
f 552/3/5 546/3/5 551/3/5
f 555/2/5 554/2/5 553/2/5
f 556/2/5 554/2/5 555/2/5
f 559/2/5 558/2/5 557/2/5
f 560/2/5 558/2/5 559/2/5
f 563/2/5 562/2/5 561/2/5
f 564/2/5 562/2/5 563/2/5
f 567/2/5 566/2/5 565/2/5
f 568/2/5 566/2/5 567/2/5
f 573/1/5 570/1/5 569/1/5
f 574/1/5 570/1/5 573/1/5
f 575/1/5 572/1/5 571/1/5
f 576/1/5 572/1/5 575/1/5
f 581/1/5 578/1/5 577/1/5
f 582/1/5 578/1/5 581/1/5
f 583/1/5 580/1/5 579/1/5
f 584/1/5 580/1/5 583/1/5
f 585/1/6 586/1/6 589/1/6
f 589/1/6 586/1/6 590/1/6
f 587/1/6 588/1/6 591/1/6
f 591/1/6 588/1/6 592/1/6
f 593/1/6 594/1/6 597/1/6
f 597/1/6 594/1/6 598/1/6
f 595/1/6 596/1/6 599/1/6
f 599/1/6 596/1/6 600/1/6
f 601/1/6 602/1/6 603/1/6
f 603/1/6 602/1/6 604/1/6
f 605/1/6 606/1/6 607/1/6
f 607/1/6 606/1/6 608/1/6
f 609/1/6 610/1/6 611/1/6
f 611/1/6 610/1/6 612/1/6
f 613/2/6 614/2/6 615/2/6
f 615/2/6 614/2/6 616/2/6
f 617/2/6 618/2/6 619/2/6
f 619/2/6 618/2/6 620/2/6
f 621/2/6 622/2/6 623/2/6
f 623/2/6 622/2/6 624/2/6
f 625/2/6 626/2/6 627/2/6
f 627/2/6 626/2/6 628/2/6
f 629/1/6 630/1/6 631/1/6
f 631/1/6 630/1/6 632/1/6
f 633/1/6 634/1/6 635/1/6
f 635/1/6 634/1/6 636/1/6
f 637/2/6 638/2/6 639/2/6
f 639/2/6 638/2/6 640/2/6
f 641/2/6 642/2/6 645/2/6
f 645/2/6 642/2/6 646/2/6
f 643/2/6 644/2/6 647/2/6
f 647/2/6 644/2/6 648/2/6
f 649/2/6 650/2/6 653/2/6
f 653/2/6 650/2/6 654/2/6
f 651/2/6 652/2/6 657/2/6
f 657/2/6 652/2/6 658/2/6
f 655/2/6 656/2/6 659/2/6
f 659/2/6 656/2/6 660/2/6
f 661/2/6 662/2/6 664/2/6
f 664/2/6 662/2/6 665/2/6
f 663/3/6 664/3/6 667/3/6
f 667/3/6 664/3/6 668/3/6
f 665/3/6 666/3/6 669/3/6
f 669/3/6 666/3/6 670/3/6
f 671/2/6 672/2/6 673/2/6
f 673/2/6 672/2/6 674/2/6
f 675/2/6 676/2/6 677/2/6
f 677/2/6 676/2/6 678/2/6
f 677/2/6 678/2/6 679/2/6
f 679/2/6 678/2/6 680/2/6
f 681/1/6 682/1/6 685/1/6
f 685/1/6 682/1/6 686/1/6
f 683/1/6 684/1/6 687/1/6
f 687/1/6 684/1/6 688/1/6
f 689/1/6 690/1/6 693/1/6
f 693/1/6 690/1/6 694/1/6
f 691/1/6 692/1/6 695/1/6
f 695/1/6 692/1/6 696/1/6
