# MagicaVoxel @ Ephtracy

# group
o 

# material
mtllib rat_ledgeidle_2.mtl
usemtl palette

# normals
vn -1 0 0
vn 1 0 0
vn 0 0 1
vn 0 0 -1
vn 0 -1 0
vn 0 1 0

# texcoords
vt 0.0292969 0.5
vt 0.982422 0.5
vt 0.994141 0.5

# verts
v 0 2.2 -1.5
v 0 2.2 -1.6
v 0 2.3 -1.5
v 0 2.3 -1.6
v 0.1 2 0
v 0.1 2 -0.2
v 0.1 2 -0.4
v 0.1 2 -0.8
v 0.1 2 -1
v 0.1 2.1 0
v 0.1 2.1 -0.2
v 0.1 2.1 -0.4
v 0.1 2.1 -0.6
v 0.1 2.1 -0.8
v 0.1 2.1 -0.9
v 0.1 2.1 -1
v 0.1 2.1 -1.1
v 0.1 2.3 -0.4
v 0.1 2.3 -0.6
v 0.1 2.4 -0.2
v 0.1 2.4 -0.3
v 0.1 2.4 -0.9
v 0.1 2.4 -1.1
v 0.1 2.5 -0.2
v 0.1 2.5 -0.3
v 0.1 2.5 -0.4
v 0.1 2.6 -0.3
v 0.1 2.6 -0.4
v 0.1 2.6 -0.5
v 0.1 2.7 -0.4
v 0.1 2.7 -0.5
v 0.2 2.2 -0.3
v 0.2 2.2 -0.4
v 0.2 2.2 -0.6
v 0.2 2.2 -0.9
v 0.2 2.2 -1.3
v 0.2 2.2 -1.5
v 0.2 2.3 -0.1
v 0.2 2.3 -0.3
v 0.2 2.3 -0.4
v 0.2 2.3 -0.6
v 0.2 2.3 -1.3
v 0.2 2.3 -1.5
v 0.2 2.4 -0.2
v 0.2 2.4 -0.3
v 0.2 2.4 -0.9
v 0.2 2.4 -1.1
v 0.2 2.5 -0.1
v 0.2 2.5 -0.2
v 0.2 2.5 -0.3
v 0.2 2.5 -0.4
v 0.2 2.5 -1.1
v 0.2 2.6 -0.2
v 0.2 2.6 -0.3
v 0.3 2.2 -0.2
v 0.3 2.2 -0.3
v 0.3 2.2 -1.2
v 0.3 2.2 -1.3
v 0.3 2.3 0
v 0.3 2.3 -0.1
v 0.3 2.3 -0.2
v 0.3 2.3 -0.3
v 0.3 2.3 -1.1
v 0.3 2.3 -1.2
v 0.3 2.3 -1.3
v 0.3 2.4 0
v 0.3 2.4 -0.1
v 0.3 2.4 -1.1
v 0.3 2.4 -1.2
v 0.4 2.3 -0.4
v 0.4 2.3 -0.6
v 0.4 2.3 -0.7
v 0.4 2.3 -1.1
v 0.4 2.4 -0.4
v 0.4 2.4 -0.6
v 0.4 2.4 -0.7
v 0.4 2.4 -1.1
v 0.5 2 0
v 0.5 2 -0.2
v 0.5 2 -0.4
v 0.5 2 -0.8
v 0.5 2 -1
v 0.5 2.1 0
v 0.5 2.1 -0.2
v 0.5 2.1 -0.4
v 0.5 2.1 -0.6
v 0.5 2.1 -0.8
v 0.5 2.1 -0.9
v 0.5 2.1 -1
v 0.5 2.1 -1.1
v 0.5 2.2 -0.4
v 0.5 2.2 -0.6
v 0.5 2.2 -0.9
v 0.5 2.2 -1.1
v 0.5 2.6 -0.4
v 0.5 2.6 -0.5
v 0.5 2.7 -0.4
v 0.5 2.7 -0.5
v 0.2 2 0
v 0.2 2 -0.2
v 0.2 2 -0.4
v 0.2 2 -0.8
v 0.2 2 -1
v 0.2 2.1 0
v 0.2 2.1 -0.2
v 0.2 2.1 -0.4
v 0.2 2.1 -0.6
v 0.2 2.1 -0.8
v 0.2 2.1 -0.9
v 0.2 2.1 -1
v 0.2 2.1 -1.1
v 0.2 2.2 -0.4
v 0.2 2.2 -0.6
v 0.2 2.2 -0.9
v 0.2 2.2 -1.1
v 0.2 2.2 -1.5
v 0.2 2.2 -1.6
v 0.2 2.3 -1.5
v 0.2 2.3 -1.6
v 0.2 2.6 -0.4
v 0.2 2.6 -0.5
v 0.2 2.7 -0.4
v 0.2 2.7 -0.5
v 0.3 2.2 -1.3
v 0.3 2.2 -1.5
v 0.3 2.3 -0.4
v 0.3 2.3 -0.6
v 0.3 2.3 -0.7
v 0.3 2.3 -1.1
v 0.3 2.3 -1.3
v 0.3 2.3 -1.5
v 0.3 2.4 -0.4
v 0.3 2.4 -0.6
v 0.3 2.4 -0.7
v 0.3 2.4 -1.1
v 0.4 2.2 -0.2
v 0.4 2.2 -0.3
v 0.4 2.2 -1.2
v 0.4 2.2 -1.3
v 0.4 2.3 0
v 0.4 2.3 -0.1
v 0.4 2.3 -0.2
v 0.4 2.3 -0.3
v 0.4 2.3 -1.1
v 0.4 2.3 -1.2
v 0.4 2.3 -1.3
v 0.4 2.4 0
v 0.4 2.4 -0.1
v 0.4 2.4 -1.1
v 0.4 2.4 -1.2
v 0.5 2.2 -0.3
v 0.5 2.2 -0.4
v 0.5 2.2 -0.6
v 0.5 2.2 -0.9
v 0.5 2.3 -0.1
v 0.5 2.3 -0.3
v 0.5 2.3 -0.4
v 0.5 2.3 -0.6
v 0.5 2.4 -0.2
v 0.5 2.4 -0.3
v 0.5 2.4 -0.9
v 0.5 2.4 -1.1
v 0.5 2.5 -0.1
v 0.5 2.5 -0.2
v 0.5 2.5 -0.3
v 0.5 2.5 -0.4
v 0.5 2.5 -1.1
v 0.5 2.6 -0.2
v 0.5 2.6 -0.3
v 0.6 2 0
v 0.6 2 -0.2
v 0.6 2 -0.4
v 0.6 2 -0.8
v 0.6 2 -1
v 0.6 2.1 0
v 0.6 2.1 -0.2
v 0.6 2.1 -0.4
v 0.6 2.1 -0.6
v 0.6 2.1 -0.8
v 0.6 2.1 -0.9
v 0.6 2.1 -1
v 0.6 2.1 -1.1
v 0.6 2.3 -0.4
v 0.6 2.3 -0.6
v 0.6 2.4 -0.2
v 0.6 2.4 -0.3
v 0.6 2.4 -0.9
v 0.6 2.4 -1.1
v 0.6 2.5 -0.2
v 0.6 2.5 -0.3
v 0.6 2.5 -0.4
v 0.6 2.6 -0.3
v 0.6 2.6 -0.4
v 0.6 2.6 -0.5
v 0.6 2.7 -0.4
v 0.6 2.7 -0.5
v 0.1 2 0
v 0.1 2.1 0
v 0.2 2 0
v 0.2 2.1 0
v 0.3 2.3 0
v 0.3 2.4 0
v 0.4 2.3 0
v 0.4 2.4 0
v 0.5 2 0
v 0.5 2.1 0
v 0.6 2 0
v 0.6 2.1 0
v 0.2 2.3 -0.1
v 0.2 2.5 -0.1
v 0.3 2.3 -0.1
v 0.3 2.4 -0.1
v 0.4 2.3 -0.1
v 0.4 2.4 -0.1
v 0.5 2.3 -0.1
v 0.5 2.5 -0.1
v 0.1 2.4 -0.2
v 0.1 2.5 -0.2
v 0.2 2.4 -0.2
v 0.2 2.5 -0.2
v 0.2 2.6 -0.2
v 0.3 2.2 -0.2
v 0.3 2.3 -0.2
v 0.4 2.2 -0.2
v 0.4 2.3 -0.2
v 0.5 2.4 -0.2
v 0.5 2.5 -0.2
v 0.5 2.6 -0.2
v 0.6 2.4 -0.2
v 0.6 2.5 -0.2
v 0.1 2.5 -0.3
v 0.1 2.6 -0.3
v 0.2 2.2 -0.3
v 0.2 2.3 -0.3
v 0.2 2.5 -0.3
v 0.2 2.6 -0.3
v 0.3 2.2 -0.3
v 0.3 2.3 -0.3
v 0.4 2.2 -0.3
v 0.4 2.3 -0.3
v 0.5 2.2 -0.3
v 0.5 2.3 -0.3
v 0.5 2.5 -0.3
v 0.5 2.6 -0.3
v 0.6 2.5 -0.3
v 0.6 2.6 -0.3
v 0.1 2.1 -0.4
v 0.1 2.3 -0.4
v 0.1 2.6 -0.4
v 0.1 2.7 -0.4
v 0.2 2.1 -0.4
v 0.2 2.2 -0.4
v 0.2 2.3 -0.4
v 0.2 2.6 -0.4
v 0.2 2.7 -0.4
v 0.5 2.1 -0.4
v 0.5 2.2 -0.4
v 0.5 2.3 -0.4
v 0.5 2.6 -0.4
v 0.5 2.7 -0.4
v 0.6 2.1 -0.4
v 0.6 2.3 -0.4
v 0.6 2.6 -0.4
v 0.6 2.7 -0.4
v 0.3 2.3 -0.6
v 0.3 2.4 -0.6
v 0.4 2.3 -0.6
v 0.4 2.4 -0.6
v 0.1 2 -0.8
v 0.1 2.1 -0.8
v 0.2 2 -0.8
v 0.2 2.1 -0.8
v 0.5 2 -0.8
v 0.5 2.1 -0.8
v 0.6 2 -0.8
v 0.6 2.1 -0.8
v 0.1 2.1 -0.9
v 0.1 2.4 -0.9
v 0.2 2.1 -0.9
v 0.2 2.2 -0.9
v 0.2 2.4 -0.9
v 0.5 2.1 -0.9
v 0.5 2.2 -0.9
v 0.5 2.4 -0.9
v 0.6 2.1 -0.9
v 0.6 2.4 -0.9
v 0.3 2.3 -1.1
v 0.3 2.4 -1.1
v 0.4 2.3 -1.1
v 0.4 2.4 -1.1
v 0.3 2.2 -1.2
v 0.3 2.3 -1.2
v 0.4 2.2 -1.2
v 0.4 2.3 -1.2
v 0.2 2.2 -1.3
v 0.2 2.3 -1.3
v 0.3 2.2 -1.3
v 0.3 2.3 -1.3
v 0 2.2 -1.5
v 0 2.3 -1.5
v 0.2 2.2 -1.5
v 0.2 2.3 -1.5
v 0.1 2.4 -0.3
v 0.1 2.5 -0.3
v 0.2 2.4 -0.3
v 0.2 2.5 -0.3
v 0.5 2.4 -0.3
v 0.5 2.5 -0.3
v 0.6 2.4 -0.3
v 0.6 2.5 -0.3
v 0.1 2 -0.4
v 0.1 2.1 -0.4
v 0.1 2.5 -0.4
v 0.1 2.6 -0.4
v 0.2 2 -0.4
v 0.2 2.1 -0.4
v 0.2 2.5 -0.4
v 0.2 2.6 -0.4
v 0.3 2.3 -0.4
v 0.3 2.4 -0.4
v 0.4 2.3 -0.4
v 0.4 2.4 -0.4
v 0.5 2 -0.4
v 0.5 2.1 -0.4
v 0.5 2.5 -0.4
v 0.5 2.6 -0.4
v 0.6 2 -0.4
v 0.6 2.1 -0.4
v 0.6 2.5 -0.4
v 0.6 2.6 -0.4
v 0.1 2.6 -0.5
v 0.1 2.7 -0.5
v 0.2 2.6 -0.5
v 0.2 2.7 -0.5
v 0.5 2.6 -0.5
v 0.5 2.7 -0.5
v 0.6 2.6 -0.5
v 0.6 2.7 -0.5
v 0.1 2.1 -0.6
v 0.1 2.3 -0.6
v 0.2 2.1 -0.6
v 0.2 2.2 -0.6
v 0.2 2.3 -0.6
v 0.5 2.1 -0.6
v 0.5 2.2 -0.6
v 0.5 2.3 -0.6
v 0.6 2.1 -0.6
v 0.6 2.3 -0.6
v 0.3 2.3 -0.7
v 0.3 2.4 -0.7
v 0.4 2.3 -0.7
v 0.4 2.4 -0.7
v 0.1 2 -1
v 0.1 2.1 -1
v 0.2 2 -1
v 0.2 2.1 -1
v 0.5 2 -1
v 0.5 2.1 -1
v 0.6 2 -1
v 0.6 2.1 -1
v 0.1 2.1 -1.1
v 0.1 2.4 -1.1
v 0.2 2.1 -1.1
v 0.2 2.2 -1.1
v 0.2 2.4 -1.1
v 0.2 2.5 -1.1
v 0.3 2.3 -1.1
v 0.3 2.4 -1.1
v 0.4 2.3 -1.1
v 0.4 2.4 -1.1
v 0.5 2.1 -1.1
v 0.5 2.2 -1.1
v 0.5 2.4 -1.1
v 0.5 2.5 -1.1
v 0.6 2.1 -1.1
v 0.6 2.4 -1.1
v 0.3 2.3 -1.2
v 0.3 2.4 -1.2
v 0.4 2.3 -1.2
v 0.4 2.4 -1.2
v 0.3 2.2 -1.3
v 0.3 2.3 -1.3
v 0.4 2.2 -1.3
v 0.4 2.3 -1.3
v 0.2 2.2 -1.5
v 0.2 2.3 -1.5
v 0.3 2.2 -1.5
v 0.3 2.3 -1.5
v 0 2.2 -1.6
v 0 2.3 -1.6
v 0.2 2.2 -1.6
v 0.2 2.3 -1.6
v 0.1 2 0
v 0.2 2 0
v 0.5 2 0
v 0.6 2 0
v 0.1 2 -0.2
v 0.2 2 -0.2
v 0.5 2 -0.2
v 0.6 2 -0.2
v 0.1 2 -0.4
v 0.2 2 -0.4
v 0.5 2 -0.4
v 0.6 2 -0.4
v 0.1 2 -0.8
v 0.2 2 -0.8
v 0.5 2 -0.8
v 0.6 2 -0.8
v 0.1 2 -1
v 0.2 2 -1
v 0.5 2 -1
v 0.6 2 -1
v 0.1 2.1 -0.4
v 0.2 2.1 -0.4
v 0.5 2.1 -0.4
v 0.6 2.1 -0.4
v 0.1 2.1 -0.6
v 0.2 2.1 -0.6
v 0.5 2.1 -0.6
v 0.6 2.1 -0.6
v 0.1 2.1 -1
v 0.2 2.1 -1
v 0.5 2.1 -1
v 0.6 2.1 -1
v 0.1 2.1 -1.1
v 0.2 2.1 -1.1
v 0.5 2.1 -1.1
v 0.6 2.1 -1.1
v 0.3 2.2 -0.2
v 0.4 2.2 -0.2
v 0.2 2.2 -0.3
v 0.3 2.2 -0.3
v 0.4 2.2 -0.3
v 0.5 2.2 -0.3
v 0.2 2.2 -0.4
v 0.5 2.2 -0.4
v 0.2 2.2 -0.6
v 0.5 2.2 -0.6
v 0.2 2.2 -0.9
v 0.5 2.2 -0.9
v 0.2 2.2 -1.1
v 0.5 2.2 -1.1
v 0.3 2.2 -1.2
v 0.4 2.2 -1.2
v 0.2 2.2 -1.3
v 0.3 2.2 -1.3
v 0.4 2.2 -1.3
v 0 2.2 -1.5
v 0.2 2.2 -1.5
v 0.3 2.2 -1.5
v 0 2.2 -1.6
v 0.2 2.2 -1.6
v 0.3 2.3 0
v 0.4 2.3 0
v 0.2 2.3 -0.1
v 0.3 2.3 -0.1
v 0.4 2.3 -0.1
v 0.5 2.3 -0.1
v 0.3 2.3 -0.2
v 0.4 2.3 -0.2
v 0.2 2.3 -0.3
v 0.3 2.3 -0.3
v 0.4 2.3 -0.3
v 0.5 2.3 -0.3
v 0.3 2.3 -1.1
v 0.4 2.3 -1.1
v 0.3 2.3 -1.2
v 0.4 2.3 -1.2
v 0.1 2.4 -0.2
v 0.2 2.4 -0.2
v 0.5 2.4 -0.2
v 0.6 2.4 -0.2
v 0.1 2.4 -0.3
v 0.2 2.4 -0.3
v 0.5 2.4 -0.3
v 0.6 2.4 -0.3
v 0.3 2.4 -0.4
v 0.4 2.4 -0.4
v 0.3 2.4 -0.6
v 0.4 2.4 -0.6
v 0.3 2.4 -0.7
v 0.4 2.4 -0.7
v 0.3 2.4 -1.1
v 0.4 2.4 -1.1
v 0.1 2.5 -0.3
v 0.2 2.5 -0.3
v 0.5 2.5 -0.3
v 0.6 2.5 -0.3
v 0.1 2.5 -0.4
v 0.2 2.5 -0.4
v 0.5 2.5 -0.4
v 0.6 2.5 -0.4
v 0.1 2.6 -0.4
v 0.2 2.6 -0.4
v 0.5 2.6 -0.4
v 0.6 2.6 -0.4
v 0.1 2.6 -0.5
v 0.2 2.6 -0.5
v 0.5 2.6 -0.5
v 0.6 2.6 -0.5
v 0.1 2.1 0
v 0.2 2.1 0
v 0.5 2.1 0
v 0.6 2.1 0
v 0.1 2.1 -0.2
v 0.2 2.1 -0.2
v 0.5 2.1 -0.2
v 0.6 2.1 -0.2
v 0.1 2.1 -0.4
v 0.2 2.1 -0.4
v 0.5 2.1 -0.4
v 0.6 2.1 -0.4
v 0.1 2.1 -0.8
v 0.2 2.1 -0.8
v 0.5 2.1 -0.8
v 0.6 2.1 -0.8
v 0.1 2.1 -0.9
v 0.2 2.1 -0.9
v 0.5 2.1 -0.9
v 0.6 2.1 -0.9
v 0.1 2.3 -0.4
v 0.2 2.3 -0.4
v 0.3 2.3 -0.4
v 0.4 2.3 -0.4
v 0.5 2.3 -0.4
v 0.6 2.3 -0.4
v 0.1 2.3 -0.6
v 0.2 2.3 -0.6
v 0.3 2.3 -0.6
v 0.4 2.3 -0.6
v 0.5 2.3 -0.6
v 0.6 2.3 -0.6
v 0.3 2.3 -0.7
v 0.4 2.3 -0.7
v 0.3 2.3 -1.1
v 0.4 2.3 -1.1
v 0.3 2.3 -1.2
v 0.4 2.3 -1.2
v 0.2 2.3 -1.3
v 0.3 2.3 -1.3
v 0.4 2.3 -1.3
v 0 2.3 -1.5
v 0.2 2.3 -1.5
v 0.3 2.3 -1.5
v 0 2.3 -1.6
v 0.2 2.3 -1.6
v 0.3 2.4 0
v 0.4 2.4 0
v 0.3 2.4 -0.1
v 0.4 2.4 -0.1
v 0.1 2.4 -0.9
v 0.2 2.4 -0.9
v 0.5 2.4 -0.9
v 0.6 2.4 -0.9
v 0.1 2.4 -1.1
v 0.2 2.4 -1.1
v 0.3 2.4 -1.1
v 0.4 2.4 -1.1
v 0.5 2.4 -1.1
v 0.6 2.4 -1.1
v 0.3 2.4 -1.2
v 0.4 2.4 -1.2
v 0.2 2.5 -0.1
v 0.5 2.5 -0.1
v 0.1 2.5 -0.2
v 0.2 2.5 -0.2
v 0.5 2.5 -0.2
v 0.6 2.5 -0.2
v 0.1 2.5 -0.3
v 0.2 2.5 -0.3
v 0.5 2.5 -0.3
v 0.6 2.5 -0.3
v 0.2 2.5 -0.4
v 0.5 2.5 -0.4
v 0.2 2.5 -1.1
v 0.5 2.5 -1.1
v 0.2 2.6 -0.2
v 0.5 2.6 -0.2
v 0.1 2.6 -0.3
v 0.2 2.6 -0.3
v 0.5 2.6 -0.3
v 0.6 2.6 -0.3
v 0.1 2.6 -0.4
v 0.2 2.6 -0.4
v 0.5 2.6 -0.4
v 0.6 2.6 -0.4
v 0.1 2.7 -0.4
v 0.2 2.7 -0.4
v 0.5 2.7 -0.4
v 0.6 2.7 -0.4
v 0.1 2.7 -0.5
v 0.2 2.7 -0.5
v 0.5 2.7 -0.5
v 0.6 2.7 -0.5

# faces
f 3/1/1 2/1/1 1/1/1
f 4/1/1 2/1/1 3/1/1
f 10/1/1 6/1/1 5/1/1
f 11/2/1 7/2/1 6/2/1
f 11/1/1 6/1/1 10/1/1
f 12/2/1 7/2/1 11/2/1
f 14/1/1 9/1/1 8/1/1
f 15/1/1 9/1/1 14/1/1
f 16/1/1 9/1/1 15/1/1
f 18/2/1 13/2/1 12/2/1
f 19/2/1 13/2/1 18/2/1
f 22/2/1 17/2/1 16/2/1
f 22/2/1 16/2/1 15/2/1
f 23/2/1 17/2/1 22/2/1
f 24/3/1 21/3/1 20/3/1
f 25/3/1 21/3/1 24/3/1
f 27/1/1 26/1/1 25/1/1
f 28/1/1 26/1/1 27/1/1
f 30/1/1 29/1/1 28/1/1
f 31/1/1 29/1/1 30/1/1
f 39/2/1 33/2/1 32/2/1
f 40/2/1 33/2/1 39/2/1
f 41/2/1 35/2/1 34/2/1
f 42/1/1 37/1/1 36/1/1
f 43/1/1 37/1/1 42/1/1
f 44/2/1 41/2/1 40/2/1
f 44/2/1 40/2/1 39/2/1
f 44/2/1 39/2/1 38/2/1
f 45/2/1 41/2/1 44/2/1
f 46/2/1 35/2/1 41/2/1
f 46/2/1 41/2/1 45/2/1
f 48/2/1 44/2/1 38/2/1
f 49/2/1 44/2/1 48/2/1
f 50/2/1 47/2/1 46/2/1
f 50/2/1 46/2/1 45/2/1
f 51/2/1 47/2/1 50/2/1
f 52/2/1 47/2/1 51/2/1
f 53/2/1 50/2/1 49/2/1
f 54/2/1 50/2/1 53/2/1
f 61/2/1 56/2/1 55/2/1
f 62/2/1 56/2/1 61/2/1
f 64/1/1 58/1/1 57/1/1
f 65/1/1 58/1/1 64/1/1
f 66/1/1 60/1/1 59/1/1
f 67/1/1 60/1/1 66/1/1
f 68/2/1 64/2/1 63/2/1
f 69/2/1 64/2/1 68/2/1
f 74/2/1 71/2/1 70/2/1
f 75/2/1 71/2/1 74/2/1
f 76/2/1 73/2/1 72/2/1
f 77/2/1 73/2/1 76/2/1
f 83/1/1 79/1/1 78/1/1
f 84/2/1 80/2/1 79/2/1
f 84/1/1 79/1/1 83/1/1
f 85/2/1 80/2/1 84/2/1
f 87/1/1 82/1/1 81/1/1
f 88/1/1 82/1/1 87/1/1
f 89/1/1 82/1/1 88/1/1
f 91/2/1 86/2/1 85/2/1
f 92/2/1 86/2/1 91/2/1
f 93/2/1 90/2/1 89/2/1
f 93/2/1 89/2/1 88/2/1
f 94/2/1 90/2/1 93/2/1
f 97/1/1 96/1/1 95/1/1
f 98/1/1 96/1/1 97/1/1
f 99/1/2 100/1/2 104/1/2
f 100/2/2 101/2/2 105/2/2
f 104/1/2 100/1/2 105/1/2
f 105/2/2 101/2/2 106/2/2
f 102/1/2 103/1/2 108/1/2
f 108/1/2 103/1/2 109/1/2
f 109/1/2 103/1/2 110/1/2
f 106/2/2 107/2/2 112/2/2
f 112/2/2 107/2/2 113/2/2
f 110/2/2 111/2/2 114/2/2
f 109/2/2 110/2/2 114/2/2
f 114/2/2 111/2/2 115/2/2
f 116/1/2 117/1/2 118/1/2
f 118/1/2 117/1/2 119/1/2
f 120/1/2 121/1/2 122/1/2
f 122/1/2 121/1/2 123/1/2
f 124/1/2 125/1/2 130/1/2
f 130/1/2 125/1/2 131/1/2
f 126/2/2 127/2/2 132/2/2
f 132/2/2 127/2/2 133/2/2
f 128/2/2 129/2/2 134/2/2
f 134/2/2 129/2/2 135/2/2
f 136/2/2 137/2/2 142/2/2
f 142/2/2 137/2/2 143/2/2
f 138/1/2 139/1/2 145/1/2
f 145/1/2 139/1/2 146/1/2
f 140/1/2 141/1/2 147/1/2
f 147/1/2 141/1/2 148/1/2
f 144/2/2 145/2/2 149/2/2
f 149/2/2 145/2/2 150/2/2
f 151/2/2 152/2/2 156/2/2
f 156/2/2 152/2/2 157/2/2
f 153/2/2 154/2/2 158/2/2
f 156/2/2 157/2/2 159/2/2
f 157/2/2 158/2/2 159/2/2
f 155/2/2 156/2/2 159/2/2
f 159/2/2 158/2/2 160/2/2
f 158/2/2 154/2/2 161/2/2
f 160/2/2 158/2/2 161/2/2
f 155/2/2 159/2/2 163/2/2
f 163/2/2 159/2/2 164/2/2
f 161/2/2 162/2/2 165/2/2
f 160/2/2 161/2/2 165/2/2
f 165/2/2 162/2/2 166/2/2
f 166/2/2 162/2/2 167/2/2
f 164/2/2 165/2/2 168/2/2
f 168/2/2 165/2/2 169/2/2
f 170/1/2 171/1/2 175/1/2
f 171/2/2 172/2/2 176/2/2
f 175/1/2 171/1/2 176/1/2
f 176/2/2 172/2/2 177/2/2
f 173/1/2 174/1/2 179/1/2
f 179/1/2 174/1/2 180/1/2
f 180/1/2 174/1/2 181/1/2
f 177/2/2 178/2/2 183/2/2
f 183/2/2 178/2/2 184/2/2
f 181/2/2 182/2/2 187/2/2
f 180/2/2 181/2/2 187/2/2
f 187/2/2 182/2/2 188/2/2
f 185/3/2 186/3/2 189/3/2
f 189/3/2 186/3/2 190/3/2
f 190/1/2 191/1/2 192/1/2
f 192/1/2 191/1/2 193/1/2
f 193/1/2 194/1/2 195/1/2
f 195/1/2 194/1/2 196/1/2
f 199/1/3 198/1/3 197/1/3
f 200/1/3 198/1/3 199/1/3
f 203/1/3 202/1/3 201/1/3
f 204/1/3 202/1/3 203/1/3
f 207/1/3 206/1/3 205/1/3
f 208/1/3 206/1/3 207/1/3
f 211/2/3 210/2/3 209/2/3
f 212/2/3 210/2/3 211/2/3
f 214/2/3 210/2/3 212/2/3
f 215/2/3 214/2/3 213/2/3
f 216/2/3 210/2/3 214/2/3
f 216/2/3 214/2/3 215/2/3
f 219/3/3 218/3/3 217/3/3
f 220/3/3 218/3/3 219/3/3
f 224/2/3 223/2/3 222/2/3
f 225/2/3 223/2/3 224/2/3
f 227/2/3 221/2/3 220/2/3
f 228/2/3 221/2/3 227/2/3
f 229/3/3 227/3/3 226/3/3
f 230/3/3 227/3/3 229/3/3
f 235/1/3 232/1/3 231/1/3
f 236/1/3 232/1/3 235/1/3
f 237/2/3 234/2/3 233/2/3
f 238/2/3 234/2/3 237/2/3
f 241/2/3 240/2/3 239/2/3
f 242/2/3 240/2/3 241/2/3
f 245/1/3 244/1/3 243/1/3
f 246/1/3 244/1/3 245/1/3
f 251/2/3 248/2/3 247/2/3
f 252/2/3 248/2/3 251/2/3
f 253/2/3 248/2/3 252/2/3
f 254/1/3 250/1/3 249/1/3
f 255/1/3 250/1/3 254/1/3
f 261/2/3 257/2/3 256/2/3
f 261/2/3 258/2/3 257/2/3
f 262/2/3 258/2/3 261/2/3
f 263/1/3 260/1/3 259/1/3
f 264/1/3 260/1/3 263/1/3
f 267/2/3 266/2/3 265/2/3
f 268/2/3 266/2/3 267/2/3
f 271/1/3 270/1/3 269/1/3
f 272/1/3 270/1/3 271/1/3
f 275/1/3 274/1/3 273/1/3
f 276/1/3 274/1/3 275/1/3
f 279/2/3 278/2/3 277/2/3
f 280/2/3 278/2/3 279/2/3
f 281/2/3 278/2/3 280/2/3
f 285/2/3 283/2/3 282/2/3
f 285/2/3 284/2/3 283/2/3
f 286/2/3 284/2/3 285/2/3
f 289/2/3 288/2/3 287/2/3
f 290/2/3 288/2/3 289/2/3
f 293/1/3 292/1/3 291/1/3
f 294/1/3 292/1/3 293/1/3
f 297/1/3 296/1/3 295/1/3
f 298/1/3 296/1/3 297/1/3
f 301/1/3 300/1/3 299/1/3
f 302/1/3 300/1/3 301/1/3
f 303/3/4 304/3/4 305/3/4
f 305/3/4 304/3/4 306/3/4
f 307/3/4 308/3/4 309/3/4
f 309/3/4 308/3/4 310/3/4
f 311/2/4 312/2/4 315/2/4
f 315/2/4 312/2/4 316/2/4
f 313/1/4 314/1/4 317/1/4
f 317/1/4 314/1/4 318/1/4
f 319/2/4 320/2/4 321/2/4
f 321/2/4 320/2/4 322/2/4
f 317/2/4 318/2/4 325/2/4
f 325/2/4 318/2/4 326/2/4
f 323/2/4 324/2/4 327/2/4
f 327/2/4 324/2/4 328/2/4
f 325/1/4 326/1/4 329/1/4
f 329/1/4 326/1/4 330/1/4
f 331/1/4 332/1/4 333/1/4
f 333/1/4 332/1/4 334/1/4
f 335/1/4 336/1/4 337/1/4
f 337/1/4 336/1/4 338/1/4
f 339/2/4 340/2/4 341/2/4
f 341/2/4 340/2/4 342/2/4
f 342/2/4 340/2/4 343/2/4
f 344/2/4 345/2/4 347/2/4
f 345/2/4 346/2/4 347/2/4
f 347/2/4 346/2/4 348/2/4
f 349/2/4 350/2/4 351/2/4
f 351/2/4 350/2/4 352/2/4
f 353/1/4 354/1/4 355/1/4
f 355/1/4 354/1/4 356/1/4
f 357/1/4 358/1/4 359/1/4
f 359/1/4 358/1/4 360/1/4
f 361/2/4 362/2/4 363/2/4
f 363/2/4 362/2/4 364/2/4
f 364/2/4 362/2/4 365/2/4
f 365/2/4 366/2/4 367/2/4
f 364/2/4 365/2/4 367/2/4
f 367/2/4 366/2/4 368/2/4
f 364/2/4 367/2/4 369/2/4
f 368/2/4 366/2/4 370/2/4
f 364/2/4 369/2/4 372/2/4
f 369/2/4 370/2/4 372/2/4
f 370/2/4 366/2/4 373/2/4
f 372/2/4 370/2/4 373/2/4
f 373/2/4 366/2/4 374/2/4
f 371/2/4 372/2/4 375/2/4
f 372/2/4 373/2/4 375/2/4
f 375/2/4 373/2/4 376/2/4
f 377/2/4 378/2/4 379/2/4
f 379/2/4 378/2/4 380/2/4
f 381/1/4 382/1/4 383/1/4
f 383/1/4 382/1/4 384/1/4
f 385/1/4 386/1/4 387/1/4
f 387/1/4 386/1/4 388/1/4
f 389/1/4 390/1/4 391/1/4
f 391/1/4 390/1/4 392/1/4
f 397/1/5 394/1/5 393/1/5
f 398/1/5 394/1/5 397/1/5
f 399/1/5 396/1/5 395/1/5
f 400/1/5 396/1/5 399/1/5
f 401/2/5 398/2/5 397/2/5
f 402/2/5 398/2/5 401/2/5
f 403/2/5 400/2/5 399/2/5
f 404/2/5 400/2/5 403/2/5
f 409/1/5 406/1/5 405/1/5
f 410/1/5 406/1/5 409/1/5
f 411/1/5 408/1/5 407/1/5
f 412/1/5 408/1/5 411/1/5
f 417/2/5 414/2/5 413/2/5
f 418/2/5 414/2/5 417/2/5
f 419/2/5 416/2/5 415/2/5
f 420/2/5 416/2/5 419/2/5
f 425/2/5 422/2/5 421/2/5
f 426/2/5 422/2/5 425/2/5
f 427/2/5 424/2/5 423/2/5
f 428/2/5 424/2/5 427/2/5
f 432/2/5 430/2/5 429/2/5
f 433/2/5 430/2/5 432/2/5
f 435/2/5 432/2/5 431/2/5
f 435/2/5 434/2/5 433/2/5
f 435/2/5 433/2/5 432/2/5
f 436/2/5 434/2/5 435/2/5
f 437/2/5 436/2/5 435/2/5
f 438/2/5 436/2/5 437/2/5
f 439/2/5 438/2/5 437/2/5
f 440/2/5 438/2/5 439/2/5
f 441/2/5 440/2/5 439/2/5
f 442/2/5 440/2/5 441/2/5
f 446/1/5 444/1/5 443/1/5
f 447/1/5 444/1/5 446/1/5
f 449/1/5 446/1/5 445/1/5
f 450/1/5 446/1/5 449/1/5
f 451/1/5 449/1/5 448/1/5
f 452/1/5 449/1/5 451/1/5
f 456/1/5 454/1/5 453/1/5
f 457/1/5 454/1/5 456/1/5
f 459/2/5 456/2/5 455/2/5
f 459/2/5 458/2/5 457/2/5
f 459/2/5 457/2/5 456/2/5
f 460/2/5 458/2/5 459/2/5
f 461/2/5 459/2/5 455/2/5
f 462/2/5 459/2/5 461/2/5
f 463/2/5 458/2/5 460/2/5
f 464/2/5 458/2/5 463/2/5
f 467/2/5 466/2/5 465/2/5
f 468/2/5 466/2/5 467/2/5
f 473/3/5 470/3/5 469/3/5
f 474/3/5 470/3/5 473/3/5
f 475/3/5 472/3/5 471/3/5
f 476/3/5 472/3/5 475/3/5
f 479/2/5 478/2/5 477/2/5
f 480/2/5 478/2/5 479/2/5
f 483/2/5 482/2/5 481/2/5
f 484/2/5 482/2/5 483/2/5
f 489/1/5 486/1/5 485/1/5
f 490/1/5 486/1/5 489/1/5
f 491/1/5 488/1/5 487/1/5
f 492/1/5 488/1/5 491/1/5
f 497/1/5 494/1/5 493/1/5
f 498/1/5 494/1/5 497/1/5
f 499/1/5 496/1/5 495/1/5
f 500/1/5 496/1/5 499/1/5
f 501/1/6 502/1/6 505/1/6
f 505/1/6 502/1/6 506/1/6
f 503/1/6 504/1/6 507/1/6
f 507/1/6 504/1/6 508/1/6
f 505/2/6 506/2/6 509/2/6
f 509/2/6 506/2/6 510/2/6
f 507/2/6 508/2/6 511/2/6
f 511/2/6 508/2/6 512/2/6
f 513/1/6 514/1/6 517/1/6
f 517/1/6 514/1/6 518/1/6
f 515/1/6 516/1/6 519/1/6
f 519/1/6 516/1/6 520/1/6
f 521/2/6 522/2/6 527/2/6
f 527/2/6 522/2/6 528/2/6
f 523/2/6 524/2/6 529/2/6
f 529/2/6 524/2/6 530/2/6
f 525/2/6 526/2/6 531/2/6
f 531/2/6 526/2/6 532/2/6
f 533/2/6 534/2/6 535/2/6
f 535/2/6 534/2/6 536/2/6
f 537/1/6 538/1/6 540/1/6
f 540/1/6 538/1/6 541/1/6
f 539/1/6 540/1/6 543/1/6
f 543/1/6 540/1/6 544/1/6
f 542/1/6 543/1/6 545/1/6
f 545/1/6 543/1/6 546/1/6
f 547/1/6 548/1/6 549/1/6
f 549/1/6 548/1/6 550/1/6
f 551/2/6 552/2/6 555/2/6
f 555/2/6 552/2/6 556/2/6
f 553/2/6 554/2/6 559/2/6
f 559/2/6 554/2/6 560/2/6
f 557/2/6 558/2/6 561/2/6
f 561/2/6 558/2/6 562/2/6
f 563/2/6 564/2/6 566/2/6
f 566/2/6 564/2/6 567/2/6
f 565/3/6 566/3/6 569/3/6
f 569/3/6 566/3/6 570/3/6
f 567/3/6 568/3/6 571/3/6
f 571/3/6 568/3/6 572/3/6
f 573/2/6 574/2/6 575/2/6
f 575/2/6 574/2/6 576/2/6
f 577/2/6 578/2/6 580/2/6
f 580/2/6 578/2/6 581/2/6
f 579/1/6 580/1/6 583/1/6
f 580/2/6 581/2/6 584/2/6
f 583/1/6 580/1/6 584/1/6
f 581/1/6 582/1/6 585/1/6
f 584/2/6 581/2/6 585/2/6
f 585/1/6 582/1/6 586/1/6
f 587/1/6 588/1/6 591/1/6
f 591/1/6 588/1/6 592/1/6
f 589/1/6 590/1/6 593/1/6
f 593/1/6 590/1/6 594/1/6
