# MagicaVoxel @ Ephtracy

# group
o 

# material
mtllib rat_jump_1.mtl
usemtl palette

# normals
vn -1 0 0
vn 1 0 0
vn 0 0 1
vn 0 0 -1
vn 0 -1 0
vn 0 1 0

# texcoords
vt 0.0292969 0.5
vt 0.982422 0.5
vt 0.994141 0.5

# verts
v 0 2 -0.7
v 0 2 -0.9
v 0 2.1 -0.7
v 0 2.1 -0.8
v 0 2.1 -0.9
v 0 2.1 -1
v 0 2.2 -0.3
v 0 2.2 -0.4
v 0 2.3 -0.3
v 0 2.3 -0.4
v 0 2.3 -0.5
v 0 2.4 -0.4
v 0 2.4 -0.5
v 0 2.4 -0.7
v 0 2.5 -0.8
v 0 2.5 -1
v 0 2.6 -0.5
v 0 2.6 -0.7
v 0 2.8 -0.2
v 0 2.8 -0.3
v 0 2.9 -0.2
v 0 2.9 -0.3
v 0 2.9 -0.5
v 0 3 -0.3
v 0 3 -0.5
v 0.1 2.2 -0.7
v 0.1 2.2 -0.8
v 0.1 2.2 -1
v 0.1 2.2 -1.1
v 0.1 2.4 -0.4
v 0.1 2.4 -0.5
v 0.1 2.4 -0.7
v 0.1 2.4 -1
v 0.1 2.4 -1.1
v 0.1 2.5 -0.3
v 0.1 2.5 -0.4
v 0.1 2.5 -0.8
v 0.1 2.6 -0.2
v 0.1 2.6 -0.3
v 0.1 2.6 -0.5
v 0.1 2.6 -0.7
v 0.1 2.6 -0.8
v 0.1 2.7 -0.1
v 0.1 2.7 -0.2
v 0.1 2.7 -0.6
v 0.1 2.7 -0.7
v 0.1 2.8 -0.2
v 0.1 2.8 -0.3
v 0.1 2.8 -0.4
v 0.1 2.8 -0.6
v 0.1 2.9 -0.1
v 0.1 2.9 -0.2
v 0.1 2.9 -0.3
v 0.1 2.9 -0.4
v 0.1 3 -0.2
v 0.1 3 -0.3
v 0.2 2.1 -1.2
v 0.2 2.1 -1.4
v 0.2 2.2 -1.1
v 0.2 2.2 -1.2
v 0.2 2.2 -1.4
v 0.2 2.2 -1.7
v 0.2 2.3 -1.1
v 0.2 2.3 -1.2
v 0.2 2.3 -1.4
v 0.2 2.3 -1.7
v 0.2 2.6 -0.1
v 0.2 2.6 -0.2
v 0.2 2.7 -0.1
v 0.2 2.7 -0.2
v 0.2 2.9 0
v 0.2 2.9 -0.1
v 0.2 3 0
v 0.2 3 -0.1
v 0.3 2.5 -0.4
v 0.3 2.5 -0.5
v 0.3 2.6 -0.4
v 0.3 2.6 -0.5
v 0.4 2 -0.7
v 0.4 2 -0.9
v 0.4 2.1 -0.7
v 0.4 2.1 -0.8
v 0.4 2.1 -0.9
v 0.4 2.1 -1
v 0.4 2.2 -0.3
v 0.4 2.2 -0.4
v 0.4 2.2 -0.8
v 0.4 2.2 -1
v 0.4 2.3 -0.3
v 0.4 2.3 -0.4
v 0.4 2.3 -0.5
v 0.4 2.4 -0.4
v 0.4 2.4 -0.5
v 0.4 2.5 -0.5
v 0.4 2.5 -0.6
v 0.4 2.6 -0.5
v 0.4 2.6 -0.6
v 0.4 2.9 -0.3
v 0.4 2.9 -0.4
v 0.4 2.9 -0.5
v 0.4 3 -0.3
v 0.4 3 -0.5
v 0.1 2 -0.7
v 0.1 2 -0.9
v 0.1 2.1 -0.7
v 0.1 2.1 -0.8
v 0.1 2.1 -0.9
v 0.1 2.1 -1
v 0.1 2.2 -0.3
v 0.1 2.2 -0.4
v 0.1 2.2 -0.8
v 0.1 2.2 -1
v 0.1 2.3 -0.3
v 0.1 2.3 -0.4
v 0.1 2.3 -0.5
v 0.1 2.4 -0.4
v 0.1 2.4 -0.5
v 0.1 2.5 -0.5
v 0.1 2.5 -0.6
v 0.1 2.6 -0.5
v 0.1 2.6 -0.6
v 0.1 2.9 -0.3
v 0.1 2.9 -0.4
v 0.1 2.9 -0.5
v 0.1 3 -0.3
v 0.1 3 -0.5
v 0.2 2.5 -0.4
v 0.2 2.5 -0.5
v 0.2 2.6 -0.4
v 0.2 2.6 -0.5
v 0.3 2.1 -1.2
v 0.3 2.1 -1.4
v 0.3 2.2 -1.1
v 0.3 2.2 -1.2
v 0.3 2.2 -1.4
v 0.3 2.2 -1.7
v 0.3 2.3 -1.1
v 0.3 2.3 -1.2
v 0.3 2.3 -1.4
v 0.3 2.3 -1.7
v 0.3 2.6 -0.1
v 0.3 2.6 -0.2
v 0.3 2.7 -0.1
v 0.3 2.7 -0.2
v 0.3 2.9 0
v 0.3 2.9 -0.1
v 0.3 3 0
v 0.3 3 -0.1
v 0.4 2.2 -0.7
v 0.4 2.2 -0.8
v 0.4 2.2 -1
v 0.4 2.2 -1.1
v 0.4 2.4 -0.4
v 0.4 2.4 -0.5
v 0.4 2.4 -0.7
v 0.4 2.4 -1
v 0.4 2.4 -1.1
v 0.4 2.5 -0.3
v 0.4 2.5 -0.4
v 0.4 2.5 -0.8
v 0.4 2.6 -0.2
v 0.4 2.6 -0.3
v 0.4 2.6 -0.5
v 0.4 2.6 -0.7
v 0.4 2.6 -0.8
v 0.4 2.7 -0.1
v 0.4 2.7 -0.2
v 0.4 2.7 -0.6
v 0.4 2.7 -0.7
v 0.4 2.8 -0.2
v 0.4 2.8 -0.3
v 0.4 2.8 -0.4
v 0.4 2.8 -0.6
v 0.4 2.9 -0.1
v 0.4 2.9 -0.2
v 0.4 2.9 -0.3
v 0.4 2.9 -0.4
v 0.4 3 -0.2
v 0.4 3 -0.3
v 0.5 2 -0.7
v 0.5 2 -0.9
v 0.5 2.1 -0.7
v 0.5 2.1 -0.8
v 0.5 2.1 -0.9
v 0.5 2.1 -1
v 0.5 2.2 -0.3
v 0.5 2.2 -0.4
v 0.5 2.3 -0.3
v 0.5 2.3 -0.4
v 0.5 2.3 -0.5
v 0.5 2.4 -0.4
v 0.5 2.4 -0.5
v 0.5 2.4 -0.7
v 0.5 2.5 -0.8
v 0.5 2.5 -1
v 0.5 2.6 -0.5
v 0.5 2.6 -0.7
v 0.5 2.8 -0.2
v 0.5 2.8 -0.3
v 0.5 2.9 -0.2
v 0.5 2.9 -0.3
v 0.5 2.9 -0.5
v 0.5 3 -0.3
v 0.5 3 -0.5
v 0.2 2.9 0
v 0.2 3 0
v 0.3 2.9 0
v 0.3 3 0
v 0.1 2.7 -0.1
v 0.1 2.9 -0.1
v 0.2 2.6 -0.1
v 0.2 2.7 -0.1
v 0.2 2.9 -0.1
v 0.3 2.6 -0.1
v 0.3 2.7 -0.1
v 0.3 2.9 -0.1
v 0.4 2.7 -0.1
v 0.4 2.9 -0.1
v 0 2.8 -0.2
v 0 2.9 -0.2
v 0.1 2.6 -0.2
v 0.1 2.7 -0.2
v 0.1 2.8 -0.2
v 0.1 2.9 -0.2
v 0.1 3 -0.2
v 0.2 2.6 -0.2
v 0.2 2.7 -0.2
v 0.3 2.6 -0.2
v 0.3 2.7 -0.2
v 0.4 2.6 -0.2
v 0.4 2.7 -0.2
v 0.4 2.8 -0.2
v 0.4 2.9 -0.2
v 0.4 3 -0.2
v 0.5 2.8 -0.2
v 0.5 2.9 -0.2
v 0 2.2 -0.3
v 0 2.3 -0.3
v 0 2.9 -0.3
v 0 3 -0.3
v 0.1 2.2 -0.3
v 0.1 2.3 -0.3
v 0.1 2.5 -0.3
v 0.1 2.6 -0.3
v 0.1 2.9 -0.3
v 0.1 3 -0.3
v 0.4 2.2 -0.3
v 0.4 2.3 -0.3
v 0.4 2.5 -0.3
v 0.4 2.6 -0.3
v 0.4 2.9 -0.3
v 0.4 3 -0.3
v 0.5 2.2 -0.3
v 0.5 2.3 -0.3
v 0.5 2.9 -0.3
v 0.5 3 -0.3
v 0 2.3 -0.4
v 0 2.4 -0.4
v 0.1 2.3 -0.4
v 0.1 2.4 -0.4
v 0.1 2.5 -0.4
v 0.4 2.3 -0.4
v 0.4 2.4 -0.4
v 0.4 2.5 -0.4
v 0.5 2.3 -0.4
v 0.5 2.4 -0.4
v 0 2.4 -0.5
v 0 2.6 -0.5
v 0.1 2.4 -0.5
v 0.1 2.6 -0.5
v 0.4 2.4 -0.5
v 0.4 2.6 -0.5
v 0.5 2.4 -0.5
v 0.5 2.6 -0.5
v 0.1 2.5 -0.6
v 0.1 2.6 -0.6
v 0.4 2.5 -0.6
v 0.4 2.6 -0.6
v 0 2 -0.7
v 0 2.1 -0.7
v 0.1 2 -0.7
v 0.1 2.1 -0.7
v 0.1 2.2 -0.7
v 0.1 2.4 -0.7
v 0.4 2 -0.7
v 0.4 2.1 -0.7
v 0.4 2.2 -0.7
v 0.4 2.4 -0.7
v 0.5 2 -0.7
v 0.5 2.1 -0.7
v 0 2.1 -0.8
v 0 2.5 -0.8
v 0.1 2.1 -0.8
v 0.1 2.2 -0.8
v 0.1 2.5 -0.8
v 0.4 2.1 -0.8
v 0.4 2.2 -0.8
v 0.4 2.5 -0.8
v 0.5 2.1 -0.8
v 0.5 2.5 -0.8
v 0.2 2.1 -1.2
v 0.2 2.2 -1.2
v 0.3 2.1 -1.2
v 0.3 2.2 -1.2
v 0.2 2.2 -1.4
v 0.2 2.3 -1.4
v 0.3 2.2 -1.4
v 0.3 2.3 -1.4
v 0.2 2.9 -0.1
v 0.2 3 -0.1
v 0.3 2.9 -0.1
v 0.3 3 -0.1
v 0 2.8 -0.3
v 0 2.9 -0.3
v 0.1 2.8 -0.3
v 0.1 2.9 -0.3
v 0.1 3 -0.3
v 0.4 2.8 -0.3
v 0.4 2.9 -0.3
v 0.4 3 -0.3
v 0.5 2.8 -0.3
v 0.5 2.9 -0.3
v 0 2.2 -0.4
v 0 2.3 -0.4
v 0.1 2.2 -0.4
v 0.1 2.3 -0.4
v 0.1 2.8 -0.4
v 0.1 2.9 -0.4
v 0.2 2.5 -0.4
v 0.2 2.6 -0.4
v 0.3 2.5 -0.4
v 0.3 2.6 -0.4
v 0.4 2.2 -0.4
v 0.4 2.3 -0.4
v 0.4 2.8 -0.4
v 0.4 2.9 -0.4
v 0.5 2.2 -0.4
v 0.5 2.3 -0.4
v 0 2.3 -0.5
v 0 2.4 -0.5
v 0 2.9 -0.5
v 0 3 -0.5
v 0.1 2.3 -0.5
v 0.1 2.4 -0.5
v 0.1 2.5 -0.5
v 0.1 2.6 -0.5
v 0.1 2.9 -0.5
v 0.1 3 -0.5
v 0.2 2.5 -0.5
v 0.2 2.6 -0.5
v 0.3 2.5 -0.5
v 0.3 2.6 -0.5
v 0.4 2.3 -0.5
v 0.4 2.4 -0.5
v 0.4 2.5 -0.5
v 0.4 2.6 -0.5
v 0.4 2.9 -0.5
v 0.4 3 -0.5
v 0.5 2.3 -0.5
v 0.5 2.4 -0.5
v 0.5 2.9 -0.5
v 0.5 3 -0.5
v 0.1 2.7 -0.6
v 0.1 2.8 -0.6
v 0.4 2.7 -0.6
v 0.4 2.8 -0.6
v 0 2.4 -0.7
v 0 2.6 -0.7
v 0.1 2.4 -0.7
v 0.1 2.6 -0.7
v 0.1 2.7 -0.7
v 0.4 2.4 -0.7
v 0.4 2.6 -0.7
v 0.4 2.7 -0.7
v 0.5 2.4 -0.7
v 0.5 2.6 -0.7
v 0.1 2.5 -0.8
v 0.1 2.6 -0.8
v 0.4 2.5 -0.8
v 0.4 2.6 -0.8
v 0 2 -0.9
v 0 2.1 -0.9
v 0.1 2 -0.9
v 0.1 2.1 -0.9
v 0.4 2 -0.9
v 0.4 2.1 -0.9
v 0.5 2 -0.9
v 0.5 2.1 -0.9
v 0 2.1 -1
v 0 2.5 -1
v 0.1 2.1 -1
v 0.1 2.2 -1
v 0.1 2.4 -1
v 0.4 2.1 -1
v 0.4 2.2 -1
v 0.4 2.4 -1
v 0.5 2.1 -1
v 0.5 2.5 -1
v 0.1 2.2 -1.1
v 0.1 2.4 -1.1
v 0.2 2.2 -1.1
v 0.2 2.3 -1.1
v 0.3 2.2 -1.1
v 0.3 2.3 -1.1
v 0.4 2.2 -1.1
v 0.4 2.4 -1.1
v 0.2 2.2 -1.2
v 0.2 2.3 -1.2
v 0.3 2.2 -1.2
v 0.3 2.3 -1.2
v 0.2 2.1 -1.4
v 0.2 2.2 -1.4
v 0.3 2.1 -1.4
v 0.3 2.2 -1.4
v 0.2 2.2 -1.7
v 0.2 2.3 -1.7
v 0.3 2.2 -1.7
v 0.3 2.3 -1.7
v 0 2 -0.7
v 0.1 2 -0.7
v 0.4 2 -0.7
v 0.5 2 -0.7
v 0 2 -0.9
v 0.1 2 -0.9
v 0.4 2 -0.9
v 0.5 2 -0.9
v 0 2.1 -0.9
v 0.1 2.1 -0.9
v 0.4 2.1 -0.9
v 0.5 2.1 -0.9
v 0 2.1 -1
v 0.1 2.1 -1
v 0.4 2.1 -1
v 0.5 2.1 -1
v 0.2 2.1 -1.2
v 0.3 2.1 -1.2
v 0.2 2.1 -1.4
v 0.3 2.1 -1.4
v 0 2.2 -0.3
v 0.1 2.2 -0.3
v 0.4 2.2 -0.3
v 0.5 2.2 -0.3
v 0 2.2 -0.4
v 0.1 2.2 -0.4
v 0.4 2.2 -0.4
v 0.5 2.2 -0.4
v 0.1 2.2 -0.7
v 0.4 2.2 -0.7
v 0.1 2.2 -0.8
v 0.4 2.2 -0.8
v 0.1 2.2 -1
v 0.4 2.2 -1
v 0.1 2.2 -1.1
v 0.2 2.2 -1.1
v 0.3 2.2 -1.1
v 0.4 2.2 -1.1
v 0.2 2.2 -1.2
v 0.3 2.2 -1.2
v 0.2 2.2 -1.4
v 0.3 2.2 -1.4
v 0.2 2.2 -1.7
v 0.3 2.2 -1.7
v 0 2.3 -0.4
v 0.1 2.3 -0.4
v 0.4 2.3 -0.4
v 0.5 2.3 -0.4
v 0 2.3 -0.5
v 0.1 2.3 -0.5
v 0.4 2.3 -0.5
v 0.5 2.3 -0.5
v 0.1 2.4 -0.4
v 0.4 2.4 -0.4
v 0 2.4 -0.5
v 0.1 2.4 -0.5
v 0.4 2.4 -0.5
v 0.5 2.4 -0.5
v 0 2.4 -0.7
v 0.1 2.4 -0.7
v 0.4 2.4 -0.7
v 0.5 2.4 -0.7
v 0.1 2.5 -0.3
v 0.4 2.5 -0.3
v 0.1 2.5 -0.4
v 0.4 2.5 -0.4
v 0.2 2.6 -0.1
v 0.3 2.6 -0.1
v 0.1 2.6 -0.2
v 0.2 2.6 -0.2
v 0.3 2.6 -0.2
v 0.4 2.6 -0.2
v 0.1 2.6 -0.3
v 0.4 2.6 -0.3
v 0.2 2.6 -0.4
v 0.3 2.6 -0.4
v 0.1 2.6 -0.5
v 0.2 2.6 -0.5
v 0.3 2.6 -0.5
v 0.4 2.6 -0.5
v 0.1 2.6 -0.6
v 0.4 2.6 -0.6
v 0.1 2.7 -0.1
v 0.2 2.7 -0.1
v 0.3 2.7 -0.1
v 0.4 2.7 -0.1
v 0.1 2.7 -0.2
v 0.2 2.7 -0.2
v 0.3 2.7 -0.2
v 0.4 2.7 -0.2
v 0 2.8 -0.2
v 0.1 2.8 -0.2
v 0.4 2.8 -0.2
v 0.5 2.8 -0.2
v 0 2.8 -0.3
v 0.1 2.8 -0.3
v 0.4 2.8 -0.3
v 0.5 2.8 -0.3
v 0.2 2.9 0
v 0.3 2.9 0
v 0.2 2.9 -0.1
v 0.3 2.9 -0.1
v 0 2.9 -0.3
v 0.1 2.9 -0.3
v 0.4 2.9 -0.3
v 0.5 2.9 -0.3
v 0.1 2.9 -0.4
v 0.4 2.9 -0.4
v 0 2.9 -0.5
v 0.1 2.9 -0.5
v 0.4 2.9 -0.5
v 0.5 2.9 -0.5
v 0 2.1 -0.7
v 0.1 2.1 -0.7
v 0.4 2.1 -0.7
v 0.5 2.1 -0.7
v 0 2.1 -0.8
v 0.1 2.1 -0.8
v 0.4 2.1 -0.8
v 0.5 2.1 -0.8
v 0.2 2.2 -1.2
v 0.3 2.2 -1.2
v 0.2 2.2 -1.4
v 0.3 2.2 -1.4
v 0 2.3 -0.3
v 0.1 2.3 -0.3
v 0.4 2.3 -0.3
v 0.5 2.3 -0.3
v 0 2.3 -0.4
v 0.1 2.3 -0.4
v 0.4 2.3 -0.4
v 0.5 2.3 -0.4
v 0.2 2.3 -1.1
v 0.3 2.3 -1.1
v 0.2 2.3 -1.2
v 0.3 2.3 -1.2
v 0.2 2.3 -1.4
v 0.3 2.3 -1.4
v 0.2 2.3 -1.7
v 0.3 2.3 -1.7
v 0 2.4 -0.4
v 0.1 2.4 -0.4
v 0.4 2.4 -0.4
v 0.5 2.4 -0.4
v 0 2.4 -0.5
v 0.1 2.4 -0.5
v 0.4 2.4 -0.5
v 0.5 2.4 -0.5
v 0.1 2.4 -1
v 0.4 2.4 -1
v 0.1 2.4 -1.1
v 0.4 2.4 -1.1
v 0.2 2.5 -0.4
v 0.3 2.5 -0.4
v 0.1 2.5 -0.5
v 0.2 2.5 -0.5
v 0.3 2.5 -0.5
v 0.4 2.5 -0.5
v 0.1 2.5 -0.6
v 0.4 2.5 -0.6
v 0 2.5 -0.8
v 0.1 2.5 -0.8
v 0.4 2.5 -0.8
v 0.5 2.5 -0.8
v 0 2.5 -1
v 0.5 2.5 -1
v 0 2.6 -0.5
v 0.1 2.6 -0.5
v 0.4 2.6 -0.5
v 0.5 2.6 -0.5
v 0 2.6 -0.7
v 0.1 2.6 -0.7
v 0.4 2.6 -0.7
v 0.5 2.6 -0.7
v 0.1 2.6 -0.8
v 0.4 2.6 -0.8
v 0.1 2.7 -0.6
v 0.4 2.7 -0.6
v 0.1 2.7 -0.7
v 0.4 2.7 -0.7
v 0.1 2.8 -0.4
v 0.4 2.8 -0.4
v 0.1 2.8 -0.6
v 0.4 2.8 -0.6
v 0.1 2.9 -0.1
v 0.2 2.9 -0.1
v 0.3 2.9 -0.1
v 0.4 2.9 -0.1
v 0 2.9 -0.2
v 0.1 2.9 -0.2
v 0.4 2.9 -0.2
v 0.5 2.9 -0.2
v 0 2.9 -0.3
v 0.1 2.9 -0.3
v 0.4 2.9 -0.3
v 0.5 2.9 -0.3
v 0.1 2.9 -0.4
v 0.4 2.9 -0.4
v 0.2 3 0
v 0.3 3 0
v 0.2 3 -0.1
v 0.3 3 -0.1
v 0.1 3 -0.2
v 0.4 3 -0.2
v 0 3 -0.3
v 0.1 3 -0.3
v 0.4 3 -0.3
v 0.5 3 -0.3
v 0 3 -0.5
v 0.1 3 -0.5
v 0.4 3 -0.5
v 0.5 3 -0.5

# faces
f 3/1/1 2/1/1 1/1/1
f 4/1/1 2/1/1 3/1/1
f 5/1/1 2/1/1 4/1/1
f 9/1/1 8/1/1 7/1/1
f 10/1/1 8/1/1 9/1/1
f 12/1/1 11/1/1 10/1/1
f 13/1/1 11/1/1 12/1/1
f 15/2/1 6/2/1 5/2/1
f 15/2/1 5/2/1 4/2/1
f 16/2/1 6/2/1 15/2/1
f 17/2/1 14/2/1 13/2/1
f 18/2/1 14/2/1 17/2/1
f 21/3/1 20/3/1 19/3/1
f 22/3/1 20/3/1 21/3/1
f 24/1/1 23/1/1 22/1/1
f 25/1/1 23/1/1 24/1/1
f 32/2/1 27/2/1 26/2/1
f 33/2/1 29/2/1 28/2/1
f 34/2/1 29/2/1 33/2/1
f 36/2/1 31/2/1 30/2/1
f 37/2/1 27/2/1 32/2/1
f 39/2/1 36/2/1 35/2/1
f 40/2/1 31/2/1 36/2/1
f 40/2/1 36/2/1 39/2/1
f 41/2/1 37/2/1 32/2/1
f 42/2/1 37/2/1 41/2/1
f 44/2/1 39/2/1 38/2/1
f 44/2/1 40/2/1 39/2/1
f 44/2/1 41/2/1 40/2/1
f 45/2/1 41/2/1 44/2/1
f 46/2/1 41/2/1 45/2/1
f 47/2/1 44/2/1 43/2/1
f 47/2/1 45/2/1 44/2/1
f 48/2/1 45/2/1 47/2/1
f 49/2/1 45/2/1 48/2/1
f 50/2/1 45/2/1 49/2/1
f 51/2/1 47/2/1 43/2/1
f 52/2/1 47/2/1 51/2/1
f 53/2/1 49/2/1 48/2/1
f 54/2/1 49/2/1 53/2/1
f 55/2/1 53/2/1 52/2/1
f 56/2/1 53/2/1 55/2/1
f 60/1/1 58/1/1 57/1/1
f 61/1/1 58/1/1 60/1/1
f 63/2/1 60/2/1 59/2/1
f 64/2/1 60/2/1 63/2/1
f 65/1/1 62/1/1 61/1/1
f 66/1/1 62/1/1 65/1/1
f 69/2/1 68/2/1 67/2/1
f 70/2/1 68/2/1 69/2/1
f 73/1/1 72/1/1 71/1/1
f 74/1/1 72/1/1 73/1/1
f 77/2/1 76/2/1 75/2/1
f 78/2/1 76/2/1 77/2/1
f 81/1/1 80/1/1 79/1/1
f 82/1/1 80/1/1 81/1/1
f 83/1/1 80/1/1 82/1/1
f 87/2/1 84/2/1 83/2/1
f 87/2/1 83/2/1 82/2/1
f 88/2/1 84/2/1 87/2/1
f 89/1/1 86/1/1 85/1/1
f 90/1/1 86/1/1 89/1/1
f 92/1/1 91/1/1 90/1/1
f 93/1/1 91/1/1 92/1/1
f 96/2/1 95/2/1 94/2/1
f 97/2/1 95/2/1 96/2/1
f 101/1/1 99/1/1 98/1/1
f 101/1/1 100/1/1 99/1/1
f 102/1/1 100/1/1 101/1/1
f 103/1/2 104/1/2 105/1/2
f 105/1/2 104/1/2 106/1/2
f 106/1/2 104/1/2 107/1/2
f 107/2/2 108/2/2 111/2/2
f 106/2/2 107/2/2 111/2/2
f 111/2/2 108/2/2 112/2/2
f 109/1/2 110/1/2 113/1/2
f 113/1/2 110/1/2 114/1/2
f 114/1/2 115/1/2 116/1/2
f 116/1/2 115/1/2 117/1/2
f 118/2/2 119/2/2 120/2/2
f 120/2/2 119/2/2 121/2/2
f 122/1/2 123/1/2 125/1/2
f 123/1/2 124/1/2 125/1/2
f 125/1/2 124/1/2 126/1/2
f 127/2/2 128/2/2 129/2/2
f 129/2/2 128/2/2 130/2/2
f 131/1/2 132/1/2 134/1/2
f 134/1/2 132/1/2 135/1/2
f 133/2/2 134/2/2 137/2/2
f 137/2/2 134/2/2 138/2/2
f 135/1/2 136/1/2 139/1/2
f 139/1/2 136/1/2 140/1/2
f 141/2/2 142/2/2 143/2/2
f 143/2/2 142/2/2 144/2/2
f 145/1/2 146/1/2 147/1/2
f 147/1/2 146/1/2 148/1/2
f 149/2/2 150/2/2 155/2/2
f 151/2/2 152/2/2 156/2/2
f 156/2/2 152/2/2 157/2/2
f 153/2/2 154/2/2 159/2/2
f 155/2/2 150/2/2 160/2/2
f 158/2/2 159/2/2 162/2/2
f 159/2/2 154/2/2 163/2/2
f 162/2/2 159/2/2 163/2/2
f 155/2/2 160/2/2 164/2/2
f 164/2/2 160/2/2 165/2/2
f 161/2/2 162/2/2 167/2/2
f 162/2/2 163/2/2 167/2/2
f 163/2/2 164/2/2 167/2/2
f 167/2/2 164/2/2 168/2/2
f 168/2/2 164/2/2 169/2/2
f 166/2/2 167/2/2 170/2/2
f 167/2/2 168/2/2 170/2/2
f 170/2/2 168/2/2 171/2/2
f 171/2/2 168/2/2 172/2/2
f 172/2/2 168/2/2 173/2/2
f 166/2/2 170/2/2 174/2/2
f 174/2/2 170/2/2 175/2/2
f 171/2/2 172/2/2 176/2/2
f 176/2/2 172/2/2 177/2/2
f 175/2/2 176/2/2 178/2/2
f 178/2/2 176/2/2 179/2/2
f 180/1/2 181/1/2 182/1/2
f 182/1/2 181/1/2 183/1/2
f 183/1/2 181/1/2 184/1/2
f 186/1/2 187/1/2 188/1/2
f 188/1/2 187/1/2 189/1/2
f 189/1/2 190/1/2 191/1/2
f 191/1/2 190/1/2 192/1/2
f 184/2/2 185/2/2 194/2/2
f 183/2/2 184/2/2 194/2/2
f 194/2/2 185/2/2 195/2/2
f 192/2/2 193/2/2 196/2/2
f 196/2/2 193/2/2 197/2/2
f 198/3/2 199/3/2 200/3/2
f 200/3/2 199/3/2 201/3/2
f 201/1/2 202/1/2 203/1/2
f 203/1/2 202/1/2 204/1/2
f 207/1/3 206/1/3 205/1/3
f 208/1/3 206/1/3 207/1/3
f 212/2/3 210/2/3 209/2/3
f 213/2/3 210/2/3 212/2/3
f 214/2/3 212/2/3 211/2/3
f 214/2/3 213/2/3 212/2/3
f 215/2/3 213/2/3 214/2/3
f 216/2/3 213/2/3 215/2/3
f 217/2/3 216/2/3 215/2/3
f 218/2/3 216/2/3 217/2/3
f 223/3/3 220/3/3 219/3/3
f 224/3/3 220/3/3 223/3/3
f 226/2/3 222/2/3 221/2/3
f 227/2/3 222/2/3 226/2/3
f 230/2/3 229/2/3 228/2/3
f 231/2/3 229/2/3 230/2/3
f 233/2/3 225/2/3 224/2/3
f 234/2/3 225/2/3 233/2/3
f 235/3/3 233/3/3 232/3/3
f 236/3/3 233/3/3 235/3/3
f 241/1/3 238/1/3 237/1/3
f 242/1/3 238/1/3 241/1/3
f 245/1/3 240/1/3 239/1/3
f 246/1/3 240/1/3 245/1/3
f 249/2/3 244/2/3 243/2/3
f 250/2/3 244/2/3 249/2/3
f 253/1/3 248/1/3 247/1/3
f 254/1/3 248/1/3 253/1/3
f 255/1/3 252/1/3 251/1/3
f 256/1/3 252/1/3 255/1/3
f 259/1/3 258/1/3 257/1/3
f 260/1/3 258/1/3 259/1/3
f 263/2/3 261/2/3 260/2/3
f 264/2/3 261/2/3 263/2/3
f 265/1/3 263/1/3 262/1/3
f 266/1/3 263/1/3 265/1/3
f 269/2/3 268/2/3 267/2/3
f 270/2/3 268/2/3 269/2/3
f 273/2/3 272/2/3 271/2/3
f 274/2/3 272/2/3 273/2/3
f 277/2/3 276/2/3 275/2/3
f 278/2/3 276/2/3 277/2/3
f 281/1/3 280/1/3 279/1/3
f 282/1/3 280/1/3 281/1/3
f 287/2/3 284/2/3 283/2/3
f 288/2/3 284/2/3 287/2/3
f 289/1/3 286/1/3 285/1/3
f 290/1/3 286/1/3 289/1/3
f 293/2/3 292/2/3 291/2/3
f 294/2/3 292/2/3 293/2/3
f 295/2/3 292/2/3 294/2/3
f 299/2/3 297/2/3 296/2/3
f 299/2/3 298/2/3 297/2/3
f 300/2/3 298/2/3 299/2/3
f 303/1/3 302/1/3 301/1/3
f 304/1/3 302/1/3 303/1/3
f 307/1/3 306/1/3 305/1/3
f 308/1/3 306/1/3 307/1/3
f 309/1/4 310/1/4 311/1/4
f 311/1/4 310/1/4 312/1/4
f 313/3/4 314/3/4 315/3/4
f 315/3/4 314/3/4 316/3/4
f 316/2/4 317/2/4 319/2/4
f 319/2/4 317/2/4 320/2/4
f 318/3/4 319/3/4 321/3/4
f 321/3/4 319/3/4 322/3/4
f 323/1/4 324/1/4 325/1/4
f 325/1/4 324/1/4 326/1/4
f 329/2/4 330/2/4 331/2/4
f 331/2/4 330/2/4 332/2/4
f 327/2/4 328/2/4 335/2/4
f 335/2/4 328/2/4 336/2/4
f 333/1/4 334/1/4 337/1/4
f 337/1/4 334/1/4 338/1/4
f 339/1/4 340/1/4 343/1/4
f 343/1/4 340/1/4 344/1/4
f 341/1/4 342/1/4 347/1/4
f 347/1/4 342/1/4 348/1/4
f 345/2/4 346/2/4 349/2/4
f 349/2/4 346/2/4 350/2/4
f 351/2/4 352/2/4 355/2/4
f 355/2/4 352/2/4 356/2/4
f 353/1/4 354/1/4 359/1/4
f 359/1/4 354/1/4 360/1/4
f 357/1/4 358/1/4 361/1/4
f 361/1/4 358/1/4 362/1/4
f 363/2/4 364/2/4 365/2/4
f 365/2/4 364/2/4 366/2/4
f 367/2/4 368/2/4 369/2/4
f 369/2/4 368/2/4 370/2/4
f 370/2/4 371/2/4 373/2/4
f 373/2/4 371/2/4 374/2/4
f 372/2/4 373/2/4 375/2/4
f 375/2/4 373/2/4 376/2/4
f 377/2/4 378/2/4 379/2/4
f 379/2/4 378/2/4 380/2/4
f 381/1/4 382/1/4 383/1/4
f 383/1/4 382/1/4 384/1/4
f 385/1/4 386/1/4 387/1/4
f 387/1/4 386/1/4 388/1/4
f 389/2/4 390/2/4 391/2/4
f 391/2/4 390/2/4 392/2/4
f 392/2/4 390/2/4 393/2/4
f 393/2/4 390/2/4 396/2/4
f 394/2/4 395/2/4 397/2/4
f 395/2/4 396/2/4 397/2/4
f 396/2/4 390/2/4 398/2/4
f 397/2/4 396/2/4 398/2/4
f 399/2/4 400/2/4 401/2/4
f 401/2/4 400/2/4 402/2/4
f 402/2/4 400/2/4 404/2/4
f 403/2/4 404/2/4 405/2/4
f 404/2/4 400/2/4 406/2/4
f 405/2/4 404/2/4 406/2/4
f 407/2/4 408/2/4 409/2/4
f 409/2/4 408/2/4 410/2/4
f 411/1/4 412/1/4 413/1/4
f 413/1/4 412/1/4 414/1/4
f 415/1/4 416/1/4 417/1/4
f 417/1/4 416/1/4 418/1/4
f 423/1/5 420/1/5 419/1/5
f 424/1/5 420/1/5 423/1/5
f 425/1/5 422/1/5 421/1/5
f 426/1/5 422/1/5 425/1/5
f 431/2/5 428/2/5 427/2/5
f 432/2/5 428/2/5 431/2/5
f 433/2/5 430/2/5 429/2/5
f 434/2/5 430/2/5 433/2/5
f 437/1/5 436/1/5 435/1/5
f 438/1/5 436/1/5 437/1/5
f 443/1/5 440/1/5 439/1/5
f 444/1/5 440/1/5 443/1/5
f 445/1/5 442/1/5 441/1/5
f 446/1/5 442/1/5 445/1/5
f 449/2/5 448/2/5 447/2/5
f 450/2/5 448/2/5 449/2/5
f 451/2/5 450/2/5 449/2/5
f 452/2/5 450/2/5 451/2/5
f 453/2/5 452/2/5 451/2/5
f 454/2/5 452/2/5 453/2/5
f 455/2/5 452/2/5 454/2/5
f 456/2/5 452/2/5 455/2/5
f 457/2/5 455/2/5 454/2/5
f 458/2/5 455/2/5 457/2/5
f 461/1/5 460/1/5 459/1/5
f 462/1/5 460/1/5 461/1/5
f 467/1/5 464/1/5 463/1/5
f 468/1/5 464/1/5 467/1/5
f 469/1/5 466/1/5 465/1/5
f 470/1/5 466/1/5 469/1/5
f 474/2/5 472/2/5 471/2/5
f 475/2/5 472/2/5 474/2/5
f 477/2/5 474/2/5 473/2/5
f 477/2/5 476/2/5 475/2/5
f 477/2/5 475/2/5 474/2/5
f 478/2/5 476/2/5 477/2/5
f 479/2/5 476/2/5 478/2/5
f 480/2/5 476/2/5 479/2/5
f 483/2/5 482/2/5 481/2/5
f 484/2/5 482/2/5 483/2/5
f 488/2/5 486/2/5 485/2/5
f 489/2/5 486/2/5 488/2/5
f 491/2/5 488/2/5 487/2/5
f 491/2/5 490/2/5 489/2/5
f 491/2/5 489/2/5 488/2/5
f 492/2/5 490/2/5 491/2/5
f 496/2/5 494/2/5 493/2/5
f 497/2/5 494/2/5 496/2/5
f 499/2/5 496/2/5 495/2/5
f 499/2/5 498/2/5 497/2/5
f 499/2/5 497/2/5 496/2/5
f 500/2/5 498/2/5 499/2/5
f 505/2/5 502/2/5 501/2/5
f 506/2/5 502/2/5 505/2/5
f 507/2/5 504/2/5 503/2/5
f 508/2/5 504/2/5 507/2/5
f 513/3/5 510/3/5 509/3/5
f 514/3/5 510/3/5 513/3/5
f 515/3/5 512/3/5 511/3/5
f 516/3/5 512/3/5 515/3/5
f 519/1/5 518/1/5 517/1/5
f 520/1/5 518/1/5 519/1/5
f 525/1/5 522/1/5 521/1/5
f 526/1/5 524/1/5 523/1/5
f 527/1/5 525/1/5 521/1/5
f 528/1/5 525/1/5 527/1/5
f 529/1/5 524/1/5 526/1/5
f 530/1/5 524/1/5 529/1/5
f 531/1/6 532/1/6 535/1/6
f 535/1/6 532/1/6 536/1/6
f 533/1/6 534/1/6 537/1/6
f 537/1/6 534/1/6 538/1/6
f 539/1/6 540/1/6 541/1/6
f 541/1/6 540/1/6 542/1/6
f 543/1/6 544/1/6 547/1/6
f 547/1/6 544/1/6 548/1/6
f 545/1/6 546/1/6 549/1/6
f 549/1/6 546/1/6 550/1/6
f 551/2/6 552/2/6 553/2/6
f 553/2/6 552/2/6 554/2/6
f 555/1/6 556/1/6 557/1/6
f 557/1/6 556/1/6 558/1/6
f 559/1/6 560/1/6 563/1/6
f 563/1/6 560/1/6 564/1/6
f 561/1/6 562/1/6 565/1/6
f 565/1/6 562/1/6 566/1/6
f 567/2/6 568/2/6 569/2/6
f 569/2/6 568/2/6 570/2/6
f 571/2/6 572/2/6 574/2/6
f 574/2/6 572/2/6 575/2/6
f 573/2/6 574/2/6 577/2/6
f 575/2/6 576/2/6 577/2/6
f 574/2/6 575/2/6 577/2/6
f 577/2/6 576/2/6 578/2/6
f 580/2/6 581/2/6 583/2/6
f 581/2/6 582/2/6 583/2/6
f 579/2/6 580/2/6 583/2/6
f 583/2/6 582/2/6 584/2/6
f 585/2/6 586/2/6 589/2/6
f 589/2/6 586/2/6 590/2/6
f 587/2/6 588/2/6 591/2/6
f 591/2/6 588/2/6 592/2/6
f 590/2/6 591/2/6 593/2/6
f 593/2/6 591/2/6 594/2/6
f 595/2/6 596/2/6 597/2/6
f 597/2/6 596/2/6 598/2/6
f 599/2/6 600/2/6 601/2/6
f 601/2/6 600/2/6 602/2/6
f 603/2/6 604/2/6 608/2/6
f 605/2/6 606/2/6 608/2/6
f 604/2/6 605/2/6 608/2/6
f 608/2/6 606/2/6 609/2/6
f 607/3/6 608/3/6 611/3/6
f 611/3/6 608/3/6 612/3/6
f 609/3/6 610/3/6 613/3/6
f 613/3/6 610/3/6 614/3/6
f 612/2/6 613/2/6 615/2/6
f 615/2/6 613/2/6 616/2/6
f 617/1/6 618/1/6 619/1/6
f 619/1/6 618/1/6 620/1/6
f 621/2/6 622/2/6 624/2/6
f 624/2/6 622/2/6 625/2/6
f 623/1/6 624/1/6 627/1/6
f 627/1/6 624/1/6 628/1/6
f 625/1/6 626/1/6 629/1/6
f 629/1/6 626/1/6 630/1/6
